  0
SECTION
  2
HEADER
  9
$ACADVER
  1
AC1015
  9
$ACADMAINTVER
 70
     6
  9
$DWGCODEPAGE
  3
ANSI_1252
  9
$INSBASE
 10
0.0
 20
0.0
 30
0.0
  9
$EXTMIN
 10
-3.5
 20
-8.75
 30
0.0
  9
$EXTMAX
 10
3.5
 20
8.75
 30
0.0
  9
$LIMMIN
 10
0.0
 20
0.0
  9
$LIMMAX
 10
12.0
 20
9.0
  9
$ORTHOMODE
 70
     0
  9
$REGENMODE
 70
     1
  9
$FILLMODE
 70
     1
  9
$QTEXTMODE
 70
     0
  9
$MIRRTEXT
 70
     1
  9
$LTSCALE
 40
1.0
  9
$ATTMODE
 70
     1
  9
$TEXTSIZE
 40
0.125
  9
$TRACEWID
 40
0.05
  9
$TEXTSTYLE
  7
Standard
  9
$CLAYER
  8
0
  9
$CELTYPE
  6
ByLayer
  9
$CECOLOR
 62
   256
  9
$CELTSCALE
 40
1.0
  9
$DISPSILH
 70
     0
  9
$DIMSCALE
 40
1.0
  9
$DIMASZ
 40
0.13
  9
$DIMEXO
 40
0.0
  9
$DIMDLI
 40
0.38
  9
$DIMRND
 40
0.0
  9
$DIMDLE
 40
0.0
  9
$DIMEXE
 40
0.125
  9
$DIMTP
 40
0.0
  9
$DIMTM
 40
0.0
  9
$DIMTXT
 40
0.125
  9
$DIMCEN
 40
0.09
  9
$DIMTSZ
 40
0.0
  9
$DIMTOL
 70
     0
  9
$DIMLIM
 70
     0
  9
$DIMTIH
 70
     1
  9
$DIMTOH
 70
     1
  9
$DIMSE1
 70
     0
  9
$DIMSE2
 70
     0
  9
$DIMTAD
 70
     0
  9
$DIMZIN
 70
     1
  9
$DIMBLK
  1

  9
$DIMASO
 70
     1
  9
$DIMSHO
 70
     1
  9
$DIMPOST
  1

  9
$DIMAPOST
  1

  9
$DIMALT
 70
     0
  9
$DIMALTD
 70
     2
  9
$DIMALTF
 40
25.4
  9
$DIMLFAC
 40
1.0
  9
$DIMTOFL
 70
     0
  9
$DIMTVP
 40
0.0
  9
$DIMTIX
 70
     0
  9
$DIMSOXD
 70
     0
  9
$DIMSAH
 70
     0
  9
$DIMBLK1
  1

  9
$DIMBLK2
  1

  9
$DIMSTYLE
  2
Standard
  9
$DIMCLRD
 70
     0
  9
$DIMCLRE
 70
     0
  9
$DIMCLRT
 70
     0
  9
$DIMTFAC
 40
1.0
  9
$DIMGAP
 40
0.06
  9
$DIMJUST
 70
     0
  9
$DIMSD1
 70
     0
  9
$DIMSD2
 70
     0
  9
$DIMTOLJ
 70
     1
  9
$DIMTZIN
 70
     1
  9
$DIMALTZ
 70
     0
  9
$DIMALTTZ
 70
     0
  9
$DIMUPT
 70
     0
  9
$DIMDEC
 70
     2
  9
$DIMTDEC
 70
     2
  9
$DIMALTU
 70
     2
  9
$DIMALTTD
 70
     2
  9
$DIMTXSTY
  7
Standard
  9
$DIMAUNIT
 70
     0
  9
$DIMADEC
 70
     2
  9
$DIMALTRND
 40
0.0
  9
$DIMAZIN
 70
     0
  9
$DIMDSEP
 70
    46
  9
$DIMATFIT
 70
     3
  9
$DIMFRAC
 70
     0
  9
$DIMLDRBLK
  1

  9
$DIMLUNIT
 70
     2
  9
$DIMLWD
 70
    -2
  9
$DIMLWE
 70
    -2
  9
$DIMTMOVE
 70
     0
  9
$LUNITS
 70
     2
  9
$LUPREC
 70
     2
  9
$SKETCHINC
 40
0.1
  9
$FILLETRAD
 40
0.5
  9
$AUNITS
 70
     0
  9
$AUPREC
 70
     2
  9
$MENU
  1
.
  9
$ELEVATION
 40
0.0
  9
$PELEVATION
 40
0.0
  9
$THICKNESS
 40
0.0
  9
$LIMCHECK
 70
     0
  9
$CHAMFERA
 40
0.0
  9
$CHAMFERB
 40
0.0
  9
$CHAMFERC
 40
0.0
  9
$CHAMFERD
 40
0.0
  9
$SKPOLY
 70
     0
  9
$TDCREATE
 40
2459497.897168808
  9
$TDUCREATE
 40
2459498.063835475
  9
$TDUPDATE
 40
2459497.897196076
  9
$TDUUPDATE
 40
2459498.063862743
  9
$TDINDWG
 40
0.0000000116
  9
$TDUSRTIMER
 40
0.0000000116
  9
$USRTIMER
 70
     1
  9
$ANGBASE
 50
0.0
  9
$ANGDIR
 70
     0
  9
$PDMODE
 70
     0
  9
$PDSIZE
 40
-1.0
  9
$PLINEWID
 40
0.0
  9
$SPLFRAME
 70
     0
  9
$SPLINETYPE
 70
     6
  9
$SPLINESEGS
 70
     8
  9
$HANDSEED
  5
B2
  9
$SURFTAB1
 70
     6
  9
$SURFTAB2
 70
     6
  9
$SURFTYPE
 70
     6
  9
$SURFU
 70
     6
  9
$SURFV
 70
     6
  9
$UCSBASE
  2

  9
$UCSNAME
  2

  9
$UCSORG
 10
0.0
 20
0.0
 30
0.0
  9
$UCSXDIR
 10
1.0
 20
0.0
 30
0.0
  9
$UCSYDIR
 10
0.0
 20
1.0
 30
0.0
  9
$UCSORTHOREF
  2

  9
$UCSORTHOVIEW
 70
     0
  9
$UCSORGTOP
 10
0.0
 20
0.0
 30
0.0
  9
$UCSORGBOTTOM
 10
0.0
 20
0.0
 30
0.0
  9
$UCSORGLEFT
 10
0.0
 20
0.0
 30
0.0
  9
$UCSORGRIGHT
 10
0.0
 20
0.0
 30
0.0
  9
$UCSORGFRONT
 10
0.0
 20
0.0
 30
0.0
  9
$UCSORGBACK
 10
0.0
 20
0.0
 30
0.0
  9
$PUCSBASE
  2

  9
$PUCSNAME
  2

  9
$PUCSORG
 10
0.0
 20
0.0
 30
0.0
  9
$PUCSXDIR
 10
1.0
 20
0.0
 30
0.0
  9
$PUCSYDIR
 10
0.0
 20
1.0
 30
0.0
  9
$PUCSORTHOREF
  2

  9
$PUCSORTHOVIEW
 70
     0
  9
$PUCSORGTOP
 10
0.0
 20
0.0
 30
0.0
  9
$PUCSORGBOTTOM
 10
0.0
 20
0.0
 30
0.0
  9
$PUCSORGLEFT
 10
0.0
 20
0.0
 30
0.0
  9
$PUCSORGRIGHT
 10
0.0
 20
0.0
 30
0.0
  9
$PUCSORGFRONT
 10
0.0
 20
0.0
 30
0.0
  9
$PUCSORGBACK
 10
0.0
 20
0.0
 30
0.0
  9
$USERI1
 70
     0
  9
$USERI2
 70
     0
  9
$USERI3
 70
     0
  9
$USERI4
 70
     0
  9
$USERI5
 70
     0
  9
$USERR1
 40
0.0
  9
$USERR2
 40
0.0
  9
$USERR3
 40
0.0
  9
$USERR4
 40
0.0
  9
$USERR5
 40
0.0
  9
$WORLDVIEW
 70
     1
  9
$SHADEDGE
 70
     3
  9
$SHADEDIF
 70
    70
  9
$TILEMODE
 70
     1
  9
$MAXACTVP
 70
    64
  9
$PINSBASE
 10
0.0
 20
0.0
 30
0.0
  9
$PLIMCHECK
 70
     0
  9
$PEXTMIN
 10
1.0000000000E+20
 20
1.0000000000E+20
 30
1.0000000000E+20
  9
$PEXTMAX
 10
-1.0000000000E+20
 20
-1.0000000000E+20
 30
-1.0000000000E+20
  9
$PLIMMIN
 10
0.0
 20
0.0
  9
$PLIMMAX
 10
12.0
 20
9.0
  9
$UNITMODE
 70
     0
  9
$VISRETAIN
 70
     1
  9
$PLINEGEN
 70
     0
  9
$PSLTSCALE
 70
     1
  9
$TREEDEPTH
 70
  3020
  9
$CMLSTYLE
  2
Standard
  9
$CMLJUST
 70
     0
  9
$CMLSCALE
 40
1.0
  9
$PROXYGRAPHICS
 70
     1
  9
$MEASUREMENT
 70
     0
  9
$CELWEIGHT
370
    -1
  9
$ENDCAPS
280
     0
  9
$JOINSTYLE
280
     0
  9
$LWDISPLAY
290
     1
  9
$INSUNITS
 70
     1
  9
$HYPERLINKBASE
  1

  9
$STYLESHEET
  1

  9
$XEDIT
290
     1
  9
$CEPSNTYPE
380
     0
  9
$PSTYLEMODE
290
     1
  9
$FINGERPRINTGUID
  2
{d8b482f8-c857-4532-8fe7-bc73cf87dcf9}
  9
$VERSIONGUID
  2
{FAEB1C32-E019-11D5-929B-00C0DF256EC4}
  9
$EXTNAMES
290
     1
  9
$PSVPSCALE
 40
0.0
  9
$OLESTARTUP
290
     0
  0
ENDSEC
  0
SECTION
  2
CLASSES
  0
CLASS
  1
ACDBDICTIONARYWDFLT
  2
AcDbDictionaryWithDefault
  3
ObjectDBX Classes
 90
        0
280
     0
281
     0
  0
CLASS
  1
VISUALSTYLE
  2
AcDbVisualStyle
  3
ObjectDBX Classes
 90
     4095
280
     0
281
     0
  0
CLASS
  1
MATERIAL
  2
AcDbMaterial
  3
ObjectDBX Classes
 90
     1153
280
     0
281
     0
  0
CLASS
  1
SCALE
  2
AcDbScale
  3
ObjectDBX Classes
 90
     1153
280
     0
281
     0
  0
CLASS
  1
TABLESTYLE
  2
AcDbTableStyle
  3
ObjectDBX Classes
 90
     4095
280
     0
281
     0
  0
CLASS
  1
MLEADERSTYLE
  2
AcDbMLeaderStyle
  3
ACDB_MLEADERSTYLE_CLASS
 90
     4095
280
     0
281
     0
  0
CLASS
  1
SUN
  2
AcDbSun
  3
SCENEOE
 90
     1153
280
     0
281
     0
  0
CLASS
  1
ACDBPLACEHOLDER
  2
AcDbPlaceHolder
  3
ObjectDBX Classes
 90
        0
280
     0
281
     0
  0
CLASS
  1
LAYOUT
  2
AcDbLayout
  3
ObjectDBX Classes
 90
        0
280
     0
281
     0
  0
ENDSEC
  0
SECTION
  2
TABLES
  0
TABLE
  2
VPORT
  5
8
330
0
100
AcDbSymbolTable
 70
     1
  0
VPORT
  5
29
330
8
100
AcDbSymbolTableRecord
100
AcDbViewportTableRecord
  2
*Active
 70
     0
 10
0.0
 20
0.0
 11
1.0
 21
1.0
 12
0.0
 22
0.0
 13
0.0
 23
0.0
 14
0.5
 24
0.5
 15
0.5
 25
0.5
 16
0.0
 26
0.0
 36
1.0
 17
0.0
 27
0.0
 37
0.0
 40
17.85
 41
0.4
 42
50.0
 43
0.0
 44
0.0
 50
0.0
 51
0.0
 71
     0
 72
   100
 73
     1
 74
     3
 75
     0
 76
     0
 77
     0
 78
     0
281
     0
 65
     1
110
0.0
120
0.0
130
0.0
111
1.0
121
0.0
131
0.0
112
0.0
122
1.0
132
0.0
 79
     0
146
0.0
  0
ENDTAB
  0
TABLE
  2
LTYPE
  5
5
330
0
100
AcDbSymbolTable
 70
     6
  0
LTYPE
  5
14
330
5
100
AcDbSymbolTableRecord
100
AcDbLinetypeTableRecord
  2
ByBlock
 70
     0
  3

 72
    65
 73
     0
 40
0.0
  0
LTYPE
  5
15
330
5
100
AcDbSymbolTableRecord
100
AcDbLinetypeTableRecord
  2
ByLayer
 70
     0
  3

 72
    65
 73
     0
 40
0.0
  0
LTYPE
  5
16
330
5
100
AcDbSymbolTableRecord
100
AcDbLinetypeTableRecord
  2
Continuous
 70
     0
  3
Solid line
 72
    65
 73
     0
 40
0.0
  0
LTYPE
  5
6E
330
5
100
AcDbSymbolTableRecord
100
AcDbLinetypeTableRecord
  2
HIDDEN
 70
     0
  3
Hidden __ __ __ __ __ __ __ __ __ __ __ __ __ __
 72
    65
 73
     2
 40
0.075
 49
0.05
 74
     0
 49
-0.025
 74
     0
  0
LTYPE
  5
6F
330
5
100
AcDbSymbolTableRecord
100
AcDbLinetypeTableRecord
  2
PHANTOM
 70
     0
  3
Phantom ______  __  __  ______  __  __  ______
 72
    65
 73
     6
 40
0.5
 49
0.25
 74
     0
 49
-0.05
 74
     0
 49
0.05
 74
     0
 49
-0.05
 74
     0
 49
0.05
 74
     0
 49
-0.05
 74
     0
  0
LTYPE
  5
70
330
5
100
AcDbSymbolTableRecord
100
AcDbLinetypeTableRecord
  2
CENTER
 70
     0
  3
Center ____ _ ____ _ ____ _ ____ _ ____ _ ____
 72
    65
 73
     4
 40
0.4
 49
0.25
 74
     0
 49
-0.05
 74
     0
 49
0.05
 74
     0
 49
-0.05
 74
     0
  0
LTYPE
  5
71
330
5
100
AcDbSymbolTableRecord
100
AcDbLinetypeTableRecord
  2
CENTERX2
 70
     0
  3
Center (2x) ________  __  ________  __  _____
 72
    65
 73
     4
 40
0.8
 49
0.5
 74
     0
 49
-0.1
 74
     0
 49
0.1
 74
     0
 49
-0.1
 74
     0
  0
LTYPE
  5
72
330
5
100
AcDbSymbolTableRecord
100
AcDbLinetypeTableRecord
  2
DOT2
 70
     0
  3
Dot (.5x) ........................................
 72
    65
 73
     2
 40
0.025
 49
0.0
 74
     0
 49
-0.025
 74
     0
  0
ENDTAB
  0
TABLE
  2
LAYER
  5
2
330
0
100
AcDbSymbolTable
 70
     1
  0
LAYER
  5
10
330
2
100
AcDbSymbolTableRecord
100
AcDbLayerTableRecord
  2
0
 70
     0
 62
     7
  6
Continuous
370
    -3
390
F
  0
ENDTAB
  0
TABLE
  2
STYLE
  5
3
330
0
100
AcDbSymbolTable
 70
     2
  0
STYLE
  5
11
330
3
100
AcDbSymbolTableRecord
100
AcDbTextStyleTableRecord
  2
Standard
 70
     0
 40
0.0
 41
1.0
 50
0.0
 71
     0
 42
0.125
  3
txt
  4

  0
STYLE
  5
AE
330
3
100
AcDbSymbolTableRecord
100
AcDbTextStyleTableRecord
  2
SLDTEXTSTYLE0
 70
     0
 40
0.0
 41
0.7
 50
0.0
 71
     0
 42
0.125
  3
TXT
  4

  0
ENDTAB
  0
TABLE
  2
VIEW
  5
6
330
0
100
AcDbSymbolTable
 70
     0
  0
ENDTAB
  0
TABLE
  2
UCS
  5
7
330
0
100
AcDbSymbolTable
 70
     0
  0
ENDTAB
  0
TABLE
  2
APPID
  5
9
330
0
100
AcDbSymbolTable
 70
     1
  0
APPID
  5
12
330
9
100
AcDbSymbolTableRecord
100
AcDbRegAppTableRecord
  2
ACAD
 70
     0
  0
ENDTAB
  0
TABLE
  2
DIMSTYLE
  5
A
330
0
100
AcDbSymbolTable
 70
     1
100
AcDbDimStyleTable
  0
DIMSTYLE
105
27
330
A
100
AcDbSymbolTableRecord
100
AcDbDimStyleTableRecord
  2
Standard
 70
     0
178
     0
340
11
  0
ENDTAB
  0
TABLE
  2
BLOCK_RECORD
  5
1
330
0
100
AcDbSymbolTable
 70
     1
  0
BLOCK_RECORD
  5
1F
330
1
100
AcDbSymbolTableRecord
100
AcDbBlockTableRecord
  2
*Model_Space
340
22
  0
BLOCK_RECORD
  5
1B
330
1
100
AcDbSymbolTableRecord
100
AcDbBlockTableRecord
  2
*Paper_Space
340
1E
  0
BLOCK_RECORD
  5
23
330
1
100
AcDbSymbolTableRecord
100
AcDbBlockTableRecord
  2
*Paper_Space0
340
26
  0
ENDTAB
  0
ENDSEC
  0
SECTION
  2
BLOCKS
  0
BLOCK
  5
20
330
1F
100
AcDbEntity
  8
0
100
AcDbBlockBegin
  2
*Model_Space
 70
     0
 10
0.0
 20
0.0
 30
0.0
  3
*Model_Space
  1

  0
ENDBLK
  5
21
330
1F
100
AcDbEntity
  8
0
100
AcDbBlockEnd
  0
BLOCK
  5
1C
330
1B
100
AcDbEntity
 67
     1
  8
0
100
AcDbBlockBegin
  2
*Paper_Space
 70
     0
 10
0.0
 20
0.0
 30
0.0
  3
*Paper_Space
  1

  0
ENDBLK
  5
1D
330
1B
100
AcDbEntity
 67
     1
  8
0
100
AcDbBlockEnd
  0
BLOCK
  5
24
330
23
100
AcDbEntity
  8
0
100
AcDbBlockBegin
  2
*Paper_Space0
 70
     0
 10
0.0
 20
0.0
 30
0.0
  3
*Paper_Space0
  1

  0
ENDBLK
  5
25
330
23
100
AcDbEntity
  8
0
100
AcDbBlockEnd
  0
ENDSEC
  0
SECTION
  2
ENTITIES
  0
SPLINE
  5
79
330
1F
100
AcDbEntity
  8
0
  6
Continuous
 62
     7
370
    25
100
AcDbSpline
210
0.0
220
0.0
230
1.0
 70
    11
 71
     3
 72
    50
 73
    46
 74
     0
 42
0.00000001
 43
0.00000001
 40
0.0
 40
0.0
 40
0.0
 40
0.0
 40
0.0625000000000099
 40
0.0625000000000099
 40
0.0937500000000112
 40
0.0937500000000112
 40
0.1250000000000125
 40
0.1250000000000125
 40
0.1875000000000099
 40
0.1875000000000099
 40
0.2500000000000074
 40
0.2500000000000074
 40
0.2812500000000049
 40
0.2812500000000049
 40
0.3125000000000024
 40
0.3125000000000024
 40
0.3750000000000033
 40
0.3750000000000033
 40
0.4375000000000043
 40
0.4375000000000043
 40
0.4687500000000052
 40
0.4687500000000052
 40
0.5000000000000061
 40
0.5000000000000061
 40
0.562500000000008
 40
0.562500000000008
 40
0.6250000000000099
 40
0.6250000000000099
 40
0.6562500000000089
 40
0.6562500000000089
 40
0.687500000000008
 40
0.687500000000008
 40
0.718750000000007
 40
0.718750000000007
 40
0.7500000000000061
 40
0.7500000000000061
 40
0.8125000000000042
 40
0.8125000000000042
 40
0.8437500000000034
 40
0.8437500000000034
 40
0.8750000000000028
 40
0.8750000000000028
 40
0.9375000000000014
 40
0.9375000000000014
 40
1.0
 40
1.0
 40
1.0
 40
1.0
 10
3.000689396558752
 20
-8.500000000000002
 30
0.0
 10
3.000689396558752
 20
-8.492963974161425
 30
0.0
 10
3.001403154851528
 20
-8.48605980687767
 30
0.0
 10
3.003463174794952
 20
-8.476386812684616
 30
0.0
 10
3.004302947911222
 20
-8.473328304074958
 30
0.0
 10
3.006283774045272
 20
-8.467539941148797
 30
0.0
 10
3.007435288834595
 20
-8.464799381268088
 30
0.0
 10
3.011200890329476
 20
-8.457431078688222
 30
0.0
 10
3.014226845379503
 20
-8.453463780014726
 30
0.0
 10
3.020720032070747
 20
-8.448152298753833
 30
0.0
 10
3.024254271826946
 20
-8.446753764579725
 30
0.0
 10
3.029480693890334
 20
-8.44674812939434
 30
0.0
 10
3.03124557875269
 20
-8.447093618250037
 30
0.0
 10
3.034654075489991
 20
-8.448451773443008
 30
0.0
 10
3.03630640787386
 20
-8.44945671310023
 30
0.0
 10
3.041108982995566
 20
-8.453454590456184
 30
0.0
 10
3.044008490656394
 20
-8.457359413440654
 30
0.0
 10
3.048905138265123
 20
-8.467294914670054
 30
0.0
 10
3.050821112589329
 20
-8.473156563544999
 30
0.0
 10
3.052785011703267
 20
-8.48283598242394
 30
0.0
 10
3.053277514235475
 20
-8.486155239560718
 30
0.0
 10
3.053943694850007
 20
-8.49297704978645
 30
0.0
 10
3.054114341360525
 20
-8.496506063199247
 30
0.0
 10
3.05411614203441
 20
-8.506931386740364
 30
0.0
 10
3.053436599966859
 20
-8.513936120016897
 30
0.0
 10
3.050842116658828
 20
-8.526756232316192
 30
0.0
 10
3.04889914693198
 20
-8.532702477762982
 30
0.0
 10
3.045276843679912
 20
-8.540074302621056
 30
0.0
 10
3.043927584243591
 20
-8.54232446074753
 30
0.0
 10
3.041065054077118
 20
-8.546197888614875
 30
0.0
 10
3.039550764254062
 20
-8.547835449011416
 30
0.0
 10
3.036353566485976
 20
-8.550510924829391
 30
0.0
 10
3.034667877098185
 20
-8.551540058043363
 30
0.0
 10
3.031270678166316
 20
-8.552899019311589
 30
0.0
 10
3.029541360830923
 20
-8.553246427944748
 30
0.0
 10
3.024257188684994
 20
-8.553257062698792
 30
0.0
 10
3.020770122484654
 20
-8.551881573791793
 30
0.0
 10
3.015860367818207
 20
-8.547875967845762
 30
0.0
 10
3.014305891100181
 20
-8.546242126761518
 30
0.0
 10
3.011360741049093
 20
-8.542386511011788
 30
0.0
 10
3.009961110350168
 20
-8.540139526074702
 30
0.0
 10
3.006190141892215
 20
-8.532771070574462
 30
0.0
 10
3.004153080693771
 20
-8.526837075114193
 30
0.0
 10
3.001418012130717
 20
-8.514025476079388
 30
0.0
 10
3.000689396558751
 20
-8.507036025838577
 30
0.0
 10
3.000689396558752
 20
-8.500000000000002
 30
0.0
  0
SPLINE
  5
7A
330
1F
100
AcDbEntity
  8
0
  6
Continuous
 62
     7
370
    25
100
AcDbSpline
210
0.0
220
0.0
230
1.0
 70
     8
 71
     3
 72
    26
 73
    22
 74
     0
 42
0.00000001
 43
0.00000001
 40
0.0
 40
0.0
 40
0.0
 40
0.0
 40
0.0625
 40
0.0625
 40
0.1250000000000001
 40
0.1250000000000001
 40
0.2500000000000001
 40
0.2500000000000001
 40
0.3750000000000001
 40
0.3750000000000001
 40
0.5000000000000002
 40
0.5000000000000002
 40
0.6250000000000002
 40
0.6250000000000002
 40
0.7500000000000001
 40
0.7500000000000001
 40
0.8750000000000001
 40
0.8750000000000001
 40
0.9375000000000001
 40
0.9375000000000001
 40
1.0
 40
1.0
 40
1.0
 40
1.0
 10
3.49948720396307
 20
-8.5
 30
0.0
 10
3.49948720396307
 20
-8.495087950439956
 30
0.0
 10
3.499498806160783
 20
-8.490289506360437
 30
0.0
 10
3.499542392507481
 20
-8.480913923387856
 30
0.0
 10
3.499574414059905
 20
-8.47639374534704
 30
0.0
 10
3.499687213166355
 20
-8.463983500202742
 30
0.0
 10
3.499786445738605
 20
-8.457060230242554
 30
0.0
 10
3.49993948100974
 20
-8.4481863728007
 30
0.0
 10
3.499991275030804
 20
-8.446176675986774
 30
0.0
 10
3.50000656648116
 20
-8.447611145670159
 30
0.0
 10
3.499969978350581
 20
-8.451080312425375
 30
0.0
 10
3.499860387481893
 20
-8.462366025010184
 30
0.0
 10
3.499789492112557
 20
-8.470257227481522
 30
0.0
 10
3.499697353650565
 20
-8.48823794513686
 30
0.0
 10
3.499678782343968
 20
-8.498202755838225
 30
0.0
 10
3.499716295232829
 20
-8.51743007281682
 30
0.0
 10
3.499772133932756
 20
-8.526703413703512
 30
0.0
 10
3.499863238576388
 20
-8.537861107116568
 30
0.0
 10
3.499894673587008
 20
-8.54118050555487
 30
0.0
 10
3.499948460840406
 20
-8.546683673792387
 30
0.0
 10
3.499970588893915
 20
-8.548855538811123
 30
0.0
 10
3.499984454392868
 20
-8.55043222821296
 30
0.0
  0
SPLINE
  5
7B
330
1F
100
AcDbEntity
  8
0
  6
Continuous
 62
     7
370
    25
100
AcDbSpline
210
0.0
220
0.0
230
1.0
 70
     8
 71
     3
 72
    13
 73
     9
 74
     0
 42
0.00000001
 43
0.00000001
 40
0.0
 40
0.0
 40
0.0
 40
0.0
 40
0.0812563338211378
 40
0.2798174001357732
 40
0.4783840305864246
 40
0.6769733031245457
 40
0.8755684764396605
 40
1.0
 40
1.0
 40
1.0
 40
1.0
 10
3.499989233186064
 20
-8.55209522753377
 30
0.0
 10
3.499991927450651
 20
-8.552583561724846
 30
0.0
 10
3.500001205522604
 20
-8.55426520790945
 30
0.0
 10
3.499920299818705
 20
-8.550790061269447
 30
0.0
 10
3.499769868016695
 20
-8.54207808784336
 30
0.0
 10
3.499603826363479
 20
-8.528269564632252
 30
0.0
 10
3.499501784333721
 20
-8.51344935383929
 30
0.0
 10
3.499491258548843
 20
-8.503740066698285
 30
0.0
 10
3.49948720396307
 20
-8.5
 30
0.0
  0
SPLINE
  5
7C
330
1F
100
AcDbEntity
  8
0
  6
Continuous
 62
     7
370
    25
100
AcDbSpline
210
0.0
220
0.0
230
1.0
 70
     8
 71
     3
 72
    12
 73
     8
 74
     0
 42
0.00000001
 43
0.00000001
 40
0.0
 40
0.0
 40
0.0
 40
0.0
 40
0.1462555804236136
 40
0.4167229450387585
 40
0.6871699645955062
 40
0.957607072545591
 40
1.0
 40
1.0
 40
1.0
 40
1.0
 10
1.718812580950281
 20
-8.469268310083443
 30
0.0
 10
1.717077299026102
 20
-8.471823934780218
 30
0.0
 10
1.712132996785996
 20
-8.479105622405193
 30
0.0
 10
1.708936514373515
 20
-8.494458829822591
 30
0.0
 10
1.710075954662279
 20
-8.512218523659744
 30
0.0
 10
1.713767685296321
 20
-8.525082529492725
 30
0.0
 10
1.717902864798305
 20
-8.530097464909133
 30
0.0
 10
1.718463240544873
 20
-8.530777060118147
 30
0.0
  0
SPLINE
  5
7D
330
1F
100
AcDbEntity
  8
0
  6
Continuous
 62
     7
370
    25
100
AcDbSpline
210
0.0
220
0.0
230
1.0
 70
     8
 71
     3
 72
    16
 73
    12
 74
     0
 42
0.00000001
 43
0.00000001
 40
0.0
 40
0.0
 40
0.0
 40
0.0
 40
0.1133973863178115
 40
0.2301897573730749
 40
0.3469930072025327
 40
0.4637984226356387
 40
0.5805950517480678
 40
0.6973874003834956
 40
0.814187266439767
 40
0.9309935925626132
 40
1.0
 40
1.0
 40
1.0
 40
1.0
 10
-3.499998813570715
 20
-8.447253628456126
 30
0.0
 10
-3.499990750018431
 20
-8.448499321314548
 30
0.0
 10
-3.499974381500565
 20
-8.451028001614437
 30
0.0
 10
-3.499861041304085
 20
-8.461906205487294
 30
0.0
 10
-3.499746460080503
 20
-8.476726554129089
 30
0.0
 10
-3.499680113594662
 20
-8.494298971150117
 30
0.0
 10
-3.499696063759605
 20
-8.512461921575172
 30
0.0
 10
-3.499787239737782
 20
-8.529298623660319
 30
0.0
 10
-3.499904787967936
 20
-8.542567893934857
 30
0.0
 10
-3.499993016299529
 20
-8.55073008863458
 30
0.0
 10
-3.499990257673739
 20
-8.551725540505092
 30
0.0
 10
-3.499989233186064
 20
-8.552095227533773
 30
0.0
  0
SPLINE
  5
7E
330
1F
100
AcDbEntity
  8
0
  6
Continuous
 62
     7
370
    25
100
AcDbSpline
210
0.0
220
0.0
230
1.0
 70
    11
 71
     3
 72
    50
 73
    46
 74
     0
 42
0.00000001
 43
0.00000001
 40
0.0
 40
0.0
 40
0.0
 40
0.0
 40
0.0625000000000142
 40
0.0625000000000142
 40
0.0937500000000168
 40
0.0937500000000168
 40
0.1250000000000194
 40
0.1250000000000194
 40
0.1875000000000178
 40
0.1875000000000178
 40
0.2500000000000162
 40
0.2500000000000162
 40
0.2812500000000153
 40
0.2812500000000153
 40
0.3125000000000145
 40
0.3125000000000145
 40
0.3750000000000189
 40
0.3750000000000189
 40
0.4375000000000233
 40
0.4375000000000233
 40
0.4687500000000259
 40
0.4687500000000259
 40
0.5000000000000285
 40
0.5000000000000285
 40
0.562500000000034
 40
0.562500000000034
 40
0.6250000000000393
 40
0.6250000000000393
 40
0.6562500000000385
 40
0.6562500000000385
 40
0.6875000000000377
 40
0.6875000000000377
 40
0.718750000000037
 40
0.718750000000037
 40
0.7500000000000362
 40
0.7500000000000362
 40
0.8125000000000322
 40
0.8125000000000322
 40
0.8437500000000273
 40
0.8437500000000273
 40
0.8750000000000224
 40
0.8750000000000224
 40
0.9375000000000112
 40
0.9375000000000112
 40
1.0
 40
1.0
 40
1.0
 40
1.0
 10
-3.06060024114242
 20
-8.5
 30
0.0
 10
-3.060600241142419
 20
-8.492963974161421
 30
0.0
 10
-3.059928849450224
 20
-8.486059806877664
 30
0.0
 10
-3.057979658259018
 20
-8.476386812684618
 30
0.0
 10
-3.05718383639992
 20
-8.473328304074961
 30
0.0
 10
-3.055300449413817
 20
-8.467539941148797
 30
0.0
 10
-3.054202815011275
 20
-8.464799381268088
 30
0.0
 10
-3.050598828681555
 20
-8.457431078688218
 30
0.0
 10
-3.04768415670061
 20
-8.45346378001473
 30
0.0
 10
-3.041362517316962
 20
-8.448152298753831
 30
0.0
 10
-3.037889488094836
 20
-8.446753764579725
 30
0.0
 10
-3.032697556229137
 20
-8.446748129394338
 30
0.0
 10
-3.030935109191096
 20
-8.447093618250038
 30
0.0
 10
-3.027514021928461
 20
-8.448451773443008
 30
0.0
 10
-3.025846920073346
 20
-8.449456713100226
 30
0.0
 10
-3.020978861252702
 20
-8.45345459045618
 30
0.0
 10
-3.018008182543918
 20
-8.457359413440653
 30
0.0
 10
-3.012959083042224
 20
-8.467294914670054
 30
0.0
 10
-3.010965426058578
 20
-8.473156563545
 30
0.0
 10
-3.008917074265627
 20
-8.482835982423941
 30
0.0
 10
-3.008402120221659
 20
-8.486155239560713
 30
0.0
 10
-3.007705206255496
 20
-8.49297704978645
 30
0.0
 10
-3.007526418055249
 20
-8.49650606319925
 30
0.0
 10
-3.007524532382717
 20
-8.506931386740366
 30
0.0
 10
-3.008237441373063
 20
-8.5139361200169
 30
0.0
 10
-3.0109435432593
 20
-8.526756232316192
 30
0.0
 10
-3.012965122596517
 20
-8.532702477762987
 30
0.0
 10
-3.016700408687043
 20
-8.540074302621054
 30
0.0
 10
-3.01808709393248
 20
-8.542324460747533
 30
0.0
 10
-3.021015379477523
 20
-8.546197888614875
 30
0.0
 10
-3.02255817944286
 20
-8.547835449011416
 30
0.0
 10
-3.025799261429221
 20
-8.550510924829391
 30
0.0
 10
-3.027500103197892
 20
-8.551540058043368
 30
0.0
 10
-3.030909982451682
 20
-8.55289901931159
 30
0.0
 10
-3.032637144969625
 20
-8.55324642794475
 30
0.0
 10
-3.037886874786672
 20
-8.553257062698792
 30
0.0
 10
-3.041313603333623
 20
-8.551881573791796
 30
0.0
 10
-3.046093863929199
 20
-8.547875967845762
 30
0.0
 10
-3.047599723392194
 20
-8.546242126761516
 30
0.0
 10
-3.0504412402569
 20
-8.542386511011788
 30
0.0
 10
-3.051785366808126
 20
-8.540139526074704
 30
0.0
 10
-3.055394585124493
 20
-8.532771070574462
 30
0.0
 10
-3.057326846545061
 20
-8.526837075114189
 30
0.0
 10
-3.05991481398614
 20
-8.514025476079393
 30
0.0
 10
-3.060600241142421
 20
-8.507036025838577
 30
0.0
 10
-3.06060024114242
 20
-8.5
 30
0.0
  0
SPLINE
  5
7F
330
1F
100
AcDbEntity
  8
0
  6
Continuous
 62
     7
370
    25
100
AcDbSpline
210
0.0
220
0.0
230
1.0
 70
    11
 71
     3
 72
    50
 73
    46
 74
     0
 42
0.00000001
 43
0.00000001
 40
0.0
 40
0.0
 40
0.0
 40
0.0
 40
0.0625000000000202
 40
0.0625000000000202
 40
0.0937500000000259
 40
0.0937500000000259
 40
0.1250000000000316
 40
0.1250000000000316
 40
0.1875000000000362
 40
0.1875000000000362
 40
0.2500000000000409
 40
0.2500000000000409
 40
0.2812500000000431
 40
0.2812500000000431
 40
0.3125000000000452
 40
0.3125000000000452
 40
0.3750000000000473
 40
0.3750000000000473
 40
0.4375000000000494
 40
0.4375000000000494
 40
0.46875000000005
 40
0.46875000000005
 40
0.5000000000000505
 40
0.5000000000000505
 40
0.5625000000000516
 40
0.5625000000000516
 40
0.6250000000000527
 40
0.6250000000000527
 40
0.6562500000000498
 40
0.6562500000000498
 40
0.687500000000047
 40
0.687500000000047
 40
0.7187500000000441
 40
0.7187500000000441
 40
0.7500000000000412
 40
0.7500000000000412
 40
0.8125000000000355
 40
0.8125000000000355
 40
0.8437500000000296
 40
0.8437500000000296
 40
0.8750000000000238
 40
0.8750000000000238
 40
0.9375000000000119
 40
0.9375000000000119
 40
1.0
 40
1.0
 40
1.0
 40
1.0
 10
-1.801627915353156
 20
-8.500000000000002
 30
0.0
 10
-1.801627915353156
 20
-8.492963974161423
 30
0.0
 10
-1.800440570462243
 20
-8.48605980687766
 30
0.0
 10
-1.797000485275481
 20
-8.476386812684613
 30
0.0
 10
-1.795596706111589
 20
-8.473328304074958
 30
0.0
 10
-1.792278327643049
 20
-8.467539941148797
 30
0.0
 10
-1.790346061233899
 20
-8.464799381268087
 30
0.0
 10
-1.78401046524193
 20
-8.457431078688218
 30
0.0
 10
-1.778897855973644
 20
-8.453463780014728
 30
0.0
 10
-1.767849412489821
 20
-8.448152298753836
 30
0.0
 10
-1.761798609502599
 20
-8.446753764579727
 30
0.0
 10
-1.752786006796851
 20
-8.44674812939434
 30
0.0
 10
-1.749731951502792
 20
-8.447093618250037
 30
0.0
 10
-1.743813723689973
 20
-8.44845177344301
 30
0.0
 10
-1.74093474573372
 20
-8.449456713100231
 30
0.0
 10
-1.732540827553342
 20
-8.453454590456179
 30
0.0
 10
-1.727436551720462
 20
-8.457359413440653
 30
0.0
 10
-1.718779272992497
 20
-8.467294914670056
 30
0.0
 10
-1.715371007908296
 20
-8.47315656354499
 30
0.0
 10
-1.711871917308093
 20
-8.482835982423941
 30
0.0
 10
-1.710992953126738
 20
-8.486155239560714
 30
0.0
 10
-1.709803606637675
 20
-8.492977049786454
 30
0.0
 10
-1.709498636997809
 20
-8.49650606319925
 30
0.0
 10
-1.70949541999117
 20
-8.506931386740368
 30
0.0
 10
-1.710710950181764
 20
-8.513936120016899
 30
0.0
 10
-1.71533361312301
 20
-8.52675623231619
 30
0.0
 10
-1.718789705966896
 20
-8.53270247776299
 30
0.0
 10
-1.725194180584291
 20
-8.540074302621056
 30
0.0
 10
-1.727574382082526
 20
-8.54232446074753
 30
0.0
 10
-1.732608357540094
 20
-8.546197888614877
 30
0.0
 10
-1.735264105127652
 20
-8.547835449011417
 30
0.0
 10
-1.74085248723429
 20
-8.550510924829387
 30
0.0
 10
-1.743789683362083
 20
-8.551540058043367
 30
0.0
 10
-1.749688446490049
 20
-8.552899019311589
 30
0.0
 10
-1.752681223808488
 20
-8.553246427944751
 30
0.0
 10
-1.761793907865477
 20
-8.553257062698792
 30
0.0
 10
-1.767764011772968
 20
-8.55188157379179
 30
0.0
 10
-1.776118429434604
 20
-8.54787596784576
 30
0.0
 10
-1.778754723718848
 20
-8.546242126761516
 30
0.0
 10
-1.783736207947139
 20
-8.542386511011788
 30
0.0
 10
-1.786096348760277
 20
-8.540139526074704
 30
0.0
 10
-1.792441084747619
 20
-8.53277107057446
 30
0.0
 10
-1.795848365881515
 20
-8.526837075114194
 30
0.0
 10
-1.800415785850168
 20
-8.51402547607939
 30
0.0
 10
-1.801627915353156
 20
-8.507036025838577
 30
0.0
 10
-1.801627915353156
 20
-8.500000000000002
 30
0.0
  0
SPLINE
  5
80
330
1F
100
AcDbEntity
  8
0
  6
Continuous
 62
     7
370
    25
100
AcDbSpline
210
0.0
220
0.0
230
1.0
 70
    11
 71
     3
 72
    50
 73
    46
 74
     0
 42
0.00000001
 43
0.00000001
 40
0.0
 40
0.0
 40
0.0
 40
0.0
 40
0.062500000000016
 40
0.062500000000016
 40
0.0937500000000195
 40
0.0937500000000195
 40
0.125000000000023
 40
0.125000000000023
 40
0.1875000000000215
 40
0.1875000000000215
 40
0.25000000000002
 40
0.25000000000002
 40
0.2812500000000182
 40
0.2812500000000182
 40
0.3125000000000163
 40
0.3125000000000163
 40
0.3750000000000187
 40
0.3750000000000187
 40
0.437500000000021
 40
0.437500000000021
 40
0.4687500000000223
 40
0.4687500000000223
 40
0.5000000000000235
 40
0.5000000000000235
 40
0.562500000000026
 40
0.562500000000026
 40
0.6250000000000284
 40
0.6250000000000284
 40
0.6562500000000272
 40
0.6562500000000272
 40
0.6875000000000259
 40
0.6875000000000259
 40
0.7187500000000245
 40
0.7187500000000245
 40
0.7500000000000232
 40
0.7500000000000232
 40
0.8125000000000202
 40
0.8125000000000202
 40
0.8437500000000169
 40
0.8437500000000169
 40
0.8750000000000135
 40
0.8750000000000135
 40
0.9375000000000069
 40
0.9375000000000069
 40
1.0
 40
1.0
 40
1.0
 40
1.0
 10
1.697859288609879
 20
-8.500000000000004
 30
0.0
 10
1.697859288609879
 20
-8.492963974161425
 30
0.0
 10
1.699071093869042
 20
-8.486059806877664
 30
0.0
 10
1.702575166065732
 20
-8.476386812684616
 30
0.0
 10
1.704004320499783
 20
-8.473328304074958
 30
0.0
 10
1.707378955486619
 20
-8.467539941148797
 30
0.0
 10
1.709342329751581
 20
-8.464799381268094
 30
0.0
 10
1.715771234302661
 20
-8.457431078688218
 30
0.0
 10
1.720948092880838
 20
-8.453463780014726
 30
0.0
 10
1.732095579248881
 20
-8.448152298753831
 30
0.0
 10
1.738181722154427
 20
-8.446753764579732
 30
0.0
 10
1.747214237785094
 20
-8.44674812939434
 30
0.0
 10
1.750269700557677
 20
-8.447093618250035
 30
0.0
 10
1.756180659227306
 20
-8.44845177344301
 30
0.0
 10
1.759051110025359
 20
-8.449456713100226
 30
0.0
 10
1.767407221174527
 20
-8.45345459045618
 30
0.0
 10
1.772470406383711
 20
-8.457359413440653
 30
0.0
 10
1.781039666970234
 20
-8.467294914670054
 30
0.0
 10
1.784403081950098
 20
-8.473156563544999
 30
0.0
 10
1.787853413773337
 20
-8.48283598242394
 30
0.0
 10
1.788719415568337
 20
-8.486155239560718
 30
0.0
 10
1.789891018148561
 20
-8.492977049786452
 30
0.0
 10
1.79019128718167
 20
-8.496506063199249
 30
0.0
 10
1.790194455114318
 20
-8.506931386740366
 30
0.0
 10
1.788998189325581
 20
-8.5139361200169
 30
0.0
 10
1.784439969400509
 20
-8.526756232316192
 30
0.0
 10
1.781029261836332
 20
-8.532702477762992
 30
0.0
 10
1.774690017891132
 20
-8.540074302621052
 30
0.0
 10
1.772331424193866
 20
-8.542324460747537
 30
0.0
 10
1.767335412621815
 20
-8.54619788861488
 30
0.0
 10
1.764696125372578
 20
-8.547835449011425
 30
0.0
 10
1.759133079831175
 20
-8.550510924829391
 30
0.0
 10
1.756204631934561
 20
-8.551540058043372
 30
0.0
 10
1.750313189793869
 20
-8.552899019311592
 30
0.0
 10
1.747319168390996
 20
-8.55324642794475
 30
0.0
 10
1.738186599046155
 20
-8.55325706269879
 30
0.0
 10
1.732181659178236
 20
-8.551881573791801
 30
0.0
 10
1.723752478079927
 20
-8.547875967845762
 30
0.0
 10
1.721088114610403
 20
-8.546242126761516
 30
0.0
 10
1.716046797734058
 20
-8.542386511011788
 30
0.0
 10
1.713654611586304
 20
-8.540139526074704
 30
0.0
 10
1.707216489111176
 20
-8.532771070574462
 30
0.0
 10
1.703748701797313
 20
-8.526837075114194
 30
0.0
 10
1.699096352956289
 20
-8.51402547607939
 30
0.0
 10
1.697859288609879
 20
-8.50703602583858
 30
0.0
 10
1.697859288609879
 20
-8.500000000000004
 30
0.0
  0
SPLINE
  5
81
330
1F
100
AcDbEntity
  8
0
  6
Continuous
 62
     7
370
    25
100
AcDbSpline
210
0.0
220
0.0
230
1.0
 70
    11
 71
     3
 72
    50
 73
    46
 74
     0
 42
0.00000001
 43
0.00000001
 40
0.0
 40
0.0
 40
0.0
 40
0.0
 40
0.0625000000000152
 40
0.0625000000000152
 40
0.0937500000000183
 40
0.0937500000000183
 40
0.1250000000000214
 40
0.1250000000000214
 40
0.1875000000000206
 40
0.1875000000000206
 40
0.2500000000000199
 40
0.2500000000000199
 40
0.2812500000000195
 40
0.2812500000000195
 40
0.3125000000000191
 40
0.3125000000000191
 40
0.3750000000000221
 40
0.3750000000000221
 40
0.4375000000000251
 40
0.4375000000000251
 40
0.4687500000000267
 40
0.4687500000000267
 40
0.5000000000000282
 40
0.5000000000000282
 40
0.5625000000000313
 40
0.5625000000000313
 40
0.6250000000000343
 40
0.6250000000000343
 40
0.6562500000000324
 40
0.6562500000000324
 40
0.6875000000000304
 40
0.6875000000000304
 40
0.7187500000000285
 40
0.7187500000000285
 40
0.7500000000000265
 40
0.7500000000000265
 40
0.8125000000000228
 40
0.8125000000000228
 40
0.8437500000000189
 40
0.8437500000000189
 40
0.8750000000000151
 40
0.8750000000000151
 40
0.9375000000000075
 40
0.9375000000000075
 40
1.0
 40
1.0
 40
1.0
 40
1.0
 10
-0.0599108445836928
 20
-8.500000000000002
 30
0.0
 10
-0.0599108445836928
 20
-8.492963974161423
 30
0.0
 10
-0.05852569459872
 20
-8.48605980687766
 30
0.0
 10
-0.054516483464089
 20
-8.476386812684614
 30
0.0
 10
-0.0528808884887208
 20
-8.473328304074958
 30
0.0
 10
-0.0490166753685692
 20
-8.467539941148798
 30
0.0
 10
-0.0467675261767054
 20
-8.464799381268088
 30
0.0
 10
-0.039397938352104
 20
-8.457431078688217
 30
0.0
 10
-0.0334573113211308
 20
-8.453463780014726
 30
0.0
 10
-0.020642485246241
 20
-8.448152298753831
 30
0.0
 10
-0.0136352162679118
 20
-8.446753764579725
 30
0.0
 10
-0.0032168623388259
 20
-8.446748129394338
 30
0.0
 10
0.0003104695615691
 20
-8.447093618250035
 30
0.0
 10
0.0071400535615053
 20
-8.448451773443008
 30
0.0
 10
0.0104594878004913
 20
-8.44945671310023
 30
0.0
 10
0.0201301217428377
 20
-8.453454590456184
 30
0.0
 10
0.0260003081124488
 20
-8.457359413440653
 30
0.0
 10
0.0359460552228745
 20
-8.467294914670054
 30
0.0
 10
0.0398556865307275
 20
-8.473156563544997
 30
0.0
 10
0.0438679374376151
 20
-8.482835982423941
 30
0.0
 10
0.0448753940137902
 20
-8.486155239560714
 30
0.0
 10
0.0462384885944855
 20
-8.49297704978645
 30
0.0
 10
0.0465879233052522
 20
-8.496506063199247
 30
0.0
 10
0.0465916096516684
 20
-8.50693138674037
 30
0.0
 10
0.0451991585937713
 20
-8.513936120016897
 30
0.0
 10
0.0398985733995028
 20
-8.526756232316194
 30
0.0
 10
0.0359340243354366
 20
-8.53270247776299
 30
0.0
 10
0.0285764349928453
 20
-8.540074302621054
 30
0.0
 10
0.0258404903110878
 20
-8.542324460747531
 30
0.0
 10
0.0200496745995696
 20
-8.546197888614875
 30
0.0
 10
0.0169925848111764
 20
-8.547835449011417
 30
0.0
 10
0.0105543050567324
 20
-8.550510924829387
 30
0.0
 10
0.0071677739002706
 20
-8.551540058043367
 30
0.0
 10
0.0003606957146099
 20
-8.55289901931159
 30
0.0
 10
-0.0030957841387235
 20
-8.553246427944746
 30
0.0
 10
-0.0136296861017021
 20
-8.553257062698787
 30
0.0
 10
-0.0205434808489936
 20
-8.551881573791794
 30
0.0
 10
-0.0302334961110178
 20
-8.54787596784576
 30
0.0
 10
-0.0332938322920383
 20
-8.546242126761516
 30
0.0
 10
-0.0390804992078334
 20
-8.54238651101179
 30
0.0
 10
-0.0418242564579814
 20
-8.540139526074704
 30
0.0
 10
-0.0492044432323016
 20
-8.532771070574464
 30
0.0
 10
-0.0531737658513127
 20
-8.526837075114189
 30
0.0
 10
-0.0584968018554457
 20
-8.514025476079388
 30
0.0
 10
-0.0599108445836928
 20
-8.507036025838579
 30
0.0
 10
-0.0599108445836928
 20
-8.500000000000002
 30
0.0
  0
SPLINE
  5
8C
330
1F
100
AcDbEntity
  8
0
  6
Continuous
 62
     7
370
    25
100
AcDbSpline
210
0.0
220
0.0
230
1.0
 70
    11
 71
     3
 72
    50
 73
    46
 74
     0
 42
0.00000001
 43
0.00000001
 40
0.0
 40
0.0
 40
0.0
 40
0.0
 40
0.062500000000004
 40
0.062500000000004
 40
0.0937500000000037
 40
0.0937500000000037
 40
0.1250000000000034
 40
0.1250000000000034
 40
0.1875000000000029
 40
0.1875000000000029
 40
0.2500000000000023
 40
0.2500000000000023
 40
0.281250000000002
 40
0.281250000000002
 40
0.3125000000000017
 40
0.3125000000000017
 40
0.3749999999999992
 40
0.3749999999999992
 40
0.4374999999999967
 40
0.4374999999999967
 40
0.4687499999999978
 40
0.4687499999999978
 40
0.4999999999999988
 40
0.4999999999999988
 40
0.5625000000000009
 40
0.5625000000000009
 40
0.6250000000000029
 40
0.6250000000000029
 40
0.6562500000000022
 40
0.6562500000000022
 40
0.6875000000000016
 40
0.6875000000000016
 40
0.7187500000000009
 40
0.7187500000000009
 40
0.7500000000000002
 40
0.7500000000000002
 40
0.8124999999999988
 40
0.8124999999999988
 40
0.843749999999999
 40
0.843749999999999
 40
0.8749999999999991
 40
0.8749999999999991
 40
0.9374999999999996
 40
0.9374999999999996
 40
1.0
 40
1.0
 40
1.0
 40
1.0
 10
-0.0599108445836935
 20
-2.583333333333334
 30
0.0
 10
-0.0599108445836935
 20
-2.590369359171913
 30
0.0
 10
-0.0585256945987207
 20
-2.59727352645567
 30
0.0
 10
-0.0545164834640898
 20
-2.606946520648715
 30
0.0
 10
-0.0528808884887215
 20
-2.610005029258378
 30
0.0
 10
-0.0490166753685699
 20
-2.615793392184538
 30
0.0
 10
-0.0467675261767055
 20
-2.618533952065243
 30
0.0
 10
-0.0393979383521044
 20
-2.625902254645113
 30
0.0
 10
-0.0334573113211313
 20
-2.62986955331861
 30
0.0
 10
-0.0206424852462415
 20
-2.635181034579502
 30
0.0
 10
-0.0136352162679121
 20
-2.636579568753607
 30
0.0
 10
-0.0032168623388262
 20
-2.636585203938997
 30
0.0
 10
0.0003104695615689
 20
-2.636239715083301
 30
0.0
 10
0.0071400535615051
 20
-2.634881559890325
 30
0.0
 10
0.0104594878004908
 20
-2.633876620233107
 30
0.0
 10
0.0201301217428376
 20
-2.629878742877152
 30
0.0
 10
0.0260003081124489
 20
-2.625973919892681
 30
0.0
 10
0.0359460552228747
 20
-2.61603841866328
 30
0.0
 10
0.0398556865307281
 20
-2.61017676978834
 30
0.0
 10
0.0438679374376155
 20
-2.600497350909393
 30
0.0
 10
0.0448753940137908
 20
-2.597178093772619
 30
0.0
 10
0.0462384885944861
 20
-2.590356283546881
 30
0.0
 10
0.0465879233052527
 20
-2.586827270134085
 30
0.0
 10
0.0465916096516691
 20
-2.576401946592967
 30
0.0
 10
0.0451991585937719
 20
-2.569397213316436
 30
0.0
 10
0.0398985733995035
 20
-2.55657710101714
 30
0.0
 10
0.0359340243354372
 20
-2.550630855570347
 30
0.0
 10
0.0285764349928462
 20
-2.543259030712277
 30
0.0
 10
0.0258404903110884
 20
-2.541008872585801
 30
0.0
 10
0.0200496745995701
 20
-2.537135444718455
 30
0.0
 10
0.0169925848111777
 20
-2.535497884321912
 30
0.0
 10
0.0105543050567338
 20
-2.532822408503947
 30
0.0
 10
0.0071677739002716
 20
-2.531793275289968
 30
0.0
 10
0.0003606957146109
 20
-2.530434314021744
 30
0.0
 10
-0.0030957841387227
 20
-2.530086905388584
 30
0.0
 10
-0.0136296861017014
 20
-2.530076270634542
 30
0.0
 10
-0.0205434808489933
 20
-2.531451759541538
 30
0.0
 10
-0.0302334961110171
 20
-2.535457365487572
 30
0.0
 10
-0.0332938322920379
 20
-2.537091206571818
 30
0.0
 10
-0.039080499207833
 20
-2.540946822321544
 30
0.0
 10
-0.0418242564579811
 20
-2.54319380725863
 30
0.0
 10
-0.0492044432323014
 20
-2.550562262758871
 30
0.0
 10
-0.0531737658513125
 20
-2.556496258219142
 30
0.0
 10
-0.058496801855446
 20
-2.569307857253945
 30
0.0
 10
-0.0599108445836935
 20
-2.576297307494755
 30
0.0
 10
-0.0599108445836935
 20
-2.583333333333333
 30
0.0
  0
SPLINE
  5
8D
330
1F
100
AcDbEntity
  8
0
  6
Continuous
 62
     7
370
    25
100
AcDbSpline
210
0.0
220
0.0
230
1.0
 70
    11
 71
     3
 72
    50
 73
    46
 74
     0
 42
0.00000001
 43
0.00000001
 40
0.0
 40
0.0
 40
0.0
 40
0.0
 40
0.062500000000004
 40
0.062500000000004
 40
0.0937500000000037
 40
0.0937500000000037
 40
0.1250000000000034
 40
0.1250000000000034
 40
0.1875000000000028
 40
0.1875000000000028
 40
0.2500000000000022
 40
0.2500000000000022
 40
0.2812500000000019
 40
0.2812500000000019
 40
0.3125000000000016
 40
0.3125000000000016
 40
0.3749999999999991
 40
0.3749999999999991
 40
0.4374999999999966
 40
0.4374999999999966
 40
0.4687499999999977
 40
0.4687499999999977
 40
0.4999999999999987
 40
0.4999999999999987
 40
0.5625000000000008
 40
0.5625000000000008
 40
0.6250000000000028
 40
0.6250000000000028
 40
0.6562500000000021
 40
0.6562500000000021
 40
0.6875000000000014
 40
0.6875000000000014
 40
0.7187500000000008
 40
0.7187500000000008
 40
0.7500000000000001
 40
0.7500000000000001
 40
0.8124999999999987
 40
0.8124999999999987
 40
0.8437499999999989
 40
0.8437499999999989
 40
0.874999999999999
 40
0.874999999999999
 40
0.9374999999999996
 40
0.9374999999999996
 40
1.0
 40
1.0
 40
1.0
 40
1.0
 10
-0.0599108445836935
 20
2.583333333333334
 30
0.0
 10
-0.0599108445836935
 20
2.576297307494755
 30
0.0
 10
-0.0585256945987207
 20
2.569393140210997
 30
0.0
 10
-0.0545164834640899
 20
2.559720146017948
 30
0.0
 10
-0.0528808884887215
 20
2.556661637408288
 30
0.0
 10
-0.0490166753685699
 20
2.550873274482128
 30
0.0
 10
-0.0467675261767056
 20
2.548132714601423
 30
0.0
 10
-0.0393979383521044
 20
2.540764412021554
 30
0.0
 10
-0.0334573113211313
 20
2.536797113348057
 30
0.0
 10
-0.0206424852462415
 20
2.531485632087164
 30
0.0
 10
-0.0136352162679121
 20
2.530087097913059
 30
0.0
 10
-0.0032168623388262
 20
2.53008146272767
 30
0.0
 10
0.0003104695615689
 20
2.530426951583367
 30
0.0
 10
0.0071400535615052
 20
2.531785106776342
 30
0.0
 10
0.0104594878004908
 20
2.53279004643356
 30
0.0
 10
0.0201301217428376
 20
2.536787923789514
 30
0.0
 10
0.0260003081124489
 20
2.540692746773985
 30
0.0
 10
0.0359460552228747
 20
2.550628248003386
 30
0.0
 10
0.0398556865307281
 20
2.556489896878327
 30
0.0
 10
0.0438679374376155
 20
2.566169315757273
 30
0.0
 10
0.0448753940137908
 20
2.569488572894048
 30
0.0
 10
0.0462384885944861
 20
2.576310383119785
 30
0.0
 10
0.0465879233052527
 20
2.579839396532579
 30
0.0
 10
0.0465916096516691
 20
2.590264720073699
 30
0.0
 10
0.0451991585937719
 20
2.597269453350231
 30
0.0
 10
0.0398985733995035
 20
2.610089565649526
 30
0.0
 10
0.0359340243354372
 20
2.616035811096322
 30
0.0
 10
0.0285764349928462
 20
2.623407635954389
 30
0.0
 10
0.0258404903110883
 20
2.625657794080865
 30
0.0
 10
0.0200496745995701
 20
2.62953122194821
 30
0.0
 10
0.0169925848111777
 20
2.631168782344754
 30
0.0
 10
0.0105543050567338
 20
2.633844258162719
 30
0.0
 10
0.0071677739002715
 20
2.634873391376698
 30
0.0
 10
0.0003606957146108
 20
2.636232352644922
 30
0.0
 10
-0.0030957841387227
 20
2.636579761278082
 30
0.0
 10
-0.0136296861017014
 20
2.636590396032123
 30
0.0
 10
-0.0205434808489933
 20
2.635214907125131
 30
0.0
 10
-0.0302334961110171
 20
2.631209301179095
 30
0.0
 10
-0.0332938322920376
 20
2.62957546009485
 30
0.0
 10
-0.0390804992078328
 20
2.625719844345122
 30
0.0
 10
-0.0418242564579807
 20
2.623472859408036
 30
0.0
 10
-0.0492044432323011
 20
2.616104403907795
 30
0.0
 10
-0.0531737658513122
 20
2.610170408447524
 30
0.0
 10
-0.0584968018554458
 20
2.597358809412724
 30
0.0
 10
-0.0599108445836935
 20
2.590369359171913
 30
0.0
 10
-0.0599108445836935
 20
2.583333333333334
 30
0.0
  0
SPLINE
  5
8E
330
1F
100
AcDbEntity
  8
0
  6
Continuous
 62
     7
370
    25
100
AcDbSpline
210
0.0
220
0.0
230
1.0
 70
     8
 71
     3
 72
    16
 73
    12
 74
     0
 42
0.00000001
 43
0.00000001
 40
0.0
 40
0.0
 40
0.0
 40
0.0
 40
0.1020502583067196
 40
0.2197795805198753
 40
0.3375206973517308
 40
0.4552645854053967
 40
0.5729990890802876
 40
0.6907285997318322
 40
0.8084660165239321
 40
0.9262107261309663
 40
1.0
 40
1.0
 40
1.0
 40
1.0
 10
-0.0012921518633966
 20
-8.552301220022748
 30
0.0
 10
-0.0063894321014691
 20
-8.551219118603951
 30
0.0
 10
-0.0173671418212109
 20
-8.548888661044618
 30
0.0
 10
-0.0315348430406621
 20
-8.538437634808878
 30
0.0
 10
-0.0421579155354619
 20
-8.523741138036904
 30
0.0
 10
-0.0472500362182379
 20
-8.506212213946968
 30
0.0
 10
-0.0462712613781039
 20
-8.488030969435897
 30
0.0
 10
-0.0393246533666025
 20
-8.471164711744294
 30
0.0
 10
-0.0271908883431778
 20
-8.457640785894187
 30
0.0
 10
-0.0132368420284734
 20
-8.44968841491033
 30
0.0
 10
-0.0036813092503604
 20
-8.447869122599009
 30
0.0
 10
-0.0000000000000006
 20
-8.447168232573274
 30
0.0
  0
SPLINE
  5
8F
330
1F
100
AcDbEntity
  8
0
  6
Continuous
 62
     7
370
    25
100
AcDbSpline
210
0.0
220
0.0
230
1.0
 70
     8
 71
     3
 72
    13
 73
     9
 74
     0
 42
0.00000001
 43
0.00000001
 40
0.0
 40
0.0
 40
0.0
 40
0.0
 40
0.0182187941565078
 40
0.2248431029738096
 40
0.4314722750182192
 40
0.6380849783826115
 40
0.8446889194724002
 40
1.0
 40
1.0
 40
1.0
 40
1.0
 10
1.713019896435036
 20
-8.538717884726559
 30
0.0
 10
1.713394445865764
 20
-8.538420664818682
 30
0.0
 10
1.718016862448264
 20
-8.534752592948605
 30
0.0
 10
1.723656360747485
 20
-8.52340678685872
 30
0.0
 10
1.728333131369693
 20
-8.506280878660665
 30
0.0
 10
1.7273216919486
 20
-8.488090628410808
 30
0.0
 10
1.722195782590346
 20
-8.472283898704926
 30
0.0
 10
1.715756103353659
 20
-8.464873963773035
 30
0.0
 10
1.712992599545414
 20
-8.461694087470118
 30
0.0
  0
SPLINE
  5
94
330
1F
100
AcDbEntity
  8
0
  6
Continuous
 62
     7
370
    25
100
AcDbSpline
210
0.0
220
0.0
230
1.0
 70
     8
 71
     3
 72
    13
 73
     9
 74
     0
 42
0.00000001
 43
0.00000001
 40
0.0
 40
0.0
 40
0.0
 40
0.0
 40
0.0839508528762015
 40
0.2901490151283113
 40
0.4963332386174255
 40
0.7024892997027684
 40
0.9086433713120118
 40
1.0
 40
1.0
 40
1.0
 40
1.0
 10
-1.724120093160977
 20
-8.461554779809235
 30
0.0
 10
-1.725757206495361
 20
-8.46308022903217
 30
0.0
 10
-1.731415360109657
 20
-8.46835245170174
 30
0.0
 10
-1.737080090565907
 20
-8.481713873186719
 30
0.0
 10
-1.740060358199946
 20
-8.499484212199187
 30
0.0
 10
-1.73737670295002
 20
-8.517330605805562
 30
0.0
 10
-1.731816549898018
 20
-8.530977546501878
 30
0.0
 10
-1.726091039468741
 20
-8.536496235786295
 30
0.0
 10
-1.724332906635824
 20
-8.538190860037785
 30
0.0
  0
SPLINE
  5
95
330
1F
100
AcDbEntity
  8
0
  6
Continuous
 62
     7
370
    25
100
AcDbSpline
210
0.0
220
0.0
230
1.0
 70
     8
 71
     3
 72
    12
 73
     8
 74
     0
 42
0.00000001
 43
0.00000001
 40
0.0
 40
0.0
 40
0.0
 40
0.0
 40
0.1395314838473789
 40
0.4098025582977022
 40
0.6800520917052028
 40
0.9502901640525395
 40
0.9999999999999999
 40
0.9999999999999999
 40
0.9999999999999999
 40
0.9999999999999999
 10
-1.718463240544875
 20
-8.530777060118174
 30
0.0
 10
-1.72011695667279
 20
-8.528352892665033
 30
0.0
 10
-1.724973904232089
 20
-8.52123313734784
 30
0.0
 10
-1.728182085988806
 20
-8.506049433408537
 30
0.0
 10
-1.727225137610974
 20
-8.488271182362512
 30
0.0
 10
-1.723618262452924
 20
-8.475237205534551
 30
0.0
 10
-1.719458826410662
 20
-8.470070979088147
 30
0.0
 10
-1.718812580950278
 20
-8.469268310083411
 30
0.0
  0
SPLINE
  5
96
330
1F
100
AcDbEntity
  8
0
  6
Continuous
 62
     7
370
    25
100
AcDbSpline
210
0.0
220
0.0
230
1.0
 70
    11
 71
     3
 72
    50
 73
    46
 74
     0
 42
0.00000001
 43
0.00000001
 40
0.0
 40
0.0
 40
0.0
 40
0.0
 40
0.0625000000000084
 40
0.0625000000000084
 40
0.0937500000000126
 40
0.0937500000000126
 40
0.1250000000000168
 40
0.1250000000000168
 40
0.1875000000000253
 40
0.1875000000000253
 40
0.2500000000000337
 40
0.2500000000000337
 40
0.2812500000000355
 40
0.2812500000000355
 40
0.3125000000000372
 40
0.3125000000000372
 40
0.3750000000000388
 40
0.3750000000000388
 40
0.4375000000000404
 40
0.4375000000000404
 40
0.46875000000004
 40
0.46875000000004
 40
0.5000000000000396
 40
0.5000000000000396
 40
0.5625000000000383
 40
0.5625000000000383
 40
0.625000000000037
 40
0.625000000000037
 40
0.6562500000000363
 40
0.6562500000000363
 40
0.6875000000000356
 40
0.6875000000000356
 40
0.718750000000035
 40
0.718750000000035
 40
0.7500000000000342
 40
0.7500000000000342
 40
0.8125000000000281
 40
0.8125000000000281
 40
0.8437500000000251
 40
0.8437500000000251
 40
0.8750000000000221
 40
0.8750000000000221
 40
0.9375000000000111
 40
0.9375000000000111
 40
1.0
 40
1.0
 40
1.0
 40
1.0
 10
2.922835737772496
 20
2.636165100760062
 30
0.0
 10
2.919345352586062
 20
2.635284989630094
 30
0.0
 10
2.915987800085
 20
2.633047108142192
 30
0.0
 10
2.911393976719071
 20
2.627859376567857
 30
0.0
 10
2.909961174058698
 20
2.625854025881075
 30
0.0
 10
2.90729330192916
 20
2.621296048068191
 30
0.0
 10
2.906054073061594
 20
2.618721698364761
 30
0.0
 10
2.90280168302948
 20
2.610488106879318
 30
0.0
 10
2.901169442848909
 20
2.60409768494348
 30
0.0
 10
2.899294046940048
 20
2.590718780492834
 30
0.0
 10
2.899032130361032
 20
2.583591503255043
 30
0.0
 10
2.899696415607667
 20
2.573254261097478
 30
0.0
 10
2.900097704541177
 20
2.569797878220156
 30
0.0
 10
2.901223430228138
 20
2.563191911583244
 30
0.0
 10
2.90194505211622
 20
2.560024304616131
 30
0.0
 10
2.904585810173129
 20
2.550929868929145
 30
0.0
 10
2.906932516762007
 20
2.54559435141064
 30
0.0
 10
2.912557447987683
 20
2.536969688028047
 30
0.0
 10
2.915739689454645
 20
2.533824041571651
 30
0.0
 10
2.920811644087933
 20
2.531054217988073
 30
0.0
 10
2.922523406634572
 20
2.530469931845604
 30
0.0
 10
2.925987732035641
 20
2.529970995864844
 30
0.0
 10
2.927752861152443
 20
2.530065810834833
 30
0.0
 10
2.93288946202618
 20
2.531366419128875
 30
0.0
 10
2.936234694701084
 20
2.533624223605381
 30
0.0
 10
2.942160599915101
 20
2.54048680541406
 30
0.0
 10
2.944802120176808
 20
2.545163924270419
 30
0.0
 10
2.947918936432648
 20
2.553385710428874
 30
0.0
 10
2.948838661736927
 20
2.556381591541265
 30
0.0
 10
2.95035452645842
 20
2.562611379438062
 30
0.0
 10
2.950957468156143
 20
2.565849270614867
 30
0.0
 10
2.951854497615486
 20
2.572571615409021
 30
0.0
 10
2.952144037010822
 20
2.576060289284372
 30
0.0
 10
2.952384822961364
 20
2.582983900925398
 30
0.0
 10
2.952342349147408
 20
2.586456691469631
 30
0.0
 10
2.951708758849914
 20
2.596909187159507
 30
0.0
 10
2.950628343606309
 20
2.603596639810537
 30
0.0
 10
2.948105700324292
 20
2.61270945835429
 30
0.0
 10
2.947129897555539
 20
2.615541378002359
 30
0.0
 10
2.944910112005056
 20
2.620800304122036
 30
0.0
 10
2.943652780750396
 20
2.623241440078738
 30
0.0
 10
2.939619048948423
 20
2.629641962438271
 30
0.0
 10
2.936479196755417
 20
2.632837867087526
 30
0.0
 10
2.929862108486767
 20
2.636516557118434
 30
0.0
 10
2.926326122958929
 20
2.63704521189003
 30
0.0
 10
2.922835737772496
 20
2.636165100760062
 30
0.0
  0
SPLINE
  5
97
330
1F
100
AcDbEntity
  8
0
  6
Continuous
 62
     7
370
    25
100
AcDbSpline
210
0.0
220
0.0
230
1.0
 70
    11
 71
     3
 72
    50
 73
    46
 74
     0
 42
0.00000001
 43
0.00000001
 40
0.0
 40
0.0
 40
0.0
 40
0.0
 40
0.0624999999999994
 40
0.0624999999999994
 40
0.09375
 40
0.09375
 40
0.1250000000000006
 40
0.1250000000000006
 40
0.1875000000000032
 40
0.1875000000000032
 40
0.2500000000000059
 40
0.2500000000000059
 40
0.2812500000000046
 40
0.2812500000000046
 40
0.3125000000000032
 40
0.3125000000000032
 40
0.3750000000000027
 40
0.3750000000000027
 40
0.4375000000000021
 40
0.4375000000000021
 40
0.4687500000000031
 40
0.4687500000000031
 40
0.500000000000004
 40
0.500000000000004
 40
0.5625000000000028
 40
0.5625000000000028
 40
0.6250000000000016
 40
0.6250000000000016
 40
0.6562500000000018
 40
0.6562500000000018
 40
0.6875000000000019
 40
0.6875000000000019
 40
0.718750000000002
 40
0.718750000000002
 40
0.7500000000000021
 40
0.7500000000000021
 40
0.8124999999999973
 40
0.8124999999999973
 40
0.8437499999999956
 40
0.8437499999999956
 40
0.8749999999999938
 40
0.8749999999999938
 40
0.937499999999997
 40
0.937499999999997
 40
1.0
 40
1.0
 40
1.0
 40
1.0
 10
-2.922835737772474
 20
2.636165100760062
 30
0.0
 10
-2.926326122958908
 20
2.635284989630094
 30
0.0
 10
-2.929645247964636
 20
2.633047108142194
 30
0.0
 10
-2.934147014104086
 20
2.627859376567858
 30
0.0
 10
-2.935544132214166
 20
2.625854025881073
 30
0.0
 10
-2.938135849189149
 20
2.621296048068191
 30
0.0
 10
-2.939334355012295
 20
2.618721698364761
 30
0.0
 10
-2.942470641460776
 20
2.610488106879318
 30
0.0
 10
-2.944031462759012
 20
2.60409768494348
 30
0.0
 10
-2.945822746213346
 20
2.590718780492834
 30
0.0
 10
-2.946071724651973
 20
2.583591503255044
 30
0.0
 10
-2.945438196193155
 20
2.573254261097476
 30
0.0
 10
-2.945055419914548
 20
2.569797878220155
 30
0.0
 10
-2.943979256991746
 20
2.563191911583245
 30
0.0
 10
-2.943288567984649
 20
2.56002430461613
 30
0.0
 10
-2.94075306107873
 20
2.550929868929145
 30
0.0
 10
-2.938491297728153
 20
2.545594351410638
 30
0.0
 10
-2.933014548159029
 20
2.536969688028046
 30
0.0
 10
-2.92989203807996
 20
2.533824041571651
 30
0.0
 10
-2.924858540596158
 20
2.531054217988073
 30
0.0
 10
-2.923151056427109
 20
2.530469931845605
 30
0.0
 10
-2.919676611664158
 20
2.529970995864844
 30
0.0
 10
-2.917896737991976
 20
2.530065810834834
 30
0.0
 10
-2.912689512549175
 20
2.531366419128875
 30
0.0
 10
-2.909259383547884
 20
2.533624223605381
 30
0.0
 10
-2.903129272060184
 20
2.54048680541406
 30
0.0
 10
-2.900367352723686
 20
2.545163924270421
 30
0.0
 10
-2.897090739464376
 20
2.553385710428874
 30
0.0
 10
-2.896120243272611
 20
2.556381591541266
 30
0.0
 10
-2.894517497352564
 20
2.562611379438062
 30
0.0
 10
-2.893878151429004
 20
2.565849270614866
 30
0.0
 10
-2.892926070251064
 20
2.57257161540902
 30
0.0
 10
-2.892618164894679
 20
2.576060289284371
 30
0.0
 10
-2.892362136179928
 20
2.582983900925398
 30
0.0
 10
-2.892407342200077
 20
2.586456691469632
 30
0.0
 10
-2.89308085105055
 20
2.596909187159506
 30
0.0
 10
-2.894229955500944
 20
2.603596639810533
 30
0.0
 10
-2.896893521753903
 20
2.612709458354292
 30
0.0
 10
-2.897921525000071
 20
2.615541378002359
 30
0.0
 10
-2.900250894063691
 20
2.620800304122038
 30
0.0
 10
-2.901566097476045
 20
2.623241440078739
 30
0.0
 10
-2.905766082450976
 20
2.629641962438273
 30
0.0
 10
-2.909010137968207
 20
2.632837867087527
 30
0.0
 10
-2.915769887961658
 20
2.636516557118433
 30
0.0
 10
-2.919345352586041
 20
2.637045211890029
 30
0.0
 10
-2.922835737772474
 20
2.636165100760062
 30
0.0
  0
SPLINE
  5
98
330
1F
100
AcDbEntity
  8
0
  6
Continuous
 62
     7
370
    25
100
AcDbSpline
210
0.0
220
0.0
230
1.0
 70
    11
 71
     3
 72
    50
 73
    46
 74
     0
 42
0.00000001
 43
0.00000001
 40
0.0
 40
0.0
 40
0.0
 40
0.0
 40
0.062500000000008
 40
0.062500000000008
 40
0.093750000000012
 40
0.093750000000012
 40
0.1250000000000161
 40
0.1250000000000161
 40
0.1875000000000241
 40
0.1875000000000241
 40
0.2500000000000321
 40
0.2500000000000321
 40
0.2812500000000337
 40
0.2812500000000337
 40
0.3125000000000353
 40
0.3125000000000353
 40
0.3750000000000365
 40
0.3750000000000365
 40
0.4375000000000377
 40
0.4375000000000377
 40
0.4687500000000371
 40
0.4687500000000371
 40
0.5000000000000365
 40
0.5000000000000365
 40
0.5625000000000347
 40
0.5625000000000347
 40
0.6250000000000331
 40
0.6250000000000331
 40
0.6562500000000322
 40
0.6562500000000322
 40
0.6875000000000313
 40
0.6875000000000313
 40
0.7187500000000304
 40
0.7187500000000304
 40
0.7500000000000295
 40
0.7500000000000295
 40
0.8125000000000231
 40
0.8125000000000231
 40
0.8437500000000209
 40
0.8437500000000209
 40
0.8750000000000187
 40
0.8750000000000187
 40
0.9375000000000094
 40
0.9375000000000094
 40
1.0
 40
1.0
 40
1.0
 40
1.0
 10
2.922835737772496
 20
-2.530501565906605
 30
0.0
 10
2.919345352586062
 20
-2.531381677036572
 30
0.0
 10
2.915987800085001
 20
-2.533619558524476
 30
0.0
 10
2.911393976719073
 20
-2.53880729009881
 30
0.0
 10
2.909961174058697
 20
-2.540812640785591
 30
0.0
 10
2.907293301929159
 20
-2.545370618598476
 30
0.0
 10
2.906054073061595
 20
-2.547944968301906
 30
0.0
 10
2.902801683029481
 20
-2.556178559787349
 30
0.0
 10
2.90116944284891
 20
-2.562568981723188
 30
0.0
 10
2.899294046940046
 20
-2.575947886173832
 30
0.0
 10
2.899032130361034
 20
-2.583075163411626
 30
0.0
 10
2.899696415607667
 20
-2.593412405569188
 30
0.0
 10
2.900097704541177
 20
-2.596868788446511
 30
0.0
 10
2.901223430228138
 20
-2.603474755083421
 30
0.0
 10
2.90194505211622
 20
-2.606642362050535
 30
0.0
 10
2.90458581017313
 20
-2.615736797737521
 30
0.0
 10
2.906932516762006
 20
-2.621072315256026
 30
0.0
 10
2.91255744798768
 20
-2.62969697863862
 30
0.0
 10
2.915739689454643
 20
-2.632842625095017
 30
0.0
 10
2.920811644087933
 20
-2.635612448678593
 30
0.0
 10
2.922523406634571
 20
-2.636196734821062
 30
0.0
 10
2.925987732035642
 20
-2.636695670801822
 30
0.0
 10
2.927752861152444
 20
-2.636600855831833
 30
0.0
 10
2.93288946202618
 20
-2.635300247537791
 30
0.0
 10
2.936234694701085
 20
-2.633042443061286
 30
0.0
 10
2.942160599915101
 20
-2.626179861252606
 30
0.0
 10
2.944802120176805
 20
-2.621502742396246
 30
0.0
 10
2.947918936432648
 20
-2.613280956237791
 30
0.0
 10
2.948838661736928
 20
-2.6102850751254
 30
0.0
 10
2.950354526458419
 20
-2.604055287228602
 30
0.0
 10
2.950957468156141
 20
-2.6008173960518
 30
0.0
 10
2.951854497615485
 20
-2.594095051257646
 30
0.0
 10
2.95214403701082
 20
-2.590606377382296
 30
0.0
 10
2.952384822961364
 20
-2.583682765741268
 30
0.0
 10
2.952342349147408
 20
-2.580209975197034
 30
0.0
 10
2.951708758849914
 20
-2.569757479507158
 30
0.0
 10
2.950628343606307
 20
-2.563070026856132
 30
0.0
 10
2.948105700324292
 20
-2.553957208312375
 30
0.0
 10
2.947129897555538
 20
-2.551125288664307
 30
0.0
 10
2.944910112005056
 20
-2.545866362544628
 30
0.0
 10
2.943652780750396
 20
-2.543425226587928
 30
0.0
 10
2.939619048948425
 20
-2.537024704228396
 30
0.0
 10
2.936479196755417
 20
-2.533828799579139
 30
0.0
 10
2.929862108486767
 20
-2.530150109548232
 30
0.0
 10
2.926326122958929
 20
-2.529621454776638
 30
0.0
 10
2.922835737772496
 20
-2.530501565906605
 30
0.0
  0
SPLINE
  5
99
330
1F
100
AcDbEntity
  8
0
  6
Continuous
 62
     7
370
    25
100
AcDbSpline
210
0.0
220
0.0
230
1.0
 70
    11
 71
     3
 72
    50
 73
    46
 74
     0
 42
0.00000001
 43
0.00000001
 40
0.0
 40
0.0
 40
0.0
 40
0.0
 40
0.0624999999999983
 40
0.0624999999999983
 40
0.0937499999999983
 40
0.0937499999999983
 40
0.1249999999999984
 40
0.1249999999999984
 40
0.1875
 40
0.1875
 40
0.2500000000000016
 40
0.2500000000000016
 40
0.2812499999999997
 40
0.2812499999999997
 40
0.3124999999999978
 40
0.3124999999999978
 40
0.3749999999999962
 40
0.3749999999999962
 40
0.4374999999999946
 40
0.4374999999999946
 40
0.4687499999999949
 40
0.4687499999999949
 40
0.4999999999999953
 40
0.4999999999999953
 40
0.5624999999999951
 40
0.5624999999999951
 40
0.624999999999995
 40
0.624999999999995
 40
0.6562499999999957
 40
0.6562499999999957
 40
0.6874999999999963
 40
0.6874999999999963
 40
0.7187499999999971
 40
0.7187499999999971
 40
0.7499999999999978
 40
0.7499999999999978
 40
0.812499999999994
 40
0.812499999999994
 40
0.8437499999999929
 40
0.8437499999999929
 40
0.8749999999999917
 40
0.8749999999999917
 40
0.9374999999999958
 40
0.9374999999999958
 40
1.0
 40
1.0
 40
1.0
 40
1.0
 10
-2.922835737772474
 20
-2.530501565906604
 30
0.0
 10
-2.926326122958908
 20
-2.531381677036572
 30
0.0
 10
-2.929645247964634
 20
-2.533619558524475
 30
0.0
 10
-2.934147014104085
 20
-2.538807290098809
 30
0.0
 10
-2.935544132214166
 20
-2.540812640785593
 30
0.0
 10
-2.938135849189149
 20
-2.545370618598477
 30
0.0
 10
-2.939334355012295
 20
-2.547944968301906
 30
0.0
 10
-2.942470641460776
 20
-2.556178559787349
 30
0.0
 10
-2.944031462759012
 20
-2.562568981723188
 30
0.0
 10
-2.945822746213345
 20
-2.575947886173832
 30
0.0
 10
-2.946071724651975
 20
-2.583075163411625
 30
0.0
 10
-2.945438196193156
 20
-2.593412405569189
 30
0.0
 10
-2.945055419914547
 20
-2.596868788446511
 30
0.0
 10
-2.943979256991748
 20
-2.603474755083423
 30
0.0
 10
-2.94328856798465
 20
-2.606642362050536
 30
0.0
 10
-2.94075306107873
 20
-2.61573679773752
 30
0.0
 10
-2.938491297728152
 20
-2.621072315256028
 30
0.0
 10
-2.933014548159028
 20
-2.629696978638621
 30
0.0
 10
-2.929892038079962
 20
-2.632842625095018
 30
0.0
 10
-2.924858540596158
 20
-2.635612448678593
 30
0.0
 10
-2.923151056427108
 20
-2.636196734821061
 30
0.0
 10
-2.919676611664158
 20
-2.636695670801822
 30
0.0
 10
-2.917896737991976
 20
-2.636600855831834
 30
0.0
 10
-2.912689512549174
 20
-2.635300247537792
 30
0.0
 10
-2.909259383547882
 20
-2.633042443061285
 30
0.0
 10
-2.903129272060183
 20
-2.626179861252606
 30
0.0
 10
-2.900367352723686
 20
-2.621502742396247
 30
0.0
 10
-2.897090739464376
 20
-2.613280956237791
 30
0.0
 10
-2.89612024327261
 20
-2.6102850751254
 30
0.0
 10
-2.894517497352564
 20
-2.604055287228604
 30
0.0
 10
-2.893878151429004
 20
-2.6008173960518
 30
0.0
 10
-2.892926070251066
 20
-2.594095051257646
 30
0.0
 10
-2.89261816489468
 20
-2.590606377382296
 30
0.0
 10
-2.892362136179928
 20
-2.583682765741268
 30
0.0
 10
-2.892407342200078
 20
-2.580209975197034
 30
0.0
 10
-2.893080851050552
 20
-2.569757479507158
 30
0.0
 10
-2.894229955500946
 20
-2.563070026856134
 30
0.0
 10
-2.896893521753903
 20
-2.553957208312377
 30
0.0
 10
-2.897921525000069
 20
-2.551125288664308
 30
0.0
 10
-2.90025089406369
 20
-2.545866362544628
 30
0.0
 10
-2.901566097476045
 20
-2.543425226587928
 30
0.0
 10
-2.905766082450976
 20
-2.537024704228395
 30
0.0
 10
-2.909010137968207
 20
-2.53382879957914
 30
0.0
 10
-2.915769887961658
 20
-2.530150109548231
 30
0.0
 10
-2.919345352586039
 20
-2.529621454776636
 30
0.0
 10
-2.922835737772474
 20
-2.530501565906604
 30
0.0
  0
LINE
  5
9A
330
1F
100
AcDbEntity
  8
0
  6
Continuous
 62
     7
370
    25
100
AcDbLine
 10
3.5
 20
7.75
 30
0.0
 11
3.5
 21
8.75
 31
0.0
  0
LINE
  5
9B
330
1F
100
AcDbEntity
  8
0
  6
Continuous
 62
     7
370
    25
100
AcDbLine
 10
3.5
 20
-8.4472536285
 30
0.0
 11
3.5
 21
-7.75
 31
0.0
  0
LINE
  5
9C
330
1F
100
AcDbEntity
  8
0
  6
Continuous
 62
     7
370
    25
100
AcDbLine
 10
3.5
 20
-8.75
 30
0.0
 11
3.5
 21
-8.5520952275
 31
0.0
  0
LINE
  5
9D
330
1F
100
AcDbEntity
  8
0
  6
Continuous
 62
     7
370
    25
100
AcDbLine
 10
-3.5
 20
-8.5520952275
 30
0.0
 11
-3.5
 21
-8.75
 31
0.0
  0
LINE
  5
9E
330
1F
100
AcDbEntity
  8
0
  6
Continuous
 62
     7
370
    25
100
AcDbLine
 10
-3.5
 20
-7.75
 30
0.0
 11
-3.5
 21
-8.4472536285
 31
0.0
  0
LINE
  5
9F
330
1F
100
AcDbEntity
  8
0
  6
Continuous
 62
     7
370
    25
100
AcDbLine
 10
-3.5
 20
8.75
 30
0.0
 11
-3.5
 21
7.75
 31
0.0
  0
LINE
  5
A0
330
1F
100
AcDbEntity
  8
0
  6
Continuous
 62
     7
370
    25
100
AcDbLine
 10
-3.5
 20
-8.75
 30
0.0
 11
3.5
 21
-8.75
 31
0.0
  0
LINE
  5
A1
330
1F
100
AcDbEntity
  8
0
  6
Continuous
 62
     7
370
    25
100
AcDbLine
 10
-3.5
 20
8.75
 30
0.0
 11
3.5
 21
8.75
 31
0.0
  0
LINE
  5
A2
330
1F
100
AcDbEntity
  8
0
  6
Continuous
 62
     7
370
    25
100
AcDbLine
 10
3.2594521901
 20
7.75
 30
0.0
 11
3.2594521901
 21
-7.75
 31
0.0
  0
LINE
  5
A3
330
1F
100
AcDbEntity
  8
0
  6
Continuous
 62
     7
370
    25
100
AcDbLine
 10
3.5
 20
7.75
 30
0.0
 11
0.5166238691
 21
7.75
 31
0.0
  0
LINE
  5
A4
330
1F
100
AcDbEntity
  8
0
  6
Continuous
 62
     7
370
    25
100
AcDbLine
 10
0.5166238691
 20
7.75
 30
0.0
 11
0.5166238691
 21
-7.75
 31
0.0
  0
LINE
  5
A5
330
1F
100
AcDbEntity
  8
0
  6
Continuous
 62
     7
370
    25
100
AcDbLine
 10
3.5
 20
-7.75
 30
0.0
 11
0.5166238691
 21
-7.75
 31
0.0
  0
LINE
  5
A6
330
1F
100
AcDbEntity
  8
0
  6
Continuous
 62
     7
370
    25
100
AcDbLine
 10
-0.525426061
 20
7.75
 30
0.0
 11
-0.525426061
 21
-7.75
 31
0.0
  0
LINE
  5
A7
330
1F
100
AcDbEntity
  8
0
  6
Continuous
 62
     7
370
    25
100
AcDbLine
 10
-0.525426061
 20
7.75
 30
0.0
 11
-3.5
 21
7.75
 31
0.0
  0
LINE
  5
A8
330
1F
100
AcDbEntity
  8
0
  6
Continuous
 62
     7
370
    25
100
AcDbLine
 10
-3.2561986624
 20
7.75
 30
0.0
 11
-3.2561986624
 21
-7.75
 31
0.0
  0
LINE
  5
A9
330
1F
100
AcDbEntity
  8
0
  6
Continuous
 62
     7
370
    25
100
AcDbLine
 10
-0.525426061
 20
-7.75
 30
0.0
 11
-3.5
 21
-7.75
 31
0.0
  0
LINE
  5
AA
330
1F
100
AcDbEntity
  8
0
  6
Continuous
 62
     7
370
    25
100
AcDbLine
 10
3.1430431834
 20
7.75
 30
0.0
 11
3.1430431834
 21
-7.75
 31
0.0
  0
LINE
  5
AB
330
1F
100
AcDbEntity
  8
0
  6
Continuous
 62
     7
370
    25
100
AcDbLine
 10
-3.1399058531
 20
7.75
 30
0.0
 11
-3.1399058531
 21
-7.75
 31
0.0
  0
LINE
  5
AC
330
1F
100
AcDbEntity
  8
0
  6
Continuous
 62
     7
370
    25
100
AcDbLine
 10
-2.6363823388
 20
7.75
 30
0.0
 11
-2.6363823388
 21
-7.75
 31
0.0
  0
LINE
  5
AD
330
1F
100
AcDbEntity
  8
0
  6
Continuous
 62
     7
370
    25
100
AcDbLine
 10
2.6417328365
 20
7.75
 30
0.0
 11
2.6417328365
 21
-7.75
 31
0.0
  0
MTEXT
  5
AF
330
1F
100
AcDbEntity
  8
0
  6
Continuous
 62
     7
100
AcDbMText
 10
-3.5
 20
-8.7901404091
 30
0.0
 40
0.1903
 41
0.0
 71
     1
 72
     1
  1
SOLIDWORKS Educational Product.
  7
SLDTEXTSTYLE0
 73
     1
 44
1.0
  0
MTEXT
  5
B0
330
1F
100
AcDbEntity
  8
0
  6
Continuous
 62
     7
100
AcDbMText
 10
-3.5
 20
-9.0755904091
 30
0.0
 40
0.1903
 41
0.0
 71
     1
 72
     1
  1
For Instructional Use Only.
  7
SLDTEXTSTYLE0
 73
     1
 44
1.0
  0
ENDSEC
  0
SECTION
  2
OBJECTS
  0
DICTIONARY
  5
C
330
0
100
AcDbDictionary
281
     1
  3
ACAD_GROUP
350
D
  3
ACAD_LAYOUT
350
1A
  3
ACAD_MLINESTYLE
350
17
  3
ACAD_PLOTSETTINGS
350
19
  3
ACAD_PLOTSTYLENAME
350
E
  3
ACAD_SCALELIST
350
47
  3
DWGPROPS
350
B1
  0
DICTIONARY
  5
D
102
{ACAD_REACTORS
330
C
102
}
330
C
100
AcDbDictionary
281
     1
  0
DICTIONARY
  5
1A
102
{ACAD_REACTORS
330
C
102
}
330
C
100
AcDbDictionary
281
     1
  3
Layout1
350
1E
  3
Layout2
350
26
  3
Model
350
22
  0
DICTIONARY
  5
17
102
{ACAD_REACTORS
330
C
102
}
330
C
100
AcDbDictionary
281
     1
  3
Standard
350
18
  0
DICTIONARY
  5
19
102
{ACAD_REACTORS
330
C
102
}
330
C
100
AcDbDictionary
281
     1
  0
ACDBDICTIONARYWDFLT
  5
E
102
{ACAD_REACTORS
330
C
102
}
330
C
100
AcDbDictionary
281
     1
  3
Normal
350
F
100
AcDbDictionaryWithDefault
340
F
  0
DICTIONARY
  5
47
102
{ACAD_REACTORS
330
C
102
}
330
C
100
AcDbDictionary
281
     1
  3
A0
350
48
  3
A1
350
49
  3
A2
350
4A
  3
A3
350
4B
  3
A4
350
4C
  3
A5
350
4D
  3
A6
350
4E
  3
A7
350
4F
  3
A8
350
50
  3
A9
350
51
  3
B0
350
52
  3
B1
350
53
  3
B2
350
54
  3
B3
350
55
  3
B4
350
56
  3
B5
350
57
  3
B6
350
58
  3
B7
350
59
  3
B8
350
5A
  3
B9
350
5B
  3
C0
350
5C
  3
C1
350
5D
  3
C2
350
5E
  3
C3
350
5F
  3
C4
350
60
  3
C5
350
61
  3
C6
350
62
  3
C7
350
63
  3
C8
350
64
  3
C9
350
65
  3
D0
350
66
  3
D1
350
67
  3
D2
350
68
  0
XRECORD
  5
B1
102
{ACAD_REACTORS
330
C
102
}
330
C
100
AcDbXrecord
280
     1
  1
DWGPROPS COOKIE
  2

  3

  4

  6

  7

  8
olori
  9

300
=
301
=
302
=
303
=
304
=
305
=
306
=
307
=
308
=
309
=
 40
0.0
 41
2459498.063835475
 42
2459498.063862743
  1

 90
        0
  0
LAYOUT
  5
1E
102
{ACAD_REACTORS
330
1A
102
}
330
1A
100
AcDbPlotSettings
  1

  2
none_device
  4

  6

 40
0.0
 41
0.0
 42
0.0
 43
0.0
 44
0.0
 45
0.0
 46
0.0
 47
0.0
 48
0.0
 49
0.0
140
0.0
141
0.0
142
1.0
143
1.0
 70
   688
 72
     0
 73
     0
 74
     5
  7

 75
    16
147
1.0
148
0.0
149
0.0
100
AcDbLayout
  1
Layout1
 70
     1
 71
     1
 10
0.0
 20
0.0
 11
12.0
 21
9.0
 12
0.0
 22
0.0
 32
0.0
 14
1.0000000000E+20
 24
1.0000000000E+20
 34
1.0000000000E+20
 15
-1.0000000000E+20
 25
-1.0000000000E+20
 35
-1.0000000000E+20
146
0.0
 13
0.0
 23
0.0
 33
0.0
 16
1.0
 26
0.0
 36
0.0
 17
0.0
 27
1.0
 37
0.0
 76
     0
330
1B
  0
LAYOUT
  5
26
102
{ACAD_REACTORS
330
1A
102
}
330
1A
100
AcDbPlotSettings
  1

  2
none_device
  4

  6

 40
0.0
 41
0.0
 42
0.0
 43
0.0
 44
0.0
 45
0.0
 46
0.0
 47
0.0
 48
0.0
 49
0.0
140
0.0
141
0.0
142
1.0
143
1.0
 70
   688
 72
     0
 73
     0
 74
     5
  7

 75
    16
147
1.0
148
0.0
149
0.0
100
AcDbLayout
  1
Layout2
 70
     1
 71
     2
 10
0.0
 20
0.0
 11
0.0
 21
0.0
 12
0.0
 22
0.0
 32
0.0
 14
0.0
 24
0.0
 34
0.0
 15
0.0
 25
0.0
 35
0.0
146
0.0
 13
0.0
 23
0.0
 33
0.0
 16
1.0
 26
0.0
 36
0.0
 17
0.0
 27
1.0
 37
0.0
 76
     0
330
23
  0
LAYOUT
  5
22
102
{ACAD_REACTORS
330
1A
102
}
330
1A
100
AcDbPlotSettings
  1

  2
none_device
  4
ANSI_A_(11.00_x_8.50_Inches)
  6

 40
6.35
 41
19.05
 42
6.35000508
 43
19.05000254
 44
279.4
 45
215.9
 46
133.34999746
 47
88.89999873
 48
0.0
 49
0.0
140
0.0
141
0.0
142
0.4808571429
143
1.0
 70
  1696
 72
     0
 73
     0
 74
     0
  7

 75
     0
147
0.5913241897
148
-39.4088153714
149
0.0
100
AcDbLayout
  1
Model
 70
     1
 71
     0
 10
0.0
 20
0.0
 11
12.0
 21
9.0
 12
0.0
 22
0.0
 32
0.0
 14
-3.5
 24
-8.75
 34
0.0
 15
3.5
 25
8.75
 35
0.0
146
0.0
 13
0.0
 23
0.0
 33
0.0
 16
1.0
 26
0.0
 36
0.0
 17
0.0
 27
1.0
 37
0.0
 76
     0
330
1F
331
29
  0
MLINESTYLE
  5
18
102
{ACAD_REACTORS
330
17
102
}
330
17
100
AcDbMlineStyle
  2
Standard
 70
     0
  3

 62
   256
 51
90.0
 52
90.0
 71
     2
 49
0.5
 62
   256
  6
BYLAYER
 49
-0.5
 62
   256
  6
BYLAYER
  0
ACDBPLACEHOLDER
  5
F
102
{ACAD_REACTORS
330
E
102
}
330
E
  0
SCALE
  5
48
102
{ACAD_REACTORS
330
47
102
}
330
47
100
AcDbScale
 70
     0
300
1:1
140
1.0
141
1.0
290
     1
  0
SCALE
  5
49
102
{ACAD_REACTORS
330
47
102
}
330
47
100
AcDbScale
 70
     0
300
1:2
140
1.0
141
2.0
290
     0
  0
SCALE
  5
4A
102
{ACAD_REACTORS
330
47
102
}
330
47
100
AcDbScale
 70
     0
300
1:4
140
1.0
141
4.0
290
     0
  0
SCALE
  5
4B
102
{ACAD_REACTORS
330
47
102
}
330
47
100
AcDbScale
 70
     0
300
1:5
140
1.0
141
5.0
290
     0
  0
SCALE
  5
4C
102
{ACAD_REACTORS
330
47
102
}
330
47
100
AcDbScale
 70
     0
300
1:8
140
1.0
141
8.0
290
     0
  0
SCALE
  5
4D
102
{ACAD_REACTORS
330
47
102
}
330
47
100
AcDbScale
 70
     0
300
1:10
140
1.0
141
10.0
290
     0
  0
SCALE
  5
4E
102
{ACAD_REACTORS
330
47
102
}
330
47
100
AcDbScale
 70
     0
300
1:16
140
1.0
141
16.0
290
     0
  0
SCALE
  5
4F
102
{ACAD_REACTORS
330
47
102
}
330
47
100
AcDbScale
 70
     0
300
1:20
140
1.0
141
20.0
290
     0
  0
SCALE
  5
50
102
{ACAD_REACTORS
330
47
102
}
330
47
100
AcDbScale
 70
     0
300
1:30
140
1.0
141
30.0
290
     0
  0
SCALE
  5
51
102
{ACAD_REACTORS
330
47
102
}
330
47
100
AcDbScale
 70
     0
300
1:40
140
1.0
141
40.0
290
     0
  0
SCALE
  5
52
102
{ACAD_REACTORS
330
47
102
}
330
47
100
AcDbScale
 70
     0
300
1:50
140
1.0
141
50.0
290
     0
  0
SCALE
  5
53
102
{ACAD_REACTORS
330
47
102
}
330
47
100
AcDbScale
 70
     0
300
1:100
140
1.0
141
100.0
290
     0
  0
SCALE
  5
54
102
{ACAD_REACTORS
330
47
102
}
330
47
100
AcDbScale
 70
     0
300
2:1
140
2.0
141
1.0
290
     0
  0
SCALE
  5
55
102
{ACAD_REACTORS
330
47
102
}
330
47
100
AcDbScale
 70
     0
300
4:1
140
4.0
141
1.0
290
     0
  0
SCALE
  5
56
102
{ACAD_REACTORS
330
47
102
}
330
47
100
AcDbScale
 70
     0
300
8:1
140
8.0
141
1.0
290
     0
  0
SCALE
  5
57
102
{ACAD_REACTORS
330
47
102
}
330
47
100
AcDbScale
 70
     0
300
10:1
140
10.0
141
1.0
290
     0
  0
SCALE
  5
58
102
{ACAD_REACTORS
330
47
102
}
330
47
100
AcDbScale
 70
     0
300
100:1
140
100.0
141
1.0
290
     0
  0
SCALE
  5
59
102
{ACAD_REACTORS
330
47
102
}
330
47
100
AcDbScale
 70
     0
300
1/128" = 1'-0"
140
0.0078125
141
12.0
290
     0
  0
SCALE
  5
5A
102
{ACAD_REACTORS
330
47
102
}
330
47
100
AcDbScale
 70
     0
300
1/64" = 1'-0"
140
0.015625
141
12.0
290
     0
  0
SCALE
  5
5B
102
{ACAD_REACTORS
330
47
102
}
330
47
100
AcDbScale
 70
     0
300
1/32" = 1'-0"
140
0.03125
141
12.0
290
     0
  0
SCALE
  5
5C
102
{ACAD_REACTORS
330
47
102
}
330
47
100
AcDbScale
 70
     0
300
1/16" = 1'-0"
140
0.0625
141
12.0
290
     0
  0
SCALE
  5
5D
102
{ACAD_REACTORS
330
47
102
}
330
47
100
AcDbScale
 70
     0
300
3/32" = 1'-0"
140
0.09375
141
12.0
290
     0
  0
SCALE
  5
5E
102
{ACAD_REACTORS
330
47
102
}
330
47
100
AcDbScale
 70
     0
300
1/8" = 1'-0"
140
0.125
141
12.0
290
     0
  0
SCALE
  5
5F
102
{ACAD_REACTORS
330
47
102
}
330
47
100
AcDbScale
 70
     0
300
3/16" = 1'-0"
140
0.1875
141
12.0
290
     0
  0
SCALE
  5
60
102
{ACAD_REACTORS
330
47
102
}
330
47
100
AcDbScale
 70
     0
300
1/4" = 1'-0"
140
0.25
141
12.0
290
     0
  0
SCALE
  5
61
102
{ACAD_REACTORS
330
47
102
}
330
47
100
AcDbScale
 70
     0
300
3/8" = 1'-0"
140
0.375
141
12.0
290
     0
  0
SCALE
  5
62
102
{ACAD_REACTORS
330
47
102
}
330
47
100
AcDbScale
 70
     0
300
1/2" = 1'-0"
140
0.5
141
12.0
290
     0
  0
SCALE
  5
63
102
{ACAD_REACTORS
330
47
102
}
330
47
100
AcDbScale
 70
     0
300
3/4" = 1'-0"
140
0.75
141
12.0
290
     0
  0
SCALE
  5
64
102
{ACAD_REACTORS
330
47
102
}
330
47
100
AcDbScale
 70
     0
300
1" = 1'-0"
140
1.0
141
12.0
290
     0
  0
SCALE
  5
65
102
{ACAD_REACTORS
330
47
102
}
330
47
100
AcDbScale
 70
     0
300
1-1/2" = 1'-0"
140
1.5
141
12.0
290
     0
  0
SCALE
  5
66
102
{ACAD_REACTORS
330
47
102
}
330
47
100
AcDbScale
 70
     0
300
3" = 1'-0"
140
3.0
141
12.0
290
     0
  0
SCALE
  5
67
102
{ACAD_REACTORS
330
47
102
}
330
47
100
AcDbScale
 70
     0
300
6" = 1'-0"
140
6.0
141
12.0
290
     0
  0
SCALE
  5
68
102
{ACAD_REACTORS
330
47
102
}
330
47
100
AcDbScale
 70
     0
300
1'-0" = 1'-0"
140
12.0
141
12.0
290
     0
  0
ENDSEC
  0
EOF
