  0
SECTION
  2
HEADER
  9
$ACADVER
  1
AC1015
  9
$ACADMAINTVER
 70
     6
  9
$DWGCODEPAGE
  3
ANSI_1252
  9
$INSBASE
 10
0.0
 20
0.0
 30
0.0
  9
$EXTMIN
 10
-3.5
 20
-9.505
 30
0.0
  9
$EXTMAX
 10
3.5
 20
9.505
 30
0.0
  9
$LIMMIN
 10
0.0
 20
0.0
  9
$LIMMAX
 10
12.0
 20
9.0
  9
$ORTHOMODE
 70
     0
  9
$REGENMODE
 70
     1
  9
$FILLMODE
 70
     1
  9
$QTEXTMODE
 70
     0
  9
$MIRRTEXT
 70
     1
  9
$LTSCALE
 40
1.0
  9
$ATTMODE
 70
     1
  9
$TEXTSIZE
 40
0.125
  9
$TRACEWID
 40
0.05
  9
$TEXTSTYLE
  7
Standard
  9
$CLAYER
  8
0
  9
$CELTYPE
  6
ByLayer
  9
$CECOLOR
 62
   256
  9
$CELTSCALE
 40
1.0
  9
$DISPSILH
 70
     0
  9
$DIMSCALE
 40
1.0
  9
$DIMASZ
 40
0.13
  9
$DIMEXO
 40
0.0
  9
$DIMDLI
 40
0.38
  9
$DIMRND
 40
0.0
  9
$DIMDLE
 40
0.0
  9
$DIMEXE
 40
0.125
  9
$DIMTP
 40
0.0
  9
$DIMTM
 40
0.0
  9
$DIMTXT
 40
0.125
  9
$DIMCEN
 40
0.09
  9
$DIMTSZ
 40
0.0
  9
$DIMTOL
 70
     0
  9
$DIMLIM
 70
     0
  9
$DIMTIH
 70
     1
  9
$DIMTOH
 70
     1
  9
$DIMSE1
 70
     0
  9
$DIMSE2
 70
     0
  9
$DIMTAD
 70
     0
  9
$DIMZIN
 70
     1
  9
$DIMBLK
  1

  9
$DIMASO
 70
     1
  9
$DIMSHO
 70
     1
  9
$DIMPOST
  1

  9
$DIMAPOST
  1

  9
$DIMALT
 70
     0
  9
$DIMALTD
 70
     2
  9
$DIMALTF
 40
25.4
  9
$DIMLFAC
 40
1.0
  9
$DIMTOFL
 70
     0
  9
$DIMTVP
 40
0.0
  9
$DIMTIX
 70
     0
  9
$DIMSOXD
 70
     0
  9
$DIMSAH
 70
     0
  9
$DIMBLK1
  1

  9
$DIMBLK2
  1

  9
$DIMSTYLE
  2
Standard
  9
$DIMCLRD
 70
     0
  9
$DIMCLRE
 70
     0
  9
$DIMCLRT
 70
     0
  9
$DIMTFAC
 40
1.0
  9
$DIMGAP
 40
0.06
  9
$DIMJUST
 70
     0
  9
$DIMSD1
 70
     0
  9
$DIMSD2
 70
     0
  9
$DIMTOLJ
 70
     1
  9
$DIMTZIN
 70
     1
  9
$DIMALTZ
 70
     0
  9
$DIMALTTZ
 70
     0
  9
$DIMUPT
 70
     0
  9
$DIMDEC
 70
     2
  9
$DIMTDEC
 70
     2
  9
$DIMALTU
 70
     2
  9
$DIMALTTD
 70
     2
  9
$DIMTXSTY
  7
Standard
  9
$DIMAUNIT
 70
     0
  9
$DIMADEC
 70
     2
  9
$DIMALTRND
 40
0.0
  9
$DIMAZIN
 70
     0
  9
$DIMDSEP
 70
    46
  9
$DIMATFIT
 70
     3
  9
$DIMFRAC
 70
     0
  9
$DIMLDRBLK
  1

  9
$DIMLUNIT
 70
     2
  9
$DIMLWD
 70
    -2
  9
$DIMLWE
 70
    -2
  9
$DIMTMOVE
 70
     0
  9
$LUNITS
 70
     2
  9
$LUPREC
 70
     2
  9
$SKETCHINC
 40
0.1
  9
$FILLETRAD
 40
0.5
  9
$AUNITS
 70
     0
  9
$AUPREC
 70
     2
  9
$MENU
  1
.
  9
$ELEVATION
 40
0.0
  9
$PELEVATION
 40
0.0
  9
$THICKNESS
 40
0.0
  9
$LIMCHECK
 70
     0
  9
$CHAMFERA
 40
0.0
  9
$CHAMFERB
 40
0.0
  9
$CHAMFERC
 40
0.0
  9
$CHAMFERD
 40
0.0
  9
$SKPOLY
 70
     0
  9
$TDCREATE
 40
2459497.867566123
  9
$TDUCREATE
 40
2459498.034232789
  9
$TDUPDATE
 40
2459497.86759309
  9
$TDUUPDATE
 40
2459498.034259757
  9
$TDINDWG
 40
0.0000000116
  9
$TDUSRTIMER
 40
0.0000000116
  9
$USRTIMER
 70
     1
  9
$ANGBASE
 50
0.0
  9
$ANGDIR
 70
     0
  9
$PDMODE
 70
     0
  9
$PDSIZE
 40
-1.0
  9
$PLINEWID
 40
0.0
  9
$SPLFRAME
 70
     0
  9
$SPLINETYPE
 70
     6
  9
$SPLINESEGS
 70
     8
  9
$HANDSEED
  5
C7
  9
$SURFTAB1
 70
     6
  9
$SURFTAB2
 70
     6
  9
$SURFTYPE
 70
     6
  9
$SURFU
 70
     6
  9
$SURFV
 70
     6
  9
$UCSBASE
  2

  9
$UCSNAME
  2

  9
$UCSORG
 10
0.0
 20
0.0
 30
0.0
  9
$UCSXDIR
 10
1.0
 20
0.0
 30
0.0
  9
$UCSYDIR
 10
0.0
 20
1.0
 30
0.0
  9
$UCSORTHOREF
  2

  9
$UCSORTHOVIEW
 70
     0
  9
$UCSORGTOP
 10
0.0
 20
0.0
 30
0.0
  9
$UCSORGBOTTOM
 10
0.0
 20
0.0
 30
0.0
  9
$UCSORGLEFT
 10
0.0
 20
0.0
 30
0.0
  9
$UCSORGRIGHT
 10
0.0
 20
0.0
 30
0.0
  9
$UCSORGFRONT
 10
0.0
 20
0.0
 30
0.0
  9
$UCSORGBACK
 10
0.0
 20
0.0
 30
0.0
  9
$PUCSBASE
  2

  9
$PUCSNAME
  2

  9
$PUCSORG
 10
0.0
 20
0.0
 30
0.0
  9
$PUCSXDIR
 10
1.0
 20
0.0
 30
0.0
  9
$PUCSYDIR
 10
0.0
 20
1.0
 30
0.0
  9
$PUCSORTHOREF
  2

  9
$PUCSORTHOVIEW
 70
     0
  9
$PUCSORGTOP
 10
0.0
 20
0.0
 30
0.0
  9
$PUCSORGBOTTOM
 10
0.0
 20
0.0
 30
0.0
  9
$PUCSORGLEFT
 10
0.0
 20
0.0
 30
0.0
  9
$PUCSORGRIGHT
 10
0.0
 20
0.0
 30
0.0
  9
$PUCSORGFRONT
 10
0.0
 20
0.0
 30
0.0
  9
$PUCSORGBACK
 10
0.0
 20
0.0
 30
0.0
  9
$USERI1
 70
     0
  9
$USERI2
 70
     0
  9
$USERI3
 70
     0
  9
$USERI4
 70
     0
  9
$USERI5
 70
     0
  9
$USERR1
 40
0.0
  9
$USERR2
 40
0.0
  9
$USERR3
 40
0.0
  9
$USERR4
 40
0.0
  9
$USERR5
 40
0.0
  9
$WORLDVIEW
 70
     1
  9
$SHADEDGE
 70
     3
  9
$SHADEDIF
 70
    70
  9
$TILEMODE
 70
     1
  9
$MAXACTVP
 70
    64
  9
$PINSBASE
 10
0.0
 20
0.0
 30
0.0
  9
$PLIMCHECK
 70
     0
  9
$PEXTMIN
 10
1.0000000000E+20
 20
1.0000000000E+20
 30
1.0000000000E+20
  9
$PEXTMAX
 10
-1.0000000000E+20
 20
-1.0000000000E+20
 30
-1.0000000000E+20
  9
$PLIMMIN
 10
0.0
 20
0.0
  9
$PLIMMAX
 10
12.0
 20
9.0
  9
$UNITMODE
 70
     0
  9
$VISRETAIN
 70
     1
  9
$PLINEGEN
 70
     0
  9
$PSLTSCALE
 70
     1
  9
$TREEDEPTH
 70
  3020
  9
$CMLSTYLE
  2
Standard
  9
$CMLJUST
 70
     0
  9
$CMLSCALE
 40
1.0
  9
$PROXYGRAPHICS
 70
     1
  9
$MEASUREMENT
 70
     0
  9
$CELWEIGHT
370
    -1
  9
$ENDCAPS
280
     0
  9
$JOINSTYLE
280
     0
  9
$LWDISPLAY
290
     1
  9
$INSUNITS
 70
     1
  9
$HYPERLINKBASE
  1

  9
$STYLESHEET
  1

  9
$XEDIT
290
     1
  9
$CEPSNTYPE
380
     0
  9
$PSTYLEMODE
290
     1
  9
$FINGERPRINTGUID
  2
{faade536-5238-49c6-9d9d-7426c5e11086}
  9
$VERSIONGUID
  2
{FAEB1C32-E019-11D5-929B-00C0DF256EC4}
  9
$EXTNAMES
290
     1
  9
$PSVPSCALE
 40
0.0
  9
$OLESTARTUP
290
     0
  0
ENDSEC
  0
SECTION
  2
CLASSES
  0
CLASS
  1
ACDBDICTIONARYWDFLT
  2
AcDbDictionaryWithDefault
  3
ObjectDBX Classes
 90
        0
280
     0
281
     0
  0
CLASS
  1
VISUALSTYLE
  2
AcDbVisualStyle
  3
ObjectDBX Classes
 90
     4095
280
     0
281
     0
  0
CLASS
  1
MATERIAL
  2
AcDbMaterial
  3
ObjectDBX Classes
 90
     1153
280
     0
281
     0
  0
CLASS
  1
SCALE
  2
AcDbScale
  3
ObjectDBX Classes
 90
     1153
280
     0
281
     0
  0
CLASS
  1
TABLESTYLE
  2
AcDbTableStyle
  3
ObjectDBX Classes
 90
     4095
280
     0
281
     0
  0
CLASS
  1
MLEADERSTYLE
  2
AcDbMLeaderStyle
  3
ACDB_MLEADERSTYLE_CLASS
 90
     4095
280
     0
281
     0
  0
CLASS
  1
SUN
  2
AcDbSun
  3
SCENEOE
 90
     1153
280
     0
281
     0
  0
CLASS
  1
ACDBPLACEHOLDER
  2
AcDbPlaceHolder
  3
ObjectDBX Classes
 90
        0
280
     0
281
     0
  0
CLASS
  1
LAYOUT
  2
AcDbLayout
  3
ObjectDBX Classes
 90
        0
280
     0
281
     0
  0
ENDSEC
  0
SECTION
  2
TABLES
  0
TABLE
  2
VPORT
  5
8
330
0
100
AcDbSymbolTable
 70
     1
  0
VPORT
  5
29
330
8
100
AcDbSymbolTableRecord
100
AcDbViewportTableRecord
  2
*Active
 70
     0
 10
0.0
 20
0.0
 11
1.0
 21
1.0
 12
0.0
 22
0.0
 13
0.0
 23
0.0
 14
0.5
 24
0.5
 15
0.5
 25
0.5
 16
0.0
 26
0.0
 36
1.0
 17
0.0
 27
0.0
 37
0.0
 40
19.3902
 41
0.3682272488
 42
50.0
 43
0.0
 44
0.0
 50
0.0
 51
0.0
 71
     0
 72
   100
 73
     1
 74
     3
 75
     0
 76
     0
 77
     0
 78
     0
281
     0
 65
     1
110
0.0
120
0.0
130
0.0
111
1.0
121
0.0
131
0.0
112
0.0
122
1.0
132
0.0
 79
     0
146
0.0
  0
ENDTAB
  0
TABLE
  2
LTYPE
  5
5
330
0
100
AcDbSymbolTable
 70
     6
  0
LTYPE
  5
14
330
5
100
AcDbSymbolTableRecord
100
AcDbLinetypeTableRecord
  2
ByBlock
 70
     0
  3

 72
    65
 73
     0
 40
0.0
  0
LTYPE
  5
15
330
5
100
AcDbSymbolTableRecord
100
AcDbLinetypeTableRecord
  2
ByLayer
 70
     0
  3

 72
    65
 73
     0
 40
0.0
  0
LTYPE
  5
16
330
5
100
AcDbSymbolTableRecord
100
AcDbLinetypeTableRecord
  2
Continuous
 70
     0
  3
Solid line
 72
    65
 73
     0
 40
0.0
  0
LTYPE
  5
6E
330
5
100
AcDbSymbolTableRecord
100
AcDbLinetypeTableRecord
  2
HIDDEN
 70
     0
  3
Hidden __ __ __ __ __ __ __ __ __ __ __ __ __ __
 72
    65
 73
     2
 40
0.075
 49
0.05
 74
     0
 49
-0.025
 74
     0
  0
LTYPE
  5
6F
330
5
100
AcDbSymbolTableRecord
100
AcDbLinetypeTableRecord
  2
PHANTOM
 70
     0
  3
Phantom ______  __  __  ______  __  __  ______
 72
    65
 73
     6
 40
0.5
 49
0.25
 74
     0
 49
-0.05
 74
     0
 49
0.05
 74
     0
 49
-0.05
 74
     0
 49
0.05
 74
     0
 49
-0.05
 74
     0
  0
LTYPE
  5
70
330
5
100
AcDbSymbolTableRecord
100
AcDbLinetypeTableRecord
  2
CENTER
 70
     0
  3
Center ____ _ ____ _ ____ _ ____ _ ____ _ ____
 72
    65
 73
     4
 40
0.4
 49
0.25
 74
     0
 49
-0.05
 74
     0
 49
0.05
 74
     0
 49
-0.05
 74
     0
  0
LTYPE
  5
71
330
5
100
AcDbSymbolTableRecord
100
AcDbLinetypeTableRecord
  2
CENTERX2
 70
     0
  3
Center (2x) ________  __  ________  __  _____
 72
    65
 73
     4
 40
0.8
 49
0.5
 74
     0
 49
-0.1
 74
     0
 49
0.1
 74
     0
 49
-0.1
 74
     0
  0
LTYPE
  5
72
330
5
100
AcDbSymbolTableRecord
100
AcDbLinetypeTableRecord
  2
DOT2
 70
     0
  3
Dot (.5x) ........................................
 72
    65
 73
     2
 40
0.025
 49
0.0
 74
     0
 49
-0.025
 74
     0
  0
ENDTAB
  0
TABLE
  2
LAYER
  5
2
330
0
100
AcDbSymbolTable
 70
     1
  0
LAYER
  5
10
330
2
100
AcDbSymbolTableRecord
100
AcDbLayerTableRecord
  2
0
 70
     0
 62
     7
  6
Continuous
370
    -3
390
F
  0
ENDTAB
  0
TABLE
  2
STYLE
  5
3
330
0
100
AcDbSymbolTable
 70
     2
  0
STYLE
  5
11
330
3
100
AcDbSymbolTableRecord
100
AcDbTextStyleTableRecord
  2
Standard
 70
     0
 40
0.0
 41
1.0
 50
0.0
 71
     0
 42
0.125
  3
txt
  4

  0
STYLE
  5
C3
330
3
100
AcDbSymbolTableRecord
100
AcDbTextStyleTableRecord
  2
SLDTEXTSTYLE0
 70
     0
 40
0.0
 41
0.7
 50
0.0
 71
     0
 42
0.125
  3
TXT
  4

  0
ENDTAB
  0
TABLE
  2
VIEW
  5
6
330
0
100
AcDbSymbolTable
 70
     0
  0
ENDTAB
  0
TABLE
  2
UCS
  5
7
330
0
100
AcDbSymbolTable
 70
     0
  0
ENDTAB
  0
TABLE
  2
APPID
  5
9
330
0
100
AcDbSymbolTable
 70
     1
  0
APPID
  5
12
330
9
100
AcDbSymbolTableRecord
100
AcDbRegAppTableRecord
  2
ACAD
 70
     0
  0
ENDTAB
  0
TABLE
  2
DIMSTYLE
  5
A
330
0
100
AcDbSymbolTable
 70
     1
100
AcDbDimStyleTable
  0
DIMSTYLE
105
27
330
A
100
AcDbSymbolTableRecord
100
AcDbDimStyleTableRecord
  2
Standard
 70
     0
178
     0
340
11
  0
ENDTAB
  0
TABLE
  2
BLOCK_RECORD
  5
1
330
0
100
AcDbSymbolTable
 70
     1
  0
BLOCK_RECORD
  5
1F
330
1
100
AcDbSymbolTableRecord
100
AcDbBlockTableRecord
  2
*Model_Space
340
22
  0
BLOCK_RECORD
  5
1B
330
1
100
AcDbSymbolTableRecord
100
AcDbBlockTableRecord
  2
*Paper_Space
340
1E
  0
BLOCK_RECORD
  5
23
330
1
100
AcDbSymbolTableRecord
100
AcDbBlockTableRecord
  2
*Paper_Space0
340
26
  0
ENDTAB
  0
ENDSEC
  0
SECTION
  2
BLOCKS
  0
BLOCK
  5
20
330
1F
100
AcDbEntity
  8
0
100
AcDbBlockBegin
  2
*Model_Space
 70
     0
 10
0.0
 20
0.0
 30
0.0
  3
*Model_Space
  1

  0
ENDBLK
  5
21
330
1F
100
AcDbEntity
  8
0
100
AcDbBlockEnd
  0
BLOCK
  5
1C
330
1B
100
AcDbEntity
 67
     1
  8
0
100
AcDbBlockBegin
  2
*Paper_Space
 70
     0
 10
0.0
 20
0.0
 30
0.0
  3
*Paper_Space
  1

  0
ENDBLK
  5
1D
330
1B
100
AcDbEntity
 67
     1
  8
0
100
AcDbBlockEnd
  0
BLOCK
  5
24
330
23
100
AcDbEntity
  8
0
100
AcDbBlockBegin
  2
*Paper_Space0
 70
     0
 10
0.0
 20
0.0
 30
0.0
  3
*Paper_Space0
  1

  0
ENDBLK
  5
25
330
23
100
AcDbEntity
  8
0
100
AcDbBlockEnd
  0
ENDSEC
  0
SECTION
  2
ENTITIES
  0
SPLINE
  5
7B
330
1F
100
AcDbEntity
  8
0
  6
Continuous
 62
     7
370
    25
100
AcDbSpline
210
0.0
220
0.0
230
1.0
 70
    11
 71
     3
 72
    50
 73
    46
 74
     0
 42
0.00000001
 43
0.00000001
 40
0.0
 40
0.0
 40
0.0
 40
0.0
 40
0.0625000000000103
 40
0.0625000000000103
 40
0.0937500000000119
 40
0.0937500000000119
 40
0.1250000000000134
 40
0.1250000000000134
 40
0.1875000000000113
 40
0.1875000000000113
 40
0.2500000000000092
 40
0.2500000000000092
 40
0.2812500000000079
 40
0.2812500000000079
 40
0.3125000000000067
 40
0.3125000000000067
 40
0.3750000000000102
 40
0.3750000000000102
 40
0.4375000000000137
 40
0.4375000000000137
 40
0.4687500000000159
 40
0.4687500000000159
 40
0.5000000000000181
 40
0.5000000000000181
 40
0.5625000000000226
 40
0.5625000000000226
 40
0.6250000000000271
 40
0.6250000000000271
 40
0.6562500000000265
 40
0.6562500000000265
 40
0.6875000000000261
 40
0.6875000000000261
 40
0.7187500000000255
 40
0.7187500000000255
 40
0.7500000000000251
 40
0.7500000000000251
 40
0.8125000000000241
 40
0.8125000000000241
 40
0.8437500000000205
 40
0.8437500000000205
 40
0.8750000000000171
 40
0.8750000000000171
 40
0.9375000000000085
 40
0.9375000000000085
 40
1.0
 40
1.0
 40
1.0
 40
1.0
 10
3.000689396558751
 20
-9.254999999999999
 30
0.0
 10
3.000689396558752
 20
-9.247963974161422
 30
0.0
 10
3.001403154851527
 20
-9.241059806877661
 30
0.0
 10
3.003463174794952
 20
-9.231386812684615
 30
0.0
 10
3.004302947911222
 20
-9.228328304074957
 30
0.0
 10
3.006283774045273
 20
-9.222539941148794
 30
0.0
 10
3.007435288834594
 20
-9.219799381268091
 30
0.0
 10
3.011200890329475
 20
-9.212431078688219
 30
0.0
 10
3.014226845379502
 20
-9.208463780014725
 30
0.0
 10
3.020720032070745
 20
-9.20315229875383
 30
0.0
 10
3.024254271826947
 20
-9.201753764579726
 30
0.0
 10
3.029480693890336
 20
-9.201748129394339
 30
0.0
 10
3.03124557875269
 20
-9.202093618250037
 30
0.0
 10
3.034654075489991
 20
-9.203451773443007
 30
0.0
 10
3.03630640787386
 20
-9.204456713100228
 30
0.0
 10
3.041108982995564
 20
-9.208454590456185
 30
0.0
 10
3.044008490656392
 20
-9.212359413440657
 30
0.0
 10
3.048905138265124
 20
-9.222294914670057
 30
0.0
 10
3.050821112589329
 20
-9.228156563544996
 30
0.0
 10
3.052785011703266
 20
-9.237835982423938
 30
0.0
 10
3.053277514235476
 20
-9.241155239560719
 30
0.0
 10
3.053943694850006
 20
-9.247977049786453
 30
0.0
 10
3.054114341360524
 20
-9.251506063199248
 30
0.0
 10
3.054116142034409
 20
-9.261931386740368
 30
0.0
 10
3.05343659996686
 20
-9.2689361200169
 30
0.0
 10
3.050842116658829
 20
-9.28175623231619
 30
0.0
 10
3.048899146931979
 20
-9.287702477762988
 30
0.0
 10
3.045276843679913
 20
-9.295074302621055
 30
0.0
 10
3.043927584243591
 20
-9.297324460747532
 30
0.0
 10
3.041065054077118
 20
-9.301197888614876
 30
0.0
 10
3.03955076425406
 20
-9.302835449011422
 30
0.0
 10
3.036353566485976
 20
-9.305510924829386
 30
0.0
 10
3.034667877098185
 20
-9.306540058043371
 30
0.0
 10
3.031270678166316
 20
-9.307899019311593
 30
0.0
 10
3.029541360830925
 20
-9.308246427944747
 30
0.0
 10
3.024257188684994
 20
-9.308257062698793
 30
0.0
 10
3.020770122484652
 20
-9.306881573791793
 30
0.0
 10
3.015860367818206
 20
-9.302875967845761
 30
0.0
 10
3.01430589110018
 20
-9.301242126761515
 30
0.0
 10
3.011360741049093
 20
-9.29738651101179
 30
0.0
 10
3.009961110350169
 20
-9.295139526074703
 30
0.0
 10
3.006190141892215
 20
-9.287771070574461
 30
0.0
 10
3.004153080693772
 20
-9.281837075114197
 30
0.0
 10
3.001418012130718
 20
-9.269025476079388
 30
0.0
 10
3.000689396558751
 20
-9.262036025838576
 30
0.0
 10
3.000689396558751
 20
-9.255
 30
0.0
  0
SPLINE
  5
7C
330
1F
100
AcDbEntity
  8
0
  6
Continuous
 62
     7
370
    25
100
AcDbSpline
210
0.0
220
0.0
230
1.0
 70
     8
 71
     3
 72
    26
 73
    22
 74
     0
 42
0.00000001
 43
0.00000001
 40
0.0
 40
0.0
 40
0.0
 40
0.0
 40
0.0625000000000001
 40
0.0625000000000001
 40
0.1250000000000001
 40
0.1250000000000001
 40
0.2500000000000002
 40
0.2500000000000002
 40
0.3750000000000002
 40
0.3750000000000002
 40
0.5000000000000001
 40
0.5000000000000001
 40
0.6250000000000001
 40
0.6250000000000001
 40
0.7500000000000001
 40
0.7500000000000001
 40
0.8750000000000001
 40
0.8750000000000001
 40
0.9375
 40
0.9375
 40
1.0
 40
1.0
 40
1.0
 40
1.0
 10
3.49948720396307
 20
-9.255
 30
0.0
 10
3.49948720396307
 20
-9.250087950439957
 30
0.0
 10
3.499498806160783
 20
-9.245289506360438
 30
0.0
 10
3.499542392507482
 20
-9.235913923387855
 30
0.0
 10
3.499574414059904
 20
-9.231393745347036
 30
0.0
 10
3.499687213166357
 20
-9.218983500202745
 30
0.0
 10
3.499786445738606
 20
-9.212060230242555
 30
0.0
 10
3.49993948100974
 20
-9.2031863728007
 30
0.0
 10
3.499991275030803
 20
-9.201176675986774
 30
0.0
 10
3.500006566481161
 20
-9.202611145670156
 30
0.0
 10
3.499969978350582
 20
-9.206080312425375
 30
0.0
 10
3.499860387481893
 20
-9.217366025010184
 30
0.0
 10
3.499789492112557
 20
-9.225257227481523
 30
0.0
 10
3.499697353650564
 20
-9.243237945136858
 30
0.0
 10
3.499678782343966
 20
-9.253202755838226
 30
0.0
 10
3.49971629523283
 20
-9.27243007281682
 30
0.0
 10
3.499772133932756
 20
-9.281703413703514
 30
0.0
 10
3.499863238576387
 20
-9.292861107116567
 30
0.0
 10
3.499894673587007
 20
-9.296180505554869
 30
0.0
 10
3.499948460840407
 20
-9.301683673792388
 30
0.0
 10
3.499970588893916
 20
-9.303855538811124
 30
0.0
 10
3.499984454392868
 20
-9.30543222821296
 30
0.0
  0
SPLINE
  5
7D
330
1F
100
AcDbEntity
  8
0
  6
Continuous
 62
     7
370
    25
100
AcDbSpline
210
0.0
220
0.0
230
1.0
 70
     8
 71
     3
 72
    13
 73
     9
 74
     0
 42
0.00000001
 43
0.00000001
 40
0.0
 40
0.0
 40
0.0
 40
0.0
 40
0.0812563338211353
 40
0.2798174001357718
 40
0.4783840305864319
 40
0.6769733031245548
 40
0.8755684764396715
 40
1.0
 40
1.0
 40
1.0
 40
1.0
 10
3.499989233186064
 20
-9.30709522753377
 30
0.0
 10
3.49999192745065
 20
-9.307583561724847
 30
0.0
 10
3.500001205522605
 20
-9.309265207909451
 30
0.0
 10
3.499920299818705
 20
-9.30579006126945
 30
0.0
 10
3.499769868016696
 20
-9.297078087843364
 30
0.0
 10
3.499603826363479
 20
-9.283269564632253
 30
0.0
 10
3.499501784333721
 20
-9.268449353839289
 30
0.0
 10
3.499491258548843
 20
-9.258740066698284
 30
0.0
 10
3.49948720396307
 20
-9.255
 30
0.0
  0
SPLINE
  5
7E
330
1F
100
AcDbEntity
  8
0
  6
Continuous
 62
     7
370
    25
100
AcDbSpline
210
0.0
220
0.0
230
1.0
 70
     8
 71
     3
 72
    12
 73
     8
 74
     0
 42
0.00000001
 43
0.00000001
 40
0.0
 40
0.0
 40
0.0
 40
0.0
 40
0.1462555804236149
 40
0.4167229450387585
 40
0.687169964595505
 40
0.9576070725455883
 40
0.9999999999999999
 40
0.9999999999999999
 40
0.9999999999999999
 40
0.9999999999999999
 10
1.718812580950281
 20
-9.224268310083442
 30
0.0
 10
1.717077299026101
 20
-9.226823934780217
 30
0.0
 10
1.712132996785996
 20
-9.234105622405192
 30
0.0
 10
1.708936514373514
 20
-9.249458829822586
 30
0.0
 10
1.710075954662279
 20
-9.26721852365974
 30
0.0
 10
1.713767685296323
 20
-9.280082529492732
 30
0.0
 10
1.717902864798305
 20
-9.285097464909134
 30
0.0
 10
1.718463240544873
 20
-9.285777060118146
 30
0.0
  0
SPLINE
  5
7F
330
1F
100
AcDbEntity
  8
0
  6
Continuous
 62
     7
370
    25
100
AcDbSpline
210
0.0
220
0.0
230
1.0
 70
     8
 71
     3
 72
    16
 73
    12
 74
     0
 42
0.00000001
 43
0.00000001
 40
0.0
 40
0.0
 40
0.0
 40
0.0
 40
0.1133973863178021
 40
0.2301897573730672
 40
0.3469930072025264
 40
0.4637984226356338
 40
0.5805950517480643
 40
0.6973874003834933
 40
0.8141872664397661
 40
0.9309935925626133
 40
1.0
 40
1.0
 40
1.0
 40
1.0
 10
-3.499998813570715
 20
-9.202253628456127
 30
0.0
 10
-3.49999075001843
 20
-9.203499321314549
 30
0.0
 10
-3.499974381500566
 20
-9.20602800161444
 30
0.0
 10
-3.499861041304083
 20
-9.21690620548729
 30
0.0
 10
-3.499746460080505
 20
-9.231726554129093
 30
0.0
 10
-3.499680113594663
 20
-9.249298971150118
 30
0.0
 10
-3.499696063759605
 20
-9.267461921575174
 30
0.0
 10
-3.499787239737782
 20
-9.284298623660318
 30
0.0
 10
-3.499904787967937
 20
-9.297567893934856
 30
0.0
 10
-3.499993016299531
 20
-9.305730088634583
 30
0.0
 10
-3.499990257673739
 20
-9.306725540505095
 30
0.0
 10
-3.499989233186064
 20
-9.307095227533773
 30
0.0
  0
SPLINE
  5
80
330
1F
100
AcDbEntity
  8
0
  6
Continuous
 62
     7
370
    25
100
AcDbSpline
210
0.0
220
0.0
230
1.0
 70
    11
 71
     3
 72
    50
 73
    46
 74
     0
 42
0.00000001
 43
0.00000001
 40
0.0
 40
0.0
 40
0.0
 40
0.0
 40
0.0625000000000153
 40
0.0625000000000153
 40
0.0937500000000185
 40
0.0937500000000185
 40
0.1250000000000216
 40
0.1250000000000216
 40
0.1875000000000195
 40
0.1875000000000195
 40
0.2500000000000173
 40
0.2500000000000173
 40
0.2812500000000162
 40
0.2812500000000162
 40
0.3125000000000151
 40
0.3125000000000151
 40
0.375000000000019
 40
0.375000000000019
 40
0.4375000000000228
 40
0.4375000000000228
 40
0.4687500000000253
 40
0.4687500000000253
 40
0.5000000000000276
 40
0.5000000000000276
 40
0.5625000000000324
 40
0.5625000000000324
 40
0.6250000000000372
 40
0.6250000000000372
 40
0.6562500000000362
 40
0.6562500000000362
 40
0.6875000000000351
 40
0.6875000000000351
 40
0.718750000000034
 40
0.718750000000034
 40
0.7500000000000329
 40
0.7500000000000329
 40
0.8125000000000282
 40
0.8125000000000282
 40
0.843750000000024
 40
0.843750000000024
 40
0.8750000000000198
 40
0.8750000000000198
 40
0.93750000000001
 40
0.93750000000001
 40
1.0
 40
1.0
 40
1.0
 40
1.0
 10
-3.060600241142421
 20
-9.254999999999999
 30
0.0
 10
-3.060600241142421
 20
-9.247963974161422
 30
0.0
 10
-3.059928849450224
 20
-9.241059806877663
 30
0.0
 10
-3.057979658259018
 20
-9.231386812684615
 30
0.0
 10
-3.057183836399919
 20
-9.228328304074962
 30
0.0
 10
-3.055300449413817
 20
-9.222539941148794
 30
0.0
 10
-3.054202815011276
 20
-9.219799381268093
 30
0.0
 10
-3.050598828681556
 20
-9.21243107868822
 30
0.0
 10
-3.047684156700609
 20
-9.208463780014728
 30
0.0
 10
-3.041362517316962
 20
-9.203152298753832
 30
0.0
 10
-3.037889488094837
 20
-9.20175376457973
 30
0.0
 10
-3.032697556229136
 20
-9.201748129394336
 30
0.0
 10
-3.030935109191096
 20
-9.202093618250036
 30
0.0
 10
-3.027514021928461
 20
-9.203451773443009
 30
0.0
 10
-3.025846920073345
 20
-9.204456713100223
 30
0.0
 10
-3.020978861252702
 20
-9.208454590456181
 30
0.0
 10
-3.018008182543919
 20
-9.212359413440652
 30
0.0
 10
-3.012959083042225
 20
-9.222294914670059
 30
0.0
 10
-3.010965426058577
 20
-9.228156563544994
 30
0.0
 10
-3.008917074265627
 20
-9.23783598242394
 30
0.0
 10
-3.00840212022166
 20
-9.241155239560722
 30
0.0
 10
-3.007705206255497
 20
-9.247977049786453
 30
0.0
 10
-3.007526418055249
 20
-9.251506063199253
 30
0.0
 10
-3.007524532382717
 20
-9.261931386740368
 30
0.0
 10
-3.008237441373062
 20
-9.2689361200169
 30
0.0
 10
-3.0109435432593
 20
-9.281756232316193
 30
0.0
 10
-3.012965122596519
 20
-9.287702477762991
 30
0.0
 10
-3.016700408687043
 20
-9.295074302621055
 30
0.0
 10
-3.01808709393248
 20
-9.29732446074754
 30
0.0
 10
-3.021015379477524
 20
-9.30119788861488
 30
0.0
 10
-3.022558179442862
 20
-9.302835449011424
 30
0.0
 10
-3.025799261429221
 20
-9.305510924829392
 30
0.0
 10
-3.027500103197891
 20
-9.30654005804337
 30
0.0
 10
-3.030909982451682
 20
-9.30789901931159
 30
0.0
 10
-3.032637144969623
 20
-9.308246427944747
 30
0.0
 10
-3.037886874786672
 20
-9.308257062698791
 30
0.0
 10
-3.041313603333621
 20
-9.306881573791792
 30
0.0
 10
-3.0460938639292
 20
-9.302875967845761
 30
0.0
 10
-3.047599723392196
 20
-9.301242126761517
 30
0.0
 10
-3.050441240256902
 20
-9.297386511011789
 30
0.0
 10
-3.051785366808125
 20
-9.295139526074703
 30
0.0
 10
-3.055394585124493
 20
-9.287771070574458
 30
0.0
 10
-3.05732684654506
 20
-9.281837075114192
 30
0.0
 10
-3.05991481398614
 20
-9.269025476079387
 30
0.0
 10
-3.060600241142421
 20
-9.262036025838574
 30
0.0
 10
-3.060600241142421
 20
-9.254999999999999
 30
0.0
  0
SPLINE
  5
81
330
1F
100
AcDbEntity
  8
0
  6
Continuous
 62
     7
370
    25
100
AcDbSpline
210
0.0
220
0.0
230
1.0
 70
    11
 71
     3
 72
    50
 73
    46
 74
     0
 42
0.00000001
 43
0.00000001
 40
0.0
 40
0.0
 40
0.0
 40
0.0
 40
0.0625000000000146
 40
0.0625000000000146
 40
0.0937500000000183
 40
0.0937500000000183
 40
0.125000000000022
 40
0.125000000000022
 40
0.1875000000000227
 40
0.1875000000000227
 40
0.2500000000000234
 40
0.2500000000000234
 40
0.2812500000000225
 40
0.2812500000000225
 40
0.3125000000000216
 40
0.3125000000000216
 40
0.3750000000000258
 40
0.3750000000000258
 40
0.43750000000003
 40
0.43750000000003
 40
0.4687500000000317
 40
0.4687500000000317
 40
0.5000000000000333
 40
0.5000000000000333
 40
0.5625000000000366
 40
0.5625000000000366
 40
0.62500000000004
 40
0.62500000000004
 40
0.6562500000000382
 40
0.6562500000000382
 40
0.6875000000000364
 40
0.6875000000000364
 40
0.7187500000000346
 40
0.7187500000000346
 40
0.7500000000000328
 40
0.7500000000000328
 40
0.8125000000000291
 40
0.8125000000000291
 40
0.8437500000000242
 40
0.8437500000000242
 40
0.8750000000000193
 40
0.8750000000000193
 40
0.9375000000000097
 40
0.9375000000000097
 40
1.0
 40
1.0
 40
1.0
 40
1.0
 10
-1.801627915353156
 20
-9.255000000000003
 30
0.0
 10
-1.801627915353157
 20
-9.247963974161426
 30
0.0
 10
-1.800440570462243
 20
-9.241059806877672
 30
0.0
 10
-1.797000485275481
 20
-9.231386812684617
 30
0.0
 10
-1.795596706111589
 20
-9.228328304074962
 30
0.0
 10
-1.792278327643049
 20
-9.222539941148794
 30
0.0
 10
-1.7903460612339
 20
-9.219799381268093
 30
0.0
 10
-1.78401046524193
 20
-9.21243107868822
 30
0.0
 10
-1.778897855973643
 20
-9.208463780014727
 30
0.0
 10
-1.76784941248982
 20
-9.20315229875383
 30
0.0
 10
-1.761798609502598
 20
-9.201753764579724
 30
0.0
 10
-1.752786006796852
 20
-9.201748129394339
 30
0.0
 10
-1.749731951502792
 20
-9.202093618250032
 30
0.0
 10
-1.743813723689973
 20
-9.203451773443009
 30
0.0
 10
-1.74093474573372
 20
-9.20445671310023
 30
0.0
 10
-1.732540827553342
 20
-9.208454590456183
 30
0.0
 10
-1.727436551720461
 20
-9.212359413440648
 30
0.0
 10
-1.718779272992496
 20
-9.222294914670057
 30
0.0
 10
-1.715371007908295
 20
-9.228156563544987
 30
0.0
 10
-1.711871917308092
 20
-9.237835982423938
 30
0.0
 10
-1.710992953126736
 20
-9.24115523956072
 30
0.0
 10
-1.709803606637675
 20
-9.247977049786451
 30
0.0
 10
-1.709498636997809
 20
-9.25150606319925
 30
0.0
 10
-1.709495419991169
 20
-9.26193138674037
 30
0.0
 10
-1.710710950181764
 20
-9.2689361200169
 30
0.0
 10
-1.715333613123011
 20
-9.281756232316194
 30
0.0
 10
-1.718789705966896
 20
-9.287702477762986
 30
0.0
 10
-1.725194180584291
 20
-9.295074302621055
 30
0.0
 10
-1.727574382082527
 20
-9.29732446074753
 30
0.0
 10
-1.732608357540095
 20
-9.30119788861488
 30
0.0
 10
-1.735264105127653
 20
-9.302835449011424
 30
0.0
 10
-1.74085248723429
 20
-9.305510924829388
 30
0.0
 10
-1.743789683362084
 20
-9.30654005804337
 30
0.0
 10
-1.749688446490049
 20
-9.307899019311588
 30
0.0
 10
-1.752681223808489
 20
-9.30824642794475
 30
0.0
 10
-1.761793907865476
 20
-9.308257062698791
 30
0.0
 10
-1.767764011772968
 20
-9.306881573791788
 30
0.0
 10
-1.776118429434604
 20
-9.302875967845765
 30
0.0
 10
-1.778754723718849
 20
-9.301242126761517
 30
0.0
 10
-1.783736207947138
 20
-9.297386511011787
 30
0.0
 10
-1.786096348760276
 20
-9.2951395260747
 30
0.0
 10
-1.792441084747619
 20
-9.287771070574463
 30
0.0
 10
-1.795848365881515
 20
-9.281837075114195
 30
0.0
 10
-1.800415785850169
 20
-9.269025476079388
 30
0.0
 10
-1.801627915353156
 20
-9.262036025838574
 30
0.0
 10
-1.801627915353156
 20
-9.255
 30
0.0
  0
SPLINE
  5
82
330
1F
100
AcDbEntity
  8
0
  6
Continuous
 62
     7
370
    25
100
AcDbSpline
210
0.0
220
0.0
230
1.0
 70
    11
 71
     3
 72
    50
 73
    46
 74
     0
 42
0.00000001
 43
0.00000001
 40
0.0
 40
0.0
 40
0.0
 40
0.0
 40
0.0625000000000166
 40
0.0625000000000166
 40
0.0937500000000204
 40
0.0937500000000204
 40
0.1250000000000241
 40
0.1250000000000241
 40
0.1875000000000232
 40
0.1875000000000232
 40
0.2500000000000223
 40
0.2500000000000223
 40
0.2812500000000208
 40
0.2812500000000208
 40
0.3125000000000193
 40
0.3125000000000193
 40
0.3750000000000222
 40
0.3750000000000222
 40
0.4375000000000251
 40
0.4375000000000251
 40
0.4687500000000271
 40
0.4687500000000271
 40
0.5000000000000291
 40
0.5000000000000291
 40
0.562500000000033
 40
0.562500000000033
 40
0.625000000000037
 40
0.625000000000037
 40
0.6562500000000364
 40
0.6562500000000364
 40
0.6875000000000357
 40
0.6875000000000357
 40
0.7187500000000352
 40
0.7187500000000352
 40
0.7500000000000346
 40
0.7500000000000346
 40
0.8125000000000288
 40
0.8125000000000288
 40
0.843750000000024
 40
0.843750000000024
 40
0.8750000000000192
 40
0.8750000000000192
 40
0.9375000000000095
 40
0.9375000000000095
 40
1.0
 40
1.0
 40
1.0
 40
1.0
 10
1.697859288609879
 20
-9.255000000000003
 30
0.0
 10
1.697859288609879
 20
-9.247963974161426
 30
0.0
 10
1.699071093869043
 20
-9.241059806877665
 30
0.0
 10
1.702575166065732
 20
-9.231386812684615
 30
0.0
 10
1.704004320499782
 20
-9.228328304074955
 30
0.0
 10
1.707378955486618
 20
-9.222539941148794
 30
0.0
 10
1.709342329751581
 20
-9.219799381268096
 30
0.0
 10
1.715771234302661
 20
-9.21243107868822
 30
0.0
 10
1.720948092880837
 20
-9.208463780014728
 30
0.0
 10
1.732095579248881
 20
-9.20315229875383
 30
0.0
 10
1.738181722154427
 20
-9.201753764579724
 30
0.0
 10
1.747214237785093
 20
-9.201748129394337
 30
0.0
 10
1.750269700557677
 20
-9.202093618250034
 30
0.0
 10
1.756180659227307
 20
-9.203451773443009
 30
0.0
 10
1.75905111002536
 20
-9.204456713100228
 30
0.0
 10
1.767407221174527
 20
-9.208454590456185
 30
0.0
 10
1.772470406383711
 20
-9.212359413440653
 30
0.0
 10
1.781039666970236
 20
-9.222294914670057
 30
0.0
 10
1.784403081950097
 20
-9.228156563544992
 30
0.0
 10
1.787853413773336
 20
-9.237835982423935
 30
0.0
 10
1.788719415568336
 20
-9.241155239560717
 30
0.0
 10
1.78989101814856
 20
-9.24797704978645
 30
0.0
 10
1.790191287181669
 20
-9.25150606319925
 30
0.0
 10
1.790194455114317
 20
-9.261931386740365
 30
0.0
 10
1.788998189325582
 20
-9.2689361200169
 30
0.0
 10
1.784439969400509
 20
-9.28175623231619
 30
0.0
 10
1.781029261836332
 20
-9.28770247776299
 30
0.0
 10
1.774690017891132
 20
-9.295074302621057
 30
0.0
 10
1.772331424193865
 20
-9.29732446074753
 30
0.0
 10
1.767335412621815
 20
-9.301197888614876
 30
0.0
 10
1.764696125372576
 20
-9.302835449011424
 30
0.0
 10
1.759133079831174
 20
-9.305510924829386
 30
0.0
 10
1.756204631934561
 20
-9.306540058043371
 30
0.0
 10
1.750313189793869
 20
-9.307899019311591
 30
0.0
 10
1.747319168390996
 20
-9.308246427944747
 30
0.0
 10
1.738186599046156
 20
-9.308257062698791
 30
0.0
 10
1.732181659178237
 20
-9.306881573791795
 30
0.0
 10
1.723752478079928
 20
-9.302875967845761
 30
0.0
 10
1.721088114610403
 20
-9.301242126761517
 30
0.0
 10
1.716046797734058
 20
-9.297386511011789
 30
0.0
 10
1.713654611586304
 20
-9.295139526074703
 30
0.0
 10
1.707216489111176
 20
-9.287771070574465
 30
0.0
 10
1.703748701797313
 20
-9.281837075114193
 30
0.0
 10
1.699096352956289
 20
-9.269025476079387
 30
0.0
 10
1.69785928860988
 20
-9.262036025838576
 30
0.0
 10
1.697859288609879
 20
-9.255000000000003
 30
0.0
  0
SPLINE
  5
83
330
1F
100
AcDbEntity
  8
0
  6
Continuous
 62
     7
370
    25
100
AcDbSpline
210
0.0
220
0.0
230
1.0
 70
    11
 71
     3
 72
    50
 73
    46
 74
     0
 42
0.00000001
 43
0.00000001
 40
0.0
 40
0.0
 40
0.0
 40
0.0
 40
0.0625000000000153
 40
0.0625000000000153
 40
0.0937500000000184
 40
0.0937500000000184
 40
0.1250000000000215
 40
0.1250000000000215
 40
0.1875000000000208
 40
0.1875000000000208
 40
0.25000000000002
 40
0.25000000000002
 40
0.2812500000000197
 40
0.2812500000000197
 40
0.3125000000000193
 40
0.3125000000000193
 40
0.3750000000000224
 40
0.3750000000000224
 40
0.4375000000000254
 40
0.4375000000000254
 40
0.4687500000000269
 40
0.4687500000000269
 40
0.5000000000000284
 40
0.5000000000000284
 40
0.5625000000000314
 40
0.5625000000000314
 40
0.6250000000000345
 40
0.6250000000000345
 40
0.6562500000000326
 40
0.6562500000000326
 40
0.6875000000000306
 40
0.6875000000000306
 40
0.7187500000000288
 40
0.7187500000000288
 40
0.7500000000000269
 40
0.7500000000000269
 40
0.8125000000000229
 40
0.8125000000000229
 40
0.8437500000000191
 40
0.8437500000000191
 40
0.8750000000000153
 40
0.8750000000000153
 40
0.9375000000000077
 40
0.9375000000000077
 40
1.0
 40
1.0
 40
1.0
 40
1.0
 10
-0.059910844583693
 20
-9.255000000000003
 30
0.0
 10
-0.059910844583693
 20
-9.247963974161426
 30
0.0
 10
-0.0585256945987202
 20
-9.241059806877669
 30
0.0
 10
-0.0545164834640891
 20
-9.231386812684615
 30
0.0
 10
-0.0528808884887209
 20
-9.228328304074955
 30
0.0
 10
-0.0490166753685693
 20
-9.222539941148796
 30
0.0
 10
-0.0467675261767055
 20
-9.219799381268095
 30
0.0
 10
-0.0393979383521041
 20
-9.21243107868822
 30
0.0
 10
-0.0334573113211309
 20
-9.208463780014727
 30
0.0
 10
-0.0206424852462411
 20
-9.203152298753833
 30
0.0
 10
-0.0136352162679118
 20
-9.201753764579722
 30
0.0
 10
-0.0032168623388259
 20
-9.20174812939434
 30
0.0
 10
0.0003104695615692
 20
-9.202093618250036
 30
0.0
 10
0.0071400535615054
 20
-9.203451773443012
 30
0.0
 10
0.0104594878004913
 20
-9.204456713100226
 30
0.0
 10
0.0201301217428378
 20
-9.20845459045618
 30
0.0
 10
0.0260003081124489
 20
-9.212359413440653
 30
0.0
 10
0.0359460552228746
 20
-9.222294914670053
 30
0.0
 10
0.0398556865307277
 20
-9.228156563544998
 30
0.0
 10
0.0438679374376152
 20
-9.23783598242394
 30
0.0
 10
0.0448753940137903
 20
-9.241155239560717
 30
0.0
 10
0.0462384885944856
 20
-9.247977049786453
 30
0.0
 10
0.0465879233052523
 20
-9.251506063199251
 30
0.0
 10
0.0465916096516684
 20
-9.261931386740368
 30
0.0
 10
0.0451991585937714
 20
-9.268936120016901
 30
0.0
 10
0.039898573399503
 20
-9.28175623231619
 30
0.0
 10
0.0359340243354367
 20
-9.287702477762991
 30
0.0
 10
0.0285764349928454
 20
-9.295074302621055
 30
0.0
 10
0.0258404903110879
 20
-9.29732446074753
 30
0.0
 10
0.0200496745995697
 20
-9.30119788861488
 30
0.0
 10
0.0169925848111765
 20
-9.302835449011418
 30
0.0
 10
0.0105543050567325
 20
-9.305510924829386
 30
0.0
 10
0.0071677739002706
 20
-9.306540058043366
 30
0.0
 10
0.0003606957146099
 20
-9.307899019311591
 30
0.0
 10
-0.0030957841387235
 20
-9.30824642794475
 30
0.0
 10
-0.0136296861017021
 20
-9.308257062698793
 30
0.0
 10
-0.0205434808489935
 20
-9.306881573791795
 30
0.0
 10
-0.0302334961110177
 20
-9.302875967845763
 30
0.0
 10
-0.0332938322920381
 20
-9.301242126761517
 30
0.0
 10
-0.0390804992078332
 20
-9.29738651101179
 30
0.0
 10
-0.0418242564579815
 20
-9.295139526074703
 30
0.0
 10
-0.0492044432323016
 20
-9.287771070574463
 30
0.0
 10
-0.0531737658513128
 20
-9.281837075114192
 30
0.0
 10
-0.0584968018554458
 20
-9.269025476079388
 30
0.0
 10
-0.059910844583693
 20
-9.262036025838578
 30
0.0
 10
-0.059910844583693
 20
-9.255000000000003
 30
0.0
  0
SPLINE
  5
8E
330
1F
100
AcDbEntity
  8
0
  6
Continuous
 62
     7
370
    25
100
AcDbSpline
210
0.0
220
0.0
230
1.0
 70
     8
 71
     3
 72
    30
 73
    26
 74
     0
 42
0.00000001
 43
0.00000001
 40
0.0
 40
0.0
 40
0.0
 40
0.0
 40
0.0294715572464744
 40
0.0589431211181264
 40
0.0884146982402327
 40
0.1178862952380654
 40
0.1473579187368704
 40
0.1768295753618902
 40
0.2063012717383393
 40
0.2357730144914016
 40
0.2652448102462338
 40
0.2947166656279578
 40
0.3241885872616579
 40
0.3536605817723608
 40
0.3831326557850518
 40
0.4126048159246756
 40
0.4420770688161004
 40
0.471549421084133
 40
0.5010218793535209
 40
0.5839415316829188
 40
0.7498523800434765
 40
0.8267537166970861
 40
0.8940870159070667
 40
0.9518394258013784
 40
0.9999999999999999
 40
0.9999999999999999
 40
0.9999999999999999
 40
0.9999999999999999
 10
0.0
 20
9.307831767426729
 30
0.0
 10
0.0014926589010272
 20
9.3076062221514
 30
0.0
 10
0.00447797703863
 20
9.307155131550042
 30
0.0
 10
0.00886258807155
 20
9.305999431640846
 30
0.0
 10
0.0131385055627658
 20
9.30450269167068
 30
0.0
 10
0.0172704576171156
 20
9.302640978547487
 30
0.0
 10
0.0212297668979481
 20
9.300437052383657
 30
0.0
 10
0.0249875149996243
 20
9.297904340691275
 30
0.0
 10
0.0285166384800889
 20
9.295061809402654
 30
0.0
 10
0.0317916187411281
 20
9.291929815165158
 30
0.0
 10
0.0347888018261933
 20
9.288531032976842
 30
0.0
 10
0.0374865331883539
 20
9.28489000425826
 30
0.0
 10
0.0398653231697167
 20
9.281033037304285
 30
0.0
 10
0.0419079877753226
 20
9.276987994333176
 30
0.0
 10
0.0435997638950462
 20
9.272784103996848
 30
0.0
 10
0.0449284516807192
 20
9.268451717907746
 30
0.0
 10
0.0458843687199061
 20
9.264022206812301
 30
0.0
 10
0.0464609201211737
 20
9.259527304473782
 30
0.0
 10
0.0467687559523001
 20
9.252264078791253
 30
0.0
 10
0.0450815681359905
 20
9.237997903387765
 30
0.0
 10
0.036998161730763
 20
9.222536769809038
 30
0.0
 10
0.025148544876225
 20
9.211811045888322
 30
0.0
 10
0.0161580535532605
 20
9.206584230633505
 30
0.0
 10
0.0077909038737453
 20
9.203474777818233
 30
0.0
 10
0.0024352939482051
 20
9.202576634702176
 30
0.0
 10
0.0000000000000001
 20
9.202168232573273
 30
0.0
  0
SPLINE
  5
8F
330
1F
100
AcDbEntity
  8
0
  6
Continuous
 62
     7
370
    25
100
AcDbSpline
210
0.0
220
0.0
230
1.0
 70
     8
 71
     3
 72
    30
 73
    26
 74
     0
 42
0.00000001
 43
0.00000001
 40
0.0
 40
0.0
 40
0.0
 40
0.0
 40
0.0624999999999998
 40
0.0624999999999998
 40
0.1249999999999996
 40
0.1249999999999996
 40
0.2499999999999939
 40
0.2499999999999939
 40
0.3124999999999969
 40
0.3124999999999969
 40
0.3749999999999999
 40
0.3749999999999999
 40
0.4999999999999895
 40
0.4999999999999895
 40
0.5624999999999933
 40
0.5624999999999933
 40
0.6249999999999972
 40
0.6249999999999972
 40
0.7499999999999885
 40
0.7499999999999885
 40
0.81249999999999
 40
0.81249999999999
 40
0.8749999999999916
 40
0.8749999999999916
 40
1.0
 40
1.0
 40
1.0
 40
1.0
 10
0.0
 20
9.202168232573273
 30
0.0
 10
-0.0037158339470209
 20
9.201699753216525
 30
0.0
 10
-0.0075355106039315
 20
9.201624322394792
 30
0.0
 10
-0.0150344916514685
 20
9.202277992875397
 30
0.0
 10
-0.0187095470120751
 20
9.202994424747695
 30
0.0
 10
-0.0295108712727132
 20
9.206315370696347
 30
0.0
 10
-0.0362073148439369
 20
9.21005818398537
 30
0.0
 10
-0.044716115947308
 20
9.21756127166523
 30
0.0
 10
-0.0472466398969693
 20
9.220323718903993
 30
0.0
 10
-0.0517096961494622
 20
9.226359954181849
 30
0.0
 10
-0.0536474066325092
 20
9.229664541511024
 30
0.0
 10
-0.0582775879716555
 20
9.23991642674705
 30
0.0
 10
-0.0599055426440215
 20
9.247470109760252
 30
0.0
 10
-0.0599134756539608
 20
9.258708562893286
 30
0.0
 10
-0.0595122413154065
 20
9.262512229268571
 30
0.0
 10
-0.0579319543230228
 20
9.269865296202035
 30
0.0
 10
-0.056764420920371
 20
9.273423117915348
 30
0.0
 10
-0.05212051727638
 20
9.283737592113232
 30
0.0
 10
-0.0475689091594937
 20
9.289916367031541
 30
0.0
 10
-0.0390754204926422
 20
9.297416067146164
 30
0.0
 10
-0.0360207726205899
 20
9.299583231457076
 30
0.0
 10
-0.0294718680259382
 20
9.303263102998091
 30
0.0
 10
-0.0259531653488585
 20
9.304773654006471
 30
0.0
 10
-0.0152096065852739
 20
9.308091169349412
 30
0.0
 10
-0.0075366557785111
 20
9.308781962645751
 30
0.0
 10
0.0
 20
9.307831767426729
 30
0.0
  0
SPLINE
  5
90
330
1F
100
AcDbEntity
  8
0
  6
Continuous
 62
     7
370
    25
100
AcDbSpline
210
0.0
220
0.0
230
1.0
 70
     8
 71
     3
 72
    30
 73
    26
 74
     0
 42
0.00000001
 43
0.00000001
 40
0.0
 40
0.0
 40
0.0
 40
0.0
 40
0.0624999999999981
 40
0.0624999999999981
 40
0.1249999999999962
 40
0.1249999999999962
 40
0.2499999999999871
 40
0.2499999999999871
 40
0.31249999999999
 40
0.31249999999999
 40
0.3749999999999929
 40
0.3749999999999929
 40
0.4999999999999839
 40
0.4999999999999839
 40
0.5624999999999886
 40
0.5624999999999886
 40
0.6249999999999931
 40
0.6249999999999931
 40
0.7499999999999842
 40
0.7499999999999842
 40
0.8124999999999858
 40
0.8124999999999858
 40
0.8749999999999873
 40
0.8749999999999873
 40
1.0
 40
1.0
 40
1.0
 40
1.0
 10
1.750000000000004
 20
9.202168232573273
 30
0.0
 10
1.746781993405639
 20
9.201699753216527
 30
0.0
 10
1.743471004591371
 20
9.201624322394792
 30
0.0
 10
1.736964607008925
 20
9.202277992875402
 30
0.0
 10
1.733772979439736
 20
9.202994424747697
 30
0.0
 10
1.724384332190498
 20
9.206315370696348
 30
0.0
 10
1.718552201201416
 20
9.21005818398537
 30
0.0
 10
1.711132452887604
 20
9.217561271665232
 30
0.0
 10
1.708924112068879
 20
9.220323718903993
 30
0.0
 10
1.705027442559183
 20
9.22635995418185
 30
0.0
 10
1.703334566554436
 20
9.229664541511024
 30
0.0
 10
1.699288201149011
 20
9.239916426747047
 30
0.0
 10
1.697863925608633
 20
9.247470109760254
 30
0.0
 10
1.697856987514373
 20
9.258708562893288
 30
0.0
 10
1.698207934448698
 20
9.26251222926857
 30
0.0
 10
1.699589761819522
 20
9.269865296202031
 30
0.0
 10
1.70061056843162
 20
9.27342311791535
 30
0.0
 10
1.704668942931919
 20
9.28373759211323
 30
0.0
 10
1.708644770798124
 20
9.289916367031541
 30
0.0
 10
1.716051198979953
 20
9.29741606714616
 30
0.0
 10
1.718713181069702
 20
9.299583231457078
 30
0.0
 10
1.72441533623198
 20
9.30326310299809
 30
0.0
 10
1.727476703050514
 20
9.304773654006471
 30
0.0
 10
1.736815234950024
 20
9.308091169349415
 30
0.0
 10
1.743473064636234
 20
9.308781962645753
 30
0.0
 10
1.750000000000004
 20
9.307831767426729
 30
0.0
  0
SPLINE
  5
91
330
1F
100
AcDbEntity
  8
0
  6
Continuous
 62
     7
370
    25
100
AcDbSpline
210
0.0
220
0.0
230
1.0
 70
     8
 71
     3
 72
    30
 73
    26
 74
     0
 42
0.00000001
 43
0.00000001
 40
0.0
 40
0.0
 40
0.0
 40
0.0
 40
0.0294715572464738
 40
0.0589431211181249
 40
0.0884146982402327
 40
0.1178862952380645
 40
0.1473579187368694
 40
0.1768295753618903
 40
0.2063012717383367
 40
0.2357730144913999
 40
0.2652448102462338
 40
0.2947166656279572
 40
0.3241885872616571
 40
0.3536605817723599
 40
0.3831326557850512
 40
0.4126048159246755
 40
0.4420770688161005
 40
0.4715494210841328
 40
0.5010218793535208
 40
0.5839415316829187
 40
0.7498523800434777
 40
0.8267537166970877
 40
0.8940870159070654
 40
0.9518394258013795
 40
0.9999999999999999
 40
0.9999999999999999
 40
0.9999999999999999
 40
0.9999999999999999
 10
1.750000000000004
 20
9.307831767426729
 30
0.0
 10
1.751292577279578
 20
9.3076062221514
 30
0.0
 10
1.753877732129298
 20
9.307155131550042
 30
0.0
 10
1.757673246436976
 20
9.30599943164085
 30
0.0
 10
1.761373633429358
 20
9.304502691670674
 30
0.0
 10
1.76494824907065
 20
9.302640978547487
 30
0.0
 10
1.768372284230963
 20
9.300437052383652
 30
0.0
 10
1.771620687826335
 20
9.29790434069128
 30
0.0
 10
1.774670024096412
 20
9.29506180940265
 30
0.0
 10
1.777498192824997
 20
9.291929815165158
 30
0.0
 10
1.780084709064339
 20
9.288531032976845
 30
0.0
 10
1.782410819970491
 20
9.284890004258262
 30
0.0
 10
1.784459644849863
 20
9.281033037304285
 30
0.0
 10
1.786216310001474
 20
9.276987994333176
 30
0.0
 10
1.787668000050792
 20
9.272784103996846
 30
0.0
 10
1.788804262129136
 20
9.268451717907746
 30
0.0
 10
1.789616291126658
 20
9.264022206812303
 30
0.0
 10
1.790099942776163
 20
9.259527304473783
 30
0.0
 10
1.790332293453684
 20
9.252264078791251
 30
0.0
 10
1.788900843776619
 20
9.237997903387761
 30
0.0
 10
1.781947973617346
 20
9.222536769809041
 30
0.0
 10
1.771734763920685
 20
9.211811045888318
 30
0.0
 10
1.763973347339477
 20
9.206584230633508
 30
0.0
 10
1.756743501823093
 20
9.203474777818233
 30
0.0
 10
1.752107895238555
 20
9.202576634702176
 30
0.0
 10
1.750000000000004
 20
9.202168232573275
 30
0.0
  0
SPLINE
  5
92
330
1F
100
AcDbEntity
  8
0
  6
Continuous
 62
     7
370
    25
100
AcDbSpline
210
0.0
220
0.0
230
1.0
 70
     8
 71
     3
 72
    30
 73
    26
 74
     0
 42
0.00000001
 43
0.00000001
 40
0.0
 40
0.0
 40
0.0
 40
0.0
 40
0.0624999999999988
 40
0.0624999999999988
 40
0.1249999999999975
 40
0.1249999999999975
 40
0.2499999999999941
 40
0.2499999999999941
 40
0.3124999999999983
 40
0.3124999999999983
 40
0.3750000000000026
 40
0.3750000000000026
 40
0.4999999999999929
 40
0.4999999999999929
 40
0.5624999999999971
 40
0.5624999999999971
 40
0.6250000000000014
 40
0.6250000000000014
 40
0.7499999999999933
 40
0.7499999999999933
 40
0.8124999999999937
 40
0.8124999999999937
 40
0.874999999999994
 40
0.874999999999994
 40
1.0
 40
1.0
 40
1.0
 40
1.0
 10
-1.749999999999961
 20
9.202168232573273
 30
0.0
 10
-1.753218006594326
 20
9.201699753216525
 30
0.0
 10
-1.756522891818312
 20
9.201624322394792
 30
0.0
 10
-1.763005110415196
 20
9.202277992875398
 30
0.0
 10
-1.766178865451206
 20
9.202994424747697
 30
0.0
 10
-1.775498660610419
 20
9.206315370696348
 30
0.0
 10
-1.781265110116716
 20
9.21005818398537
 30
0.0
 10
-1.788583037625441
 20
9.217561271665229
 30
0.0
 10
-1.790757692857299
 20
9.220323718903993
 30
0.0
 10
-1.794591263533958
 20
9.226359954181847
 30
0.0
 10
-1.796254600536207
 20
9.22966454151102
 30
0.0
 10
-1.800227944458441
 20
9.239916426747046
 30
0.0
 10
-1.80162336912302
 20
9.247470109760252
 30
0.0
 10
-1.801630171405032
 20
9.258708562893286
 30
0.0
 10
-1.801286160079239
 20
9.262512229268568
 30
0.0
 10
-1.799930850088715
 20
9.269865296202035
 30
0.0
 10
-1.798929429527886
 20
9.27342311791535
 30
0.0
 10
-1.794944326971338
 20
9.283737592113233
 30
0.0
 10
-1.791036538322953
 20
9.289916367031543
 30
0.0
 10
-1.783731812600286
 20
9.297416067146164
 30
0.0
 10
-1.781102989376407
 20
9.299583231457078
 30
0.0
 10
-1.775462109046828
 20
9.303263102998091
 30
0.0
 10
-1.772428904051931
 20
9.304773654006473
 30
0.0
 10
-1.76315904631881
 20
9.308091169349414
 30
0.0
 10
-1.756526935363731
 20
9.308781962645751
 30
0.0
 10
-1.749999999999961
 20
9.307831767426729
 30
0.0
  0
SPLINE
  5
93
330
1F
100
AcDbEntity
  8
0
  6
Continuous
 62
     7
370
    25
100
AcDbSpline
210
0.0
220
0.0
230
1.0
 70
     8
 71
     3
 72
    30
 73
    26
 74
     0
 42
0.00000001
 43
0.00000001
 40
0.0
 40
0.0
 40
0.0
 40
0.0
 40
0.0294715572464744
 40
0.0589431211181272
 40
0.0884146982402317
 40
0.1178862952380657
 40
0.1473579187368697
 40
0.1768295753618893
 40
0.206301271738338
 40
0.235773014491402
 40
0.2652448102462339
 40
0.2947166656279573
 40
0.3241885872616571
 40
0.3536605817723601
 40
0.383132655785051
 40
0.4126048159246747
 40
0.4420770688160999
 40
0.4715494210841323
 40
0.5010218793535204
 40
0.5839415316829183
 40
0.7498523800434762
 40
0.8267537166970864
 40
0.8940870159070673
 40
0.9518394258013773
 40
0.9999999999999999
 40
0.9999999999999999
 40
0.9999999999999999
 40
0.9999999999999999
 10
-1.749999999999961
 20
9.307831767426729
 30
0.0
 10
-1.748707216224587
 20
9.307606222151401
 30
0.0
 10
-1.746121648383221
 20
9.307155131550045
 30
0.0
 10
-1.742322793610455
 20
9.305999431640846
 30
0.0
 10
-1.738617074259079
 20
9.304502691670677
 30
0.0
 10
-1.735034939007798
 20
9.302640978547483
 30
0.0
 10
-1.73160124933083
 20
9.300437052383655
 30
0.0
 10
-1.728341042292054
 20
9.29790434069128
 30
0.0
 10
-1.725277757387782
 20
9.29506180940265
 30
0.0
 10
-1.722433493910462
 20
9.29192981516516
 30
0.0
 10
-1.719828736766884
 20
9.288531032976845
 30
0.0
 10
-1.717482239888601
 20
9.284890004258262
 30
0.0
 10
-1.715410879659719
 20
9.281033037304285
 30
0.0
 10
-1.713629545931596
 20
9.276987994333174
 30
0.0
 10
-1.712150993786522
 20
9.272784103996848
 30
0.0
 10
-1.710985901112685
 20
9.268451717907745
 30
0.0
 10
-1.710142233230514
 20
9.264022206812301
 30
0.0
 10
-1.709627268559848
 20
9.259527304473782
 30
0.0
 10
-1.709326431937467
 20
9.252264078791251
 30
0.0
 10
-1.710817277280163
 20
9.237997903387765
 30
0.0
 10
-1.71786527771297
 20
9.222536769809038
 30
0.0
 10
-1.728176206458596
 20
9.211811045888322
 30
0.0
 10
-1.735986777633769
 20
9.206584230633505
 30
0.0
 10
-1.743249260476839
 20
9.203474777818233
 30
0.0
 10
-1.747889842388856
 20
9.202576634702176
 30
0.0
 10
-1.749999999999961
 20
9.202168232573273
 30
0.0
  0
SPLINE
  5
94
330
1F
100
AcDbEntity
  8
0
  6
Continuous
 62
     7
370
    25
100
AcDbSpline
210
0.0
220
0.0
230
1.0
 70
     8
 71
     3
 72
    30
 73
    26
 74
     0
 42
0.00000001
 43
0.00000001
 40
0.0
 40
0.0
 40
0.0
 40
0.0
 40
0.0625000000000063
 40
0.0625000000000063
 40
0.1250000000000126
 40
0.1250000000000126
 40
0.2500000000000119
 40
0.2500000000000119
 40
0.3125000000000143
 40
0.3125000000000143
 40
0.3750000000000167
 40
0.3750000000000167
 40
0.5000000000000016
 40
0.5000000000000016
 40
0.5625000000000031
 40
0.5625000000000031
 40
0.6250000000000047
 40
0.6250000000000047
 40
0.7499999999999928
 40
0.7499999999999928
 40
0.8124999999999943
 40
0.8124999999999943
 40
0.8749999999999959
 40
0.8749999999999959
 40
1.0
 40
1.0
 40
1.0
 40
1.0
 10
-3.031088913245514
 20
9.202168232573273
 30
0.0
 10
-3.032946830219025
 20
9.201699753216527
 30
0.0
 10
-3.034851382683243
 20
9.201624322394792
 30
0.0
 10
-3.038579933591276
 20
9.202277992875398
 30
0.0
 10
-3.040401983203818
 20
9.202994424747697
 30
0.0
 10
-3.04574301767507
 20
9.206315370696345
 30
0.0
 10
-3.049034357628033
 20
9.21005818398537
 30
0.0
 10
-3.05320057877588
 20
9.21756127166523
 30
0.0
 10
-3.054436668176741
 20
9.220323718903993
 30
0.0
 10
-3.056613551110629
 20
9.226359954181847
 30
0.0
 10
-3.057556824825586
 20
9.229664541511022
 30
0.0
 10
-3.059808677035694
 20
9.239916426747047
 30
0.0
 10
-3.060597668780514
 20
9.247470109760254
 30
0.0
 10
-3.060601517668626
 20
9.258708562893288
 30
0.0
 10
-3.060406906912529
 20
9.26251222926857
 30
0.0
 10
-3.059639728141319
 20
9.26986529620203
 30
0.0
 10
-3.059072750252871
 20
9.273423117915348
 30
0.0
 10
-3.056814253795548
 20
9.28373759211323
 30
0.0
 10
-3.054597373428189
 20
9.28991636703154
 30
0.0
 10
-3.050438706008026
 20
9.297416067146163
 30
0.0
 10
-3.048940098492205
 20
9.29958323145708
 30
0.0
 10
-3.045718711756608
 20
9.303263102998088
 30
0.0
 10
-3.043983749272755
 20
9.304773654006471
 30
0.0
 10
-3.03867144346364
 20
9.308091169349412
 30
0.0
 10
-3.03485724113477
 20
9.308781962645751
 30
0.0
 10
-3.031088913245514
 20
9.307831767426729
 30
0.0
  0
SPLINE
  5
95
330
1F
100
AcDbEntity
  8
0
  6
Continuous
 62
     7
370
    25
100
AcDbSpline
210
0.0
220
0.0
230
1.0
 70
     8
 71
     3
 72
    30
 73
    26
 74
     0
 42
0.00000001
 43
0.00000001
 40
0.0
 40
0.0
 40
0.0
 40
0.0
 40
0.0294715572464757
 40
0.0589431211181265
 40
0.0884146982402342
 40
0.1178862952380659
 40
0.1473579187368709
 40
0.1768295753618901
 40
0.2063012717383392
 40
0.2357730144914013
 40
0.265244810246235
 40
0.2947166656279583
 40
0.3241885872616582
 40
0.3536605817723609
 40
0.3831326557850515
 40
0.4126048159246757
 40
0.4420770688161005
 40
0.471549421084133
 40
0.5010218793535209
 40
0.5839415316829188
 40
0.7498523800434764
 40
0.8267537166970851
 40
0.8940870159070671
 40
0.9518394258013778
 40
0.9999999999999999
 40
0.9999999999999999
 40
0.9999999999999999
 40
0.9999999999999999
 10
-3.031088913245514
 20
9.307831767426729
 30
0.0
 10
-3.030342404964392
 20
9.3076062221514
 30
0.0
 10
-3.028849388234334
 20
9.307155131550045
 30
0.0
 10
-3.026654189790247
 20
9.305999431640847
 30
0.0
 10
-3.024511613086288
 20
9.304502691670677
 30
0.0
 10
-3.022439124885838
 20
9.302640978547487
 30
0.0
 10
-3.020451109188738
 20
9.300437052383657
 30
0.0
 10
-3.018562013056058
 20
9.297904340691277
 30
0.0
 10
-3.016785371444265
 20
9.295061809402654
 30
0.0
 10
-3.015133942852473
 20
9.291929815165158
 30
0.0
 10
-3.013619554223482
 20
9.288531032976842
 30
0.0
 10
-3.012253033772658
 20
9.284890004258266
 30
0.0
 10
-3.011044122596816
 20
9.28103303730428
 30
0.0
 10
-3.010001426680081
 20
9.276987994333178
 30
0.0
 10
-3.009132275362894
 20
9.272784103996846
 30
0.0
 10
-3.008442963441956
 20
9.268451717907746
 30
0.0
 10
-3.007937604844508
 20
9.264022206812301
 30
0.0
 10
-3.007622211272079
 20
9.259527304473783
 30
0.0
 10
-3.007408982788466
 20
9.252264078791253
 30
0.0
 10
-3.008304014851932
 20
9.237997903387763
 30
0.0
 10
-3.012428103288095
 20
9.222536769809041
 30
0.0
 10
-3.0184375388942
 20
9.211811045888322
 30
0.0
 10
-3.022975353682769
 20
9.206584230633506
 30
0.0
 10
-3.027187193276548
 20
9.203474777818231
 30
0.0
 10
-3.029869306999308
 20
9.202576634702176
 30
0.0
 10
-3.031088913245515
 20
9.202168232573275
 30
0.0
  0
SPLINE
  5
96
330
1F
100
AcDbEntity
  8
0
  6
Continuous
 62
     7
370
    25
100
AcDbSpline
210
0.0
220
0.0
230
1.0
 70
     8
 71
     3
 72
    30
 73
    26
 74
     0
 42
0.00000001
 43
0.00000001
 40
0.0
 40
0.0
 40
0.0
 40
0.0
 40
0.0294715572464744
 40
0.0589431211181264
 40
0.0884146982402327
 40
0.1178862952380654
 40
0.1473579187368704
 40
0.1768295753618901
 40
0.2063012717383393
 40
0.2357730144914016
 40
0.2652448102462337
 40
0.2947166656279578
 40
0.3241885872616578
 40
0.3536605817723608
 40
0.3831326557850517
 40
0.4126048159246756
 40
0.4420770688161003
 40
0.4715494210841329
 40
0.5010218793535209
 40
0.5839415316829188
 40
0.7498523800434765
 40
0.8267537166970861
 40
0.8940870159070667
 40
0.9518394258013784
 40
0.9999999999999999
 40
0.9999999999999999
 40
0.9999999999999999
 40
0.9999999999999999
 10
-3.5
 20
9.307831767426729
 30
0.0
 10
-3.4999997935042
 20
9.3076062221514
 30
0.0
 10
-3.499999380512554
 20
9.307155131550042
 30
0.0
 10
-3.499996040047465
 20
9.305999431640846
 30
0.0
 10
-3.499990707688473
 20
9.304502691670681
 30
0.0
 10
-3.499983188078483
 20
9.302640978547485
 30
0.0
 10
-3.49997353356183
 20
9.300437052383655
 30
0.0
 10
-3.499961730118424
 20
9.297904340691282
 30
0.0
 10
-3.499947781484229
 20
9.29506180940265
 30
0.0
 10
-3.499931686735494
 20
9.29192981516516
 30
0.0
 10
-3.499913445831258
 20
9.288531032976843
 30
0.0
 10
-3.499893059859125
 20
9.28489000425826
 30
0.0
 10
-3.499870524509618
 20
9.281033037304285
 30
0.0
 10
-3.499845855933105
 20
9.276987994333176
 30
0.0
 10
-3.49981899383735
 20
9.272784103996848
 30
0.0
 10
-3.499790163241856
 20
9.268451717907746
 30
0.0
 10
-3.499758524357207
 20
9.2640222068123
 30
0.0
 10
-3.499727211336047
 20
9.259527304473785
 30
0.0
 10
-3.499658725391184
 20
9.252264078791246
 30
0.0
 10
-3.499718121056821
 20
9.23799790338777
 30
0.0
 10
-3.49981325133035
 20
9.222536769809038
 30
0.0
 10
-3.499910970379317
 20
9.211811045888322
 30
0.0
 10
-3.499960124973279
 20
9.206584230633505
 30
0.0
 10
-3.499992762299967
 20
9.203474777818233
 30
0.0
 10
-3.499997737627447
 20
9.202576634702176
 30
0.0
 10
-3.5
 20
9.202168232573273
 30
0.0
  0
SPLINE
  5
97
330
1F
100
AcDbEntity
  8
0
  6
Continuous
 62
     7
370
    25
100
AcDbSpline
210
0.0
220
0.0
230
1.0
 70
     8
 71
     3
 72
    30
 73
    26
 74
     0
 42
0.00000001
 43
0.00000001
 40
0.0
 40
0.0
 40
0.0
 40
0.0
 40
0.0624999999999998
 40
0.0624999999999998
 40
0.1249999999999995
 40
0.1249999999999995
 40
0.2499999999999936
 40
0.2499999999999936
 40
0.3124999999999968
 40
0.3124999999999968
 40
0.3749999999999998
 40
0.3749999999999998
 40
0.4999999999999893
 40
0.4999999999999893
 40
0.5624999999999932
 40
0.5624999999999932
 40
0.6249999999999971
 40
0.6249999999999971
 40
0.7499999999999883
 40
0.7499999999999883
 40
0.8124999999999899
 40
0.8124999999999899
 40
0.8749999999999915
 40
0.8749999999999915
 40
1.0
 40
1.0
 40
1.0
 40
1.0
 10
3.5
 20
9.202168232573273
 30
0.0
 10
3.5
 20
9.201699753216527
 30
0.0
 10
3.499993896409718
 20
9.20162432239479
 30
0.0
 10
3.499969717424155
 20
9.2022779928754
 30
0.0
 10
3.499951844890977
 20
9.202994424747695
 30
0.0
 10
3.499882992800952
 20
9.206315370696347
 30
0.0
 10
3.499817311318166
 20
9.210058183985366
 30
0.0
 10
3.499715490513082
 20
9.217561271665232
 30
0.0
 10
3.499681804926212
 20
9.220323718903993
 30
0.0
 10
3.499618706093176
 20
9.226359954181847
 30
0.0
 10
3.499589167090678
 20
9.229664541511022
 30
0.0
 10
3.499516145607489
 20
9.23991642674705
 30
0.0
 10
3.499487294731688
 20
9.247470109760254
 30
0.0
 10
3.49948715891944
 20
9.258708562893288
 30
0.0
 10
3.499494094527971
 20
9.262512229268568
 30
0.0
 10
3.499520611908273
 20
9.269865296202033
 30
0.0
 10
3.499539997959541
 20
9.273423117915348
 30
0.0
 10
3.499613269903292
 20
9.283737592113232
 30
0.0
 10
3.499681309121111
 20
9.289916367031541
 30
0.0
 10
3.499783011580274
 20
9.297416067146164
 30
0.0
 10
3.499816170446144
 20
9.299583231457076
 30
0.0
 10
3.499877445278843
 20
9.303263102998091
 30
0.0
 10
3.499905607102481
 20
9.304773654006471
 30
0.0
 10
3.499974281268871
 20
9.308091169349417
 30
0.0
 10
3.500000000000001
 20
9.308781962645755
 30
0.0
 10
3.5
 20
9.307831767426729
 30
0.0
  0
SPLINE
  5
98
330
1F
100
AcDbEntity
  8
0
  6
Continuous
 62
     7
370
    25
100
AcDbSpline
210
0.0
220
0.0
230
1.0
 70
     8
 71
     3
 72
    30
 73
    26
 74
     0
 42
0.00000001
 43
0.00000001
 40
0.0
 40
0.0
 40
0.0
 40
0.0
 40
0.0294715572464744
 40
0.0589431211181264
 40
0.0884146982402327
 40
0.1178862952380654
 40
0.1473579187368704
 40
0.1768295753618901
 40
0.2063012717383393
 40
0.2357730144914016
 40
0.2652448102462337
 40
0.2947166656279578
 40
0.3241885872616578
 40
0.3536605817723608
 40
0.3831326557850517
 40
0.4126048159246756
 40
0.4420770688161003
 40
0.4715494210841329
 40
0.5010218793535209
 40
0.5839415316829188
 40
0.7498523800434765
 40
0.8267537166970861
 40
0.8940870159070667
 40
0.9518394258013785
 40
1.0
 40
1.0
 40
1.0
 40
1.0
 10
3.5
 20
9.307831767426729
 30
0.0
 10
3.4999997935042
 20
9.3076062221514
 30
0.0
 10
3.499999380512554
 20
9.307155131550042
 30
0.0
 10
3.499996040047465
 20
9.305999431640846
 30
0.0
 10
3.499990707688474
 20
9.304502691670681
 30
0.0
 10
3.499983188078483
 20
9.302640978547485
 30
0.0
 10
3.499973533561831
 20
9.300437052383655
 30
0.0
 10
3.499961730118424
 20
9.297904340691282
 30
0.0
 10
3.499947781484229
 20
9.29506180940265
 30
0.0
 10
3.499931686735495
 20
9.29192981516516
 30
0.0
 10
3.499913445831258
 20
9.288531032976843
 30
0.0
 10
3.499893059859127
 20
9.28489000425826
 30
0.0
 10
3.499870524509617
 20
9.281033037304285
 30
0.0
 10
3.499845855933108
 20
9.276987994333176
 30
0.0
 10
3.49981899383735
 20
9.272784103996848
 30
0.0
 10
3.499790163241856
 20
9.268451717907746
 30
0.0
 10
3.499758524357208
 20
9.2640222068123
 30
0.0
 10
3.499727211336047
 20
9.259527304473785
 30
0.0
 10
3.499658725391185
 20
9.252264078791246
 30
0.0
 10
3.499718121056821
 20
9.23799790338777
 30
0.0
 10
3.499813251330351
 20
9.222536769809038
 30
0.0
 10
3.499910970379317
 20
9.211811045888325
 30
0.0
 10
3.49996012497328
 20
9.206584230633503
 30
0.0
 10
3.499992762299968
 20
9.203474777818236
 30
0.0
 10
3.499997737627447
 20
9.202576634702178
 30
0.0
 10
3.5
 20
9.202168232573273
 30
0.0
  0
SPLINE
  5
99
330
1F
100
AcDbEntity
  8
0
  6
Continuous
 62
     7
370
    25
100
AcDbSpline
210
0.0
220
0.0
230
1.0
 70
     8
 71
     3
 72
    30
 73
    26
 74
     0
 42
0.00000001
 43
0.00000001
 40
0.0
 40
0.0
 40
0.0
 40
0.0
 40
0.062500000000002
 40
0.062500000000002
 40
0.125000000000004
 40
0.125000000000004
 40
0.2499999999999982
 40
0.2499999999999982
 40
0.3125000000000013
 40
0.3125000000000013
 40
0.3750000000000044
 40
0.3750000000000044
 40
0.4999999999999956
 40
0.4999999999999956
 40
0.5625000000000003
 40
0.5625000000000003
 40
0.625000000000005
 40
0.625000000000005
 40
0.7499999999999978
 40
0.7499999999999978
 40
0.812499999999997
 40
0.812499999999997
 40
0.8749999999999962
 40
0.8749999999999962
 40
1.0
 40
1.0
 40
1.0
 40
1.0
 10
3.03108891324554
 20
9.202168232573273
 30
0.0
 10
3.02923099627203
 20
9.201699753216529
 30
0.0
 10
3.027315872079336
 20
9.201624322394794
 30
0.0
 10
3.023545441939832
 20
9.202277992875402
 30
0.0
 10
3.021692436191767
 20
9.202994424747697
 30
0.0
 10
3.01623214640238
 20
9.206315370696345
 30
0.0
 10
3.01282704278412
 20
9.210058183985366
 30
0.0
 10
3.008484462828596
 20
9.217561271665232
 30
0.0
 10
3.007190028279795
 20
9.220323718903993
 30
0.0
 10
3.00490385496119
 20
9.226359954181849
 30
0.0
 10
3.003909418193101
 20
9.229664541511022
 30
0.0
 10
3.001531089064063
 20
9.239916426747047
 30
0.0
 10
3.000692126136516
 20
9.247470109760254
 30
0.0
 10
3.000688042014691
 20
9.258708562893291
 30
0.0
 10
3.000894665597147
 20
9.262512229268571
 30
0.0
 10
3.00170777381832
 20
9.269865296202035
 30
0.0
 10
3.002308329332524
 20
9.273423117915348
 30
0.0
 10
3.004693736519192
 20
9.28373759211323
 30
0.0
 10
3.007028464268721
 20
9.289916367031541
 30
0.0
 10
3.011363285515407
 20
9.29741606714616
 30
0.0
 10
3.012919325871638
 20
9.299583231457076
 30
0.0
 10
3.016246843730694
 20
9.303263102998088
 30
0.0
 10
3.018030583923921
 20
9.304773654006471
 30
0.0
 10
3.02346183687839
 20
9.308091169349414
 30
0.0
 10
3.027320585356283
 20
9.308781962645751
 30
0.0
 10
3.031088913245539
 20
9.307831767426729
 30
0.0
  0
SPLINE
  5
9A
330
1F
100
AcDbEntity
  8
0
  6
Continuous
 62
     7
370
    25
100
AcDbSpline
210
0.0
220
0.0
230
1.0
 70
     8
 71
     3
 72
    30
 73
    26
 74
     0
 42
0.00000001
 43
0.00000001
 40
0.0
 40
0.0
 40
0.0
 40
0.0
 40
0.0294715572464744
 40
0.0589431211181257
 40
0.0884146982402316
 40
0.1178862952380641
 40
0.147357918736871
 40
0.1768295753618893
 40
0.2063012717383392
 40
0.2357730144914009
 40
0.2652448102462338
 40
0.2947166656279583
 40
0.3241885872616588
 40
0.3536605817723612
 40
0.3831326557850514
 40
0.4126048159246756
 40
0.4420770688161004
 40
0.471549421084133
 40
0.5010218793535209
 40
0.5839415316829191
 40
0.7498523800434761
 40
0.8267537166970863
 40
0.8940870159070659
 40
0.9518394258013788
 40
1.0
 40
1.0
 40
1.0
 40
1.0
 10
3.031088913245539
 20
9.307831767426729
 30
0.0
 10
3.031835063865444
 20
9.3076062221514
 30
0.0
 10
3.033327365272988
 20
9.307155131550044
 30
0.0
 10
3.035516777861823
 20
9.305999431640847
 30
0.0
 10
3.037650118649079
 20
9.30450269167068
 30
0.0
 10
3.039709582502978
 20
9.302640978547487
 30
0.0
 10
3.04168087608671
 20
9.300437052383655
 30
0.0
 10
3.043549528055707
 20
9.297904340691277
 30
0.0
 10
3.045302009924379
 20
9.295061809402654
 30
0.0
 10
3.046925561593628
 20
9.29192981516516
 30
0.0
 10
3.048408356049702
 20
9.288531032976842
 30
0.0
 10
3.049739566961035
 20
9.284890004258259
 30
0.0
 10
3.05090944576656
 20
9.281033037304285
 30
0.0
 10
3.051909414455429
 20
9.276987994333174
 30
0.0
 10
3.052732039257965
 20
9.272784103996846
 30
0.0
 10
3.053371415122699
 20
9.268451717907746
 30
0.0
 10
3.05382197356444
 20
9.264022206812303
 30
0.0
 10
3.054083131393278
 20
9.259527304473783
 30
0.0
 10
3.054177738740791
 20
9.252264078791251
 30
0.0
 10
3.053385582987949
 20
9.23799790338777
 30
0.0
 10
3.049426265018881
 20
9.22253676980904
 30
0.0
 10
3.043586083770452
 20
9.211811045888322
 30
0.0
 10
3.039133407236054
 20
9.206584230633505
 30
0.0
 10
3.034978097150319
 20
9.203474777818235
 30
0.0
 10
3.032304600947538
 20
9.202576634702176
 30
0.0
 10
3.031088913245539
 20
9.202168232573273
 30
0.0
  0
SPLINE
  5
9B
330
1F
100
AcDbEntity
  8
0
  6
Continuous
 62
     7
370
    25
100
AcDbSpline
210
0.0
220
0.0
230
1.0
 70
    11
 71
     3
 72
    50
 73
    46
 74
     0
 42
0.00000001
 43
0.00000001
 40
0.0
 40
0.0
 40
0.0
 40
0.0
 40
0.0625000000000026
 40
0.0625000000000026
 40
0.0937500000000016
 40
0.0937500000000016
 40
0.1250000000000006
 40
0.1250000000000006
 40
0.1874999999999987
 40
0.1874999999999987
 40
0.2499999999999967
 40
0.2499999999999967
 40
0.2812499999999958
 40
0.2812499999999958
 40
0.3124999999999948
 40
0.3124999999999948
 40
0.374999999999991
 40
0.374999999999991
 40
0.4374999999999872
 40
0.4374999999999872
 40
0.4687499999999876
 40
0.4687499999999876
 40
0.499999999999988
 40
0.499999999999988
 40
0.5624999999999888
 40
0.5624999999999888
 40
0.6249999999999896
 40
0.6249999999999896
 40
0.6562499999999899
 40
0.6562499999999899
 40
0.6874999999999903
 40
0.6874999999999903
 40
0.7187499999999907
 40
0.7187499999999907
 40
0.7499999999999911
 40
0.7499999999999911
 40
0.8124999999999919
 40
0.8124999999999919
 40
0.8437499999999931
 40
0.8437499999999931
 40
0.8749999999999946
 40
0.8749999999999946
 40
0.9374999999999973
 40
0.9374999999999973
 40
1.0
 40
1.0
 40
1.0
 40
1.0
 10
-0.0599108445836934
 20
-2.835
 30
0.0
 10
-0.0599108445836934
 20
-2.842036025838579
 30
0.0
 10
-0.0585256945987206
 20
-2.848940193122336
 30
0.0
 10
-0.0545164834640898
 20
-2.858613187315383
 30
0.0
 10
-0.0528808884887214
 20
-2.861671695925044
 30
0.0
 10
-0.0490166753685699
 20
-2.867460058851204
 30
0.0
 10
-0.0467675261767055
 20
-2.870200618731909
 30
0.0
 10
-0.0393979383521043
 20
-2.87756892131178
 30
0.0
 10
-0.0334573113211312
 20
-2.881536219985275
 30
0.0
 10
-0.0206424852462415
 20
-2.886847701246168
 30
0.0
 10
-0.0136352162679121
 20
-2.888246235420271
 30
0.0
 10
-0.0032168623388262
 20
-2.888251870605664
 30
0.0
 10
0.0003104695615689
 20
-2.887906381749966
 30
0.0
 10
0.0071400535615051
 20
-2.886548226556992
 30
0.0
 10
0.0104594878004907
 20
-2.885543286899772
 30
0.0
 10
0.0201301217428376
 20
-2.881545409543818
 30
0.0
 10
0.0260003081124489
 20
-2.877640586559349
 30
0.0
 10
0.0359460552228747
 20
-2.867705085329947
 30
0.0
 10
0.0398556865307281
 20
-2.861843436455005
 30
0.0
 10
0.0438679374376155
 20
-2.85216401757606
 30
0.0
 10
0.0448753940137908
 20
-2.848844760439285
 30
0.0
 10
0.0462384885944861
 20
-2.842022950213549
 30
0.0
 10
0.0465879233052527
 20
-2.838493936800754
 30
0.0
 10
0.0465916096516691
 20
-2.828068613259634
 30
0.0
 10
0.0451991585937719
 20
-2.821063879983103
 30
0.0
 10
0.0398985733995035
 20
-2.808243767683807
 30
0.0
 10
0.035934024335437
 20
-2.802297522237014
 30
0.0
 10
0.0285764349928463
 20
-2.794925697378944
 30
0.0
 10
0.0258404903110883
 20
-2.792675539252468
 30
0.0
 10
0.0200496745995701
 20
-2.788802111385122
 30
0.0
 10
0.0169925848111777
 20
-2.78716455098858
 30
0.0
 10
0.0105543050567338
 20
-2.784489075170612
 30
0.0
 10
0.0071677739002716
 20
-2.783459941956633
 30
0.0
 10
0.0003606957146109
 20
-2.78210098068841
 30
0.0
 10
-0.0030957841387227
 20
-2.781753572055252
 30
0.0
 10
-0.0136296861017014
 20
-2.781742937301209
 30
0.0
 10
-0.0205434808489932
 20
-2.783118426208206
 30
0.0
 10
-0.030233496111017
 20
-2.787124032154239
 30
0.0
 10
-0.0332938322920379
 20
-2.788757873238485
 30
0.0
 10
-0.039080499207833
 20
-2.792613488988211
 30
0.0
 10
-0.041824256457981
 20
-2.794860473925298
 30
0.0
 10
-0.0492044432323014
 20
-2.802228929425537
 30
0.0
 10
-0.0531737658513125
 20
-2.80816292488581
 30
0.0
 10
-0.0584968018554459
 20
-2.820974523920611
 30
0.0
 10
-0.0599108445836934
 20
-2.827963974161421
 30
0.0
 10
-0.0599108445836934
 20
-2.835
 30
0.0
  0
SPLINE
  5
9C
330
1F
100
AcDbEntity
  8
0
  6
Continuous
 62
     7
370
    25
100
AcDbSpline
210
0.0
220
0.0
230
1.0
 70
    11
 71
     3
 72
    50
 73
    46
 74
     0
 42
0.00000001
 43
0.00000001
 40
0.0
 40
0.0
 40
0.0
 40
0.0
 40
0.0625000000000039
 40
0.0625000000000039
 40
0.0937500000000036
 40
0.0937500000000036
 40
0.1250000000000033
 40
0.1250000000000033
 40
0.1875000000000027
 40
0.1875000000000027
 40
0.2500000000000021
 40
0.2500000000000021
 40
0.2812500000000018
 40
0.2812500000000018
 40
0.3125000000000016
 40
0.3125000000000016
 40
0.3749999999999991
 40
0.3749999999999991
 40
0.4374999999999967
 40
0.4374999999999967
 40
0.4687499999999978
 40
0.4687499999999978
 40
0.4999999999999988
 40
0.4999999999999988
 40
0.5625000000000009
 40
0.5625000000000009
 40
0.625000000000003
 40
0.625000000000003
 40
0.6562500000000023
 40
0.6562500000000023
 40
0.6875000000000016
 40
0.6875000000000016
 40
0.7187500000000009
 40
0.7187500000000009
 40
0.7500000000000001
 40
0.7500000000000001
 40
0.8124999999999988
 40
0.8124999999999988
 40
0.8437499999999989
 40
0.8437499999999989
 40
0.8749999999999991
 40
0.8749999999999991
 40
0.9374999999999996
 40
0.9374999999999996
 40
1.0
 40
1.0
 40
1.0
 40
1.0
 10
-0.0599108445836934
 20
2.835
 30
0.0
 10
-0.0599108445836934
 20
2.82796397416142
 30
0.0
 10
-0.0585256945987206
 20
2.821059806877662
 30
0.0
 10
-0.0545164834640898
 20
2.811386812684617
 30
0.0
 10
-0.0528808884887215
 20
2.808328304074955
 30
0.0
 10
-0.0490166753685699
 20
2.802539941148796
 30
0.0
 10
-0.0467675261767055
 20
2.799799381268089
 30
0.0
 10
-0.0393979383521044
 20
2.79243107868822
 30
0.0
 10
-0.0334573113211313
 20
2.788463780014725
 30
0.0
 10
-0.0206424852462415
 20
2.783152298753831
 30
0.0
 10
-0.0136352162679121
 20
2.781753764579727
 30
0.0
 10
-0.0032168623388262
 20
2.781748129394337
 30
0.0
 10
0.0003104695615689
 20
2.782093618250033
 30
0.0
 10
0.0071400535615051
 20
2.783451773443008
 30
0.0
 10
0.0104594878004908
 20
2.784456713100226
 30
0.0
 10
0.0201301217428376
 20
2.788454590456181
 30
0.0
 10
0.0260003081124489
 20
2.792359413440651
 30
0.0
 10
0.0359460552228747
 20
2.802294914670053
 30
0.0
 10
0.0398556865307281
 20
2.808156563544992
 30
0.0
 10
0.0438679374376155
 20
2.81783598242394
 30
0.0
 10
0.0448753940137908
 20
2.821155239560715
 30
0.0
 10
0.0462384885944861
 20
2.827977049786451
 30
0.0
 10
0.0465879233052527
 20
2.831506063199247
 30
0.0
 10
0.0465916096516691
 20
2.841931386740366
 30
0.0
 10
0.0451991585937719
 20
2.848936120016897
 30
0.0
 10
0.0398985733995035
 20
2.861756232316193
 30
0.0
 10
0.0359340243354372
 20
2.86770247776299
 30
0.0
 10
0.0285764349928461
 20
2.875074302621056
 30
0.0
 10
0.0258404903110883
 20
2.877324460747532
 30
0.0
 10
0.0200496745995701
 20
2.881197888614877
 30
0.0
 10
0.0169925848111777
 20
2.88283544901142
 30
0.0
 10
0.0105543050567338
 20
2.885510924829386
 30
0.0
 10
0.0071677739002716
 20
2.886540058043366
 30
0.0
 10
0.0003606957146108
 20
2.88789901931159
 30
0.0
 10
-0.0030957841387227
 20
2.888246427944748
 30
0.0
 10
-0.0136296861017013
 20
2.888257062698791
 30
0.0
 10
-0.0205434808489932
 20
2.886881573791796
 30
0.0
 10
-0.030233496111017
 20
2.882875967845762
 30
0.0
 10
-0.0332938322920379
 20
2.881242126761515
 30
0.0
 10
-0.0390804992078331
 20
2.877386511011789
 30
0.0
 10
-0.041824256457981
 20
2.875139526074703
 30
0.0
 10
-0.0492044432323014
 20
2.867771070574462
 30
0.0
 10
-0.0531737658513125
 20
2.86183707511419
 30
0.0
 10
-0.0584968018554459
 20
2.849025476079389
 30
0.0
 10
-0.0599108445836935
 20
2.842036025838579
 30
0.0
 10
-0.0599108445836934
 20
2.835
 30
0.0
  0
SPLINE
  5
9D
330
1F
100
AcDbEntity
  8
0
  6
Continuous
 62
     7
370
    25
100
AcDbSpline
210
0.0
220
0.0
230
1.0
 70
     8
 71
     3
 72
    16
 73
    12
 74
     0
 42
0.00000001
 43
0.00000001
 40
0.0
 40
0.0
 40
0.0
 40
0.0
 40
0.1105318940948209
 40
0.2271491972425103
 40
0.3437781836021528
 40
0.4604099150078714
 40
0.5770323506755102
 40
0.6936498404816767
 40
0.8102751617505014
 40
0.9269077069495689
 40
1.0
 40
1.0
 40
1.0
 40
1.0
 10
0.0001014237629027
 20
-9.307694705997912
 30
0.0
 10
-0.0054782921434302
 20
-9.30652718060464
 30
0.0
 10
-0.0169449190328372
 20
-9.304127850908774
 30
0.0
 10
-0.0315408598149743
 20
-9.293452999871246
 30
0.0
 10
-0.0421563032302555
 20
-9.278737020686183
 30
0.0
 10
-0.0472504682023266
 20
-9.261213317106582
 30
0.0
 10
-0.0462711456315813
 20
-9.243030673853509
 30
0.0
 10
-0.03932468440628
 20
-9.226164791010453
 30
0.0
 10
-0.0271908799365104
 20
-9.212640764426046
 30
0.0
 10
-0.013236843244843
 20
-9.204688418016575
 30
0.0
 10
-0.0036813095886453
 20
-9.202869123462891
 30
0.0
 10
0.0
 20
-9.202168232573273
 30
0.0
  0
SPLINE
  5
9E
330
1F
100
AcDbEntity
  8
0
  6
Continuous
 62
     7
370
    25
100
AcDbSpline
210
0.0
220
0.0
230
1.0
 70
     8
 71
     3
 72
    13
 73
     9
 74
     0
 42
0.00000001
 43
0.00000001
 40
0.0
 40
0.0
 40
0.0
 40
0.0
 40
0.0182187941565101
 40
0.2248431029738112
 40
0.4314722750182232
 40
0.6380849783826291
 40
0.8446889194724071
 40
1.0
 40
1.0
 40
1.0
 40
1.0
 10
1.713019896435036
 20
-9.29371788472656
 30
0.0
 10
1.713394445865765
 20
-9.293420664818683
 30
0.0
 10
1.718016862448265
 20
-9.289752592948602
 30
0.0
 10
1.723656360747485
 20
-9.278406786858723
 30
0.0
 10
1.728333131369694
 20
-9.261280878660665
 30
0.0
 10
1.7273216919486
 20
-9.243090628410808
 30
0.0
 10
1.722195782590346
 20
-9.227283898704925
 30
0.0
 10
1.715756103353659
 20
-9.219873963773034
 30
0.0
 10
1.712992599545414
 20
-9.216694087470119
 30
0.0
  0
SPLINE
  5
A3
330
1F
100
AcDbEntity
  8
0
  6
Continuous
 62
     7
370
    25
100
AcDbSpline
210
0.0
220
0.0
230
1.0
 70
     8
 71
     3
 72
    13
 73
     9
 74
     0
 42
0.00000001
 43
0.00000001
 40
0.0
 40
0.0
 40
0.0
 40
0.0
 40
0.0839508528761992
 40
0.2901490151283235
 40
0.4963332386174236
 40
0.702489299702766
 40
0.9086433713120101
 40
1.0
 40
1.0
 40
1.0
 40
1.0
 10
-1.724120093160978
 20
-9.216554779809234
 30
0.0
 10
-1.725757206495361
 20
-9.218080229032172
 30
0.0
 10
-1.731415360109656
 20
-9.223352451701734
 30
0.0
 10
-1.737080090565908
 20
-9.23671387318672
 30
0.0
 10
-1.740060358199946
 20
-9.254484212199188
 30
0.0
 10
-1.737376702950021
 20
-9.272330605805562
 30
0.0
 10
-1.731816549898017
 20
-9.285977546501874
 30
0.0
 10
-1.726091039468741
 20
-9.291496235786296
 30
0.0
 10
-1.724332906635824
 20
-9.293190860037786
 30
0.0
  0
SPLINE
  5
A4
330
1F
100
AcDbEntity
  8
0
  6
Continuous
 62
     7
370
    25
100
AcDbSpline
210
0.0
220
0.0
230
1.0
 70
     8
 71
     3
 72
    12
 73
     8
 74
     0
 42
0.00000001
 43
0.00000001
 40
0.0
 40
0.0
 40
0.0
 40
0.0
 40
0.1395314838473787
 40
0.4098025582976993
 40
0.6800520917052159
 40
0.9502901640525369
 40
1.0
 40
1.0
 40
1.0
 40
1.0
 10
-1.718463240544876
 20
-9.285777060118175
 30
0.0
 10
-1.720116956672791
 20
-9.283352892665036
 30
0.0
 10
-1.724973904232089
 20
-9.276233137347841
 30
0.0
 10
-1.728182085988806
 20
-9.261049433408536
 30
0.0
 10
-1.727225137610974
 20
-9.243271182362516
 30
0.0
 10
-1.723618262452924
 20
-9.230237205534548
 30
0.0
 10
-1.719458826410662
 20
-9.225070979088148
 30
0.0
 10
-1.718812580950278
 20
-9.224268310083412
 30
0.0
  0
SPLINE
  5
A5
330
1F
100
AcDbEntity
  8
0
  6
Continuous
 62
     7
370
    25
100
AcDbSpline
210
0.0
220
0.0
230
1.0
 70
     8
 71
     3
 72
    13
 73
     9
 74
     0
 42
0.00000001
 43
0.00000001
 40
0.0
 40
0.0
 40
0.0
 40
0.0
 40
0.0342058057612713
 40
0.2391532121980614
 40
0.4441039653717301
 40
0.6490379208151604
 40
0.8539644247569055
 40
1.0
 40
1.0
 40
1.0
 40
1.0
 10
1.712665456560523
 20
9.293857049629713
 30
0.0
 10
1.713370362366818
 20
9.293285853238597
 30
0.0
 10
1.718298779754474
 20
9.289292278209697
 30
0.0
 10
1.724058648425232
 20
9.277522489562585
 30
0.0
 10
1.728420716435425
 20
9.260246457861566
 30
0.0
 10
1.727115430125409
 20
9.242102172276415
 30
0.0
 10
1.721836204347532
 20
9.226605788332806
 30
0.0
 10
1.715435334902346
 20
9.219490291885247
 30
0.0
 10
1.712771928492017
 20
9.216529528661846
 30
0.0
  0
SPLINE
  5
A6
330
1F
100
AcDbEntity
  8
0
  6
Continuous
 62
     7
370
    25
100
AcDbSpline
210
0.0
220
0.0
230
1.0
 70
     8
 71
     3
 72
    13
 73
     9
 74
     0
 42
0.00000001
 43
0.00000001
 40
0.0
 40
0.0
 40
0.0
 40
0.0
 40
0.1719614207684825
 40
0.3788916166815776
 40
0.5857967163817721
 40
0.7926809963489666
 40
0.9995788317893843
 40
1.0
 40
1.0
 40
1.0
 40
1.0
 10
-1.724353469336525
 20
9.216387066478568
 30
0.0
 10
-1.727348964082904
 20
9.219967621729573
 30
0.0
 10
-1.733949094752589
 20
9.227856846891871
 30
0.0
 10
-1.738970541980891
 20
9.244195434643558
 30
0.0
 10
-1.739645600998593
 20
9.26243717641877
 30
0.0
 10
-1.73462856744991
 20
9.279373903907683
 30
0.0
 10
-1.729154356418825
 20
9.290277879571034
 30
0.0
 10
-1.724886829185947
 20
9.293605869930397
 30
0.0
 10
-1.724878159711481
 20
9.293612630737268
 30
0.0
  0
SPLINE
  5
A7
330
1F
100
AcDbEntity
  8
0
  6
Continuous
 62
     7
370
    25
100
AcDbSpline
210
0.0
220
0.0
230
1.0
 70
     8
 71
     3
 72
    12
 73
     8
 74
     0
 42
0.00000001
 43
0.00000001
 40
0.0
 40
0.0
 40
0.0
 40
0.0
 40
0.1490010758410355
 40
0.4194169681931721
 40
0.689810697302963
 40
0.9601945947607776
 40
0.9999999999999999
 40
0.9999999999999999
 40
0.9999999999999999
 40
0.9999999999999999
 10
-1.71865515249242
 20
9.285479040742683
 30
0.0
 10
-1.720382401260445
 20
9.282856874616087
 30
0.0
 10
-1.725244362407447
 20
9.275475847595253
 30
0.0
 10
-1.728284703897235
 20
9.26003210002339
 30
0.0
 10
-1.727008950538287
 20
9.242288099541605
 30
0.0
 10
-1.723308474103801
 20
9.22950970868933
 30
0.0
 10
-1.719215305302948
 20
9.224576445531865
 30
0.0
 10
-1.718690044626923
 20
9.223943378764485
 30
0.0
  0
SPLINE
  5
A8
330
1F
100
AcDbEntity
  8
0
  6
Continuous
 62
     7
370
    25
100
AcDbSpline
210
0.0
220
0.0
230
1.0
 70
     8
 71
     3
 72
    16
 73
    12
 74
     0
 42
0.00000001
 43
0.00000001
 40
0.0
 40
0.0
 40
0.0
 40
0.0
 40
0.1154656806588574
 40
0.2309310155674344
 40
0.3464045085835567
 40
0.4618798872512424
 40
0.5773458015757631
 40
0.6928075175015694
 40
0.8082774517311069
 40
0.9237539590198897
 40
1.0
 40
1.0
 40
1.0
 40
1.0
 10
0.0
 20
9.307831767426729
 30
0.0
 10
-0.0058668712464108
 20
9.306498754162071
 30
0.0
 10
-0.0176005961714809
 20
9.303832731624329
 30
0.0
 10
-0.032265076274615
 20
9.29273266958349
 30
0.0
 10
-0.0425954955258494
 20
9.27780736021399
 30
0.0
 10
-0.0473589250291166
 20
9.260191311070617
 30
0.0
 10
-0.0460340503926337
 20
9.242037920431939
 30
0.0
 10
-0.0387753146877757
 20
9.225275862009282
 30
0.0
 10
-0.0263676563070694
 20
9.212098698450163
 30
0.0
 10
-0.0121520417840843
 20
9.203932774758947
 30
0.0
 10
-0.0022259088138468
 20
9.203022227318147
 30
0.0
 10
0.0017216098690433
 20
9.202660112177742
 30
0.0
  0
SPLINE
  5
A9
330
1F
100
AcDbEntity
  8
0
  6
Continuous
 62
     7
370
    25
100
AcDbSpline
210
0.0
220
0.0
230
1.0
 70
    11
 71
     3
 72
    50
 73
    46
 74
     0
 42
0.00000001
 43
0.00000001
 40
0.0
 40
0.0
 40
0.0
 40
0.0
 40
0.0625000000000098
 40
0.0625000000000098
 40
0.0937500000000147
 40
0.0937500000000147
 40
0.1250000000000195
 40
0.1250000000000195
 40
0.1875000000000293
 40
0.1875000000000293
 40
0.2500000000000391
 40
0.2500000000000391
 40
0.2812500000000418
 40
0.2812500000000418
 40
0.3125000000000445
 40
0.3125000000000445
 40
0.375000000000046
 40
0.375000000000046
 40
0.4375000000000474
 40
0.4375000000000474
 40
0.4687500000000469
 40
0.4687500000000469
 40
0.5000000000000464
 40
0.5000000000000464
 40
0.5625000000000427
 40
0.5625000000000427
 40
0.6250000000000391
 40
0.6250000000000391
 40
0.6562500000000372
 40
0.6562500000000372
 40
0.6875000000000353
 40
0.6875000000000353
 40
0.7187500000000334
 40
0.7187500000000334
 40
0.7500000000000315
 40
0.7500000000000315
 40
0.8125000000000236
 40
0.8125000000000236
 40
0.8437500000000208
 40
0.8437500000000208
 40
0.8750000000000179
 40
0.8750000000000179
 40
0.937500000000009
 40
0.937500000000009
 40
1.0
 40
1.0
 40
1.0
 40
1.0
 10
2.922835737772496
 20
2.887831767426728
 30
0.0
 10
2.919345352586062
 20
2.886951656296761
 30
0.0
 10
2.915987800085002
 20
2.88471377480886
 30
0.0
 10
2.911393976719073
 20
2.879526043234524
 30
0.0
 10
2.909961174058699
 20
2.877520692547741
 30
0.0
 10
2.907293301929159
 20
2.872962714734856
 30
0.0
 10
2.906054073061595
 20
2.870388365031427
 30
0.0
 10
2.902801683029481
 20
2.862154773545984
 30
0.0
 10
2.901169442848909
 20
2.855764351610145
 30
0.0
 10
2.899294046940046
 20
2.8423854471595
 30
0.0
 10
2.899032130361034
 20
2.835258169921712
 30
0.0
 10
2.899696415607668
 20
2.824920927764145
 30
0.0
 10
2.900097704541177
 20
2.821464544886822
 30
0.0
 10
2.90122343022814
 20
2.814858578249912
 30
0.0
 10
2.90194505211622
 20
2.811690971282798
 30
0.0
 10
2.904585810173129
 20
2.802596535595812
 30
0.0
 10
2.906932516762006
 20
2.797261018077306
 30
0.0
 10
2.912557447987682
 20
2.788636354694712
 30
0.0
 10
2.915739689454643
 20
2.785490708238318
 30
0.0
 10
2.920811644087934
 20
2.78272088465474
 30
0.0
 10
2.922523406634572
 20
2.782136598512272
 30
0.0
 10
2.925987732035641
 20
2.781637662531511
 30
0.0
 10
2.927752861152444
 20
2.7817324775015
 30
0.0
 10
2.932889462026181
 20
2.783033085795542
 30
0.0
 10
2.936234694701083
 20
2.785290890272048
 30
0.0
 10
2.942160599915101
 20
2.792153472080727
 30
0.0
 10
2.944802120176808
 20
2.796830590937086
 30
0.0
 10
2.947918936432648
 20
2.805052377095543
 30
0.0
 10
2.948838661736926
 20
2.808048258207932
 30
0.0
 10
2.95035452645842
 20
2.814278046104728
 30
0.0
 10
2.95095746815614
 20
2.817515937281532
 30
0.0
 10
2.951854497615485
 20
2.824238282075686
 30
0.0
 10
2.95214403701082
 20
2.827726955951039
 30
0.0
 10
2.952384822961364
 20
2.834650567592065
 30
0.0
 10
2.952342349147407
 20
2.8381233581363
 30
0.0
 10
2.951708758849914
 20
2.848575853826175
 30
0.0
 10
2.950628343606307
 20
2.8552633064772
 30
0.0
 10
2.948105700324292
 20
2.864376125020956
 30
0.0
 10
2.947129897555538
 20
2.867208044669024
 30
0.0
 10
2.944910112005056
 20
2.872466970788703
 30
0.0
 10
2.943652780750396
 20
2.874908106745405
 30
0.0
 10
2.939619048948424
 20
2.881308629104939
 30
0.0
 10
2.936479196755418
 20
2.884504533754194
 30
0.0
 10
2.929862108486767
 20
2.888183223785101
 30
0.0
 10
2.926326122958929
 20
2.888711878556695
 30
0.0
 10
2.922835737772496
 20
2.887831767426728
 30
0.0
  0
SPLINE
  5
AA
330
1F
100
AcDbEntity
  8
0
  6
Continuous
 62
     7
370
    25
100
AcDbSpline
210
0.0
220
0.0
230
1.0
 70
    11
 71
     3
 72
    50
 73
    46
 74
     0
 42
0.00000001
 43
0.00000001
 40
0.0
 40
0.0
 40
0.0
 40
0.0
 40
0.0624999999999986
 40
0.0624999999999986
 40
0.0937499999999988
 40
0.0937499999999988
 40
0.1249999999999991
 40
0.1249999999999991
 40
0.187500000000001
 40
0.187500000000001
 40
0.2500000000000029
 40
0.2500000000000029
 40
0.2812500000000012
 40
0.2812500000000012
 40
0.3124999999999994
 40
0.3124999999999994
 40
0.3749999999999982
 40
0.3749999999999982
 40
0.4374999999999969
 40
0.4374999999999969
 40
0.4687499999999974
 40
0.4687499999999974
 40
0.499999999999998
 40
0.499999999999998
 40
0.5624999999999981
 40
0.5624999999999981
 40
0.6249999999999983
 40
0.6249999999999983
 40
0.6562499999999992
 40
0.6562499999999992
 40
0.6875
 40
0.6875
 40
0.7187500000000009
 40
0.7187500000000009
 40
0.7500000000000018
 40
0.7500000000000018
 40
0.8124999999999989
 40
0.8124999999999989
 40
0.8437499999999969
 40
0.8437499999999969
 40
0.8749999999999949
 40
0.8749999999999949
 40
0.9374999999999973
 40
0.9374999999999973
 40
1.0
 40
1.0
 40
1.0
 40
1.0
 10
-2.922835737772475
 20
2.887831767426728
 30
0.0
 10
-2.926326122958908
 20
2.88695165629676
 30
0.0
 10
-2.929645247964636
 20
2.88471377480886
 30
0.0
 10
-2.934147014104086
 20
2.879526043234524
 30
0.0
 10
-2.935544132214166
 20
2.877520692547741
 30
0.0
 10
-2.938135849189149
 20
2.872962714734856
 30
0.0
 10
-2.939334355012295
 20
2.870388365031426
 30
0.0
 10
-2.942470641460776
 20
2.862154773545984
 30
0.0
 10
-2.944031462759011
 20
2.855764351610144
 30
0.0
 10
-2.945822746213345
 20
2.8423854471595
 30
0.0
 10
-2.946071724651973
 20
2.835258169921709
 30
0.0
 10
-2.945438196193156
 20
2.824920927764145
 30
0.0
 10
-2.945055419914548
 20
2.821464544886821
 30
0.0
 10
-2.943979256991747
 20
2.81485857824991
 30
0.0
 10
-2.943288567984649
 20
2.811690971282797
 30
0.0
 10
-2.940753061078732
 20
2.802596535595813
 30
0.0
 10
-2.938491297728153
 20
2.797261018077306
 30
0.0
 10
-2.933014548159027
 20
2.788636354694713
 30
0.0
 10
-2.92989203807996
 20
2.785490708238317
 30
0.0
 10
-2.924858540596157
 20
2.782720884654739
 30
0.0
 10
-2.923151056427108
 20
2.78213659851227
 30
0.0
 10
-2.919676611664158
 20
2.78163766253151
 30
0.0
 10
-2.917896737991976
 20
2.781732477501501
 30
0.0
 10
-2.912689512549175
 20
2.783033085795542
 30
0.0
 10
-2.909259383547884
 20
2.785290890272047
 30
0.0
 10
-2.903129272060183
 20
2.792153472080726
 30
0.0
 10
-2.900367352723687
 20
2.796830590937088
 30
0.0
 10
-2.897090739464377
 20
2.805052377095544
 30
0.0
 10
-2.89612024327261
 20
2.808048258207933
 30
0.0
 10
-2.894517497352565
 20
2.81427804610473
 30
0.0
 10
-2.893878151429004
 20
2.817515937281533
 30
0.0
 10
-2.892926070251066
 20
2.824238282075687
 30
0.0
 10
-2.89261816489468
 20
2.827726955951039
 30
0.0
 10
-2.892362136179929
 20
2.834650567592064
 30
0.0
 10
-2.892407342200078
 20
2.838123358136298
 30
0.0
 10
-2.893080851050551
 20
2.848575853826175
 30
0.0
 10
-2.894229955500946
 20
2.855263306477199
 30
0.0
 10
-2.896893521753901
 20
2.864376125020958
 30
0.0
 10
-2.897921525000069
 20
2.867208044669024
 30
0.0
 10
-2.900250894063691
 20
2.872466970788705
 30
0.0
 10
-2.901566097476045
 20
2.874908106745407
 30
0.0
 10
-2.905766082450976
 20
2.881308629104938
 30
0.0
 10
-2.909010137968208
 20
2.884504533754193
 30
0.0
 10
-2.915769887961659
 20
2.888183223785102
 30
0.0
 10
-2.919345352586041
 20
2.888711878556696
 30
0.0
 10
-2.922835737772475
 20
2.887831767426728
 30
0.0
  0
SPLINE
  5
AB
330
1F
100
AcDbEntity
  8
0
  6
Continuous
 62
     7
370
    25
100
AcDbSpline
210
0.0
220
0.0
230
1.0
 70
    11
 71
     3
 72
    50
 73
    46
 74
     0
 42
0.00000001
 43
0.00000001
 40
0.0
 40
0.0
 40
0.0
 40
0.0
 40
0.062500000000007
 40
0.062500000000007
 40
0.0937500000000105
 40
0.0937500000000105
 40
0.125000000000014
 40
0.125000000000014
 40
0.187500000000021
 40
0.187500000000021
 40
0.250000000000028
 40
0.250000000000028
 40
0.2812500000000291
 40
0.2812500000000291
 40
0.3125000000000301
 40
0.3125000000000301
 40
0.3750000000000325
 40
0.3750000000000325
 40
0.437500000000035
 40
0.437500000000035
 40
0.468750000000035
 40
0.468750000000035
 40
0.500000000000035
 40
0.500000000000035
 40
0.5625000000000356
 40
0.5625000000000356
 40
0.6250000000000363
 40
0.6250000000000363
 40
0.6562500000000347
 40
0.6562500000000347
 40
0.6875000000000331
 40
0.6875000000000331
 40
0.7187500000000315
 40
0.7187500000000315
 40
0.7500000000000299
 40
0.7500000000000299
 40
0.8125000000000224
 40
0.8125000000000224
 40
0.8437500000000198
 40
0.8437500000000198
 40
0.8750000000000172
 40
0.8750000000000172
 40
0.9375000000000087
 40
0.9375000000000087
 40
1.0
 40
1.0
 40
1.0
 40
1.0
 10
2.922835737772497
 20
-2.782168232573271
 30
0.0
 10
2.919345352586062
 20
-2.783048343703238
 30
0.0
 10
2.915987800085003
 20
-2.785286225191141
 30
0.0
 10
2.911393976719073
 20
-2.790473956765476
 30
0.0
 10
2.909961174058699
 20
-2.792479307452259
 30
0.0
 10
2.907293301929157
 20
-2.797037285265143
 30
0.0
 10
2.906054073061594
 20
-2.799611634968572
 30
0.0
 10
2.90280168302948
 20
-2.807845226454015
 30
0.0
 10
2.901169442848908
 20
-2.814235648389854
 30
0.0
 10
2.899294046940046
 20
-2.827614552840498
 30
0.0
 10
2.899032130361035
 20
-2.834741830078289
 30
0.0
 10
2.899696415607667
 20
-2.845079072235856
 30
0.0
 10
2.900097704541178
 20
-2.848535455113181
 30
0.0
 10
2.90122343022814
 20
-2.855141421750089
 30
0.0
 10
2.90194505211622
 20
-2.858309028717201
 30
0.0
 10
2.904585810173128
 20
-2.867403464404186
 30
0.0
 10
2.906932516762007
 20
-2.872738981922694
 30
0.0
 10
2.912557447987683
 20
-2.881363645305288
 30
0.0
 10
2.915739689454643
 20
-2.884509291761682
 30
0.0
 10
2.920811644087933
 20
-2.887279115345259
 30
0.0
 10
2.92252340663457
 20
-2.887863401487729
 30
0.0
 10
2.925987732035641
 20
-2.888362337468489
 30
0.0
 10
2.927752861152443
 20
-2.888267522498499
 30
0.0
 10
2.932889462026181
 20
-2.886966914204458
 30
0.0
 10
2.936234694701083
 20
-2.884709109727951
 30
0.0
 10
2.942160599915101
 20
-2.877846527919274
 30
0.0
 10
2.944802120176806
 20
-2.873169409062911
 30
0.0
 10
2.947918936432647
 20
-2.864947622904458
 30
0.0
 10
2.948838661736926
 20
-2.861951741792065
 30
0.0
 10
2.950354526458421
 20
-2.855721953895271
 30
0.0
 10
2.95095746815614
 20
-2.852484062718468
 30
0.0
 10
2.951854497615485
 20
-2.845761717924312
 30
0.0
 10
2.952144037010819
 20
-2.842273044048963
 30
0.0
 10
2.952384822961364
 20
-2.835349432407935
 30
0.0
 10
2.952342349147409
 20
-2.831876641863702
 30
0.0
 10
2.951708758849913
 20
-2.821424146173824
 30
0.0
 10
2.950628343606307
 20
-2.8147366935228
 30
0.0
 10
2.948105700324293
 20
-2.805623874979042
 30
0.0
 10
2.947129897555538
 20
-2.802791955330974
 30
0.0
 10
2.944910112005055
 20
-2.797533029211295
 30
0.0
 10
2.943652780750396
 20
-2.795091893254595
 30
0.0
 10
2.939619048948425
 20
-2.788691370895063
 30
0.0
 10
2.936479196755418
 20
-2.785495466245807
 30
0.0
 10
2.929862108486767
 20
-2.781816776214898
 30
0.0
 10
2.926326122958929
 20
-2.781288121443304
 30
0.0
 10
2.922835737772497
 20
-2.782168232573271
 30
0.0
  0
SPLINE
  5
AC
330
1F
100
AcDbEntity
  8
0
  6
Continuous
 62
     7
370
    25
100
AcDbSpline
210
0.0
220
0.0
230
1.0
 70
    11
 71
     3
 72
    50
 73
    46
 74
     0
 42
0.00000001
 43
0.00000001
 40
0.0
 40
0.0
 40
0.0
 40
0.0
 40
0.0624999999999996
 40
0.0624999999999996
 40
0.0937500000000002
 40
0.0937500000000002
 40
0.1250000000000009
 40
0.1250000000000009
 40
0.1875000000000038
 40
0.1875000000000038
 40
0.2500000000000067
 40
0.2500000000000067
 40
0.2812500000000054
 40
0.2812500000000054
 40
0.3125000000000042
 40
0.3125000000000042
 40
0.3750000000000038
 40
0.3750000000000038
 40
0.4375000000000035
 40
0.4375000000000035
 40
0.4687500000000045
 40
0.4687500000000045
 40
0.5000000000000056
 40
0.5000000000000056
 40
0.5625000000000058
 40
0.5625000000000058
 40
0.625000000000006
 40
0.625000000000006
 40
0.6562500000000062
 40
0.6562500000000062
 40
0.6875000000000064
 40
0.6875000000000064
 40
0.7187500000000067
 40
0.7187500000000067
 40
0.7500000000000069
 40
0.7500000000000069
 40
0.8125000000000028
 40
0.8125000000000028
 40
0.8437500000000001
 40
0.8437500000000001
 40
0.8749999999999974
 40
0.8749999999999974
 40
0.9374999999999988
 40
0.9374999999999988
 40
1.0
 40
1.0
 40
1.0
 40
1.0
 10
-2.922835737772473
 20
-2.782168232573271
 30
0.0
 10
-2.926326122958907
 20
-2.783048343703239
 30
0.0
 10
-2.929645247964637
 20
-2.785286225191141
 30
0.0
 10
-2.934147014104085
 20
-2.790473956765477
 30
0.0
 10
-2.935544132214165
 20
-2.792479307452259
 30
0.0
 10
-2.938135849189149
 20
-2.797037285265144
 30
0.0
 10
-2.939334355012295
 20
-2.799611634968572
 30
0.0
 10
-2.942470641460775
 20
-2.807845226454015
 30
0.0
 10
-2.944031462759012
 20
-2.814235648389853
 30
0.0
 10
-2.945822746213345
 20
-2.827614552840498
 30
0.0
 10
-2.946071724651973
 20
-2.834741830078288
 30
0.0
 10
-2.945438196193156
 20
-2.845079072235855
 30
0.0
 10
-2.945055419914548
 20
-2.848535455113181
 30
0.0
 10
-2.943979256991748
 20
-2.855141421750089
 30
0.0
 10
-2.943288567984649
 20
-2.858309028717201
 30
0.0
 10
-2.940753061078731
 20
-2.867403464404187
 30
0.0
 10
-2.938491297728153
 20
-2.872738981922694
 30
0.0
 10
-2.933014548159029
 20
-2.881363645305286
 30
0.0
 10
-2.929892038079958
 20
-2.884509291761682
 30
0.0
 10
-2.924858540596158
 20
-2.88727911534526
 30
0.0
 10
-2.923151056427109
 20
-2.887863401487729
 30
0.0
 10
-2.919676611664158
 20
-2.88836233746849
 30
0.0
 10
-2.917896737991974
 20
-2.888267522498499
 30
0.0
 10
-2.912689512549174
 20
-2.886966914204457
 30
0.0
 10
-2.909259383547884
 20
-2.884709109727951
 30
0.0
 10
-2.903129272060183
 20
-2.877846527919273
 30
0.0
 10
-2.900367352723686
 20
-2.873169409062915
 30
0.0
 10
-2.897090739464376
 20
-2.864947622904459
 30
0.0
 10
-2.896120243272613
 20
-2.861951741792068
 30
0.0
 10
-2.894517497352565
 20
-2.855721953895271
 30
0.0
 10
-2.893878151429006
 20
-2.852484062718469
 30
0.0
 10
-2.892926070251066
 20
-2.845761717924312
 30
0.0
 10
-2.892618164894681
 20
-2.842273044048963
 30
0.0
 10
-2.892362136179928
 20
-2.835349432407935
 30
0.0
 10
-2.892407342200077
 20
-2.8318766418637
 30
0.0
 10
-2.89308085105055
 20
-2.821424146173824
 30
0.0
 10
-2.894229955500945
 20
-2.8147366935228
 30
0.0
 10
-2.8968935217539
 20
-2.805623874979041
 30
0.0
 10
-2.897921525000068
 20
-2.802791955330973
 30
0.0
 10
-2.90025089406369
 20
-2.797533029211296
 30
0.0
 10
-2.901566097476046
 20
-2.795091893254595
 30
0.0
 10
-2.905766082450976
 20
-2.788691370895062
 30
0.0
 10
-2.909010137968207
 20
-2.785495466245807
 30
0.0
 10
-2.915769887961659
 20
-2.781816776214899
 30
0.0
 10
-2.919345352586039
 20
-2.781288121443303
 30
0.0
 10
-2.922835737772473
 20
-2.782168232573271
 30
0.0
  0
LINE
  5
AD
330
1F
100
AcDbEntity
  8
0
  6
Continuous
 62
     7
370
    25
100
AcDbLine
 10
3.5
 20
9.3078317674
 30
0.0
 11
3.5
 21
9.505
 31
0.0
  0
LINE
  5
AE
330
1F
100
AcDbEntity
  8
0
  6
Continuous
 62
     7
370
    25
100
AcDbLine
 10
3.5
 20
8.505
 30
0.0
 11
3.5
 21
9.2021682326
 31
0.0
  0
LINE
  5
AF
330
1F
100
AcDbEntity
  8
0
  6
Continuous
 62
     7
370
    25
100
AcDbLine
 10
3.5
 20
-9.2022536285
 30
0.0
 11
3.5
 21
-8.505
 31
0.0
  0
LINE
  5
B0
330
1F
100
AcDbEntity
  8
0
  6
Continuous
 62
     7
370
    25
100
AcDbLine
 10
3.5
 20
-9.505
 30
0.0
 11
3.5
 21
-9.3070952275
 31
0.0
  0
LINE
  5
B1
330
1F
100
AcDbEntity
  8
0
  6
Continuous
 62
     7
370
    25
100
AcDbLine
 10
-3.5
 20
-9.3070952275
 30
0.0
 11
-3.5
 21
-9.505
 31
0.0
  0
LINE
  5
B2
330
1F
100
AcDbEntity
  8
0
  6
Continuous
 62
     7
370
    25
100
AcDbLine
 10
-3.5
 20
-8.505
 30
0.0
 11
-3.5
 21
-9.2022536285
 31
0.0
  0
LINE
  5
B3
330
1F
100
AcDbEntity
  8
0
  6
Continuous
 62
     7
370
    25
100
AcDbLine
 10
-3.5
 20
9.2021682326
 30
0.0
 11
-3.5
 21
8.505
 31
0.0
  0
LINE
  5
B4
330
1F
100
AcDbEntity
  8
0
  6
Continuous
 62
     7
370
    25
100
AcDbLine
 10
-3.5
 20
9.505
 30
0.0
 11
-3.5
 21
9.3078317674
 31
0.0
  0
LINE
  5
B5
330
1F
100
AcDbEntity
  8
0
  6
Continuous
 62
     7
370
    25
100
AcDbLine
 10
-3.5
 20
-9.505
 30
0.0
 11
3.5
 21
-9.505
 31
0.0
  0
LINE
  5
B6
330
1F
100
AcDbEntity
  8
0
  6
Continuous
 62
     7
370
    25
100
AcDbLine
 10
-3.5
 20
9.505
 30
0.0
 11
3.5
 21
9.505
 31
0.0
  0
LINE
  5
B7
330
1F
100
AcDbEntity
  8
0
  6
Continuous
 62
     7
370
    25
100
AcDbLine
 10
3.2594521901
 20
8.505
 30
0.0
 11
3.2594521901
 21
-8.505
 31
0.0
  0
LINE
  5
B8
330
1F
100
AcDbEntity
  8
0
  6
Continuous
 62
     7
370
    25
100
AcDbLine
 10
3.5
 20
8.505
 30
0.0
 11
0.5166238691
 21
8.505
 31
0.0
  0
LINE
  5
B9
330
1F
100
AcDbEntity
  8
0
  6
Continuous
 62
     7
370
    25
100
AcDbLine
 10
0.5166238691
 20
8.505
 30
0.0
 11
0.5166238691
 21
-8.505
 31
0.0
  0
LINE
  5
BA
330
1F
100
AcDbEntity
  8
0
  6
Continuous
 62
     7
370
    25
100
AcDbLine
 10
3.5
 20
-8.505
 30
0.0
 11
0.5166238691
 21
-8.505
 31
0.0
  0
LINE
  5
BB
330
1F
100
AcDbEntity
  8
0
  6
Continuous
 62
     7
370
    25
100
AcDbLine
 10
-0.525426061
 20
8.505
 30
0.0
 11
-0.525426061
 21
-8.505
 31
0.0
  0
LINE
  5
BC
330
1F
100
AcDbEntity
  8
0
  6
Continuous
 62
     7
370
    25
100
AcDbLine
 10
-0.525426061
 20
8.505
 30
0.0
 11
-3.5
 21
8.505
 31
0.0
  0
LINE
  5
BD
330
1F
100
AcDbEntity
  8
0
  6
Continuous
 62
     7
370
    25
100
AcDbLine
 10
-3.2561986624
 20
8.505
 30
0.0
 11
-3.2561986624
 21
-8.505
 31
0.0
  0
LINE
  5
BE
330
1F
100
AcDbEntity
  8
0
  6
Continuous
 62
     7
370
    25
100
AcDbLine
 10
-0.525426061
 20
-8.505
 30
0.0
 11
-3.5
 21
-8.505
 31
0.0
  0
LINE
  5
BF
330
1F
100
AcDbEntity
  8
0
  6
Continuous
 62
     7
370
    25
100
AcDbLine
 10
3.1430431834
 20
8.505
 30
0.0
 11
3.1430431834
 21
-8.505
 31
0.0
  0
LINE
  5
C0
330
1F
100
AcDbEntity
  8
0
  6
Continuous
 62
     7
370
    25
100
AcDbLine
 10
-3.1399058531
 20
8.505
 30
0.0
 11
-3.1399058531
 21
-8.505
 31
0.0
  0
LINE
  5
C1
330
1F
100
AcDbEntity
  8
0
  6
Continuous
 62
     7
370
    25
100
AcDbLine
 10
-2.6363823388
 20
8.505
 30
0.0
 11
-2.6363823388
 21
-8.505
 31
0.0
  0
LINE
  5
C2
330
1F
100
AcDbEntity
  8
0
  6
Continuous
 62
     7
370
    25
100
AcDbLine
 10
2.6417328365
 20
8.505
 30
0.0
 11
2.6417328365
 21
-8.505
 31
0.0
  0
MTEXT
  5
C4
330
1F
100
AcDbEntity
  8
0
  6
Continuous
 62
     7
100
AcDbMText
 10
-3.5
 20
-9.5451404091
 30
0.0
 40
0.1903
 41
0.0
 71
     1
 72
     1
  1
SOLIDWORKS Educational Product.
  7
SLDTEXTSTYLE0
 73
     1
 44
1.0
  0
MTEXT
  5
C5
330
1F
100
AcDbEntity
  8
0
  6
Continuous
 62
     7
100
AcDbMText
 10
-3.5
 20
-9.8305904091
 30
0.0
 40
0.1903
 41
0.0
 71
     1
 72
     1
  1
For Instructional Use Only.
  7
SLDTEXTSTYLE0
 73
     1
 44
1.0
  0
ENDSEC
  0
SECTION
  2
OBJECTS
  0
DICTIONARY
  5
C
330
0
100
AcDbDictionary
281
     1
  3
ACAD_GROUP
350
D
  3
ACAD_LAYOUT
350
1A
  3
ACAD_MLINESTYLE
350
17
  3
ACAD_PLOTSETTINGS
350
19
  3
ACAD_PLOTSTYLENAME
350
E
  3
ACAD_SCALELIST
350
47
  3
DWGPROPS
350
C6
  0
DICTIONARY
  5
D
102
{ACAD_REACTORS
330
C
102
}
330
C
100
AcDbDictionary
281
     1
  0
DICTIONARY
  5
1A
102
{ACAD_REACTORS
330
C
102
}
330
C
100
AcDbDictionary
281
     1
  3
Layout1
350
1E
  3
Layout2
350
26
  3
Model
350
22
  0
DICTIONARY
  5
17
102
{ACAD_REACTORS
330
C
102
}
330
C
100
AcDbDictionary
281
     1
  3
Standard
350
18
  0
DICTIONARY
  5
19
102
{ACAD_REACTORS
330
C
102
}
330
C
100
AcDbDictionary
281
     1
  0
ACDBDICTIONARYWDFLT
  5
E
102
{ACAD_REACTORS
330
C
102
}
330
C
100
AcDbDictionary
281
     1
  3
Normal
350
F
100
AcDbDictionaryWithDefault
340
F
  0
DICTIONARY
  5
47
102
{ACAD_REACTORS
330
C
102
}
330
C
100
AcDbDictionary
281
     1
  3
A0
350
48
  3
A1
350
49
  3
A2
350
4A
  3
A3
350
4B
  3
A4
350
4C
  3
A5
350
4D
  3
A6
350
4E
  3
A7
350
4F
  3
A8
350
50
  3
A9
350
51
  3
B0
350
52
  3
B1
350
53
  3
B2
350
54
  3
B3
350
55
  3
B4
350
56
  3
B5
350
57
  3
B6
350
58
  3
B7
350
59
  3
B8
350
5A
  3
B9
350
5B
  3
C0
350
5C
  3
C1
350
5D
  3
C2
350
5E
  3
C3
350
5F
  3
C4
350
60
  3
C5
350
61
  3
C6
350
62
  3
C7
350
63
  3
C8
350
64
  3
C9
350
65
  3
D0
350
66
  3
D1
350
67
  3
D2
350
68
  0
XRECORD
  5
C6
102
{ACAD_REACTORS
330
C
102
}
330
C
100
AcDbXrecord
280
     1
  1
DWGPROPS COOKIE
  2

  3

  4

  6

  7

  8
olori
  9

300
=
301
=
302
=
303
=
304
=
305
=
306
=
307
=
308
=
309
=
 40
0.0
 41
2459498.034232789
 42
2459498.034259757
  1

 90
        0
  0
LAYOUT
  5
1E
102
{ACAD_REACTORS
330
1A
102
}
330
1A
100
AcDbPlotSettings
  1

  2
none_device
  4

  6

 40
0.0
 41
0.0
 42
0.0
 43
0.0
 44
0.0
 45
0.0
 46
0.0
 47
0.0
 48
0.0
 49
0.0
140
0.0
141
0.0
142
1.0
143
1.0
 70
   688
 72
     0
 73
     0
 74
     5
  7

 75
    16
147
1.0
148
0.0
149
0.0
100
AcDbLayout
  1
Layout1
 70
     1
 71
     1
 10
0.0
 20
0.0
 11
12.0
 21
9.0
 12
0.0
 22
0.0
 32
0.0
 14
1.0000000000E+20
 24
1.0000000000E+20
 34
1.0000000000E+20
 15
-1.0000000000E+20
 25
-1.0000000000E+20
 35
-1.0000000000E+20
146
0.0
 13
0.0
 23
0.0
 33
0.0
 16
1.0
 26
0.0
 36
0.0
 17
0.0
 27
1.0
 37
0.0
 76
     0
330
1B
  0
LAYOUT
  5
26
102
{ACAD_REACTORS
330
1A
102
}
330
1A
100
AcDbPlotSettings
  1

  2
none_device
  4

  6

 40
0.0
 41
0.0
 42
0.0
 43
0.0
 44
0.0
 45
0.0
 46
0.0
 47
0.0
 48
0.0
 49
0.0
140
0.0
141
0.0
142
1.0
143
1.0
 70
   688
 72
     0
 73
     0
 74
     5
  7

 75
    16
147
1.0
148
0.0
149
0.0
100
AcDbLayout
  1
Layout2
 70
     1
 71
     2
 10
0.0
 20
0.0
 11
0.0
 21
0.0
 12
0.0
 22
0.0
 32
0.0
 14
0.0
 24
0.0
 34
0.0
 15
0.0
 25
0.0
 35
0.0
146
0.0
 13
0.0
 23
0.0
 33
0.0
 16
1.0
 26
0.0
 36
0.0
 17
0.0
 27
1.0
 37
0.0
 76
     0
330
23
  0
LAYOUT
  5
22
102
{ACAD_REACTORS
330
1A
102
}
330
1A
100
AcDbPlotSettings
  1

  2
none_device
  4
ANSI_A_(11.00_x_8.50_Inches)
  6

 40
6.35
 41
19.05
 42
6.35000508
 43
19.05000254
 44
279.4
 45
215.9
 46
133.34999746
 47
88.89999873
 48
0.0
 49
0.0
140
0.0
141
0.0
142
0.442661757
143
1.0
 70
  1696
 72
     0
 73
     0
 74
     0
  7

 75
     0
147
0.5913241897
148
-39.4088153714
149
0.0
100
AcDbLayout
  1
Model
 70
     1
 71
     0
 10
0.0
 20
0.0
 11
12.0
 21
9.0
 12
0.0
 22
0.0
 32
0.0
 14
-3.5
 24
-9.505
 34
0.0
 15
3.5
 25
9.505
 35
0.0
146
0.0
 13
0.0
 23
0.0
 33
0.0
 16
1.0
 26
0.0
 36
0.0
 17
0.0
 27
1.0
 37
0.0
 76
     0
330
1F
331
29
  0
MLINESTYLE
  5
18
102
{ACAD_REACTORS
330
17
102
}
330
17
100
AcDbMlineStyle
  2
Standard
 70
     0
  3

 62
   256
 51
90.0
 52
90.0
 71
     2
 49
0.5
 62
   256
  6
BYLAYER
 49
-0.5
 62
   256
  6
BYLAYER
  0
ACDBPLACEHOLDER
  5
F
102
{ACAD_REACTORS
330
E
102
}
330
E
  0
SCALE
  5
48
102
{ACAD_REACTORS
330
47
102
}
330
47
100
AcDbScale
 70
     0
300
1:1
140
1.0
141
1.0
290
     1
  0
SCALE
  5
49
102
{ACAD_REACTORS
330
47
102
}
330
47
100
AcDbScale
 70
     0
300
1:2
140
1.0
141
2.0
290
     0
  0
SCALE
  5
4A
102
{ACAD_REACTORS
330
47
102
}
330
47
100
AcDbScale
 70
     0
300
1:4
140
1.0
141
4.0
290
     0
  0
SCALE
  5
4B
102
{ACAD_REACTORS
330
47
102
}
330
47
100
AcDbScale
 70
     0
300
1:5
140
1.0
141
5.0
290
     0
  0
SCALE
  5
4C
102
{ACAD_REACTORS
330
47
102
}
330
47
100
AcDbScale
 70
     0
300
1:8
140
1.0
141
8.0
290
     0
  0
SCALE
  5
4D
102
{ACAD_REACTORS
330
47
102
}
330
47
100
AcDbScale
 70
     0
300
1:10
140
1.0
141
10.0
290
     0
  0
SCALE
  5
4E
102
{ACAD_REACTORS
330
47
102
}
330
47
100
AcDbScale
 70
     0
300
1:16
140
1.0
141
16.0
290
     0
  0
SCALE
  5
4F
102
{ACAD_REACTORS
330
47
102
}
330
47
100
AcDbScale
 70
     0
300
1:20
140
1.0
141
20.0
290
     0
  0
SCALE
  5
50
102
{ACAD_REACTORS
330
47
102
}
330
47
100
AcDbScale
 70
     0
300
1:30
140
1.0
141
30.0
290
     0
  0
SCALE
  5
51
102
{ACAD_REACTORS
330
47
102
}
330
47
100
AcDbScale
 70
     0
300
1:40
140
1.0
141
40.0
290
     0
  0
SCALE
  5
52
102
{ACAD_REACTORS
330
47
102
}
330
47
100
AcDbScale
 70
     0
300
1:50
140
1.0
141
50.0
290
     0
  0
SCALE
  5
53
102
{ACAD_REACTORS
330
47
102
}
330
47
100
AcDbScale
 70
     0
300
1:100
140
1.0
141
100.0
290
     0
  0
SCALE
  5
54
102
{ACAD_REACTORS
330
47
102
}
330
47
100
AcDbScale
 70
     0
300
2:1
140
2.0
141
1.0
290
     0
  0
SCALE
  5
55
102
{ACAD_REACTORS
330
47
102
}
330
47
100
AcDbScale
 70
     0
300
4:1
140
4.0
141
1.0
290
     0
  0
SCALE
  5
56
102
{ACAD_REACTORS
330
47
102
}
330
47
100
AcDbScale
 70
     0
300
8:1
140
8.0
141
1.0
290
     0
  0
SCALE
  5
57
102
{ACAD_REACTORS
330
47
102
}
330
47
100
AcDbScale
 70
     0
300
10:1
140
10.0
141
1.0
290
     0
  0
SCALE
  5
58
102
{ACAD_REACTORS
330
47
102
}
330
47
100
AcDbScale
 70
     0
300
100:1
140
100.0
141
1.0
290
     0
  0
SCALE
  5
59
102
{ACAD_REACTORS
330
47
102
}
330
47
100
AcDbScale
 70
     0
300
1/128" = 1'-0"
140
0.0078125
141
12.0
290
     0
  0
SCALE
  5
5A
102
{ACAD_REACTORS
330
47
102
}
330
47
100
AcDbScale
 70
     0
300
1/64" = 1'-0"
140
0.015625
141
12.0
290
     0
  0
SCALE
  5
5B
102
{ACAD_REACTORS
330
47
102
}
330
47
100
AcDbScale
 70
     0
300
1/32" = 1'-0"
140
0.03125
141
12.0
290
     0
  0
SCALE
  5
5C
102
{ACAD_REACTORS
330
47
102
}
330
47
100
AcDbScale
 70
     0
300
1/16" = 1'-0"
140
0.0625
141
12.0
290
     0
  0
SCALE
  5
5D
102
{ACAD_REACTORS
330
47
102
}
330
47
100
AcDbScale
 70
     0
300
3/32" = 1'-0"
140
0.09375
141
12.0
290
     0
  0
SCALE
  5
5E
102
{ACAD_REACTORS
330
47
102
}
330
47
100
AcDbScale
 70
     0
300
1/8" = 1'-0"
140
0.125
141
12.0
290
     0
  0
SCALE
  5
5F
102
{ACAD_REACTORS
330
47
102
}
330
47
100
AcDbScale
 70
     0
300
3/16" = 1'-0"
140
0.1875
141
12.0
290
     0
  0
SCALE
  5
60
102
{ACAD_REACTORS
330
47
102
}
330
47
100
AcDbScale
 70
     0
300
1/4" = 1'-0"
140
0.25
141
12.0
290
     0
  0
SCALE
  5
61
102
{ACAD_REACTORS
330
47
102
}
330
47
100
AcDbScale
 70
     0
300
3/8" = 1'-0"
140
0.375
141
12.0
290
     0
  0
SCALE
  5
62
102
{ACAD_REACTORS
330
47
102
}
330
47
100
AcDbScale
 70
     0
300
1/2" = 1'-0"
140
0.5
141
12.0
290
     0
  0
SCALE
  5
63
102
{ACAD_REACTORS
330
47
102
}
330
47
100
AcDbScale
 70
     0
300
3/4" = 1'-0"
140
0.75
141
12.0
290
     0
  0
SCALE
  5
64
102
{ACAD_REACTORS
330
47
102
}
330
47
100
AcDbScale
 70
     0
300
1" = 1'-0"
140
1.0
141
12.0
290
     0
  0
SCALE
  5
65
102
{ACAD_REACTORS
330
47
102
}
330
47
100
AcDbScale
 70
     0
300
1-1/2" = 1'-0"
140
1.5
141
12.0
290
     0
  0
SCALE
  5
66
102
{ACAD_REACTORS
330
47
102
}
330
47
100
AcDbScale
 70
     0
300
3" = 1'-0"
140
3.0
141
12.0
290
     0
  0
SCALE
  5
67
102
{ACAD_REACTORS
330
47
102
}
330
47
100
AcDbScale
 70
     0
300
6" = 1'-0"
140
6.0
141
12.0
290
     0
  0
SCALE
  5
68
102
{ACAD_REACTORS
330
47
102
}
330
47
100
AcDbScale
 70
     0
300
1'-0" = 1'-0"
140
12.0
141
12.0
290
     0
  0
ENDSEC
  0
EOF
