  0
SECTION
  2
HEADER
  9
$ACADVER
  1
AC1015
  9
$ACADMAINTVER
 70
     6
  9
$DWGCODEPAGE
  3
ANSI_1252
  9
$INSBASE
 10
0.0
 20
0.0
 30
0.0
  9
$EXTMIN
 10
-3.5
 20
-8.015
 30
0.0
  9
$EXTMAX
 10
3.5
 20
8.015
 30
0.0
  9
$LIMMIN
 10
0.0
 20
0.0
  9
$LIMMAX
 10
12.0
 20
9.0
  9
$ORTHOMODE
 70
     0
  9
$REGENMODE
 70
     1
  9
$FILLMODE
 70
     1
  9
$QTEXTMODE
 70
     0
  9
$MIRRTEXT
 70
     1
  9
$LTSCALE
 40
1.0
  9
$ATTMODE
 70
     1
  9
$TEXTSIZE
 40
0.125
  9
$TRACEWID
 40
0.05
  9
$TEXTSTYLE
  7
Standard
  9
$CLAYER
  8
0
  9
$CELTYPE
  6
ByLayer
  9
$CECOLOR
 62
   256
  9
$CELTSCALE
 40
1.0
  9
$DISPSILH
 70
     0
  9
$DIMSCALE
 40
1.0
  9
$DIMASZ
 40
0.13
  9
$DIMEXO
 40
0.0
  9
$DIMDLI
 40
0.38
  9
$DIMRND
 40
0.0
  9
$DIMDLE
 40
0.0
  9
$DIMEXE
 40
0.125
  9
$DIMTP
 40
0.0
  9
$DIMTM
 40
0.0
  9
$DIMTXT
 40
0.125
  9
$DIMCEN
 40
0.09
  9
$DIMTSZ
 40
0.0
  9
$DIMTOL
 70
     0
  9
$DIMLIM
 70
     0
  9
$DIMTIH
 70
     1
  9
$DIMTOH
 70
     1
  9
$DIMSE1
 70
     0
  9
$DIMSE2
 70
     0
  9
$DIMTAD
 70
     0
  9
$DIMZIN
 70
     1
  9
$DIMBLK
  1

  9
$DIMASO
 70
     1
  9
$DIMSHO
 70
     1
  9
$DIMPOST
  1

  9
$DIMAPOST
  1

  9
$DIMALT
 70
     0
  9
$DIMALTD
 70
     2
  9
$DIMALTF
 40
25.4
  9
$DIMLFAC
 40
1.0
  9
$DIMTOFL
 70
     0
  9
$DIMTVP
 40
0.0
  9
$DIMTIX
 70
     0
  9
$DIMSOXD
 70
     0
  9
$DIMSAH
 70
     0
  9
$DIMBLK1
  1

  9
$DIMBLK2
  1

  9
$DIMSTYLE
  2
Standard
  9
$DIMCLRD
 70
     0
  9
$DIMCLRE
 70
     0
  9
$DIMCLRT
 70
     0
  9
$DIMTFAC
 40
1.0
  9
$DIMGAP
 40
0.06
  9
$DIMJUST
 70
     0
  9
$DIMSD1
 70
     0
  9
$DIMSD2
 70
     0
  9
$DIMTOLJ
 70
     1
  9
$DIMTZIN
 70
     1
  9
$DIMALTZ
 70
     0
  9
$DIMALTTZ
 70
     0
  9
$DIMUPT
 70
     0
  9
$DIMDEC
 70
     2
  9
$DIMTDEC
 70
     2
  9
$DIMALTU
 70
     2
  9
$DIMALTTD
 70
     2
  9
$DIMTXSTY
  7
Standard
  9
$DIMAUNIT
 70
     0
  9
$DIMADEC
 70
     2
  9
$DIMALTRND
 40
0.0
  9
$DIMAZIN
 70
     0
  9
$DIMDSEP
 70
    46
  9
$DIMATFIT
 70
     3
  9
$DIMFRAC
 70
     0
  9
$DIMLDRBLK
  1

  9
$DIMLUNIT
 70
     2
  9
$DIMLWD
 70
    -2
  9
$DIMLWE
 70
    -2
  9
$DIMTMOVE
 70
     0
  9
$LUNITS
 70
     2
  9
$LUPREC
 70
     2
  9
$SKETCHINC
 40
0.1
  9
$FILLETRAD
 40
0.5
  9
$AUNITS
 70
     0
  9
$AUPREC
 70
     2
  9
$MENU
  1
.
  9
$ELEVATION
 40
0.0
  9
$PELEVATION
 40
0.0
  9
$THICKNESS
 40
0.0
  9
$LIMCHECK
 70
     0
  9
$CHAMFERA
 40
0.0
  9
$CHAMFERB
 40
0.0
  9
$CHAMFERC
 40
0.0
  9
$CHAMFERD
 40
0.0
  9
$SKPOLY
 70
     0
  9
$TDCREATE
 40
2459497.853070289
  9
$TDUCREATE
 40
2459498.019736956
  9
$TDUPDATE
 40
2459497.853193414
  9
$TDUUPDATE
 40
2459498.019860081
  9
$TDINDWG
 40
0.0000000116
  9
$TDUSRTIMER
 40
0.0000000116
  9
$USRTIMER
 70
     1
  9
$ANGBASE
 50
0.0
  9
$ANGDIR
 70
     0
  9
$PDMODE
 70
     0
  9
$PDSIZE
 40
-1.0
  9
$PLINEWID
 40
0.0
  9
$SPLFRAME
 70
     0
  9
$SPLINETYPE
 70
     6
  9
$SPLINESEGS
 70
     8
  9
$HANDSEED
  5
C8
  9
$SURFTAB1
 70
     6
  9
$SURFTAB2
 70
     6
  9
$SURFTYPE
 70
     6
  9
$SURFU
 70
     6
  9
$SURFV
 70
     6
  9
$UCSBASE
  2

  9
$UCSNAME
  2

  9
$UCSORG
 10
0.0
 20
0.0
 30
0.0
  9
$UCSXDIR
 10
1.0
 20
0.0
 30
0.0
  9
$UCSYDIR
 10
0.0
 20
1.0
 30
0.0
  9
$UCSORTHOREF
  2

  9
$UCSORTHOVIEW
 70
     0
  9
$UCSORGTOP
 10
0.0
 20
0.0
 30
0.0
  9
$UCSORGBOTTOM
 10
0.0
 20
0.0
 30
0.0
  9
$UCSORGLEFT
 10
0.0
 20
0.0
 30
0.0
  9
$UCSORGRIGHT
 10
0.0
 20
0.0
 30
0.0
  9
$UCSORGFRONT
 10
0.0
 20
0.0
 30
0.0
  9
$UCSORGBACK
 10
0.0
 20
0.0
 30
0.0
  9
$PUCSBASE
  2

  9
$PUCSNAME
  2

  9
$PUCSORG
 10
0.0
 20
0.0
 30
0.0
  9
$PUCSXDIR
 10
1.0
 20
0.0
 30
0.0
  9
$PUCSYDIR
 10
0.0
 20
1.0
 30
0.0
  9
$PUCSORTHOREF
  2

  9
$PUCSORTHOVIEW
 70
     0
  9
$PUCSORGTOP
 10
0.0
 20
0.0
 30
0.0
  9
$PUCSORGBOTTOM
 10
0.0
 20
0.0
 30
0.0
  9
$PUCSORGLEFT
 10
0.0
 20
0.0
 30
0.0
  9
$PUCSORGRIGHT
 10
0.0
 20
0.0
 30
0.0
  9
$PUCSORGFRONT
 10
0.0
 20
0.0
 30
0.0
  9
$PUCSORGBACK
 10
0.0
 20
0.0
 30
0.0
  9
$USERI1
 70
     0
  9
$USERI2
 70
     0
  9
$USERI3
 70
     0
  9
$USERI4
 70
     0
  9
$USERI5
 70
     0
  9
$USERR1
 40
0.0
  9
$USERR2
 40
0.0
  9
$USERR3
 40
0.0
  9
$USERR4
 40
0.0
  9
$USERR5
 40
0.0
  9
$WORLDVIEW
 70
     1
  9
$SHADEDGE
 70
     3
  9
$SHADEDIF
 70
    70
  9
$TILEMODE
 70
     1
  9
$MAXACTVP
 70
    64
  9
$PINSBASE
 10
0.0
 20
0.0
 30
0.0
  9
$PLIMCHECK
 70
     0
  9
$PEXTMIN
 10
1.0000000000E+20
 20
1.0000000000E+20
 30
1.0000000000E+20
  9
$PEXTMAX
 10
-1.0000000000E+20
 20
-1.0000000000E+20
 30
-1.0000000000E+20
  9
$PLIMMIN
 10
0.0
 20
0.0
  9
$PLIMMAX
 10
12.0
 20
9.0
  9
$UNITMODE
 70
     0
  9
$VISRETAIN
 70
     1
  9
$PLINEGEN
 70
     0
  9
$PSLTSCALE
 70
     1
  9
$TREEDEPTH
 70
  3020
  9
$CMLSTYLE
  2
Standard
  9
$CMLJUST
 70
     0
  9
$CMLSCALE
 40
1.0
  9
$PROXYGRAPHICS
 70
     1
  9
$MEASUREMENT
 70
     0
  9
$CELWEIGHT
370
    -1
  9
$ENDCAPS
280
     0
  9
$JOINSTYLE
280
     0
  9
$LWDISPLAY
290
     1
  9
$INSUNITS
 70
     1
  9
$HYPERLINKBASE
  1

  9
$STYLESHEET
  1

  9
$XEDIT
290
     1
  9
$CEPSNTYPE
380
     0
  9
$PSTYLEMODE
290
     1
  9
$FINGERPRINTGUID
  2
{2983267c-5817-4644-9c8d-226df1136cd3}
  9
$VERSIONGUID
  2
{FAEB1C32-E019-11D5-929B-00C0DF256EC4}
  9
$EXTNAMES
290
     1
  9
$PSVPSCALE
 40
0.0
  9
$OLESTARTUP
290
     0
  0
ENDSEC
  0
SECTION
  2
CLASSES
  0
CLASS
  1
ACDBDICTIONARYWDFLT
  2
AcDbDictionaryWithDefault
  3
ObjectDBX Classes
 90
        0
280
     0
281
     0
  0
CLASS
  1
VISUALSTYLE
  2
AcDbVisualStyle
  3
ObjectDBX Classes
 90
     4095
280
     0
281
     0
  0
CLASS
  1
MATERIAL
  2
AcDbMaterial
  3
ObjectDBX Classes
 90
     1153
280
     0
281
     0
  0
CLASS
  1
SCALE
  2
AcDbScale
  3
ObjectDBX Classes
 90
     1153
280
     0
281
     0
  0
CLASS
  1
TABLESTYLE
  2
AcDbTableStyle
  3
ObjectDBX Classes
 90
     4095
280
     0
281
     0
  0
CLASS
  1
MLEADERSTYLE
  2
AcDbMLeaderStyle
  3
ACDB_MLEADERSTYLE_CLASS
 90
     4095
280
     0
281
     0
  0
CLASS
  1
SUN
  2
AcDbSun
  3
SCENEOE
 90
     1153
280
     0
281
     0
  0
CLASS
  1
ACDBPLACEHOLDER
  2
AcDbPlaceHolder
  3
ObjectDBX Classes
 90
        0
280
     0
281
     0
  0
CLASS
  1
LAYOUT
  2
AcDbLayout
  3
ObjectDBX Classes
 90
        0
280
     0
281
     0
  0
ENDSEC
  0
SECTION
  2
TABLES
  0
TABLE
  2
VPORT
  5
8
330
0
100
AcDbSymbolTable
 70
     1
  0
VPORT
  5
29
330
8
100
AcDbSymbolTableRecord
100
AcDbViewportTableRecord
  2
*Active
 70
     0
 10
0.0
 20
0.0
 11
1.0
 21
1.0
 12
0.0
 22
0.0
 13
0.0
 23
0.0
 14
0.5
 24
0.5
 15
0.5
 25
0.5
 16
0.0
 26
0.0
 36
1.0
 17
0.0
 27
0.0
 37
0.0
 40
16.3506
 41
0.4366812227
 42
50.0
 43
0.0
 44
0.0
 50
0.0
 51
0.0
 71
     0
 72
   100
 73
     1
 74
     3
 75
     0
 76
     0
 77
     0
 78
     0
281
     0
 65
     1
110
0.0
120
0.0
130
0.0
111
1.0
121
0.0
131
0.0
112
0.0
122
1.0
132
0.0
 79
     0
146
0.0
  0
ENDTAB
  0
TABLE
  2
LTYPE
  5
5
330
0
100
AcDbSymbolTable
 70
     6
  0
LTYPE
  5
14
330
5
100
AcDbSymbolTableRecord
100
AcDbLinetypeTableRecord
  2
ByBlock
 70
     0
  3

 72
    65
 73
     0
 40
0.0
  0
LTYPE
  5
15
330
5
100
AcDbSymbolTableRecord
100
AcDbLinetypeTableRecord
  2
ByLayer
 70
     0
  3

 72
    65
 73
     0
 40
0.0
  0
LTYPE
  5
16
330
5
100
AcDbSymbolTableRecord
100
AcDbLinetypeTableRecord
  2
Continuous
 70
     0
  3
Solid line
 72
    65
 73
     0
 40
0.0
  0
LTYPE
  5
6E
330
5
100
AcDbSymbolTableRecord
100
AcDbLinetypeTableRecord
  2
HIDDEN
 70
     0
  3
Hidden __ __ __ __ __ __ __ __ __ __ __ __ __ __
 72
    65
 73
     2
 40
0.075
 49
0.05
 74
     0
 49
-0.025
 74
     0
  0
LTYPE
  5
6F
330
5
100
AcDbSymbolTableRecord
100
AcDbLinetypeTableRecord
  2
PHANTOM
 70
     0
  3
Phantom ______  __  __  ______  __  __  ______
 72
    65
 73
     6
 40
0.5
 49
0.25
 74
     0
 49
-0.05
 74
     0
 49
0.05
 74
     0
 49
-0.05
 74
     0
 49
0.05
 74
     0
 49
-0.05
 74
     0
  0
LTYPE
  5
70
330
5
100
AcDbSymbolTableRecord
100
AcDbLinetypeTableRecord
  2
CENTER
 70
     0
  3
Center ____ _ ____ _ ____ _ ____ _ ____ _ ____
 72
    65
 73
     4
 40
0.4
 49
0.25
 74
     0
 49
-0.05
 74
     0
 49
0.05
 74
     0
 49
-0.05
 74
     0
  0
LTYPE
  5
71
330
5
100
AcDbSymbolTableRecord
100
AcDbLinetypeTableRecord
  2
CENTERX2
 70
     0
  3
Center (2x) ________  __  ________  __  _____
 72
    65
 73
     4
 40
0.8
 49
0.5
 74
     0
 49
-0.1
 74
     0
 49
0.1
 74
     0
 49
-0.1
 74
     0
  0
LTYPE
  5
72
330
5
100
AcDbSymbolTableRecord
100
AcDbLinetypeTableRecord
  2
DOT2
 70
     0
  3
Dot (.5x) ........................................
 72
    65
 73
     2
 40
0.025
 49
0.0
 74
     0
 49
-0.025
 74
     0
  0
ENDTAB
  0
TABLE
  2
LAYER
  5
2
330
0
100
AcDbSymbolTable
 70
     1
  0
LAYER
  5
10
330
2
100
AcDbSymbolTableRecord
100
AcDbLayerTableRecord
  2
0
 70
     0
 62
     7
  6
Continuous
370
    -3
390
F
  0
ENDTAB
  0
TABLE
  2
STYLE
  5
3
330
0
100
AcDbSymbolTable
 70
     2
  0
STYLE
  5
11
330
3
100
AcDbSymbolTableRecord
100
AcDbTextStyleTableRecord
  2
Standard
 70
     0
 40
0.0
 41
1.0
 50
0.0
 71
     0
 42
0.125
  3
txt
  4

  0
STYLE
  5
C4
330
3
100
AcDbSymbolTableRecord
100
AcDbTextStyleTableRecord
  2
SLDTEXTSTYLE0
 70
     0
 40
0.0
 41
0.7
 50
0.0
 71
     0
 42
0.125
  3
TXT
  4

  0
ENDTAB
  0
TABLE
  2
VIEW
  5
6
330
0
100
AcDbSymbolTable
 70
     0
  0
ENDTAB
  0
TABLE
  2
UCS
  5
7
330
0
100
AcDbSymbolTable
 70
     0
  0
ENDTAB
  0
TABLE
  2
APPID
  5
9
330
0
100
AcDbSymbolTable
 70
     1
  0
APPID
  5
12
330
9
100
AcDbSymbolTableRecord
100
AcDbRegAppTableRecord
  2
ACAD
 70
     0
  0
ENDTAB
  0
TABLE
  2
DIMSTYLE
  5
A
330
0
100
AcDbSymbolTable
 70
     1
100
AcDbDimStyleTable
  0
DIMSTYLE
105
27
330
A
100
AcDbSymbolTableRecord
100
AcDbDimStyleTableRecord
  2
Standard
 70
     0
178
     0
340
11
  0
ENDTAB
  0
TABLE
  2
BLOCK_RECORD
  5
1
330
0
100
AcDbSymbolTable
 70
     1
  0
BLOCK_RECORD
  5
1F
330
1
100
AcDbSymbolTableRecord
100
AcDbBlockTableRecord
  2
*Model_Space
340
22
  0
BLOCK_RECORD
  5
1B
330
1
100
AcDbSymbolTableRecord
100
AcDbBlockTableRecord
  2
*Paper_Space
340
1E
  0
BLOCK_RECORD
  5
23
330
1
100
AcDbSymbolTableRecord
100
AcDbBlockTableRecord
  2
*Paper_Space0
340
26
  0
ENDTAB
  0
ENDSEC
  0
SECTION
  2
BLOCKS
  0
BLOCK
  5
20
330
1F
100
AcDbEntity
  8
0
100
AcDbBlockBegin
  2
*Model_Space
 70
     0
 10
0.0
 20
0.0
 30
0.0
  3
*Model_Space
  1

  0
ENDBLK
  5
21
330
1F
100
AcDbEntity
  8
0
100
AcDbBlockEnd
  0
BLOCK
  5
1C
330
1B
100
AcDbEntity
 67
     1
  8
0
100
AcDbBlockBegin
  2
*Paper_Space
 70
     0
 10
0.0
 20
0.0
 30
0.0
  3
*Paper_Space
  1

  0
ENDBLK
  5
1D
330
1B
100
AcDbEntity
 67
     1
  8
0
100
AcDbBlockEnd
  0
BLOCK
  5
24
330
23
100
AcDbEntity
  8
0
100
AcDbBlockBegin
  2
*Paper_Space0
 70
     0
 10
0.0
 20
0.0
 30
0.0
  3
*Paper_Space0
  1

  0
ENDBLK
  5
25
330
23
100
AcDbEntity
  8
0
100
AcDbBlockEnd
  0
ENDSEC
  0
SECTION
  2
ENTITIES
  0
SPLINE
  5
7B
330
1F
100
AcDbEntity
  8
0
  6
Continuous
 62
     7
370
    25
100
AcDbSpline
210
0.0
220
0.0
230
1.0
 70
    11
 71
     3
 72
    54
 73
    50
 74
     0
 42
0.00000001
 43
0.00000001
 40
0.0
 40
0.0
 40
0.0
 40
0.0
 40
0.0312499999999995
 40
0.0312499999999995
 40
0.062499999999999
 40
0.062499999999999
 40
0.0937499999999985
 40
0.0937499999999985
 40
0.124999999999998
 40
0.124999999999998
 40
0.1874999999999969
 40
0.1874999999999969
 40
0.2499999999999959
 40
0.2499999999999959
 40
0.2812499999999966
 40
0.2812499999999966
 40
0.3124999999999973
 40
0.3124999999999973
 40
0.3437499999999979
 40
0.3437499999999979
 40
0.3749999999999986
 40
0.3749999999999986
 40
0.4375000000000015
 40
0.4375000000000015
 40
0.4687500000000026
 40
0.4687500000000026
 40
0.5000000000000037
 40
0.5000000000000037
 40
0.5625000000000058
 40
0.5625000000000058
 40
0.6250000000000079
 40
0.6250000000000079
 40
0.6562500000000049
 40
0.6562500000000049
 40
0.687500000000002
 40
0.687500000000002
 40
0.718749999999999
 40
0.718749999999999
 40
0.749999999999996
 40
0.749999999999996
 40
0.8124999999999925
 40
0.8124999999999925
 40
0.8437499999999928
 40
0.8437499999999928
 40
0.874999999999993
 40
0.874999999999993
 40
0.9374999999999966
 40
0.9374999999999966
 40
1.0
 40
1.0
 40
1.0
 40
1.0
 10
2.999014903841888
 20
-7.765000000000002
 30
0.0
 10
2.999014903841887
 20
-7.761267265373573
 30
0.0
 10
2.99920381362194
 20
-7.757596922111888
 30
0.0
 10
2.999943424089032
 20
-7.750375910710391
 30
0.0
 10
3.000503090480772
 20
-7.746787849905755
 30
0.0
 10
3.001962364682934
 20
-7.739945612030226
 30
0.0
 10
3.002854640208325
 20
-7.736700437592629
 30
0.0
 10
3.004959103771914
 20
-7.730558801429005
 30
0.0
 10
3.006182400368669
 20
-7.727650986430883
 30
0.0
 10
3.010182262552427
 20
-7.719832995820627
 30
0.0
 10
3.013395861424538
 20
-7.71562356439588
 30
0.0
 10
3.020289524339042
 20
-7.709987900978778
 30
0.0
 10
3.024040705959793
 20
-7.70850399901031
 30
0.0
 10
3.029586127267792
 20
-7.708498012921048
 30
0.0
 10
3.031458435550178
 20
-7.708864587571854
 30
0.0
 10
3.035073829962108
 20
-7.710305634451654
 30
0.0
 10
3.036826179020823
 20
-7.711371909230583
 30
0.0
 10
3.040221210563979
 20
-7.714199834347568
 30
0.0
 10
3.04185918476814
 20
-7.715968779448051
 30
0.0
 10
3.044883534183
 20
-7.720058020803784
 30
0.0
 10
3.046289636062331
 20
-7.722392406643957
 30
0.0
 10
3.050181770786186
 20
-7.73029883795413
 30
0.0
 10
3.052211742723454
 20
-7.736518225187051
 30
0.0
 10
3.054292339186967
 20
-7.746788386932261
 30
0.0
 10
3.054814067330488
 20
-7.750310227816531
 30
0.0
 10
3.055519768818891
 20
-7.757548408757254
 30
0.0
 10
3.055700529739071
 20
-7.761292813808542
 30
0.0
 10
3.055702437318768
 20
-7.772354433243758
 30
0.0
 10
3.054982647362022
 20
-7.779786702899791
 30
0.0
 10
3.052233992003155
 20
-7.7933892656168
 30
0.0
 10
3.050175409010009
 20
-7.799698413376581
 30
0.0
 10
3.046336469073114
 20
-7.807520160544579
 30
0.0
 10
3.044906362136902
 20
-7.809907653749821
 30
0.0
 10
3.041871879741771
 20
-7.814017474976873
 30
0.0
 10
3.040266418728462
 20
-7.81575498150601
 30
0.0
 10
3.036876185345336
 20
-7.818593756664241
 30
0.0
 10
3.035088468281766
 20
-7.819685697756295
 30
0.0
 10
3.03148506376829
 20
-7.82112759968317
 30
0.0
 10
3.029650494957858
 20
-7.821496212860922
 30
0.0
 10
3.024043791874879
 20
-7.821507488031072
 30
0.0
 10
3.02034268402148
 20
-7.820048027683249
 30
0.0
 10
3.015130137508285
 20
-7.815797954571151
 30
0.0
 10
3.013479542424544
 20
-7.814064397338008
 30
0.0
 10
3.01035190283779
 20
-7.809973455590669
 30
0.0
 10
3.008865349508281
 20
-7.807589334557034
 30
0.0
 10
3.004859797509439
 20
-7.799771195774651
 30
0.0
 10
3.002695435809899
 20
-7.793475035154656
 30
0.0
 10
2.999789241919246
 20
-7.779881524209348
 30
0.0
 10
2.99901490384189
 20
-7.772465469252863
 30
0.0
 10
2.999014903841888
 20
-7.765000000000003
 30
0.0
  0
SPLINE
  5
7C
330
1F
100
AcDbEntity
  8
0
  6
Continuous
 62
     7
370
    25
100
AcDbSpline
210
0.0
220
0.0
230
1.0
 70
     8
 71
     3
 72
    30
 73
    26
 74
     0
 42
0.00000001
 43
0.00000001
 40
0.0
 40
0.0
 40
0.0
 40
0.0
 40
0.0625000000000023
 40
0.0625000000000023
 40
0.1250000000000047
 40
0.1250000000000047
 40
0.2500000000000093
 40
0.2500000000000093
 40
0.3750000000000138
 40
0.3750000000000138
 40
0.4375000000000161
 40
0.4375000000000161
 40
0.5000000000000183
 40
0.5000000000000183
 40
0.5625000000000207
 40
0.5625000000000207
 40
0.6250000000000229
 40
0.6250000000000229
 40
0.7500000000000152
 40
0.7500000000000152
 40
0.8750000000000075
 40
0.8750000000000075
 40
0.9375000000000038
 40
0.9375000000000038
 40
1.0
 40
1.0
 40
1.0
 40
1.0
 10
3.499430054696261
 20
-7.765000000000001
 30
0.0
 10
3.499430054696261
 20
-7.759788170949633
 30
0.0
 10
3.499443034268352
 20
-7.754696882968884
 30
0.0
 10
3.499491779183599
 20
-7.744749121308519
 30
0.0
 10
3.499527585770428
 20
-7.739953089342027
 30
0.0
 10
3.499653640698448
 20
-7.726785473667097
 30
0.0
 10
3.499764438040403
 20
-7.71943968795593
 30
0.0
 10
3.499934593041533
 20
-7.710024178648038
 30
0.0
 10
3.499991690651424
 20
-7.70789174307399
 30
0.0
 10
3.500002804312282
 20
-7.709033113259771
 30
0.0
 10
3.49999477222343
 20
-7.71012599165618
 30
0.0
 10
3.499959958199018
 20
-7.713633629689776
 30
0.0
 10
3.499932819582165
 20
-7.716087920313319
 30
0.0
 10
3.499870162223102
 20
-7.722075047007907
 30
0.0
 10
3.499833852784262
 20
-7.72569701623373
 30
0.0
 10
3.499765019949578
 20
-7.733738651079609
 30
0.0
 10
3.499732071338951
 20
-7.738210764380167
 30
0.0
 10
3.499653568923934
 20
-7.752519198621405
 30
0.0
 10
3.4996325039004
 20
-7.763092133978875
 30
0.0
 10
3.499675082881392
 20
-7.783492924954714
 30
0.0
 10
3.499738457649022
 20
-7.793332269743447
 30
0.0
 10
3.499842171004302
 20
-7.805171068222621
 30
0.0
 10
3.499878010082495
 20
-7.808693117262037
 30
0.0
 10
3.499939554793967
 20
-7.814532304524639
 30
0.0
 10
3.499965001169534
 20
-7.81683681473159
 30
0.0
 10
3.499981185688704
 20
-7.818509839230419
 30
0.0
  0
SPLINE
  5
7D
330
1F
100
AcDbEntity
  8
0
  6
Continuous
 62
     7
370
    25
100
AcDbSpline
210
0.0
220
0.0
230
1.0
 70
     8
 71
     3
 72
    13
 73
     9
 74
     0
 42
0.00000001
 43
0.00000001
 40
0.0
 40
0.0
 40
0.0
 40
0.0
 40
0.077266477327425
 40
0.2766839638957264
 40
0.4761073885094382
 40
0.6755562560247356
 40
0.8750119971401469
 40
1.0
 40
1.0
 40
1.0
 40
1.0
 10
3.499988100898823
 20
-7.820339608189903
 30
0.0
 10
3.499991191570747
 20
-7.82082638365033
 30
0.0
 10
3.500002258975252
 20
-7.822569480638527
 30
0.0
 10
3.499913217316418
 20
-7.818881197906259
 30
0.0
 10
3.49974600733037
 20
-7.80964981696896
 30
0.0
 10
3.499560493351739
 20
-7.794995858546202
 30
0.0
 10
3.499446370584336
 20
-7.779271518302703
 30
0.0
 10
3.499434592182275
 20
-7.768968942076288
 30
0.0
 10
3.499430054696261
 20
-7.765000000000002
 30
0.0
  0
SPLINE
  5
7E
330
1F
100
AcDbEntity
  8
0
  6
Continuous
 62
     7
370
    25
100
AcDbSpline
210
0.0
220
0.0
230
1.0
 70
     8
 71
     3
 72
    12
 73
     8
 74
     0
 42
0.00000001
 43
0.00000001
 40
0.0
 40
0.0
 40
0.0
 40
0.0
 40
0.1817437946747477
 40
0.4233265739990502
 40
0.6648885226008812
 40
0.9064403721775222
 40
1.0
 40
1.0
 40
1.0
 40
1.0
 10
1.718557376150092
 20
-7.729105706086435
 30
0.0
 10
1.715955364783499
 20
-7.732853423843502
 30
0.0
 10
1.709894632094947
 20
-7.741582792135022
 30
0.0
 10
1.706040577730678
 20
-7.759068036845937
 30
0.0
 10
1.707203022315948
 20
-7.778045685979453
 30
0.0
 10
1.711844365909474
 20
-7.792867026345214
 30
0.0
 10
1.717235056102594
 20
-7.799139173164463
 30
0.0
 10
1.718740080556215
 20
-7.800890291110681
 30
0.0
  0
SPLINE
  5
7F
330
1F
100
AcDbEntity
  8
0
  6
Continuous
 62
     7
370
    25
100
AcDbSpline
210
0.0
220
0.0
230
1.0
 70
     8
 71
     3
 72
    16
 73
    12
 74
     0
 42
0.00000001
 43
0.00000001
 40
0.0
 40
0.0
 40
0.0
 40
0.0
 40
0.1154073868368077
 40
0.2316009659016239
 40
0.3478067975926225
 40
0.464014938721628
 40
0.580213059684695
 40
0.6964063227313664
 40
0.8126081206184489
 40
0.928817334501113
 40
1.0
 40
1.0
 40
1.0
 40
1.0
 10
-3.499999682749621
 20
-7.70891548955958
 30
0.0
 10
-3.499989736397138
 20
-7.710263100081344
 30
0.0
 10
-3.499969775934422
 20
-7.71296750148107
 30
0.0
 10
-3.499839666267949
 20
-7.724576506700329
 30
0.0
 10
-3.499709310385655
 20
-7.740306401908505
 30
0.0
 10
-3.499634021886051
 20
-7.758949662424143
 30
0.0
 10
-3.49965212026861
 20
-7.778222059247575
 30
0.0
 10
-3.499755604016886
 20
-7.796083973365629
 30
0.0
 10
-3.49988957921952
 20
-7.810171757762943
 30
0.0
 10
-3.499991042201648
 20
-7.818877841276185
 30
0.0
 10
-3.499988910606427
 20
-7.819937200190679
 30
0.0
 10
-3.499988100898823
 20
-7.820339608189907
 30
0.0
  0
SPLINE
  5
80
330
1F
100
AcDbEntity
  8
0
  6
Continuous
 62
     7
370
    25
100
AcDbSpline
210
0.0
220
0.0
230
1.0
 70
    11
 71
     3
 72
    54
 73
    50
 74
     0
 42
0.00000001
 43
0.00000001
 40
0.0
 40
0.0
 40
0.0
 40
0.0
 40
0.0312500000000024
 40
0.0312500000000024
 40
0.0625000000000047
 40
0.0625000000000047
 40
0.0937500000000071
 40
0.0937500000000071
 40
0.1250000000000095
 40
0.1250000000000095
 40
0.1875000000000142
 40
0.1875000000000142
 40
0.2500000000000189
 40
0.2500000000000189
 40
0.2812500000000192
 40
0.2812500000000192
 40
0.3125000000000193
 40
0.3125000000000193
 40
0.3437500000000195
 40
0.3437500000000195
 40
0.3750000000000197
 40
0.3750000000000197
 40
0.4375000000000218
 40
0.4375000000000218
 40
0.4687500000000224
 40
0.4687500000000224
 40
0.500000000000023
 40
0.500000000000023
 40
0.5625000000000242
 40
0.5625000000000242
 40
0.6250000000000253
 40
0.6250000000000253
 40
0.6562500000000234
 40
0.6562500000000234
 40
0.6875000000000214
 40
0.6875000000000214
 40
0.7187500000000194
 40
0.7187500000000194
 40
0.7500000000000174
 40
0.7500000000000174
 40
0.8125000000000132
 40
0.8125000000000132
 40
0.84375000000001
 40
0.84375000000001
 40
0.8750000000000069
 40
0.8750000000000069
 40
0.9375000000000034
 40
0.9375000000000034
 40
1.0
 40
1.0
 40
1.0
 40
1.0
 10
-3.062175748425557
 20
-7.764999999999999
 30
0.0
 10
-3.062175748425557
 20
-7.761267265373571
 30
0.0
 10
-3.061998383241023
 20
-7.757596922111887
 30
0.0
 10
-3.061302867018715
 20
-7.750375910710393
 30
0.0
 10
-3.060776268343124
 20
-7.746787849905758
 30
0.0
 10
-3.059399604708772
 20
-7.739945612030231
 30
0.0
 10
-3.058556460552868
 20
-7.736700437592629
 30
0.0
 10
-3.056560869318782
 20
-7.730558801428999
 30
0.0
 10
-3.055397751055447
 20
-7.727650986430884
 30
0.0
 10
-3.051578261526465
 20
-7.71983299582063
 30
0.0
 10
-3.048488676369621
 20
-7.715623564395881
 30
0.0
 10
-3.04178540491456
 20
-7.709987900978777
 30
0.0
 10
-3.038101638078449
 20
-7.708503999010311
 30
0.0
 10
-3.032592821886273
 20
-7.708498012921051
 30
0.0
 10
-3.03072250518745
 20
-7.708864587571855
 30
0.0
 10
-3.027091478673643
 20
-7.710305634451657
 30
0.0
 10
-3.025321793704173
 20
-7.711371909230586
 30
0.0
 10
-3.021876238492529
 20
-7.714199834347569
 30
0.0
 10
-3.020204936124026
 20
-7.715968779448048
 30
0.0
 10
-3.017105685422714
 20
-7.720058020803788
 30
0.0
 10
-3.015657736045611
 20
-7.72239240664396
 30
0.0
 10
-3.011635286336154
 20
-7.73029883795413
 30
0.0
 10
-3.009517024835408
 20
-7.736518225187057
 30
0.0
 10
-3.007340494877805
 20
-7.746788386932266
 30
0.0
 10
-3.006793275595309
 20
-7.750310227816533
 30
0.0
 10
-3.006052683231742
 20
-7.757548408757254
 30
0.0
 10
-3.005862681737369
 20
-7.761292813808543
 30
0.0
 10
-3.005860677671117
 20
-7.772354433243758
 30
0.0
 10
-3.006618329711094
 20
-7.779786702899792
 30
0.0
 10
-3.009493777293231
 20
-7.7933892656168
 30
0.0
 10
-3.011641705246543
 20
-7.799698413376582
 30
0.0
 10
-3.015609411602089
 20
-7.807520160544581
 30
0.0
 10
-3.017082236429804
 20
-7.809907653749825
 30
0.0
 10
-3.020191981777641
 20
-7.814017474976873
 30
0.0
 10
-3.021830191909246
 20
-7.815754981506009
 30
0.0
 10
-3.02527120426219
 20
-7.818593756664241
 30
0.0
 10
-3.027076702569098
 20
-7.8196856977563
 30
0.0
 10
-3.030695835479346
 20
-7.821127599683165
 30
0.0
 10
-3.032528716229555
 20
-7.821496212860924
 30
0.0
 10
-3.038098892567463
 20
-7.821507488031072
 30
0.0
 10
-3.041733548120188
 20
-7.820048027683248
 30
0.0
 10
-3.046802379855166
 20
-7.815797954571151
 30
0.0
 10
-3.0483988952378
 20
-7.814064397338007
 30
0.0
 10
-3.051411100081689
 20
-7.809973455590669
 30
0.0
 10
-3.05283575281102
 20
-7.807589334557032
 30
0.0
 10
-3.056660782807228
 20
-7.799771195774653
 30
0.0
 10
-3.058708007809372
 20
-7.793475035154656
 30
0.0
 10
-3.061449730712576
 20
-7.779881524209343
 30
0.0
 10
-3.062175748425557
 20
-7.772465469252853
 30
0.0
 10
-3.062175748425556
 20
-7.764999999999998
 30
0.0
  0
SPLINE
  5
81
330
1F
100
AcDbEntity
  8
0
  6
Continuous
 62
     7
370
    25
100
AcDbSpline
210
0.0
220
0.0
230
1.0
 70
    11
 71
     3
 72
    54
 73
    50
 74
     0
 42
0.00000001
 43
0.00000001
 40
0.0
 40
0.0
 40
0.0
 40
0.0
 40
0.0312500000000023
 40
0.0312500000000023
 40
0.0625000000000046
 40
0.0625000000000046
 40
0.0937500000000068
 40
0.0937500000000068
 40
0.1250000000000091
 40
0.1250000000000091
 40
0.1875000000000122
 40
0.1875000000000122
 40
0.2500000000000154
 40
0.2500000000000154
 40
0.2812500000000159
 40
0.2812500000000159
 40
0.3125000000000165
 40
0.3125000000000165
 40
0.343750000000017
 40
0.343750000000017
 40
0.3750000000000176
 40
0.3750000000000176
 40
0.4375000000000218
 40
0.4375000000000218
 40
0.4687500000000234
 40
0.4687500000000234
 40
0.5000000000000251
 40
0.5000000000000251
 40
0.5625000000000284
 40
0.5625000000000284
 40
0.6250000000000318
 40
0.6250000000000318
 40
0.6562500000000285
 40
0.6562500000000285
 40
0.6875000000000254
 40
0.6875000000000254
 40
0.7187500000000222
 40
0.7187500000000222
 40
0.7500000000000191
 40
0.7500000000000191
 40
0.8125000000000149
 40
0.8125000000000149
 40
0.8437500000000118
 40
0.8437500000000118
 40
0.8750000000000088
 40
0.8750000000000088
 40
0.9375000000000044
 40
0.9375000000000044
 40
1.0
 40
1.0
 40
1.0
 40
1.0
 10
-1.804413923282052
 20
-7.765000000000001
 30
0.0
 10
-1.804413923282052
 20
-7.761267265373572
 30
0.0
 10
-1.804100052495614
 20
-7.757596922111888
 30
0.0
 10
-1.802869925236992
 20
-7.750375910710389
 30
0.0
 10
-1.801938737920848
 20
-7.746787849905754
 30
0.0
 10
-1.799506591327658
 20
-7.739945612030227
 30
0.0
 10
-1.798017856802129
 20
-7.736700437592627
 30
0.0
 10
-1.794498533924808
 20
-7.730558801429002
 30
0.0
 10
-1.792449210020498
 20
-7.727650986430886
 30
0.0
 10
-1.785729521896536
 20
-7.719832995820626
 30
0.0
 10
-1.780306604078678
 20
-7.715623564395881
 30
0.0
 10
-1.768586274781228
 20
-7.709987900978779
 30
0.0
 10
-1.762166881513785
 20
-7.70850399901031
 30
0.0
 10
-1.752604198005905
 20
-7.708498012921048
 30
0.0
 10
-1.749363564615994
 20
-7.708864587571859
 30
0.0
 10
-1.743083467408676
 20
-7.710305634451657
 30
0.0
 10
-1.740028292020902
 20
-7.711371909230586
 30
0.0
 10
-1.734089585187653
 20
-7.714199834347566
 30
0.0
 10
-1.731214046595253
 20
-7.715968779448052
 30
0.0
 10
-1.725889231193081
 20
-7.720058020803789
 30
0.0
 10
-1.723405469969254
 20
-7.722392406643959
 30
0.0
 10
-1.7165136200936
 20
-7.730298837954129
 30
0.0
 10
-1.712895657553834
 20
-7.736518225187055
 30
0.0
 10
-1.709181184311704
 20
-7.746788386932264
 30
0.0
 10
-1.708248090027489
 20
-7.750310227816532
 30
0.0
 10
-1.706985490682263
 20
-7.757548408757257
 30
0.0
 10
-1.706661733488493
 20
-7.761292813808546
 30
0.0
 10
-1.706658318050462
 20
-7.772354433243763
 30
0.0
 10
-1.707948750194216
 20
-7.77978670289979
 30
0.0
 10
-1.712855967976741
 20
-7.793389265616802
 30
0.0
 10
-1.716524704986072
 20
-7.799698413376579
 30
0.0
 10
-1.72332263065692
 20
-7.807520160544583
 30
0.0
 10
-1.725848974903014
 20
-7.809907653749822
 30
0.0
 10
-1.731191758758061
 20
-7.814017474976873
 30
0.0
 10
-1.734010314227215
 20
-7.81575498150601
 30
0.0
 10
-1.73994100520009
 20
-7.818593756664245
 30
0.0
 10
-1.743057953995007
 20
-7.819685697756301
 30
0.0
 10
-1.749317395280793
 20
-7.821127599683168
 30
0.0
 10
-1.752493012466394
 20
-7.821496212860919
 30
0.0
 10
-1.762161929616867
 20
-7.821507488031072
 30
0.0
 10
-1.768495703955882
 20
-7.820048027683247
 30
0.0
 10
-1.777358151821772
 20
-7.815797954571155
 30
0.0
 10
-1.78015462050955
 20
-7.814064397338007
 30
0.0
 10
-1.785438558621836
 20
-7.809973455590665
 30
0.0
 10
-1.787941867860357
 20
-7.807589334557034
 30
0.0
 10
-1.794671238581078
 20
-7.799771195774649
 30
0.0
 10
-1.798284765203092
 20
-7.793475035154659
 30
0.0
 10
-1.803128525940594
 20
-7.779881524209344
 30
0.0
 10
-1.804413923282053
 20
-7.772465469252855
 30
0.0
 10
-1.804413923282052
 20
-7.765
 30
0.0
  0
SPLINE
  5
82
330
1F
100
AcDbEntity
  8
0
  6
Continuous
 62
     7
370
    25
100
AcDbSpline
210
0.0
220
0.0
230
1.0
 70
    11
 71
     3
 72
    54
 73
    50
 74
     0
 42
0.00000001
 43
0.00000001
 40
0.0
 40
0.0
 40
0.0
 40
0.0
 40
0.0312500000000002
 40
0.0312500000000002
 40
0.0625000000000003
 40
0.0625000000000003
 40
0.0937500000000005
 40
0.0937500000000005
 40
0.1250000000000007
 40
0.1250000000000007
 40
0.1875000000000025
 40
0.1875000000000025
 40
0.2500000000000043
 40
0.2500000000000043
 40
0.2812500000000053
 40
0.2812500000000053
 40
0.3125000000000064
 40
0.3125000000000064
 40
0.3437500000000074
 40
0.3437500000000074
 40
0.3750000000000085
 40
0.3750000000000085
 40
0.4375000000000123
 40
0.4375000000000123
 40
0.4687500000000142
 40
0.4687500000000142
 40
0.500000000000016
 40
0.500000000000016
 40
0.5625000000000198
 40
0.5625000000000198
 40
0.6250000000000235
 40
0.6250000000000235
 40
0.6562500000000214
 40
0.6562500000000214
 40
0.6875000000000192
 40
0.6875000000000192
 40
0.7187500000000171
 40
0.7187500000000171
 40
0.750000000000015
 40
0.750000000000015
 40
0.8125000000000104
 40
0.8125000000000104
 40
0.8437500000000092
 40
0.8437500000000092
 40
0.8750000000000081
 40
0.8750000000000081
 40
0.9375000000000041
 40
0.9375000000000041
 40
1.0
 40
1.0
 40
1.0
 40
1.0
 10
1.695016131414175
 20
-7.765000000000001
 30
0.0
 10
1.695016131414175
 20
-7.761267265373573
 30
0.0
 10
1.695336667475942
 20
-7.757596922111889
 30
0.0
 10
1.696592252558661
 20
-7.750375910710386
 30
0.0
 10
1.697542531529624
 20
-7.746787849905755
 30
0.0
 10
1.700022373356378
 20
-7.739945612030228
 30
0.0
 10
1.701539473891306
 20
-7.736700437592628
 30
0.0
 10
1.705121654237374
 20
-7.730558801429002
 30
0.0
 10
1.70720572211868
 20
-7.727650986430883
 30
0.0
 10
1.714029548443436
 20
-7.719832995820627
 30
0.0
 10
1.719524065613184
 20
-7.715623564395883
 30
0.0
 10
1.731354317470996
 20
-7.709987900978779
 30
0.0
 10
1.737812632682497
 20
-7.708503999010315
 30
0.0
 10
1.747396450163851
 20
-7.708498012921047
 30
0.0
 10
1.750638233395071
 20
-7.708864587571857
 30
0.0
 10
1.75690930540416
 20
-7.710305634451657
 30
0.0
 10
1.759954471899193
 20
-7.711371909230583
 30
0.0
 10
1.76586400887884
 20
-7.714199834347566
 30
0.0
 10
1.768720305446585
 20
-7.715968779448052
 30
0.0
 10
1.774001876570862
 20
-7.720058020803787
 30
0.0
 10
1.776461477130584
 20
-7.722392406643956
 30
0.0
 10
1.783278089614221
 20
-7.73029883795413
 30
0.0
 10
1.786845078150747
 20
-7.736518225187052
 30
0.0
 10
1.790504164164239
 20
-7.746788386932264
 30
0.0
 10
1.791422541132507
 20
-7.750310227816532
 30
0.0
 10
1.792664996221563
 20
-7.757548408757255
 30
0.0
 10
1.792983418367337
 20
-7.761292813808545
 30
0.0
 10
1.792986778098829
 20
-7.772354433243758
 30
0.0
 10
1.791718205639022
 20
-7.77978670289979
 30
0.0
 10
1.786884191380731
 20
-7.793389265616802
 30
0.0
 10
1.783267037708202
 20
-7.79969841337658
 30
0.0
 10
1.776543455363826
 20
-7.807520160544581
 30
0.0
 10
1.774041774303892
 20
-7.809907653749822
 30
0.0
 10
1.768742443534847
 20
-7.814017474976872
 30
0.0
 10
1.765942795777957
 20
-7.815754981506007
 30
0.0
 10
1.760041422056976
 20
-7.818593756664244
 30
0.0
 10
1.756934739267687
 20
-7.8196856977563
 30
0.0
 10
1.750684378776013
 20
-7.821127599683166
 30
0.0
 10
1.747507786988387
 20
-7.821496212860924
 30
0.0
 10
1.737817781111815
 20
-7.821507488031073
 30
0.0
 10
1.731445640519114
 20
-7.820048027683246
 30
0.0
 10
1.722500218887338
 20
-7.815797954571152
 30
0.0
 10
1.719672527269564
 20
-7.814064397338003
 30
0.0
 10
1.714321942877414
 20
-7.809973455590669
 30
0.0
 10
1.711782895310718
 20
-7.807589334557034
 30
0.0
 10
1.704949300163179
 20
-7.799771195774655
 30
0.0
 10
1.701268144637393
 20
-7.793475035154653
 30
0.0
 10
1.696329426531012
 20
-7.779881524209345
 30
0.0
 10
1.695016131414175
 20
-7.772465469252855
 30
0.0
 10
1.695016131414175
 20
-7.765000000000001
 30
0.0
  0
SPLINE
  5
83
330
1F
100
AcDbEntity
  8
0
  6
Continuous
 62
     7
370
    25
100
AcDbSpline
210
0.0
220
0.0
230
1.0
 70
    11
 71
     3
 72
    54
 73
    50
 74
     0
 42
0.00000001
 43
0.00000001
 40
0.0
 40
0.0
 40
0.0
 40
0.0
 40
0.0312500000000012
 40
0.0312500000000012
 40
0.0625000000000024
 40
0.0625000000000024
 40
0.0937500000000035
 40
0.0937500000000035
 40
0.1250000000000047
 40
0.1250000000000047
 40
0.1875000000000071
 40
0.1875000000000071
 40
0.2500000000000095
 40
0.2500000000000095
 40
0.2812500000000108
 40
0.2812500000000108
 40
0.312500000000012
 40
0.312500000000012
 40
0.3437500000000133
 40
0.3437500000000133
 40
0.3750000000000145
 40
0.3750000000000145
 40
0.437500000000017
 40
0.437500000000017
 40
0.4687500000000183
 40
0.4687500000000183
 40
0.5000000000000195
 40
0.5000000000000195
 40
0.562500000000022
 40
0.562500000000022
 40
0.6250000000000245
 40
0.6250000000000245
 40
0.6562500000000224
 40
0.6562500000000224
 40
0.6875000000000204
 40
0.6875000000000204
 40
0.7187500000000183
 40
0.7187500000000183
 40
0.7500000000000163
 40
0.7500000000000163
 40
0.8125000000000122
 40
0.8125000000000122
 40
0.8437500000000102
 40
0.8437500000000102
 40
0.8750000000000081
 40
0.8750000000000081
 40
0.9375000000000041
 40
0.9375000000000041
 40
1.0
 40
1.0
 40
1.0
 40
1.0
 10
-0.0631608445836937
 20
-7.764999999999999
 30
0.0
 10
-0.0631608445836937
 20
-7.76126726537357
 30
0.0
 10
-0.0627945696191063
 20
-7.757596922111889
 30
0.0
 10
-0.0613594429297053
 20
-7.75037591071039
 30
0.0
 10
-0.0602731778623733
 20
-7.746787849905754
 30
0.0
 10
-0.0574372400258629
 20
-7.739945612030229
 30
0.0
 10
-0.0557018203445687
 20
-7.736700437592631
 30
0.0
 10
-0.0516017655468934
 20
-7.730558801429007
 30
0.0
 10
-0.0492153506868011
 20
-7.727650986430882
 30
0.0
 10
-0.0413959989740607
 20
-7.71983299582063
 30
0.0
 10
-0.0350928149451062
 20
-7.715623564395882
 30
0.0
 10
-0.0214958805755435
 20
-7.709987900978779
 30
0.0
 10
-0.0140609321186799
 20
-7.708503999010317
 30
0.0
 10
-0.0030066946185059
 20
-7.70849801292105
 30
0.0
 10
0.0007359303627037
 20
-7.708864587571853
 30
0.0
 10
0.0079823512884398
 20
-7.710305634451657
 30
0.0
 10
0.0115043853166272
 20
-7.711371909230588
 30
0.0
 10
0.0183449720714278
 20
-7.714199834347568
 30
0.0
 10
0.0216542486440873
 20
-7.715968779448048
 30
0.0
 10
0.0277778487602623
 20
-7.720058020803789
 30
0.0
 10
0.0306319000166953
 20
-7.722392406643955
 30
0.0
 10
0.0385464844500086
 20
-7.73029883795413
 30
0.0
 10
0.0426947178880208
 20
-7.736518225187055
 30
0.0
 10
0.0469518443091395
 20
-7.746788386932264
 30
0.0
 10
0.0480207917351563
 20
-7.750310227816532
 30
0.0
 10
0.049467085587124
 20
-7.757548408757255
 30
0.0
 10
0.0498378480016783
 20
-7.761292813808545
 30
0.0
 10
0.0498417596476255
 20
-7.772354433243761
 30
0.0
 10
0.0483643176509024
 20
-7.779786702899792
 30
0.0
 10
0.042740214709899
 20
-7.793389265616802
 30
0.0
 10
0.0385337037634417
 20
-7.799698413376585
 30
0.0
 10
0.0307270574710007
 20
-7.807520160544582
 30
0.0
 10
0.0278241257070735
 20
-7.809907653749827
 30
0.0
 10
0.0216798979641072
 20
-7.814017474976874
 30
0.0
 10
0.0184362268191893
 20
-7.815754981506011
 30
0.0
 10
0.0116049810831212
 20
-7.818593756664243
 30
0.0
 10
0.0080117657126441
 20
-7.819685697756297
 30
0.0
 10
0.000789228288919
 20
-7.821127599683165
 30
0.0
 10
-0.0028782212717224
 20
-7.821496212860921
 30
0.0
 10
-0.0140551006926083
 20
-7.821507488031073
 30
0.0
 10
-0.021390864098735
 20
-7.820048027683246
 30
0.0
 10
-0.0316722423469062
 20
-7.815797954571152
 30
0.0
 10
-0.0349193528132821
 20
-7.814064397338008
 30
0.0
 10
-0.041059197243922
 20
-7.809973455590667
 30
0.0
 10
-0.0439704033027633
 20
-7.80758933455703
 30
0.0
 10
-0.0518009852978138
 20
-7.799771195774651
 30
0.0
 10
-0.0560125719994976
 20
-7.793475035154654
 30
0.0
 10
-0.0616604887933552
 20
-7.779881524209344
 30
0.0
 10
-0.0631608445836937
 20
-7.772465469252854
 30
0.0
 10
-0.0631608445836937
 20
-7.764999999999999
 30
0.0
  0
SPLINE
  5
8E
330
1F
100
AcDbEntity
  8
0
  6
Continuous
 62
     7
370
    25
100
AcDbSpline
210
0.0
220
0.0
230
1.0
 70
     8
 71
     3
 72
    30
 73
    26
 74
     0
 42
0.00000001
 43
0.00000001
 40
0.0
 40
0.0
 40
0.0
 40
0.0
 40
0.0294715572464744
 40
0.0589431211181264
 40
0.0884146982402348
 40
0.1178862952380646
 40
0.1473579187368695
 40
0.1768295753618893
 40
0.2063012717383384
 40
0.2357730144914007
 40
0.2652448102462329
 40
0.2947166656279628
 40
0.3241885872616568
 40
0.3536605817723599
 40
0.3831326557850575
 40
0.4126048159246747
 40
0.4420770688160996
 40
0.4715494210841324
 40
0.5010218793535205
 40
0.5839415316829187
 40
0.7498523800434774
 40
0.8267537166970879
 40
0.8940870159070723
 40
0.9518394258013806
 40
1.0
 40
1.0
 40
1.0
 40
1.0
 10
0.0
 20
7.817831767426729
 30
0.0
 10
0.0014926589010272
 20
7.817606222151402
 30
0.0
 10
0.0044779770386299
 20
7.817155131550042
 30
0.0
 10
0.0088625880715502
 20
7.815999431640849
 30
0.0
 10
0.0131385055627652
 20
7.814502691670676
 30
0.0
 10
0.0172704576171157
 20
7.812640978547487
 30
0.0
 10
0.0212297668979479
 20
7.810437052383654
 30
0.0
 10
0.0249875149996241
 20
7.807904340691283
 30
0.0
 10
0.0285166384800887
 20
7.805061809402646
 30
0.0
 10
0.0317916187411278
 20
7.801929815165161
 30
0.0
 10
0.0347888018261935
 20
7.798531032976847
 30
0.0
 10
0.0374865331883528
 20
7.794890004258257
 30
0.0
 10
0.0398653231697167
 20
7.791033037304282
 30
0.0
 10
0.0419079877753225
 20
7.786987994333176
 30
0.0
 10
0.0435997638950453
 20
7.782784103996849
 30
0.0
 10
0.0449284516807189
 20
7.778451717907745
 30
0.0
 10
0.0458843687199056
 20
7.774022206812304
 30
0.0
 10
0.0464609201211732
 20
7.769527304473785
 30
0.0
 10
0.0467687559522996
 20
7.762264078791246
 30
0.0
 10
0.0450815681359901
 20
7.747997903387771
 30
0.0
 10
0.0369981617307627
 20
7.732536769809038
 30
0.0
 10
0.0251485448762241
 20
7.721811045888323
 30
0.0
 10
0.0161580535532606
 20
7.716584230633502
 30
0.0
 10
0.0077909038737448
 20
7.713474777818235
 30
0.0
 10
0.002435293948205
 20
7.712576634702176
 30
0.0
 10
0.0000000000000002
 20
7.712168232573274
 30
0.0
  0
SPLINE
  5
8F
330
1F
100
AcDbEntity
  8
0
  6
Continuous
 62
     7
370
    25
100
AcDbSpline
210
0.0
220
0.0
230
1.0
 70
     8
 71
     3
 72
    30
 73
    26
 74
     0
 42
0.00000001
 43
0.00000001
 40
0.0
 40
0.0
 40
0.0
 40
0.0
 40
0.0624999999999997
 40
0.0624999999999997
 40
0.1249999999999995
 40
0.1249999999999995
 40
0.2499999999999937
 40
0.2499999999999937
 40
0.3124999999999967
 40
0.3124999999999967
 40
0.3749999999999998
 40
0.3749999999999998
 40
0.4999999999999893
 40
0.4999999999999893
 40
0.5624999999999932
 40
0.5624999999999932
 40
0.624999999999997
 40
0.624999999999997
 40
0.7499999999999883
 40
0.7499999999999883
 40
0.8124999999999899
 40
0.8124999999999899
 40
0.8749999999999916
 40
0.8749999999999916
 40
1.0
 40
1.0
 40
1.0
 40
1.0
 10
0.0000000000000001
 20
7.712168232573274
 30
0.0
 10
-0.0037158339470209
 20
7.711699753216528
 30
0.0
 10
-0.0075355106039317
 20
7.711624322394792
 30
0.0
 10
-0.0150344916514687
 20
7.712277992875399
 30
0.0
 10
-0.0187095470120754
 20
7.712994424747698
 30
0.0
 10
-0.0295108712727136
 20
7.716315370696344
 30
0.0
 10
-0.0362073148439375
 20
7.720058183985368
 30
0.0
 10
-0.0447161159473087
 20
7.727561271665231
 30
0.0
 10
-0.0472466398969699
 20
7.730323718903991
 30
0.0
 10
-0.0517096961494629
 20
7.736359954181848
 30
0.0
 10
-0.0536474066325099
 20
7.739664541511022
 30
0.0
 10
-0.0582775879716561
 20
7.749916426747048
 30
0.0
 10
-0.0599055426440221
 20
7.757470109760253
 30
0.0
 10
-0.0599134756539614
 20
7.768708562893287
 30
0.0
 10
-0.0595122413154072
 20
7.772512229268571
 30
0.0
 10
-0.0579319543230234
 20
7.779865296202034
 30
0.0
 10
-0.0567644209203716
 20
7.783423117915349
 30
0.0
 10
-0.0521205172763806
 20
7.793737592113231
 30
0.0
 10
-0.0475689091594942
 20
7.799916367031542
 30
0.0
 10
-0.0390754204926427
 20
7.807416067146165
 30
0.0
 10
-0.0360207726205898
 20
7.809583231457078
 30
0.0
 10
-0.0294718680259381
 20
7.813263102998092
 30
0.0
 10
-0.0259531653488589
 20
7.814773654006471
 30
0.0
 10
-0.0152096065852742
 20
7.818091169349413
 30
0.0
 10
-0.0075366557785111
 20
7.818781962645752
 30
0.0
 10
0.0
 20
7.817831767426728
 30
0.0
  0
SPLINE
  5
90
330
1F
100
AcDbEntity
  8
0
  6
Continuous
 62
     7
370
    25
100
AcDbSpline
210
0.0
220
0.0
230
1.0
 70
     8
 71
     3
 72
    30
 73
    26
 74
     0
 42
0.00000001
 43
0.00000001
 40
0.0
 40
0.0
 40
0.0
 40
0.0
 40
0.0624999999999994
 40
0.0624999999999994
 40
0.1249999999999988
 40
0.1249999999999988
 40
0.2499999999999885
 40
0.2499999999999885
 40
0.3124999999999907
 40
0.3124999999999907
 40
0.374999999999993
 40
0.374999999999993
 40
0.4999999999999828
 40
0.4999999999999828
 40
0.5624999999999868
 40
0.5624999999999868
 40
0.6249999999999908
 40
0.6249999999999908
 40
0.7499999999999807
 40
0.7499999999999807
 40
0.8124999999999831
 40
0.8124999999999831
 40
0.8749999999999855
 40
0.8749999999999855
 40
1.0
 40
1.0
 40
1.0
 40
1.0
 10
1.750000000000004
 20
7.712168232573274
 30
0.0
 10
1.74678199340564
 20
7.711699753216528
 30
0.0
 10
1.743471004591371
 20
7.711624322394795
 30
0.0
 10
1.736964607008925
 20
7.712277992875403
 30
0.0
 10
1.733772979439736
 20
7.712994424747695
 30
0.0
 10
1.724384332190497
 20
7.716315370696346
 30
0.0
 10
1.718552201201415
 20
7.720058183985366
 30
0.0
 10
1.711132452887604
 20
7.727561271665231
 30
0.0
 10
1.708924112068878
 20
7.730323718903993
 30
0.0
 10
1.705027442559182
 20
7.736359954181849
 30
0.0
 10
1.703334566554435
 20
7.739664541511023
 30
0.0
 10
1.69928820114901
 20
7.749916426747046
 30
0.0
 10
1.697863925608632
 20
7.757470109760253
 30
0.0
 10
1.697856987514372
 20
7.768708562893286
 30
0.0
 10
1.698207934448697
 20
7.77251222926857
 30
0.0
 10
1.699589761819521
 20
7.77986529620203
 30
0.0
 10
1.70061056843162
 20
7.783423117915347
 30
0.0
 10
1.704668942931919
 20
7.793737592113231
 30
0.0
 10
1.708644770798123
 20
7.799916367031543
 30
0.0
 10
1.716051198979954
 20
7.807416067146164
 30
0.0
 10
1.718713181069703
 20
7.809583231457079
 30
0.0
 10
1.72441533623198
 20
7.813263102998094
 30
0.0
 10
1.727476703050514
 20
7.814773654006475
 30
0.0
 10
1.736815234950024
 20
7.818091169349415
 30
0.0
 10
1.743473064636234
 20
7.818781962645755
 30
0.0
 10
1.750000000000004
 20
7.817831767426728
 30
0.0
  0
SPLINE
  5
91
330
1F
100
AcDbEntity
  8
0
  6
Continuous
 62
     7
370
    25
100
AcDbSpline
210
0.0
220
0.0
230
1.0
 70
     8
 71
     3
 72
    30
 73
    26
 74
     0
 42
0.00000001
 43
0.00000001
 40
0.0
 40
0.0
 40
0.0
 40
0.0
 40
0.0294715572464725
 40
0.0589431211181236
 40
0.0884146982402328
 40
0.1178862952380617
 40
0.1473579187368684
 40
0.1768295753618868
 40
0.206301271738336
 40
0.2357730144913996
 40
0.2652448102462314
 40
0.2947166656279618
 40
0.3241885872616558
 40
0.3536605817723582
 40
0.3831326557850563
 40
0.4126048159246741
 40
0.4420770688160989
 40
0.4715494210841317
 40
0.5010218793535199
 40
0.5839415316829185
 40
0.7498523800434779
 40
0.82675371669709
 40
0.8940870159070718
 40
0.9518394258013825
 40
1.0
 40
1.0
 40
1.0
 40
1.0
 10
1.750000000000004
 20
7.817831767426728
 30
0.0
 10
1.751292577279578
 20
7.8176062221514
 30
0.0
 10
1.753877732129298
 20
7.817155131550042
 30
0.0
 10
1.757673246436976
 20
7.815999431640845
 30
0.0
 10
1.761373633429358
 20
7.81450269167068
 30
0.0
 10
1.76494824907065
 20
7.812640978547484
 30
0.0
 10
1.768372284230964
 20
7.810437052383659
 30
0.0
 10
1.771620687826334
 20
7.807904340691277
 30
0.0
 10
1.774670024096412
 20
7.805061809402653
 30
0.0
 10
1.777498192824998
 20
7.801929815165161
 30
0.0
 10
1.780084709064339
 20
7.798531032976846
 30
0.0
 10
1.782410819970488
 20
7.794890004258258
 30
0.0
 10
1.784459644849864
 20
7.791033037304282
 30
0.0
 10
1.786216310001474
 20
7.786987994333178
 30
0.0
 10
1.787668000050791
 20
7.78278410399685
 30
0.0
 10
1.788804262129137
 20
7.778451717907745
 30
0.0
 10
1.789616291126658
 20
7.774022206812303
 30
0.0
 10
1.790099942776162
 20
7.769527304473781
 30
0.0
 10
1.790332293453683
 20
7.76226407879125
 30
0.0
 10
1.788900843776619
 20
7.747997903387764
 30
0.0
 10
1.781947973617346
 20
7.73253676980904
 30
0.0
 10
1.771734763920685
 20
7.721811045888322
 30
0.0
 10
1.763973347339477
 20
7.716584230633504
 30
0.0
 10
1.756743501823093
 20
7.713474777818234
 30
0.0
 10
1.752107895238555
 20
7.712576634702176
 30
0.0
 10
1.750000000000004
 20
7.712168232573274
 30
0.0
  0
SPLINE
  5
92
330
1F
100
AcDbEntity
  8
0
  6
Continuous
 62
     7
370
    25
100
AcDbSpline
210
0.0
220
0.0
230
1.0
 70
     8
 71
     3
 72
    30
 73
    26
 74
     0
 42
0.00000001
 43
0.00000001
 40
0.0
 40
0.0
 40
0.0
 40
0.0
 40
0.0624999999999921
 40
0.0624999999999921
 40
0.1249999999999843
 40
0.1249999999999843
 40
0.2499999999999676
 40
0.2499999999999676
 40
0.3124999999999652
 40
0.3124999999999652
 40
0.3749999999999629
 40
0.3749999999999629
 40
0.4999999999999399
 40
0.4999999999999399
 40
0.5624999999999375
 40
0.5624999999999375
 40
0.6249999999999352
 40
0.6249999999999352
 40
0.749999999999947
 40
0.749999999999947
 40
0.8124999999999589
 40
0.8124999999999589
 40
0.8749999999999708
 40
0.8749999999999708
 40
1.0
 40
1.0
 40
1.0
 40
1.0
 10
-1.749999999999961
 20
7.712168232573274
 30
0.0
 10
-1.753218006594326
 20
7.711699753216528
 30
0.0
 10
-1.756522891818312
 20
7.711624322394795
 30
0.0
 10
-1.763005110415197
 20
7.7122779928754
 30
0.0
 10
-1.766178865451207
 20
7.712994424747695
 30
0.0
 10
-1.775498660610421
 20
7.716315370696348
 30
0.0
 10
-1.781265110116716
 20
7.720058183985369
 30
0.0
 10
-1.788583037625442
 20
7.727561271665234
 30
0.0
 10
-1.790757692857299
 20
7.730323718903993
 30
0.0
 10
-1.794591263533959
 20
7.736359954181847
 30
0.0
 10
-1.796254600536208
 20
7.739664541511022
 30
0.0
 10
-1.800227944458442
 20
7.749916426747048
 30
0.0
 10
-1.80162336912302
 20
7.757470109760256
 30
0.0
 10
-1.801630171405032
 20
7.768708562893286
 30
0.0
 10
-1.80128616007924
 20
7.772512229268569
 30
0.0
 10
-1.799930850088716
 20
7.779865296202032
 30
0.0
 10
-1.798929429527887
 20
7.783423117915349
 30
0.0
 10
-1.794944326971338
 20
7.793737592113231
 30
0.0
 10
-1.791036538322953
 20
7.799916367031543
 30
0.0
 10
-1.783731812600286
 20
7.807416067146162
 30
0.0
 10
-1.781102989376408
 20
7.809583231457077
 30
0.0
 10
-1.775462109046828
 20
7.813263102998095
 30
0.0
 10
-1.772428904051931
 20
7.81477365400647
 30
0.0
 10
-1.76315904631881
 20
7.818091169349414
 30
0.0
 10
-1.756526935363731
 20
7.818781962645752
 30
0.0
 10
-1.749999999999961
 20
7.817831767426728
 30
0.0
  0
SPLINE
  5
93
330
1F
100
AcDbEntity
  8
0
  6
Continuous
 62
     7
370
    25
100
AcDbSpline
210
0.0
220
0.0
230
1.0
 70
     8
 71
     3
 72
    30
 73
    26
 74
     0
 42
0.00000001
 43
0.00000001
 40
0.0
 40
0.0
 40
0.0
 40
0.0
 40
0.0294715572464764
 40
0.0589431211181261
 40
0.0884146982402346
 40
0.1178862952380644
 40
0.1473579187368687
 40
0.1768295753618899
 40
0.2063012717383374
 40
0.2357730144914016
 40
0.2652448102462326
 40
0.2947166656279631
 40
0.3241885872616568
 40
0.3536605817723601
 40
0.3831326557850572
 40
0.4126048159246749
 40
0.4420770688160999
 40
0.4715494210841327
 40
0.5010218793535208
 40
0.5839415316829193
 40
0.7498523800434782
 40
0.826753716697089
 40
0.8940870159070738
 40
0.9518394258013818
 40
1.0
 40
1.0
 40
1.0
 40
1.0
 10
-1.749999999999961
 20
7.817831767426728
 30
0.0
 10
-1.748707216224586
 20
7.817606222151404
 30
0.0
 10
-1.746121648383221
 20
7.817155131550042
 30
0.0
 10
-1.742322793610455
 20
7.815999431640849
 30
0.0
 10
-1.738617074259079
 20
7.814502691670675
 30
0.0
 10
-1.735034939007799
 20
7.812640978547488
 30
0.0
 10
-1.731601249330831
 20
7.810437052383655
 30
0.0
 10
-1.728341042292054
 20
7.807904340691279
 30
0.0
 10
-1.725277757387782
 20
7.805061809402651
 30
0.0
 10
-1.722433493910463
 20
7.801929815165162
 30
0.0
 10
-1.719828736766884
 20
7.798531032976845
 30
0.0
 10
-1.717482239888601
 20
7.794890004258258
 30
0.0
 10
-1.715410879659719
 20
7.791033037304284
 30
0.0
 10
-1.713629545931597
 20
7.786987994333177
 30
0.0
 10
-1.712150993786523
 20
7.782784103996845
 30
0.0
 10
-1.710985901112686
 20
7.778451717907745
 30
0.0
 10
-1.710142233230515
 20
7.774022206812303
 30
0.0
 10
-1.709627268559848
 20
7.769527304473784
 30
0.0
 10
-1.709326431937468
 20
7.762264078791246
 30
0.0
 10
-1.710817277280164
 20
7.747997903387766
 30
0.0
 10
-1.717865277712971
 20
7.732536769809038
 30
0.0
 10
-1.728176206458597
 20
7.721811045888322
 30
0.0
 10
-1.735986777633768
 20
7.716584230633502
 30
0.0
 10
-1.743249260476839
 20
7.713474777818236
 30
0.0
 10
-1.747889842388856
 20
7.712576634702176
 30
0.0
 10
-1.749999999999961
 20
7.712168232573274
 30
0.0
  0
SPLINE
  5
94
330
1F
100
AcDbEntity
  8
0
  6
Continuous
 62
     7
370
    25
100
AcDbSpline
210
0.0
220
0.0
230
1.0
 70
     8
 71
     3
 72
    30
 73
    26
 74
     0
 42
0.00000001
 43
0.00000001
 40
0.0
 40
0.0
 40
0.0
 40
0.0
 40
0.0625000000000032
 40
0.0625000000000032
 40
0.1250000000000063
 40
0.1250000000000063
 40
0.2499999999999992
 40
0.2499999999999992
 40
0.3125000000000015
 40
0.3125000000000015
 40
0.3750000000000037
 40
0.3750000000000037
 40
0.4999999999999898
 40
0.4999999999999898
 40
0.562499999999992
 40
0.562499999999992
 40
0.6249999999999942
 40
0.6249999999999942
 40
0.7499999999999836
 40
0.7499999999999836
 40
0.8124999999999875
 40
0.8124999999999875
 40
0.8749999999999912
 40
0.8749999999999912
 40
1.0
 40
1.0
 40
1.0
 40
1.0
 10
-3.031088913245514
 20
7.712168232573274
 30
0.0
 10
-3.032946830219025
 20
7.711699753216528
 30
0.0
 10
-3.034851382683242
 20
7.711624322394793
 30
0.0
 10
-3.038579933591276
 20
7.7122779928754
 30
0.0
 10
-3.040401983203816
 20
7.712994424747697
 30
0.0
 10
-3.04574301767507
 20
7.716315370696346
 30
0.0
 10
-3.049034357628031
 20
7.720058183985366
 30
0.0
 10
-3.05320057877588
 20
7.727561271665234
 30
0.0
 10
-3.054436668176741
 20
7.730323718903993
 30
0.0
 10
-3.056613551110628
 20
7.736359954181845
 30
0.0
 10
-3.057556824825586
 20
7.739664541511022
 30
0.0
 10
-3.059808677035694
 20
7.749916426747051
 30
0.0
 10
-3.060597668780513
 20
7.757470109760253
 30
0.0
 10
-3.060601517668627
 20
7.768708562893288
 30
0.0
 10
-3.060406906912529
 20
7.77251222926857
 30
0.0
 10
-3.059639728141319
 20
7.779865296202031
 30
0.0
 10
-3.059072750252871
 20
7.783423117915348
 30
0.0
 10
-3.056814253795549
 20
7.793737592113234
 30
0.0
 10
-3.054597373428191
 20
7.799916367031543
 30
0.0
 10
-3.050438706008027
 20
7.807416067146162
 30
0.0
 10
-3.048940098492204
 20
7.809583231457077
 30
0.0
 10
-3.045718711756609
 20
7.813263102998092
 30
0.0
 10
-3.043983749272757
 20
7.814773654006472
 30
0.0
 10
-3.03867144346364
 20
7.818091169349414
 30
0.0
 10
-3.03485724113477
 20
7.818781962645751
 30
0.0
 10
-3.031088913245514
 20
7.817831767426728
 30
0.0
  0
SPLINE
  5
95
330
1F
100
AcDbEntity
  8
0
  6
Continuous
 62
     7
370
    25
100
AcDbSpline
210
0.0
220
0.0
230
1.0
 70
     8
 71
     3
 72
    30
 73
    26
 74
     0
 42
0.00000001
 43
0.00000001
 40
0.0
 40
0.0
 40
0.0
 40
0.0
 40
0.0294715572464756
 40
0.0589431211181269
 40
0.088414698240234
 40
0.1178862952380644
 40
0.1473579187368697
 40
0.1768295753618892
 40
0.2063012717383383
 40
0.2357730144914006
 40
0.2652448102462345
 40
0.2947166656279629
 40
0.3241885872616577
 40
0.3536605817723599
 40
0.3831326557850573
 40
0.4126048159246749
 40
0.4420770688161
 40
0.4715494210841327
 40
0.5010218793535208
 40
0.5839415316829192
 40
0.7498523800434779
 40
0.8267537166970872
 40
0.8940870159070717
 40
0.951839425801379
 40
0.9999999999999999
 40
0.9999999999999999
 40
0.9999999999999999
 40
0.9999999999999999
 10
-3.031088913245514
 20
7.817831767426728
 30
0.0
 10
-3.030342404964392
 20
7.8176062221514
 30
0.0
 10
-3.028849388234334
 20
7.817155131550042
 30
0.0
 10
-3.026654189790247
 20
7.815999431640847
 30
0.0
 10
-3.024511613086289
 20
7.814502691670674
 30
0.0
 10
-3.022439124885838
 20
7.812640978547488
 30
0.0
 10
-3.020451109188737
 20
7.810437052383654
 30
0.0
 10
-3.018562013056059
 20
7.80790434069128
 30
0.0
 10
-3.016785371444264
 20
7.805061809402649
 30
0.0
 10
-3.015133942852474
 20
7.801929815165161
 30
0.0
 10
-3.013619554223483
 20
7.798531032976845
 30
0.0
 10
-3.012253033772658
 20
7.794890004258261
 30
0.0
 10
-3.011044122596815
 20
7.791033037304278
 30
0.0
 10
-3.010001426680082
 20
7.786987994333179
 30
0.0
 10
-3.009132275362895
 20
7.782784103996846
 30
0.0
 10
-3.008442963441956
 20
7.778451717907746
 30
0.0
 10
-3.007937604844509
 20
7.774022206812304
 30
0.0
 10
-3.007622211272081
 20
7.769527304473785
 30
0.0
 10
-3.007408982788464
 20
7.762264078791245
 30
0.0
 10
-3.008304014851935
 20
7.74799790338777
 30
0.0
 10
-3.012428103288094
 20
7.732536769809037
 30
0.0
 10
-3.018437538894201
 20
7.72181104588832
 30
0.0
 10
-3.02297535368277
 20
7.716584230633506
 30
0.0
 10
-3.027187193276547
 20
7.713474777818232
 30
0.0
 10
-3.029869306999308
 20
7.712576634702178
 30
0.0
 10
-3.031088913245514
 20
7.712168232573274
 30
0.0
  0
SPLINE
  5
96
330
1F
100
AcDbEntity
  8
0
  6
Continuous
 62
     7
370
    25
100
AcDbSpline
210
0.0
220
0.0
230
1.0
 70
     8
 71
     3
 72
    30
 73
    26
 74
     0
 42
0.00000001
 43
0.00000001
 40
0.0
 40
0.0
 40
0.0
 40
0.0
 40
0.0294715572464744
 40
0.0589431211181264
 40
0.0884146982402348
 40
0.1178862952380646
 40
0.1473579187368695
 40
0.1768295753618893
 40
0.2063012717383384
 40
0.2357730144914007
 40
0.2652448102462329
 40
0.2947166656279628
 40
0.3241885872616568
 40
0.3536605817723599
 40
0.3831326557850575
 40
0.4126048159246747
 40
0.4420770688160996
 40
0.4715494210841324
 40
0.5010218793535205
 40
0.5839415316829187
 40
0.7498523800434774
 40
0.8267537166970879
 40
0.8940870159070723
 40
0.9518394258013806
 40
1.0
 40
1.0
 40
1.0
 40
1.0
 10
-3.5
 20
7.817831767426729
 30
0.0
 10
-3.4999997935042
 20
7.817606222151402
 30
0.0
 10
-3.499999380512555
 20
7.817155131550042
 30
0.0
 10
-3.499996040047466
 20
7.815999431640849
 30
0.0
 10
-3.499990707688472
 20
7.814502691670676
 30
0.0
 10
-3.499983188078483
 20
7.812640978547485
 30
0.0
 10
-3.49997353356183
 20
7.810437052383657
 30
0.0
 10
-3.499961730118421
 20
7.807904340691275
 30
0.0
 10
-3.499947781484231
 20
7.805061809402655
 30
0.0
 10
-3.499931686735494
 20
7.801929815165157
 30
0.0
 10
-3.499913445831258
 20
7.798531032976849
 30
0.0
 10
-3.499893059859124
 20
7.794890004258257
 30
0.0
 10
-3.499870524509617
 20
7.791033037304282
 30
0.0
 10
-3.499845855933106
 20
7.786987994333176
 30
0.0
 10
-3.49981899383735
 20
7.782784103996849
 30
0.0
 10
-3.499790163241856
 20
7.778451717907745
 30
0.0
 10
-3.499758524357208
 20
7.774022206812304
 30
0.0
 10
-3.499727211336046
 20
7.769527304473785
 30
0.0
 10
-3.499658725391185
 20
7.762264078791246
 30
0.0
 10
-3.499718121056821
 20
7.747997903387771
 30
0.0
 10
-3.49981325133035
 20
7.732536769809038
 30
0.0
 10
-3.499910970379317
 20
7.721811045888323
 30
0.0
 10
-3.499960124973279
 20
7.716584230633502
 30
0.0
 10
-3.499992762299967
 20
7.713474777818235
 30
0.0
 10
-3.499997737627447
 20
7.712576634702176
 30
0.0
 10
-3.5
 20
7.712168232573274
 30
0.0
  0
SPLINE
  5
97
330
1F
100
AcDbEntity
  8
0
  6
Continuous
 62
     7
370
    25
100
AcDbSpline
210
0.0
220
0.0
230
1.0
 70
     8
 71
     3
 72
    13
 73
     9
 74
     0
 42
0.00000001
 43
0.00000001
 40
0.0
 40
0.0
 40
0.0
 40
0.0
 40
0.142571144375363
 40
0.3122307219854613
 40
0.4330968822419471
 40
0.5050588649821252
 40
0.7943599920056609
 40
1.0
 40
1.0
 40
1.0
 40
1.0
 10
1.718690044626926
 20
7.733943378764518
 30
0.0
 10
1.717056478669708
 20
7.736486471782101
 30
0.0
 10
1.713478970188115
 20
7.742055843988762
 30
0.0
 10
1.710844276211048
 20
7.751269579742891
 30
0.0
 10
1.709645676767542
 20
7.759161919336323
 30
0.0
 10
1.709280468991325
 20
7.769771831087334
 30
0.0
 10
1.710925769186627
 20
7.782682851752143
 30
0.0
 10
1.71638636398641
 20
7.791723004154234
 30
0.0
 10
1.718655152492422
 20
7.795479040742643
 30
0.0
  0
SPLINE
  5
98
330
1F
100
AcDbEntity
  8
0
  6
Continuous
 62
     7
370
    25
100
AcDbSpline
210
0.0
220
0.0
230
1.0
 70
     8
 71
     3
 72
    30
 73
    26
 74
     0
 42
0.00000001
 43
0.00000001
 40
0.0
 40
0.0
 40
0.0
 40
0.0
 40
0.0624999999999997
 40
0.0624999999999997
 40
0.1249999999999994
 40
0.1249999999999994
 40
0.2499999999999936
 40
0.2499999999999936
 40
0.3124999999999966
 40
0.3124999999999966
 40
0.3749999999999997
 40
0.3749999999999997
 40
0.4999999999999892
 40
0.4999999999999892
 40
0.5624999999999931
 40
0.5624999999999931
 40
0.6249999999999969
 40
0.6249999999999969
 40
0.7499999999999881
 40
0.7499999999999881
 40
0.8124999999999898
 40
0.8124999999999898
 40
0.8749999999999913
 40
0.8749999999999913
 40
1.0
 40
1.0
 40
1.0
 40
1.0
 10
3.5
 20
7.712168232573274
 30
0.0
 10
3.5
 20
7.711699753216527
 30
0.0
 10
3.499993896409719
 20
7.711624322394795
 30
0.0
 10
3.499969717424155
 20
7.712277992875402
 30
0.0
 10
3.499951844890977
 20
7.712994424747695
 30
0.0
 10
3.499882992800952
 20
7.716315370696347
 30
0.0
 10
3.499817311318167
 20
7.720058183985369
 30
0.0
 10
3.499715490513082
 20
7.727561271665233
 30
0.0
 10
3.499681804926212
 20
7.730323718903993
 30
0.0
 10
3.499618706093176
 20
7.736359954181849
 30
0.0
 10
3.499589167090678
 20
7.739664541511022
 30
0.0
 10
3.499516145607489
 20
7.749916426747047
 30
0.0
 10
3.499487294731688
 20
7.757470109760256
 30
0.0
 10
3.499487158919441
 20
7.768708562893287
 30
0.0
 10
3.499494094527972
 20
7.772512229268569
 30
0.0
 10
3.499520611908274
 20
7.779865296202034
 30
0.0
 10
3.499539997959543
 20
7.783423117915349
 30
0.0
 10
3.499613269903292
 20
7.793737592113231
 30
0.0
 10
3.499681309121112
 20
7.799916367031543
 30
0.0
 10
3.499783011580274
 20
7.807416067146162
 30
0.0
 10
3.499816170446144
 20
7.809583231457077
 30
0.0
 10
3.499877445278842
 20
7.813263102998092
 30
0.0
 10
3.49990560710248
 20
7.814773654006472
 30
0.0
 10
3.49997428126887
 20
7.818091169349413
 30
0.0
 10
3.500000000000001
 20
7.818781962645755
 30
0.0
 10
3.5
 20
7.817831767426728
 30
0.0
  0
SPLINE
  5
99
330
1F
100
AcDbEntity
  8
0
  6
Continuous
 62
     7
370
    25
100
AcDbSpline
210
0.0
220
0.0
230
1.0
 70
     8
 71
     3
 72
    30
 73
    26
 74
     0
 42
0.00000001
 43
0.00000001
 40
0.0
 40
0.0
 40
0.0
 40
0.0
 40
0.0294715572464744
 40
0.0589431211181264
 40
0.0884146982402348
 40
0.1178862952380646
 40
0.1473579187368695
 40
0.1768295753618893
 40
0.2063012717383384
 40
0.2357730144914007
 40
0.2652448102462329
 40
0.2947166656279628
 40
0.3241885872616568
 40
0.3536605817723599
 40
0.3831326557850575
 40
0.4126048159246747
 40
0.4420770688160996
 40
0.4715494210841324
 40
0.5010218793535205
 40
0.5839415316829187
 40
0.7498523800434774
 40
0.8267537166970879
 40
0.8940870159070723
 40
0.9518394258013806
 40
1.0
 40
1.0
 40
1.0
 40
1.0
 10
3.5
 20
7.817831767426729
 30
0.0
 10
3.4999997935042
 20
7.817606222151402
 30
0.0
 10
3.499999380512555
 20
7.817155131550042
 30
0.0
 10
3.499996040047466
 20
7.815999431640849
 30
0.0
 10
3.499990707688472
 20
7.814502691670676
 30
0.0
 10
3.499983188078483
 20
7.812640978547487
 30
0.0
 10
3.49997353356183
 20
7.810437052383654
 30
0.0
 10
3.499961730118425
 20
7.807904340691283
 30
0.0
 10
3.499947781484227
 20
7.805061809402646
 30
0.0
 10
3.499931686735497
 20
7.801929815165161
 30
0.0
 10
3.499913445831258
 20
7.798531032976847
 30
0.0
 10
3.499893059859125
 20
7.794890004258257
 30
0.0
 10
3.499870524509617
 20
7.791033037304282
 30
0.0
 10
3.499845855933107
 20
7.786987994333176
 30
0.0
 10
3.499818993837351
 20
7.782784103996849
 30
0.0
 10
3.499790163241856
 20
7.778451717907745
 30
0.0
 10
3.49975852435721
 20
7.774022206812304
 30
0.0
 10
3.499727211336046
 20
7.769527304473785
 30
0.0
 10
3.499658725391186
 20
7.762264078791246
 30
0.0
 10
3.499718121056822
 20
7.747997903387771
 30
0.0
 10
3.499813251330351
 20
7.732536769809038
 30
0.0
 10
3.499910970379317
 20
7.721811045888323
 30
0.0
 10
3.499960124973279
 20
7.716584230633502
 30
0.0
 10
3.499992762299967
 20
7.713474777818235
 30
0.0
 10
3.499997737627447
 20
7.712576634702176
 30
0.0
 10
3.5
 20
7.712168232573274
 30
0.0
  0
SPLINE
  5
9A
330
1F
100
AcDbEntity
  8
0
  6
Continuous
 62
     7
370
    25
100
AcDbSpline
210
0.0
220
0.0
230
1.0
 70
     8
 71
     3
 72
    30
 73
    26
 74
     0
 42
0.00000001
 43
0.00000001
 40
0.0
 40
0.0
 40
0.0
 40
0.0
 40
0.0625000000000016
 40
0.0625000000000016
 40
0.1250000000000032
 40
0.1250000000000032
 40
0.2499999999999967
 40
0.2499999999999967
 40
0.3124999999999994
 40
0.3124999999999994
 40
0.3750000000000022
 40
0.3750000000000022
 40
0.4999999999999926
 40
0.4999999999999926
 40
0.5624999999999969
 40
0.5624999999999969
 40
0.6250000000000012
 40
0.6250000000000012
 40
0.7499999999999933
 40
0.7499999999999933
 40
0.8124999999999936
 40
0.8124999999999936
 40
0.8749999999999939
 40
0.8749999999999939
 40
1.0
 40
1.0
 40
1.0
 40
1.0
 10
3.03108891324554
 20
7.712168232573274
 30
0.0
 10
3.02923099627203
 20
7.711699753216529
 30
0.0
 10
3.027315872079336
 20
7.711624322394795
 30
0.0
 10
3.023545441939831
 20
7.7122779928754
 30
0.0
 10
3.021692436191767
 20
7.712994424747697
 30
0.0
 10
3.016232146402381
 20
7.716315370696347
 30
0.0
 10
3.01282704278412
 20
7.720058183985368
 30
0.0
 10
3.008484462828595
 20
7.72756127166523
 30
0.0
 10
3.007190028279795
 20
7.73032371890399
 30
0.0
 10
3.00490385496119
 20
7.736359954181846
 30
0.0
 10
3.003909418193101
 20
7.739664541511023
 30
0.0
 10
3.001531089064063
 20
7.74991642674705
 30
0.0
 10
3.000692126136516
 20
7.757470109760256
 30
0.0
 10
3.00068804201469
 20
7.768708562893287
 30
0.0
 10
3.000894665597146
 20
7.77251222926857
 30
0.0
 10
3.001707773818321
 20
7.779865296202034
 30
0.0
 10
3.002308329332525
 20
7.783423117915349
 30
0.0
 10
3.004693736519193
 20
7.793737592113231
 30
0.0
 10
3.007028464268721
 20
7.799916367031542
 30
0.0
 10
3.011363285515408
 20
7.807416067146162
 30
0.0
 10
3.012919325871638
 20
7.809583231457077
 30
0.0
 10
3.016246843730696
 20
7.813263102998095
 30
0.0
 10
3.01803058392392
 20
7.814773654006472
 30
0.0
 10
3.02346183687839
 20
7.818091169349414
 30
0.0
 10
3.027320585356283
 20
7.818781962645751
 30
0.0
 10
3.031088913245539
 20
7.817831767426728
 30
0.0
  0
SPLINE
  5
9B
330
1F
100
AcDbEntity
  8
0
  6
Continuous
 62
     7
370
    25
100
AcDbSpline
210
0.0
220
0.0
230
1.0
 70
     8
 71
     3
 72
    30
 73
    26
 74
     0
 42
0.00000001
 43
0.00000001
 40
0.0
 40
0.0
 40
0.0
 40
0.0
 40
0.0294715572464748
 40
0.058943121118126
 40
0.0884146982402347
 40
0.1178862952380645
 40
0.1473579187368715
 40
0.1768295753618885
 40
0.20630127173834
 40
0.2357730144914005
 40
0.2652448102462336
 40
0.2947166656279631
 40
0.3241885872616577
 40
0.3536605817723609
 40
0.3831326557850573
 40
0.4126048159246749
 40
0.4420770688160999
 40
0.4715494210841329
 40
0.5010218793535209
 40
0.5839415316829193
 40
0.749852380043478
 40
0.8267537166970875
 40
0.8940870159070723
 40
0.9518394258013817
 40
0.9999999999999999
 40
0.9999999999999999
 40
0.9999999999999999
 40
0.9999999999999999
 10
3.03108891324554
 20
7.817831767426729
 30
0.0
 10
3.031835063865445
 20
7.8176062221514
 30
0.0
 10
3.033327365272989
 20
7.817155131550041
 30
0.0
 10
3.035516777861823
 20
7.815999431640851
 30
0.0
 10
3.037650118649079
 20
7.814502691670673
 30
0.0
 10
3.039709582502978
 20
7.812640978547487
 30
0.0
 10
3.041680876086712
 20
7.810437052383657
 30
0.0
 10
3.043549528055706
 20
7.807904340691277
 30
0.0
 10
3.045302009924381
 20
7.805061809402654
 30
0.0
 10
3.046925561593627
 20
7.801929815165158
 30
0.0
 10
3.048408356049703
 20
7.798531032976847
 30
0.0
 10
3.049739566961035
 20
7.794890004258257
 30
0.0
 10
3.05090944576656
 20
7.791033037304284
 30
0.0
 10
3.051909414455431
 20
7.786987994333179
 30
0.0
 10
3.052732039257964
 20
7.782784103996844
 30
0.0
 10
3.0533714151227
 20
7.778451717907749
 30
0.0
 10
3.053821973564439
 20
7.774022206812303
 30
0.0
 10
3.054083131393278
 20
7.769527304473785
 30
0.0
 10
3.05417773874079
 20
7.762264078791246
 30
0.0
 10
3.053385582987949
 20
7.747997903387767
 30
0.0
 10
3.049426265018882
 20
7.732536769809038
 30
0.0
 10
3.043586083770451
 20
7.721811045888322
 30
0.0
 10
3.039133407236054
 20
7.716584230633504
 30
0.0
 10
3.034978097150318
 20
7.713474777818232
 30
0.0
 10
3.032304600947538
 20
7.712576634702176
 30
0.0
 10
3.03108891324554
 20
7.712168232573274
 30
0.0
  0
SPLINE
  5
9C
330
1F
100
AcDbEntity
  8
0
  6
Continuous
 62
     7
370
    25
100
AcDbSpline
210
0.0
220
0.0
230
1.0
 70
    11
 71
     3
 72
    50
 73
    46
 74
     0
 42
0.00000001
 43
0.00000001
 40
0.0
 40
0.0
 40
0.0
 40
0.0
 40
0.0625000000000069
 40
0.0625000000000069
 40
0.0937500000000092
 40
0.0937500000000092
 40
0.1250000000000115
 40
0.1250000000000115
 40
0.1875000000000144
 40
0.1875000000000144
 40
0.2500000000000173
 40
0.2500000000000173
 40
0.2812500000000188
 40
0.2812500000000188
 40
0.3125000000000203
 40
0.3125000000000203
 40
0.3750000000000231
 40
0.3750000000000231
 40
0.4375000000000261
 40
0.4375000000000261
 40
0.4687500000000265
 40
0.4687500000000265
 40
0.5000000000000269
 40
0.5000000000000269
 40
0.5625000000000252
 40
0.5625000000000252
 40
0.6250000000000235
 40
0.6250000000000235
 40
0.6562500000000218
 40
0.6562500000000218
 40
0.68750000000002
 40
0.68750000000002
 40
0.7187500000000182
 40
0.7187500000000182
 40
0.7500000000000163
 40
0.7500000000000163
 40
0.8125000000000129
 40
0.8125000000000129
 40
0.8437500000000107
 40
0.8437500000000107
 40
0.8750000000000085
 40
0.8750000000000085
 40
0.9375000000000043
 40
0.9375000000000043
 40
1.0
 40
1.0
 40
1.0
 40
1.0
 10
-0.0599108445836939
 20
-2.338333333333334
 30
0.0
 10
-0.0599108445836939
 20
-2.345369359171913
 30
0.0
 10
-0.0585256945987209
 20
-2.35227352645567
 30
0.0
 10
-0.0545164834640902
 20
-2.361946520648718
 30
0.0
 10
-0.052880888488722
 20
-2.365005029258378
 30
0.0
 10
-0.0490166753685704
 20
-2.370793392184538
 30
0.0
 10
-0.0467675261767063
 20
-2.373533952065243
 30
0.0
 10
-0.0393979383521051
 20
-2.380902254645113
 30
0.0
 10
-0.0334573113211317
 20
-2.384869553318611
 30
0.0
 10
-0.020642485246242
 20
-2.390181034579503
 30
0.0
 10
-0.0136352162679126
 20
-2.391579568753609
 30
0.0
 10
-0.0032168623388267
 20
-2.391585203938998
 30
0.0
 10
0.0003104695615684
 20
-2.3912397150833
 30
0.0
 10
0.0071400535615046
 20
-2.389881559890326
 30
0.0
 10
0.0104594878004905
 20
-2.388876620233108
 30
0.0
 10
0.0201301217428372
 20
-2.384878742877153
 30
0.0
 10
0.0260003081124483
 20
-2.380973919892682
 30
0.0
 10
0.0359460552228741
 20
-2.371038418663282
 30
0.0
 10
0.0398556865307272
 20
-2.365176769788341
 30
0.0
 10
0.0438679374376149
 20
-2.355497350909395
 30
0.0
 10
0.0448753940137901
 20
-2.352178093772619
 30
0.0
 10
0.0462384885944854
 20
-2.345356283546883
 30
0.0
 10
0.0465879233052521
 20
-2.341827270134087
 30
0.0
 10
0.0465916096516684
 20
-2.331401946592967
 30
0.0
 10
0.0451991585937712
 20
-2.324397213316436
 30
0.0
 10
0.0398985733995027
 20
-2.311577101017142
 30
0.0
 10
0.0359340243354365
 20
-2.305630855570347
 30
0.0
 10
0.0285764349928456
 20
-2.298259030712278
 30
0.0
 10
0.0258404903110878
 20
-2.296008872585803
 30
0.0
 10
0.0200496745995696
 20
-2.292135444718457
 30
0.0
 10
0.016992584811177
 20
-2.290497884321915
 30
0.0
 10
0.0105543050567331
 20
-2.287822408503947
 30
0.0
 10
0.007167773900271
 20
-2.286793275289968
 30
0.0
 10
0.0003606957146103
 20
-2.285434314021745
 30
0.0
 10
-0.0030957841387233
 20
-2.285086905388586
 30
0.0
 10
-0.0136296861017019
 20
-2.285076270634542
 30
0.0
 10
-0.0205434808489936
 20
-2.286451759541539
 30
0.0
 10
-0.0302334961110176
 20
-2.290457365487572
 30
0.0
 10
-0.0332938322920383
 20
-2.292091206571817
 30
0.0
 10
-0.0390804992078335
 20
-2.295946822321546
 30
0.0
 10
-0.0418242564579813
 20
-2.298193807258631
 30
0.0
 10
-0.0492044432323017
 20
-2.305562262758872
 30
0.0
 10
-0.0531737658513128
 20
-2.311496258219144
 30
0.0
 10
-0.0584968018554463
 20
-2.324307857253945
 30
0.0
 10
-0.0599108445836939
 20
-2.331297307494756
 30
0.0
 10
-0.0599108445836939
 20
-2.338333333333334
 30
0.0
  0
SPLINE
  5
9D
330
1F
100
AcDbEntity
  8
0
  6
Continuous
 62
     7
370
    25
100
AcDbSpline
210
0.0
220
0.0
230
1.0
 70
    11
 71
     3
 72
    50
 73
    46
 74
     0
 42
0.00000001
 43
0.00000001
 40
0.0
 40
0.0
 40
0.0
 40
0.0
 40
0.062500000000007
 40
0.062500000000007
 40
0.0937500000000093
 40
0.0937500000000093
 40
0.1250000000000117
 40
0.1250000000000117
 40
0.1875000000000146
 40
0.1875000000000146
 40
0.2500000000000175
 40
0.2500000000000175
 40
0.281250000000019
 40
0.281250000000019
 40
0.3125000000000205
 40
0.3125000000000205
 40
0.3750000000000235
 40
0.3750000000000235
 40
0.4375000000000265
 40
0.4375000000000265
 40
0.4687500000000269
 40
0.4687500000000269
 40
0.5000000000000272
 40
0.5000000000000272
 40
0.5625000000000255
 40
0.5625000000000255
 40
0.6250000000000239
 40
0.6250000000000239
 40
0.6562500000000221
 40
0.6562500000000221
 40
0.6875000000000204
 40
0.6875000000000204
 40
0.7187500000000187
 40
0.7187500000000187
 40
0.7500000000000169
 40
0.7500000000000169
 40
0.8125000000000133
 40
0.8125000000000133
 40
0.8437500000000112
 40
0.8437500000000112
 40
0.8750000000000089
 40
0.8750000000000089
 40
0.9375000000000044
 40
0.9375000000000044
 40
1.0
 40
1.0
 40
1.0
 40
1.0
 10
-0.059910844583694
 20
2.338333333333334
 30
0.0
 10
-0.059910844583694
 20
2.331297307494755
 30
0.0
 10
-0.058525694598721
 20
2.324393140210998
 30
0.0
 10
-0.0545164834640902
 20
2.31472014601795
 30
0.0
 10
-0.052880888488722
 20
2.311661637408291
 30
0.0
 10
-0.0490166753685704
 20
2.305873274482129
 30
0.0
 10
-0.0467675261767063
 20
2.303132714601424
 30
0.0
 10
-0.0393979383521051
 20
2.295764412021553
 30
0.0
 10
-0.0334573113211317
 20
2.291797113348059
 30
0.0
 10
-0.020642485246242
 20
2.286485632087165
 30
0.0
 10
-0.0136352162679126
 20
2.285087097913059
 30
0.0
 10
-0.0032168623388267
 20
2.285081462727671
 30
0.0
 10
0.0003104695615684
 20
2.285426951583368
 30
0.0
 10
0.0071400535615046
 20
2.286785106776342
 30
0.0
 10
0.0104594878004904
 20
2.287790046433561
 30
0.0
 10
0.0201301217428371
 20
2.291787923789514
 30
0.0
 10
0.0260003081124485
 20
2.295692746773985
 30
0.0
 10
0.0359460552228743
 20
2.305628248003387
 30
0.0
 10
0.0398556865307272
 20
2.311489896878328
 30
0.0
 10
0.043867937437615
 20
2.321169315757273
 30
0.0
 10
0.0448753940137901
 20
2.324488572894048
 30
0.0
 10
0.0462384885944855
 20
2.331310383119785
 30
0.0
 10
0.0465879233052521
 20
2.334839396532581
 30
0.0
 10
0.0465916096516685
 20
2.3452647200737
 30
0.0
 10
0.0451991585937713
 20
2.352269453350233
 30
0.0
 10
0.0398985733995028
 20
2.365089565649526
 30
0.0
 10
0.0359340243354365
 20
2.371035811096323
 30
0.0
 10
0.0285764349928456
 20
2.378407635954389
 30
0.0
 10
0.0258404903110878
 20
2.380657794080866
 30
0.0
 10
0.0200496745995696
 20
2.384531221948211
 30
0.0
 10
0.016992584811177
 20
2.386168782344755
 30
0.0
 10
0.0105543050567331
 20
2.38884425816272
 30
0.0
 10
0.007167773900271
 20
2.3898733913767
 30
0.0
 10
0.0003606957146102
 20
2.391232352644924
 30
0.0
 10
-0.0030957841387233
 20
2.391579761278082
 30
0.0
 10
-0.013629686101702
 20
2.391590396032126
 30
0.0
 10
-0.0205434808489936
 20
2.39021490712513
 30
0.0
 10
-0.0302334961110177
 20
2.386209301179095
 30
0.0
 10
-0.0332938322920383
 20
2.384575460094851
 30
0.0
 10
-0.0390804992078335
 20
2.380719844345121
 30
0.0
 10
-0.0418242564579813
 20
2.378472859408037
 30
0.0
 10
-0.0492044432323017
 20
2.371104403907796
 30
0.0
 10
-0.0531737658513128
 20
2.365170408447525
 30
0.0
 10
-0.0584968018554464
 20
2.352358809412723
 30
0.0
 10
-0.059910844583694
 20
2.345369359171912
 30
0.0
 10
-0.059910844583694
 20
2.338333333333334
 30
0.0
  0
SPLINE
  5
9E
330
1F
100
AcDbEntity
  8
0
  6
Continuous
 62
     7
370
    25
100
AcDbSpline
210
0.0
220
0.0
230
1.0
 70
     8
 71
     3
 72
    16
 73
    12
 74
     0
 42
0.00000001
 43
0.00000001
 40
0.0
 40
0.0
 40
0.0
 40
0.0
 40
0.1053407703034498
 40
0.2226363778813007
 40
0.3399452908184966
 40
0.4572568240650316
 40
0.5745575141562084
 40
0.6918528351373706
 40
0.8091573580200109
 40
0.9264700100052025
 40
1.0
 40
1.0
 40
1.0
 40
1.0
 10
-0.0016089594959498
 20
-7.820596143151787
 30
0.0
 10
-0.0072060722471383
 20
-7.819372372099491
 30
0.0
 10
-0.0190354988397883
 20
-7.816785947549392
 30
0.0
 10
-0.0341621012110306
 20
-7.80549627511836
 30
0.0
 10
-0.0453173333924657
 20
-7.789813692665229
 30
0.0
 10
-0.0505866583368531
 20
-7.771178593466697
 30
0.0
 10
-0.049408640413154
 20
-7.751895225773919
 30
0.0
 10
-0.041909233280304
 20
-7.734053575557674
 30
0.0
 10
-0.0289318005285925
 20
-7.71979754793445
 30
0.0
 10
-0.014065041282641
 20
-7.711466498777356
 30
0.0
 10
-0.0039119115207344
 20
-7.709609489932439
 30
0.0
 10
-0.0000000000000002
 20
-7.708894000771471
 30
0.0
  0
SPLINE
  5
9F
330
1F
100
AcDbEntity
  8
0
  6
Continuous
 62
     7
370
    25
100
AcDbSpline
210
0.0
220
0.0
230
1.0
 70
     8
 71
     3
 72
    13
 73
     9
 74
     0
 42
0.00000001
 43
0.00000001
 40
0.0
 40
0.0
 40
0.0
 40
0.0
 40
0.0552117895825322
 40
0.2486373065190161
 40
0.4420671439685451
 40
0.6354791026151947
 40
0.8288822083720334
 40
1.0
 40
1.0
 40
1.0
 40
1.0
 10
1.712551338447435
 20
-7.807976181193755
 30
0.0
 10
1.713852452212375
 20
-7.806972751154505
 30
0.0
 10
1.719711806245921
 20
-7.802453967320002
 30
0.0
 10
1.726428389973978
 20
-7.789552979773111
 30
0.0
 10
1.731178951031889
 20
-7.771230776041022
 30
0.0
 10
1.730038632494762
 20
-7.751947176985089
 30
0.0
 10
1.724124012027803
 20
-7.73449130505927
 30
0.0
 10
1.716678260456102
 20
-7.72613318911224
 30
0.0
 10
1.713182986042205
 20
-7.722209621620533
 30
0.0
  0
SPLINE
  5
A4
330
1F
100
AcDbEntity
  8
0
  6
Continuous
 62
     7
370
    25
100
AcDbSpline
210
0.0
220
0.0
230
1.0
 70
     8
 71
     3
 72
    13
 73
     9
 74
     0
 42
0.00000001
 43
0.00000001
 40
0.0
 40
0.0
 40
0.0
 40
0.0
 40
0.1099450211481392
 40
0.3037166674827466
 40
0.4974732222454685
 40
0.691200516787588
 40
0.8849265642750802
 40
1.0
 40
1.0
 40
1.0
 40
1.0
 10
-1.724294020039649
 20
-7.722467666913144
 30
0.0
 10
-1.726722800643969
 20
-7.72471883604771
 30
0.0
 10
-1.733432164501353
 20
-7.730937558645163
 30
0.0
 10
-1.739901349778947
 20
-7.745951340196532
 30
0.0
 10
-1.742885005935552
 20
-7.764871365943666
 30
0.0
 10
-1.739978048281359
 20
-7.78381430181065
 30
0.0
 10
-1.733479502855843
 20
-7.798990109661789
 30
0.0
 10
-1.726673185516628
 20
-7.805338653065125
 30
0.0
 10
-1.724136826605954
 20
-7.807704423543983
 30
0.0
  0
SPLINE
  5
A5
330
1F
100
AcDbEntity
  8
0
  6
Continuous
 62
     7
370
    25
100
AcDbSpline
210
0.0
220
0.0
230
1.0
 70
     8
 71
     3
 72
    12
 73
     8
 74
     0
 42
0.00000001
 43
0.00000001
 40
0.0
 40
0.0
 40
0.0
 40
0.0
 40
0.1801691197586035
 40
0.4217152150728443
 40
0.6632389841778448
 40
0.904751698209883
 40
1.0
 40
1.0
 40
1.0
 40
1.0
 10
-1.718740080556217
 20
-7.800890291110711
 30
0.0
 10
-1.721293420230128
 20
-7.797180377232585
 30
0.0
 10
-1.727269928253144
 20
-7.788496718617209
 30
0.0
 10
-1.731073692001592
 20
-7.771058954393101
 30
0.0
 10
-1.729970159695817
 20
-7.752077189840407
 30
0.0
 10
-1.72541820615651
 20
-7.737206943361947
 30
0.0
 10
-1.720070034281155
 20
-7.730891846017737
 30
0.0
 10
-1.718557376150089
 20
-7.729105706086407
 30
0.0
  0
SPLINE
  5
A6
330
1F
100
AcDbEntity
  8
0
  6
Continuous
 62
     7
370
    25
100
AcDbSpline
210
0.0
220
0.0
230
1.0
 70
     8
 71
     3
 72
    13
 73
     9
 74
     0
 42
0.00000001
 43
0.00000001
 40
0.0
 40
0.0
 40
0.0
 40
0.0
 40
0.0342058057612779
 40
0.2391532121980734
 40
0.4441039653717406
 40
0.6490379208151709
 40
0.8539644247569184
 40
1.0
 40
1.0
 40
1.0
 40
1.0
 10
1.712665456560522
 20
7.803857049629713
 30
0.0
 10
1.713370362366818
 20
7.803285853238597
 30
0.0
 10
1.718298779754475
 20
7.799292278209701
 30
0.0
 10
1.724058648425231
 20
7.787522489562586
 30
0.0
 10
1.728420716435425
 20
7.770246457861567
 30
0.0
 10
1.727115430125408
 20
7.752102172276414
 30
0.0
 10
1.721836204347531
 20
7.736605788332803
 30
0.0
 10
1.715435334902346
 20
7.729490291885247
 30
0.0
 10
1.712771928492017
 20
7.726529528661846
 30
0.0
  0
SPLINE
  5
A7
330
1F
100
AcDbEntity
  8
0
  6
Continuous
 62
     7
370
    25
100
AcDbSpline
210
0.0
220
0.0
230
1.0
 70
     8
 71
     3
 72
    13
 73
     9
 74
     0
 42
0.00000001
 43
0.00000001
 40
0.0
 40
0.0
 40
0.0
 40
0.0
 40
0.1719614207684947
 40
0.3788916166815876
 40
0.5857967163817808
 40
0.7926809963489747
 40
0.9995788317893981
 40
1.0
 40
1.0
 40
1.0
 40
1.0
 10
-1.724353469336525
 20
7.726387066478568
 30
0.0
 10
-1.727348964082904
 20
7.729967621729574
 30
0.0
 10
-1.733949094752588
 20
7.737856846891869
 30
0.0
 10
-1.738970541980897
 20
7.754195434643568
 30
0.0
 10
-1.739645600998574
 20
7.772437176418753
 30
0.0
 10
-1.734628567449983
 20
7.789373903907748
 30
0.0
 10
-1.729154356418668
 20
7.800277879570898
 30
0.0
 10
-1.724886829185947
 20
7.803605869930399
 30
0.0
 10
-1.724878159711482
 20
7.803612630737269
 30
0.0
  0
SPLINE
  5
A8
330
1F
100
AcDbEntity
  8
0
  6
Continuous
 62
     7
370
    25
100
AcDbSpline
210
0.0
220
0.0
230
1.0
 70
     8
 71
     3
 72
    12
 73
     8
 74
     0
 42
0.00000001
 43
0.00000001
 40
0.0
 40
0.0
 40
0.0
 40
0.0
 40
0.1490010758410359
 40
0.4194169681931795
 40
0.6898106973029787
 40
0.960194594760804
 40
1.0
 40
1.0
 40
1.0
 40
1.0
 10
-1.718655152492421
 20
7.795479040742681
 30
0.0
 10
-1.720382401260446
 20
7.792856874616085
 30
0.0
 10
-1.725244362407447
 20
7.785475847595253
 30
0.0
 10
-1.728284703897235
 20
7.770032100023384
 30
0.0
 10
-1.727008950538287
 20
7.752288099541607
 30
0.0
 10
-1.723308474103797
 20
7.739509708689322
 30
0.0
 10
-1.719215305302947
 20
7.734576445531864
 30
0.0
 10
-1.718690044626923
 20
7.733943378764486
 30
0.0
  0
SPLINE
  5
A9
330
1F
100
AcDbEntity
  8
0
  6
Continuous
 62
     7
370
    25
100
AcDbSpline
210
0.0
220
0.0
230
1.0
 70
     8
 71
     3
 72
    16
 73
    12
 74
     0
 42
0.00000001
 43
0.00000001
 40
0.0
 40
0.0
 40
0.0
 40
0.0
 40
0.1154656806588606
 40
0.2309310155674353
 40
0.3464045085835621
 40
0.4618798872512473
 40
0.5773458015757683
 40
0.6928075175015759
 40
0.8082774517311054
 40
0.9237539590198933
 40
1.0
 40
1.0
 40
1.0
 40
1.0
 10
0.0000000000000001
 20
7.817831767426728
 30
0.0
 10
-0.0058668712464106
 20
7.816498754162071
 30
0.0
 10
-0.0176005961714804
 20
7.81383273162433
 30
0.0
 10
-0.0322650762746162
 20
7.802732669583497
 30
0.0
 10
-0.042595495525849
 20
7.787807360213983
 30
0.0
 10
-0.0473589250291163
 20
7.770191311070615
 30
0.0
 10
-0.0460340503926329
 20
7.752037920431938
 30
0.0
 10
-0.0387753146877748
 20
7.735275862009283
 30
0.0
 10
-0.0263676563070683
 20
7.722098698450163
 30
0.0
 10
-0.0121520417840833
 20
7.713932774758947
 30
0.0
 10
-0.0022259088138457
 20
7.713022227318147
 30
0.0
 10
0.0017216098690441
 20
7.712660112177742
 30
0.0
  0
SPLINE
  5
AA
330
1F
100
AcDbEntity
  8
0
  6
Continuous
 62
     7
370
    25
100
AcDbSpline
210
0.0
220
0.0
230
1.0
 70
    11
 71
     3
 72
    50
 73
    46
 74
     0
 42
0.00000001
 43
0.00000001
 40
0.0
 40
0.0
 40
0.0
 40
0.0
 40
0.0625000000000017
 40
0.0625000000000017
 40
0.0937500000000032
 40
0.0937500000000032
 40
0.1250000000000047
 40
0.1250000000000047
 40
0.1875000000000076
 40
0.1875000000000076
 40
0.2500000000000105
 40
0.2500000000000105
 40
0.2812500000000108
 40
0.2812500000000108
 40
0.312500000000011
 40
0.312500000000011
 40
0.3750000000000114
 40
0.3750000000000114
 40
0.4375000000000118
 40
0.4375000000000118
 40
0.4687500000000129
 40
0.4687500000000129
 40
0.500000000000014
 40
0.500000000000014
 40
0.5625000000000119
 40
0.5625000000000119
 40
0.6250000000000099
 40
0.6250000000000099
 40
0.6562500000000081
 40
0.6562500000000081
 40
0.6875000000000062
 40
0.6875000000000062
 40
0.7187500000000044
 40
0.7187500000000044
 40
0.7500000000000027
 40
0.7500000000000027
 40
0.812500000000002
 40
0.812500000000002
 40
0.8437500000000029
 40
0.8437500000000029
 40
0.8750000000000038
 40
0.8750000000000038
 40
0.9375000000000019
 40
0.9375000000000019
 40
1.0
 40
1.0
 40
1.0
 40
1.0
 10
2.922835737772496
 20
2.391165100760062
 30
0.0
 10
2.919345352586061
 20
2.390284989630094
 30
0.0
 10
2.915987800084999
 20
2.388047108142192
 30
0.0
 10
2.911393976719073
 20
2.382859376567858
 30
0.0
 10
2.909961174058698
 20
2.380854025881074
 30
0.0
 10
2.907293301929157
 20
2.37629604806819
 30
0.0
 10
2.906054073061594
 20
2.373721698364761
 30
0.0
 10
2.902801683029481
 20
2.365488106879318
 30
0.0
 10
2.901169442848911
 20
2.359097684943479
 30
0.0
 10
2.899294046940047
 20
2.345718780492835
 30
0.0
 10
2.899032130361034
 20
2.338591503255044
 30
0.0
 10
2.899696415607668
 20
2.328254261097478
 30
0.0
 10
2.900097704541178
 20
2.324797878220155
 30
0.0
 10
2.901223430228138
 20
2.318191911583245
 30
0.0
 10
2.901945052116222
 20
2.315024304616131
 30
0.0
 10
2.904585810173129
 20
2.305929868929145
 30
0.0
 10
2.906932516762007
 20
2.30059435141064
 30
0.0
 10
2.91255744798768
 20
2.291969688028046
 30
0.0
 10
2.915739689454646
 20
2.288824041571651
 30
0.0
 10
2.920811644087935
 20
2.286054217988075
 30
0.0
 10
2.922523406634571
 20
2.285469931845605
 30
0.0
 10
2.92598773203564
 20
2.284970995864845
 30
0.0
 10
2.927752861152445
 20
2.285065810834833
 30
0.0
 10
2.932889462026179
 20
2.286366419128877
 30
0.0
 10
2.936234694701084
 20
2.288624223605381
 30
0.0
 10
2.942160599915101
 20
2.295486805414061
 30
0.0
 10
2.944802120176807
 20
2.300163924270421
 30
0.0
 10
2.947918936432647
 20
2.308385710428876
 30
0.0
 10
2.948838661736928
 20
2.311381591541267
 30
0.0
 10
2.950354526458419
 20
2.317611379438063
 30
0.0
 10
2.950957468156142
 20
2.320849270614867
 30
0.0
 10
2.951854497615486
 20
2.327571615409022
 30
0.0
 10
2.95214403701082
 20
2.331060289284371
 30
0.0
 10
2.952384822961364
 20
2.3379839009254
 30
0.0
 10
2.952342349147407
 20
2.341456691469634
 30
0.0
 10
2.951708758849914
 20
2.35190918715951
 30
0.0
 10
2.950628343606307
 20
2.358596639810536
 30
0.0
 10
2.948105700324292
 20
2.367709458354292
 30
0.0
 10
2.94712989755554
 20
2.37054137800236
 30
0.0
 10
2.944910112005056
 20
2.375800304122038
 30
0.0
 10
2.943652780750396
 20
2.37824144007874
 30
0.0
 10
2.939619048948423
 20
2.384641962438272
 30
0.0
 10
2.936479196755418
 20
2.387837867087528
 30
0.0
 10
2.929862108486768
 20
2.391516557118436
 30
0.0
 10
2.926326122958931
 20
2.39204521189003
 30
0.0
 10
2.922835737772496
 20
2.391165100760062
 30
0.0
  0
SPLINE
  5
AB
330
1F
100
AcDbEntity
  8
0
  6
Continuous
 62
     7
370
    25
100
AcDbSpline
210
0.0
220
0.0
230
1.0
 70
    11
 71
     3
 72
    50
 73
    46
 74
     0
 42
0.00000001
 43
0.00000001
 40
0.0
 40
0.0
 40
0.0
 40
0.0
 40
0.0625000000000015
 40
0.0625000000000015
 40
0.0937500000000019
 40
0.0937500000000019
 40
0.1250000000000024
 40
0.1250000000000024
 40
0.1875000000000047
 40
0.1875000000000047
 40
0.250000000000007
 40
0.250000000000007
 40
0.2812500000000085
 40
0.2812500000000085
 40
0.3125000000000099
 40
0.3125000000000099
 40
0.3750000000000084
 40
0.3750000000000084
 40
0.4375000000000069
 40
0.4375000000000069
 40
0.4687500000000065
 40
0.4687500000000065
 40
0.5000000000000061
 40
0.5000000000000061
 40
0.562500000000007
 40
0.562500000000007
 40
0.625000000000008
 40
0.625000000000008
 40
0.6562500000000075
 40
0.6562500000000075
 40
0.687500000000007
 40
0.687500000000007
 40
0.7187500000000066
 40
0.7187500000000066
 40
0.7500000000000061
 40
0.7500000000000061
 40
0.812500000000003
 40
0.812500000000003
 40
0.8437500000000027
 40
0.8437500000000027
 40
0.8750000000000023
 40
0.8750000000000023
 40
0.9375000000000011
 40
0.9375000000000011
 40
1.0
 40
1.0
 40
1.0
 40
1.0
 10
-2.922835737772474
 20
2.391165100760063
 30
0.0
 10
-2.926326122958907
 20
2.390284989630095
 30
0.0
 10
-2.929645247964634
 20
2.388047108142191
 30
0.0
 10
-2.934147014104085
 20
2.382859376567858
 30
0.0
 10
-2.935544132214167
 20
2.380854025881073
 30
0.0
 10
-2.938135849189148
 20
2.37629604806819
 30
0.0
 10
-2.939334355012295
 20
2.37372169836476
 30
0.0
 10
-2.942470641460774
 20
2.365488106879317
 30
0.0
 10
-2.944031462759012
 20
2.359097684943478
 30
0.0
 10
-2.945822746213345
 20
2.345718780492835
 30
0.0
 10
-2.946071724651972
 20
2.338591503255044
 30
0.0
 10
-2.945438196193155
 20
2.328254261097476
 30
0.0
 10
-2.945055419914548
 20
2.324797878220154
 30
0.0
 10
-2.943979256991747
 20
2.318191911583245
 30
0.0
 10
-2.943288567984649
 20
2.315024304616131
 30
0.0
 10
-2.940753061078731
 20
2.305929868929146
 30
0.0
 10
-2.938491297728153
 20
2.30059435141064
 30
0.0
 10
-2.933014548159029
 20
2.291969688028047
 30
0.0
 10
-2.92989203807996
 20
2.288824041571652
 30
0.0
 10
-2.924858540596157
 20
2.286054217988074
 30
0.0
 10
-2.923151056427108
 20
2.285469931845605
 30
0.0
 10
-2.919676611664156
 20
2.284970995864845
 30
0.0
 10
-2.917896737991974
 20
2.285065810834833
 30
0.0
 10
-2.912689512549173
 20
2.286366419128877
 30
0.0
 10
-2.909259383547883
 20
2.288624223605381
 30
0.0
 10
-2.903129272060181
 20
2.295486805414062
 30
0.0
 10
-2.900367352723685
 20
2.300163924270422
 30
0.0
 10
-2.897090739464376
 20
2.308385710428876
 30
0.0
 10
-2.89612024327261
 20
2.311381591541268
 30
0.0
 10
-2.894517497352564
 20
2.317611379438064
 30
0.0
 10
-2.893878151429004
 20
2.320849270614869
 30
0.0
 10
-2.892926070251066
 20
2.327571615409021
 30
0.0
 10
-2.892618164894682
 20
2.331060289284374
 30
0.0
 10
-2.892362136179929
 20
2.3379839009254
 30
0.0
 10
-2.892407342200078
 20
2.341456691469634
 30
0.0
 10
-2.893080851050552
 20
2.351909187159509
 30
0.0
 10
-2.894229955500946
 20
2.358596639810536
 30
0.0
 10
-2.896893521753901
 20
2.367709458354291
 30
0.0
 10
-2.89792152500007
 20
2.37054137800236
 30
0.0
 10
-2.900250894063691
 20
2.375800304122038
 30
0.0
 10
-2.901566097476045
 20
2.37824144007874
 30
0.0
 10
-2.905766082450976
 20
2.384641962438273
 30
0.0
 10
-2.909010137968207
 20
2.387837867087528
 30
0.0
 10
-2.915769887961658
 20
2.391516557118435
 30
0.0
 10
-2.919345352586041
 20
2.39204521189003
 30
0.0
 10
-2.922835737772474
 20
2.391165100760063
 30
0.0
  0
SPLINE
  5
AC
330
1F
100
AcDbEntity
  8
0
  6
Continuous
 62
     7
370
    25
100
AcDbSpline
210
0.0
220
0.0
230
1.0
 70
    11
 71
     3
 72
    50
 73
    46
 74
     0
 42
0.00000001
 43
0.00000001
 40
0.0
 40
0.0
 40
0.0
 40
0.0
 40
0.0625000000000007
 40
0.0625000000000007
 40
0.0937500000000016
 40
0.0937500000000016
 40
0.1250000000000025
 40
0.1250000000000025
 40
0.1875000000000044
 40
0.1875000000000044
 40
0.2500000000000063
 40
0.2500000000000063
 40
0.281250000000006
 40
0.281250000000006
 40
0.3125000000000057
 40
0.3125000000000057
 40
0.3750000000000051
 40
0.3750000000000051
 40
0.4375000000000043
 40
0.4375000000000043
 40
0.4687500000000049
 40
0.4687500000000049
 40
0.5000000000000054
 40
0.5000000000000054
 40
0.5625000000000044
 40
0.5625000000000044
 40
0.6250000000000034
 40
0.6250000000000034
 40
0.6562500000000022
 40
0.6562500000000022
 40
0.687500000000001
 40
0.687500000000001
 40
0.7187499999999998
 40
0.7187499999999998
 40
0.7499999999999984
 40
0.7499999999999984
 40
0.8124999999999989
 40
0.8124999999999989
 40
0.8437500000000002
 40
0.8437500000000002
 40
0.8750000000000016
 40
0.8750000000000016
 40
0.9375000000000008
 40
0.9375000000000008
 40
1.0
 40
1.0
 40
1.0
 40
1.0
 10
2.922835737772496
 20
-2.285501565906605
 30
0.0
 10
2.919345352586061
 20
-2.286381677036573
 30
0.0
 10
2.915987800085001
 20
-2.288619558524477
 30
0.0
 10
2.911393976719071
 20
-2.29380729009881
 30
0.0
 10
2.909961174058698
 20
-2.295812640785595
 30
0.0
 10
2.907293301929159
 20
-2.300370618598478
 30
0.0
 10
2.906054073061593
 20
-2.302944968301908
 30
0.0
 10
2.90280168302948
 20
-2.311178559787349
 30
0.0
 10
2.90116944284891
 20
-2.317568981723189
 30
0.0
 10
2.899294046940048
 20
-2.330947886173834
 30
0.0
 10
2.899032130361033
 20
-2.338075163411622
 30
0.0
 10
2.899696415607668
 20
-2.348412405569191
 30
0.0
 10
2.900097704541177
 20
-2.351868788446513
 30
0.0
 10
2.901223430228139
 20
-2.358474755083424
 30
0.0
 10
2.901945052116222
 20
-2.361642362050537
 30
0.0
 10
2.904585810173129
 20
-2.370736797737522
 30
0.0
 10
2.906932516762008
 20
-2.376072315256029
 30
0.0
 10
2.912557447987682
 20
-2.384696978638623
 30
0.0
 10
2.915739689454647
 20
-2.387842625095019
 30
0.0
 10
2.920811644087933
 20
-2.390612448678593
 30
0.0
 10
2.922523406634572
 20
-2.391196734821063
 30
0.0
 10
2.925987732035642
 20
-2.391695670801823
 30
0.0
 10
2.927752861152445
 20
-2.391600855831834
 30
0.0
 10
2.932889462026179
 20
-2.390300247537792
 30
0.0
 10
2.936234694701084
 20
-2.388042443061287
 30
0.0
 10
2.942160599915101
 20
-2.381179861252606
 30
0.0
 10
2.944802120176807
 20
-2.376502742396247
 30
0.0
 10
2.947918936432648
 20
-2.368280956237792
 30
0.0
 10
2.948838661736928
 20
-2.3652850751254
 30
0.0
 10
2.950354526458422
 20
-2.359055287228604
 30
0.0
 10
2.950957468156142
 20
-2.355817396051801
 30
0.0
 10
2.951854497615485
 20
-2.349095051257645
 30
0.0
 10
2.95214403701082
 20
-2.345606377382296
 30
0.0
 10
2.952384822961365
 20
-2.338682765741268
 30
0.0
 10
2.952342349147408
 20
-2.335209975197035
 30
0.0
 10
2.951708758849914
 20
-2.324757479507159
 30
0.0
 10
2.950628343606308
 20
-2.318070026856132
 30
0.0
 10
2.948105700324294
 20
-2.308957208312377
 30
0.0
 10
2.947129897555538
 20
-2.306125288664307
 30
0.0
 10
2.944910112005056
 20
-2.30086636254463
 30
0.0
 10
2.943652780750395
 20
-2.298425226587929
 30
0.0
 10
2.939619048948422
 20
-2.292024704228395
 30
0.0
 10
2.936479196755418
 20
-2.288828799579141
 30
0.0
 10
2.929862108486769
 20
-2.285150109548233
 30
0.0
 10
2.926326122958931
 20
-2.284621454776638
 30
0.0
 10
2.922835737772496
 20
-2.285501565906605
 30
0.0
  0
SPLINE
  5
AD
330
1F
100
AcDbEntity
  8
0
  6
Continuous
 62
     7
370
    25
100
AcDbSpline
210
0.0
220
0.0
230
1.0
 70
    11
 71
     3
 72
    50
 73
    46
 74
     0
 42
0.00000001
 43
0.00000001
 40
0.0
 40
0.0
 40
0.0
 40
0.0
 40
0.0624999999999963
 40
0.0624999999999963
 40
0.0937499999999959
 40
0.0937499999999959
 40
0.1249999999999956
 40
0.1249999999999956
 40
0.1874999999999963
 40
0.1874999999999963
 40
0.2499999999999971
 40
0.2499999999999971
 40
0.2812499999999989
 40
0.2812499999999989
 40
0.3125000000000008
 40
0.3125000000000008
 40
0.3750000000000003
 40
0.3750000000000003
 40
0.4374999999999996
 40
0.4374999999999996
 40
0.4687499999999997
 40
0.4687499999999997
 40
0.4999999999999997
 40
0.4999999999999997
 40
0.5625000000000014
 40
0.5625000000000014
 40
0.6250000000000032
 40
0.6250000000000032
 40
0.6562500000000032
 40
0.6562500000000032
 40
0.6875000000000031
 40
0.6875000000000031
 40
0.718750000000003
 40
0.718750000000003
 40
0.7500000000000029
 40
0.7500000000000029
 40
0.8125000000000006
 40
0.8125000000000006
 40
0.8437500000000006
 40
0.8437500000000006
 40
0.8750000000000006
 40
0.8750000000000006
 40
0.9375000000000003
 40
0.9375000000000003
 40
1.0
 40
1.0
 40
1.0
 40
1.0
 10
-2.922835737772474
 20
-2.285501565906605
 30
0.0
 10
-2.926326122958908
 20
-2.286381677036574
 30
0.0
 10
-2.929645247964635
 20
-2.288619558524474
 30
0.0
 10
-2.934147014104085
 20
-2.29380729009881
 30
0.0
 10
-2.935544132214163
 20
-2.295812640785594
 30
0.0
 10
-2.938135849189149
 20
-2.300370618598478
 30
0.0
 10
-2.939334355012294
 20
-2.302944968301907
 30
0.0
 10
-2.942470641460776
 20
-2.31117855978735
 30
0.0
 10
-2.944031462759013
 20
-2.31756898172319
 30
0.0
 10
-2.945822746213345
 20
-2.330947886173834
 30
0.0
 10
-2.946071724651974
 20
-2.338075163411623
 30
0.0
 10
-2.945438196193155
 20
-2.348412405569191
 30
0.0
 10
-2.945055419914548
 20
-2.351868788446513
 30
0.0
 10
-2.943979256991747
 20
-2.358474755083423
 30
0.0
 10
-2.943288567984649
 20
-2.361642362050537
 30
0.0
 10
-2.940753061078731
 20
-2.370736797737523
 30
0.0
 10
-2.938491297728151
 20
-2.376072315256029
 30
0.0
 10
-2.933014548159028
 20
-2.384696978638621
 30
0.0
 10
-2.929892038079961
 20
-2.387842625095018
 30
0.0
 10
-2.924858540596158
 20
-2.390612448678594
 30
0.0
 10
-2.923151056427108
 20
-2.391196734821063
 30
0.0
 10
-2.919676611664157
 20
-2.391695670801822
 30
0.0
 10
-2.917896737991975
 20
-2.391600855831835
 30
0.0
 10
-2.912689512549174
 20
-2.390300247537791
 30
0.0
 10
-2.909259383547881
 20
-2.388042443061287
 30
0.0
 10
-2.90312927206018
 20
-2.381179861252606
 30
0.0
 10
-2.900367352723683
 20
-2.376502742396247
 30
0.0
 10
-2.897090739464377
 20
-2.368280956237792
 30
0.0
 10
-2.896120243272611
 20
-2.365285075125402
 30
0.0
 10
-2.894517497352566
 20
-2.359055287228605
 30
0.0
 10
-2.893878151429004
 20
-2.355817396051801
 30
0.0
 10
-2.892926070251067
 20
-2.349095051257646
 30
0.0
 10
-2.892618164894682
 20
-2.345606377382297
 30
0.0
 10
-2.892362136179929
 20
-2.338682765741269
 30
0.0
 10
-2.892407342200078
 20
-2.335209975197035
 30
0.0
 10
-2.893080851050552
 20
-2.324757479507158
 30
0.0
 10
-2.894229955500945
 20
-2.318070026856133
 30
0.0
 10
-2.896893521753901
 20
-2.308957208312377
 30
0.0
 10
-2.897921525000069
 20
-2.306125288664308
 30
0.0
 10
-2.900250894063691
 20
-2.30086636254463
 30
0.0
 10
-2.901566097476046
 20
-2.298425226587929
 30
0.0
 10
-2.905766082450976
 20
-2.292024704228395
 30
0.0
 10
-2.909010137968208
 20
-2.28882879957914
 30
0.0
 10
-2.915769887961659
 20
-2.285150109548232
 30
0.0
 10
-2.919345352586041
 20
-2.284621454776637
 30
0.0
 10
-2.922835737772474
 20
-2.285501565906605
 30
0.0
  0
LINE
  5
AE
330
1F
100
AcDbEntity
  8
0
  6
Continuous
 62
     7
370
    25
100
AcDbLine
 10
3.5
 20
7.8178317674
 30
0.0
 11
3.5
 21
8.015
 31
0.0
  0
LINE
  5
AF
330
1F
100
AcDbEntity
  8
0
  6
Continuous
 62
     7
370
    25
100
AcDbLine
 10
3.5
 20
7.015
 30
0.0
 11
3.5
 21
7.7121682326
 31
0.0
  0
LINE
  5
B0
330
1F
100
AcDbEntity
  8
0
  6
Continuous
 62
     7
370
    25
100
AcDbLine
 10
3.5
 20
-7.7089154896
 30
0.0
 11
3.5
 21
-7.015
 31
0.0
  0
LINE
  5
B1
330
1F
100
AcDbEntity
  8
0
  6
Continuous
 62
     7
370
    25
100
AcDbLine
 10
3.5
 20
-8.015
 30
0.0
 11
3.5
 21
-7.8203396082
 31
0.0
  0
LINE
  5
B2
330
1F
100
AcDbEntity
  8
0
  6
Continuous
 62
     7
370
    25
100
AcDbLine
 10
-3.5
 20
-7.8203396082
 30
0.0
 11
-3.5
 21
-8.015
 31
0.0
  0
LINE
  5
B3
330
1F
100
AcDbEntity
  8
0
  6
Continuous
 62
     7
370
    25
100
AcDbLine
 10
-3.5
 20
-7.015
 30
0.0
 11
-3.5
 21
-7.7089154896
 31
0.0
  0
LINE
  5
B4
330
1F
100
AcDbEntity
  8
0
  6
Continuous
 62
     7
370
    25
100
AcDbLine
 10
-3.5
 20
7.7121682326
 30
0.0
 11
-3.5
 21
7.015
 31
0.0
  0
LINE
  5
B5
330
1F
100
AcDbEntity
  8
0
  6
Continuous
 62
     7
370
    25
100
AcDbLine
 10
-3.5
 20
8.015
 30
0.0
 11
-3.5
 21
7.8178317674
 31
0.0
  0
LINE
  5
B6
330
1F
100
AcDbEntity
  8
0
  6
Continuous
 62
     7
370
    25
100
AcDbLine
 10
-3.5
 20
-8.015
 30
0.0
 11
3.5
 21
-8.015
 31
0.0
  0
LINE
  5
B7
330
1F
100
AcDbEntity
  8
0
  6
Continuous
 62
     7
370
    25
100
AcDbLine
 10
-3.5
 20
8.015
 30
0.0
 11
3.5
 21
8.015
 31
0.0
  0
LINE
  5
B8
330
1F
100
AcDbEntity
  8
0
  6
Continuous
 62
     7
370
    25
100
AcDbLine
 10
3.2594521901
 20
7.015
 30
0.0
 11
3.2594521901
 21
-7.015
 31
0.0
  0
LINE
  5
B9
330
1F
100
AcDbEntity
  8
0
  6
Continuous
 62
     7
370
    25
100
AcDbLine
 10
3.5
 20
7.015
 30
0.0
 11
0.5166238691
 21
7.015
 31
0.0
  0
LINE
  5
BA
330
1F
100
AcDbEntity
  8
0
  6
Continuous
 62
     7
370
    25
100
AcDbLine
 10
0.5166238691
 20
7.015
 30
0.0
 11
0.5166238691
 21
-7.015
 31
0.0
  0
LINE
  5
BB
330
1F
100
AcDbEntity
  8
0
  6
Continuous
 62
     7
370
    25
100
AcDbLine
 10
3.5
 20
-7.015
 30
0.0
 11
0.5166238691
 21
-7.015
 31
0.0
  0
LINE
  5
BC
330
1F
100
AcDbEntity
  8
0
  6
Continuous
 62
     7
370
    25
100
AcDbLine
 10
-0.525426061
 20
7.015
 30
0.0
 11
-0.525426061
 21
-7.015
 31
0.0
  0
LINE
  5
BD
330
1F
100
AcDbEntity
  8
0
  6
Continuous
 62
     7
370
    25
100
AcDbLine
 10
-0.525426061
 20
7.015
 30
0.0
 11
-3.5
 21
7.015
 31
0.0
  0
LINE
  5
BE
330
1F
100
AcDbEntity
  8
0
  6
Continuous
 62
     7
370
    25
100
AcDbLine
 10
-3.2561986624
 20
7.015
 30
0.0
 11
-3.2561986624
 21
-7.015
 31
0.0
  0
LINE
  5
BF
330
1F
100
AcDbEntity
  8
0
  6
Continuous
 62
     7
370
    25
100
AcDbLine
 10
-0.525426061
 20
-7.015
 30
0.0
 11
-3.5
 21
-7.015
 31
0.0
  0
LINE
  5
C0
330
1F
100
AcDbEntity
  8
0
  6
Continuous
 62
     7
370
    25
100
AcDbLine
 10
3.1430431834
 20
7.015
 30
0.0
 11
3.1430431834
 21
-7.015
 31
0.0
  0
LINE
  5
C1
330
1F
100
AcDbEntity
  8
0
  6
Continuous
 62
     7
370
    25
100
AcDbLine
 10
-3.1399058531
 20
7.015
 30
0.0
 11
-3.1399058531
 21
-7.015
 31
0.0
  0
LINE
  5
C2
330
1F
100
AcDbEntity
  8
0
  6
Continuous
 62
     7
370
    25
100
AcDbLine
 10
-2.6363823388
 20
7.015
 30
0.0
 11
-2.6363823388
 21
-7.015
 31
0.0
  0
LINE
  5
C3
330
1F
100
AcDbEntity
  8
0
  6
Continuous
 62
     7
370
    25
100
AcDbLine
 10
2.6417328365
 20
7.015
 30
0.0
 11
2.6417328365
 21
-7.015
 31
0.0
  0
MTEXT
  5
C5
330
1F
100
AcDbEntity
  8
0
  6
Continuous
 62
     7
100
AcDbMText
 10
-3.5
 20
-8.0551404091
 30
0.0
 40
0.1903
 41
0.0
 71
     1
 72
     1
  1
SOLIDWORKS Educational Product.
  7
SLDTEXTSTYLE0
 73
     1
 44
1.0
  0
MTEXT
  5
C6
330
1F
100
AcDbEntity
  8
0
  6
Continuous
 62
     7
100
AcDbMText
 10
-3.5
 20
-8.3405904091
 30
0.0
 40
0.1903
 41
0.0
 71
     1
 72
     1
  1
For Instructional Use Only.
  7
SLDTEXTSTYLE0
 73
     1
 44
1.0
  0
ENDSEC
  0
SECTION
  2
OBJECTS
  0
DICTIONARY
  5
C
330
0
100
AcDbDictionary
281
     1
  3
ACAD_GROUP
350
D
  3
ACAD_LAYOUT
350
1A
  3
ACAD_MLINESTYLE
350
17
  3
ACAD_PLOTSETTINGS
350
19
  3
ACAD_PLOTSTYLENAME
350
E
  3
ACAD_SCALELIST
350
47
  3
DWGPROPS
350
C7
  0
DICTIONARY
  5
D
102
{ACAD_REACTORS
330
C
102
}
330
C
100
AcDbDictionary
281
     1
  0
DICTIONARY
  5
1A
102
{ACAD_REACTORS
330
C
102
}
330
C
100
AcDbDictionary
281
     1
  3
Layout1
350
1E
  3
Layout2
350
26
  3
Model
350
22
  0
DICTIONARY
  5
17
102
{ACAD_REACTORS
330
C
102
}
330
C
100
AcDbDictionary
281
     1
  3
Standard
350
18
  0
DICTIONARY
  5
19
102
{ACAD_REACTORS
330
C
102
}
330
C
100
AcDbDictionary
281
     1
  0
ACDBDICTIONARYWDFLT
  5
E
102
{ACAD_REACTORS
330
C
102
}
330
C
100
AcDbDictionary
281
     1
  3
Normal
350
F
100
AcDbDictionaryWithDefault
340
F
  0
DICTIONARY
  5
47
102
{ACAD_REACTORS
330
C
102
}
330
C
100
AcDbDictionary
281
     1
  3
A0
350
48
  3
A1
350
49
  3
A2
350
4A
  3
A3
350
4B
  3
A4
350
4C
  3
A5
350
4D
  3
A6
350
4E
  3
A7
350
4F
  3
A8
350
50
  3
A9
350
51
  3
B0
350
52
  3
B1
350
53
  3
B2
350
54
  3
B3
350
55
  3
B4
350
56
  3
B5
350
57
  3
B6
350
58
  3
B7
350
59
  3
B8
350
5A
  3
B9
350
5B
  3
C0
350
5C
  3
C1
350
5D
  3
C2
350
5E
  3
C3
350
5F
  3
C4
350
60
  3
C5
350
61
  3
C6
350
62
  3
C7
350
63
  3
C8
350
64
  3
C9
350
65
  3
D0
350
66
  3
D1
350
67
  3
D2
350
68
  0
XRECORD
  5
C7
102
{ACAD_REACTORS
330
C
102
}
330
C
100
AcDbXrecord
280
     1
  1
DWGPROPS COOKIE
  2

  3

  4

  6

  7

  8
olori
  9

300
=
301
=
302
=
303
=
304
=
305
=
306
=
307
=
308
=
309
=
 40
0.0
 41
2459498.019736956
 42
2459498.019860081
  1

 90
        0
  0
LAYOUT
  5
1E
102
{ACAD_REACTORS
330
1A
102
}
330
1A
100
AcDbPlotSettings
  1

  2
none_device
  4

  6

 40
0.0
 41
0.0
 42
0.0
 43
0.0
 44
0.0
 45
0.0
 46
0.0
 47
0.0
 48
0.0
 49
0.0
140
0.0
141
0.0
142
1.0
143
1.0
 70
   688
 72
     0
 73
     0
 74
     5
  7

 75
    16
147
1.0
148
0.0
149
0.0
100
AcDbLayout
  1
Layout1
 70
     1
 71
     1
 10
0.0
 20
0.0
 11
12.0
 21
9.0
 12
0.0
 22
0.0
 32
0.0
 14
1.0000000000E+20
 24
1.0000000000E+20
 34
1.0000000000E+20
 15
-1.0000000000E+20
 25
-1.0000000000E+20
 35
-1.0000000000E+20
146
0.0
 13
0.0
 23
0.0
 33
0.0
 16
1.0
 26
0.0
 36
0.0
 17
0.0
 27
1.0
 37
0.0
 76
     0
330
1B
  0
LAYOUT
  5
26
102
{ACAD_REACTORS
330
1A
102
}
330
1A
100
AcDbPlotSettings
  1

  2
none_device
  4

  6

 40
0.0
 41
0.0
 42
0.0
 43
0.0
 44
0.0
 45
0.0
 46
0.0
 47
0.0
 48
0.0
 49
0.0
140
0.0
141
0.0
142
1.0
143
1.0
 70
   688
 72
     0
 73
     0
 74
     5
  7

 75
    16
147
1.0
148
0.0
149
0.0
100
AcDbLayout
  1
Layout2
 70
     1
 71
     2
 10
0.0
 20
0.0
 11
0.0
 21
0.0
 12
0.0
 22
0.0
 32
0.0
 14
0.0
 24
0.0
 34
0.0
 15
0.0
 25
0.0
 35
0.0
146
0.0
 13
0.0
 23
0.0
 33
0.0
 16
1.0
 26
0.0
 36
0.0
 17
0.0
 27
1.0
 37
0.0
 76
     0
330
23
  0
LAYOUT
  5
22
102
{ACAD_REACTORS
330
1A
102
}
330
1A
100
AcDbPlotSettings
  1

  2
none_device
  4
ANSI_A_(11.00_x_8.50_Inches)
  6

 40
6.35
 41
19.05
 42
6.35000508
 43
19.05000254
 44
279.4
 45
215.9
 46
133.34999746
 47
88.89999873
 48
0.0
 49
0.0
140
0.0
141
0.0
142
0.5249532127
143
1.0
 70
  1696
 72
     0
 73
     0
 74
     0
  7

 75
     0
147
0.5913241897
148
-39.4088153714
149
0.0
100
AcDbLayout
  1
Model
 70
     1
 71
     0
 10
0.0
 20
0.0
 11
12.0
 21
9.0
 12
0.0
 22
0.0
 32
0.0
 14
-3.5
 24
-8.015
 34
0.0
 15
3.5
 25
8.015
 35
0.0
146
0.0
 13
0.0
 23
0.0
 33
0.0
 16
1.0
 26
0.0
 36
0.0
 17
0.0
 27
1.0
 37
0.0
 76
     0
330
1F
331
29
  0
MLINESTYLE
  5
18
102
{ACAD_REACTORS
330
17
102
}
330
17
100
AcDbMlineStyle
  2
Standard
 70
     0
  3

 62
   256
 51
90.0
 52
90.0
 71
     2
 49
0.5
 62
   256
  6
BYLAYER
 49
-0.5
 62
   256
  6
BYLAYER
  0
ACDBPLACEHOLDER
  5
F
102
{ACAD_REACTORS
330
E
102
}
330
E
  0
SCALE
  5
48
102
{ACAD_REACTORS
330
47
102
}
330
47
100
AcDbScale
 70
     0
300
1:1
140
1.0
141
1.0
290
     1
  0
SCALE
  5
49
102
{ACAD_REACTORS
330
47
102
}
330
47
100
AcDbScale
 70
     0
300
1:2
140
1.0
141
2.0
290
     0
  0
SCALE
  5
4A
102
{ACAD_REACTORS
330
47
102
}
330
47
100
AcDbScale
 70
     0
300
1:4
140
1.0
141
4.0
290
     0
  0
SCALE
  5
4B
102
{ACAD_REACTORS
330
47
102
}
330
47
100
AcDbScale
 70
     0
300
1:5
140
1.0
141
5.0
290
     0
  0
SCALE
  5
4C
102
{ACAD_REACTORS
330
47
102
}
330
47
100
AcDbScale
 70
     0
300
1:8
140
1.0
141
8.0
290
     0
  0
SCALE
  5
4D
102
{ACAD_REACTORS
330
47
102
}
330
47
100
AcDbScale
 70
     0
300
1:10
140
1.0
141
10.0
290
     0
  0
SCALE
  5
4E
102
{ACAD_REACTORS
330
47
102
}
330
47
100
AcDbScale
 70
     0
300
1:16
140
1.0
141
16.0
290
     0
  0
SCALE
  5
4F
102
{ACAD_REACTORS
330
47
102
}
330
47
100
AcDbScale
 70
     0
300
1:20
140
1.0
141
20.0
290
     0
  0
SCALE
  5
50
102
{ACAD_REACTORS
330
47
102
}
330
47
100
AcDbScale
 70
     0
300
1:30
140
1.0
141
30.0
290
     0
  0
SCALE
  5
51
102
{ACAD_REACTORS
330
47
102
}
330
47
100
AcDbScale
 70
     0
300
1:40
140
1.0
141
40.0
290
     0
  0
SCALE
  5
52
102
{ACAD_REACTORS
330
47
102
}
330
47
100
AcDbScale
 70
     0
300
1:50
140
1.0
141
50.0
290
     0
  0
SCALE
  5
53
102
{ACAD_REACTORS
330
47
102
}
330
47
100
AcDbScale
 70
     0
300
1:100
140
1.0
141
100.0
290
     0
  0
SCALE
  5
54
102
{ACAD_REACTORS
330
47
102
}
330
47
100
AcDbScale
 70
     0
300
2:1
140
2.0
141
1.0
290
     0
  0
SCALE
  5
55
102
{ACAD_REACTORS
330
47
102
}
330
47
100
AcDbScale
 70
     0
300
4:1
140
4.0
141
1.0
290
     0
  0
SCALE
  5
56
102
{ACAD_REACTORS
330
47
102
}
330
47
100
AcDbScale
 70
     0
300
8:1
140
8.0
141
1.0
290
     0
  0
SCALE
  5
57
102
{ACAD_REACTORS
330
47
102
}
330
47
100
AcDbScale
 70
     0
300
10:1
140
10.0
141
1.0
290
     0
  0
SCALE
  5
58
102
{ACAD_REACTORS
330
47
102
}
330
47
100
AcDbScale
 70
     0
300
100:1
140
100.0
141
1.0
290
     0
  0
SCALE
  5
59
102
{ACAD_REACTORS
330
47
102
}
330
47
100
AcDbScale
 70
     0
300
1/128" = 1'-0"
140
0.0078125
141
12.0
290
     0
  0
SCALE
  5
5A
102
{ACAD_REACTORS
330
47
102
}
330
47
100
AcDbScale
 70
     0
300
1/64" = 1'-0"
140
0.015625
141
12.0
290
     0
  0
SCALE
  5
5B
102
{ACAD_REACTORS
330
47
102
}
330
47
100
AcDbScale
 70
     0
300
1/32" = 1'-0"
140
0.03125
141
12.0
290
     0
  0
SCALE
  5
5C
102
{ACAD_REACTORS
330
47
102
}
330
47
100
AcDbScale
 70
     0
300
1/16" = 1'-0"
140
0.0625
141
12.0
290
     0
  0
SCALE
  5
5D
102
{ACAD_REACTORS
330
47
102
}
330
47
100
AcDbScale
 70
     0
300
3/32" = 1'-0"
140
0.09375
141
12.0
290
     0
  0
SCALE
  5
5E
102
{ACAD_REACTORS
330
47
102
}
330
47
100
AcDbScale
 70
     0
300
1/8" = 1'-0"
140
0.125
141
12.0
290
     0
  0
SCALE
  5
5F
102
{ACAD_REACTORS
330
47
102
}
330
47
100
AcDbScale
 70
     0
300
3/16" = 1'-0"
140
0.1875
141
12.0
290
     0
  0
SCALE
  5
60
102
{ACAD_REACTORS
330
47
102
}
330
47
100
AcDbScale
 70
     0
300
1/4" = 1'-0"
140
0.25
141
12.0
290
     0
  0
SCALE
  5
61
102
{ACAD_REACTORS
330
47
102
}
330
47
100
AcDbScale
 70
     0
300
3/8" = 1'-0"
140
0.375
141
12.0
290
     0
  0
SCALE
  5
62
102
{ACAD_REACTORS
330
47
102
}
330
47
100
AcDbScale
 70
     0
300
1/2" = 1'-0"
140
0.5
141
12.0
290
     0
  0
SCALE
  5
63
102
{ACAD_REACTORS
330
47
102
}
330
47
100
AcDbScale
 70
     0
300
3/4" = 1'-0"
140
0.75
141
12.0
290
     0
  0
SCALE
  5
64
102
{ACAD_REACTORS
330
47
102
}
330
47
100
AcDbScale
 70
     0
300
1" = 1'-0"
140
1.0
141
12.0
290
     0
  0
SCALE
  5
65
102
{ACAD_REACTORS
330
47
102
}
330
47
100
AcDbScale
 70
     0
300
1-1/2" = 1'-0"
140
1.5
141
12.0
290
     0
  0
SCALE
  5
66
102
{ACAD_REACTORS
330
47
102
}
330
47
100
AcDbScale
 70
     0
300
3" = 1'-0"
140
3.0
141
12.0
290
     0
  0
SCALE
  5
67
102
{ACAD_REACTORS
330
47
102
}
330
47
100
AcDbScale
 70
     0
300
6" = 1'-0"
140
6.0
141
12.0
290
     0
  0
SCALE
  5
68
102
{ACAD_REACTORS
330
47
102
}
330
47
100
AcDbScale
 70
     0
300
1'-0" = 1'-0"
140
12.0
141
12.0
290
     0
  0
ENDSEC
  0
EOF
