%TF.GenerationSoftware,KiCad,Pcbnew,6.0.11-2627ca5db0~126~ubuntu22.04.1*%
%TF.CreationDate,2023-03-24T18:23:20-04:00*%
%TF.ProjectId,Io,496f2e6b-6963-4616-945f-706362585858,rev?*%
%TF.SameCoordinates,Original*%
%TF.FileFunction,Copper,L1,Top*%
%TF.FilePolarity,Positive*%
%FSLAX46Y46*%
G04 Gerber Fmt 4.6, Leading zero omitted, Abs format (unit mm)*
G04 Created by KiCad (PCBNEW 6.0.11-2627ca5db0~126~ubuntu22.04.1) date 2023-03-24 18:23:20*
%MOMM*%
%LPD*%
G01*
G04 APERTURE LIST*
G04 Aperture macros list*
%AMRoundRect*
0 Rectangle with rounded corners*
0 $1 Rounding radius*
0 $2 $3 $4 $5 $6 $7 $8 $9 X,Y pos of 4 corners*
0 Add a 4 corners polygon primitive as box body*
4,1,4,$2,$3,$4,$5,$6,$7,$8,$9,$2,$3,0*
0 Add four circle primitives for the rounded corners*
1,1,$1+$1,$2,$3*
1,1,$1+$1,$4,$5*
1,1,$1+$1,$6,$7*
1,1,$1+$1,$8,$9*
0 Add four rect primitives between the rounded corners*
20,1,$1+$1,$2,$3,$4,$5,0*
20,1,$1+$1,$4,$5,$6,$7,0*
20,1,$1+$1,$6,$7,$8,$9,0*
20,1,$1+$1,$8,$9,$2,$3,0*%
G04 Aperture macros list end*
%TA.AperFunction,SMDPad,CuDef*%
%ADD10RoundRect,0.135000X-0.185000X0.135000X-0.185000X-0.135000X0.185000X-0.135000X0.185000X0.135000X0*%
%TD*%
%TA.AperFunction,ComponentPad*%
%ADD11C,6.400000*%
%TD*%
%TA.AperFunction,SMDPad,CuDef*%
%ADD12RoundRect,0.140000X0.170000X-0.140000X0.170000X0.140000X-0.170000X0.140000X-0.170000X-0.140000X0*%
%TD*%
%TA.AperFunction,SMDPad,CuDef*%
%ADD13R,1.200000X2.500000*%
%TD*%
%TA.AperFunction,SMDPad,CuDef*%
%ADD14R,0.900000X0.800000*%
%TD*%
%TA.AperFunction,SMDPad,CuDef*%
%ADD15RoundRect,0.140000X0.140000X0.170000X-0.140000X0.170000X-0.140000X-0.170000X0.140000X-0.170000X0*%
%TD*%
%TA.AperFunction,SMDPad,CuDef*%
%ADD16RoundRect,0.135000X0.135000X0.185000X-0.135000X0.185000X-0.135000X-0.185000X0.135000X-0.185000X0*%
%TD*%
%TA.AperFunction,ComponentPad*%
%ADD17C,2.100000*%
%TD*%
%TA.AperFunction,ComponentPad*%
%ADD18R,2.100000X2.100000*%
%TD*%
%TA.AperFunction,ComponentPad*%
%ADD19R,1.700000X1.700000*%
%TD*%
%TA.AperFunction,ComponentPad*%
%ADD20O,1.700000X1.700000*%
%TD*%
%TA.AperFunction,SMDPad,CuDef*%
%ADD21RoundRect,0.225000X-0.250000X0.225000X-0.250000X-0.225000X0.250000X-0.225000X0.250000X0.225000X0*%
%TD*%
%TA.AperFunction,SMDPad,CuDef*%
%ADD22R,1.500000X1.800000*%
%TD*%
%TA.AperFunction,SMDPad,CuDef*%
%ADD23R,1.800000X1.500000*%
%TD*%
%TA.AperFunction,SMDPad,CuDef*%
%ADD24RoundRect,0.087500X0.087500X-0.225000X0.087500X0.225000X-0.087500X0.225000X-0.087500X-0.225000X0*%
%TD*%
%TA.AperFunction,SMDPad,CuDef*%
%ADD25RoundRect,0.087500X0.225000X-0.087500X0.225000X0.087500X-0.225000X0.087500X-0.225000X-0.087500X0*%
%TD*%
%TA.AperFunction,SMDPad,CuDef*%
%ADD26RoundRect,0.200000X-0.200000X-0.275000X0.200000X-0.275000X0.200000X0.275000X-0.200000X0.275000X0*%
%TD*%
%TA.AperFunction,SMDPad,CuDef*%
%ADD27RoundRect,0.135000X0.185000X-0.135000X0.185000X0.135000X-0.185000X0.135000X-0.185000X-0.135000X0*%
%TD*%
%TA.AperFunction,SMDPad,CuDef*%
%ADD28R,5.400000X2.900000*%
%TD*%
%TA.AperFunction,SMDPad,CuDef*%
%ADD29RoundRect,0.140000X-0.170000X0.140000X-0.170000X-0.140000X0.170000X-0.140000X0.170000X0.140000X0*%
%TD*%
%TA.AperFunction,SMDPad,CuDef*%
%ADD30RoundRect,0.150000X-0.150000X0.587500X-0.150000X-0.587500X0.150000X-0.587500X0.150000X0.587500X0*%
%TD*%
%TA.AperFunction,SMDPad,CuDef*%
%ADD31RoundRect,0.140000X-0.140000X-0.170000X0.140000X-0.170000X0.140000X0.170000X-0.140000X0.170000X0*%
%TD*%
%TA.AperFunction,SMDPad,CuDef*%
%ADD32R,1.100000X1.100000*%
%TD*%
%TA.AperFunction,SMDPad,CuDef*%
%ADD33RoundRect,0.150000X-0.150000X0.512500X-0.150000X-0.512500X0.150000X-0.512500X0.150000X0.512500X0*%
%TD*%
%TA.AperFunction,SMDPad,CuDef*%
%ADD34RoundRect,0.225000X-0.225000X-0.250000X0.225000X-0.250000X0.225000X0.250000X-0.225000X0.250000X0*%
%TD*%
%TA.AperFunction,SMDPad,CuDef*%
%ADD35R,1.200000X2.200000*%
%TD*%
%TA.AperFunction,SMDPad,CuDef*%
%ADD36R,5.800000X6.400000*%
%TD*%
%TA.AperFunction,SMDPad,CuDef*%
%ADD37R,0.275000X0.250000*%
%TD*%
%TA.AperFunction,SMDPad,CuDef*%
%ADD38R,0.250000X0.275000*%
%TD*%
%TA.AperFunction,SMDPad,CuDef*%
%ADD39RoundRect,0.100000X-0.100000X0.130000X-0.100000X-0.130000X0.100000X-0.130000X0.100000X0.130000X0*%
%TD*%
%TA.AperFunction,SMDPad,CuDef*%
%ADD40RoundRect,0.250000X0.450000X-0.262500X0.450000X0.262500X-0.450000X0.262500X-0.450000X-0.262500X0*%
%TD*%
%TA.AperFunction,SMDPad,CuDef*%
%ADD41RoundRect,0.150000X0.587500X0.150000X-0.587500X0.150000X-0.587500X-0.150000X0.587500X-0.150000X0*%
%TD*%
%TA.AperFunction,SMDPad,CuDef*%
%ADD42RoundRect,0.135000X-0.135000X-0.185000X0.135000X-0.185000X0.135000X0.185000X-0.135000X0.185000X0*%
%TD*%
%TA.AperFunction,SMDPad,CuDef*%
%ADD43RoundRect,0.075000X-0.700000X-0.075000X0.700000X-0.075000X0.700000X0.075000X-0.700000X0.075000X0*%
%TD*%
%TA.AperFunction,SMDPad,CuDef*%
%ADD44RoundRect,0.075000X-0.075000X-0.700000X0.075000X-0.700000X0.075000X0.700000X-0.075000X0.700000X0*%
%TD*%
%TA.AperFunction,SMDPad,CuDef*%
%ADD45R,1.350000X0.400000*%
%TD*%
%TA.AperFunction,ComponentPad*%
%ADD46C,2.586000*%
%TD*%
%TA.AperFunction,ComponentPad*%
%ADD47C,1.969000*%
%TD*%
%TA.AperFunction,SMDPad,CuDef*%
%ADD48R,5.080000X2.290000*%
%TD*%
%TA.AperFunction,SMDPad,CuDef*%
%ADD49R,0.950000X0.460000*%
%TD*%
%TA.AperFunction,ComponentPad*%
%ADD50C,0.970000*%
%TD*%
%TA.AperFunction,SMDPad,CuDef*%
%ADD51R,5.080000X2.420000*%
%TD*%
%TA.AperFunction,SMDPad,CuDef*%
%ADD52RoundRect,0.225000X0.225000X0.250000X-0.225000X0.250000X-0.225000X-0.250000X0.225000X-0.250000X0*%
%TD*%
%TA.AperFunction,SMDPad,CuDef*%
%ADD53RoundRect,0.218750X0.256250X-0.218750X0.256250X0.218750X-0.256250X0.218750X-0.256250X-0.218750X0*%
%TD*%
%TA.AperFunction,SMDPad,CuDef*%
%ADD54R,3.000000X1.400000*%
%TD*%
%TA.AperFunction,ViaPad*%
%ADD55C,0.700000*%
%TD*%
%TA.AperFunction,Conductor*%
%ADD56C,0.150000*%
%TD*%
%TA.AperFunction,Conductor*%
%ADD57C,0.800000*%
%TD*%
%TA.AperFunction,Conductor*%
%ADD58C,0.500000*%
%TD*%
%TA.AperFunction,Conductor*%
%ADD59C,0.300000*%
%TD*%
%TA.AperFunction,Conductor*%
%ADD60C,1.600000*%
%TD*%
G04 APERTURE END LIST*
D10*
%TO.P,R18,2*%
%TO.N,USB_ESD_D+*%
X156464000Y-106174000D03*
%TO.P,R18,1*%
%TO.N,+3.3V*%
X156464000Y-105154000D03*
%TD*%
D11*
%TO.P,H3,1*%
%TO.N,GND*%
X172212000Y-146812000D03*
%TD*%
%TO.P,H4,1*%
%TO.N,GND*%
X132842000Y-146558000D03*
%TD*%
%TO.P,H1,1*%
%TO.N,GND*%
X133350000Y-64770000D03*
%TD*%
%TO.P,H2,1*%
%TO.N,GND*%
X171450000Y-64770000D03*
%TD*%
D12*
%TO.P,C22,1*%
%TO.N,+3.3V*%
X170544000Y-129258000D03*
%TO.P,C22,2*%
%TO.N,GND*%
X170544000Y-128298000D03*
%TD*%
D13*
%TO.P,SW1,1,A*%
%TO.N,GND*%
X146645000Y-93555000D03*
%TO.P,SW1,2,B*%
%TO.N,/SW_BOOT0*%
X144145000Y-93555000D03*
%TO.P,SW1,3,C*%
%TO.N,+3.3V*%
X141645000Y-93555000D03*
%TD*%
D14*
%TO.P,Y1,1,1*%
%TO.N,/HSE_OUT*%
X134146000Y-107738000D03*
%TO.P,Y1,2,2*%
%TO.N,GND*%
X135546000Y-107738000D03*
%TO.P,Y1,3,3*%
%TO.N,/HSE_IN*%
X135546000Y-106638000D03*
%TO.P,Y1,4,4*%
%TO.N,GND*%
X134146000Y-106638000D03*
%TD*%
D15*
%TO.P,C16,1*%
%TO.N,VDDA*%
X136164000Y-112772000D03*
%TO.P,C16,2*%
%TO.N,GND*%
X135204000Y-112772000D03*
%TD*%
D16*
%TO.P,R12,1*%
%TO.N,PYRO4_SW*%
X147807000Y-141224000D03*
%TO.P,R12,2*%
%TO.N,PYRO4_DET*%
X146787000Y-141224000D03*
%TD*%
D17*
%TO.P,J2,8,Pin_8*%
%TO.N,ARM*%
X161544000Y-146963500D03*
%TO.P,J2,7,Pin_7*%
%TO.N,PYRO4_SW*%
X159004000Y-146963500D03*
%TO.P,J2,6,Pin_6*%
%TO.N,ARM*%
X156464000Y-146963500D03*
%TO.P,J2,5,Pin_5*%
%TO.N,PYRO3_SW*%
X153924000Y-146963500D03*
%TO.P,J2,4,Pin_4*%
%TO.N,ARM*%
X151384000Y-146963500D03*
%TO.P,J2,3,Pin_3*%
%TO.N,PYRO2_SW*%
X148844000Y-146963500D03*
%TO.P,J2,2,Pin_2*%
%TO.N,ARM*%
X146304000Y-146963500D03*
D18*
%TO.P,J2,1,Pin_1*%
%TO.N,PYRO1_SW*%
X143764000Y-146963500D03*
%TD*%
D12*
%TO.P,C13,1*%
%TO.N,+3.3V*%
X137922000Y-104620000D03*
%TO.P,C13,2*%
%TO.N,GND*%
X137922000Y-103660000D03*
%TD*%
D19*
%TO.P,J1,1,Pin_1*%
%TO.N,+3.3V*%
X129540000Y-113020000D03*
D20*
%TO.P,J1,2,Pin_2*%
%TO.N,I2C3_SDA*%
X129540000Y-110480000D03*
%TO.P,J1,3,Pin_3*%
%TO.N,I2C3_SCL*%
X129540000Y-107940000D03*
%TO.P,J1,4,Pin_4*%
%TO.N,GND*%
X129540000Y-105400000D03*
%TD*%
D21*
%TO.P,C7,1*%
%TO.N,+5V*%
X147066000Y-83553000D03*
%TO.P,C7,2*%
%TO.N,GND*%
X147066000Y-85103000D03*
%TD*%
D19*
%TO.P,J3,1,Pin_1*%
%TO.N,+3.3V*%
X175768000Y-84074000D03*
D20*
%TO.P,J3,2,Pin_2*%
%TO.N,SWDIO*%
X175768000Y-81534000D03*
%TO.P,J3,3,Pin_3*%
%TO.N,SWCLK*%
X175768000Y-78994000D03*
%TO.P,J3,4,Pin_4*%
%TO.N,GND*%
X175768000Y-76454000D03*
%TD*%
D22*
%TO.P,U6,1,GND*%
%TO.N,GND*%
X171186000Y-106430000D03*
%TO.P,U6,2,VCC_IO*%
%TO.N,+3.3V*%
X169286000Y-106430000D03*
%TO.P,U6,3,V_BCKP*%
X167386000Y-106430000D03*
%TO.P,U6,4,GND*%
%TO.N,GND*%
X165486000Y-106430000D03*
%TO.P,U6,5,GND*%
X163586000Y-106430000D03*
D23*
%TO.P,U6,6,GND*%
X160786000Y-109230000D03*
%TO.P,U6,7,TIMEPULSE*%
%TO.N,unconnected-(U6-Pad7)*%
X160786000Y-111130000D03*
%TO.P,U6,8,~{SAFEBOOT}*%
%TO.N,unconnected-(U6-Pad8)*%
X160786000Y-113030000D03*
%TO.P,U6,9,SDA*%
%TO.N,I2C2_SDA*%
X160786000Y-114930000D03*
%TO.P,U6,10,GND*%
%TO.N,GND*%
X160786000Y-116830000D03*
D22*
%TO.P,U6,11,GND*%
X163586000Y-119630000D03*
%TO.P,U6,12,SCL*%
%TO.N,I2C2_SCL*%
X165486000Y-119630000D03*
%TO.P,U6,13,TXD*%
%TO.N,unconnected-(U6-Pad13)*%
X167386000Y-119630000D03*
%TO.P,U6,14,RXD*%
%TO.N,unconnected-(U6-Pad14)*%
X169286000Y-119630000D03*
%TO.P,U6,15,GND*%
%TO.N,GND*%
X171186000Y-119630000D03*
D23*
%TO.P,U6,16,GND*%
X173986000Y-116830000D03*
%TO.P,U6,17,VCC*%
%TO.N,+3.3V*%
X173986000Y-114930000D03*
%TO.P,U6,18,~{RESET}*%
%TO.N,unconnected-(U6-Pad18)*%
X173986000Y-113030000D03*
%TO.P,U6,19,EXTINT*%
%TO.N,unconnected-(U6-Pad19)*%
X173986000Y-111130000D03*
%TO.P,U6,20,GND*%
%TO.N,GND*%
X173986000Y-109230000D03*
%TD*%
D24*
%TO.P,U4,1,SDO/SA0*%
%TO.N,GND*%
X149872000Y-100476500D03*
%TO.P,U4,2,SDX*%
X150372000Y-100476500D03*
%TO.P,U4,3,SCX*%
X150872000Y-100476500D03*
%TO.P,U4,4,INT1*%
%TO.N,unconnected-(U4-Pad4)*%
X151372000Y-100476500D03*
D25*
%TO.P,U4,5,VDDIO*%
%TO.N,+3.3V*%
X151534500Y-99814000D03*
%TO.P,U4,6,GND*%
%TO.N,GND*%
X151534500Y-99314000D03*
%TO.P,U4,7,GND*%
X151534500Y-98814000D03*
D24*
%TO.P,U4,8,VDD*%
%TO.N,+3.3V*%
X151372000Y-98151500D03*
%TO.P,U4,9,INT2*%
%TO.N,unconnected-(U4-Pad9)*%
X150872000Y-98151500D03*
%TO.P,U4,10,NC*%
%TO.N,unconnected-(U4-Pad10)*%
X150372000Y-98151500D03*
%TO.P,U4,11,NC*%
%TO.N,unconnected-(U4-Pad11)*%
X149872000Y-98151500D03*
D25*
%TO.P,U4,12,CS*%
%TO.N,+3.3V*%
X149709500Y-98814000D03*
%TO.P,U4,13,SCL*%
%TO.N,I2C1_SCL*%
X149709500Y-99314000D03*
%TO.P,U4,14,SDA*%
%TO.N,I2C1_SDA*%
X149709500Y-99814000D03*
%TD*%
D26*
%TO.P,R11,2*%
%TO.N,GND*%
X143550000Y-134366000D03*
%TO.P,R11,1*%
%TO.N,PYRO3_DET*%
X141900000Y-134366000D03*
%TD*%
D15*
%TO.P,C15,1*%
%TO.N,+3.3V*%
X150594000Y-117348000D03*
%TO.P,C15,2*%
%TO.N,GND*%
X149634000Y-117348000D03*
%TD*%
D21*
%TO.P,C1,1*%
%TO.N,ARM*%
X141224000Y-63487000D03*
%TO.P,C1,2*%
%TO.N,GND*%
X141224000Y-65037000D03*
%TD*%
D27*
%TO.P,R16,1*%
%TO.N,/LDO_LED*%
X163068000Y-75440000D03*
%TO.P,R16,2*%
%TO.N,GND*%
X163068000Y-74420000D03*
%TD*%
D28*
%TO.P,L1,1,1*%
%TO.N,/5V_I*%
X145034000Y-70080000D03*
%TO.P,L1,2,2*%
%TO.N,+5V*%
X145034000Y-79780000D03*
%TD*%
D29*
%TO.P,C26,1*%
%TO.N,+3.3V*%
X176530000Y-115316000D03*
%TO.P,C26,2*%
%TO.N,GND*%
X176530000Y-116276000D03*
%TD*%
D16*
%TO.P,R1,1*%
%TO.N,VBUS*%
X159514000Y-81788000D03*
%TO.P,R1,2*%
%TO.N,GND*%
X158494000Y-81788000D03*
%TD*%
D30*
%TO.P,Q4,3,D*%
%TO.N,PYRO3_SW*%
X143741000Y-139621500D03*
%TO.P,Q4,2,S*%
%TO.N,GND*%
X142791000Y-137746500D03*
%TO.P,Q4,1,G*%
%TO.N,PYRO3*%
X144691000Y-137746500D03*
%TD*%
D31*
%TO.P,C3,1*%
%TO.N,/5V_I*%
X144173000Y-67568000D03*
%TO.P,C3,2*%
%TO.N,/5V_C*%
X145133000Y-67568000D03*
%TD*%
D32*
%TO.P,D1,1,K*%
%TO.N,/LDO_D*%
X159585000Y-73180000D03*
%TO.P,D1,2,A*%
%TO.N,VBUS*%
X159585000Y-75980000D03*
%TD*%
D33*
%TO.P,IC1,1,FB*%
%TO.N,Net-(C5-Pad1)*%
X144968000Y-63632500D03*
%TO.P,IC1,2,EN*%
%TO.N,ARM*%
X144018000Y-63632500D03*
%TO.P,IC1,3,VIN*%
X143068000Y-63632500D03*
%TO.P,IC1,4,GND*%
%TO.N,GND*%
X143068000Y-65907500D03*
%TO.P,IC1,5,SW*%
%TO.N,/5V_I*%
X144018000Y-65907500D03*
%TO.P,IC1,6,BST*%
%TO.N,/5V_C*%
X144968000Y-65907500D03*
%TD*%
D34*
%TO.P,C2,1*%
%TO.N,/LDO_D*%
X161531000Y-73152000D03*
%TO.P,C2,2*%
%TO.N,GND*%
X163081000Y-73152000D03*
%TD*%
D26*
%TO.P,R13,2*%
%TO.N,GND*%
X147614000Y-134366000D03*
%TO.P,R13,1*%
%TO.N,PYRO4_DET*%
X145964000Y-134366000D03*
%TD*%
D35*
%TO.P,U1,1,VI*%
%TO.N,/LDO_D*%
X159645000Y-70875000D03*
%TO.P,U1,2,GND*%
%TO.N,GND*%
X161925000Y-70875000D03*
D36*
X161925000Y-64575000D03*
D35*
%TO.P,U1,3,VO*%
%TO.N,+3.3V*%
X164205000Y-70875000D03*
%TD*%
D30*
%TO.P,Q2,3,D*%
%TO.N,PYRO1_SW*%
X135613000Y-139621500D03*
%TO.P,Q2,2,S*%
%TO.N,GND*%
X134663000Y-137746500D03*
%TO.P,Q2,1,G*%
%TO.N,PYRO1*%
X136563000Y-137746500D03*
%TD*%
D37*
%TO.P,IC2,1,VDDIO*%
%TO.N,+3.3V*%
X156723000Y-112117000D03*
%TO.P,IC2,2,SCK*%
%TO.N,SPI2_SCK*%
X156723000Y-111617000D03*
D38*
%TO.P,IC2,3,VSS_1*%
%TO.N,GND*%
X156460000Y-111105000D03*
%TO.P,IC2,4,SDI*%
%TO.N,SPI2_MOSI*%
X155960000Y-111105000D03*
%TO.P,IC2,5,SDO*%
%TO.N,SPI2_MISO*%
X155460000Y-111105000D03*
D37*
%TO.P,IC2,6,CSB*%
%TO.N,SPI2_NSS*%
X155197000Y-111617000D03*
%TO.P,IC2,7,INT*%
%TO.N,unconnected-(IC2-Pad7)*%
X155197000Y-112117000D03*
D38*
%TO.P,IC2,8,VSS_2*%
%TO.N,GND*%
X155460000Y-112629000D03*
%TO.P,IC2,9,VSS_3*%
X155960000Y-112629000D03*
%TO.P,IC2,10,VDD*%
%TO.N,+3.3V*%
X156460000Y-112629000D03*
%TD*%
D33*
%TO.P,U3,6,I/O1*%
%TO.N,USB_ESD_D-*%
X166558000Y-100197500D03*
%TO.P,U3,5,VBUS*%
%TO.N,VBUS*%
X165608000Y-100197500D03*
%TO.P,U3,4,I/O2*%
%TO.N,USB_ESD_D+*%
X164658000Y-100197500D03*
%TO.P,U3,3,I/O2*%
%TO.N,/USB_D+*%
X164658000Y-97922500D03*
%TO.P,U3,2,GND*%
%TO.N,GND*%
X165608000Y-97922500D03*
%TO.P,U3,1,I/O1*%
%TO.N,/USB_D-*%
X166558000Y-97922500D03*
%TD*%
D26*
%TO.P,R7,2*%
%TO.N,GND*%
X135168000Y-134366000D03*
%TO.P,R7,1*%
%TO.N,PYRO1_DET*%
X133518000Y-134366000D03*
%TD*%
D31*
%TO.P,C5,1*%
%TO.N,Net-(C5-Pad1)*%
X144935000Y-61976000D03*
%TO.P,C5,2*%
%TO.N,+5V*%
X145895000Y-61976000D03*
%TD*%
D39*
%TO.P,FB1,1*%
%TO.N,VDDA*%
X137104000Y-112706000D03*
%TO.P,FB1,2*%
%TO.N,+3.3V*%
X137104000Y-113346000D03*
%TD*%
D34*
%TO.P,C8,1*%
%TO.N,+3.3V*%
X141224000Y-100584000D03*
%TO.P,C8,2*%
%TO.N,GND*%
X142774000Y-100584000D03*
%TD*%
D15*
%TO.P,C14,1*%
%TO.N,+3.3V*%
X142720000Y-117094000D03*
%TO.P,C14,2*%
%TO.N,GND*%
X141760000Y-117094000D03*
%TD*%
D21*
%TO.P,C6,1*%
%TO.N,+5V*%
X145288000Y-83553000D03*
%TO.P,C6,2*%
%TO.N,GND*%
X145288000Y-85103000D03*
%TD*%
D40*
%TO.P,R15,1*%
%TO.N,/5V_R*%
X143002000Y-85344000D03*
%TO.P,R15,2*%
%TO.N,+5V*%
X143002000Y-83519000D03*
%TD*%
D41*
%TO.P,Q1,1,G*%
%TO.N,VBUS*%
X159433500Y-79690000D03*
%TO.P,Q1,2,S*%
X159433500Y-77790000D03*
%TO.P,Q1,3,D*%
%TO.N,+5V*%
X157558500Y-78740000D03*
%TD*%
D18*
%TO.P,J5,1,Pin_1*%
%TO.N,ARM*%
X131445000Y-75184000D03*
D17*
%TO.P,J5,2,Pin_2*%
%TO.N,BATT*%
X131445000Y-77724000D03*
%TD*%
D16*
%TO.P,R8,2*%
%TO.N,PYRO2_DET*%
X138659000Y-141224000D03*
%TO.P,R8,1*%
%TO.N,PYRO2_SW*%
X139679000Y-141224000D03*
%TD*%
D42*
%TO.P,R14,1*%
%TO.N,GND*%
X140460000Y-85598000D03*
%TO.P,R14,2*%
%TO.N,/5V_R*%
X141480000Y-85598000D03*
%TD*%
D43*
%TO.P,U2,1,VBAT*%
%TO.N,+3.3V*%
X140121000Y-105216000D03*
%TO.P,U2,2,PC13*%
%TO.N,unconnected-(U2-Pad2)*%
X140121000Y-105716000D03*
%TO.P,U2,3,PC14*%
%TO.N,unconnected-(U2-Pad3)*%
X140121000Y-106216000D03*
%TO.P,U2,4,PC15*%
%TO.N,unconnected-(U2-Pad4)*%
X140121000Y-106716000D03*
%TO.P,U2,5,PH0*%
%TO.N,/HSE_IN*%
X140121000Y-107216000D03*
%TO.P,U2,6,PH1*%
%TO.N,/HSE_OUT*%
X140121000Y-107716000D03*
%TO.P,U2,7,NRST*%
%TO.N,/NRST*%
X140121000Y-108216000D03*
%TO.P,U2,8,PC0*%
%TO.N,I2C3_SCL*%
X140121000Y-108716000D03*
%TO.P,U2,9,PC1*%
%TO.N,I2C3_SDA*%
X140121000Y-109216000D03*
%TO.P,U2,10,PC2*%
%TO.N,unconnected-(U2-Pad10)*%
X140121000Y-109716000D03*
%TO.P,U2,11,PC3*%
%TO.N,unconnected-(U2-Pad11)*%
X140121000Y-110216000D03*
%TO.P,U2,12,VSSA*%
%TO.N,GND*%
X140121000Y-110716000D03*
%TO.P,U2,13,VDDA*%
%TO.N,VDDA*%
X140121000Y-111216000D03*
%TO.P,U2,14,PA0*%
%TO.N,PYRO1_DET*%
X140121000Y-111716000D03*
%TO.P,U2,15,PA1*%
%TO.N,PYRO2_DET*%
X140121000Y-112216000D03*
%TO.P,U2,16,PA2*%
%TO.N,PYRO3_DET*%
X140121000Y-112716000D03*
D44*
%TO.P,U2,17,PA3*%
%TO.N,PYRO4_DET*%
X142046000Y-114641000D03*
%TO.P,U2,18,VSS*%
%TO.N,GND*%
X142546000Y-114641000D03*
%TO.P,U2,19,VDD*%
%TO.N,+3.3V*%
X143046000Y-114641000D03*
%TO.P,U2,20,PA4*%
%TO.N,SPI1_NSS*%
X143546000Y-114641000D03*
%TO.P,U2,21,PA5*%
%TO.N,SPI1_SCK*%
X144046000Y-114641000D03*
%TO.P,U2,22,PA6*%
%TO.N,SPI1_MISO*%
X144546000Y-114641000D03*
%TO.P,U2,23,PA7*%
%TO.N,SPI1_MOSI*%
X145046000Y-114641000D03*
%TO.P,U2,24,PC4*%
%TO.N,RF_RESET*%
X145546000Y-114641000D03*
%TO.P,U2,25,PC5*%
%TO.N,PYRO1*%
X146046000Y-114641000D03*
%TO.P,U2,26,PB0*%
%TO.N,PYRO2*%
X146546000Y-114641000D03*
%TO.P,U2,27,PB1*%
%TO.N,PYRO3*%
X147046000Y-114641000D03*
%TO.P,U2,28,PB2*%
%TO.N,PYRO4*%
X147546000Y-114641000D03*
%TO.P,U2,29,PB10*%
%TO.N,I2C2_SCL*%
X148046000Y-114641000D03*
%TO.P,U2,30,PB11*%
%TO.N,I2C2_SDA*%
X148546000Y-114641000D03*
%TO.P,U2,31,VSS*%
%TO.N,GND*%
X149046000Y-114641000D03*
%TO.P,U2,32,VDD*%
%TO.N,+3.3V*%
X149546000Y-114641000D03*
D43*
%TO.P,U2,33,PB12*%
%TO.N,SPI2_NSS*%
X151471000Y-112716000D03*
%TO.P,U2,34,PB13*%
%TO.N,SPI2_SCK*%
X151471000Y-112216000D03*
%TO.P,U2,35,PB14*%
%TO.N,SPI2_MISO*%
X151471000Y-111716000D03*
%TO.P,U2,36,PB15*%
%TO.N,SPI2_MOSI*%
X151471000Y-111216000D03*
%TO.P,U2,37,PC6*%
%TO.N,unconnected-(U2-Pad37)*%
X151471000Y-110716000D03*
%TO.P,U2,38,PC7*%
%TO.N,SDMMC_DET*%
X151471000Y-110216000D03*
%TO.P,U2,39,PC8*%
%TO.N,SDMMC_D0*%
X151471000Y-109716000D03*
%TO.P,U2,40,PC9*%
%TO.N,SDMMC_D1*%
X151471000Y-109216000D03*
%TO.P,U2,41,PA8*%
%TO.N,RF_DIO0*%
X151471000Y-108716000D03*
%TO.P,U2,42,PA9*%
%TO.N,RF_DIO1*%
X151471000Y-108216000D03*
%TO.P,U2,43,PA10*%
%TO.N,RF_DIO5*%
X151471000Y-107716000D03*
%TO.P,U2,44,PA11*%
%TO.N,USB_ESD_D-*%
X151471000Y-107216000D03*
%TO.P,U2,45,PA12*%
%TO.N,USB_ESD_D+*%
X151471000Y-106716000D03*
%TO.P,U2,46,PA13*%
%TO.N,SWDIO*%
X151471000Y-106216000D03*
%TO.P,U2,47,VSS*%
%TO.N,GND*%
X151471000Y-105716000D03*
%TO.P,U2,48,VDDUSB*%
%TO.N,+3.3V*%
X151471000Y-105216000D03*
D44*
%TO.P,U2,49,PA14*%
%TO.N,SWCLK*%
X149546000Y-103291000D03*
%TO.P,U2,50,PA15*%
%TO.N,unconnected-(U2-Pad50)*%
X149046000Y-103291000D03*
%TO.P,U2,51,PC10*%
%TO.N,SDMMC_D2*%
X148546000Y-103291000D03*
%TO.P,U2,52,PC11*%
%TO.N,SDMMC_D3*%
X148046000Y-103291000D03*
%TO.P,U2,53,PC12*%
%TO.N,SDMMC_CLK*%
X147546000Y-103291000D03*
%TO.P,U2,54,PD2*%
%TO.N,SDMMC_CMD*%
X147046000Y-103291000D03*
%TO.P,U2,55,PB3*%
%TO.N,unconnected-(U2-Pad55)*%
X146546000Y-103291000D03*
%TO.P,U2,56,PB4*%
%TO.N,unconnected-(U2-Pad56)*%
X146046000Y-103291000D03*
%TO.P,U2,57,PB5*%
%TO.N,unconnected-(U2-Pad57)*%
X145546000Y-103291000D03*
%TO.P,U2,58,PB6*%
%TO.N,I2C1_SCL*%
X145046000Y-103291000D03*
%TO.P,U2,59,PB7*%
%TO.N,I2C1_SDA*%
X144546000Y-103291000D03*
%TO.P,U2,60,BOOT0*%
%TO.N,/BOOT0*%
X144046000Y-103291000D03*
%TO.P,U2,61,PB8*%
%TO.N,unconnected-(U2-Pad61)*%
X143546000Y-103291000D03*
%TO.P,U2,62,PB9*%
%TO.N,unconnected-(U2-Pad62)*%
X143046000Y-103291000D03*
%TO.P,U2,63,VSS*%
%TO.N,GND*%
X142546000Y-103291000D03*
%TO.P,U2,64,VDD*%
%TO.N,+3.3V*%
X142046000Y-103291000D03*
%TD*%
D18*
%TO.P,J4,1,Pin_1*%
%TO.N,BATT*%
X131445000Y-82380000D03*
D17*
%TO.P,J4,2,Pin_2*%
%TO.N,GND*%
X131445000Y-84920000D03*
%TD*%
D16*
%TO.P,R10,2*%
%TO.N,PYRO3_DET*%
X142723000Y-141224000D03*
%TO.P,R10,1*%
%TO.N,PYRO3_SW*%
X143743000Y-141224000D03*
%TD*%
D45*
%TO.P,J7,1,VBUS*%
%TO.N,VBUS*%
X172585000Y-95310000D03*
%TO.P,J7,2,D-*%
%TO.N,/USB_D-*%
X172585000Y-94660000D03*
%TO.P,J7,3,D+*%
%TO.N,/USB_D+*%
X172585000Y-94010000D03*
%TO.P,J7,4,ID*%
%TO.N,unconnected-(J7-Pad4)*%
X172585000Y-93360000D03*
%TO.P,J7,5,GND*%
%TO.N,GND*%
X172585000Y-92710000D03*
D46*
%TO.P,J7,MH1*%
%TO.N,N/C*%
X175260000Y-97610000D03*
%TO.P,J7,MH2*%
X175260000Y-90410000D03*
D47*
%TO.P,J7,MH3*%
X172460000Y-97310000D03*
%TO.P,J7,MH4*%
X172460000Y-90710000D03*
%TD*%
D12*
%TO.P,C12,1*%
%TO.N,/HSE_IN*%
X136878000Y-106906000D03*
%TO.P,C12,2*%
%TO.N,GND*%
X136878000Y-105946000D03*
%TD*%
D26*
%TO.P,R9,2*%
%TO.N,GND*%
X139232000Y-134366000D03*
%TO.P,R9,1*%
%TO.N,PYRO2_DET*%
X137582000Y-134366000D03*
%TD*%
D16*
%TO.P,R2,2*%
%TO.N,GND*%
X135611000Y-135890000D03*
%TO.P,R2,1*%
%TO.N,PYRO1*%
X136631000Y-135890000D03*
%TD*%
D29*
%TO.P,C10,1*%
%TO.N,+3.3V*%
X154178000Y-104930000D03*
%TO.P,C10,2*%
%TO.N,GND*%
X154178000Y-105890000D03*
%TD*%
D30*
%TO.P,Q5,3,D*%
%TO.N,PYRO4_SW*%
X147805000Y-139621500D03*
%TO.P,Q5,2,S*%
%TO.N,GND*%
X146855000Y-137746500D03*
%TO.P,Q5,1,G*%
%TO.N,PYRO4*%
X148755000Y-137746500D03*
%TD*%
D31*
%TO.P,C25,1*%
%TO.N,+3.3V*%
X169700000Y-104140000D03*
%TO.P,C25,2*%
%TO.N,GND*%
X170660000Y-104140000D03*
%TD*%
D16*
%TO.P,R3,2*%
%TO.N,GND*%
X139675000Y-135890000D03*
%TO.P,R3,1*%
%TO.N,PYRO2*%
X140695000Y-135890000D03*
%TD*%
D12*
%TO.P,C20,1*%
%TO.N,+3.3V*%
X153670000Y-99794000D03*
%TO.P,C20,2*%
%TO.N,GND*%
X153670000Y-98834000D03*
%TD*%
D15*
%TO.P,C17,1*%
%TO.N,VDDA*%
X136164000Y-111502000D03*
%TO.P,C17,2*%
%TO.N,GND*%
X135204000Y-111502000D03*
%TD*%
D10*
%TO.P,R17,1*%
%TO.N,/SW_BOOT0*%
X144018000Y-96899000D03*
%TO.P,R17,2*%
%TO.N,/BOOT0*%
X144018000Y-97919000D03*
%TD*%
D48*
%TO.P,J8,1,In*%
%TO.N,/RF_ANT*%
X174365000Y-137160000D03*
D49*
%TO.P,J8,2,Ext*%
%TO.N,GND*%
X171375000Y-132780000D03*
X171375000Y-141540000D03*
D50*
X170925000Y-141540000D03*
D51*
X174365000Y-141540000D03*
X174365000Y-132780000D03*
D50*
X170925000Y-132780000D03*
%TD*%
D16*
%TO.P,R5,2*%
%TO.N,GND*%
X147803000Y-135874000D03*
%TO.P,R5,1*%
%TO.N,PYRO4*%
X148823000Y-135874000D03*
%TD*%
D30*
%TO.P,Q3,3,D*%
%TO.N,PYRO2_SW*%
X139677000Y-139621500D03*
%TO.P,Q3,2,S*%
%TO.N,GND*%
X138727000Y-137746500D03*
%TO.P,Q3,1,G*%
%TO.N,PYRO2*%
X140627000Y-137746500D03*
%TD*%
D52*
%TO.P,C4,1*%
%TO.N,+3.3V*%
X142507000Y-118364000D03*
%TO.P,C4,2*%
%TO.N,GND*%
X140957000Y-118364000D03*
%TD*%
D15*
%TO.P,C23,1*%
%TO.N,+3.3V*%
X156948000Y-114788000D03*
%TO.P,C23,2*%
%TO.N,GND*%
X155988000Y-114788000D03*
%TD*%
D16*
%TO.P,R4,2*%
%TO.N,GND*%
X143739000Y-135874000D03*
%TO.P,R4,1*%
%TO.N,PYRO3*%
X144759000Y-135874000D03*
%TD*%
D15*
%TO.P,C11,1*%
%TO.N,/NRST*%
X140180000Y-102616000D03*
%TO.P,C11,2*%
%TO.N,GND*%
X139220000Y-102616000D03*
%TD*%
D29*
%TO.P,C9,1*%
%TO.N,/HSE_OUT*%
X136910000Y-108740000D03*
%TO.P,C9,2*%
%TO.N,GND*%
X136910000Y-109700000D03*
%TD*%
D16*
%TO.P,R6,1*%
%TO.N,PYRO1_SW*%
X135615000Y-141224000D03*
%TO.P,R6,2*%
%TO.N,PYRO1_DET*%
X134595000Y-141224000D03*
%TD*%
D53*
%TO.P,D2,1,K*%
%TO.N,/LDO_LED*%
X164592000Y-74701500D03*
%TO.P,D2,2,A*%
%TO.N,+3.3V*%
X164592000Y-73126500D03*
%TD*%
D15*
%TO.P,C21,1*%
%TO.N,+3.3V*%
X150340000Y-96778000D03*
%TO.P,C21,2*%
%TO.N,GND*%
X149380000Y-96778000D03*
%TD*%
D12*
%TO.P,C24,1*%
%TO.N,+3.3V*%
X158750000Y-111712000D03*
%TO.P,C24,2*%
%TO.N,GND*%
X158750000Y-110752000D03*
%TD*%
D29*
%TO.P,C18,1*%
%TO.N,+3.3V*%
X135128000Y-113848000D03*
%TO.P,C18,2*%
%TO.N,GND*%
X135128000Y-114808000D03*
%TD*%
D54*
%TO.P,U5,1,GND*%
%TO.N,GND*%
X152320000Y-123175000D03*
%TO.P,U5,2,MISO*%
%TO.N,SPI1_MISO*%
X152320000Y-125175000D03*
%TO.P,U5,3,MOSI*%
%TO.N,SPI1_MOSI*%
X152320000Y-127175000D03*
%TO.P,U5,4,SCK*%
%TO.N,SPI1_SCK*%
X152320000Y-129175000D03*
%TO.P,U5,5,NSS*%
%TO.N,SPI1_NSS*%
X152320000Y-131175000D03*
%TO.P,U5,6,RESET*%
%TO.N,RF_RESET*%
X152320000Y-133175000D03*
%TO.P,U5,7,DIO5*%
%TO.N,RF_DIO5*%
X152320000Y-135175000D03*
%TO.P,U5,8,GND*%
%TO.N,GND*%
X152320000Y-137175000D03*
%TO.P,U5,9,ANT*%
%TO.N,/RF_ANT*%
X167720000Y-137175000D03*
%TO.P,U5,10,GND*%
%TO.N,GND*%
X167720000Y-135175000D03*
%TO.P,U5,11,DIO3*%
%TO.N,unconnected-(U5-Pad11)*%
X167720000Y-133175000D03*
%TO.P,U5,12,DIO4*%
%TO.N,unconnected-(U5-Pad12)*%
X167720000Y-131175000D03*
%TO.P,U5,13,3.3V*%
%TO.N,+3.3V*%
X167720000Y-129175000D03*
%TO.P,U5,14,DIO0*%
%TO.N,RF_DIO0*%
X167720000Y-127175000D03*
%TO.P,U5,15,DIO1*%
%TO.N,RF_DIO1*%
X167720000Y-125175000D03*
%TO.P,U5,16,DIO2*%
%TO.N,unconnected-(U5-Pad16)*%
X167720000Y-123175000D03*
%TD*%
D55*
%TO.N,ARM*%
X132334000Y-111760000D03*
X132334000Y-109474000D03*
%TO.N,GND*%
X148590000Y-96774000D03*
X162306000Y-109220000D03*
X156468000Y-110216000D03*
X134112000Y-105410000D03*
X141224000Y-66040000D03*
X171196000Y-107950000D03*
X140716000Y-127762000D03*
X136144000Y-114808000D03*
X165147000Y-135175000D03*
X146812000Y-136295500D03*
X162306000Y-116840000D03*
X165354000Y-107950000D03*
X149835000Y-137454750D03*
X136144000Y-109630500D03*
X158750000Y-109982000D03*
X138684000Y-136295500D03*
X142748000Y-136295500D03*
X163576000Y-118110000D03*
X171196000Y-92710000D03*
X172466000Y-116840000D03*
X149352000Y-116332000D03*
X164084000Y-68580000D03*
X142421500Y-113284000D03*
X152654000Y-98806000D03*
X134366000Y-111506000D03*
X163576000Y-99060000D03*
X157480000Y-81788000D03*
X134366000Y-112776000D03*
X142748000Y-101854000D03*
X155960000Y-113899000D03*
X139446000Y-85598000D03*
X172466000Y-109220000D03*
X153162000Y-105918000D03*
X136647496Y-107916732D03*
X138176000Y-102870000D03*
X150368000Y-101346000D03*
X138697875Y-110747301D03*
X146050000Y-86360000D03*
X134620000Y-136295500D03*
X142748000Y-67310000D03*
X170544000Y-127364000D03*
X136906000Y-105156000D03*
X146685000Y-96139000D03*
X159766000Y-68580000D03*
X150368000Y-122936000D03*
X171196000Y-118110000D03*
%TO.N,+3.3V*%
X138684000Y-105156000D03*
X141478000Y-101854000D03*
X148844000Y-98806000D03*
X169164000Y-107950000D03*
X136144000Y-113792000D03*
X140716000Y-125730000D03*
X141605000Y-96139000D03*
X150368000Y-116332000D03*
X172466000Y-114808000D03*
X142803910Y-112469834D03*
X153162000Y-104902000D03*
X156464000Y-104140000D03*
X152654000Y-99822000D03*
X151384000Y-97028000D03*
X165497000Y-129175000D03*
X165862000Y-70866000D03*
X156976000Y-113899000D03*
%TO.N,VBUS*%
X166562595Y-87691405D03*
X168148000Y-96774000D03*
%TO.N,SPI2_SCK*%
X153162000Y-112340500D03*
X155960000Y-111941998D03*
%TO.N,PYRO1*%
X146170500Y-116332000D03*
X136398000Y-134750500D03*
%TO.N,PYRO2*%
X140462000Y-134771500D03*
X146537500Y-117218007D03*
%TO.N,PYRO3*%
X146921500Y-118065858D03*
X144780000Y-134771500D03*
%TO.N,PYRO4*%
X148844000Y-134771500D03*
X147457500Y-118872000D03*
%TO.N,SDMMC_DET*%
X149142196Y-111060067D03*
%TO.N,SDMMC_D0*%
X146624411Y-110302411D03*
%TO.N,SDMMC_D1*%
X148336000Y-109474000D03*
%TO.N,RF_DIO0*%
X153162000Y-109474000D03*
X165354000Y-127254000D03*
%TO.N,RF_DIO1*%
X165354000Y-125222000D03*
X153924000Y-108849500D03*
%TO.N,RF_DIO5*%
X154724081Y-108225000D03*
X167132000Y-121412000D03*
%TO.N,SDMMC_D2*%
X147297000Y-106934000D03*
%TO.N,SDMMC_D3*%
X147921500Y-106047401D03*
%TO.N,SDMMC_CLK*%
X146116411Y-105476411D03*
%TO.N,SDMMC_CMD*%
X146921500Y-104882000D03*
%TO.N,I2C1_SDA*%
X146050000Y-100584000D03*
X148336000Y-100192500D03*
%TD*%
D56*
%TO.N,USB_ESD_D+*%
X152758141Y-106893000D02*
X156423000Y-106893000D01*
X156423000Y-106893000D02*
X159424093Y-106893000D01*
X156464000Y-106174000D02*
X156464000Y-106852000D01*
X156464000Y-106852000D02*
X156423000Y-106893000D01*
%TO.N,/USB_D-*%
X171120807Y-94563193D02*
X171120807Y-94563194D01*
X171047614Y-94636387D02*
X170594000Y-94636387D01*
X171572499Y-94660000D02*
X171402499Y-94490000D01*
X170520813Y-94563194D02*
G75*
G03*
X170594000Y-94636387I73187J-6D01*
G01*
X169094013Y-95086387D02*
G75*
G03*
X169394000Y-95386387I299987J-13D01*
G01*
X169394000Y-95386400D02*
G75*
G03*
X169694000Y-95086387I0J300000D01*
G01*
X169694000Y-94790000D02*
G75*
G02*
X169994000Y-94490000I300000J0D01*
G01*
X168794000Y-94490000D02*
G75*
G02*
X169094000Y-94790000I0J-300000D01*
G01*
X171402499Y-94490000D02*
X171194000Y-94490000D01*
X166558000Y-96460907D02*
X166558000Y-97922500D01*
X170447614Y-94489993D02*
G75*
G02*
X170520807Y-94563193I-14J-73207D01*
G01*
X170447614Y-94490000D02*
X169994000Y-94490000D01*
X172585000Y-94660000D02*
X171572499Y-94660000D01*
X171047614Y-94636407D02*
G75*
G03*
X171120807Y-94563194I-14J73207D01*
G01*
X171120800Y-94563193D02*
G75*
G02*
X171194000Y-94490000I73200J-7D01*
G01*
X170520807Y-94563194D02*
X170520807Y-94563193D01*
X169694000Y-94790000D02*
X169694000Y-95086387D01*
X169094000Y-95086387D02*
X169094000Y-94790000D01*
X168794000Y-94490000D02*
X168744000Y-94490000D01*
X168744000Y-94490000D02*
X168528907Y-94490000D01*
X168528907Y-94490000D02*
X166558000Y-96460907D01*
%TO.N,/USB_D+*%
X164658000Y-97922500D02*
X165033000Y-97547500D01*
X165033000Y-97547500D02*
X165033000Y-97233959D01*
X165033000Y-97233959D02*
X165281959Y-96985000D01*
X165281959Y-96985000D02*
X165595500Y-96985000D01*
X165595500Y-96985000D02*
X168400500Y-94180000D01*
X168400500Y-94180000D02*
X171402499Y-94180000D01*
X171402499Y-94180000D02*
X171572499Y-94010000D01*
X171572499Y-94010000D02*
X172585000Y-94010000D01*
%TO.N,USB_ESD_D+*%
X160396617Y-105021821D02*
X160633814Y-105259018D01*
X160209561Y-105683268D02*
G75*
G02*
X160209547Y-106107546I-212161J-212132D01*
G01*
X160396617Y-105021822D02*
X160396617Y-105021821D01*
X159424093Y-106893000D02*
X160209547Y-106107546D01*
X160209547Y-105683282D02*
X159972351Y-105446086D01*
X151565999Y-106810999D02*
X152676140Y-106810999D01*
X161058077Y-105259017D02*
G75*
G02*
X160633815Y-105259017I-212131J212131D01*
G01*
X164658000Y-101659093D02*
X164658000Y-100197500D01*
X151471000Y-106716000D02*
X151565999Y-106810999D01*
X160396616Y-105021823D02*
G75*
G03*
X159972352Y-105021823I-212132J-212130D01*
G01*
X161058078Y-105259018D02*
X161058077Y-105259017D01*
X159972397Y-105021868D02*
G75*
G03*
X159972351Y-105446086I212103J-212132D01*
G01*
X152676140Y-106810999D02*
X152758141Y-106893000D01*
X161058077Y-105259017D02*
X164658000Y-101659093D01*
%TO.N,USB_ESD_D-*%
X165934041Y-101135000D02*
X166183000Y-100886041D01*
X152629743Y-107202981D02*
X159552519Y-107202981D01*
X152547762Y-107121001D02*
X152629743Y-107202981D01*
X151565999Y-107121001D02*
X152547762Y-107121001D01*
X159552519Y-107202981D02*
X165620500Y-101135000D01*
X151471000Y-107216000D02*
X151565999Y-107121001D01*
X165620500Y-101135000D02*
X165934041Y-101135000D01*
X166183000Y-100886041D02*
X166183000Y-100572500D01*
X166183000Y-100572500D02*
X166558000Y-100197500D01*
D57*
%TO.N,VBUS*%
X168783000Y-97409000D02*
X167640000Y-98552000D01*
D56*
%TO.N,+3.3V*%
X156464000Y-105154000D02*
X156464000Y-104140000D01*
%TO.N,PYRO4_DET*%
X145964000Y-129962000D02*
X145964000Y-134366000D01*
%TO.N,PYRO3_DET*%
X139882000Y-133212500D02*
X140746500Y-133212500D01*
X140746500Y-133212500D02*
X141900000Y-134366000D01*
%TO.N,PYRO2_DET*%
X140121000Y-112216000D02*
X139351025Y-112216000D01*
X139351025Y-112216000D02*
X138430000Y-113137026D01*
X138430000Y-113137026D02*
X138430000Y-115570000D01*
X138430000Y-115570000D02*
X134620000Y-119380000D01*
X135484500Y-132268500D02*
X137582000Y-134366000D01*
X134620000Y-119380000D02*
X134620000Y-132268500D01*
X134620000Y-132268500D02*
X135484500Y-132268500D01*
%TO.N,PYRO1_DET*%
X133518000Y-119212000D02*
X133518000Y-134366000D01*
D57*
%TO.N,ARM*%
X129540000Y-120759001D02*
X129540000Y-137922000D01*
X134112000Y-142494000D02*
X129540000Y-137922000D01*
X138684000Y-147574000D02*
X138684000Y-147025988D01*
X138684000Y-147025988D02*
X134152012Y-142494000D01*
X134152012Y-142494000D02*
X134112000Y-142494000D01*
%TO.N,PYRO1_SW*%
X139954000Y-146963500D02*
X139954000Y-145397786D01*
X139954000Y-145397786D02*
X135780214Y-141224000D01*
X135780214Y-141224000D02*
X135615000Y-141224000D01*
%TO.N,ARM*%
X132334000Y-111760000D02*
X132080000Y-112014000D01*
X132080000Y-112014000D02*
X132080000Y-118219001D01*
X139723500Y-148613500D02*
X146138924Y-148613500D01*
X132080000Y-118219001D02*
X129540000Y-120759001D01*
X146138924Y-148613500D02*
X146304000Y-148448424D01*
X146304000Y-148448424D02*
X146304000Y-146963500D01*
X138684000Y-147574000D02*
X139723500Y-148613500D01*
D58*
%TO.N,PYRO4_DET*%
X145964000Y-140639000D02*
X146202000Y-140639000D01*
X146202000Y-140639000D02*
X146787000Y-141224000D01*
%TO.N,PYRO3_DET*%
X141900000Y-140655000D02*
X142154000Y-140655000D01*
X142154000Y-140655000D02*
X142723000Y-141224000D01*
%TO.N,PYRO2_DET*%
X137582000Y-140401000D02*
X138104082Y-140401000D01*
X138104082Y-140401000D02*
X138659000Y-140955918D01*
X138659000Y-140955918D02*
X138659000Y-141224000D01*
%TO.N,PYRO1_DET*%
X133518000Y-140401000D02*
X133772000Y-140401000D01*
X133772000Y-140401000D02*
X134595000Y-141224000D01*
D59*
%TO.N,VBUS*%
X165608000Y-100197500D02*
X165608000Y-99259107D01*
X165608000Y-99259107D02*
X165807107Y-99060000D01*
X165807107Y-99060000D02*
X167640000Y-99060000D01*
%TO.N,GND*%
X165608000Y-98552000D02*
X165100000Y-99060000D01*
X165608000Y-97922500D02*
X165608000Y-98552000D01*
X165100000Y-99060000D02*
X163576000Y-99060000D01*
D56*
%TO.N,PYRO1_DET*%
X140121000Y-111716000D02*
X139351025Y-111716000D01*
X139351025Y-111716000D02*
X138080000Y-112987025D01*
X138080000Y-112987025D02*
X138080000Y-114650000D01*
X138080000Y-114650000D02*
X133518000Y-119212000D01*
%TO.N,SDMMC_CLK*%
X146116411Y-105476411D02*
X146147000Y-105507000D01*
X146147000Y-105507000D02*
X147180384Y-105507000D01*
X147546000Y-105141384D02*
X147546000Y-103291000D01*
X147180384Y-105507000D02*
X147546000Y-105141384D01*
D57*
%TO.N,ARM*%
X154814000Y-148613500D02*
X156464000Y-146963500D01*
X159894000Y-148613500D02*
X161544000Y-146963500D01*
X133095000Y-76834000D02*
X131445000Y-75184000D01*
X149734000Y-148613500D02*
X151384000Y-146963500D01*
X153034000Y-148613500D02*
X154814000Y-148613500D01*
X151384000Y-146963500D02*
X153034000Y-148613500D01*
X143068000Y-63632500D02*
X141369500Y-63632500D01*
X144018000Y-63632500D02*
X143068000Y-63632500D01*
X158114000Y-148613500D02*
X159894000Y-148613500D01*
X140983000Y-63487000D02*
X131445000Y-73025000D01*
X132334000Y-109474000D02*
X132334000Y-95250000D01*
X141224000Y-63487000D02*
X140983000Y-63487000D01*
X156464000Y-146963500D02*
X158114000Y-148613500D01*
X131445000Y-73025000D02*
X131445000Y-75184000D01*
X146304000Y-146963500D02*
X147954000Y-148613500D01*
X147954000Y-148613500D02*
X149734000Y-148613500D01*
X133095000Y-94489000D02*
X133095000Y-76834000D01*
X132334000Y-95250000D02*
X133095000Y-94489000D01*
X141369500Y-63632500D02*
X141224000Y-63487000D01*
D58*
%TO.N,GND*%
X134663000Y-137746500D02*
X134663000Y-136338500D01*
X142791000Y-136338500D02*
X142748000Y-136295500D01*
D57*
X140460000Y-85598000D02*
X139446000Y-85598000D01*
D58*
X139232000Y-134366000D02*
X139232000Y-135447000D01*
D56*
X152960000Y-105716000D02*
X153162000Y-105918000D01*
X149872000Y-100476500D02*
X150372000Y-100476500D01*
D57*
X162296000Y-109230000D02*
X162306000Y-109220000D01*
D56*
X141760000Y-117094000D02*
X141760000Y-117561000D01*
D57*
X171186000Y-119630000D02*
X171186000Y-118120000D01*
D60*
X161925000Y-64575000D02*
X161925000Y-68453000D01*
D56*
X150372000Y-100476500D02*
X150372000Y-101342000D01*
D57*
X160786000Y-116830000D02*
X162296000Y-116830000D01*
D56*
X170660000Y-104140000D02*
X171186000Y-104666000D01*
X142748000Y-101854000D02*
X142748000Y-100610000D01*
D57*
X149850000Y-137469750D02*
X149835000Y-137454750D01*
D56*
X141760000Y-117561000D02*
X140957000Y-118364000D01*
X151534500Y-98814000D02*
X151534500Y-99314000D01*
X156460000Y-111105000D02*
X156460000Y-110605000D01*
X149046000Y-116026000D02*
X149352000Y-116332000D01*
D57*
X171186000Y-118120000D02*
X171196000Y-118110000D01*
D60*
X163957000Y-68453000D02*
X164084000Y-68580000D01*
D57*
X146063000Y-85103000D02*
X146063000Y-86347000D01*
X150368000Y-122936000D02*
X150607000Y-123175000D01*
D58*
X138727000Y-136338500D02*
X138684000Y-136295500D01*
D56*
X134146000Y-106638000D02*
X134146000Y-105444000D01*
X153162000Y-105918000D02*
X154150000Y-105918000D01*
D57*
X165147000Y-135175000D02*
X167720000Y-135175000D01*
X141224000Y-65037000D02*
X141224000Y-66040000D01*
X163586000Y-118120000D02*
X163576000Y-118110000D01*
D58*
X138727000Y-137746500D02*
X138727000Y-136338500D01*
X135168000Y-134366000D02*
X135168000Y-135447000D01*
D56*
X142421500Y-116432500D02*
X141760000Y-117094000D01*
D57*
X163586000Y-106430000D02*
X165486000Y-106430000D01*
D56*
X142546000Y-114641000D02*
X142546000Y-113408500D01*
D57*
X165486000Y-107818000D02*
X165354000Y-107950000D01*
D56*
X137922000Y-103124000D02*
X138176000Y-102870000D01*
X142421500Y-116078000D02*
X142546000Y-115953500D01*
X142421500Y-116078000D02*
X142421500Y-116432500D01*
X146645000Y-93555000D02*
X146645000Y-96099000D01*
D57*
X146063000Y-86347000D02*
X146050000Y-86360000D01*
X146063000Y-85103000D02*
X147066000Y-85103000D01*
D56*
X176530000Y-116276000D02*
X175976000Y-116830000D01*
X138966000Y-102870000D02*
X139220000Y-102616000D01*
D58*
X143550000Y-134366000D02*
X143550000Y-135685000D01*
D56*
X142546000Y-115953500D02*
X142546000Y-114641000D01*
X135204000Y-112772000D02*
X134370000Y-112772000D01*
X175976000Y-116830000D02*
X173986000Y-116830000D01*
X138176000Y-102870000D02*
X138966000Y-102870000D01*
D58*
X147614000Y-135685000D02*
X147803000Y-135874000D01*
D56*
X152146000Y-99314000D02*
X152654000Y-98806000D01*
D57*
X160786000Y-109230000D02*
X162296000Y-109230000D01*
D58*
X163081000Y-72031000D02*
X161925000Y-70875000D01*
X163068000Y-73165000D02*
X163081000Y-73152000D01*
D56*
X136910000Y-109700000D02*
X136213500Y-109700000D01*
D58*
X158494000Y-81788000D02*
X157480000Y-81788000D01*
D60*
X161925000Y-68453000D02*
X161925000Y-70875000D01*
D56*
X142546000Y-102056000D02*
X142748000Y-101854000D01*
X134370000Y-111502000D02*
X134366000Y-111506000D01*
X149380000Y-96778000D02*
X148594000Y-96778000D01*
D57*
X152295000Y-137469750D02*
X149850000Y-137469750D01*
D60*
X161925000Y-68453000D02*
X159893000Y-68453000D01*
D56*
X152654000Y-98806000D02*
X153642000Y-98806000D01*
D57*
X173986000Y-116830000D02*
X172476000Y-116830000D01*
X173986000Y-109230000D02*
X172476000Y-109230000D01*
D56*
X136468764Y-107738000D02*
X136647496Y-107916732D01*
X150372000Y-101342000D02*
X150368000Y-101346000D01*
D58*
X163068000Y-74420000D02*
X163068000Y-73165000D01*
D60*
X161925000Y-68453000D02*
X163957000Y-68453000D01*
D56*
X134146000Y-105444000D02*
X134112000Y-105410000D01*
X136213500Y-109700000D02*
X136144000Y-109630500D01*
X135128000Y-114808000D02*
X136144000Y-114808000D01*
D57*
X163586000Y-119630000D02*
X163586000Y-118120000D01*
D56*
X148594000Y-96778000D02*
X148590000Y-96774000D01*
D58*
X139232000Y-135447000D02*
X139675000Y-135890000D01*
D56*
X142546000Y-113408500D02*
X142421500Y-113284000D01*
D58*
X143068000Y-65907500D02*
X143068000Y-66990000D01*
D56*
X171196000Y-92710000D02*
X172585000Y-92710000D01*
D58*
X139675000Y-135890000D02*
X139675000Y-136798500D01*
D57*
X172476000Y-116830000D02*
X172466000Y-116840000D01*
D56*
X151534500Y-99314000D02*
X152146000Y-99314000D01*
D58*
X146855000Y-136338500D02*
X146812000Y-136295500D01*
D56*
X134370000Y-112772000D02*
X134366000Y-112776000D01*
X155460000Y-112629000D02*
X155960000Y-112629000D01*
D57*
X165486000Y-106430000D02*
X165486000Y-107818000D01*
D56*
X149352000Y-116332000D02*
X149352000Y-117066000D01*
X137922000Y-103660000D02*
X137922000Y-103124000D01*
X136878000Y-105946000D02*
X136878000Y-105184000D01*
D58*
X163081000Y-73152000D02*
X163081000Y-72031000D01*
D56*
X151471000Y-105716000D02*
X152960000Y-105716000D01*
X171186000Y-107940000D02*
X171196000Y-107950000D01*
D58*
X146855000Y-137746500D02*
X146855000Y-136338500D01*
X135611000Y-136798500D02*
X134663000Y-137746500D01*
X147803000Y-135874000D02*
X147803000Y-136798500D01*
D56*
X140121000Y-110716000D02*
X138729176Y-110716000D01*
D58*
X134663000Y-136338500D02*
X134620000Y-136295500D01*
X139675000Y-136798500D02*
X138727000Y-137746500D01*
D57*
X162296000Y-116830000D02*
X162306000Y-116840000D01*
D56*
X149352000Y-117066000D02*
X149634000Y-117348000D01*
D58*
X147614000Y-134366000D02*
X147614000Y-135685000D01*
D56*
X142546000Y-103291000D02*
X142546000Y-102056000D01*
X138729176Y-110716000D02*
X138697875Y-110747301D01*
X135546000Y-107738000D02*
X136468764Y-107738000D01*
X155960000Y-113899000D02*
X155960000Y-114760000D01*
X171186000Y-106430000D02*
X171186000Y-107940000D01*
X156460000Y-110224000D02*
X156468000Y-110216000D01*
X135204000Y-111502000D02*
X134370000Y-111502000D01*
D58*
X143550000Y-135685000D02*
X143739000Y-135874000D01*
D56*
X136878000Y-105184000D02*
X136906000Y-105156000D01*
X150872000Y-100476500D02*
X150372000Y-100476500D01*
D58*
X143068000Y-66990000D02*
X142748000Y-67310000D01*
D57*
X172476000Y-109230000D02*
X172466000Y-109220000D01*
D56*
X158750000Y-110752000D02*
X158750000Y-109982000D01*
D58*
X143739000Y-135874000D02*
X143739000Y-136798500D01*
D56*
X171186000Y-104666000D02*
X171186000Y-106430000D01*
X149046000Y-114641000D02*
X149046000Y-116026000D01*
D58*
X143739000Y-136798500D02*
X142791000Y-137746500D01*
D56*
X155960000Y-112629000D02*
X155960000Y-113899000D01*
D57*
X150607000Y-123175000D02*
X152320000Y-123175000D01*
D58*
X147803000Y-136798500D02*
X146855000Y-137746500D01*
X135611000Y-135890000D02*
X135611000Y-136798500D01*
D60*
X159893000Y-68453000D02*
X159766000Y-68580000D01*
D56*
X156460000Y-110605000D02*
X156460000Y-110224000D01*
D58*
X142791000Y-137746500D02*
X142791000Y-136338500D01*
D56*
X146645000Y-96099000D02*
X146685000Y-96139000D01*
D57*
X145288000Y-85103000D02*
X146063000Y-85103000D01*
D58*
X170544000Y-127364000D02*
X170544000Y-128298000D01*
X135168000Y-135447000D02*
X135611000Y-135890000D01*
%TO.N,/LDO_D*%
X159585000Y-73180000D02*
X159585000Y-70935000D01*
X161531000Y-73152000D02*
X159613000Y-73152000D01*
%TO.N,/5V_C*%
X145133000Y-66072500D02*
X144968000Y-65907500D01*
X145133000Y-67568000D02*
X145133000Y-66072500D01*
%TO.N,/5V_I*%
X144018000Y-67413000D02*
X144173000Y-67568000D01*
X144173000Y-67568000D02*
X144173000Y-69219000D01*
X144018000Y-65907500D02*
X144018000Y-67413000D01*
D56*
%TO.N,+3.3V*%
X152848000Y-105216000D02*
X153162000Y-104902000D01*
X136590000Y-113346000D02*
X137104000Y-113346000D01*
X176530000Y-115316000D02*
X176144000Y-114930000D01*
X138458000Y-105156000D02*
X137922000Y-104620000D01*
X149546000Y-114641000D02*
X149546000Y-115510000D01*
X150340000Y-96778000D02*
X151134000Y-96778000D01*
X156460000Y-112629000D02*
X156460000Y-113383000D01*
D57*
X164592000Y-73126500D02*
X164592000Y-71262000D01*
X169286000Y-107828000D02*
X169164000Y-107950000D01*
D56*
X169286000Y-104554000D02*
X169286000Y-106430000D01*
X150368000Y-116332000D02*
X150368000Y-117122000D01*
X151134000Y-96778000D02*
X151384000Y-97028000D01*
X142046000Y-102422000D02*
X141478000Y-101854000D01*
X148852000Y-98814000D02*
X148844000Y-98806000D01*
X153162000Y-104902000D02*
X154150000Y-104902000D01*
X151534500Y-99814000D02*
X152646000Y-99814000D01*
X151372000Y-98151500D02*
X151372000Y-97040000D01*
X152654000Y-99822000D02*
X153642000Y-99822000D01*
X141478000Y-101854000D02*
X141478000Y-100838000D01*
X149546000Y-115510000D02*
X150368000Y-116332000D01*
D57*
X173986000Y-114930000D02*
X172588000Y-114930000D01*
D56*
X169700000Y-104140000D02*
X169286000Y-104554000D01*
X156976000Y-113899000D02*
X156976000Y-114760000D01*
X149709500Y-98814000D02*
X148852000Y-98814000D01*
X156723000Y-112117000D02*
X158345000Y-112117000D01*
X142803910Y-112469834D02*
X143046000Y-112711924D01*
X141645000Y-96099000D02*
X141605000Y-96139000D01*
X151471000Y-105216000D02*
X152848000Y-105216000D01*
D57*
X167723000Y-129178000D02*
X170407482Y-129178000D01*
D56*
X150368000Y-117122000D02*
X150594000Y-117348000D01*
D57*
X165853000Y-70875000D02*
X165862000Y-70866000D01*
D56*
X143046000Y-116768000D02*
X142720000Y-117094000D01*
D57*
X167720000Y-129175000D02*
X167723000Y-129178000D01*
D56*
X156460000Y-112629000D02*
X156460000Y-112380000D01*
X143046000Y-114641000D02*
X143046000Y-116768000D01*
X151372000Y-97040000D02*
X151384000Y-97028000D01*
D57*
X169286000Y-106430000D02*
X167386000Y-106430000D01*
X169286000Y-106430000D02*
X169286000Y-107828000D01*
D56*
X141645000Y-93555000D02*
X141645000Y-96099000D01*
X142720000Y-117094000D02*
X142720000Y-118151000D01*
X136088000Y-113848000D02*
X136144000Y-113792000D01*
X138744000Y-105216000D02*
X138684000Y-105156000D01*
X140121000Y-105216000D02*
X138744000Y-105216000D01*
D57*
X165497000Y-129175000D02*
X167720000Y-129175000D01*
D56*
X176144000Y-114930000D02*
X173986000Y-114930000D01*
D57*
X172588000Y-114930000D02*
X172466000Y-114808000D01*
D56*
X136590000Y-113346000D02*
X136144000Y-113792000D01*
D57*
X164205000Y-70875000D02*
X165853000Y-70875000D01*
X164592000Y-71262000D02*
X164205000Y-70875000D01*
D56*
X152646000Y-99814000D02*
X152654000Y-99822000D01*
X142046000Y-103291000D02*
X142046000Y-102422000D01*
X138684000Y-105156000D02*
X138458000Y-105156000D01*
X158345000Y-112117000D02*
X158750000Y-111712000D01*
X156460000Y-113383000D02*
X156976000Y-113899000D01*
X143046000Y-112711924D02*
X143046000Y-114641000D01*
X156460000Y-112380000D02*
X156723000Y-112117000D01*
X135128000Y-113848000D02*
X136088000Y-113848000D01*
D57*
%TO.N,+5V*%
X145288000Y-83553000D02*
X147066000Y-83553000D01*
X145034000Y-83299000D02*
X145288000Y-83553000D01*
X145034000Y-79780000D02*
X145034000Y-83299000D01*
X152654000Y-82042000D02*
X154256500Y-82042000D01*
X147320000Y-61976000D02*
X145895000Y-61976000D01*
X152654000Y-67310000D02*
X147320000Y-61976000D01*
X152654000Y-82042000D02*
X152654000Y-67310000D01*
X147066000Y-83553000D02*
X151143000Y-83553000D01*
X151143000Y-83553000D02*
X152654000Y-82042000D01*
X145288000Y-83553000D02*
X143036000Y-83553000D01*
X154256500Y-82042000D02*
X157558500Y-78740000D01*
D56*
%TO.N,/HSE_OUT*%
X138272000Y-108740000D02*
X139296000Y-107716000D01*
X136910000Y-108740000D02*
X138272000Y-108740000D01*
X135053101Y-108740000D02*
X136910000Y-108740000D01*
X139296000Y-107716000D02*
X140121000Y-107716000D01*
X134146000Y-107832899D02*
X135053101Y-108740000D01*
%TO.N,/NRST*%
X141171000Y-104595000D02*
X140180000Y-103604000D01*
X140121000Y-108216000D02*
X140890975Y-108216000D01*
X141171000Y-107935975D02*
X141171000Y-104595000D01*
X140890975Y-108216000D02*
X141171000Y-107935975D01*
X140180000Y-103604000D02*
X140180000Y-102616000D01*
%TO.N,/HSE_IN*%
X136878000Y-106906000D02*
X135814000Y-106906000D01*
X138966000Y-107216000D02*
X138656000Y-106906000D01*
X140121000Y-107216000D02*
X138966000Y-107216000D01*
X138656000Y-106906000D02*
X136878000Y-106906000D01*
%TO.N,VDDA*%
X139228000Y-111216000D02*
X138938000Y-111506000D01*
D58*
X136164000Y-112772000D02*
X136164000Y-111502000D01*
D56*
X138438000Y-111506000D02*
X138434000Y-111502000D01*
D58*
X136164000Y-111502000D02*
X138434000Y-111502000D01*
D56*
X136164000Y-112772000D02*
X137038000Y-112772000D01*
X137038000Y-112772000D02*
X137104000Y-112706000D01*
X138938000Y-111506000D02*
X138438000Y-111506000D01*
X140121000Y-111216000D02*
X139228000Y-111216000D01*
D60*
%TO.N,VBUS*%
X166562595Y-87691405D02*
X160578689Y-81707500D01*
D57*
X159433500Y-77790000D02*
X159433500Y-79690000D01*
X168783000Y-97409000D02*
X168148000Y-96774000D01*
D58*
X170882000Y-95310000D02*
X169672000Y-96520000D01*
D60*
X160578689Y-81707500D02*
X159764000Y-81707500D01*
D58*
X172585000Y-95310000D02*
X170882000Y-95310000D01*
D57*
X159433500Y-79690000D02*
X159433500Y-81707500D01*
X159585000Y-75980000D02*
X159585000Y-77638500D01*
D60*
X159764000Y-81707500D02*
X159764000Y-81788000D01*
D57*
X159433500Y-81707500D02*
X159514000Y-81788000D01*
X168783000Y-97409000D02*
X169672000Y-96520000D01*
X159585000Y-77638500D02*
X159433500Y-77790000D01*
D58*
%TO.N,/LDO_LED*%
X163068000Y-75440000D02*
X163853500Y-75440000D01*
X163853500Y-75440000D02*
X164592000Y-74701500D01*
D56*
%TO.N,SPI2_SCK*%
X153162000Y-112340500D02*
X153037500Y-112216000D01*
X156184998Y-111717000D02*
X156623000Y-111717000D01*
X153037500Y-112216000D02*
X151471000Y-112216000D01*
X155960000Y-111941998D02*
X156184998Y-111717000D01*
X156623000Y-111717000D02*
X156723000Y-111617000D01*
%TO.N,SPI2_MOSI*%
X151471000Y-111216000D02*
X152436000Y-111216000D01*
X155960000Y-110898000D02*
X155960000Y-111105000D01*
X153162000Y-110490000D02*
X155552000Y-110490000D01*
X155552000Y-110490000D02*
X155960000Y-110898000D01*
X152436000Y-111216000D02*
X153162000Y-110490000D01*
%TO.N,SPI2_MISO*%
X153041974Y-111105000D02*
X152430974Y-111716000D01*
X152430974Y-111716000D02*
X151471000Y-111716000D01*
X155460000Y-111105000D02*
X153041974Y-111105000D01*
%TO.N,SPI2_NSS*%
X151471000Y-112716000D02*
X151785000Y-113030000D01*
X153670000Y-112831500D02*
X154884500Y-111617000D01*
X151785000Y-113030000D02*
X153670000Y-113030000D01*
X153670000Y-113030000D02*
X153670000Y-112831500D01*
X154884500Y-111617000D02*
X155197000Y-111617000D01*
%TO.N,I2C3_SDA*%
X140121000Y-109216000D02*
X139345999Y-109216000D01*
X137817999Y-110744000D02*
X129804000Y-110744000D01*
X139345999Y-109216000D02*
X137817999Y-110744000D01*
%TO.N,I2C3_SCL*%
X129540000Y-107940000D02*
X131855000Y-110255000D01*
X131855000Y-110255000D02*
X137812025Y-110255000D01*
X139351025Y-108716000D02*
X140121000Y-108716000D01*
X137812025Y-110255000D02*
X139351025Y-108716000D01*
D57*
%TO.N,PYRO1_SW*%
X143764000Y-146963500D02*
X139954000Y-146963500D01*
D58*
X135615000Y-141478000D02*
X135615000Y-139623500D01*
D57*
%TO.N,PYRO2_SW*%
X139679000Y-142116500D02*
X139679000Y-141478000D01*
D58*
X139679000Y-141478000D02*
X139679000Y-139623500D01*
D57*
X147066000Y-145185500D02*
X142748000Y-145185500D01*
X148844000Y-146963500D02*
X147066000Y-145185500D01*
X142748000Y-145185500D02*
X139679000Y-142116500D01*
%TO.N,PYRO3_SW*%
X153924000Y-146963500D02*
X153717453Y-146963500D01*
X145796000Y-144169500D02*
X143743000Y-142116500D01*
X150923453Y-144169500D02*
X145796000Y-144169500D01*
X153717453Y-146963500D02*
X150923453Y-144169500D01*
D58*
X143743000Y-141478000D02*
X143743000Y-139623500D01*
D57*
X143743000Y-142116500D02*
X143743000Y-141478000D01*
%TO.N,PYRO4_SW*%
X159004000Y-146963500D02*
X155194000Y-143153500D01*
X147807000Y-142370500D02*
X147807000Y-141462000D01*
X148590000Y-143153500D02*
X147807000Y-142370500D01*
X155194000Y-143153500D02*
X148590000Y-143153500D01*
D58*
X147807000Y-141462000D02*
X147807000Y-139623500D01*
D56*
%TO.N,SWDIO*%
X169926000Y-87376000D02*
X175768000Y-81534000D01*
X155448000Y-106426000D02*
X155448000Y-101854000D01*
X166624000Y-90424000D02*
X166624000Y-90678000D01*
X152576116Y-106216000D02*
X152903116Y-106543000D01*
X152903116Y-106543000D02*
X155331000Y-106543000D01*
X169672000Y-87376000D02*
X169926000Y-87376000D01*
X155448000Y-101854000D02*
X166624000Y-90678000D01*
X155331000Y-106543000D02*
X155448000Y-106426000D01*
X151471000Y-106216000D02*
X152576116Y-106216000D01*
X169672000Y-87376000D02*
X166624000Y-90424000D01*
%TO.N,SWCLK*%
X173736000Y-82804000D02*
X169926000Y-86614000D01*
X169672000Y-86614000D02*
X152995000Y-103291000D01*
X169926000Y-86614000D02*
X169672000Y-86614000D01*
X174365884Y-78994000D02*
X173736000Y-79623884D01*
X173736000Y-79623884D02*
X173736000Y-82804000D01*
X175768000Y-78994000D02*
X174365884Y-78994000D01*
X152995000Y-103291000D02*
X149546000Y-103291000D01*
D57*
%TO.N,BATT*%
X131445000Y-82380000D02*
X131445000Y-77724000D01*
D58*
%TO.N,PYRO1*%
X136631000Y-135890000D02*
X136631000Y-137678500D01*
X136631000Y-135890000D02*
X136631000Y-134983500D01*
X136631000Y-134983500D02*
X136398000Y-134750500D01*
D56*
X146046000Y-114641000D02*
X146046000Y-116207500D01*
X146046000Y-116207500D02*
X146170500Y-116332000D01*
D58*
X136631000Y-137678500D02*
X136563000Y-137746500D01*
D56*
%TO.N,PYRO2*%
X146546000Y-115823616D02*
X146546000Y-114641000D01*
X146812000Y-116943507D02*
X146812000Y-116078000D01*
X146800384Y-116078000D02*
X146546000Y-115823616D01*
X146812000Y-116078000D02*
X146800384Y-116078000D01*
D58*
X140695000Y-135890000D02*
X140695000Y-137678500D01*
X140695000Y-137678500D02*
X140627000Y-137746500D01*
X140695000Y-135004500D02*
X140462000Y-134771500D01*
D56*
X146537500Y-117218007D02*
X146812000Y-116943507D01*
D58*
X140695000Y-135890000D02*
X140695000Y-135004500D01*
%TO.N,PYRO3*%
X144759000Y-135874000D02*
X144759000Y-137678500D01*
X144759000Y-137678500D02*
X144691000Y-137746500D01*
D56*
X147162000Y-117825358D02*
X147162000Y-115933025D01*
D58*
X144759000Y-134792500D02*
X144780000Y-134771500D01*
D56*
X147162000Y-115933025D02*
X147046000Y-115817025D01*
X147046000Y-115817025D02*
X147046000Y-114641000D01*
X146921500Y-118065858D02*
X147162000Y-117825358D01*
D58*
X144759000Y-135874000D02*
X144759000Y-134792500D01*
%TO.N,PYRO4*%
X148823000Y-135874000D02*
X148823000Y-134792500D01*
X148823000Y-135874000D02*
X148823000Y-137678500D01*
X148823000Y-137678500D02*
X148755000Y-137746500D01*
X148823000Y-134792500D02*
X148844000Y-134771500D01*
D56*
X147546000Y-114641000D02*
X147546000Y-118783500D01*
X147546000Y-118783500D02*
X147457500Y-118872000D01*
D58*
%TO.N,PYRO1_DET*%
X133518000Y-140401000D02*
X133518000Y-134366000D01*
%TO.N,PYRO2_DET*%
X137582000Y-140401000D02*
X137582000Y-134366000D01*
D56*
%TO.N,PYRO3_DET*%
X139882000Y-112955000D02*
X139882000Y-133212500D01*
X140121000Y-112716000D02*
X139882000Y-112955000D01*
D58*
X141900000Y-134366000D02*
X141900000Y-140655000D01*
%TO.N,PYRO4_DET*%
X145964000Y-140639000D02*
X145964000Y-134366000D01*
D56*
X140232000Y-116455000D02*
X140232000Y-124230000D01*
X140232000Y-124230000D02*
X145964000Y-129962000D01*
X142046000Y-114641000D02*
X140232000Y-116455000D01*
D57*
%TO.N,/5V_R*%
X141734000Y-85344000D02*
X141480000Y-85598000D01*
X143002000Y-85344000D02*
X141734000Y-85344000D01*
D56*
%TO.N,/SW_BOOT0*%
X144018000Y-96899000D02*
X144145000Y-96772000D01*
X144145000Y-96772000D02*
X144145000Y-93555000D01*
%TO.N,/BOOT0*%
X144046000Y-103291000D02*
X144046000Y-97947000D01*
%TO.N,SPI1_NSS*%
X143546000Y-123988000D02*
X150733000Y-131175000D01*
X150733000Y-131175000D02*
X152320000Y-131175000D01*
X143546000Y-114641000D02*
X143546000Y-123988000D01*
%TO.N,SPI1_SCK*%
X144046000Y-121651000D02*
X151570000Y-129175000D01*
X144046000Y-114641000D02*
X144046000Y-121651000D01*
%TO.N,SPI1_MISO*%
X144546000Y-118151000D02*
X151570000Y-125175000D01*
X144546000Y-114641000D02*
X144546000Y-118151000D01*
%TO.N,SPI1_MOSI*%
X154095000Y-122200000D02*
X154178000Y-122283000D01*
X145046000Y-118098000D02*
X145034000Y-118110000D01*
X145046000Y-114641000D02*
X145046000Y-118098000D01*
X145034000Y-118110000D02*
X149124000Y-122200000D01*
X154178000Y-122283000D02*
X154178000Y-126117000D01*
X154178000Y-126117000D02*
X153120000Y-127175000D01*
X149124000Y-122200000D02*
X154095000Y-122200000D01*
%TO.N,RF_RESET*%
X154528000Y-131717000D02*
X153070000Y-133175000D01*
X145546000Y-118127026D02*
X149268974Y-121850000D01*
X145546000Y-114641000D02*
X145546000Y-118127026D01*
X149268974Y-121850000D02*
X154239974Y-121850000D01*
X154239974Y-121850000D02*
X154528000Y-122138026D01*
X154528000Y-122138026D02*
X154528000Y-131717000D01*
%TO.N,I2C2_SCL*%
X164461000Y-120805000D02*
X149507000Y-120805000D01*
X165486000Y-119780000D02*
X164461000Y-120805000D01*
X148082000Y-114677000D02*
X148082000Y-119380000D01*
X149507000Y-120805000D02*
X148082000Y-119380000D01*
%TO.N,I2C2_SDA*%
X148546000Y-117156899D02*
X149322101Y-117933000D01*
X159644000Y-114930000D02*
X160786000Y-114930000D01*
X149322101Y-117933000D02*
X156641000Y-117933000D01*
X156641000Y-117933000D02*
X159644000Y-114930000D01*
X148546000Y-114641000D02*
X148546000Y-117156899D01*
%TO.N,SDMMC_DET*%
X151471000Y-110216000D02*
X149986263Y-110216000D01*
X149986263Y-110216000D02*
X149142196Y-111060067D01*
%TO.N,SDMMC_D0*%
X146624411Y-110302411D02*
X148391473Y-110302411D01*
X148977884Y-109716000D02*
X151471000Y-109716000D01*
X148391473Y-110302411D02*
X148977884Y-109716000D01*
%TO.N,SDMMC_D1*%
X151471000Y-109216000D02*
X148594000Y-109216000D01*
X148594000Y-109216000D02*
X148336000Y-109474000D01*
%TO.N,RF_DIO0*%
X153162000Y-109474000D02*
X152404000Y-108716000D01*
X165354000Y-127254000D02*
X165433000Y-127175000D01*
X152404000Y-108716000D02*
X151471000Y-108716000D01*
X165433000Y-127175000D02*
X167720000Y-127175000D01*
%TO.N,RF_DIO1*%
X153290500Y-108216000D02*
X151471000Y-108216000D01*
X153924000Y-108849500D02*
X153290500Y-108216000D01*
X165401000Y-125175000D02*
X167720000Y-125175000D01*
X165354000Y-125222000D02*
X165401000Y-125175000D01*
%TO.N,RF_DIO5*%
X153120000Y-135175000D02*
X166883000Y-121412000D01*
X151471000Y-107716000D02*
X154215081Y-107716000D01*
X166883000Y-121412000D02*
X167132000Y-121412000D01*
X154215081Y-107716000D02*
X154724081Y-108225000D01*
X152320000Y-135175000D02*
X153120000Y-135175000D01*
%TO.N,SDMMC_D2*%
X148546000Y-106306785D02*
X148546000Y-103291000D01*
X147918785Y-106934000D02*
X148546000Y-106306785D01*
X147297000Y-106934000D02*
X147918785Y-106934000D01*
%TO.N,SDMMC_D3*%
X148022306Y-105946595D02*
X148022306Y-103314694D01*
X147921500Y-106047401D02*
X148022306Y-105946595D01*
%TO.N,SDMMC_CMD*%
X146921500Y-104882000D02*
X147046000Y-104757500D01*
X147046000Y-104757500D02*
X147046000Y-103291000D01*
%TO.N,I2C1_SCL*%
X146812000Y-100412975D02*
X147656975Y-99568000D01*
X146812000Y-100755025D02*
X146812000Y-100412975D01*
X146812000Y-100755025D02*
X145046000Y-102521025D01*
X149709500Y-99314000D02*
X149219884Y-99314000D01*
X149219884Y-99314000D02*
X148965884Y-99568000D01*
X145046000Y-102521025D02*
X145046000Y-103291000D01*
X148965884Y-99568000D02*
X147656975Y-99568000D01*
%TO.N,I2C1_SDA*%
X149331000Y-100192500D02*
X149709500Y-99814000D01*
X148336000Y-100192500D02*
X149331000Y-100192500D01*
X144546000Y-103291000D02*
X144546000Y-102088000D01*
X144546000Y-102088000D02*
X146050000Y-100584000D01*
%TO.N,/RF_ANT*%
X167720000Y-137175000D02*
X174350000Y-137175000D01*
D58*
%TO.N,Net-(C5-Pad1)*%
X144935000Y-61976000D02*
X144935000Y-63599500D01*
%TD*%
M02*
