%TF.GenerationSoftware,KiCad,Pcbnew,6.0.11-2627ca5db0~126~ubuntu22.04.1*%
%TF.CreationDate,2023-03-24T18:23:20-04:00*%
%TF.ProjectId,Io,496f2e6b-6963-4616-945f-706362585858,rev?*%
%TF.SameCoordinates,Original*%
%TF.FileFunction,Legend,Top*%
%TF.FilePolarity,Positive*%
%FSLAX46Y46*%
G04 Gerber Fmt 4.6, Leading zero omitted, Abs format (unit mm)*
G04 Created by KiCad (PCBNEW 6.0.11-2627ca5db0~126~ubuntu22.04.1) date 2023-03-24 18:23:20*
%MOMM*%
%LPD*%
G01*
G04 APERTURE LIST*
%ADD10C,0.300000*%
%ADD11C,0.200000*%
%ADD12C,0.150000*%
%ADD13C,0.254000*%
%ADD14C,0.120000*%
%ADD15C,0.100000*%
%ADD16C,0.127000*%
G04 APERTURE END LIST*
D10*
X141251285Y-147642071D02*
X140394142Y-147642071D01*
X140822714Y-147642071D02*
X140822714Y-146142071D01*
X140679857Y-146356357D01*
X140537000Y-146499214D01*
X140394142Y-146570642D01*
X129448714Y-72386000D02*
X130163000Y-72386000D01*
X129305857Y-72814571D02*
X129805857Y-71314571D01*
X130305857Y-72814571D01*
X131663000Y-72814571D02*
X131163000Y-72100285D01*
X130805857Y-72814571D02*
X130805857Y-71314571D01*
X131377285Y-71314571D01*
X131520142Y-71386000D01*
X131591571Y-71457428D01*
X131663000Y-71600285D01*
X131663000Y-71814571D01*
X131591571Y-71957428D01*
X131520142Y-72028857D01*
X131377285Y-72100285D01*
X130805857Y-72100285D01*
X132305857Y-72814571D02*
X132305857Y-71314571D01*
X132805857Y-72386000D01*
X133305857Y-71314571D01*
X133305857Y-72814571D01*
X137949285Y-91356571D02*
X137092142Y-91356571D01*
X137520714Y-91356571D02*
X137520714Y-89856571D01*
X137377857Y-90070857D01*
X137235000Y-90213714D01*
X137092142Y-90285142D01*
X172192142Y-100270571D02*
X172192142Y-101484857D01*
X172263571Y-101627714D01*
X172335000Y-101699142D01*
X172477857Y-101770571D01*
X172763571Y-101770571D01*
X172906428Y-101699142D01*
X172977857Y-101627714D01*
X173049285Y-101484857D01*
X173049285Y-100270571D01*
X173692142Y-101699142D02*
X173906428Y-101770571D01*
X174263571Y-101770571D01*
X174406428Y-101699142D01*
X174477857Y-101627714D01*
X174549285Y-101484857D01*
X174549285Y-101342000D01*
X174477857Y-101199142D01*
X174406428Y-101127714D01*
X174263571Y-101056285D01*
X173977857Y-100984857D01*
X173835000Y-100913428D01*
X173763571Y-100842000D01*
X173692142Y-100699142D01*
X173692142Y-100556285D01*
X173763571Y-100413428D01*
X173835000Y-100342000D01*
X173977857Y-100270571D01*
X174335000Y-100270571D01*
X174549285Y-100342000D01*
X175692142Y-100984857D02*
X175906428Y-101056285D01*
X175977857Y-101127714D01*
X176049285Y-101270571D01*
X176049285Y-101484857D01*
X175977857Y-101627714D01*
X175906428Y-101699142D01*
X175763571Y-101770571D01*
X175192142Y-101770571D01*
X175192142Y-100270571D01*
X175692142Y-100270571D01*
X175835000Y-100342000D01*
X175906428Y-100413428D01*
X175977857Y-100556285D01*
X175977857Y-100699142D01*
X175906428Y-100842000D01*
X175835000Y-100913428D01*
X175692142Y-100984857D01*
X175192142Y-100984857D01*
D11*
X134652714Y-125033571D02*
X134822357Y-126533571D01*
X135242000Y-125462142D01*
X135393785Y-126533571D01*
X135938428Y-125033571D01*
X136902714Y-126462142D02*
X136750928Y-126533571D01*
X136465214Y-126533571D01*
X136331285Y-126462142D01*
X136277714Y-126319285D01*
X136349142Y-125747857D01*
X136438428Y-125605000D01*
X136590214Y-125533571D01*
X136875928Y-125533571D01*
X137009857Y-125605000D01*
X137063428Y-125747857D01*
X137045571Y-125890714D01*
X136313428Y-126033571D01*
X135206285Y-128162857D02*
X135411642Y-128234285D01*
X135474142Y-128305714D01*
X135527714Y-128448571D01*
X135500928Y-128662857D01*
X135411642Y-128805714D01*
X135331285Y-128877142D01*
X135179500Y-128948571D01*
X134608071Y-128948571D01*
X134795571Y-127448571D01*
X135295571Y-127448571D01*
X135429500Y-127520000D01*
X135492000Y-127591428D01*
X135545571Y-127734285D01*
X135527714Y-127877142D01*
X135438428Y-128020000D01*
X135358071Y-128091428D01*
X135206285Y-128162857D01*
X134706285Y-128162857D01*
X136875928Y-127948571D02*
X136750928Y-128948571D01*
X136233071Y-127948571D02*
X136134857Y-128734285D01*
X136188428Y-128877142D01*
X136322357Y-128948571D01*
X136536642Y-128948571D01*
X136688428Y-128877142D01*
X136768785Y-128805714D01*
X137465214Y-128948571D02*
X137590214Y-127948571D01*
X137652714Y-127448571D02*
X137572357Y-127520000D01*
X137634857Y-127591428D01*
X137715214Y-127520000D01*
X137652714Y-127448571D01*
X137634857Y-127591428D01*
X138393785Y-128948571D02*
X138259857Y-128877142D01*
X138206285Y-128734285D01*
X138367000Y-127448571D01*
X139608071Y-128948571D02*
X139795571Y-127448571D01*
X139617000Y-128877142D02*
X139465214Y-128948571D01*
X139179500Y-128948571D01*
X139045571Y-128877142D01*
X138983071Y-128805714D01*
X138929500Y-128662857D01*
X138983071Y-128234285D01*
X139072357Y-128091428D01*
X139152714Y-128020000D01*
X139304500Y-127948571D01*
X139590214Y-127948571D01*
X139724142Y-128020000D01*
X135465214Y-131363571D02*
X135054500Y-130649285D01*
X134608071Y-131363571D02*
X134795571Y-129863571D01*
X135367000Y-129863571D01*
X135500928Y-129935000D01*
X135563428Y-130006428D01*
X135617000Y-130149285D01*
X135590214Y-130363571D01*
X135500928Y-130506428D01*
X135420571Y-130577857D01*
X135268785Y-130649285D01*
X134697357Y-130649285D01*
X136322357Y-131363571D02*
X136188428Y-131292142D01*
X136125928Y-131220714D01*
X136072357Y-131077857D01*
X136125928Y-130649285D01*
X136215214Y-130506428D01*
X136295571Y-130435000D01*
X136447357Y-130363571D01*
X136661642Y-130363571D01*
X136795571Y-130435000D01*
X136858071Y-130506428D01*
X136911642Y-130649285D01*
X136858071Y-131077857D01*
X136768785Y-131220714D01*
X136688428Y-131292142D01*
X136536642Y-131363571D01*
X136322357Y-131363571D01*
X138117000Y-131292142D02*
X137965214Y-131363571D01*
X137679500Y-131363571D01*
X137545571Y-131292142D01*
X137483071Y-131220714D01*
X137429500Y-131077857D01*
X137483071Y-130649285D01*
X137572357Y-130506428D01*
X137652714Y-130435000D01*
X137804500Y-130363571D01*
X138090214Y-130363571D01*
X138224142Y-130435000D01*
X138750928Y-131363571D02*
X138938428Y-129863571D01*
X138965214Y-130792142D02*
X139322357Y-131363571D01*
X139447357Y-130363571D02*
X138804500Y-130935000D01*
X140545571Y-131292142D02*
X140393785Y-131363571D01*
X140108071Y-131363571D01*
X139974142Y-131292142D01*
X139920571Y-131149285D01*
X139992000Y-130577857D01*
X140081285Y-130435000D01*
X140233071Y-130363571D01*
X140518785Y-130363571D01*
X140652714Y-130435000D01*
X140706285Y-130577857D01*
X140688428Y-130720714D01*
X139956285Y-130863571D01*
X141161642Y-130363571D02*
X141733071Y-130363571D01*
X141438428Y-129863571D02*
X141277714Y-131149285D01*
X141331285Y-131292142D01*
X141465214Y-131363571D01*
X141608071Y-131363571D01*
X142045571Y-131292142D02*
X142179500Y-131363571D01*
X142465214Y-131363571D01*
X142617000Y-131292142D01*
X142706285Y-131149285D01*
X142715214Y-131077857D01*
X142661642Y-130935000D01*
X142527714Y-130863571D01*
X142313428Y-130863571D01*
X142179500Y-130792142D01*
X142125928Y-130649285D01*
X142134857Y-130577857D01*
X142224142Y-130435000D01*
X142375928Y-130363571D01*
X142590214Y-130363571D01*
X142724142Y-130435000D01*
D10*
X150657285Y-90110571D02*
X150800142Y-90110571D01*
X150943000Y-90182000D01*
X151014428Y-90253428D01*
X151085857Y-90396285D01*
X151157285Y-90682000D01*
X151157285Y-91039142D01*
X151085857Y-91324857D01*
X151014428Y-91467714D01*
X150943000Y-91539142D01*
X150800142Y-91610571D01*
X150657285Y-91610571D01*
X150514428Y-91539142D01*
X150443000Y-91467714D01*
X150371571Y-91324857D01*
X150300142Y-91039142D01*
X150300142Y-90682000D01*
X150371571Y-90396285D01*
X150443000Y-90253428D01*
X150514428Y-90182000D01*
X150657285Y-90110571D01*
X135997142Y-86023000D02*
X135997142Y-84880142D01*
X154928428Y-142816071D02*
X154928428Y-141316071D01*
X155499857Y-141316071D01*
X155642714Y-141387500D01*
X155714142Y-141458928D01*
X155785571Y-141601785D01*
X155785571Y-141816071D01*
X155714142Y-141958928D01*
X155642714Y-142030357D01*
X155499857Y-142101785D01*
X154928428Y-142101785D01*
X156714142Y-142101785D02*
X156714142Y-142816071D01*
X156214142Y-141316071D02*
X156714142Y-142101785D01*
X157214142Y-141316071D01*
X158571285Y-142816071D02*
X158071285Y-142101785D01*
X157714142Y-142816071D02*
X157714142Y-141316071D01*
X158285571Y-141316071D01*
X158428428Y-141387500D01*
X158499857Y-141458928D01*
X158571285Y-141601785D01*
X158571285Y-141816071D01*
X158499857Y-141958928D01*
X158428428Y-142030357D01*
X158285571Y-142101785D01*
X157714142Y-142101785D01*
X159499857Y-141316071D02*
X159785571Y-141316071D01*
X159928428Y-141387500D01*
X160071285Y-141530357D01*
X160142714Y-141816071D01*
X160142714Y-142316071D01*
X160071285Y-142601785D01*
X159928428Y-142744642D01*
X159785571Y-142816071D01*
X159499857Y-142816071D01*
X159357000Y-142744642D01*
X159214142Y-142601785D01*
X159142714Y-142316071D01*
X159142714Y-141816071D01*
X159214142Y-141530357D01*
X159357000Y-141387500D01*
X159499857Y-141316071D01*
X160714142Y-142744642D02*
X160928428Y-142816071D01*
X161285571Y-142816071D01*
X161428428Y-142744642D01*
X161499857Y-142673214D01*
X161571285Y-142530357D01*
X161571285Y-142387500D01*
X161499857Y-142244642D01*
X161428428Y-142173214D01*
X161285571Y-142101785D01*
X160999857Y-142030357D01*
X160857000Y-141958928D01*
X160785571Y-141887500D01*
X160714142Y-141744642D01*
X160714142Y-141601785D01*
X160785571Y-141458928D01*
X160857000Y-141387500D01*
X160999857Y-141316071D01*
X161357000Y-141316071D01*
X161571285Y-141387500D01*
X150832428Y-93872857D02*
X151046714Y-93944285D01*
X151118142Y-94015714D01*
X151189571Y-94158571D01*
X151189571Y-94372857D01*
X151118142Y-94515714D01*
X151046714Y-94587142D01*
X150903857Y-94658571D01*
X150332428Y-94658571D01*
X150332428Y-93158571D01*
X150832428Y-93158571D01*
X150975285Y-93230000D01*
X151046714Y-93301428D01*
X151118142Y-93444285D01*
X151118142Y-93587142D01*
X151046714Y-93730000D01*
X150975285Y-93801428D01*
X150832428Y-93872857D01*
X150332428Y-93872857D01*
X152118142Y-93158571D02*
X152403857Y-93158571D01*
X152546714Y-93230000D01*
X152689571Y-93372857D01*
X152761000Y-93658571D01*
X152761000Y-94158571D01*
X152689571Y-94444285D01*
X152546714Y-94587142D01*
X152403857Y-94658571D01*
X152118142Y-94658571D01*
X151975285Y-94587142D01*
X151832428Y-94444285D01*
X151761000Y-94158571D01*
X151761000Y-93658571D01*
X151832428Y-93372857D01*
X151975285Y-93230000D01*
X152118142Y-93158571D01*
X153689571Y-93158571D02*
X153975285Y-93158571D01*
X154118142Y-93230000D01*
X154261000Y-93372857D01*
X154332428Y-93658571D01*
X154332428Y-94158571D01*
X154261000Y-94444285D01*
X154118142Y-94587142D01*
X153975285Y-94658571D01*
X153689571Y-94658571D01*
X153546714Y-94587142D01*
X153403857Y-94444285D01*
X153332428Y-94158571D01*
X153332428Y-93658571D01*
X153403857Y-93372857D01*
X153546714Y-93230000D01*
X153689571Y-93158571D01*
X154761000Y-93158571D02*
X155618142Y-93158571D01*
X155189571Y-94658571D02*
X155189571Y-93158571D01*
X137180714Y-121161071D02*
X137180714Y-122375357D01*
X137252142Y-122518214D01*
X137323571Y-122589642D01*
X137466428Y-122661071D01*
X137752142Y-122661071D01*
X137895000Y-122589642D01*
X137966428Y-122518214D01*
X138037857Y-122375357D01*
X138037857Y-121161071D01*
X138752142Y-122661071D02*
X138752142Y-121161071D01*
X139609285Y-122661071D01*
X139609285Y-121161071D01*
X140323571Y-122661071D02*
X140323571Y-121161071D01*
X140323571Y-121875357D02*
X141180714Y-121875357D01*
X141180714Y-122661071D02*
X141180714Y-121161071D01*
X142966428Y-122589642D02*
X143180714Y-122661071D01*
X143537857Y-122661071D01*
X143680714Y-122589642D01*
X143752142Y-122518214D01*
X143823571Y-122375357D01*
X143823571Y-122232500D01*
X143752142Y-122089642D01*
X143680714Y-122018214D01*
X143537857Y-121946785D01*
X143252142Y-121875357D01*
X143109285Y-121803928D01*
X143037857Y-121732500D01*
X142966428Y-121589642D01*
X142966428Y-121446785D01*
X143037857Y-121303928D01*
X143109285Y-121232500D01*
X143252142Y-121161071D01*
X143609285Y-121161071D01*
X143823571Y-121232500D01*
X144466428Y-121875357D02*
X144966428Y-121875357D01*
X145180714Y-122661071D02*
X144466428Y-122661071D01*
X144466428Y-121161071D01*
X145180714Y-121161071D01*
X145823571Y-122661071D02*
X145823571Y-121161071D01*
X146180714Y-121161071D01*
X146395000Y-121232500D01*
X146537857Y-121375357D01*
X146609285Y-121518214D01*
X146680714Y-121803928D01*
X146680714Y-122018214D01*
X146609285Y-122303928D01*
X146537857Y-122446785D01*
X146395000Y-122589642D01*
X146180714Y-122661071D01*
X145823571Y-122661071D01*
X147252142Y-122589642D02*
X147466428Y-122661071D01*
X147823571Y-122661071D01*
X147966428Y-122589642D01*
X148037857Y-122518214D01*
X148109285Y-122375357D01*
X148109285Y-122232500D01*
X148037857Y-122089642D01*
X147966428Y-122018214D01*
X147823571Y-121946785D01*
X147537857Y-121875357D01*
X147395000Y-121803928D01*
X147323571Y-121732500D01*
X147252142Y-121589642D01*
X147252142Y-121446785D01*
X147323571Y-121303928D01*
X147395000Y-121232500D01*
X147537857Y-121161071D01*
X147895000Y-121161071D01*
X148109285Y-121232500D01*
X138466428Y-123576071D02*
X138466428Y-123861785D01*
X139037857Y-123576071D02*
X139037857Y-123861785D01*
X139680714Y-125076071D02*
X139680714Y-123576071D01*
X140609285Y-125076071D02*
X140466428Y-125004642D01*
X140395000Y-124933214D01*
X140323571Y-124790357D01*
X140323571Y-124361785D01*
X140395000Y-124218928D01*
X140466428Y-124147500D01*
X140609285Y-124076071D01*
X140823571Y-124076071D01*
X140966428Y-124147500D01*
X141037857Y-124218928D01*
X141109285Y-124361785D01*
X141109285Y-124790357D01*
X141037857Y-124933214D01*
X140966428Y-125004642D01*
X140823571Y-125076071D01*
X140609285Y-125076071D01*
X141680714Y-123576071D02*
X141680714Y-123861785D01*
X142252142Y-123576071D02*
X142252142Y-123861785D01*
X143895000Y-124076071D02*
X144252142Y-125076071D01*
X144609285Y-124076071D01*
X145966428Y-125076071D02*
X145109285Y-125076071D01*
X145537857Y-125076071D02*
X145537857Y-123576071D01*
X145395000Y-123790357D01*
X145252142Y-123933214D01*
X145109285Y-124004642D01*
X146609285Y-124933214D02*
X146680714Y-125004642D01*
X146609285Y-125076071D01*
X146537857Y-125004642D01*
X146609285Y-124933214D01*
X146609285Y-125076071D01*
X147609285Y-123576071D02*
X147752142Y-123576071D01*
X147895000Y-123647500D01*
X147966428Y-123718928D01*
X148037857Y-123861785D01*
X148109285Y-124147500D01*
X148109285Y-124504642D01*
X148037857Y-124790357D01*
X147966428Y-124933214D01*
X147895000Y-125004642D01*
X147752142Y-125076071D01*
X147609285Y-125076071D01*
X147466428Y-125004642D01*
X147395000Y-124933214D01*
X147323571Y-124790357D01*
X147252142Y-124504642D01*
X147252142Y-124147500D01*
X147323571Y-123861785D01*
X147395000Y-123718928D01*
X147466428Y-123647500D01*
X147609285Y-123576071D01*
X135465000Y-81895142D02*
X136607857Y-81895142D01*
X136036428Y-82466571D02*
X136036428Y-81323714D01*
X164730428Y-146642071D02*
X164730428Y-147642071D01*
X164373285Y-146070642D02*
X164016142Y-147142071D01*
X164944714Y-147142071D01*
X172993857Y-74013142D02*
X173208142Y-74084571D01*
X173565285Y-74084571D01*
X173708142Y-74013142D01*
X173779571Y-73941714D01*
X173851000Y-73798857D01*
X173851000Y-73656000D01*
X173779571Y-73513142D01*
X173708142Y-73441714D01*
X173565285Y-73370285D01*
X173279571Y-73298857D01*
X173136714Y-73227428D01*
X173065285Y-73156000D01*
X172993857Y-73013142D01*
X172993857Y-72870285D01*
X173065285Y-72727428D01*
X173136714Y-72656000D01*
X173279571Y-72584571D01*
X173636714Y-72584571D01*
X173851000Y-72656000D01*
X174351000Y-72584571D02*
X174708142Y-74084571D01*
X174993857Y-73013142D01*
X175279571Y-74084571D01*
X175636714Y-72584571D01*
X176208142Y-74084571D02*
X176208142Y-72584571D01*
X176565285Y-72584571D01*
X176779571Y-72656000D01*
X176922428Y-72798857D01*
X176993857Y-72941714D01*
X177065285Y-73227428D01*
X177065285Y-73441714D01*
X176993857Y-73727428D01*
X176922428Y-73870285D01*
X176779571Y-74013142D01*
X176565285Y-74084571D01*
X176208142Y-74084571D01*
X127837285Y-102024571D02*
X127837285Y-100524571D01*
X128480142Y-100667428D02*
X128551571Y-100596000D01*
X128694428Y-100524571D01*
X129051571Y-100524571D01*
X129194428Y-100596000D01*
X129265857Y-100667428D01*
X129337285Y-100810285D01*
X129337285Y-100953142D01*
X129265857Y-101167428D01*
X128408714Y-102024571D01*
X129337285Y-102024571D01*
X130837285Y-101881714D02*
X130765857Y-101953142D01*
X130551571Y-102024571D01*
X130408714Y-102024571D01*
X130194428Y-101953142D01*
X130051571Y-101810285D01*
X129980142Y-101667428D01*
X129908714Y-101381714D01*
X129908714Y-101167428D01*
X129980142Y-100881714D01*
X130051571Y-100738857D01*
X130194428Y-100596000D01*
X130408714Y-100524571D01*
X130551571Y-100524571D01*
X130765857Y-100596000D01*
X130837285Y-100667428D01*
X129702714Y-88284857D02*
X129917000Y-88356285D01*
X129988428Y-88427714D01*
X130059857Y-88570571D01*
X130059857Y-88784857D01*
X129988428Y-88927714D01*
X129917000Y-88999142D01*
X129774142Y-89070571D01*
X129202714Y-89070571D01*
X129202714Y-87570571D01*
X129702714Y-87570571D01*
X129845571Y-87642000D01*
X129917000Y-87713428D01*
X129988428Y-87856285D01*
X129988428Y-87999142D01*
X129917000Y-88142000D01*
X129845571Y-88213428D01*
X129702714Y-88284857D01*
X129202714Y-88284857D01*
X130631285Y-88642000D02*
X131345571Y-88642000D01*
X130488428Y-89070571D02*
X130988428Y-87570571D01*
X131488428Y-89070571D01*
X131774142Y-87570571D02*
X132631285Y-87570571D01*
X132202714Y-89070571D02*
X132202714Y-87570571D01*
X132917000Y-87570571D02*
X133774142Y-87570571D01*
X133345571Y-89070571D02*
X133345571Y-87570571D01*
D12*
%TO.C,R18*%
X158086380Y-106306857D02*
X157610190Y-106640190D01*
X158086380Y-106878285D02*
X157086380Y-106878285D01*
X157086380Y-106497333D01*
X157134000Y-106402095D01*
X157181619Y-106354476D01*
X157276857Y-106306857D01*
X157419714Y-106306857D01*
X157514952Y-106354476D01*
X157562571Y-106402095D01*
X157610190Y-106497333D01*
X157610190Y-106878285D01*
X158086380Y-105354476D02*
X158086380Y-105925904D01*
X158086380Y-105640190D02*
X157086380Y-105640190D01*
X157229238Y-105735428D01*
X157324476Y-105830666D01*
X157372095Y-105925904D01*
X157514952Y-104783047D02*
X157467333Y-104878285D01*
X157419714Y-104925904D01*
X157324476Y-104973523D01*
X157276857Y-104973523D01*
X157181619Y-104925904D01*
X157134000Y-104878285D01*
X157086380Y-104783047D01*
X157086380Y-104592571D01*
X157134000Y-104497333D01*
X157181619Y-104449714D01*
X157276857Y-104402095D01*
X157324476Y-104402095D01*
X157419714Y-104449714D01*
X157467333Y-104497333D01*
X157514952Y-104592571D01*
X157514952Y-104783047D01*
X157562571Y-104878285D01*
X157610190Y-104925904D01*
X157705428Y-104973523D01*
X157895904Y-104973523D01*
X157991142Y-104925904D01*
X158038761Y-104878285D01*
X158086380Y-104783047D01*
X158086380Y-104592571D01*
X158038761Y-104497333D01*
X157991142Y-104449714D01*
X157895904Y-104402095D01*
X157705428Y-104402095D01*
X157610190Y-104449714D01*
X157562571Y-104497333D01*
X157514952Y-104592571D01*
%TO.C,C22*%
X170791142Y-126880857D02*
X170838761Y-126928476D01*
X170886380Y-127071333D01*
X170886380Y-127166571D01*
X170838761Y-127309428D01*
X170743523Y-127404666D01*
X170648285Y-127452285D01*
X170457809Y-127499904D01*
X170314952Y-127499904D01*
X170124476Y-127452285D01*
X170029238Y-127404666D01*
X169934000Y-127309428D01*
X169886380Y-127166571D01*
X169886380Y-127071333D01*
X169934000Y-126928476D01*
X169981619Y-126880857D01*
X169981619Y-126499904D02*
X169934000Y-126452285D01*
X169886380Y-126357047D01*
X169886380Y-126118952D01*
X169934000Y-126023714D01*
X169981619Y-125976095D01*
X170076857Y-125928476D01*
X170172095Y-125928476D01*
X170314952Y-125976095D01*
X170886380Y-126547523D01*
X170886380Y-125928476D01*
X169981619Y-125547523D02*
X169934000Y-125499904D01*
X169886380Y-125404666D01*
X169886380Y-125166571D01*
X169934000Y-125071333D01*
X169981619Y-125023714D01*
X170076857Y-124976095D01*
X170172095Y-124976095D01*
X170314952Y-125023714D01*
X170886380Y-125595142D01*
X170886380Y-124976095D01*
D13*
%TO.C,SW1*%
X139784666Y-97796047D02*
X139966095Y-97856523D01*
X140268476Y-97856523D01*
X140389428Y-97796047D01*
X140449904Y-97735571D01*
X140510380Y-97614619D01*
X140510380Y-97493666D01*
X140449904Y-97372714D01*
X140389428Y-97312238D01*
X140268476Y-97251761D01*
X140026571Y-97191285D01*
X139905619Y-97130809D01*
X139845142Y-97070333D01*
X139784666Y-96949380D01*
X139784666Y-96828428D01*
X139845142Y-96707476D01*
X139905619Y-96647000D01*
X140026571Y-96586523D01*
X140328952Y-96586523D01*
X140510380Y-96647000D01*
X140933714Y-96586523D02*
X141236095Y-97856523D01*
X141478000Y-96949380D01*
X141719904Y-97856523D01*
X142022285Y-96586523D01*
X143171333Y-97856523D02*
X142445619Y-97856523D01*
X142808476Y-97856523D02*
X142808476Y-96586523D01*
X142687523Y-96767952D01*
X142566571Y-96888904D01*
X142445619Y-96949380D01*
D12*
%TO.C,Y1*%
X133127809Y-109196190D02*
X133127809Y-109672380D01*
X132794476Y-108672380D02*
X133127809Y-109196190D01*
X133461142Y-108672380D01*
X134318285Y-109672380D02*
X133746857Y-109672380D01*
X134032571Y-109672380D02*
X134032571Y-108672380D01*
X133937333Y-108815238D01*
X133842095Y-108910476D01*
X133746857Y-108958095D01*
%TO.C,C16*%
X132453142Y-113133142D02*
X132405523Y-113180761D01*
X132262666Y-113228380D01*
X132167428Y-113228380D01*
X132024571Y-113180761D01*
X131929333Y-113085523D01*
X131881714Y-112990285D01*
X131834095Y-112799809D01*
X131834095Y-112656952D01*
X131881714Y-112466476D01*
X131929333Y-112371238D01*
X132024571Y-112276000D01*
X132167428Y-112228380D01*
X132262666Y-112228380D01*
X132405523Y-112276000D01*
X132453142Y-112323619D01*
X133405523Y-113228380D02*
X132834095Y-113228380D01*
X133119809Y-113228380D02*
X133119809Y-112228380D01*
X133024571Y-112371238D01*
X132929333Y-112466476D01*
X132834095Y-112514095D01*
X134262666Y-112228380D02*
X134072190Y-112228380D01*
X133976952Y-112276000D01*
X133929333Y-112323619D01*
X133834095Y-112466476D01*
X133786476Y-112656952D01*
X133786476Y-113037904D01*
X133834095Y-113133142D01*
X133881714Y-113180761D01*
X133976952Y-113228380D01*
X134167428Y-113228380D01*
X134262666Y-113180761D01*
X134310285Y-113133142D01*
X134357904Y-113037904D01*
X134357904Y-112799809D01*
X134310285Y-112704571D01*
X134262666Y-112656952D01*
X134167428Y-112609333D01*
X133976952Y-112609333D01*
X133881714Y-112656952D01*
X133834095Y-112704571D01*
X133786476Y-112799809D01*
%TO.C,R12*%
X146931142Y-142946380D02*
X146597809Y-142470190D01*
X146359714Y-142946380D02*
X146359714Y-141946380D01*
X146740666Y-141946380D01*
X146835904Y-141994000D01*
X146883523Y-142041619D01*
X146931142Y-142136857D01*
X146931142Y-142279714D01*
X146883523Y-142374952D01*
X146835904Y-142422571D01*
X146740666Y-142470190D01*
X146359714Y-142470190D01*
X147883523Y-142946380D02*
X147312095Y-142946380D01*
X147597809Y-142946380D02*
X147597809Y-141946380D01*
X147502571Y-142089238D01*
X147407333Y-142184476D01*
X147312095Y-142232095D01*
X148264476Y-142041619D02*
X148312095Y-141994000D01*
X148407333Y-141946380D01*
X148645428Y-141946380D01*
X148740666Y-141994000D01*
X148788285Y-142041619D01*
X148835904Y-142136857D01*
X148835904Y-142232095D01*
X148788285Y-142374952D01*
X148216857Y-142946380D01*
X148835904Y-142946380D01*
%TO.C,J2*%
X152320666Y-142045880D02*
X152320666Y-142760166D01*
X152273047Y-142903023D01*
X152177809Y-142998261D01*
X152034952Y-143045880D01*
X151939714Y-143045880D01*
X152749238Y-142141119D02*
X152796857Y-142093500D01*
X152892095Y-142045880D01*
X153130190Y-142045880D01*
X153225428Y-142093500D01*
X153273047Y-142141119D01*
X153320666Y-142236357D01*
X153320666Y-142331595D01*
X153273047Y-142474452D01*
X152701619Y-143045880D01*
X153320666Y-143045880D01*
%TO.C,C13*%
X135755142Y-102719142D02*
X135707523Y-102766761D01*
X135564666Y-102814380D01*
X135469428Y-102814380D01*
X135326571Y-102766761D01*
X135231333Y-102671523D01*
X135183714Y-102576285D01*
X135136095Y-102385809D01*
X135136095Y-102242952D01*
X135183714Y-102052476D01*
X135231333Y-101957238D01*
X135326571Y-101862000D01*
X135469428Y-101814380D01*
X135564666Y-101814380D01*
X135707523Y-101862000D01*
X135755142Y-101909619D01*
X136707523Y-102814380D02*
X136136095Y-102814380D01*
X136421809Y-102814380D02*
X136421809Y-101814380D01*
X136326571Y-101957238D01*
X136231333Y-102052476D01*
X136136095Y-102100095D01*
X137040857Y-101814380D02*
X137659904Y-101814380D01*
X137326571Y-102195333D01*
X137469428Y-102195333D01*
X137564666Y-102242952D01*
X137612285Y-102290571D01*
X137659904Y-102385809D01*
X137659904Y-102623904D01*
X137612285Y-102719142D01*
X137564666Y-102766761D01*
X137469428Y-102814380D01*
X137183714Y-102814380D01*
X137088476Y-102766761D01*
X137040857Y-102719142D01*
%TO.C,J1*%
X129206666Y-114802380D02*
X129206666Y-115516666D01*
X129159047Y-115659523D01*
X129063809Y-115754761D01*
X128920952Y-115802380D01*
X128825714Y-115802380D01*
X130206666Y-115802380D02*
X129635238Y-115802380D01*
X129920952Y-115802380D02*
X129920952Y-114802380D01*
X129825714Y-114945238D01*
X129730476Y-115040476D01*
X129635238Y-115088095D01*
%TO.C,C7*%
X147677142Y-87034666D02*
X147724761Y-87082285D01*
X147772380Y-87225142D01*
X147772380Y-87320380D01*
X147724761Y-87463238D01*
X147629523Y-87558476D01*
X147534285Y-87606095D01*
X147343809Y-87653714D01*
X147200952Y-87653714D01*
X147010476Y-87606095D01*
X146915238Y-87558476D01*
X146820000Y-87463238D01*
X146772380Y-87320380D01*
X146772380Y-87225142D01*
X146820000Y-87082285D01*
X146867619Y-87034666D01*
X146772380Y-86701333D02*
X146772380Y-86034666D01*
X147772380Y-86463238D01*
%TO.C,J3*%
X175434666Y-85856380D02*
X175434666Y-86570666D01*
X175387047Y-86713523D01*
X175291809Y-86808761D01*
X175148952Y-86856380D01*
X175053714Y-86856380D01*
X175815619Y-85856380D02*
X176434666Y-85856380D01*
X176101333Y-86237333D01*
X176244190Y-86237333D01*
X176339428Y-86284952D01*
X176387047Y-86332571D01*
X176434666Y-86427809D01*
X176434666Y-86665904D01*
X176387047Y-86761142D01*
X176339428Y-86808761D01*
X176244190Y-86856380D01*
X175958476Y-86856380D01*
X175863238Y-86808761D01*
X175815619Y-86761142D01*
%TO.C,U6*%
X175768095Y-112228380D02*
X175768095Y-113037904D01*
X175815714Y-113133142D01*
X175863333Y-113180761D01*
X175958571Y-113228380D01*
X176149047Y-113228380D01*
X176244285Y-113180761D01*
X176291904Y-113133142D01*
X176339523Y-113037904D01*
X176339523Y-112228380D01*
X177244285Y-112228380D02*
X177053809Y-112228380D01*
X176958571Y-112276000D01*
X176910952Y-112323619D01*
X176815714Y-112466476D01*
X176768095Y-112656952D01*
X176768095Y-113037904D01*
X176815714Y-113133142D01*
X176863333Y-113180761D01*
X176958571Y-113228380D01*
X177149047Y-113228380D01*
X177244285Y-113180761D01*
X177291904Y-113133142D01*
X177339523Y-113037904D01*
X177339523Y-112799809D01*
X177291904Y-112704571D01*
X177244285Y-112656952D01*
X177149047Y-112609333D01*
X176958571Y-112609333D01*
X176863333Y-112656952D01*
X176815714Y-112704571D01*
X176768095Y-112799809D01*
%TO.C,U4*%
X150622095Y-101306380D02*
X150622095Y-102115904D01*
X150669714Y-102211142D01*
X150717333Y-102258761D01*
X150812571Y-102306380D01*
X151003047Y-102306380D01*
X151098285Y-102258761D01*
X151145904Y-102211142D01*
X151193523Y-102115904D01*
X151193523Y-101306380D01*
X152098285Y-101639714D02*
X152098285Y-102306380D01*
X151860190Y-101258761D02*
X151622095Y-101973047D01*
X152241142Y-101973047D01*
%TO.C,R11*%
X142082142Y-133388380D02*
X141748809Y-132912190D01*
X141510714Y-133388380D02*
X141510714Y-132388380D01*
X141891666Y-132388380D01*
X141986904Y-132436000D01*
X142034523Y-132483619D01*
X142082142Y-132578857D01*
X142082142Y-132721714D01*
X142034523Y-132816952D01*
X141986904Y-132864571D01*
X141891666Y-132912190D01*
X141510714Y-132912190D01*
X143034523Y-133388380D02*
X142463095Y-133388380D01*
X142748809Y-133388380D02*
X142748809Y-132388380D01*
X142653571Y-132531238D01*
X142558333Y-132626476D01*
X142463095Y-132674095D01*
X143986904Y-133388380D02*
X143415476Y-133388380D01*
X143701190Y-133388380D02*
X143701190Y-132388380D01*
X143605952Y-132531238D01*
X143510714Y-132626476D01*
X143415476Y-132674095D01*
%TO.C,C15*%
X149471142Y-118865142D02*
X149423523Y-118912761D01*
X149280666Y-118960380D01*
X149185428Y-118960380D01*
X149042571Y-118912761D01*
X148947333Y-118817523D01*
X148899714Y-118722285D01*
X148852095Y-118531809D01*
X148852095Y-118388952D01*
X148899714Y-118198476D01*
X148947333Y-118103238D01*
X149042571Y-118008000D01*
X149185428Y-117960380D01*
X149280666Y-117960380D01*
X149423523Y-118008000D01*
X149471142Y-118055619D01*
X150423523Y-118960380D02*
X149852095Y-118960380D01*
X150137809Y-118960380D02*
X150137809Y-117960380D01*
X150042571Y-118103238D01*
X149947333Y-118198476D01*
X149852095Y-118246095D01*
X151328285Y-117960380D02*
X150852095Y-117960380D01*
X150804476Y-118436571D01*
X150852095Y-118388952D01*
X150947333Y-118341333D01*
X151185428Y-118341333D01*
X151280666Y-118388952D01*
X151328285Y-118436571D01*
X151375904Y-118531809D01*
X151375904Y-118769904D01*
X151328285Y-118865142D01*
X151280666Y-118912761D01*
X151185428Y-118960380D01*
X150947333Y-118960380D01*
X150852095Y-118912761D01*
X150804476Y-118865142D01*
%TO.C,C1*%
X141581142Y-61888666D02*
X141628761Y-61936285D01*
X141676380Y-62079142D01*
X141676380Y-62174380D01*
X141628761Y-62317238D01*
X141533523Y-62412476D01*
X141438285Y-62460095D01*
X141247809Y-62507714D01*
X141104952Y-62507714D01*
X140914476Y-62460095D01*
X140819238Y-62412476D01*
X140724000Y-62317238D01*
X140676380Y-62174380D01*
X140676380Y-62079142D01*
X140724000Y-61936285D01*
X140771619Y-61888666D01*
X141676380Y-60936285D02*
X141676380Y-61507714D01*
X141676380Y-61222000D02*
X140676380Y-61222000D01*
X140819238Y-61317238D01*
X140914476Y-61412476D01*
X140962095Y-61507714D01*
%TO.C,R16*%
X163774380Y-78112857D02*
X163298190Y-78446190D01*
X163774380Y-78684285D02*
X162774380Y-78684285D01*
X162774380Y-78303333D01*
X162822000Y-78208095D01*
X162869619Y-78160476D01*
X162964857Y-78112857D01*
X163107714Y-78112857D01*
X163202952Y-78160476D01*
X163250571Y-78208095D01*
X163298190Y-78303333D01*
X163298190Y-78684285D01*
X163774380Y-77160476D02*
X163774380Y-77731904D01*
X163774380Y-77446190D02*
X162774380Y-77446190D01*
X162917238Y-77541428D01*
X163012476Y-77636666D01*
X163060095Y-77731904D01*
X162774380Y-76303333D02*
X162774380Y-76493809D01*
X162822000Y-76589047D01*
X162869619Y-76636666D01*
X163012476Y-76731904D01*
X163202952Y-76779523D01*
X163583904Y-76779523D01*
X163679142Y-76731904D01*
X163726761Y-76684285D01*
X163774380Y-76589047D01*
X163774380Y-76398571D01*
X163726761Y-76303333D01*
X163679142Y-76255714D01*
X163583904Y-76208095D01*
X163345809Y-76208095D01*
X163250571Y-76255714D01*
X163202952Y-76303333D01*
X163155333Y-76398571D01*
X163155333Y-76589047D01*
X163202952Y-76684285D01*
X163250571Y-76731904D01*
X163345809Y-76779523D01*
%TO.C,L1*%
X152736380Y-75096666D02*
X152736380Y-75572857D01*
X151736380Y-75572857D01*
X152736380Y-74239523D02*
X152736380Y-74810952D01*
X152736380Y-74525238D02*
X151736380Y-74525238D01*
X151879238Y-74620476D01*
X151974476Y-74715714D01*
X152022095Y-74810952D01*
%TO.C,C26*%
X177141142Y-119006857D02*
X177188761Y-119054476D01*
X177236380Y-119197333D01*
X177236380Y-119292571D01*
X177188761Y-119435428D01*
X177093523Y-119530666D01*
X176998285Y-119578285D01*
X176807809Y-119625904D01*
X176664952Y-119625904D01*
X176474476Y-119578285D01*
X176379238Y-119530666D01*
X176284000Y-119435428D01*
X176236380Y-119292571D01*
X176236380Y-119197333D01*
X176284000Y-119054476D01*
X176331619Y-119006857D01*
X176331619Y-118625904D02*
X176284000Y-118578285D01*
X176236380Y-118483047D01*
X176236380Y-118244952D01*
X176284000Y-118149714D01*
X176331619Y-118102095D01*
X176426857Y-118054476D01*
X176522095Y-118054476D01*
X176664952Y-118102095D01*
X177236380Y-118673523D01*
X177236380Y-118054476D01*
X176236380Y-117197333D02*
X176236380Y-117387809D01*
X176284000Y-117483047D01*
X176331619Y-117530666D01*
X176474476Y-117625904D01*
X176664952Y-117673523D01*
X177045904Y-117673523D01*
X177141142Y-117625904D01*
X177188761Y-117578285D01*
X177236380Y-117483047D01*
X177236380Y-117292571D01*
X177188761Y-117197333D01*
X177141142Y-117149714D01*
X177045904Y-117102095D01*
X176807809Y-117102095D01*
X176712571Y-117149714D01*
X176664952Y-117197333D01*
X176617333Y-117292571D01*
X176617333Y-117483047D01*
X176664952Y-117578285D01*
X176712571Y-117625904D01*
X176807809Y-117673523D01*
%TO.C,R1*%
X158837333Y-83410380D02*
X158504000Y-82934190D01*
X158265904Y-83410380D02*
X158265904Y-82410380D01*
X158646857Y-82410380D01*
X158742095Y-82458000D01*
X158789714Y-82505619D01*
X158837333Y-82600857D01*
X158837333Y-82743714D01*
X158789714Y-82838952D01*
X158742095Y-82886571D01*
X158646857Y-82934190D01*
X158265904Y-82934190D01*
X159789714Y-83410380D02*
X159218285Y-83410380D01*
X159504000Y-83410380D02*
X159504000Y-82410380D01*
X159408761Y-82553238D01*
X159313523Y-82648476D01*
X159218285Y-82696095D01*
%TO.C,Q4*%
X145192761Y-141923119D02*
X145097523Y-141875500D01*
X145002285Y-141780261D01*
X144859428Y-141637404D01*
X144764190Y-141589785D01*
X144668952Y-141589785D01*
X144716571Y-141827880D02*
X144621333Y-141780261D01*
X144526095Y-141685023D01*
X144478476Y-141494547D01*
X144478476Y-141161214D01*
X144526095Y-140970738D01*
X144621333Y-140875500D01*
X144716571Y-140827880D01*
X144907047Y-140827880D01*
X145002285Y-140875500D01*
X145097523Y-140970738D01*
X145145142Y-141161214D01*
X145145142Y-141494547D01*
X145097523Y-141685023D01*
X145002285Y-141780261D01*
X144907047Y-141827880D01*
X144716571Y-141827880D01*
X146002285Y-141161214D02*
X146002285Y-141827880D01*
X145764190Y-140780261D02*
X145526095Y-141494547D01*
X146145142Y-141494547D01*
%TO.C,C3*%
X146391333Y-67921142D02*
X146343714Y-67968761D01*
X146200857Y-68016380D01*
X146105619Y-68016380D01*
X145962761Y-67968761D01*
X145867523Y-67873523D01*
X145819904Y-67778285D01*
X145772285Y-67587809D01*
X145772285Y-67444952D01*
X145819904Y-67254476D01*
X145867523Y-67159238D01*
X145962761Y-67064000D01*
X146105619Y-67016380D01*
X146200857Y-67016380D01*
X146343714Y-67064000D01*
X146391333Y-67111619D01*
X146724666Y-67016380D02*
X147343714Y-67016380D01*
X147010380Y-67397333D01*
X147153238Y-67397333D01*
X147248476Y-67444952D01*
X147296095Y-67492571D01*
X147343714Y-67587809D01*
X147343714Y-67825904D01*
X147296095Y-67921142D01*
X147248476Y-67968761D01*
X147153238Y-68016380D01*
X146867523Y-68016380D01*
X146772285Y-67968761D01*
X146724666Y-67921142D01*
%TO.C,D1*%
X158186380Y-75160095D02*
X157186380Y-75160095D01*
X157186380Y-74922000D01*
X157234000Y-74779142D01*
X157329238Y-74683904D01*
X157424476Y-74636285D01*
X157614952Y-74588666D01*
X157757809Y-74588666D01*
X157948285Y-74636285D01*
X158043523Y-74683904D01*
X158138761Y-74779142D01*
X158186380Y-74922000D01*
X158186380Y-75160095D01*
X158186380Y-73636285D02*
X158186380Y-74207714D01*
X158186380Y-73922000D02*
X157186380Y-73922000D01*
X157329238Y-74017238D01*
X157424476Y-74112476D01*
X157472095Y-74207714D01*
%TO.C,IC1*%
X146870380Y-65746190D02*
X145870380Y-65746190D01*
X146775142Y-64698571D02*
X146822761Y-64746190D01*
X146870380Y-64889047D01*
X146870380Y-64984285D01*
X146822761Y-65127142D01*
X146727523Y-65222380D01*
X146632285Y-65270000D01*
X146441809Y-65317619D01*
X146298952Y-65317619D01*
X146108476Y-65270000D01*
X146013238Y-65222380D01*
X145918000Y-65127142D01*
X145870380Y-64984285D01*
X145870380Y-64889047D01*
X145918000Y-64746190D01*
X145965619Y-64698571D01*
X146870380Y-63746190D02*
X146870380Y-64317619D01*
X146870380Y-64031904D02*
X145870380Y-64031904D01*
X146013238Y-64127142D01*
X146108476Y-64222380D01*
X146156095Y-64317619D01*
%TO.C,C2*%
X162155142Y-75096666D02*
X162202761Y-75144285D01*
X162250380Y-75287142D01*
X162250380Y-75382380D01*
X162202761Y-75525238D01*
X162107523Y-75620476D01*
X162012285Y-75668095D01*
X161821809Y-75715714D01*
X161678952Y-75715714D01*
X161488476Y-75668095D01*
X161393238Y-75620476D01*
X161298000Y-75525238D01*
X161250380Y-75382380D01*
X161250380Y-75287142D01*
X161298000Y-75144285D01*
X161345619Y-75096666D01*
X161345619Y-74715714D02*
X161298000Y-74668095D01*
X161250380Y-74572857D01*
X161250380Y-74334761D01*
X161298000Y-74239523D01*
X161345619Y-74191904D01*
X161440857Y-74144285D01*
X161536095Y-74144285D01*
X161678952Y-74191904D01*
X162250380Y-74763333D01*
X162250380Y-74144285D01*
%TO.C,R13*%
X146146142Y-133388380D02*
X145812809Y-132912190D01*
X145574714Y-133388380D02*
X145574714Y-132388380D01*
X145955666Y-132388380D01*
X146050904Y-132436000D01*
X146098523Y-132483619D01*
X146146142Y-132578857D01*
X146146142Y-132721714D01*
X146098523Y-132816952D01*
X146050904Y-132864571D01*
X145955666Y-132912190D01*
X145574714Y-132912190D01*
X147098523Y-133388380D02*
X146527095Y-133388380D01*
X146812809Y-133388380D02*
X146812809Y-132388380D01*
X146717571Y-132531238D01*
X146622333Y-132626476D01*
X146527095Y-132674095D01*
X147431857Y-132388380D02*
X148050904Y-132388380D01*
X147717571Y-132769333D01*
X147860428Y-132769333D01*
X147955666Y-132816952D01*
X148003285Y-132864571D01*
X148050904Y-132959809D01*
X148050904Y-133197904D01*
X148003285Y-133293142D01*
X147955666Y-133340761D01*
X147860428Y-133388380D01*
X147574714Y-133388380D01*
X147479476Y-133340761D01*
X147431857Y-133293142D01*
%TO.C,U1*%
X156663095Y-66127380D02*
X156663095Y-66936904D01*
X156710714Y-67032142D01*
X156758333Y-67079761D01*
X156853571Y-67127380D01*
X157044047Y-67127380D01*
X157139285Y-67079761D01*
X157186904Y-67032142D01*
X157234523Y-66936904D01*
X157234523Y-66127380D01*
X158234523Y-67127380D02*
X157663095Y-67127380D01*
X157948809Y-67127380D02*
X157948809Y-66127380D01*
X157853571Y-66270238D01*
X157758333Y-66365476D01*
X157663095Y-66413095D01*
%TO.C,Q2*%
X137064761Y-141923119D02*
X136969523Y-141875500D01*
X136874285Y-141780261D01*
X136731428Y-141637404D01*
X136636190Y-141589785D01*
X136540952Y-141589785D01*
X136588571Y-141827880D02*
X136493333Y-141780261D01*
X136398095Y-141685023D01*
X136350476Y-141494547D01*
X136350476Y-141161214D01*
X136398095Y-140970738D01*
X136493333Y-140875500D01*
X136588571Y-140827880D01*
X136779047Y-140827880D01*
X136874285Y-140875500D01*
X136969523Y-140970738D01*
X137017142Y-141161214D01*
X137017142Y-141494547D01*
X136969523Y-141685023D01*
X136874285Y-141780261D01*
X136779047Y-141827880D01*
X136588571Y-141827880D01*
X137398095Y-140923119D02*
X137445714Y-140875500D01*
X137540952Y-140827880D01*
X137779047Y-140827880D01*
X137874285Y-140875500D01*
X137921904Y-140923119D01*
X137969523Y-141018357D01*
X137969523Y-141113595D01*
X137921904Y-141256452D01*
X137350476Y-141827880D01*
X137969523Y-141827880D01*
D13*
%TO.C,IC2*%
X154720238Y-109540523D02*
X154720238Y-108270523D01*
X156050714Y-109419571D02*
X155990238Y-109480047D01*
X155808809Y-109540523D01*
X155687857Y-109540523D01*
X155506428Y-109480047D01*
X155385476Y-109359095D01*
X155325000Y-109238142D01*
X155264523Y-108996238D01*
X155264523Y-108814809D01*
X155325000Y-108572904D01*
X155385476Y-108451952D01*
X155506428Y-108331000D01*
X155687857Y-108270523D01*
X155808809Y-108270523D01*
X155990238Y-108331000D01*
X156050714Y-108391476D01*
X156534523Y-108391476D02*
X156595000Y-108331000D01*
X156715952Y-108270523D01*
X157018333Y-108270523D01*
X157139285Y-108331000D01*
X157199761Y-108391476D01*
X157260238Y-108512428D01*
X157260238Y-108633380D01*
X157199761Y-108814809D01*
X156474047Y-109540523D01*
X157260238Y-109540523D01*
D12*
%TO.C,U3*%
X167460380Y-99821904D02*
X168269904Y-99821904D01*
X168365142Y-99774285D01*
X168412761Y-99726666D01*
X168460380Y-99631428D01*
X168460380Y-99440952D01*
X168412761Y-99345714D01*
X168365142Y-99298095D01*
X168269904Y-99250476D01*
X167460380Y-99250476D01*
X167460380Y-98869523D02*
X167460380Y-98250476D01*
X167841333Y-98583809D01*
X167841333Y-98440952D01*
X167888952Y-98345714D01*
X167936571Y-98298095D01*
X168031809Y-98250476D01*
X168269904Y-98250476D01*
X168365142Y-98298095D01*
X168412761Y-98345714D01*
X168460380Y-98440952D01*
X168460380Y-98726666D01*
X168412761Y-98821904D01*
X168365142Y-98869523D01*
%TO.C,R7*%
X134176333Y-133388380D02*
X133843000Y-132912190D01*
X133604904Y-133388380D02*
X133604904Y-132388380D01*
X133985857Y-132388380D01*
X134081095Y-132436000D01*
X134128714Y-132483619D01*
X134176333Y-132578857D01*
X134176333Y-132721714D01*
X134128714Y-132816952D01*
X134081095Y-132864571D01*
X133985857Y-132912190D01*
X133604904Y-132912190D01*
X134509666Y-132388380D02*
X135176333Y-132388380D01*
X134747761Y-133388380D01*
%TO.C,C5*%
X145248333Y-61173142D02*
X145200714Y-61220761D01*
X145057857Y-61268380D01*
X144962619Y-61268380D01*
X144819761Y-61220761D01*
X144724523Y-61125523D01*
X144676904Y-61030285D01*
X144629285Y-60839809D01*
X144629285Y-60696952D01*
X144676904Y-60506476D01*
X144724523Y-60411238D01*
X144819761Y-60316000D01*
X144962619Y-60268380D01*
X145057857Y-60268380D01*
X145200714Y-60316000D01*
X145248333Y-60363619D01*
X146153095Y-60268380D02*
X145676904Y-60268380D01*
X145629285Y-60744571D01*
X145676904Y-60696952D01*
X145772142Y-60649333D01*
X146010238Y-60649333D01*
X146105476Y-60696952D01*
X146153095Y-60744571D01*
X146200714Y-60839809D01*
X146200714Y-61077904D01*
X146153095Y-61173142D01*
X146105476Y-61220761D01*
X146010238Y-61268380D01*
X145772142Y-61268380D01*
X145676904Y-61220761D01*
X145629285Y-61173142D01*
%TO.C,FB1*%
X137342666Y-114482571D02*
X137009333Y-114482571D01*
X137009333Y-115006380D02*
X137009333Y-114006380D01*
X137485523Y-114006380D01*
X138199809Y-114482571D02*
X138342666Y-114530190D01*
X138390285Y-114577809D01*
X138437904Y-114673047D01*
X138437904Y-114815904D01*
X138390285Y-114911142D01*
X138342666Y-114958761D01*
X138247428Y-115006380D01*
X137866476Y-115006380D01*
X137866476Y-114006380D01*
X138199809Y-114006380D01*
X138295047Y-114054000D01*
X138342666Y-114101619D01*
X138390285Y-114196857D01*
X138390285Y-114292095D01*
X138342666Y-114387333D01*
X138295047Y-114434952D01*
X138199809Y-114482571D01*
X137866476Y-114482571D01*
X139390285Y-115006380D02*
X138818857Y-115006380D01*
X139104571Y-115006380D02*
X139104571Y-114006380D01*
X139009333Y-114149238D01*
X138914095Y-114244476D01*
X138818857Y-114292095D01*
%TO.C,C8*%
X141832333Y-99511142D02*
X141784714Y-99558761D01*
X141641857Y-99606380D01*
X141546619Y-99606380D01*
X141403761Y-99558761D01*
X141308523Y-99463523D01*
X141260904Y-99368285D01*
X141213285Y-99177809D01*
X141213285Y-99034952D01*
X141260904Y-98844476D01*
X141308523Y-98749238D01*
X141403761Y-98654000D01*
X141546619Y-98606380D01*
X141641857Y-98606380D01*
X141784714Y-98654000D01*
X141832333Y-98701619D01*
X142403761Y-99034952D02*
X142308523Y-98987333D01*
X142260904Y-98939714D01*
X142213285Y-98844476D01*
X142213285Y-98796857D01*
X142260904Y-98701619D01*
X142308523Y-98654000D01*
X142403761Y-98606380D01*
X142594238Y-98606380D01*
X142689476Y-98654000D01*
X142737095Y-98701619D01*
X142784714Y-98796857D01*
X142784714Y-98844476D01*
X142737095Y-98939714D01*
X142689476Y-98987333D01*
X142594238Y-99034952D01*
X142403761Y-99034952D01*
X142308523Y-99082571D01*
X142260904Y-99130190D01*
X142213285Y-99225428D01*
X142213285Y-99415904D01*
X142260904Y-99511142D01*
X142308523Y-99558761D01*
X142403761Y-99606380D01*
X142594238Y-99606380D01*
X142689476Y-99558761D01*
X142737095Y-99511142D01*
X142784714Y-99415904D01*
X142784714Y-99225428D01*
X142737095Y-99130190D01*
X142689476Y-99082571D01*
X142594238Y-99034952D01*
%TO.C,C14*%
X139057142Y-117197142D02*
X139009523Y-117244761D01*
X138866666Y-117292380D01*
X138771428Y-117292380D01*
X138628571Y-117244761D01*
X138533333Y-117149523D01*
X138485714Y-117054285D01*
X138438095Y-116863809D01*
X138438095Y-116720952D01*
X138485714Y-116530476D01*
X138533333Y-116435238D01*
X138628571Y-116340000D01*
X138771428Y-116292380D01*
X138866666Y-116292380D01*
X139009523Y-116340000D01*
X139057142Y-116387619D01*
X140009523Y-117292380D02*
X139438095Y-117292380D01*
X139723809Y-117292380D02*
X139723809Y-116292380D01*
X139628571Y-116435238D01*
X139533333Y-116530476D01*
X139438095Y-116578095D01*
X140866666Y-116625714D02*
X140866666Y-117292380D01*
X140628571Y-116244761D02*
X140390476Y-116959047D01*
X141009523Y-116959047D01*
%TO.C,C6*%
X145645142Y-87034666D02*
X145692761Y-87082285D01*
X145740380Y-87225142D01*
X145740380Y-87320380D01*
X145692761Y-87463238D01*
X145597523Y-87558476D01*
X145502285Y-87606095D01*
X145311809Y-87653714D01*
X145168952Y-87653714D01*
X144978476Y-87606095D01*
X144883238Y-87558476D01*
X144788000Y-87463238D01*
X144740380Y-87320380D01*
X144740380Y-87225142D01*
X144788000Y-87082285D01*
X144835619Y-87034666D01*
X144740380Y-86177523D02*
X144740380Y-86368000D01*
X144788000Y-86463238D01*
X144835619Y-86510857D01*
X144978476Y-86606095D01*
X145168952Y-86653714D01*
X145549904Y-86653714D01*
X145645142Y-86606095D01*
X145692761Y-86558476D01*
X145740380Y-86463238D01*
X145740380Y-86272761D01*
X145692761Y-86177523D01*
X145645142Y-86129904D01*
X145549904Y-86082285D01*
X145311809Y-86082285D01*
X145216571Y-86129904D01*
X145168952Y-86177523D01*
X145121333Y-86272761D01*
X145121333Y-86463238D01*
X145168952Y-86558476D01*
X145216571Y-86606095D01*
X145311809Y-86653714D01*
%TO.C,R15*%
X141676380Y-84208857D02*
X141200190Y-84542190D01*
X141676380Y-84780285D02*
X140676380Y-84780285D01*
X140676380Y-84399333D01*
X140724000Y-84304095D01*
X140771619Y-84256476D01*
X140866857Y-84208857D01*
X141009714Y-84208857D01*
X141104952Y-84256476D01*
X141152571Y-84304095D01*
X141200190Y-84399333D01*
X141200190Y-84780285D01*
X141676380Y-83256476D02*
X141676380Y-83827904D01*
X141676380Y-83542190D02*
X140676380Y-83542190D01*
X140819238Y-83637428D01*
X140914476Y-83732666D01*
X140962095Y-83827904D01*
X140676380Y-82351714D02*
X140676380Y-82827904D01*
X141152571Y-82875523D01*
X141104952Y-82827904D01*
X141057333Y-82732666D01*
X141057333Y-82494571D01*
X141104952Y-82399333D01*
X141152571Y-82351714D01*
X141247809Y-82304095D01*
X141485904Y-82304095D01*
X141581142Y-82351714D01*
X141628761Y-82399333D01*
X141676380Y-82494571D01*
X141676380Y-82732666D01*
X141628761Y-82827904D01*
X141581142Y-82875523D01*
%TO.C,Q1*%
X161448761Y-79287619D02*
X161353523Y-79240000D01*
X161258285Y-79144761D01*
X161115428Y-79001904D01*
X161020190Y-78954285D01*
X160924952Y-78954285D01*
X160972571Y-79192380D02*
X160877333Y-79144761D01*
X160782095Y-79049523D01*
X160734476Y-78859047D01*
X160734476Y-78525714D01*
X160782095Y-78335238D01*
X160877333Y-78240000D01*
X160972571Y-78192380D01*
X161163047Y-78192380D01*
X161258285Y-78240000D01*
X161353523Y-78335238D01*
X161401142Y-78525714D01*
X161401142Y-78859047D01*
X161353523Y-79049523D01*
X161258285Y-79144761D01*
X161163047Y-79192380D01*
X160972571Y-79192380D01*
X162353523Y-79192380D02*
X161782095Y-79192380D01*
X162067809Y-79192380D02*
X162067809Y-78192380D01*
X161972571Y-78335238D01*
X161877333Y-78430476D01*
X161782095Y-78478095D01*
%TO.C,J5*%
X135267380Y-76787333D02*
X135981666Y-76787333D01*
X136124523Y-76834952D01*
X136219761Y-76930190D01*
X136267380Y-77073047D01*
X136267380Y-77168285D01*
X135267380Y-75834952D02*
X135267380Y-76311142D01*
X135743571Y-76358761D01*
X135695952Y-76311142D01*
X135648333Y-76215904D01*
X135648333Y-75977809D01*
X135695952Y-75882571D01*
X135743571Y-75834952D01*
X135838809Y-75787333D01*
X136076904Y-75787333D01*
X136172142Y-75834952D01*
X136219761Y-75882571D01*
X136267380Y-75977809D01*
X136267380Y-76215904D01*
X136219761Y-76311142D01*
X136172142Y-76358761D01*
%TO.C,R8*%
X139002333Y-142946380D02*
X138669000Y-142470190D01*
X138430904Y-142946380D02*
X138430904Y-141946380D01*
X138811857Y-141946380D01*
X138907095Y-141994000D01*
X138954714Y-142041619D01*
X139002333Y-142136857D01*
X139002333Y-142279714D01*
X138954714Y-142374952D01*
X138907095Y-142422571D01*
X138811857Y-142470190D01*
X138430904Y-142470190D01*
X139573761Y-142374952D02*
X139478523Y-142327333D01*
X139430904Y-142279714D01*
X139383285Y-142184476D01*
X139383285Y-142136857D01*
X139430904Y-142041619D01*
X139478523Y-141994000D01*
X139573761Y-141946380D01*
X139764238Y-141946380D01*
X139859476Y-141994000D01*
X139907095Y-142041619D01*
X139954714Y-142136857D01*
X139954714Y-142184476D01*
X139907095Y-142279714D01*
X139859476Y-142327333D01*
X139764238Y-142374952D01*
X139573761Y-142374952D01*
X139478523Y-142422571D01*
X139430904Y-142470190D01*
X139383285Y-142565428D01*
X139383285Y-142755904D01*
X139430904Y-142851142D01*
X139478523Y-142898761D01*
X139573761Y-142946380D01*
X139764238Y-142946380D01*
X139859476Y-142898761D01*
X139907095Y-142851142D01*
X139954714Y-142755904D01*
X139954714Y-142565428D01*
X139907095Y-142470190D01*
X139859476Y-142422571D01*
X139764238Y-142374952D01*
%TO.C,R14*%
X137787142Y-86050380D02*
X137453809Y-85574190D01*
X137215714Y-86050380D02*
X137215714Y-85050380D01*
X137596666Y-85050380D01*
X137691904Y-85098000D01*
X137739523Y-85145619D01*
X137787142Y-85240857D01*
X137787142Y-85383714D01*
X137739523Y-85478952D01*
X137691904Y-85526571D01*
X137596666Y-85574190D01*
X137215714Y-85574190D01*
X138739523Y-86050380D02*
X138168095Y-86050380D01*
X138453809Y-86050380D02*
X138453809Y-85050380D01*
X138358571Y-85193238D01*
X138263333Y-85288476D01*
X138168095Y-85336095D01*
X139596666Y-85383714D02*
X139596666Y-86050380D01*
X139358571Y-85002761D02*
X139120476Y-85717047D01*
X139739523Y-85717047D01*
%TO.C,U2*%
X145034095Y-101018380D02*
X145034095Y-101827904D01*
X145081714Y-101923142D01*
X145129333Y-101970761D01*
X145224571Y-102018380D01*
X145415047Y-102018380D01*
X145510285Y-101970761D01*
X145557904Y-101923142D01*
X145605523Y-101827904D01*
X145605523Y-101018380D01*
X146034095Y-101113619D02*
X146081714Y-101066000D01*
X146176952Y-101018380D01*
X146415047Y-101018380D01*
X146510285Y-101066000D01*
X146557904Y-101113619D01*
X146605523Y-101208857D01*
X146605523Y-101304095D01*
X146557904Y-101446952D01*
X145986476Y-102018380D01*
X146605523Y-102018380D01*
%TO.C,J4*%
X135267380Y-83983333D02*
X135981666Y-83983333D01*
X136124523Y-84030952D01*
X136219761Y-84126190D01*
X136267380Y-84269047D01*
X136267380Y-84364285D01*
X135600714Y-83078571D02*
X136267380Y-83078571D01*
X135219761Y-83316666D02*
X135934047Y-83554761D01*
X135934047Y-82935714D01*
%TO.C,R10*%
X142590142Y-142946380D02*
X142256809Y-142470190D01*
X142018714Y-142946380D02*
X142018714Y-141946380D01*
X142399666Y-141946380D01*
X142494904Y-141994000D01*
X142542523Y-142041619D01*
X142590142Y-142136857D01*
X142590142Y-142279714D01*
X142542523Y-142374952D01*
X142494904Y-142422571D01*
X142399666Y-142470190D01*
X142018714Y-142470190D01*
X143542523Y-142946380D02*
X142971095Y-142946380D01*
X143256809Y-142946380D02*
X143256809Y-141946380D01*
X143161571Y-142089238D01*
X143066333Y-142184476D01*
X142971095Y-142232095D01*
X144161571Y-141946380D02*
X144256809Y-141946380D01*
X144352047Y-141994000D01*
X144399666Y-142041619D01*
X144447285Y-142136857D01*
X144494904Y-142327333D01*
X144494904Y-142565428D01*
X144447285Y-142755904D01*
X144399666Y-142851142D01*
X144352047Y-142898761D01*
X144256809Y-142946380D01*
X144161571Y-142946380D01*
X144066333Y-142898761D01*
X144018714Y-142851142D01*
X143971095Y-142755904D01*
X143923476Y-142565428D01*
X143923476Y-142327333D01*
X143971095Y-142136857D01*
X144018714Y-142041619D01*
X144066333Y-141994000D01*
X144161571Y-141946380D01*
D13*
%TO.C,J7*%
X168214523Y-94403333D02*
X169121666Y-94403333D01*
X169303095Y-94463809D01*
X169424047Y-94584761D01*
X169484523Y-94766190D01*
X169484523Y-94887142D01*
X168214523Y-93919523D02*
X168214523Y-93072857D01*
X169484523Y-93617142D01*
D12*
%TO.C,C12*%
X135247142Y-105005142D02*
X135199523Y-105052761D01*
X135056666Y-105100380D01*
X134961428Y-105100380D01*
X134818571Y-105052761D01*
X134723333Y-104957523D01*
X134675714Y-104862285D01*
X134628095Y-104671809D01*
X134628095Y-104528952D01*
X134675714Y-104338476D01*
X134723333Y-104243238D01*
X134818571Y-104148000D01*
X134961428Y-104100380D01*
X135056666Y-104100380D01*
X135199523Y-104148000D01*
X135247142Y-104195619D01*
X136199523Y-105100380D02*
X135628095Y-105100380D01*
X135913809Y-105100380D02*
X135913809Y-104100380D01*
X135818571Y-104243238D01*
X135723333Y-104338476D01*
X135628095Y-104386095D01*
X136580476Y-104195619D02*
X136628095Y-104148000D01*
X136723333Y-104100380D01*
X136961428Y-104100380D01*
X137056666Y-104148000D01*
X137104285Y-104195619D01*
X137151904Y-104290857D01*
X137151904Y-104386095D01*
X137104285Y-104528952D01*
X136532857Y-105100380D01*
X137151904Y-105100380D01*
%TO.C,R9*%
X138240333Y-133388380D02*
X137907000Y-132912190D01*
X137668904Y-133388380D02*
X137668904Y-132388380D01*
X138049857Y-132388380D01*
X138145095Y-132436000D01*
X138192714Y-132483619D01*
X138240333Y-132578857D01*
X138240333Y-132721714D01*
X138192714Y-132816952D01*
X138145095Y-132864571D01*
X138049857Y-132912190D01*
X137668904Y-132912190D01*
X138716523Y-133388380D02*
X138907000Y-133388380D01*
X139002238Y-133340761D01*
X139049857Y-133293142D01*
X139145095Y-133150285D01*
X139192714Y-132959809D01*
X139192714Y-132578857D01*
X139145095Y-132483619D01*
X139097476Y-132436000D01*
X139002238Y-132388380D01*
X138811761Y-132388380D01*
X138716523Y-132436000D01*
X138668904Y-132483619D01*
X138621285Y-132578857D01*
X138621285Y-132816952D01*
X138668904Y-132912190D01*
X138716523Y-132959809D01*
X138811761Y-133007428D01*
X139002238Y-133007428D01*
X139097476Y-132959809D01*
X139145095Y-132912190D01*
X139192714Y-132816952D01*
%TO.C,R2*%
X133945333Y-136493880D02*
X133612000Y-136017690D01*
X133373904Y-136493880D02*
X133373904Y-135493880D01*
X133754857Y-135493880D01*
X133850095Y-135541500D01*
X133897714Y-135589119D01*
X133945333Y-135684357D01*
X133945333Y-135827214D01*
X133897714Y-135922452D01*
X133850095Y-135970071D01*
X133754857Y-136017690D01*
X133373904Y-136017690D01*
X134326285Y-135589119D02*
X134373904Y-135541500D01*
X134469142Y-135493880D01*
X134707238Y-135493880D01*
X134802476Y-135541500D01*
X134850095Y-135589119D01*
X134897714Y-135684357D01*
X134897714Y-135779595D01*
X134850095Y-135922452D01*
X134278666Y-136493880D01*
X134897714Y-136493880D01*
%TO.C,C10*%
X155695142Y-106052857D02*
X155742761Y-106100476D01*
X155790380Y-106243333D01*
X155790380Y-106338571D01*
X155742761Y-106481428D01*
X155647523Y-106576666D01*
X155552285Y-106624285D01*
X155361809Y-106671904D01*
X155218952Y-106671904D01*
X155028476Y-106624285D01*
X154933238Y-106576666D01*
X154838000Y-106481428D01*
X154790380Y-106338571D01*
X154790380Y-106243333D01*
X154838000Y-106100476D01*
X154885619Y-106052857D01*
X155790380Y-105100476D02*
X155790380Y-105671904D01*
X155790380Y-105386190D02*
X154790380Y-105386190D01*
X154933238Y-105481428D01*
X155028476Y-105576666D01*
X155076095Y-105671904D01*
X154790380Y-104481428D02*
X154790380Y-104386190D01*
X154838000Y-104290952D01*
X154885619Y-104243333D01*
X154980857Y-104195714D01*
X155171333Y-104148095D01*
X155409428Y-104148095D01*
X155599904Y-104195714D01*
X155695142Y-104243333D01*
X155742761Y-104290952D01*
X155790380Y-104386190D01*
X155790380Y-104481428D01*
X155742761Y-104576666D01*
X155695142Y-104624285D01*
X155599904Y-104671904D01*
X155409428Y-104719523D01*
X155171333Y-104719523D01*
X154980857Y-104671904D01*
X154885619Y-104624285D01*
X154838000Y-104576666D01*
X154790380Y-104481428D01*
%TO.C,Q5*%
X149510761Y-141923119D02*
X149415523Y-141875500D01*
X149320285Y-141780261D01*
X149177428Y-141637404D01*
X149082190Y-141589785D01*
X148986952Y-141589785D01*
X149034571Y-141827880D02*
X148939333Y-141780261D01*
X148844095Y-141685023D01*
X148796476Y-141494547D01*
X148796476Y-141161214D01*
X148844095Y-140970738D01*
X148939333Y-140875500D01*
X149034571Y-140827880D01*
X149225047Y-140827880D01*
X149320285Y-140875500D01*
X149415523Y-140970738D01*
X149463142Y-141161214D01*
X149463142Y-141494547D01*
X149415523Y-141685023D01*
X149320285Y-141780261D01*
X149225047Y-141827880D01*
X149034571Y-141827880D01*
X150367904Y-140827880D02*
X149891714Y-140827880D01*
X149844095Y-141304071D01*
X149891714Y-141256452D01*
X149986952Y-141208833D01*
X150225047Y-141208833D01*
X150320285Y-141256452D01*
X150367904Y-141304071D01*
X150415523Y-141399309D01*
X150415523Y-141637404D01*
X150367904Y-141732642D01*
X150320285Y-141780261D01*
X150225047Y-141827880D01*
X149986952Y-141827880D01*
X149891714Y-141780261D01*
X149844095Y-141732642D01*
%TO.C,C25*%
X172077142Y-104497142D02*
X172029523Y-104544761D01*
X171886666Y-104592380D01*
X171791428Y-104592380D01*
X171648571Y-104544761D01*
X171553333Y-104449523D01*
X171505714Y-104354285D01*
X171458095Y-104163809D01*
X171458095Y-104020952D01*
X171505714Y-103830476D01*
X171553333Y-103735238D01*
X171648571Y-103640000D01*
X171791428Y-103592380D01*
X171886666Y-103592380D01*
X172029523Y-103640000D01*
X172077142Y-103687619D01*
X172458095Y-103687619D02*
X172505714Y-103640000D01*
X172600952Y-103592380D01*
X172839047Y-103592380D01*
X172934285Y-103640000D01*
X172981904Y-103687619D01*
X173029523Y-103782857D01*
X173029523Y-103878095D01*
X172981904Y-104020952D01*
X172410476Y-104592380D01*
X173029523Y-104592380D01*
X173934285Y-103592380D02*
X173458095Y-103592380D01*
X173410476Y-104068571D01*
X173458095Y-104020952D01*
X173553333Y-103973333D01*
X173791428Y-103973333D01*
X173886666Y-104020952D01*
X173934285Y-104068571D01*
X173981904Y-104163809D01*
X173981904Y-104401904D01*
X173934285Y-104497142D01*
X173886666Y-104544761D01*
X173791428Y-104592380D01*
X173553333Y-104592380D01*
X173458095Y-104544761D01*
X173410476Y-104497142D01*
%TO.C,R3*%
X138009333Y-136493880D02*
X137676000Y-136017690D01*
X137437904Y-136493880D02*
X137437904Y-135493880D01*
X137818857Y-135493880D01*
X137914095Y-135541500D01*
X137961714Y-135589119D01*
X138009333Y-135684357D01*
X138009333Y-135827214D01*
X137961714Y-135922452D01*
X137914095Y-135970071D01*
X137818857Y-136017690D01*
X137437904Y-136017690D01*
X138342666Y-135493880D02*
X138961714Y-135493880D01*
X138628380Y-135874833D01*
X138771238Y-135874833D01*
X138866476Y-135922452D01*
X138914095Y-135970071D01*
X138961714Y-136065309D01*
X138961714Y-136303404D01*
X138914095Y-136398642D01*
X138866476Y-136446261D01*
X138771238Y-136493880D01*
X138485523Y-136493880D01*
X138390285Y-136446261D01*
X138342666Y-136398642D01*
%TO.C,C20*%
X155297142Y-100064693D02*
X155344761Y-100112312D01*
X155392380Y-100255169D01*
X155392380Y-100350407D01*
X155344761Y-100493264D01*
X155249523Y-100588502D01*
X155154285Y-100636121D01*
X154963809Y-100683740D01*
X154820952Y-100683740D01*
X154630476Y-100636121D01*
X154535238Y-100588502D01*
X154440000Y-100493264D01*
X154392380Y-100350407D01*
X154392380Y-100255169D01*
X154440000Y-100112312D01*
X154487619Y-100064693D01*
X154487619Y-99683740D02*
X154440000Y-99636121D01*
X154392380Y-99540883D01*
X154392380Y-99302788D01*
X154440000Y-99207550D01*
X154487619Y-99159931D01*
X154582857Y-99112312D01*
X154678095Y-99112312D01*
X154820952Y-99159931D01*
X155392380Y-99731359D01*
X155392380Y-99112312D01*
X154392380Y-98493264D02*
X154392380Y-98398026D01*
X154440000Y-98302788D01*
X154487619Y-98255169D01*
X154582857Y-98207550D01*
X154773333Y-98159931D01*
X155011428Y-98159931D01*
X155201904Y-98207550D01*
X155297142Y-98255169D01*
X155344761Y-98302788D01*
X155392380Y-98398026D01*
X155392380Y-98493264D01*
X155344761Y-98588502D01*
X155297142Y-98636121D01*
X155201904Y-98683740D01*
X155011428Y-98731359D01*
X154773333Y-98731359D01*
X154582857Y-98683740D01*
X154487619Y-98636121D01*
X154440000Y-98588502D01*
X154392380Y-98493264D01*
%TO.C,C17*%
X132453142Y-111863142D02*
X132405523Y-111910761D01*
X132262666Y-111958380D01*
X132167428Y-111958380D01*
X132024571Y-111910761D01*
X131929333Y-111815523D01*
X131881714Y-111720285D01*
X131834095Y-111529809D01*
X131834095Y-111386952D01*
X131881714Y-111196476D01*
X131929333Y-111101238D01*
X132024571Y-111006000D01*
X132167428Y-110958380D01*
X132262666Y-110958380D01*
X132405523Y-111006000D01*
X132453142Y-111053619D01*
X133405523Y-111958380D02*
X132834095Y-111958380D01*
X133119809Y-111958380D02*
X133119809Y-110958380D01*
X133024571Y-111101238D01*
X132929333Y-111196476D01*
X132834095Y-111244095D01*
X133738857Y-110958380D02*
X134405523Y-110958380D01*
X133976952Y-111958380D01*
%TO.C,R17*%
X145640380Y-98051857D02*
X145164190Y-98385190D01*
X145640380Y-98623285D02*
X144640380Y-98623285D01*
X144640380Y-98242333D01*
X144688000Y-98147095D01*
X144735619Y-98099476D01*
X144830857Y-98051857D01*
X144973714Y-98051857D01*
X145068952Y-98099476D01*
X145116571Y-98147095D01*
X145164190Y-98242333D01*
X145164190Y-98623285D01*
X145640380Y-97099476D02*
X145640380Y-97670904D01*
X145640380Y-97385190D02*
X144640380Y-97385190D01*
X144783238Y-97480428D01*
X144878476Y-97575666D01*
X144926095Y-97670904D01*
X144640380Y-96766142D02*
X144640380Y-96099476D01*
X145640380Y-96528047D01*
%TO.C,J8*%
X173811666Y-129612380D02*
X173811666Y-130326666D01*
X173764047Y-130469523D01*
X173668809Y-130564761D01*
X173525952Y-130612380D01*
X173430714Y-130612380D01*
X174430714Y-130040952D02*
X174335476Y-129993333D01*
X174287857Y-129945714D01*
X174240238Y-129850476D01*
X174240238Y-129802857D01*
X174287857Y-129707619D01*
X174335476Y-129660000D01*
X174430714Y-129612380D01*
X174621190Y-129612380D01*
X174716428Y-129660000D01*
X174764047Y-129707619D01*
X174811666Y-129802857D01*
X174811666Y-129850476D01*
X174764047Y-129945714D01*
X174716428Y-129993333D01*
X174621190Y-130040952D01*
X174430714Y-130040952D01*
X174335476Y-130088571D01*
X174287857Y-130136190D01*
X174240238Y-130231428D01*
X174240238Y-130421904D01*
X174287857Y-130517142D01*
X174335476Y-130564761D01*
X174430714Y-130612380D01*
X174621190Y-130612380D01*
X174716428Y-130564761D01*
X174764047Y-130517142D01*
X174811666Y-130421904D01*
X174811666Y-130231428D01*
X174764047Y-130136190D01*
X174716428Y-130088571D01*
X174621190Y-130040952D01*
%TO.C,R5*%
X146137333Y-136493880D02*
X145804000Y-136017690D01*
X145565904Y-136493880D02*
X145565904Y-135493880D01*
X145946857Y-135493880D01*
X146042095Y-135541500D01*
X146089714Y-135589119D01*
X146137333Y-135684357D01*
X146137333Y-135827214D01*
X146089714Y-135922452D01*
X146042095Y-135970071D01*
X145946857Y-136017690D01*
X145565904Y-136017690D01*
X147042095Y-135493880D02*
X146565904Y-135493880D01*
X146518285Y-135970071D01*
X146565904Y-135922452D01*
X146661142Y-135874833D01*
X146899238Y-135874833D01*
X146994476Y-135922452D01*
X147042095Y-135970071D01*
X147089714Y-136065309D01*
X147089714Y-136303404D01*
X147042095Y-136398642D01*
X146994476Y-136446261D01*
X146899238Y-136493880D01*
X146661142Y-136493880D01*
X146565904Y-136446261D01*
X146518285Y-136398642D01*
%TO.C,Q3*%
X141128761Y-141923119D02*
X141033523Y-141875500D01*
X140938285Y-141780261D01*
X140795428Y-141637404D01*
X140700190Y-141589785D01*
X140604952Y-141589785D01*
X140652571Y-141827880D02*
X140557333Y-141780261D01*
X140462095Y-141685023D01*
X140414476Y-141494547D01*
X140414476Y-141161214D01*
X140462095Y-140970738D01*
X140557333Y-140875500D01*
X140652571Y-140827880D01*
X140843047Y-140827880D01*
X140938285Y-140875500D01*
X141033523Y-140970738D01*
X141081142Y-141161214D01*
X141081142Y-141494547D01*
X141033523Y-141685023D01*
X140938285Y-141780261D01*
X140843047Y-141827880D01*
X140652571Y-141827880D01*
X141414476Y-140827880D02*
X142033523Y-140827880D01*
X141700190Y-141208833D01*
X141843047Y-141208833D01*
X141938285Y-141256452D01*
X141985904Y-141304071D01*
X142033523Y-141399309D01*
X142033523Y-141637404D01*
X141985904Y-141732642D01*
X141938285Y-141780261D01*
X141843047Y-141827880D01*
X141557333Y-141827880D01*
X141462095Y-141780261D01*
X141414476Y-141732642D01*
%TO.C,C4*%
X141565333Y-120151142D02*
X141517714Y-120198761D01*
X141374857Y-120246380D01*
X141279619Y-120246380D01*
X141136761Y-120198761D01*
X141041523Y-120103523D01*
X140993904Y-120008285D01*
X140946285Y-119817809D01*
X140946285Y-119674952D01*
X140993904Y-119484476D01*
X141041523Y-119389238D01*
X141136761Y-119294000D01*
X141279619Y-119246380D01*
X141374857Y-119246380D01*
X141517714Y-119294000D01*
X141565333Y-119341619D01*
X142422476Y-119579714D02*
X142422476Y-120246380D01*
X142184380Y-119198761D02*
X141946285Y-119913047D01*
X142565333Y-119913047D01*
%TO.C,C23*%
X155825142Y-116305142D02*
X155777523Y-116352761D01*
X155634666Y-116400380D01*
X155539428Y-116400380D01*
X155396571Y-116352761D01*
X155301333Y-116257523D01*
X155253714Y-116162285D01*
X155206095Y-115971809D01*
X155206095Y-115828952D01*
X155253714Y-115638476D01*
X155301333Y-115543238D01*
X155396571Y-115448000D01*
X155539428Y-115400380D01*
X155634666Y-115400380D01*
X155777523Y-115448000D01*
X155825142Y-115495619D01*
X156206095Y-115495619D02*
X156253714Y-115448000D01*
X156348952Y-115400380D01*
X156587047Y-115400380D01*
X156682285Y-115448000D01*
X156729904Y-115495619D01*
X156777523Y-115590857D01*
X156777523Y-115686095D01*
X156729904Y-115828952D01*
X156158476Y-116400380D01*
X156777523Y-116400380D01*
X157110857Y-115400380D02*
X157729904Y-115400380D01*
X157396571Y-115781333D01*
X157539428Y-115781333D01*
X157634666Y-115828952D01*
X157682285Y-115876571D01*
X157729904Y-115971809D01*
X157729904Y-116209904D01*
X157682285Y-116305142D01*
X157634666Y-116352761D01*
X157539428Y-116400380D01*
X157253714Y-116400380D01*
X157158476Y-116352761D01*
X157110857Y-116305142D01*
%TO.C,R4*%
X142073333Y-136493880D02*
X141740000Y-136017690D01*
X141501904Y-136493880D02*
X141501904Y-135493880D01*
X141882857Y-135493880D01*
X141978095Y-135541500D01*
X142025714Y-135589119D01*
X142073333Y-135684357D01*
X142073333Y-135827214D01*
X142025714Y-135922452D01*
X141978095Y-135970071D01*
X141882857Y-136017690D01*
X141501904Y-136017690D01*
X142930476Y-135827214D02*
X142930476Y-136493880D01*
X142692380Y-135446261D02*
X142454285Y-136160547D01*
X143073333Y-136160547D01*
%TO.C,C11*%
X138549142Y-101703142D02*
X138501523Y-101750761D01*
X138358666Y-101798380D01*
X138263428Y-101798380D01*
X138120571Y-101750761D01*
X138025333Y-101655523D01*
X137977714Y-101560285D01*
X137930095Y-101369809D01*
X137930095Y-101226952D01*
X137977714Y-101036476D01*
X138025333Y-100941238D01*
X138120571Y-100846000D01*
X138263428Y-100798380D01*
X138358666Y-100798380D01*
X138501523Y-100846000D01*
X138549142Y-100893619D01*
X139501523Y-101798380D02*
X138930095Y-101798380D01*
X139215809Y-101798380D02*
X139215809Y-100798380D01*
X139120571Y-100941238D01*
X139025333Y-101036476D01*
X138930095Y-101084095D01*
X140453904Y-101798380D02*
X139882476Y-101798380D01*
X140168190Y-101798380D02*
X140168190Y-100798380D01*
X140072952Y-100941238D01*
X139977714Y-101036476D01*
X139882476Y-101084095D01*
%TO.C,C9*%
X135215333Y-110593142D02*
X135167714Y-110640761D01*
X135024857Y-110688380D01*
X134929619Y-110688380D01*
X134786761Y-110640761D01*
X134691523Y-110545523D01*
X134643904Y-110450285D01*
X134596285Y-110259809D01*
X134596285Y-110116952D01*
X134643904Y-109926476D01*
X134691523Y-109831238D01*
X134786761Y-109736000D01*
X134929619Y-109688380D01*
X135024857Y-109688380D01*
X135167714Y-109736000D01*
X135215333Y-109783619D01*
X135691523Y-110688380D02*
X135882000Y-110688380D01*
X135977238Y-110640761D01*
X136024857Y-110593142D01*
X136120095Y-110450285D01*
X136167714Y-110259809D01*
X136167714Y-109878857D01*
X136120095Y-109783619D01*
X136072476Y-109736000D01*
X135977238Y-109688380D01*
X135786761Y-109688380D01*
X135691523Y-109736000D01*
X135643904Y-109783619D01*
X135596285Y-109878857D01*
X135596285Y-110116952D01*
X135643904Y-110212190D01*
X135691523Y-110259809D01*
X135786761Y-110307428D01*
X135977238Y-110307428D01*
X136072476Y-110259809D01*
X136120095Y-110212190D01*
X136167714Y-110116952D01*
%TO.C,R6*%
X134938333Y-142946380D02*
X134605000Y-142470190D01*
X134366904Y-142946380D02*
X134366904Y-141946380D01*
X134747857Y-141946380D01*
X134843095Y-141994000D01*
X134890714Y-142041619D01*
X134938333Y-142136857D01*
X134938333Y-142279714D01*
X134890714Y-142374952D01*
X134843095Y-142422571D01*
X134747857Y-142470190D01*
X134366904Y-142470190D01*
X135795476Y-141946380D02*
X135605000Y-141946380D01*
X135509761Y-141994000D01*
X135462142Y-142041619D01*
X135366904Y-142184476D01*
X135319285Y-142374952D01*
X135319285Y-142755904D01*
X135366904Y-142851142D01*
X135414523Y-142898761D01*
X135509761Y-142946380D01*
X135700238Y-142946380D01*
X135795476Y-142898761D01*
X135843095Y-142851142D01*
X135890714Y-142755904D01*
X135890714Y-142517809D01*
X135843095Y-142422571D01*
X135795476Y-142374952D01*
X135700238Y-142327333D01*
X135509761Y-142327333D01*
X135414523Y-142374952D01*
X135366904Y-142422571D01*
X135319285Y-142517809D01*
%TO.C,D2*%
X166568380Y-74652095D02*
X165568380Y-74652095D01*
X165568380Y-74414000D01*
X165616000Y-74271142D01*
X165711238Y-74175904D01*
X165806476Y-74128285D01*
X165996952Y-74080666D01*
X166139809Y-74080666D01*
X166330285Y-74128285D01*
X166425523Y-74175904D01*
X166520761Y-74271142D01*
X166568380Y-74414000D01*
X166568380Y-74652095D01*
X165663619Y-73699714D02*
X165616000Y-73652095D01*
X165568380Y-73556857D01*
X165568380Y-73318761D01*
X165616000Y-73223523D01*
X165663619Y-73175904D01*
X165758857Y-73128285D01*
X165854095Y-73128285D01*
X165996952Y-73175904D01*
X166568380Y-73747333D01*
X166568380Y-73128285D01*
%TO.C,C21*%
X151757142Y-97131142D02*
X151709523Y-97178761D01*
X151566666Y-97226380D01*
X151471428Y-97226380D01*
X151328571Y-97178761D01*
X151233333Y-97083523D01*
X151185714Y-96988285D01*
X151138095Y-96797809D01*
X151138095Y-96654952D01*
X151185714Y-96464476D01*
X151233333Y-96369238D01*
X151328571Y-96274000D01*
X151471428Y-96226380D01*
X151566666Y-96226380D01*
X151709523Y-96274000D01*
X151757142Y-96321619D01*
X152138095Y-96321619D02*
X152185714Y-96274000D01*
X152280952Y-96226380D01*
X152519047Y-96226380D01*
X152614285Y-96274000D01*
X152661904Y-96321619D01*
X152709523Y-96416857D01*
X152709523Y-96512095D01*
X152661904Y-96654952D01*
X152090476Y-97226380D01*
X152709523Y-97226380D01*
X153661904Y-97226380D02*
X153090476Y-97226380D01*
X153376190Y-97226380D02*
X153376190Y-96226380D01*
X153280952Y-96369238D01*
X153185714Y-96464476D01*
X153090476Y-96512095D01*
%TO.C,C24*%
X159107142Y-114434857D02*
X159154761Y-114482476D01*
X159202380Y-114625333D01*
X159202380Y-114720571D01*
X159154761Y-114863428D01*
X159059523Y-114958666D01*
X158964285Y-115006285D01*
X158773809Y-115053904D01*
X158630952Y-115053904D01*
X158440476Y-115006285D01*
X158345238Y-114958666D01*
X158250000Y-114863428D01*
X158202380Y-114720571D01*
X158202380Y-114625333D01*
X158250000Y-114482476D01*
X158297619Y-114434857D01*
X158297619Y-114053904D02*
X158250000Y-114006285D01*
X158202380Y-113911047D01*
X158202380Y-113672952D01*
X158250000Y-113577714D01*
X158297619Y-113530095D01*
X158392857Y-113482476D01*
X158488095Y-113482476D01*
X158630952Y-113530095D01*
X159202380Y-114101523D01*
X159202380Y-113482476D01*
X158535714Y-112625333D02*
X159202380Y-112625333D01*
X158154761Y-112863428D02*
X158869047Y-113101523D01*
X158869047Y-112482476D01*
%TO.C,C18*%
X134485142Y-116435142D02*
X134437523Y-116482761D01*
X134294666Y-116530380D01*
X134199428Y-116530380D01*
X134056571Y-116482761D01*
X133961333Y-116387523D01*
X133913714Y-116292285D01*
X133866095Y-116101809D01*
X133866095Y-115958952D01*
X133913714Y-115768476D01*
X133961333Y-115673238D01*
X134056571Y-115578000D01*
X134199428Y-115530380D01*
X134294666Y-115530380D01*
X134437523Y-115578000D01*
X134485142Y-115625619D01*
X135437523Y-116530380D02*
X134866095Y-116530380D01*
X135151809Y-116530380D02*
X135151809Y-115530380D01*
X135056571Y-115673238D01*
X134961333Y-115768476D01*
X134866095Y-115816095D01*
X136008952Y-115958952D02*
X135913714Y-115911333D01*
X135866095Y-115863714D01*
X135818476Y-115768476D01*
X135818476Y-115720857D01*
X135866095Y-115625619D01*
X135913714Y-115578000D01*
X136008952Y-115530380D01*
X136199428Y-115530380D01*
X136294666Y-115578000D01*
X136342285Y-115625619D01*
X136389904Y-115720857D01*
X136389904Y-115768476D01*
X136342285Y-115863714D01*
X136294666Y-115911333D01*
X136199428Y-115958952D01*
X136008952Y-115958952D01*
X135913714Y-116006571D01*
X135866095Y-116054190D01*
X135818476Y-116149428D01*
X135818476Y-116339904D01*
X135866095Y-116435142D01*
X135913714Y-116482761D01*
X136008952Y-116530380D01*
X136199428Y-116530380D01*
X136294666Y-116482761D01*
X136342285Y-116435142D01*
X136389904Y-116339904D01*
X136389904Y-116149428D01*
X136342285Y-116054190D01*
X136294666Y-116006571D01*
X136199428Y-115958952D01*
%TO.C,U5*%
X152627305Y-120610380D02*
X152627305Y-121419904D01*
X152674924Y-121515142D01*
X152722543Y-121562761D01*
X152817781Y-121610380D01*
X153008257Y-121610380D01*
X153103495Y-121562761D01*
X153151114Y-121515142D01*
X153198733Y-121419904D01*
X153198733Y-120610380D01*
X154151114Y-120610380D02*
X153674924Y-120610380D01*
X153627305Y-121086571D01*
X153674924Y-121038952D01*
X153770162Y-120991333D01*
X154008257Y-120991333D01*
X154103495Y-121038952D01*
X154151114Y-121086571D01*
X154198733Y-121181809D01*
X154198733Y-121419904D01*
X154151114Y-121515142D01*
X154103495Y-121562761D01*
X154008257Y-121610380D01*
X153770162Y-121610380D01*
X153674924Y-121562761D01*
X153627305Y-121515142D01*
D14*
%TO.C,R18*%
X156084000Y-105510359D02*
X156084000Y-105817641D01*
X156844000Y-105510359D02*
X156844000Y-105817641D01*
%TO.C,C22*%
X170184000Y-128885836D02*
X170184000Y-128670164D01*
X170904000Y-128885836D02*
X170904000Y-128670164D01*
D11*
%TO.C,SW1*%
X148345000Y-94055000D02*
X148345000Y-94055000D01*
D15*
X148895000Y-92555000D02*
X147895000Y-92555000D01*
X139395000Y-89055000D02*
X139395000Y-89055000D01*
X148895000Y-89055000D02*
X148895000Y-89055000D01*
X139395000Y-89055000D02*
X139395000Y-92555000D01*
X139395000Y-92555000D02*
X139395000Y-92555000D01*
X139395000Y-92555000D02*
X139395000Y-92555000D01*
X139395000Y-92555000D02*
X139395000Y-89055000D01*
X139395000Y-92555000D02*
X140395000Y-92555000D01*
X139395000Y-89055000D02*
X148895000Y-89055000D01*
X140395000Y-92555000D02*
X140395000Y-92555000D01*
X148895000Y-92555000D02*
X148895000Y-92555000D01*
D11*
X148245000Y-94055000D02*
X148245000Y-94055000D01*
D15*
X147895000Y-92555000D02*
X147895000Y-92555000D01*
X148895000Y-89055000D02*
X139395000Y-89055000D01*
X148895000Y-89055000D02*
X148895000Y-89055000D01*
X140395000Y-92555000D02*
X139395000Y-92555000D01*
X147895000Y-92555000D02*
X148895000Y-92555000D01*
X148895000Y-89055000D02*
X148895000Y-92555000D01*
D11*
X148345000Y-94055000D02*
X148345000Y-94055000D01*
D15*
X139395000Y-89055000D02*
X139395000Y-89055000D01*
X148895000Y-92555000D02*
X148895000Y-89055000D01*
X148895000Y-92555000D02*
X148895000Y-92555000D01*
D11*
X148345000Y-94055000D02*
G75*
G03*
X148245000Y-94055000I-50000J0D01*
G01*
X148345000Y-94055000D02*
G75*
G03*
X148245000Y-94055000I-50000J0D01*
G01*
X148245000Y-94055000D02*
G75*
G03*
X148345000Y-94055000I50000J0D01*
G01*
D14*
%TO.C,Y1*%
X133496000Y-108338000D02*
X136196000Y-108338000D01*
X133496000Y-106038000D02*
X133496000Y-108338000D01*
%TO.C,C16*%
X135791836Y-112412000D02*
X135576164Y-112412000D01*
X135791836Y-113132000D02*
X135576164Y-113132000D01*
%TO.C,R12*%
X147450641Y-140844000D02*
X147143359Y-140844000D01*
X147450641Y-141604000D02*
X147143359Y-141604000D01*
%TO.C,J2*%
X141904000Y-150573500D02*
X142304000Y-150573500D01*
X141904000Y-149933500D02*
X141904000Y-150573500D01*
X142144000Y-150333500D02*
X163164000Y-150333500D01*
X142144000Y-149813500D02*
X163164000Y-149813500D01*
X142144000Y-143593500D02*
X142144000Y-150333500D01*
X142144000Y-144713500D02*
X163164000Y-144713500D01*
X142144000Y-143593500D02*
X163164000Y-143593500D01*
X163164000Y-143593500D02*
X163164000Y-150333500D01*
%TO.C,C13*%
X138282000Y-104247836D02*
X138282000Y-104032164D01*
X137562000Y-104247836D02*
X137562000Y-104032164D01*
%TO.C,J1*%
X130870000Y-113020000D02*
X130870000Y-114350000D01*
X130870000Y-104070000D02*
X128210000Y-104070000D01*
X130870000Y-111750000D02*
X128210000Y-111750000D01*
X130870000Y-111750000D02*
X130870000Y-104070000D01*
X130870000Y-114350000D02*
X129540000Y-114350000D01*
X128210000Y-111750000D02*
X128210000Y-104070000D01*
%TO.C,C7*%
X147576000Y-84187420D02*
X147576000Y-84468580D01*
X146556000Y-84187420D02*
X146556000Y-84468580D01*
%TO.C,J3*%
X177098000Y-82804000D02*
X177098000Y-75124000D01*
X177098000Y-84074000D02*
X177098000Y-85404000D01*
X177098000Y-75124000D02*
X174438000Y-75124000D01*
X174438000Y-82804000D02*
X174438000Y-75124000D01*
X177098000Y-85404000D02*
X175768000Y-85404000D01*
X177098000Y-82804000D02*
X174438000Y-82804000D01*
%TO.C,U6*%
X175246000Y-105280000D02*
X175246000Y-120890000D01*
X175246000Y-120890000D02*
X159526000Y-120890000D01*
X159526000Y-105170000D02*
X159526000Y-120890000D01*
X170186000Y-105170000D02*
X159526000Y-105170000D01*
%TO.C,U4*%
X149262000Y-97704000D02*
X149437000Y-97704000D01*
X151982000Y-97704000D02*
X151807000Y-97704000D01*
X149262000Y-98379000D02*
X149262000Y-97704000D01*
X151982000Y-100924000D02*
X151807000Y-100924000D01*
X151982000Y-100249000D02*
X151982000Y-100924000D01*
X151982000Y-98379000D02*
X151982000Y-97704000D01*
X149262000Y-100249000D02*
X149262000Y-100924000D01*
%TO.C,R11*%
X142487742Y-134888500D02*
X142962258Y-134888500D01*
X142487742Y-133843500D02*
X142962258Y-133843500D01*
%TO.C,C15*%
X150221836Y-117708000D02*
X150006164Y-117708000D01*
X150221836Y-116988000D02*
X150006164Y-116988000D01*
%TO.C,C1*%
X141734000Y-64121420D02*
X141734000Y-64402580D01*
X140714000Y-64121420D02*
X140714000Y-64402580D01*
%TO.C,R16*%
X162688000Y-75083641D02*
X162688000Y-74776359D01*
X163448000Y-75083641D02*
X163448000Y-74776359D01*
%TO.C,L1*%
X150784000Y-81330000D02*
X148034000Y-81330000D01*
X151434000Y-69180000D02*
X151434000Y-80680000D01*
X142034000Y-81330000D02*
X139284000Y-81330000D01*
X142034000Y-68530000D02*
X139284000Y-68530000D01*
X138634000Y-80680000D02*
X138634000Y-69180000D01*
X150784000Y-68530000D02*
X148034000Y-68530000D01*
X139284000Y-68530000D02*
G75*
G03*
X138634000Y-69180000I1J-650001D01*
G01*
X150784000Y-81330000D02*
G75*
G03*
X151434000Y-80680000I0J650000D01*
G01*
X138634000Y-80680000D02*
G75*
G03*
X139284000Y-81330000I650000J0D01*
G01*
X151434000Y-69180000D02*
G75*
G03*
X150784000Y-68530000I-650001J-1D01*
G01*
%TO.C,C26*%
X176170000Y-115688164D02*
X176170000Y-115903836D01*
X176890000Y-115688164D02*
X176890000Y-115903836D01*
%TO.C,R1*%
X159157641Y-81408000D02*
X158850359Y-81408000D01*
X159157641Y-82168000D02*
X158850359Y-82168000D01*
%TO.C,Q4*%
X142181000Y-138684000D02*
X142181000Y-139334000D01*
X145301000Y-138684000D02*
X145301000Y-139334000D01*
X145301000Y-138684000D02*
X145301000Y-137009000D01*
X142181000Y-138684000D02*
X142181000Y-138034000D01*
%TO.C,C3*%
X144545164Y-67208000D02*
X144760836Y-67208000D01*
X144545164Y-67928000D02*
X144760836Y-67928000D01*
%TO.C,D1*%
X158585000Y-72380000D02*
X158585000Y-76230000D01*
X160585000Y-72380000D02*
X158585000Y-72380000D01*
X160585000Y-72380000D02*
X160585000Y-76230000D01*
%TO.C,IC1*%
X145578000Y-64770000D02*
X145578000Y-65570000D01*
X145578000Y-64770000D02*
X145578000Y-62970000D01*
X142458000Y-64770000D02*
X142458000Y-65570000D01*
X142458000Y-64770000D02*
X142458000Y-63970000D01*
%TO.C,C2*%
X162165420Y-73662000D02*
X162446580Y-73662000D01*
X162165420Y-72642000D02*
X162446580Y-72642000D01*
%TO.C,R13*%
X146551742Y-134888500D02*
X147026258Y-134888500D01*
X146551742Y-133843500D02*
X147026258Y-133843500D01*
%TO.C,U1*%
X158475000Y-69145000D02*
X158745000Y-69145000D01*
X165105000Y-69145000D02*
X165105000Y-70245000D01*
X158745000Y-69145000D02*
X158745000Y-71975000D01*
X165375000Y-69145000D02*
X165105000Y-69145000D01*
X158475000Y-67645000D02*
X158475000Y-69145000D01*
X165375000Y-67645000D02*
X165375000Y-69145000D01*
%TO.C,Q2*%
X137173000Y-138684000D02*
X137173000Y-137009000D01*
X137173000Y-138684000D02*
X137173000Y-139334000D01*
X134053000Y-138684000D02*
X134053000Y-138034000D01*
X134053000Y-138684000D02*
X134053000Y-139334000D01*
D15*
%TO.C,IC2*%
X157260000Y-112117000D02*
X157260000Y-112117000D01*
X157360000Y-112117000D02*
X157360000Y-112117000D01*
X157360000Y-112117000D02*
G75*
G03*
X157260000Y-112117000I-50000J0D01*
G01*
X157260000Y-112117000D02*
G75*
G03*
X157360000Y-112117000I50000J0D01*
G01*
D14*
%TO.C,U3*%
X164048000Y-99060000D02*
X164048000Y-98260000D01*
X167168000Y-99060000D02*
X167168000Y-97260000D01*
X167168000Y-99060000D02*
X167168000Y-99860000D01*
X164048000Y-99060000D02*
X164048000Y-99860000D01*
%TO.C,R7*%
X134105742Y-133843500D02*
X134580258Y-133843500D01*
X134105742Y-134888500D02*
X134580258Y-134888500D01*
%TO.C,C5*%
X145307164Y-62336000D02*
X145522836Y-62336000D01*
X145307164Y-61616000D02*
X145522836Y-61616000D01*
%TO.C,C8*%
X141858420Y-100074000D02*
X142139580Y-100074000D01*
X141858420Y-101094000D02*
X142139580Y-101094000D01*
%TO.C,C14*%
X142347836Y-117454000D02*
X142132164Y-117454000D01*
X142347836Y-116734000D02*
X142132164Y-116734000D01*
%TO.C,C6*%
X144778000Y-84187420D02*
X144778000Y-84468580D01*
X145798000Y-84187420D02*
X145798000Y-84468580D01*
%TO.C,R15*%
X142267000Y-84658564D02*
X142267000Y-84204436D01*
X143737000Y-84658564D02*
X143737000Y-84204436D01*
%TO.C,Q1*%
X158496000Y-77180000D02*
X159146000Y-77180000D01*
X158496000Y-80300000D02*
X160171000Y-80300000D01*
X158496000Y-77180000D02*
X157846000Y-77180000D01*
X158496000Y-80300000D02*
X157846000Y-80300000D01*
%TO.C,J5*%
X128475000Y-73324000D02*
X127835000Y-73324000D01*
X133695000Y-73564000D02*
X133695000Y-79344000D01*
X128075000Y-73564000D02*
X128075000Y-79344000D01*
X128595000Y-73564000D02*
X128595000Y-79344000D01*
X127835000Y-73324000D02*
X127835000Y-73724000D01*
X134815000Y-79344000D02*
X128075000Y-79344000D01*
X134815000Y-73564000D02*
X134815000Y-79344000D01*
X134815000Y-73564000D02*
X128075000Y-73564000D01*
%TO.C,R8*%
X139322641Y-140844000D02*
X139015359Y-140844000D01*
X139322641Y-141604000D02*
X139015359Y-141604000D01*
%TO.C,R14*%
X140816359Y-85978000D02*
X141123641Y-85978000D01*
X140816359Y-85218000D02*
X141123641Y-85218000D01*
%TO.C,U2*%
X150906000Y-103856000D02*
X150906000Y-104806000D01*
X141636000Y-103856000D02*
X140686000Y-103856000D01*
X141636000Y-114076000D02*
X140686000Y-114076000D01*
X140686000Y-114076000D02*
X140686000Y-113126000D01*
X149956000Y-103856000D02*
X150906000Y-103856000D01*
X150906000Y-114076000D02*
X150906000Y-113126000D01*
X149956000Y-114076000D02*
X150906000Y-114076000D01*
X140686000Y-104806000D02*
X139346000Y-104806000D01*
X140686000Y-103856000D02*
X140686000Y-104806000D01*
%TO.C,J4*%
X134815000Y-80760000D02*
X128075000Y-80760000D01*
X134815000Y-86540000D02*
X128075000Y-86540000D01*
X128075000Y-80760000D02*
X128075000Y-86540000D01*
X127835000Y-80520000D02*
X127835000Y-80920000D01*
X128595000Y-80760000D02*
X128595000Y-86540000D01*
X133695000Y-80760000D02*
X133695000Y-86540000D01*
X134815000Y-80760000D02*
X134815000Y-86540000D01*
X128475000Y-80520000D02*
X127835000Y-80520000D01*
%TO.C,R10*%
X143386641Y-141604000D02*
X143079359Y-141604000D01*
X143386641Y-140844000D02*
X143079359Y-140844000D01*
D15*
%TO.C,J7*%
X177260000Y-97760000D02*
X177710000Y-97760000D01*
D11*
X170985000Y-95310000D02*
X170985000Y-95310000D01*
D15*
X177710000Y-97760000D02*
X177710000Y-90260000D01*
D11*
X171085000Y-95310000D02*
X171085000Y-95310000D01*
D15*
X177710000Y-90260000D02*
X177260000Y-90260000D01*
D11*
X170985000Y-95310000D02*
X170985000Y-95310000D01*
X170985000Y-95310000D02*
G75*
G03*
X171085000Y-95310000I50000J0D01*
G01*
X170985000Y-95310000D02*
G75*
G03*
X171085000Y-95310000I50000J0D01*
G01*
X171085000Y-95310000D02*
G75*
G03*
X170985000Y-95310000I-50000J0D01*
G01*
D14*
%TO.C,C12*%
X136518000Y-106533836D02*
X136518000Y-106318164D01*
X137238000Y-106533836D02*
X137238000Y-106318164D01*
%TO.C,R9*%
X138169742Y-133843500D02*
X138644258Y-133843500D01*
X138169742Y-134888500D02*
X138644258Y-134888500D01*
%TO.C,R2*%
X136274641Y-136270000D02*
X135967359Y-136270000D01*
X136274641Y-135510000D02*
X135967359Y-135510000D01*
%TO.C,C10*%
X154538000Y-105302164D02*
X154538000Y-105517836D01*
X153818000Y-105302164D02*
X153818000Y-105517836D01*
%TO.C,Q5*%
X146245000Y-138684000D02*
X146245000Y-138034000D01*
X146245000Y-138684000D02*
X146245000Y-139334000D01*
X149365000Y-138684000D02*
X149365000Y-139334000D01*
X149365000Y-138684000D02*
X149365000Y-137009000D01*
%TO.C,C25*%
X170072164Y-104500000D02*
X170287836Y-104500000D01*
X170072164Y-103780000D02*
X170287836Y-103780000D01*
%TO.C,R3*%
X140338641Y-136270000D02*
X140031359Y-136270000D01*
X140338641Y-135510000D02*
X140031359Y-135510000D01*
%TO.C,C20*%
X154030000Y-99421836D02*
X154030000Y-99206164D01*
X153310000Y-99421836D02*
X153310000Y-99206164D01*
%TO.C,C17*%
X135791836Y-111142000D02*
X135576164Y-111142000D01*
X135791836Y-111862000D02*
X135576164Y-111862000D01*
%TO.C,R17*%
X144398000Y-97255359D02*
X144398000Y-97562641D01*
X143638000Y-97255359D02*
X143638000Y-97562641D01*
%TO.C,J8*%
X170645000Y-137160000D02*
X170145000Y-137410000D01*
X170145000Y-136910000D02*
X170645000Y-137160000D01*
X170145000Y-137410000D02*
X170145000Y-136910000D01*
%TO.C,R5*%
X148466641Y-135494000D02*
X148159359Y-135494000D01*
X148466641Y-136254000D02*
X148159359Y-136254000D01*
%TO.C,Q3*%
X138117000Y-138684000D02*
X138117000Y-139334000D01*
X141237000Y-138684000D02*
X141237000Y-137009000D01*
X141237000Y-138684000D02*
X141237000Y-139334000D01*
X138117000Y-138684000D02*
X138117000Y-138034000D01*
%TO.C,C4*%
X141872580Y-117854000D02*
X141591420Y-117854000D01*
X141872580Y-118874000D02*
X141591420Y-118874000D01*
%TO.C,C23*%
X156575836Y-114428000D02*
X156360164Y-114428000D01*
X156575836Y-115148000D02*
X156360164Y-115148000D01*
%TO.C,R4*%
X144402641Y-136254000D02*
X144095359Y-136254000D01*
X144402641Y-135494000D02*
X144095359Y-135494000D01*
%TO.C,C11*%
X139807836Y-102256000D02*
X139592164Y-102256000D01*
X139807836Y-102976000D02*
X139592164Y-102976000D01*
%TO.C,C9*%
X137270000Y-109112164D02*
X137270000Y-109327836D01*
X136550000Y-109112164D02*
X136550000Y-109327836D01*
%TO.C,R6*%
X135258641Y-141604000D02*
X134951359Y-141604000D01*
X135258641Y-140844000D02*
X134951359Y-140844000D01*
%TO.C,D2*%
X163857000Y-75399000D02*
X165327000Y-75399000D01*
X163857000Y-73114000D02*
X163857000Y-75399000D01*
X165327000Y-75399000D02*
X165327000Y-73114000D01*
%TO.C,C21*%
X149967836Y-97138000D02*
X149752164Y-97138000D01*
X149967836Y-96418000D02*
X149752164Y-96418000D01*
%TO.C,C24*%
X158390000Y-111339836D02*
X158390000Y-111124164D01*
X159110000Y-111339836D02*
X159110000Y-111124164D01*
%TO.C,C18*%
X135488000Y-114220164D02*
X135488000Y-114435836D01*
X134768000Y-114220164D02*
X134768000Y-114435836D01*
D16*
%TO.C,U5*%
X152020000Y-122175000D02*
X168020000Y-122175000D01*
X152020000Y-138175000D02*
X168020000Y-138175000D01*
D11*
X149970000Y-123125000D02*
G75*
G03*
X149970000Y-123125000I-100000J0D01*
G01*
%TD*%
M02*
