%TF.GenerationSoftware,KiCad,Pcbnew,6.0.11-2627ca5db0~126~ubuntu22.04.1*%
%TF.CreationDate,2023-03-24T18:23:20-04:00*%
%TF.ProjectId,Io,496f2e6b-6963-4616-945f-706362585858,rev?*%
%TF.SameCoordinates,Original*%
%TF.FileFunction,Soldermask,Top*%
%TF.FilePolarity,Negative*%
%FSLAX46Y46*%
G04 Gerber Fmt 4.6, Leading zero omitted, Abs format (unit mm)*
G04 Created by KiCad (PCBNEW 6.0.11-2627ca5db0~126~ubuntu22.04.1) date 2023-03-24 18:23:20*
%MOMM*%
%LPD*%
G01*
G04 APERTURE LIST*
G04 Aperture macros list*
%AMRoundRect*
0 Rectangle with rounded corners*
0 $1 Rounding radius*
0 $2 $3 $4 $5 $6 $7 $8 $9 X,Y pos of 4 corners*
0 Add a 4 corners polygon primitive as box body*
4,1,4,$2,$3,$4,$5,$6,$7,$8,$9,$2,$3,0*
0 Add four circle primitives for the rounded corners*
1,1,$1+$1,$2,$3*
1,1,$1+$1,$4,$5*
1,1,$1+$1,$6,$7*
1,1,$1+$1,$8,$9*
0 Add four rect primitives between the rounded corners*
20,1,$1+$1,$2,$3,$4,$5,0*
20,1,$1+$1,$4,$5,$6,$7,0*
20,1,$1+$1,$6,$7,$8,$9,0*
20,1,$1+$1,$8,$9,$2,$3,0*%
G04 Aperture macros list end*
%ADD10RoundRect,0.135000X-0.185000X0.135000X-0.185000X-0.135000X0.185000X-0.135000X0.185000X0.135000X0*%
%ADD11C,6.400000*%
%ADD12RoundRect,0.140000X0.170000X-0.140000X0.170000X0.140000X-0.170000X0.140000X-0.170000X-0.140000X0*%
%ADD13C,0.900000*%
%ADD14R,1.200000X2.500000*%
%ADD15R,0.900000X0.800000*%
%ADD16RoundRect,0.140000X0.140000X0.170000X-0.140000X0.170000X-0.140000X-0.170000X0.140000X-0.170000X0*%
%ADD17RoundRect,0.135000X0.135000X0.185000X-0.135000X0.185000X-0.135000X-0.185000X0.135000X-0.185000X0*%
%ADD18C,2.100000*%
%ADD19R,2.100000X2.100000*%
%ADD20R,1.700000X1.700000*%
%ADD21O,1.700000X1.700000*%
%ADD22RoundRect,0.225000X-0.250000X0.225000X-0.250000X-0.225000X0.250000X-0.225000X0.250000X0.225000X0*%
%ADD23RoundRect,0.000001X-0.750000X0.900000X-0.750000X-0.900000X0.750000X-0.900000X0.750000X0.900000X0*%
%ADD24RoundRect,0.000001X-0.900000X0.750000X-0.900000X-0.750000X0.900000X-0.750000X0.900000X0.750000X0*%
%ADD25RoundRect,0.087500X0.087500X-0.225000X0.087500X0.225000X-0.087500X0.225000X-0.087500X-0.225000X0*%
%ADD26RoundRect,0.087500X0.225000X-0.087500X0.225000X0.087500X-0.225000X0.087500X-0.225000X-0.087500X0*%
%ADD27RoundRect,0.200000X-0.200000X-0.275000X0.200000X-0.275000X0.200000X0.275000X-0.200000X0.275000X0*%
%ADD28RoundRect,0.135000X0.185000X-0.135000X0.185000X0.135000X-0.185000X0.135000X-0.185000X-0.135000X0*%
%ADD29R,5.400000X2.900000*%
%ADD30RoundRect,0.140000X-0.170000X0.140000X-0.170000X-0.140000X0.170000X-0.140000X0.170000X0.140000X0*%
%ADD31RoundRect,0.150000X-0.150000X0.587500X-0.150000X-0.587500X0.150000X-0.587500X0.150000X0.587500X0*%
%ADD32RoundRect,0.140000X-0.140000X-0.170000X0.140000X-0.170000X0.140000X0.170000X-0.140000X0.170000X0*%
%ADD33R,1.100000X1.100000*%
%ADD34RoundRect,0.150000X-0.150000X0.512500X-0.150000X-0.512500X0.150000X-0.512500X0.150000X0.512500X0*%
%ADD35RoundRect,0.225000X-0.225000X-0.250000X0.225000X-0.250000X0.225000X0.250000X-0.225000X0.250000X0*%
%ADD36R,1.200000X2.200000*%
%ADD37R,5.800000X6.400000*%
%ADD38R,0.275000X0.250000*%
%ADD39R,0.250000X0.275000*%
%ADD40RoundRect,0.100000X-0.100000X0.130000X-0.100000X-0.130000X0.100000X-0.130000X0.100000X0.130000X0*%
%ADD41RoundRect,0.250000X0.450000X-0.262500X0.450000X0.262500X-0.450000X0.262500X-0.450000X-0.262500X0*%
%ADD42RoundRect,0.150000X0.587500X0.150000X-0.587500X0.150000X-0.587500X-0.150000X0.587500X-0.150000X0*%
%ADD43RoundRect,0.135000X-0.135000X-0.185000X0.135000X-0.185000X0.135000X0.185000X-0.135000X0.185000X0*%
%ADD44RoundRect,0.075000X-0.700000X-0.075000X0.700000X-0.075000X0.700000X0.075000X-0.700000X0.075000X0*%
%ADD45RoundRect,0.075000X-0.075000X-0.700000X0.075000X-0.700000X0.075000X0.700000X-0.075000X0.700000X0*%
%ADD46C,0.800000*%
%ADD47R,1.350000X0.400000*%
%ADD48C,2.586000*%
%ADD49C,1.969000*%
%ADD50R,5.080000X2.290000*%
%ADD51R,5.080000X2.420000*%
%ADD52RoundRect,0.225000X0.225000X0.250000X-0.225000X0.250000X-0.225000X-0.250000X0.225000X-0.250000X0*%
%ADD53RoundRect,0.218750X0.256250X-0.218750X0.256250X0.218750X-0.256250X0.218750X-0.256250X-0.218750X0*%
%ADD54R,3.000000X1.400000*%
%ADD55C,0.950000*%
G04 APERTURE END LIST*
D10*
%TO.C,R18*%
X156464000Y-106174000D03*
X156464000Y-105154000D03*
%TD*%
D11*
%TO.C,H3*%
X172212000Y-146812000D03*
%TD*%
%TO.C,H4*%
X132842000Y-146558000D03*
%TD*%
%TO.C,H1*%
X133350000Y-64770000D03*
%TD*%
%TO.C,H2*%
X171450000Y-64770000D03*
%TD*%
D12*
%TO.C,C22*%
X170544000Y-129258000D03*
X170544000Y-128298000D03*
%TD*%
D13*
%TO.C,SW1*%
X147545000Y-90805000D03*
X140745000Y-90805000D03*
D14*
X146645000Y-93555000D03*
X144145000Y-93555000D03*
X141645000Y-93555000D03*
%TD*%
D15*
%TO.C,Y1*%
X134146000Y-107738000D03*
X135546000Y-107738000D03*
X135546000Y-106638000D03*
X134146000Y-106638000D03*
%TD*%
D16*
%TO.C,C16*%
X136164000Y-112772000D03*
X135204000Y-112772000D03*
%TD*%
D17*
%TO.C,R12*%
X147807000Y-141224000D03*
X146787000Y-141224000D03*
%TD*%
D18*
%TO.C,J2*%
X161544000Y-146963500D03*
X159004000Y-146963500D03*
X156464000Y-146963500D03*
X153924000Y-146963500D03*
X151384000Y-146963500D03*
X148844000Y-146963500D03*
X146304000Y-146963500D03*
D19*
X143764000Y-146963500D03*
%TD*%
D12*
%TO.C,C13*%
X137922000Y-104620000D03*
X137922000Y-103660000D03*
%TD*%
D20*
%TO.C,J1*%
X129540000Y-113020000D03*
D21*
X129540000Y-110480000D03*
X129540000Y-107940000D03*
X129540000Y-105400000D03*
%TD*%
D22*
%TO.C,C7*%
X147066000Y-83553000D03*
X147066000Y-85103000D03*
%TD*%
D20*
%TO.C,J3*%
X175768000Y-84074000D03*
D21*
X175768000Y-81534000D03*
X175768000Y-78994000D03*
X175768000Y-76454000D03*
%TD*%
D23*
%TO.C,U6*%
X171186000Y-106430000D03*
X169286000Y-106430000D03*
X167386000Y-106430000D03*
X165486000Y-106430000D03*
X163586000Y-106430000D03*
D24*
X160786000Y-109230000D03*
X160786000Y-111130000D03*
X160786000Y-113030000D03*
X160786000Y-114930000D03*
X160786000Y-116830000D03*
D23*
X163586000Y-119630000D03*
X165486000Y-119630000D03*
X167386000Y-119630000D03*
X169286000Y-119630000D03*
X171186000Y-119630000D03*
D24*
X173986000Y-116830000D03*
X173986000Y-114930000D03*
X173986000Y-113030000D03*
X173986000Y-111130000D03*
X173986000Y-109230000D03*
%TD*%
D25*
%TO.C,U4*%
X149872000Y-100476500D03*
X150372000Y-100476500D03*
X150872000Y-100476500D03*
X151372000Y-100476500D03*
D26*
X151534500Y-99814000D03*
X151534500Y-99314000D03*
X151534500Y-98814000D03*
D25*
X151372000Y-98151500D03*
X150872000Y-98151500D03*
X150372000Y-98151500D03*
X149872000Y-98151500D03*
D26*
X149709500Y-98814000D03*
X149709500Y-99314000D03*
X149709500Y-99814000D03*
%TD*%
D27*
%TO.C,R11*%
X143550000Y-134366000D03*
X141900000Y-134366000D03*
%TD*%
D16*
%TO.C,C15*%
X150594000Y-117348000D03*
X149634000Y-117348000D03*
%TD*%
D22*
%TO.C,C1*%
X141224000Y-63487000D03*
X141224000Y-65037000D03*
%TD*%
D28*
%TO.C,R16*%
X163068000Y-75440000D03*
X163068000Y-74420000D03*
%TD*%
D29*
%TO.C,L1*%
X145034000Y-70080000D03*
X145034000Y-79780000D03*
%TD*%
D30*
%TO.C,C26*%
X176530000Y-115316000D03*
X176530000Y-116276000D03*
%TD*%
D17*
%TO.C,R1*%
X159514000Y-81788000D03*
X158494000Y-81788000D03*
%TD*%
D31*
%TO.C,Q4*%
X143741000Y-139621500D03*
X142791000Y-137746500D03*
X144691000Y-137746500D03*
%TD*%
D32*
%TO.C,C3*%
X144173000Y-67568000D03*
X145133000Y-67568000D03*
%TD*%
D33*
%TO.C,D1*%
X159585000Y-73180000D03*
X159585000Y-75980000D03*
%TD*%
D34*
%TO.C,IC1*%
X144968000Y-63632500D03*
X144018000Y-63632500D03*
X143068000Y-63632500D03*
X143068000Y-65907500D03*
X144018000Y-65907500D03*
X144968000Y-65907500D03*
%TD*%
D35*
%TO.C,C2*%
X161531000Y-73152000D03*
X163081000Y-73152000D03*
%TD*%
D27*
%TO.C,R13*%
X147614000Y-134366000D03*
X145964000Y-134366000D03*
%TD*%
D36*
%TO.C,U1*%
X159645000Y-70875000D03*
X161925000Y-70875000D03*
D37*
X161925000Y-64575000D03*
D36*
X164205000Y-70875000D03*
%TD*%
D31*
%TO.C,Q2*%
X135613000Y-139621500D03*
X134663000Y-137746500D03*
X136563000Y-137746500D03*
%TD*%
D38*
%TO.C,IC2*%
X156723000Y-112117000D03*
X156723000Y-111617000D03*
D39*
X156460000Y-111105000D03*
X155960000Y-111105000D03*
X155460000Y-111105000D03*
D38*
X155197000Y-111617000D03*
X155197000Y-112117000D03*
D39*
X155460000Y-112629000D03*
X155960000Y-112629000D03*
X156460000Y-112629000D03*
%TD*%
D34*
%TO.C,U3*%
X166558000Y-100197500D03*
X165608000Y-100197500D03*
X164658000Y-100197500D03*
X164658000Y-97922500D03*
X165608000Y-97922500D03*
X166558000Y-97922500D03*
%TD*%
D27*
%TO.C,R7*%
X135168000Y-134366000D03*
X133518000Y-134366000D03*
%TD*%
D32*
%TO.C,C5*%
X144935000Y-61976000D03*
X145895000Y-61976000D03*
%TD*%
D40*
%TO.C,FB1*%
X137104000Y-112706000D03*
X137104000Y-113346000D03*
%TD*%
D35*
%TO.C,C8*%
X141224000Y-100584000D03*
X142774000Y-100584000D03*
%TD*%
D16*
%TO.C,C14*%
X142720000Y-117094000D03*
X141760000Y-117094000D03*
%TD*%
D22*
%TO.C,C6*%
X145288000Y-83553000D03*
X145288000Y-85103000D03*
%TD*%
D41*
%TO.C,R15*%
X143002000Y-85344000D03*
X143002000Y-83519000D03*
%TD*%
D42*
%TO.C,Q1*%
X159433500Y-79690000D03*
X159433500Y-77790000D03*
X157558500Y-78740000D03*
%TD*%
D19*
%TO.C,J5*%
X131445000Y-75184000D03*
D18*
X131445000Y-77724000D03*
%TD*%
D17*
%TO.C,R8*%
X138659000Y-141224000D03*
X139679000Y-141224000D03*
%TD*%
D43*
%TO.C,R14*%
X140460000Y-85598000D03*
X141480000Y-85598000D03*
%TD*%
D44*
%TO.C,U2*%
X140121000Y-105216000D03*
X140121000Y-105716000D03*
X140121000Y-106216000D03*
X140121000Y-106716000D03*
X140121000Y-107216000D03*
X140121000Y-107716000D03*
X140121000Y-108216000D03*
X140121000Y-108716000D03*
X140121000Y-109216000D03*
X140121000Y-109716000D03*
X140121000Y-110216000D03*
X140121000Y-110716000D03*
X140121000Y-111216000D03*
X140121000Y-111716000D03*
X140121000Y-112216000D03*
X140121000Y-112716000D03*
D45*
X142046000Y-114641000D03*
X142546000Y-114641000D03*
X143046000Y-114641000D03*
X143546000Y-114641000D03*
X144046000Y-114641000D03*
X144546000Y-114641000D03*
X145046000Y-114641000D03*
X145546000Y-114641000D03*
X146046000Y-114641000D03*
X146546000Y-114641000D03*
X147046000Y-114641000D03*
X147546000Y-114641000D03*
X148046000Y-114641000D03*
X148546000Y-114641000D03*
X149046000Y-114641000D03*
X149546000Y-114641000D03*
D44*
X151471000Y-112716000D03*
X151471000Y-112216000D03*
X151471000Y-111716000D03*
X151471000Y-111216000D03*
X151471000Y-110716000D03*
X151471000Y-110216000D03*
X151471000Y-109716000D03*
X151471000Y-109216000D03*
X151471000Y-108716000D03*
X151471000Y-108216000D03*
X151471000Y-107716000D03*
X151471000Y-107216000D03*
X151471000Y-106716000D03*
X151471000Y-106216000D03*
X151471000Y-105716000D03*
X151471000Y-105216000D03*
D45*
X149546000Y-103291000D03*
X149046000Y-103291000D03*
X148546000Y-103291000D03*
X148046000Y-103291000D03*
X147546000Y-103291000D03*
X147046000Y-103291000D03*
X146546000Y-103291000D03*
X146046000Y-103291000D03*
X145546000Y-103291000D03*
X145046000Y-103291000D03*
X144546000Y-103291000D03*
X144046000Y-103291000D03*
X143546000Y-103291000D03*
X143046000Y-103291000D03*
X142546000Y-103291000D03*
X142046000Y-103291000D03*
%TD*%
D19*
%TO.C,J4*%
X131445000Y-82380000D03*
D18*
X131445000Y-84920000D03*
%TD*%
D17*
%TO.C,R10*%
X142723000Y-141224000D03*
X143743000Y-141224000D03*
%TD*%
D46*
%TO.C,J7*%
X173360000Y-92060000D03*
X173360000Y-95960000D03*
D47*
X172585000Y-95310000D03*
X172585000Y-94660000D03*
X172585000Y-94010000D03*
X172585000Y-93360000D03*
X172585000Y-92710000D03*
D48*
X175260000Y-97610000D03*
X175260000Y-90410000D03*
D49*
X172460000Y-97310000D03*
X172460000Y-90710000D03*
%TD*%
D12*
%TO.C,C12*%
X136878000Y-106906000D03*
X136878000Y-105946000D03*
%TD*%
D27*
%TO.C,R9*%
X139232000Y-134366000D03*
X137582000Y-134366000D03*
%TD*%
D17*
%TO.C,R2*%
X135611000Y-135890000D03*
X136631000Y-135890000D03*
%TD*%
D30*
%TO.C,C10*%
X154178000Y-104930000D03*
X154178000Y-105890000D03*
%TD*%
D31*
%TO.C,Q5*%
X147805000Y-139621500D03*
X146855000Y-137746500D03*
X148755000Y-137746500D03*
%TD*%
D32*
%TO.C,C25*%
X169700000Y-104140000D03*
X170660000Y-104140000D03*
%TD*%
D17*
%TO.C,R3*%
X139675000Y-135890000D03*
X140695000Y-135890000D03*
%TD*%
D12*
%TO.C,C20*%
X153670000Y-99794000D03*
X153670000Y-98834000D03*
%TD*%
D16*
%TO.C,C17*%
X136164000Y-111502000D03*
X135204000Y-111502000D03*
%TD*%
D10*
%TO.C,R17*%
X144018000Y-96899000D03*
X144018000Y-97919000D03*
%TD*%
D50*
%TO.C,J8*%
X174365000Y-137160000D03*
D51*
X174365000Y-141540000D03*
X174365000Y-132780000D03*
%TD*%
D17*
%TO.C,R5*%
X147803000Y-135874000D03*
X148823000Y-135874000D03*
%TD*%
D31*
%TO.C,Q3*%
X139677000Y-139621500D03*
X138727000Y-137746500D03*
X140627000Y-137746500D03*
%TD*%
D52*
%TO.C,C4*%
X142507000Y-118364000D03*
X140957000Y-118364000D03*
%TD*%
D16*
%TO.C,C23*%
X156948000Y-114788000D03*
X155988000Y-114788000D03*
%TD*%
D17*
%TO.C,R4*%
X143739000Y-135874000D03*
X144759000Y-135874000D03*
%TD*%
D16*
%TO.C,C11*%
X140180000Y-102616000D03*
X139220000Y-102616000D03*
%TD*%
D30*
%TO.C,C9*%
X136910000Y-108740000D03*
X136910000Y-109700000D03*
%TD*%
D17*
%TO.C,R6*%
X135615000Y-141224000D03*
X134595000Y-141224000D03*
%TD*%
D53*
%TO.C,D2*%
X164592000Y-74701500D03*
X164592000Y-73126500D03*
%TD*%
D16*
%TO.C,C21*%
X150340000Y-96778000D03*
X149380000Y-96778000D03*
%TD*%
D12*
%TO.C,C24*%
X158750000Y-111712000D03*
X158750000Y-110752000D03*
%TD*%
D30*
%TO.C,C18*%
X135128000Y-113848000D03*
X135128000Y-114808000D03*
%TD*%
D54*
%TO.C,U5*%
X152320000Y-123175000D03*
X152320000Y-125175000D03*
X152320000Y-127175000D03*
X152320000Y-129175000D03*
X152320000Y-131175000D03*
X152320000Y-133175000D03*
X152320000Y-135175000D03*
X152320000Y-137175000D03*
X167720000Y-137175000D03*
X167720000Y-135175000D03*
X167720000Y-133175000D03*
X167720000Y-131175000D03*
X167720000Y-129175000D03*
X167720000Y-127175000D03*
X167720000Y-125175000D03*
X167720000Y-123175000D03*
%TD*%
D55*
%TO.C,J6*%
X131572000Y-121568000D03*
X131572000Y-128368000D03*
%TD*%
M02*
