solid Top1
   facet normal -1.000000e+00 0.000000e+00 0.000000e+00
      outer loop
         vertex 1.092739e-15 5.625000e-01 8.593750e+00
         vertex 1.092739e-15 5.625000e-01 9.687500e+00
         vertex 1.092739e-15 8.125000e-01 8.593750e+00
      endloop
   endfacet
   facet normal -1.000000e+00 0.000000e+00 0.000000e+00
      outer loop
         vertex 1.092739e-15 8.125000e-01 8.593750e+00
         vertex 1.092739e-15 5.625000e-01 9.687500e+00
         vertex 1.092739e-15 8.125000e-01 9.687500e+00
      endloop
   endfacet
   facet normal -1.000000e+00 0.000000e+00 0.000000e+00
      outer loop
         vertex 1.092739e-15 5.625000e-01 2.843750e+00
         vertex 1.092739e-15 8.125000e-01 2.843750e+00
         vertex 1.092739e-15 5.625000e-01 5.000003e-01
      endloop
   endfacet
   facet normal -1.000000e+00 0.000000e+00 0.000000e+00
      outer loop
         vertex 1.092739e-15 5.625000e-01 5.000003e-01
         vertex 1.092739e-15 8.125000e-01 2.843750e+00
         vertex 1.092739e-15 8.125000e-01 0.000000e+00
      endloop
   endfacet
   facet normal -1.000000e+00 -0.000000e+00 -0.000000e+00
      outer loop
         vertex 1.092739e-15 5.625000e-01 5.000003e-01
         vertex 1.092739e-15 8.125000e-01 0.000000e+00
         vertex 1.092739e-15 0.000000e+00 5.000003e-01
      endloop
   endfacet
   facet normal -1.000000e+00 0.000000e+00 0.000000e+00
      outer loop
         vertex 1.092739e-15 0.000000e+00 5.000003e-01
         vertex 1.092739e-15 8.125000e-01 0.000000e+00
         vertex 1.092739e-15 0.000000e+00 0.000000e+00
      endloop
   endfacet
   facet normal -1.000000e+00 0.000000e+00 0.000000e+00
      outer loop
         vertex 1.092739e-15 0.000000e+00 1.043750e+01
         vertex 1.092739e-15 0.000000e+00 1.093750e+01
         vertex 1.092739e-15 5.625000e-01 1.043750e+01
      endloop
   endfacet
   facet normal -1.000000e+00 0.000000e+00 0.000000e+00
      outer loop
         vertex 1.092739e-15 5.625000e-01 1.043750e+01
         vertex 1.092739e-15 0.000000e+00 1.093750e+01
         vertex 1.092739e-15 8.125000e-01 1.093750e+01
      endloop
   endfacet
   facet normal -1.000000e+00 0.000000e+00 0.000000e+00
      outer loop
         vertex 1.092739e-15 5.625000e-01 1.043750e+01
         vertex 1.092739e-15 8.125000e-01 1.093750e+01
         vertex 1.092739e-15 5.625000e-01 1.018750e+01
      endloop
   endfacet
   facet normal -1.000000e+00 0.000000e+00 0.000000e+00
      outer loop
         vertex 1.092739e-15 5.625000e-01 1.018750e+01
         vertex 1.092739e-15 8.125000e-01 1.093750e+01
         vertex 1.092739e-15 8.125000e-01 1.018750e+01
      endloop
   endfacet
   facet normal 0.000000e+00 -1.000000e+00 0.000000e+00
      outer loop
         vertex 1.092739e-15 5.625000e-01 9.687500e+00
         vertex 1.092739e-15 5.625000e-01 8.593750e+00
         vertex 1.437500e+00 5.625000e-01 9.687500e+00
      endloop
   endfacet
   facet normal 0.000000e+00 -1.000000e+00 -0.000000e+00
      outer loop
         vertex 1.437500e+00 5.625000e-01 9.687500e+00
         vertex 1.092739e-15 5.625000e-01 8.593750e+00
         vertex 4.500000e+00 5.625000e-01 8.593750e+00
      endloop
   endfacet
   facet normal 0.000000e+00 -1.000000e+00 0.000000e+00
      outer loop
         vertex 1.437500e+00 5.625000e-01 9.687500e+00
         vertex 4.500000e+00 5.625000e-01 8.593750e+00
         vertex 1.437500e+00 5.625000e-01 1.018750e+01
      endloop
   endfacet
   facet normal 0.000000e+00 -1.000000e+00 0.000000e+00
      outer loop
         vertex 4.500000e+00 5.625000e-01 2.843750e+00
         vertex 7.781250e+00 5.625000e-01 0.000000e+00
         vertex 4.500000e+00 5.625000e-01 8.593750e+00
      endloop
   endfacet
   facet normal 0.000000e+00 -1.000000e+00 0.000000e+00
      outer loop
         vertex 4.500000e+00 5.625000e-01 8.593750e+00
         vertex 7.781250e+00 5.625000e-01 0.000000e+00
         vertex 7.781250e+00 5.625000e-01 2.000000e+00
      endloop
   endfacet
   facet normal 0.000000e+00 -1.000000e+00 0.000000e+00
      outer loop
         vertex 1.000000e+00 5.625000e-01 0.000000e+00
         vertex 7.781250e+00 5.625000e-01 0.000000e+00
         vertex 1.000000e+00 5.625000e-01 5.000003e-01
      endloop
   endfacet
   facet normal 0.000000e+00 -1.000000e+00 0.000000e+00
      outer loop
         vertex 1.000000e+00 5.625000e-01 5.000003e-01
         vertex 7.781250e+00 5.625000e-01 0.000000e+00
         vertex 4.500000e+00 5.625000e-01 2.843750e+00
      endloop
   endfacet
   facet normal 0.000000e+00 -1.000000e+00 0.000000e+00
      outer loop
         vertex 1.000000e+00 5.625000e-01 5.000003e-01
         vertex 4.500000e+00 5.625000e-01 2.843750e+00
         vertex 1.092739e-15 5.625000e-01 5.000003e-01
      endloop
   endfacet
   facet normal 0.000000e+00 -1.000000e+00 0.000000e+00
      outer loop
         vertex 1.092739e-15 5.625000e-01 5.000003e-01
         vertex 4.500000e+00 5.625000e-01 2.843750e+00
         vertex 1.092739e-15 5.625000e-01 2.843750e+00
      endloop
   endfacet
   facet normal 0.000000e+00 -1.000000e+00 0.000000e+00
      outer loop
         vertex 8.281250e+00 5.625000e-01 2.000000e+00
         vertex 8.281250e+00 5.625000e-01 9.437500e+00
         vertex 7.781250e+00 5.625000e-01 9.437500e+00
      endloop
   endfacet
   facet normal -0.000000e+00 -1.000000e+00 0.000000e+00
      outer loop
         vertex 7.781250e+00 5.625000e-01 1.143750e+01
         vertex 3.000000e+00 5.625000e-01 1.143750e+01
         vertex 3.000000e+00 5.625000e-01 1.093750e+01
      endloop
   endfacet
   facet normal -0.000000e+00 -1.000000e+00 0.000000e+00
      outer loop
         vertex 3.000000e+00 5.625000e-01 1.093750e+01
         vertex 1.000000e+00 5.625000e-01 1.093750e+01
         vertex 1.000000e+00 5.625000e-01 1.043750e+01
      endloop
   endfacet
   facet normal 0.000000e+00 -1.000000e+00 -0.000000e+00
      outer loop
         vertex 7.781250e+00 5.625000e-01 1.143750e+01
         vertex 3.000000e+00 5.625000e-01 1.093750e+01
         vertex 7.781250e+00 5.625000e-01 9.437500e+00
      endloop
   endfacet
   facet normal 0.000000e+00 -1.000000e+00 0.000000e+00
      outer loop
         vertex 1.092739e-15 5.625000e-01 1.043750e+01
         vertex 1.092739e-15 5.625000e-01 1.018750e+01
         vertex 1.000000e+00 5.625000e-01 1.043750e+01
      endloop
   endfacet
   facet normal 0.000000e+00 -1.000000e+00 -0.000000e+00
      outer loop
         vertex 1.000000e+00 5.625000e-01 1.043750e+01
         vertex 1.092739e-15 5.625000e-01 1.018750e+01
         vertex 1.437500e+00 5.625000e-01 1.018750e+01
      endloop
   endfacet
   facet normal 0.000000e+00 -1.000000e+00 0.000000e+00
      outer loop
         vertex 1.000000e+00 5.625000e-01 1.043750e+01
         vertex 1.437500e+00 5.625000e-01 1.018750e+01
         vertex 3.000000e+00 5.625000e-01 1.093750e+01
      endloop
   endfacet
   facet normal 0.000000e+00 -1.000000e+00 -0.000000e+00
      outer loop
         vertex 3.000000e+00 5.625000e-01 1.093750e+01
         vertex 1.437500e+00 5.625000e-01 1.018750e+01
         vertex 4.500000e+00 5.625000e-01 8.593750e+00
      endloop
   endfacet
   facet normal 0.000000e+00 -1.000000e+00 0.000000e+00
      outer loop
         vertex 3.000000e+00 5.625000e-01 1.093750e+01
         vertex 4.500000e+00 5.625000e-01 8.593750e+00
         vertex 7.781250e+00 5.625000e-01 9.437500e+00
      endloop
   endfacet
   facet normal 0.000000e+00 -1.000000e+00 -0.000000e+00
      outer loop
         vertex 7.781250e+00 5.625000e-01 9.437500e+00
         vertex 4.500000e+00 5.625000e-01 8.593750e+00
         vertex 7.781250e+00 5.625000e-01 2.000000e+00
      endloop
   endfacet
   facet normal 0.000000e+00 -1.000000e+00 0.000000e+00
      outer loop
         vertex 7.781250e+00 5.625000e-01 9.437500e+00
         vertex 7.781250e+00 5.625000e-01 2.000000e+00
         vertex 8.281250e+00 5.625000e-01 2.000000e+00
      endloop
   endfacet
   facet normal 0.000000e+00 0.000000e+00 1.000000e+00
      outer loop
         vertex 7.781250e+00 0.000000e+00 1.143750e+01
         vertex 8.281250e+00 0.000000e+00 1.143750e+01
         vertex 7.781250e+00 5.625000e-01 1.143750e+01
      endloop
   endfacet
   facet normal -0.000000e+00 0.000000e+00 1.000000e+00
      outer loop
         vertex 7.781250e+00 5.625000e-01 1.143750e+01
         vertex 8.281250e+00 0.000000e+00 1.143750e+01
         vertex 8.281250e+00 8.125000e-01 1.143750e+01
      endloop
   endfacet
   facet normal 0.000000e+00 -0.000000e+00 1.000000e+00
      outer loop
         vertex 7.781250e+00 5.625000e-01 1.143750e+01
         vertex 8.281250e+00 8.125000e-01 1.143750e+01
         vertex 3.000000e+00 5.625000e-01 1.143750e+01
      endloop
   endfacet
   facet normal 0.000000e+00 0.000000e+00 1.000000e+00
      outer loop
         vertex 3.000000e+00 5.625000e-01 1.143750e+01
         vertex 8.281250e+00 8.125000e-01 1.143750e+01
         vertex 3.000000e+00 8.125000e-01 1.143750e+01
      endloop
   endfacet
   facet normal 1.000000e+00 0.000000e+00 0.000000e+00
      outer loop
         vertex 8.281250e+00 5.625000e-01 2.000000e+00
         vertex 8.281250e+00 0.000000e+00 2.000000e+00
         vertex 8.281250e+00 0.000000e+00 0.000000e+00
      endloop
   endfacet
   facet normal 1.000000e+00 0.000000e+00 0.000000e+00
      outer loop
         vertex 8.281250e+00 8.125000e-01 1.143750e+01
         vertex 8.281250e+00 0.000000e+00 1.143750e+01
         vertex 8.281250e+00 0.000000e+00 9.437500e+00
      endloop
   endfacet
   facet normal 1.000000e+00 0.000000e+00 0.000000e+00
      outer loop
         vertex 8.281250e+00 0.000000e+00 9.437500e+00
         vertex 8.281250e+00 5.625000e-01 9.437500e+00
         vertex 8.281250e+00 8.125000e-01 1.143750e+01
      endloop
   endfacet
   facet normal 1.000000e+00 0.000000e+00 0.000000e+00
      outer loop
         vertex 8.281250e+00 8.125000e-01 1.143750e+01
         vertex 8.281250e+00 5.625000e-01 9.437500e+00
         vertex 8.281250e+00 5.625000e-01 2.000000e+00
      endloop
   endfacet
   facet normal 1.000000e+00 0.000000e+00 0.000000e+00
      outer loop
         vertex 8.281250e+00 8.125000e-01 1.143750e+01
         vertex 8.281250e+00 5.625000e-01 2.000000e+00
         vertex 8.281250e+00 8.125000e-01 0.000000e+00
      endloop
   endfacet
   facet normal 1.000000e+00 0.000000e+00 0.000000e+00
      outer loop
         vertex 8.281250e+00 8.125000e-01 0.000000e+00
         vertex 8.281250e+00 5.625000e-01 2.000000e+00
         vertex 8.281250e+00 0.000000e+00 0.000000e+00
      endloop
   endfacet
   facet normal 0.000000e+00 -0.000000e+00 -1.000000e+00
      outer loop
         vertex 1.000000e+00 5.625000e-01 0.000000e+00
         vertex 1.000000e+00 0.000000e+00 0.000000e+00
         vertex 1.092739e-15 0.000000e+00 0.000000e+00
      endloop
   endfacet
   facet normal 0.000000e+00 -0.000000e+00 -1.000000e+00
      outer loop
         vertex 8.281250e+00 8.125000e-01 0.000000e+00
         vertex 8.281250e+00 0.000000e+00 0.000000e+00
         vertex 7.781250e+00 0.000000e+00 0.000000e+00
      endloop
   endfacet
   facet normal 0.000000e+00 0.000000e+00 -1.000000e+00
      outer loop
         vertex 7.781250e+00 0.000000e+00 0.000000e+00
         vertex 7.781250e+00 5.625000e-01 0.000000e+00
         vertex 8.281250e+00 8.125000e-01 0.000000e+00
      endloop
   endfacet
   facet normal 0.000000e+00 0.000000e+00 -1.000000e+00
      outer loop
         vertex 8.281250e+00 8.125000e-01 0.000000e+00
         vertex 7.781250e+00 5.625000e-01 0.000000e+00
         vertex 1.000000e+00 5.625000e-01 0.000000e+00
      endloop
   endfacet
   facet normal -0.000000e+00 0.000000e+00 -1.000000e+00
      outer loop
         vertex 8.281250e+00 8.125000e-01 0.000000e+00
         vertex 1.000000e+00 5.625000e-01 0.000000e+00
         vertex 1.092739e-15 8.125000e-01 0.000000e+00
      endloop
   endfacet
   facet normal 0.000000e+00 0.000000e+00 -1.000000e+00
      outer loop
         vertex 1.092739e-15 8.125000e-01 0.000000e+00
         vertex 1.000000e+00 5.625000e-01 0.000000e+00
         vertex 1.092739e-15 0.000000e+00 0.000000e+00
      endloop
   endfacet
   facet normal 0.000000e+00 1.000000e+00 0.000000e+00
      outer loop
         vertex 3.000000e+00 8.125000e-01 1.093750e+01
         vertex 3.000000e+00 8.125000e-01 1.143750e+01
         vertex 8.281250e+00 8.125000e-01 1.143750e+01
      endloop
   endfacet
   facet normal 0.000000e+00 1.000000e+00 0.000000e+00
      outer loop
         vertex 1.092739e-15 8.125000e-01 0.000000e+00
         vertex 1.092739e-15 8.125000e-01 2.843750e+00
         vertex 8.281250e+00 8.125000e-01 0.000000e+00
      endloop
   endfacet
   facet normal 0.000000e+00 1.000000e+00 0.000000e+00
      outer loop
         vertex 8.281250e+00 8.125000e-01 0.000000e+00
         vertex 1.092739e-15 8.125000e-01 2.843750e+00
         vertex 4.500000e+00 8.125000e-01 2.843750e+00
      endloop
   endfacet
   facet normal 0.000000e+00 1.000000e+00 -0.000000e+00
      outer loop
         vertex 8.281250e+00 8.125000e-01 0.000000e+00
         vertex 4.500000e+00 8.125000e-01 2.843750e+00
         vertex 8.281250e+00 8.125000e-01 1.143750e+01
      endloop
   endfacet
   facet normal 0.000000e+00 1.000000e+00 0.000000e+00
      outer loop
         vertex 8.281250e+00 8.125000e-01 1.143750e+01
         vertex 4.500000e+00 8.125000e-01 2.843750e+00
         vertex 4.500000e+00 8.125000e-01 8.593750e+00
      endloop
   endfacet
   facet normal 0.000000e+00 1.000000e+00 0.000000e+00
      outer loop
         vertex 1.437500e+00 8.125000e-01 1.018750e+01
         vertex 1.092739e-15 8.125000e-01 1.018750e+01
         vertex 0.000000e+00 8.125000e-01 1.093750e+01
      endloop
   endfacet
   facet normal 0.000000e+00 1.000000e+00 0.000000e+00
      outer loop
         vertex 1.092739e-15 8.125000e-01 8.593750e+00
         vertex 1.092739e-15 8.125000e-01 9.687500e+00
         vertex 4.500000e+00 8.125000e-01 8.593750e+00
      endloop
   endfacet
   facet normal 0.000000e+00 1.000000e+00 0.000000e+00
      outer loop
         vertex 4.500000e+00 8.125000e-01 8.593750e+00
         vertex 1.092739e-15 8.125000e-01 9.687500e+00
         vertex 1.437500e+00 8.125000e-01 9.687500e+00
      endloop
   endfacet
   facet normal 0.000000e+00 1.000000e+00 -0.000000e+00
      outer loop
         vertex 4.500000e+00 8.125000e-01 8.593750e+00
         vertex 1.437500e+00 8.125000e-01 9.687500e+00
         vertex 8.281250e+00 8.125000e-01 1.143750e+01
      endloop
   endfacet
   facet normal 0.000000e+00 1.000000e+00 0.000000e+00
      outer loop
         vertex 8.281250e+00 8.125000e-01 1.143750e+01
         vertex 1.437500e+00 8.125000e-01 9.687500e+00
         vertex 1.437500e+00 8.125000e-01 1.018750e+01
      endloop
   endfacet
   facet normal 0.000000e+00 1.000000e+00 0.000000e+00
      outer loop
         vertex 8.281250e+00 8.125000e-01 1.143750e+01
         vertex 1.437500e+00 8.125000e-01 1.018750e+01
         vertex 3.000000e+00 8.125000e-01 1.093750e+01
      endloop
   endfacet
   facet normal 0.000000e+00 1.000000e+00 0.000000e+00
      outer loop
         vertex 3.000000e+00 8.125000e-01 1.093750e+01
         vertex 1.437500e+00 8.125000e-01 1.018750e+01
         vertex 0.000000e+00 8.125000e-01 1.093750e+01
      endloop
   endfacet
   facet normal -1.000000e+00 0.000000e+00 0.000000e+00
      outer loop
         vertex 3.000000e+00 5.625000e-01 1.093750e+01
         vertex 3.000000e+00 5.625000e-01 1.143750e+01
         vertex 3.000000e+00 8.125000e-01 1.093750e+01
      endloop
   endfacet
   facet normal -1.000000e+00 0.000000e+00 0.000000e+00
      outer loop
         vertex 3.000000e+00 8.125000e-01 1.093750e+01
         vertex 3.000000e+00 5.625000e-01 1.143750e+01
         vertex 3.000000e+00 8.125000e-01 1.143750e+01
      endloop
   endfacet
   facet normal 0.000000e+00 -0.000000e+00 1.000000e+00
      outer loop
         vertex 3.000000e+00 5.625000e-01 1.093750e+01
         vertex 3.000000e+00 8.125000e-01 1.093750e+01
         vertex 1.000000e+00 5.625000e-01 1.093750e+01
      endloop
   endfacet
   facet normal 0.000000e+00 -0.000000e+00 1.000000e+00
      outer loop
         vertex 1.000000e+00 5.625000e-01 1.093750e+01
         vertex 3.000000e+00 8.125000e-01 1.093750e+01
         vertex 0.000000e+00 8.125000e-01 1.093750e+01
      endloop
   endfacet
   facet normal 0.000000e+00 0.000000e+00 1.000000e+00
      outer loop
         vertex 1.000000e+00 5.625000e-01 1.093750e+01
         vertex 0.000000e+00 8.125000e-01 1.093750e+01
         vertex 1.000000e+00 0.000000e+00 1.093750e+01
      endloop
   endfacet
   facet normal 0.000000e+00 0.000000e+00 1.000000e+00
      outer loop
         vertex 1.000000e+00 0.000000e+00 1.093750e+01
         vertex 0.000000e+00 8.125000e-01 1.093750e+01
         vertex 1.092739e-15 0.000000e+00 1.093750e+01
      endloop
   endfacet
   facet normal -1.000000e+00 0.000000e+00 0.000000e+00
      outer loop
         vertex 1.437500e+00 5.625000e-01 9.687500e+00
         vertex 1.437500e+00 5.625000e-01 1.018750e+01
         vertex 1.437500e+00 8.125000e-01 9.687500e+00
      endloop
   endfacet
   facet normal -1.000000e+00 0.000000e+00 0.000000e+00
      outer loop
         vertex 1.437500e+00 8.125000e-01 9.687500e+00
         vertex 1.437500e+00 5.625000e-01 1.018750e+01
         vertex 1.437500e+00 8.125000e-01 1.018750e+01
      endloop
   endfacet
   facet normal 0.000000e+00 0.000000e+00 -1.000000e+00
      outer loop
         vertex 1.092739e-15 8.125000e-01 1.018750e+01
         vertex 1.437500e+00 8.125000e-01 1.018750e+01
         vertex 1.092739e-15 5.625000e-01 1.018750e+01
      endloop
   endfacet
   facet normal 0.000000e+00 0.000000e+00 -1.000000e+00
      outer loop
         vertex 1.092739e-15 5.625000e-01 1.018750e+01
         vertex 1.437500e+00 8.125000e-01 1.018750e+01
         vertex 1.437500e+00 5.625000e-01 1.018750e+01
      endloop
   endfacet
   facet normal 0.000000e+00 0.000000e+00 1.000000e+00
      outer loop
         vertex 1.092739e-15 5.625000e-01 9.687500e+00
         vertex 1.437500e+00 5.625000e-01 9.687500e+00
         vertex 1.092739e-15 8.125000e-01 9.687500e+00
      endloop
   endfacet
   facet normal -0.000000e+00 0.000000e+00 1.000000e+00
      outer loop
         vertex 1.092739e-15 8.125000e-01 9.687500e+00
         vertex 1.437500e+00 5.625000e-01 9.687500e+00
         vertex 1.437500e+00 8.125000e-01 9.687500e+00
      endloop
   endfacet
   facet normal -1.000000e+00 0.000000e+00 0.000000e+00
      outer loop
         vertex 4.500000e+00 5.625000e-01 2.843750e+00
         vertex 4.500000e+00 5.625000e-01 8.593750e+00
         vertex 4.500000e+00 8.125000e-01 2.843750e+00
      endloop
   endfacet
   facet normal -1.000000e+00 0.000000e+00 0.000000e+00
      outer loop
         vertex 4.500000e+00 8.125000e-01 2.843750e+00
         vertex 4.500000e+00 5.625000e-01 8.593750e+00
         vertex 4.500000e+00 8.125000e-01 8.593750e+00
      endloop
   endfacet
   facet normal 0.000000e+00 0.000000e+00 -1.000000e+00
      outer loop
         vertex 1.092739e-15 8.125000e-01 8.593750e+00
         vertex 4.500000e+00 8.125000e-01 8.593750e+00
         vertex 1.092739e-15 5.625000e-01 8.593750e+00
      endloop
   endfacet
   facet normal 0.000000e+00 0.000000e+00 -1.000000e+00
      outer loop
         vertex 1.092739e-15 5.625000e-01 8.593750e+00
         vertex 4.500000e+00 8.125000e-01 8.593750e+00
         vertex 4.500000e+00 5.625000e-01 8.593750e+00
      endloop
   endfacet
   facet normal 0.000000e+00 0.000000e+00 1.000000e+00
      outer loop
         vertex 1.092739e-15 5.625000e-01 2.843750e+00
         vertex 4.500000e+00 5.625000e-01 2.843750e+00
         vertex 1.092739e-15 8.125000e-01 2.843750e+00
      endloop
   endfacet
   facet normal -0.000000e+00 0.000000e+00 1.000000e+00
      outer loop
         vertex 1.092739e-15 8.125000e-01 2.843750e+00
         vertex 4.500000e+00 5.625000e-01 2.843750e+00
         vertex 4.500000e+00 8.125000e-01 2.843750e+00
      endloop
   endfacet
   facet normal -1.000000e+00 0.000000e+00 0.000000e+00
      outer loop
         vertex 7.781250e+00 0.000000e+00 9.437500e+00
         vertex 7.781250e+00 0.000000e+00 1.143750e+01
         vertex 7.781250e+00 5.625000e-01 9.437500e+00
      endloop
   endfacet
   facet normal -1.000000e+00 0.000000e+00 0.000000e+00
      outer loop
         vertex 7.781250e+00 5.625000e-01 9.437500e+00
         vertex 7.781250e+00 0.000000e+00 1.143750e+01
         vertex 7.781250e+00 5.625000e-01 1.143750e+01
      endloop
   endfacet
   facet normal 0.000000e+00 0.000000e+00 -1.000000e+00
      outer loop
         vertex 8.281250e+00 0.000000e+00 9.437500e+00
         vertex 7.781250e+00 0.000000e+00 9.437500e+00
         vertex 8.281250e+00 5.625000e-01 9.437500e+00
      endloop
   endfacet
   facet normal -0.000000e+00 0.000000e+00 -1.000000e+00
      outer loop
         vertex 8.281250e+00 5.625000e-01 9.437500e+00
         vertex 7.781250e+00 0.000000e+00 9.437500e+00
         vertex 7.781250e+00 5.625000e-01 9.437500e+00
      endloop
   endfacet
   facet normal 0.000000e+00 -1.000000e+00 0.000000e+00
      outer loop
         vertex 7.781250e+00 0.000000e+00 1.143750e+01
         vertex 7.781250e+00 0.000000e+00 9.437500e+00
         vertex 8.281250e+00 0.000000e+00 1.143750e+01
      endloop
   endfacet
   facet normal 0.000000e+00 -1.000000e+00 -0.000000e+00
      outer loop
         vertex 8.281250e+00 0.000000e+00 1.143750e+01
         vertex 7.781250e+00 0.000000e+00 9.437500e+00
         vertex 8.281250e+00 0.000000e+00 9.437500e+00
      endloop
   endfacet
   facet normal 0.000000e+00 0.000000e+00 1.000000e+00
      outer loop
         vertex 7.781250e+00 0.000000e+00 2.000000e+00
         vertex 8.281250e+00 0.000000e+00 2.000000e+00
         vertex 7.781250e+00 5.625000e-01 2.000000e+00
      endloop
   endfacet
   facet normal -0.000000e+00 0.000000e+00 1.000000e+00
      outer loop
         vertex 7.781250e+00 5.625000e-01 2.000000e+00
         vertex 8.281250e+00 0.000000e+00 2.000000e+00
         vertex 8.281250e+00 5.625000e-01 2.000000e+00
      endloop
   endfacet
   facet normal -1.000000e+00 0.000000e+00 0.000000e+00
      outer loop
         vertex 7.781250e+00 0.000000e+00 0.000000e+00
         vertex 7.781250e+00 0.000000e+00 2.000000e+00
         vertex 7.781250e+00 5.625000e-01 0.000000e+00
      endloop
   endfacet
   facet normal -1.000000e+00 0.000000e+00 0.000000e+00
      outer loop
         vertex 7.781250e+00 5.625000e-01 0.000000e+00
         vertex 7.781250e+00 0.000000e+00 2.000000e+00
         vertex 7.781250e+00 5.625000e-01 2.000000e+00
      endloop
   endfacet
   facet normal 0.000000e+00 -1.000000e+00 0.000000e+00
      outer loop
         vertex 7.781250e+00 0.000000e+00 2.000000e+00
         vertex 7.781250e+00 0.000000e+00 0.000000e+00
         vertex 8.281250e+00 0.000000e+00 2.000000e+00
      endloop
   endfacet
   facet normal 0.000000e+00 -1.000000e+00 -0.000000e+00
      outer loop
         vertex 8.281250e+00 0.000000e+00 2.000000e+00
         vertex 7.781250e+00 0.000000e+00 0.000000e+00
         vertex 8.281250e+00 0.000000e+00 0.000000e+00
      endloop
   endfacet
   facet normal 1.000000e+00 -0.000000e+00 0.000000e+00
      outer loop
         vertex 1.000000e+00 0.000000e+00 5.000003e-01
         vertex 1.000000e+00 0.000000e+00 0.000000e+00
         vertex 1.000000e+00 5.625000e-01 5.000003e-01
      endloop
   endfacet
   facet normal 1.000000e+00 0.000000e+00 0.000000e+00
      outer loop
         vertex 1.000000e+00 5.625000e-01 5.000003e-01
         vertex 1.000000e+00 0.000000e+00 0.000000e+00
         vertex 1.000000e+00 5.625000e-01 0.000000e+00
      endloop
   endfacet
   facet normal 0.000000e+00 0.000000e+00 1.000000e+00
      outer loop
         vertex 1.092739e-15 0.000000e+00 5.000003e-01
         vertex 1.000000e+00 0.000000e+00 5.000003e-01
         vertex 1.092739e-15 5.625000e-01 5.000003e-01
      endloop
   endfacet
   facet normal -0.000000e+00 0.000000e+00 1.000000e+00
      outer loop
         vertex 1.092739e-15 5.625000e-01 5.000003e-01
         vertex 1.000000e+00 0.000000e+00 5.000003e-01
         vertex 1.000000e+00 5.625000e-01 5.000003e-01
      endloop
   endfacet
   facet normal 0.000000e+00 -1.000000e+00 0.000000e+00
      outer loop
         vertex 1.092739e-15 0.000000e+00 0.000000e+00
         vertex 1.000000e+00 0.000000e+00 0.000000e+00
         vertex 1.092739e-15 0.000000e+00 5.000003e-01
      endloop
   endfacet
   facet normal 0.000000e+00 -1.000000e+00 0.000000e+00
      outer loop
         vertex 1.092739e-15 0.000000e+00 5.000003e-01
         vertex 1.000000e+00 0.000000e+00 0.000000e+00
         vertex 1.000000e+00 0.000000e+00 5.000003e-01
      endloop
   endfacet
   facet normal 0.000000e+00 0.000000e+00 -1.000000e+00
      outer loop
         vertex 1.092739e-15 5.625000e-01 1.043750e+01
         vertex 1.000000e+00 5.625000e-01 1.043750e+01
         vertex 1.092739e-15 0.000000e+00 1.043750e+01
      endloop
   endfacet
   facet normal 0.000000e+00 0.000000e+00 -1.000000e+00
      outer loop
         vertex 1.092739e-15 0.000000e+00 1.043750e+01
         vertex 1.000000e+00 5.625000e-01 1.043750e+01
         vertex 1.000000e+00 0.000000e+00 1.043750e+01
      endloop
   endfacet
   facet normal 1.000000e+00 -0.000000e+00 0.000000e+00
      outer loop
         vertex 1.000000e+00 0.000000e+00 1.093750e+01
         vertex 1.000000e+00 0.000000e+00 1.043750e+01
         vertex 1.000000e+00 5.625000e-01 1.093750e+01
      endloop
   endfacet
   facet normal 1.000000e+00 0.000000e+00 0.000000e+00
      outer loop
         vertex 1.000000e+00 5.625000e-01 1.093750e+01
         vertex 1.000000e+00 0.000000e+00 1.043750e+01
         vertex 1.000000e+00 5.625000e-01 1.043750e+01
      endloop
   endfacet
   facet normal 0.000000e+00 -1.000000e+00 0.000000e+00
      outer loop
         vertex 1.000000e+00 0.000000e+00 1.043750e+01
         vertex 1.000000e+00 0.000000e+00 1.093750e+01
         vertex 1.092739e-15 0.000000e+00 1.043750e+01
      endloop
   endfacet
   facet normal 0.000000e+00 -1.000000e+00 0.000000e+00
      outer loop
         vertex 1.092739e-15 0.000000e+00 1.043750e+01
         vertex 1.000000e+00 0.000000e+00 1.093750e+01
         vertex 1.092739e-15 0.000000e+00 1.093750e+01
      endloop
   endfacet
endsolid