solid Actuator Rod (For 3D Printed)
   facet normal 0.000000e+00 1.000000e+00 -0.000000e+00
      outer loop
         vertex 6.750000e-03 8.310000e-03 6.000000e-03
         vertex 6.622667e-03 8.310000e-03 6.160454e-03
         vertex 6.750000e-03 8.310000e-03 6.750000e-03
      endloop
   endfacet
   facet normal 0.000000e+00 1.000000e+00 0.000000e+00
      outer loop
         vertex 6.750000e-03 8.310000e-03 6.750000e-03
         vertex 6.622667e-03 8.310000e-03 6.160454e-03
         vertex 6.160453e-03 8.310000e-03 6.622667e-03
      endloop
   endfacet
   facet normal 0.000000e+00 1.000000e+00 0.000000e+00
      outer loop
         vertex 6.750000e-03 8.310000e-03 6.750000e-03
         vertex 6.160453e-03 8.310000e-03 6.622667e-03
         vertex 6.000000e-03 8.310000e-03 6.750000e-03
      endloop
   endfacet
   facet normal 0.000000e+00 1.000000e+00 0.000000e+00
      outer loop
         vertex 6.000000e-03 8.310000e-03 7.500001e-04
         vertex 6.160453e-03 8.310000e-03 8.773333e-04
         vertex 6.750000e-03 8.310000e-03 7.500001e-04
      endloop
   endfacet
   facet normal 0.000000e+00 1.000000e+00 0.000000e+00
      outer loop
         vertex 6.750000e-03 8.310000e-03 7.500001e-04
         vertex 6.160453e-03 8.310000e-03 8.773333e-04
         vertex 6.622667e-03 8.310000e-03 1.339547e-03
      endloop
   endfacet
   facet normal 0.000000e+00 1.000000e+00 -0.000000e+00
      outer loop
         vertex 6.750000e-03 8.310000e-03 7.500001e-04
         vertex 6.622667e-03 8.310000e-03 1.339547e-03
         vertex 6.750000e-03 8.310000e-03 1.500000e-03
      endloop
   endfacet
   facet normal 0.000000e+00 1.000000e+00 0.000000e+00
      outer loop
         vertex 7.500000e-04 8.310000e-03 1.500000e-03
         vertex 8.773333e-04 8.310000e-03 1.339547e-03
         vertex 7.500000e-04 8.310000e-03 7.500001e-04
      endloop
   endfacet
   facet normal 0.000000e+00 1.000000e+00 0.000000e+00
      outer loop
         vertex 7.500000e-04 8.310000e-03 7.500001e-04
         vertex 8.773333e-04 8.310000e-03 1.339547e-03
         vertex 1.339546e-03 8.310000e-03 8.773333e-04
      endloop
   endfacet
   facet normal 0.000000e+00 1.000000e+00 0.000000e+00
      outer loop
         vertex 7.500000e-04 8.310000e-03 7.500001e-04
         vertex 1.339546e-03 8.310000e-03 8.773333e-04
         vertex 1.500000e-03 8.310000e-03 7.500001e-04
      endloop
   endfacet
   facet normal -1.000000e+00 -0.000000e+00 0.000000e+00
      outer loop
         vertex 7.500000e-04 2.247500e-03 5.590304e-03
         vertex 7.500000e-04 1.944076e-03 5.377845e-03
         vertex 7.500000e-04 0.000000e+00 6.750000e-03
      endloop
   endfacet
   facet normal -1.000000e+00 0.000000e+00 0.000000e+00
      outer loop
         vertex 7.500000e-04 2.247500e-03 5.590304e-03
         vertex 7.500000e-04 0.000000e+00 6.750000e-03
         vertex 7.500000e-04 2.583207e-03 5.746847e-03
      endloop
   endfacet
   facet normal -1.000000e+00 -0.000000e+00 0.000000e+00
      outer loop
         vertex 7.500000e-04 1.944076e-03 5.377845e-03
         vertex 7.500000e-04 1.682156e-03 5.115924e-03
         vertex 7.500000e-04 0.000000e+00 6.750000e-03
      endloop
   endfacet
   facet normal -1.000000e+00 0.000000e+00 0.000000e+00
      outer loop
         vertex 7.500000e-04 0.000000e+00 6.750000e-03
         vertex 7.500000e-04 1.682156e-03 5.115924e-03
         vertex 7.500000e-04 1.469696e-03 4.812500e-03
      endloop
   endfacet
   facet normal -1.000000e+00 0.000000e+00 0.000000e+00
      outer loop
         vertex 7.500000e-04 0.000000e+00 6.750000e-03
         vertex 7.500000e-04 1.469696e-03 4.812500e-03
         vertex 7.500000e-04 1.313153e-03 4.476793e-03
      endloop
   endfacet
   facet normal -1.000000e+00 0.000000e+00 -0.000000e+00
      outer loop
         vertex 7.500000e-04 3.679002e-03 1.657284e-03
         vertex 7.500000e-04 8.310000e-03 7.500001e-04
         vertex 7.500000e-04 3.310000e-03 1.625000e-03
      endloop
   endfacet
   facet normal -1.000000e+00 0.000000e+00 -0.000000e+00
      outer loop
         vertex 7.500000e-04 3.310000e-03 1.625000e-03
         vertex 7.500000e-04 8.310000e-03 7.500001e-04
         vertex 7.500000e-04 0.000000e+00 7.500001e-04
      endloop
   endfacet
   facet normal -1.000000e+00 -0.000000e+00 0.000000e+00
      outer loop
         vertex 7.500000e-04 3.310000e-03 1.625000e-03
         vertex 7.500000e-04 0.000000e+00 7.500001e-04
         vertex 7.500000e-04 2.940998e-03 1.657284e-03
      endloop
   endfacet
   facet normal -1.000000e+00 0.000000e+00 -0.000000e+00
      outer loop
         vertex 7.500000e-04 1.313153e-03 3.023207e-03
         vertex 7.500000e-04 1.469696e-03 2.687500e-03
         vertex 7.500000e-04 0.000000e+00 7.500001e-04
      endloop
   endfacet
   facet normal -1.000000e+00 0.000000e+00 0.000000e+00
      outer loop
         vertex 7.500000e-04 0.000000e+00 7.500001e-04
         vertex 7.500000e-04 1.469696e-03 2.687500e-03
         vertex 7.500000e-04 1.682156e-03 2.384076e-03
      endloop
   endfacet
   facet normal -1.000000e+00 0.000000e+00 0.000000e+00
      outer loop
         vertex 7.500000e-04 0.000000e+00 7.500001e-04
         vertex 7.500000e-04 1.682156e-03 2.384076e-03
         vertex 7.500000e-04 1.944076e-03 2.122156e-03
      endloop
   endfacet
   facet normal -1.000000e+00 -0.000000e+00 0.000000e+00
      outer loop
         vertex 7.500000e-04 1.313153e-03 4.476793e-03
         vertex 7.500000e-04 1.217284e-03 4.119002e-03
         vertex 7.500000e-04 0.000000e+00 6.750000e-03
      endloop
   endfacet
   facet normal -1.000000e+00 0.000000e+00 0.000000e+00
      outer loop
         vertex 7.500000e-04 0.000000e+00 6.750000e-03
         vertex 7.500000e-04 1.217284e-03 4.119002e-03
         vertex 7.500000e-04 1.185000e-03 3.750000e-03
      endloop
   endfacet
   facet normal -1.000000e+00 0.000000e+00 0.000000e+00
      outer loop
         vertex 7.500000e-04 0.000000e+00 6.750000e-03
         vertex 7.500000e-04 1.185000e-03 3.750000e-03
         vertex 7.500000e-04 0.000000e+00 7.500001e-04
      endloop
   endfacet
   facet normal -1.000000e+00 0.000000e+00 0.000000e+00
      outer loop
         vertex 7.500000e-04 0.000000e+00 7.500001e-04
         vertex 7.500000e-04 1.185000e-03 3.750000e-03
         vertex 7.500000e-04 1.217284e-03 3.380998e-03
      endloop
   endfacet
   facet normal -1.000000e+00 0.000000e+00 0.000000e+00
      outer loop
         vertex 7.500000e-04 0.000000e+00 7.500001e-04
         vertex 7.500000e-04 1.217284e-03 3.380998e-03
         vertex 7.500000e-04 1.313153e-03 3.023207e-03
      endloop
   endfacet
   facet normal -1.000000e+00 0.000000e+00 -0.000000e+00
      outer loop
         vertex 7.500000e-04 1.944076e-03 2.122156e-03
         vertex 7.500000e-04 2.247500e-03 1.909696e-03
         vertex 7.500000e-04 0.000000e+00 7.500001e-04
      endloop
   endfacet
   facet normal -1.000000e+00 0.000000e+00 0.000000e+00
      outer loop
         vertex 7.500000e-04 0.000000e+00 7.500001e-04
         vertex 7.500000e-04 2.247500e-03 1.909696e-03
         vertex 7.500000e-04 2.583207e-03 1.753153e-03
      endloop
   endfacet
   facet normal -1.000000e+00 0.000000e+00 0.000000e+00
      outer loop
         vertex 7.500000e-04 0.000000e+00 7.500001e-04
         vertex 7.500000e-04 2.583207e-03 1.753153e-03
         vertex 7.500000e-04 2.940998e-03 1.657284e-03
      endloop
   endfacet
   facet normal -1.000000e+00 0.000000e+00 0.000000e+00
      outer loop
         vertex 7.500000e-04 3.679002e-03 1.657284e-03
         vertex 7.500000e-04 4.036793e-03 1.753153e-03
         vertex 7.500000e-04 8.310000e-03 7.500001e-04
      endloop
   endfacet
   facet normal -1.000000e+00 0.000000e+00 0.000000e+00
      outer loop
         vertex 7.500000e-04 8.310000e-03 7.500001e-04
         vertex 7.500000e-04 4.036793e-03 1.753153e-03
         vertex 7.500000e-04 4.372500e-03 1.909696e-03
      endloop
   endfacet
   facet normal -1.000000e+00 0.000000e+00 0.000000e+00
      outer loop
         vertex 7.500000e-04 8.310000e-03 7.500001e-04
         vertex 7.500000e-04 4.372500e-03 1.909696e-03
         vertex 7.500000e-04 4.675924e-03 2.122156e-03
      endloop
   endfacet
   facet normal -1.000000e+00 0.000000e+00 0.000000e+00
      outer loop
         vertex 7.500000e-04 4.036793e-03 5.746847e-03
         vertex 7.500000e-04 3.679002e-03 5.842717e-03
         vertex 7.500000e-04 8.310000e-03 6.750000e-03
      endloop
   endfacet
   facet normal -1.000000e+00 0.000000e+00 0.000000e+00
      outer loop
         vertex 7.500000e-04 8.310000e-03 6.750000e-03
         vertex 7.500000e-04 3.679002e-03 5.842717e-03
         vertex 7.500000e-04 3.310000e-03 5.875000e-03
      endloop
   endfacet
   facet normal -1.000000e+00 -0.000000e+00 0.000000e+00
      outer loop
         vertex 7.500000e-04 8.310000e-03 6.750000e-03
         vertex 7.500000e-04 3.310000e-03 5.875000e-03
         vertex 7.500000e-04 0.000000e+00 6.750000e-03
      endloop
   endfacet
   facet normal -1.000000e+00 0.000000e+00 0.000000e+00
      outer loop
         vertex 7.500000e-04 0.000000e+00 6.750000e-03
         vertex 7.500000e-04 3.310000e-03 5.875000e-03
         vertex 7.500000e-04 2.940998e-03 5.842717e-03
      endloop
   endfacet
   facet normal -1.000000e+00 0.000000e+00 0.000000e+00
      outer loop
         vertex 7.500000e-04 0.000000e+00 6.750000e-03
         vertex 7.500000e-04 2.940998e-03 5.842717e-03
         vertex 7.500000e-04 2.583207e-03 5.746847e-03
      endloop
   endfacet
   facet normal -1.000000e+00 0.000000e+00 -0.000000e+00
      outer loop
         vertex 7.500000e-04 5.306847e-03 3.023207e-03
         vertex 7.500000e-04 8.310000e-03 1.500000e-03
         vertex 7.500000e-04 5.150304e-03 2.687500e-03
      endloop
   endfacet
   facet normal -1.000000e+00 0.000000e+00 0.000000e+00
      outer loop
         vertex 7.500000e-04 5.150304e-03 2.687500e-03
         vertex 7.500000e-04 8.310000e-03 1.500000e-03
         vertex 7.500000e-04 8.310000e-03 7.500001e-04
      endloop
   endfacet
   facet normal -1.000000e+00 0.000000e+00 -0.000000e+00
      outer loop
         vertex 7.500000e-04 5.150304e-03 2.687500e-03
         vertex 7.500000e-04 8.310000e-03 7.500001e-04
         vertex 7.500000e-04 4.937844e-03 2.384076e-03
      endloop
   endfacet
   facet normal -1.000000e+00 0.000000e+00 -0.000000e+00
      outer loop
         vertex 7.500000e-04 4.937844e-03 2.384076e-03
         vertex 7.500000e-04 8.310000e-03 7.500001e-04
         vertex 7.500000e-04 4.675924e-03 2.122156e-03
      endloop
   endfacet
   facet normal -1.000000e+00 0.000000e+00 0.000000e+00
      outer loop
         vertex 7.500000e-04 5.306847e-03 3.023207e-03
         vertex 7.500000e-04 5.402716e-03 3.380998e-03
         vertex 7.500000e-04 8.310000e-03 1.500000e-03
      endloop
   endfacet
   facet normal -1.000000e+00 0.000000e+00 0.000000e+00
      outer loop
         vertex 7.500000e-04 8.310000e-03 1.500000e-03
         vertex 7.500000e-04 5.402716e-03 3.380998e-03
         vertex 7.500000e-04 5.435000e-03 3.750000e-03
      endloop
   endfacet
   facet normal -1.000000e+00 0.000000e+00 0.000000e+00
      outer loop
         vertex 7.500000e-04 8.310000e-03 1.500000e-03
         vertex 7.500000e-04 5.435000e-03 3.750000e-03
         vertex 7.500000e-04 8.310000e-03 6.000000e-03
      endloop
   endfacet
   facet normal -1.000000e+00 0.000000e+00 0.000000e+00
      outer loop
         vertex 7.500000e-04 5.435000e-03 3.750000e-03
         vertex 7.500000e-04 5.402716e-03 4.119002e-03
         vertex 7.500000e-04 8.310000e-03 6.000000e-03
      endloop
   endfacet
   facet normal -1.000000e+00 0.000000e+00 0.000000e+00
      outer loop
         vertex 7.500000e-04 8.310000e-03 6.000000e-03
         vertex 7.500000e-04 5.402716e-03 4.119002e-03
         vertex 7.500000e-04 5.306847e-03 4.476793e-03
      endloop
   endfacet
   facet normal -1.000000e+00 -0.000000e+00 0.000000e+00
      outer loop
         vertex 7.500000e-04 8.310000e-03 6.000000e-03
         vertex 7.500000e-04 5.306847e-03 4.476793e-03
         vertex 7.500000e-04 8.310000e-03 6.750000e-03
      endloop
   endfacet
   facet normal -1.000000e+00 0.000000e+00 0.000000e+00
      outer loop
         vertex 7.500000e-04 8.310000e-03 6.750000e-03
         vertex 7.500000e-04 5.306847e-03 4.476793e-03
         vertex 7.500000e-04 5.150304e-03 4.812500e-03
      endloop
   endfacet
   facet normal -1.000000e+00 0.000000e+00 0.000000e+00
      outer loop
         vertex 7.500000e-04 8.310000e-03 6.750000e-03
         vertex 7.500000e-04 5.150304e-03 4.812500e-03
         vertex 7.500000e-04 4.937844e-03 5.115924e-03
      endloop
   endfacet
   facet normal -1.000000e+00 0.000000e+00 0.000000e+00
      outer loop
         vertex 7.500000e-04 4.937844e-03 5.115924e-03
         vertex 7.500000e-04 4.675924e-03 5.377845e-03
         vertex 7.500000e-04 8.310000e-03 6.750000e-03
      endloop
   endfacet
   facet normal -1.000000e+00 0.000000e+00 0.000000e+00
      outer loop
         vertex 7.500000e-04 8.310000e-03 6.750000e-03
         vertex 7.500000e-04 4.675924e-03 5.377845e-03
         vertex 7.500000e-04 4.372500e-03 5.590304e-03
      endloop
   endfacet
   facet normal -1.000000e+00 0.000000e+00 0.000000e+00
      outer loop
         vertex 7.500000e-04 8.310000e-03 6.750000e-03
         vertex 7.500000e-04 4.372500e-03 5.590304e-03
         vertex 7.500000e-04 4.036793e-03 5.746847e-03
      endloop
   endfacet
   facet normal -0.000000e+00 0.000000e+00 1.000000e+00
      outer loop
         vertex 7.500000e-04 8.310000e-03 6.750000e-03
         vertex 7.500000e-04 0.000000e+00 6.750000e-03
         vertex 1.500000e-03 8.310000e-03 6.750000e-03
      endloop
   endfacet
   facet normal 0.000000e+00 0.000000e+00 1.000000e+00
      outer loop
         vertex 1.500000e-03 8.310000e-03 6.750000e-03
         vertex 7.500000e-04 0.000000e+00 6.750000e-03
         vertex 6.750000e-03 0.000000e+00 6.750000e-03
      endloop
   endfacet
   facet normal -0.000000e+00 0.000000e+00 1.000000e+00
      outer loop
         vertex 1.500000e-03 8.310000e-03 6.750000e-03
         vertex 6.750000e-03 0.000000e+00 6.750000e-03
         vertex 6.000000e-03 8.310000e-03 6.750000e-03
      endloop
   endfacet
   facet normal -0.000000e+00 0.000000e+00 1.000000e+00
      outer loop
         vertex 6.000000e-03 8.310000e-03 6.750000e-03
         vertex 6.750000e-03 0.000000e+00 6.750000e-03
         vertex 6.750000e-03 8.310000e-03 6.750000e-03
      endloop
   endfacet
   facet normal 1.000000e+00 0.000000e+00 0.000000e+00
      outer loop
         vertex 6.750000e-03 4.036793e-03 1.753153e-03
         vertex 6.750000e-03 3.679002e-03 1.657284e-03
         vertex 6.750000e-03 8.310000e-03 7.500001e-04
      endloop
   endfacet
   facet normal 1.000000e+00 0.000000e+00 0.000000e+00
      outer loop
         vertex 6.750000e-03 8.310000e-03 7.500001e-04
         vertex 6.750000e-03 3.679002e-03 1.657284e-03
         vertex 6.750000e-03 3.310000e-03 1.625000e-03
      endloop
   endfacet
   facet normal 1.000000e+00 0.000000e+00 0.000000e+00
      outer loop
         vertex 6.750000e-03 8.310000e-03 7.500001e-04
         vertex 6.750000e-03 3.310000e-03 1.625000e-03
         vertex 6.750000e-03 0.000000e+00 7.500001e-04
      endloop
   endfacet
   facet normal 1.000000e+00 0.000000e+00 0.000000e+00
      outer loop
         vertex 6.750000e-03 0.000000e+00 7.500001e-04
         vertex 6.750000e-03 3.310000e-03 1.625000e-03
         vertex 6.750000e-03 2.940998e-03 1.657284e-03
      endloop
   endfacet
   facet normal 1.000000e+00 0.000000e+00 0.000000e+00
      outer loop
         vertex 6.750000e-03 0.000000e+00 7.500001e-04
         vertex 6.750000e-03 2.940998e-03 1.657284e-03
         vertex 6.750000e-03 2.583207e-03 1.753153e-03
      endloop
   endfacet
   facet normal 1.000000e+00 0.000000e+00 0.000000e+00
      outer loop
         vertex 6.750000e-03 0.000000e+00 7.500001e-04
         vertex 6.750000e-03 1.682156e-03 2.384076e-03
         vertex 6.750000e-03 1.469696e-03 2.687500e-03
      endloop
   endfacet
   facet normal 1.000000e+00 0.000000e+00 0.000000e+00
      outer loop
         vertex 6.750000e-03 0.000000e+00 7.500001e-04
         vertex 6.750000e-03 1.185000e-03 3.750000e-03
         vertex 6.750000e-03 0.000000e+00 6.750000e-03
      endloop
   endfacet
   facet normal 1.000000e+00 0.000000e+00 0.000000e+00
      outer loop
         vertex 6.750000e-03 0.000000e+00 6.750000e-03
         vertex 6.750000e-03 1.185000e-03 3.750000e-03
         vertex 6.750000e-03 1.217284e-03 4.119002e-03
      endloop
   endfacet
   facet normal 1.000000e+00 0.000000e+00 0.000000e+00
      outer loop
         vertex 6.750000e-03 2.583207e-03 1.753153e-03
         vertex 6.750000e-03 2.247500e-03 1.909696e-03
         vertex 6.750000e-03 0.000000e+00 7.500001e-04
      endloop
   endfacet
   facet normal 1.000000e+00 0.000000e+00 0.000000e+00
      outer loop
         vertex 6.750000e-03 0.000000e+00 7.500001e-04
         vertex 6.750000e-03 2.247500e-03 1.909696e-03
         vertex 6.750000e-03 1.944076e-03 2.122156e-03
      endloop
   endfacet
   facet normal 1.000000e+00 0.000000e+00 0.000000e+00
      outer loop
         vertex 6.750000e-03 0.000000e+00 7.500001e-04
         vertex 6.750000e-03 1.944076e-03 2.122156e-03
         vertex 6.750000e-03 1.682156e-03 2.384076e-03
      endloop
   endfacet
   facet normal 1.000000e+00 0.000000e+00 0.000000e+00
      outer loop
         vertex 6.750000e-03 1.469696e-03 2.687500e-03
         vertex 6.750000e-03 1.313153e-03 3.023207e-03
         vertex 6.750000e-03 0.000000e+00 7.500001e-04
      endloop
   endfacet
   facet normal 1.000000e+00 0.000000e+00 0.000000e+00
      outer loop
         vertex 6.750000e-03 0.000000e+00 7.500001e-04
         vertex 6.750000e-03 1.313153e-03 3.023207e-03
         vertex 6.750000e-03 1.217284e-03 3.380998e-03
      endloop
   endfacet
   facet normal 1.000000e+00 0.000000e+00 0.000000e+00
      outer loop
         vertex 6.750000e-03 0.000000e+00 7.500001e-04
         vertex 6.750000e-03 1.217284e-03 3.380998e-03
         vertex 6.750000e-03 1.185000e-03 3.750000e-03
      endloop
   endfacet
   facet normal 1.000000e+00 0.000000e+00 -0.000000e+00
      outer loop
         vertex 6.750000e-03 1.217284e-03 4.119002e-03
         vertex 6.750000e-03 1.313153e-03 4.476793e-03
         vertex 6.750000e-03 0.000000e+00 6.750000e-03
      endloop
   endfacet
   facet normal 1.000000e+00 0.000000e+00 0.000000e+00
      outer loop
         vertex 6.750000e-03 0.000000e+00 6.750000e-03
         vertex 6.750000e-03 1.313153e-03 4.476793e-03
         vertex 6.750000e-03 1.469696e-03 4.812500e-03
      endloop
   endfacet
   facet normal 1.000000e+00 0.000000e+00 0.000000e+00
      outer loop
         vertex 6.750000e-03 0.000000e+00 6.750000e-03
         vertex 6.750000e-03 1.469696e-03 4.812500e-03
         vertex 6.750000e-03 1.682156e-03 5.115924e-03
      endloop
   endfacet
   facet normal 1.000000e+00 0.000000e+00 0.000000e+00
      outer loop
         vertex 6.750000e-03 4.937844e-03 2.384076e-03
         vertex 6.750000e-03 4.675924e-03 2.122156e-03
         vertex 6.750000e-03 8.310000e-03 7.500001e-04
      endloop
   endfacet
   facet normal 1.000000e+00 0.000000e+00 0.000000e+00
      outer loop
         vertex 6.750000e-03 8.310000e-03 7.500001e-04
         vertex 6.750000e-03 4.675924e-03 2.122156e-03
         vertex 6.750000e-03 4.372500e-03 1.909696e-03
      endloop
   endfacet
   facet normal 1.000000e+00 0.000000e+00 0.000000e+00
      outer loop
         vertex 6.750000e-03 8.310000e-03 7.500001e-04
         vertex 6.750000e-03 4.372500e-03 1.909696e-03
         vertex 6.750000e-03 4.036793e-03 1.753153e-03
      endloop
   endfacet
   facet normal 1.000000e+00 0.000000e+00 -0.000000e+00
      outer loop
         vertex 6.750000e-03 1.682156e-03 5.115924e-03
         vertex 6.750000e-03 1.944076e-03 5.377845e-03
         vertex 6.750000e-03 0.000000e+00 6.750000e-03
      endloop
   endfacet
   facet normal 1.000000e+00 0.000000e+00 0.000000e+00
      outer loop
         vertex 6.750000e-03 0.000000e+00 6.750000e-03
         vertex 6.750000e-03 1.944076e-03 5.377845e-03
         vertex 6.750000e-03 2.247500e-03 5.590304e-03
      endloop
   endfacet
   facet normal 1.000000e+00 0.000000e+00 0.000000e+00
      outer loop
         vertex 6.750000e-03 0.000000e+00 6.750000e-03
         vertex 6.750000e-03 2.247500e-03 5.590304e-03
         vertex 6.750000e-03 2.583207e-03 5.746847e-03
      endloop
   endfacet
   facet normal 1.000000e+00 0.000000e+00 -0.000000e+00
      outer loop
         vertex 6.750000e-03 3.679002e-03 5.842717e-03
         vertex 6.750000e-03 8.310000e-03 6.750000e-03
         vertex 6.750000e-03 3.310000e-03 5.875000e-03
      endloop
   endfacet
   facet normal 1.000000e+00 0.000000e+00 -0.000000e+00
      outer loop
         vertex 6.750000e-03 3.310000e-03 5.875000e-03
         vertex 6.750000e-03 8.310000e-03 6.750000e-03
         vertex 6.750000e-03 0.000000e+00 6.750000e-03
      endloop
   endfacet
   facet normal 1.000000e+00 0.000000e+00 0.000000e+00
      outer loop
         vertex 6.750000e-03 3.310000e-03 5.875000e-03
         vertex 6.750000e-03 0.000000e+00 6.750000e-03
         vertex 6.750000e-03 2.940998e-03 5.842717e-03
      endloop
   endfacet
   facet normal 1.000000e+00 0.000000e+00 0.000000e+00
      outer loop
         vertex 6.750000e-03 2.940998e-03 5.842717e-03
         vertex 6.750000e-03 0.000000e+00 6.750000e-03
         vertex 6.750000e-03 2.583207e-03 5.746847e-03
      endloop
   endfacet
   facet normal 1.000000e+00 -0.000000e+00 0.000000e+00
      outer loop
         vertex 6.750000e-03 3.679002e-03 5.842717e-03
         vertex 6.750000e-03 4.036793e-03 5.746847e-03
         vertex 6.750000e-03 8.310000e-03 6.750000e-03
      endloop
   endfacet
   facet normal 1.000000e+00 0.000000e+00 0.000000e+00
      outer loop
         vertex 6.750000e-03 8.310000e-03 6.750000e-03
         vertex 6.750000e-03 4.036793e-03 5.746847e-03
         vertex 6.750000e-03 4.372500e-03 5.590304e-03
      endloop
   endfacet
   facet normal 1.000000e+00 0.000000e+00 0.000000e+00
      outer loop
         vertex 6.750000e-03 8.310000e-03 6.750000e-03
         vertex 6.750000e-03 4.372500e-03 5.590304e-03
         vertex 6.750000e-03 4.675924e-03 5.377845e-03
      endloop
   endfacet
   facet normal 1.000000e+00 0.000000e+00 0.000000e+00
      outer loop
         vertex 6.750000e-03 8.310000e-03 6.000000e-03
         vertex 6.750000e-03 5.402716e-03 4.119002e-03
         vertex 6.750000e-03 8.310000e-03 1.500000e-03
      endloop
   endfacet
   facet normal 1.000000e+00 0.000000e+00 0.000000e+00
      outer loop
         vertex 6.750000e-03 8.310000e-03 1.500000e-03
         vertex 6.750000e-03 5.402716e-03 4.119002e-03
         vertex 6.750000e-03 5.435000e-03 3.750000e-03
      endloop
   endfacet
   facet normal 1.000000e+00 0.000000e+00 0.000000e+00
      outer loop
         vertex 6.750000e-03 5.435000e-03 3.750000e-03
         vertex 6.750000e-03 5.402716e-03 3.380998e-03
         vertex 6.750000e-03 8.310000e-03 1.500000e-03
      endloop
   endfacet
   facet normal 1.000000e+00 0.000000e+00 0.000000e+00
      outer loop
         vertex 6.750000e-03 8.310000e-03 1.500000e-03
         vertex 6.750000e-03 5.402716e-03 3.380998e-03
         vertex 6.750000e-03 5.306847e-03 3.023207e-03
      endloop
   endfacet
   facet normal 1.000000e+00 0.000000e+00 0.000000e+00
      outer loop
         vertex 6.750000e-03 8.310000e-03 1.500000e-03
         vertex 6.750000e-03 5.306847e-03 3.023207e-03
         vertex 6.750000e-03 8.310000e-03 7.500001e-04
      endloop
   endfacet
   facet normal 1.000000e+00 0.000000e+00 0.000000e+00
      outer loop
         vertex 6.750000e-03 8.310000e-03 7.500001e-04
         vertex 6.750000e-03 5.306847e-03 3.023207e-03
         vertex 6.750000e-03 5.150304e-03 2.687500e-03
      endloop
   endfacet
   facet normal 1.000000e+00 0.000000e+00 0.000000e+00
      outer loop
         vertex 6.750000e-03 8.310000e-03 7.500001e-04
         vertex 6.750000e-03 5.150304e-03 2.687500e-03
         vertex 6.750000e-03 4.937844e-03 2.384076e-03
      endloop
   endfacet
   facet normal 1.000000e+00 -0.000000e+00 0.000000e+00
      outer loop
         vertex 6.750000e-03 4.675924e-03 5.377845e-03
         vertex 6.750000e-03 4.937844e-03 5.115924e-03
         vertex 6.750000e-03 8.310000e-03 6.750000e-03
      endloop
   endfacet
   facet normal 1.000000e+00 0.000000e+00 0.000000e+00
      outer loop
         vertex 6.750000e-03 8.310000e-03 6.750000e-03
         vertex 6.750000e-03 4.937844e-03 5.115924e-03
         vertex 6.750000e-03 5.150304e-03 4.812500e-03
      endloop
   endfacet
   facet normal 1.000000e+00 0.000000e+00 0.000000e+00
      outer loop
         vertex 6.750000e-03 8.310000e-03 6.750000e-03
         vertex 6.750000e-03 5.150304e-03 4.812500e-03
         vertex 6.750000e-03 8.310000e-03 6.000000e-03
      endloop
   endfacet
   facet normal 1.000000e+00 0.000000e+00 0.000000e+00
      outer loop
         vertex 6.750000e-03 8.310000e-03 6.000000e-03
         vertex 6.750000e-03 5.150304e-03 4.812500e-03
         vertex 6.750000e-03 5.306847e-03 4.476793e-03
      endloop
   endfacet
   facet normal 1.000000e+00 0.000000e+00 0.000000e+00
      outer loop
         vertex 6.750000e-03 8.310000e-03 6.000000e-03
         vertex 6.750000e-03 5.306847e-03 4.476793e-03
         vertex 6.750000e-03 5.402716e-03 4.119002e-03
      endloop
   endfacet
   facet normal -0.000000e+00 -0.000000e+00 -1.000000e+00
      outer loop
         vertex 6.750000e-03 8.310000e-03 7.500001e-04
         vertex 6.750000e-03 0.000000e+00 7.500001e-04
         vertex 6.000000e-03 8.310000e-03 7.500001e-04
      endloop
   endfacet
   facet normal 0.000000e+00 -0.000000e+00 -1.000000e+00
      outer loop
         vertex 6.000000e-03 8.310000e-03 7.500001e-04
         vertex 6.750000e-03 0.000000e+00 7.500001e-04
         vertex 7.500000e-04 0.000000e+00 7.500001e-04
      endloop
   endfacet
   facet normal -0.000000e+00 0.000000e+00 -1.000000e+00
      outer loop
         vertex 6.000000e-03 8.310000e-03 7.500001e-04
         vertex 7.500000e-04 0.000000e+00 7.500001e-04
         vertex 1.500000e-03 8.310000e-03 7.500001e-04
      endloop
   endfacet
   facet normal -0.000000e+00 0.000000e+00 -1.000000e+00
      outer loop
         vertex 1.500000e-03 8.310000e-03 7.500001e-04
         vertex 7.500000e-04 0.000000e+00 7.500001e-04
         vertex 7.500000e-04 8.310000e-03 7.500001e-04
      endloop
   endfacet
   facet normal 0.000000e+00 1.000000e+00 0.000000e+00
      outer loop
         vertex 1.500000e-03 8.310000e-03 6.750000e-03
         vertex 1.339546e-03 8.310000e-03 6.622667e-03
         vertex 7.500000e-04 8.310000e-03 6.750000e-03
      endloop
   endfacet
   facet normal 0.000000e+00 1.000000e+00 0.000000e+00
      outer loop
         vertex 7.500000e-04 8.310000e-03 6.750000e-03
         vertex 1.339546e-03 8.310000e-03 6.622667e-03
         vertex 8.773333e-04 8.310000e-03 6.160454e-03
      endloop
   endfacet
   facet normal 0.000000e+00 1.000000e+00 0.000000e+00
      outer loop
         vertex 7.500000e-04 8.310000e-03 6.750000e-03
         vertex 8.773333e-04 8.310000e-03 6.160454e-03
         vertex 7.500000e-04 8.310000e-03 6.000000e-03
      endloop
   endfacet
   facet normal 0.000000e+00 -1.000000e+00 0.000000e+00
      outer loop
         vertex 6.750000e-03 0.000000e+00 7.500001e-04
         vertex 6.750000e-03 0.000000e+00 6.750000e-03
         vertex 7.500000e-04 0.000000e+00 7.500001e-04
      endloop
   endfacet
   facet normal 0.000000e+00 -1.000000e+00 0.000000e+00
      outer loop
         vertex 7.500000e-04 0.000000e+00 7.500001e-04
         vertex 6.750000e-03 0.000000e+00 6.750000e-03
         vertex 7.500000e-04 0.000000e+00 6.750000e-03
      endloop
   endfacet
   facet normal 0.000000e+00 -8.715657e-02 9.961946e-01
      outer loop
         vertex 7.500000e-04 3.310000e-03 1.625000e-03
         vertex 6.750000e-03 3.310000e-03 1.625000e-03
         vertex 7.500000e-04 3.679002e-03 1.657284e-03
      endloop
   endfacet
   facet normal 0.000000e+00 -8.715657e-02 9.961946e-01
      outer loop
         vertex 7.500000e-04 3.679002e-03 1.657284e-03
         vertex 6.750000e-03 3.310000e-03 1.625000e-03
         vertex 6.750000e-03 3.679002e-03 1.657284e-03
      endloop
   endfacet
   facet normal 0.000000e+00 -2.588183e-01 9.659260e-01
      outer loop
         vertex 7.500000e-04 3.679002e-03 1.657284e-03
         vertex 6.750000e-03 3.679002e-03 1.657284e-03
         vertex 7.500000e-04 4.036793e-03 1.753153e-03
      endloop
   endfacet
   facet normal 0.000000e+00 -2.588183e-01 9.659260e-01
      outer loop
         vertex 7.500000e-04 4.036793e-03 1.753153e-03
         vertex 6.750000e-03 3.679002e-03 1.657284e-03
         vertex 6.750000e-03 4.036793e-03 1.753153e-03
      endloop
   endfacet
   facet normal 0.000000e+00 -4.226184e-01 9.063077e-01
      outer loop
         vertex 7.500000e-04 4.036793e-03 1.753153e-03
         vertex 6.750000e-03 4.036793e-03 1.753153e-03
         vertex 7.500000e-04 4.372500e-03 1.909696e-03
      endloop
   endfacet
   facet normal 0.000000e+00 -4.226184e-01 9.063077e-01
      outer loop
         vertex 7.500000e-04 4.372500e-03 1.909696e-03
         vertex 6.750000e-03 4.036793e-03 1.753153e-03
         vertex 6.750000e-03 4.372500e-03 1.909696e-03
      endloop
   endfacet
   facet normal 0.000000e+00 -5.735766e-01 8.191519e-01
      outer loop
         vertex 7.500000e-04 4.372500e-03 1.909696e-03
         vertex 6.750000e-03 4.372500e-03 1.909696e-03
         vertex 7.500000e-04 4.675924e-03 2.122156e-03
      endloop
   endfacet
   facet normal 0.000000e+00 -5.735766e-01 8.191519e-01
      outer loop
         vertex 7.500000e-04 4.675924e-03 2.122156e-03
         vertex 6.750000e-03 4.372500e-03 1.909696e-03
         vertex 6.750000e-03 4.675924e-03 2.122156e-03
      endloop
   endfacet
   facet normal 0.000000e+00 -7.071068e-01 7.071068e-01
      outer loop
         vertex 7.500000e-04 4.675924e-03 2.122156e-03
         vertex 6.750000e-03 4.675924e-03 2.122156e-03
         vertex 7.500000e-04 4.937844e-03 2.384076e-03
      endloop
   endfacet
   facet normal 0.000000e+00 -7.071068e-01 7.071068e-01
      outer loop
         vertex 7.500000e-04 4.937844e-03 2.384076e-03
         vertex 6.750000e-03 4.675924e-03 2.122156e-03
         vertex 6.750000e-03 4.937844e-03 2.384076e-03
      endloop
   endfacet
   facet normal 0.000000e+00 -8.191519e-01 5.735766e-01
      outer loop
         vertex 7.500000e-04 4.937844e-03 2.384076e-03
         vertex 6.750000e-03 4.937844e-03 2.384076e-03
         vertex 7.500000e-04 5.150304e-03 2.687500e-03
      endloop
   endfacet
   facet normal 0.000000e+00 -8.191519e-01 5.735766e-01
      outer loop
         vertex 7.500000e-04 5.150304e-03 2.687500e-03
         vertex 6.750000e-03 4.937844e-03 2.384076e-03
         vertex 6.750000e-03 5.150304e-03 2.687500e-03
      endloop
   endfacet
   facet normal 0.000000e+00 -9.063078e-01 4.226182e-01
      outer loop
         vertex 7.500000e-04 5.150304e-03 2.687500e-03
         vertex 6.750000e-03 5.150304e-03 2.687500e-03
         vertex 7.500000e-04 5.306847e-03 3.023207e-03
      endloop
   endfacet
   facet normal 0.000000e+00 -9.063078e-01 4.226182e-01
      outer loop
         vertex 7.500000e-04 5.306847e-03 3.023207e-03
         vertex 6.750000e-03 5.150304e-03 2.687500e-03
         vertex 6.750000e-03 5.306847e-03 3.023207e-03
      endloop
   endfacet
   facet normal 0.000000e+00 -9.659260e-01 2.588185e-01
      outer loop
         vertex 7.500000e-04 5.306847e-03 3.023207e-03
         vertex 6.750000e-03 5.306847e-03 3.023207e-03
         vertex 7.500000e-04 5.402716e-03 3.380998e-03
      endloop
   endfacet
   facet normal 0.000000e+00 -9.659260e-01 2.588185e-01
      outer loop
         vertex 7.500000e-04 5.402716e-03 3.380998e-03
         vertex 6.750000e-03 5.306847e-03 3.023207e-03
         vertex 6.750000e-03 5.402716e-03 3.380998e-03
      endloop
   endfacet
   facet normal 0.000000e+00 -9.961946e-01 8.715657e-02
      outer loop
         vertex 7.500000e-04 5.402716e-03 3.380998e-03
         vertex 6.750000e-03 5.402716e-03 3.380998e-03
         vertex 7.500000e-04 5.435000e-03 3.750000e-03
      endloop
   endfacet
   facet normal 0.000000e+00 -9.961946e-01 8.715657e-02
      outer loop
         vertex 7.500000e-04 5.435000e-03 3.750000e-03
         vertex 6.750000e-03 5.402716e-03 3.380998e-03
         vertex 6.750000e-03 5.435000e-03 3.750000e-03
      endloop
   endfacet
   facet normal 0.000000e+00 -9.961946e-01 -8.715657e-02
      outer loop
         vertex 7.500000e-04 5.435000e-03 3.750000e-03
         vertex 6.750000e-03 5.435000e-03 3.750000e-03
         vertex 7.500000e-04 5.402716e-03 4.119002e-03
      endloop
   endfacet
   facet normal 0.000000e+00 -9.961946e-01 -8.715657e-02
      outer loop
         vertex 7.500000e-04 5.402716e-03 4.119002e-03
         vertex 6.750000e-03 5.435000e-03 3.750000e-03
         vertex 6.750000e-03 5.402716e-03 4.119002e-03
      endloop
   endfacet
   facet normal 0.000000e+00 -9.659260e-01 -2.588185e-01
      outer loop
         vertex 7.500000e-04 5.402716e-03 4.119002e-03
         vertex 6.750000e-03 5.402716e-03 4.119002e-03
         vertex 7.500000e-04 5.306847e-03 4.476793e-03
      endloop
   endfacet
   facet normal 0.000000e+00 -9.659260e-01 -2.588185e-01
      outer loop
         vertex 7.500000e-04 5.306847e-03 4.476793e-03
         vertex 6.750000e-03 5.402716e-03 4.119002e-03
         vertex 6.750000e-03 5.306847e-03 4.476793e-03
      endloop
   endfacet
   facet normal 0.000000e+00 -9.063079e-01 -4.226179e-01
      outer loop
         vertex 7.500000e-04 5.306847e-03 4.476793e-03
         vertex 6.750000e-03 5.306847e-03 4.476793e-03
         vertex 7.500000e-04 5.150304e-03 4.812500e-03
      endloop
   endfacet
   facet normal 0.000000e+00 -9.063079e-01 -4.226179e-01
      outer loop
         vertex 7.500000e-04 5.150304e-03 4.812500e-03
         vertex 6.750000e-03 5.306847e-03 4.476793e-03
         vertex 6.750000e-03 5.150304e-03 4.812500e-03
      endloop
   endfacet
   facet normal 0.000000e+00 -8.191516e-01 -5.735770e-01
      outer loop
         vertex 7.500000e-04 5.150304e-03 4.812500e-03
         vertex 6.750000e-03 5.150304e-03 4.812500e-03
         vertex 7.500000e-04 4.937844e-03 5.115924e-03
      endloop
   endfacet
   facet normal 0.000000e+00 -8.191516e-01 -5.735770e-01
      outer loop
         vertex 7.500000e-04 4.937844e-03 5.115924e-03
         vertex 6.750000e-03 5.150304e-03 4.812500e-03
         vertex 6.750000e-03 4.937844e-03 5.115924e-03
      endloop
   endfacet
   facet normal 0.000000e+00 -7.071073e-01 -7.071063e-01
      outer loop
         vertex 7.500000e-04 4.937844e-03 5.115924e-03
         vertex 6.750000e-03 4.937844e-03 5.115924e-03
         vertex 7.500000e-04 4.675924e-03 5.377845e-03
      endloop
   endfacet
   facet normal 0.000000e+00 -7.071073e-01 -7.071063e-01
      outer loop
         vertex 7.500000e-04 4.675924e-03 5.377845e-03
         vertex 6.750000e-03 4.937844e-03 5.115924e-03
         vertex 6.750000e-03 4.675924e-03 5.377845e-03
      endloop
   endfacet
   facet normal 0.000000e+00 -5.735759e-01 -8.191524e-01
      outer loop
         vertex 7.500000e-04 4.675924e-03 5.377845e-03
         vertex 6.750000e-03 4.675924e-03 5.377845e-03
         vertex 7.500000e-04 4.372500e-03 5.590304e-03
      endloop
   endfacet
   facet normal 0.000000e+00 -5.735759e-01 -8.191524e-01
      outer loop
         vertex 7.500000e-04 4.372500e-03 5.590304e-03
         vertex 6.750000e-03 4.675924e-03 5.377845e-03
         vertex 6.750000e-03 4.372500e-03 5.590304e-03
      endloop
   endfacet
   facet normal 0.000000e+00 -4.226187e-01 -9.063076e-01
      outer loop
         vertex 7.500000e-04 4.372500e-03 5.590304e-03
         vertex 6.750000e-03 4.372500e-03 5.590304e-03
         vertex 7.500000e-04 4.036793e-03 5.746847e-03
      endloop
   endfacet
   facet normal 0.000000e+00 -4.226187e-01 -9.063076e-01
      outer loop
         vertex 7.500000e-04 4.036793e-03 5.746847e-03
         vertex 6.750000e-03 4.372500e-03 5.590304e-03
         vertex 6.750000e-03 4.036793e-03 5.746847e-03
      endloop
   endfacet
   facet normal 0.000000e+00 -2.588189e-01 -9.659259e-01
      outer loop
         vertex 7.500000e-04 4.036793e-03 5.746847e-03
         vertex 6.750000e-03 4.036793e-03 5.746847e-03
         vertex 7.500000e-04 3.679002e-03 5.842717e-03
      endloop
   endfacet
   facet normal 0.000000e+00 -2.588189e-01 -9.659259e-01
      outer loop
         vertex 7.500000e-04 3.679002e-03 5.842717e-03
         vertex 6.750000e-03 4.036793e-03 5.746847e-03
         vertex 6.750000e-03 3.679002e-03 5.842717e-03
      endloop
   endfacet
   facet normal 0.000000e+00 -8.715564e-02 -9.961947e-01
      outer loop
         vertex 7.500000e-04 3.679002e-03 5.842717e-03
         vertex 6.750000e-03 3.679002e-03 5.842717e-03
         vertex 7.500000e-04 3.310000e-03 5.875000e-03
      endloop
   endfacet
   facet normal 0.000000e+00 -8.715564e-02 -9.961947e-01
      outer loop
         vertex 7.500000e-04 3.310000e-03 5.875000e-03
         vertex 6.750000e-03 3.679002e-03 5.842717e-03
         vertex 6.750000e-03 3.310000e-03 5.875000e-03
      endloop
   endfacet
   facet normal 0.000000e+00 8.715564e-02 -9.961947e-01
      outer loop
         vertex 7.500000e-04 3.310000e-03 5.875000e-03
         vertex 6.750000e-03 3.310000e-03 5.875000e-03
         vertex 7.500000e-04 2.940998e-03 5.842717e-03
      endloop
   endfacet
   facet normal 0.000000e+00 8.715564e-02 -9.961947e-01
      outer loop
         vertex 7.500000e-04 2.940998e-03 5.842717e-03
         vertex 6.750000e-03 3.310000e-03 5.875000e-03
         vertex 6.750000e-03 2.940998e-03 5.842717e-03
      endloop
   endfacet
   facet normal 0.000000e+00 2.588189e-01 -9.659259e-01
      outer loop
         vertex 7.500000e-04 2.940998e-03 5.842717e-03
         vertex 6.750000e-03 2.940998e-03 5.842717e-03
         vertex 7.500000e-04 2.583207e-03 5.746847e-03
      endloop
   endfacet
   facet normal 0.000000e+00 2.588189e-01 -9.659259e-01
      outer loop
         vertex 7.500000e-04 2.583207e-03 5.746847e-03
         vertex 6.750000e-03 2.940998e-03 5.842717e-03
         vertex 6.750000e-03 2.583207e-03 5.746847e-03
      endloop
   endfacet
   facet normal 0.000000e+00 4.226184e-01 -9.063077e-01
      outer loop
         vertex 7.500000e-04 2.583207e-03 5.746847e-03
         vertex 6.750000e-03 2.583207e-03 5.746847e-03
         vertex 7.500000e-04 2.247500e-03 5.590304e-03
      endloop
   endfacet
   facet normal 0.000000e+00 4.226184e-01 -9.063077e-01
      outer loop
         vertex 7.500000e-04 2.247500e-03 5.590304e-03
         vertex 6.750000e-03 2.583207e-03 5.746847e-03
         vertex 6.750000e-03 2.247500e-03 5.590304e-03
      endloop
   endfacet
   facet normal 0.000000e+00 5.735764e-01 -8.191521e-01
      outer loop
         vertex 7.500000e-04 2.247500e-03 5.590304e-03
         vertex 6.750000e-03 2.247500e-03 5.590304e-03
         vertex 7.500000e-04 1.944076e-03 5.377845e-03
      endloop
   endfacet
   facet normal 0.000000e+00 5.735764e-01 -8.191521e-01
      outer loop
         vertex 7.500000e-04 1.944076e-03 5.377845e-03
         vertex 6.750000e-03 2.247500e-03 5.590304e-03
         vertex 6.750000e-03 1.944076e-03 5.377845e-03
      endloop
   endfacet
   facet normal 0.000000e+00 7.071068e-01 -7.071068e-01
      outer loop
         vertex 7.500000e-04 1.944076e-03 5.377845e-03
         vertex 6.750000e-03 1.944076e-03 5.377845e-03
         vertex 7.500000e-04 1.682156e-03 5.115924e-03
      endloop
   endfacet
   facet normal 0.000000e+00 7.071068e-01 -7.071068e-01
      outer loop
         vertex 7.500000e-04 1.682156e-03 5.115924e-03
         vertex 6.750000e-03 1.944076e-03 5.377845e-03
         vertex 6.750000e-03 1.682156e-03 5.115924e-03
      endloop
   endfacet
   facet normal 0.000000e+00 8.191521e-01 -5.735764e-01
      outer loop
         vertex 7.500000e-04 1.682156e-03 5.115924e-03
         vertex 6.750000e-03 1.682156e-03 5.115924e-03
         vertex 7.500000e-04 1.469696e-03 4.812500e-03
      endloop
   endfacet
   facet normal 0.000000e+00 8.191521e-01 -5.735764e-01
      outer loop
         vertex 7.500000e-04 1.469696e-03 4.812500e-03
         vertex 6.750000e-03 1.682156e-03 5.115924e-03
         vertex 6.750000e-03 1.469696e-03 4.812500e-03
      endloop
   endfacet
   facet normal 0.000000e+00 9.063078e-01 -4.226182e-01
      outer loop
         vertex 7.500000e-04 1.469696e-03 4.812500e-03
         vertex 6.750000e-03 1.469696e-03 4.812500e-03
         vertex 7.500000e-04 1.313153e-03 4.476793e-03
      endloop
   endfacet
   facet normal 0.000000e+00 9.063078e-01 -4.226182e-01
      outer loop
         vertex 7.500000e-04 1.313153e-03 4.476793e-03
         vertex 6.750000e-03 1.469696e-03 4.812500e-03
         vertex 6.750000e-03 1.313153e-03 4.476793e-03
      endloop
   endfacet
   facet normal 0.000000e+00 9.659258e-01 -2.588191e-01
      outer loop
         vertex 7.500000e-04 1.313153e-03 4.476793e-03
         vertex 6.750000e-03 1.313153e-03 4.476793e-03
         vertex 7.500000e-04 1.217284e-03 4.119002e-03
      endloop
   endfacet
   facet normal 0.000000e+00 9.659258e-01 -2.588191e-01
      outer loop
         vertex 7.500000e-04 1.217284e-03 4.119002e-03
         vertex 6.750000e-03 1.313153e-03 4.476793e-03
         vertex 6.750000e-03 1.217284e-03 4.119002e-03
      endloop
   endfacet
   facet normal 0.000000e+00 9.961947e-01 -8.715595e-02
      outer loop
         vertex 7.500000e-04 1.217284e-03 4.119002e-03
         vertex 6.750000e-03 1.217284e-03 4.119002e-03
         vertex 7.500000e-04 1.185000e-03 3.750000e-03
      endloop
   endfacet
   facet normal 0.000000e+00 9.961947e-01 -8.715595e-02
      outer loop
         vertex 7.500000e-04 1.185000e-03 3.750000e-03
         vertex 6.750000e-03 1.217284e-03 4.119002e-03
         vertex 6.750000e-03 1.185000e-03 3.750000e-03
      endloop
   endfacet
   facet normal -0.000000e+00 9.961947e-01 8.715595e-02
      outer loop
         vertex 7.500000e-04 1.185000e-03 3.750000e-03
         vertex 6.750000e-03 1.185000e-03 3.750000e-03
         vertex 7.500000e-04 1.217284e-03 3.380998e-03
      endloop
   endfacet
   facet normal -0.000000e+00 9.961947e-01 8.715595e-02
      outer loop
         vertex 7.500000e-04 1.217284e-03 3.380998e-03
         vertex 6.750000e-03 1.185000e-03 3.750000e-03
         vertex 6.750000e-03 1.217284e-03 3.380998e-03
      endloop
   endfacet
   facet normal -0.000000e+00 9.659258e-01 2.588191e-01
      outer loop
         vertex 7.500000e-04 1.217284e-03 3.380998e-03
         vertex 6.750000e-03 1.217284e-03 3.380998e-03
         vertex 7.500000e-04 1.313153e-03 3.023207e-03
      endloop
   endfacet
   facet normal -0.000000e+00 9.659258e-01 2.588191e-01
      outer loop
         vertex 7.500000e-04 1.313153e-03 3.023207e-03
         vertex 6.750000e-03 1.217284e-03 3.380998e-03
         vertex 6.750000e-03 1.313153e-03 3.023207e-03
      endloop
   endfacet
   facet normal -0.000000e+00 9.063077e-01 4.226184e-01
      outer loop
         vertex 7.500000e-04 1.313153e-03 3.023207e-03
         vertex 6.750000e-03 1.313153e-03 3.023207e-03
         vertex 7.500000e-04 1.469696e-03 2.687500e-03
      endloop
   endfacet
   facet normal -0.000000e+00 9.063077e-01 4.226184e-01
      outer loop
         vertex 7.500000e-04 1.469696e-03 2.687500e-03
         vertex 6.750000e-03 1.313153e-03 3.023207e-03
         vertex 6.750000e-03 1.469696e-03 2.687500e-03
      endloop
   endfacet
   facet normal -0.000000e+00 8.191524e-01 5.735759e-01
      outer loop
         vertex 7.500000e-04 1.469696e-03 2.687500e-03
         vertex 6.750000e-03 1.469696e-03 2.687500e-03
         vertex 7.500000e-04 1.682156e-03 2.384076e-03
      endloop
   endfacet
   facet normal -0.000000e+00 8.191524e-01 5.735759e-01
      outer loop
         vertex 7.500000e-04 1.682156e-03 2.384076e-03
         vertex 6.750000e-03 1.469696e-03 2.687500e-03
         vertex 6.750000e-03 1.682156e-03 2.384076e-03
      endloop
   endfacet
   facet normal -0.000000e+00 7.071063e-01 7.071073e-01
      outer loop
         vertex 7.500000e-04 1.682156e-03 2.384076e-03
         vertex 6.750000e-03 1.682156e-03 2.384076e-03
         vertex 7.500000e-04 1.944076e-03 2.122156e-03
      endloop
   endfacet
   facet normal -0.000000e+00 7.071063e-01 7.071073e-01
      outer loop
         vertex 7.500000e-04 1.944076e-03 2.122156e-03
         vertex 6.750000e-03 1.682156e-03 2.384076e-03
         vertex 6.750000e-03 1.944076e-03 2.122156e-03
      endloop
   endfacet
   facet normal -0.000000e+00 5.735770e-01 8.191516e-01
      outer loop
         vertex 7.500000e-04 1.944076e-03 2.122156e-03
         vertex 6.750000e-03 1.944076e-03 2.122156e-03
         vertex 7.500000e-04 2.247500e-03 1.909696e-03
      endloop
   endfacet
   facet normal -0.000000e+00 5.735770e-01 8.191516e-01
      outer loop
         vertex 7.500000e-04 2.247500e-03 1.909696e-03
         vertex 6.750000e-03 1.944076e-03 2.122156e-03
         vertex 6.750000e-03 2.247500e-03 1.909696e-03
      endloop
   endfacet
   facet normal -0.000000e+00 4.226182e-01 9.063078e-01
      outer loop
         vertex 7.500000e-04 2.247500e-03 1.909696e-03
         vertex 6.750000e-03 2.247500e-03 1.909696e-03
         vertex 7.500000e-04 2.583207e-03 1.753153e-03
      endloop
   endfacet
   facet normal -0.000000e+00 4.226182e-01 9.063078e-01
      outer loop
         vertex 7.500000e-04 2.583207e-03 1.753153e-03
         vertex 6.750000e-03 2.247500e-03 1.909696e-03
         vertex 6.750000e-03 2.583207e-03 1.753153e-03
      endloop
   endfacet
   facet normal -0.000000e+00 2.588183e-01 9.659260e-01
      outer loop
         vertex 7.500000e-04 2.583207e-03 1.753153e-03
         vertex 6.750000e-03 2.583207e-03 1.753153e-03
         vertex 7.500000e-04 2.940998e-03 1.657284e-03
      endloop
   endfacet
   facet normal -0.000000e+00 2.588183e-01 9.659260e-01
      outer loop
         vertex 7.500000e-04 2.940998e-03 1.657284e-03
         vertex 6.750000e-03 2.583207e-03 1.753153e-03
         vertex 6.750000e-03 2.940998e-03 1.657284e-03
      endloop
   endfacet
   facet normal -0.000000e+00 8.715657e-02 9.961946e-01
      outer loop
         vertex 7.500000e-04 2.940998e-03 1.657284e-03
         vertex 6.750000e-03 2.940998e-03 1.657284e-03
         vertex 7.500000e-04 3.310000e-03 1.625000e-03
      endloop
   endfacet
   facet normal -0.000000e+00 8.715657e-02 9.961946e-01
      outer loop
         vertex 7.500000e-04 3.310000e-03 1.625000e-03
         vertex 6.750000e-03 2.940998e-03 1.657284e-03
         vertex 6.750000e-03 3.310000e-03 1.625000e-03
      endloop
   endfacet
   facet normal 0.000000e+00 -1.000000e+00 0.000000e+00
      outer loop
         vertex 5.024048e-04 8.310000e-03 1.875000e-03
         vertex 7.500000e-04 8.310000e-03 1.500000e-03
         vertex 7.500000e-04 8.310000e-03 6.000000e-03
      endloop
   endfacet
   facet normal 0.000000e+00 -1.000000e+00 0.000000e+00
      outer loop
         vertex 7.500000e-04 8.310000e-03 6.000000e-03
         vertex 5.024048e-04 8.310000e-03 5.625000e-03
         vertex 5.024048e-04 8.310000e-03 1.875000e-03
      endloop
   endfacet
   facet normal 0.000000e+00 -1.000000e+00 0.000000e+00
      outer loop
         vertex 5.024048e-04 8.310000e-03 1.875000e-03
         vertex 5.024048e-04 8.310000e-03 5.625000e-03
         vertex 2.261527e-04 8.310000e-03 5.032576e-03
      endloop
   endfacet
   facet normal 0.000000e+00 -1.000000e+00 0.000000e+00
      outer loop
         vertex 5.024048e-04 8.310000e-03 1.875000e-03
         vertex 2.261527e-04 8.310000e-03 5.032576e-03
         vertex 5.697092e-05 8.310000e-03 4.401181e-03
      endloop
   endfacet
   facet normal 0.000000e+00 -1.000000e+00 0.000000e+00
      outer loop
         vertex 0.000000e+00 8.310000e-03 3.750000e-03
         vertex 5.697092e-05 8.310000e-03 3.098819e-03
         vertex 5.697092e-05 8.310000e-03 4.401181e-03
      endloop
   endfacet
   facet normal 0.000000e+00 -1.000000e+00 0.000000e+00
      outer loop
         vertex 5.697092e-05 8.310000e-03 4.401181e-03
         vertex 5.697092e-05 8.310000e-03 3.098819e-03
         vertex 2.261527e-04 8.310000e-03 2.467425e-03
      endloop
   endfacet
   facet normal 0.000000e+00 -1.000000e+00 0.000000e+00
      outer loop
         vertex 5.697092e-05 8.310000e-03 4.401181e-03
         vertex 2.261527e-04 8.310000e-03 2.467425e-03
         vertex 5.024048e-04 8.310000e-03 1.875000e-03
      endloop
   endfacet
   facet normal 0.000000e+00 -1.000000e+00 0.000000e+00
      outer loop
         vertex 1.500000e-03 8.310000e-03 6.750000e-03
         vertex 6.000000e-03 8.310000e-03 6.750000e-03
         vertex 5.625000e-03 8.310000e-03 6.997595e-03
      endloop
   endfacet
   facet normal 0.000000e+00 -1.000000e+00 0.000000e+00
      outer loop
         vertex 1.500000e-03 8.310000e-03 6.750000e-03
         vertex 5.625000e-03 8.310000e-03 6.997595e-03
         vertex 1.875000e-03 8.310000e-03 6.997595e-03
      endloop
   endfacet
   facet normal 0.000000e+00 -1.000000e+00 0.000000e+00
      outer loop
         vertex 1.875000e-03 8.310000e-03 6.997595e-03
         vertex 5.625000e-03 8.310000e-03 6.997595e-03
         vertex 5.032576e-03 8.310000e-03 7.273848e-03
      endloop
   endfacet
   facet normal 0.000000e+00 -1.000000e+00 0.000000e+00
      outer loop
         vertex 1.875000e-03 8.310000e-03 6.997595e-03
         vertex 5.032576e-03 8.310000e-03 7.273848e-03
         vertex 4.401181e-03 8.310000e-03 7.443029e-03
      endloop
   endfacet
   facet normal -0.000000e+00 -1.000000e+00 0.000000e+00
      outer loop
         vertex 4.401181e-03 8.310000e-03 7.443029e-03
         vertex 3.750000e-03 8.310000e-03 7.500000e-03
         vertex 1.875000e-03 8.310000e-03 6.997595e-03
      endloop
   endfacet
   facet normal 0.000000e+00 -1.000000e+00 0.000000e+00
      outer loop
         vertex 1.875000e-03 8.310000e-03 6.997595e-03
         vertex 3.750000e-03 8.310000e-03 7.500000e-03
         vertex 3.098819e-03 8.310000e-03 7.443029e-03
      endloop
   endfacet
   facet normal 0.000000e+00 -1.000000e+00 0.000000e+00
      outer loop
         vertex 1.875000e-03 8.310000e-03 6.997595e-03
         vertex 3.098819e-03 8.310000e-03 7.443029e-03
         vertex 2.467424e-03 8.310000e-03 7.273848e-03
      endloop
   endfacet
   facet normal 0.000000e+00 -1.000000e+00 0.000000e+00
      outer loop
         vertex 6.750000e-03 8.310000e-03 6.000000e-03
         vertex 6.750000e-03 8.310000e-03 1.500000e-03
         vertex 6.997595e-03 8.310000e-03 1.875000e-03
      endloop
   endfacet
   facet normal 0.000000e+00 -1.000000e+00 0.000000e+00
      outer loop
         vertex 6.750000e-03 8.310000e-03 6.000000e-03
         vertex 6.997595e-03 8.310000e-03 1.875000e-03
         vertex 6.997595e-03 8.310000e-03 5.625000e-03
      endloop
   endfacet
   facet normal 0.000000e+00 -1.000000e+00 0.000000e+00
      outer loop
         vertex 6.997595e-03 8.310000e-03 5.625000e-03
         vertex 6.997595e-03 8.310000e-03 1.875000e-03
         vertex 7.273847e-03 8.310000e-03 2.467425e-03
      endloop
   endfacet
   facet normal 0.000000e+00 -1.000000e+00 0.000000e+00
      outer loop
         vertex 6.997595e-03 8.310000e-03 5.625000e-03
         vertex 7.273847e-03 8.310000e-03 2.467425e-03
         vertex 7.443029e-03 8.310000e-03 3.098819e-03
      endloop
   endfacet
   facet normal -0.000000e+00 -1.000000e+00 0.000000e+00
      outer loop
         vertex 7.500000e-03 8.310000e-03 3.750000e-03
         vertex 7.443029e-03 8.310000e-03 4.401181e-03
         vertex 7.443029e-03 8.310000e-03 3.098819e-03
      endloop
   endfacet
   facet normal 0.000000e+00 -1.000000e+00 0.000000e+00
      outer loop
         vertex 7.443029e-03 8.310000e-03 3.098819e-03
         vertex 7.443029e-03 8.310000e-03 4.401181e-03
         vertex 7.273847e-03 8.310000e-03 5.032576e-03
      endloop
   endfacet
   facet normal 0.000000e+00 -1.000000e+00 0.000000e+00
      outer loop
         vertex 7.443029e-03 8.310000e-03 3.098819e-03
         vertex 7.273847e-03 8.310000e-03 5.032576e-03
         vertex 6.997595e-03 8.310000e-03 5.625000e-03
      endloop
   endfacet
   facet normal 0.000000e+00 -1.000000e+00 0.000000e+00
      outer loop
         vertex 5.625000e-03 8.310000e-03 5.024048e-04
         vertex 6.000000e-03 8.310000e-03 7.500001e-04
         vertex 1.875000e-03 8.310000e-03 5.024048e-04
      endloop
   endfacet
   facet normal 0.000000e+00 -1.000000e+00 0.000000e+00
      outer loop
         vertex 1.875000e-03 8.310000e-03 5.024048e-04
         vertex 6.000000e-03 8.310000e-03 7.500001e-04
         vertex 1.500000e-03 8.310000e-03 7.500001e-04
      endloop
   endfacet
   facet normal 0.000000e+00 -1.000000e+00 0.000000e+00
      outer loop
         vertex 3.098819e-03 8.310000e-03 5.697133e-05
         vertex 3.750000e-03 8.310000e-03 0.000000e+00
         vertex 4.401181e-03 8.310000e-03 5.697133e-05
      endloop
   endfacet
   facet normal 0.000000e+00 -1.000000e+00 0.000000e+00
      outer loop
         vertex 1.875000e-03 8.310000e-03 5.024048e-04
         vertex 2.467424e-03 8.310000e-03 2.261531e-04
         vertex 5.625000e-03 8.310000e-03 5.024048e-04
      endloop
   endfacet
   facet normal 0.000000e+00 -1.000000e+00 0.000000e+00
      outer loop
         vertex 5.625000e-03 8.310000e-03 5.024048e-04
         vertex 2.467424e-03 8.310000e-03 2.261531e-04
         vertex 3.098819e-03 8.310000e-03 5.697133e-05
      endloop
   endfacet
   facet normal 0.000000e+00 -1.000000e+00 0.000000e+00
      outer loop
         vertex 5.625000e-03 8.310000e-03 5.024048e-04
         vertex 3.098819e-03 8.310000e-03 5.697133e-05
         vertex 5.032576e-03 8.310000e-03 2.261531e-04
      endloop
   endfacet
   facet normal 0.000000e+00 -1.000000e+00 0.000000e+00
      outer loop
         vertex 5.032576e-03 8.310000e-03 2.261531e-04
         vertex 3.098819e-03 8.310000e-03 5.697133e-05
         vertex 4.401181e-03 8.310000e-03 5.697133e-05
      endloop
   endfacet
   facet normal -7.833139e-01 7.120873e-04 -6.216259e-01
      outer loop
         vertex 7.500000e-04 8.310000e-03 1.500000e-03
         vertex 5.024048e-04 6.331000e-02 1.875000e-03
         vertex 8.773333e-04 8.310000e-03 1.339547e-03
      endloop
   endfacet
   facet normal -8.191519e-01 0.000000e+00 -5.735767e-01
      outer loop
         vertex 8.773333e-04 8.310000e-03 1.339547e-03
         vertex 5.024048e-04 6.331000e-02 1.875000e-03
         vertex 8.773333e-04 6.331000e-02 1.339547e-03
      endloop
   endfacet
   facet normal -7.071071e-01 0.000000e+00 -7.071065e-01
      outer loop
         vertex 8.773333e-04 8.310000e-03 1.339547e-03
         vertex 8.773333e-04 6.331000e-02 1.339547e-03
         vertex 1.339546e-03 6.331000e-02 8.773333e-04
      endloop
   endfacet
   facet normal -8.345118e-01 0.000000e+00 -5.509900e-01
      outer loop
         vertex 7.500000e-04 8.310000e-03 1.500000e-03
         vertex 5.024048e-04 8.310000e-03 1.875000e-03
         vertex 5.024048e-04 6.331000e-02 1.875000e-03
      endloop
   endfacet
   facet normal -9.063078e-01 -0.000000e+00 -4.226183e-01
      outer loop
         vertex 5.024048e-04 6.331000e-02 1.875000e-03
         vertex 5.024048e-04 8.310000e-03 1.875000e-03
         vertex 2.261527e-04 8.310000e-03 2.467425e-03
      endloop
   endfacet
   facet normal -9.063078e-01 0.000000e+00 -4.226183e-01
      outer loop
         vertex 5.024048e-04 6.331000e-02 1.875000e-03
         vertex 2.261527e-04 8.310000e-03 2.467425e-03
         vertex 2.261527e-04 6.331000e-02 2.467425e-03
      endloop
   endfacet
   facet normal -9.659258e-01 -0.000000e+00 -2.588191e-01
      outer loop
         vertex 2.261527e-04 6.331000e-02 2.467425e-03
         vertex 2.261527e-04 8.310000e-03 2.467425e-03
         vertex 5.697092e-05 8.310000e-03 3.098819e-03
      endloop
   endfacet
   facet normal -9.659258e-01 0.000000e+00 -2.588191e-01
      outer loop
         vertex 2.261527e-04 6.331000e-02 2.467425e-03
         vertex 5.697092e-05 8.310000e-03 3.098819e-03
         vertex 5.697092e-05 6.331000e-02 3.098819e-03
      endloop
   endfacet
   facet normal -9.961947e-01 -0.000000e+00 -8.715573e-02
      outer loop
         vertex 5.697092e-05 6.331000e-02 3.098819e-03
         vertex 5.697092e-05 8.310000e-03 3.098819e-03
         vertex 0.000000e+00 8.310000e-03 3.750000e-03
      endloop
   endfacet
   facet normal -9.961947e-01 0.000000e+00 -8.715573e-02
      outer loop
         vertex 5.697092e-05 6.331000e-02 3.098819e-03
         vertex 0.000000e+00 8.310000e-03 3.750000e-03
         vertex 0.000000e+00 6.331000e-02 3.750000e-03
      endloop
   endfacet
   facet normal -9.961947e-01 0.000000e+00 8.715573e-02
      outer loop
         vertex 0.000000e+00 6.331000e-02 3.750000e-03
         vertex 0.000000e+00 8.310000e-03 3.750000e-03
         vertex 5.697092e-05 8.310000e-03 4.401181e-03
      endloop
   endfacet
   facet normal -9.961947e-01 0.000000e+00 8.715573e-02
      outer loop
         vertex 0.000000e+00 6.331000e-02 3.750000e-03
         vertex 5.697092e-05 8.310000e-03 4.401181e-03
         vertex 5.697092e-05 6.331000e-02 4.401181e-03
      endloop
   endfacet
   facet normal -9.659258e-01 0.000000e+00 2.588191e-01
      outer loop
         vertex 5.697092e-05 6.331000e-02 4.401181e-03
         vertex 5.697092e-05 8.310000e-03 4.401181e-03
         vertex 2.261527e-04 8.310000e-03 5.032576e-03
      endloop
   endfacet
   facet normal -9.659258e-01 0.000000e+00 2.588191e-01
      outer loop
         vertex 5.697092e-05 6.331000e-02 4.401181e-03
         vertex 2.261527e-04 8.310000e-03 5.032576e-03
         vertex 2.261527e-04 6.331000e-02 5.032576e-03
      endloop
   endfacet
   facet normal -9.063078e-01 0.000000e+00 4.226183e-01
      outer loop
         vertex 2.261527e-04 6.331000e-02 5.032576e-03
         vertex 2.261527e-04 8.310000e-03 5.032576e-03
         vertex 5.024048e-04 8.310000e-03 5.625000e-03
      endloop
   endfacet
   facet normal -9.063078e-01 0.000000e+00 4.226183e-01
      outer loop
         vertex 2.261527e-04 6.331000e-02 5.032576e-03
         vertex 5.024048e-04 8.310000e-03 5.625000e-03
         vertex 5.024048e-04 6.331000e-02 5.625000e-03
      endloop
   endfacet
   facet normal -8.345119e-01 0.000000e+00 5.509899e-01
      outer loop
         vertex 5.024048e-04 6.331000e-02 5.625000e-03
         vertex 5.024048e-04 8.310000e-03 5.625000e-03
         vertex 7.500000e-04 8.310000e-03 6.000000e-03
      endloop
   endfacet
   facet normal -8.191520e-01 2.231451e-04 5.735764e-01
      outer loop
         vertex 5.024048e-04 6.331000e-02 5.625000e-03
         vertex 7.500000e-04 8.310000e-03 6.000000e-03
         vertex 8.773333e-04 6.331000e-02 6.160454e-03
      endloop
   endfacet
   facet normal -7.833145e-01 0.000000e+00 6.216256e-01
      outer loop
         vertex 8.773333e-04 6.331000e-02 6.160454e-03
         vertex 7.500000e-04 8.310000e-03 6.000000e-03
         vertex 8.773333e-04 8.310000e-03 6.160454e-03
      endloop
   endfacet
   facet normal -7.071068e-01 0.000000e+00 7.071068e-01
      outer loop
         vertex 8.773333e-04 6.331000e-02 6.160454e-03
         vertex 8.773333e-04 8.310000e-03 6.160454e-03
         vertex 1.339546e-03 8.310000e-03 6.622667e-03
      endloop
   endfacet
   facet normal -6.216255e-01 7.120843e-04 7.833143e-01
      outer loop
         vertex 1.500000e-03 8.310000e-03 6.750000e-03
         vertex 1.875000e-03 6.331000e-02 6.997595e-03
         vertex 1.339546e-03 8.310000e-03 6.622667e-03
      endloop
   endfacet
   facet normal -5.735764e-01 0.000000e+00 8.191520e-01
      outer loop
         vertex 1.339546e-03 8.310000e-03 6.622667e-03
         vertex 1.875000e-03 6.331000e-02 6.997595e-03
         vertex 1.339546e-03 6.331000e-02 6.622667e-03
      endloop
   endfacet
   facet normal -7.071068e-01 0.000000e+00 7.071068e-01
      outer loop
         vertex 1.339546e-03 8.310000e-03 6.622667e-03
         vertex 1.339546e-03 6.331000e-02 6.622667e-03
         vertex 8.773333e-04 6.331000e-02 6.160454e-03
      endloop
   endfacet
   facet normal -5.509899e-01 0.000000e+00 8.345119e-01
      outer loop
         vertex 1.500000e-03 8.310000e-03 6.750000e-03
         vertex 1.875000e-03 8.310000e-03 6.997595e-03
         vertex 1.875000e-03 6.331000e-02 6.997595e-03
      endloop
   endfacet
   facet normal -4.226183e-01 0.000000e+00 9.063078e-01
      outer loop
         vertex 1.875000e-03 6.331000e-02 6.997595e-03
         vertex 1.875000e-03 8.310000e-03 6.997595e-03
         vertex 2.467424e-03 8.310000e-03 7.273848e-03
      endloop
   endfacet
   facet normal -4.226183e-01 0.000000e+00 9.063078e-01
      outer loop
         vertex 1.875000e-03 6.331000e-02 6.997595e-03
         vertex 2.467424e-03 8.310000e-03 7.273848e-03
         vertex 2.467424e-03 6.331000e-02 7.273848e-03
      endloop
   endfacet
   facet normal -2.588191e-01 0.000000e+00 9.659258e-01
      outer loop
         vertex 2.467424e-03 6.331000e-02 7.273848e-03
         vertex 2.467424e-03 8.310000e-03 7.273848e-03
         vertex 3.098819e-03 8.310000e-03 7.443029e-03
      endloop
   endfacet
   facet normal -2.588191e-01 0.000000e+00 9.659258e-01
      outer loop
         vertex 2.467424e-03 6.331000e-02 7.273848e-03
         vertex 3.098819e-03 8.310000e-03 7.443029e-03
         vertex 3.098819e-03 6.331000e-02 7.443029e-03
      endloop
   endfacet
   facet normal -8.715573e-02 0.000000e+00 9.961947e-01
      outer loop
         vertex 3.098819e-03 6.331000e-02 7.443029e-03
         vertex 3.098819e-03 8.310000e-03 7.443029e-03
         vertex 3.750000e-03 8.310000e-03 7.500000e-03
      endloop
   endfacet
   facet normal -8.715573e-02 0.000000e+00 9.961947e-01
      outer loop
         vertex 3.098819e-03 6.331000e-02 7.443029e-03
         vertex 3.750000e-03 8.310000e-03 7.500000e-03
         vertex 3.750000e-03 6.331000e-02 7.500000e-03
      endloop
   endfacet
   facet normal 8.715573e-02 0.000000e+00 9.961947e-01
      outer loop
         vertex 3.750000e-03 6.331000e-02 7.500000e-03
         vertex 3.750000e-03 8.310000e-03 7.500000e-03
         vertex 4.401181e-03 8.310000e-03 7.443029e-03
      endloop
   endfacet
   facet normal 8.715573e-02 0.000000e+00 9.961947e-01
      outer loop
         vertex 3.750000e-03 6.331000e-02 7.500000e-03
         vertex 4.401181e-03 8.310000e-03 7.443029e-03
         vertex 4.401181e-03 6.331000e-02 7.443029e-03
      endloop
   endfacet
   facet normal 2.588191e-01 0.000000e+00 9.659258e-01
      outer loop
         vertex 4.401181e-03 6.331000e-02 7.443029e-03
         vertex 4.401181e-03 8.310000e-03 7.443029e-03
         vertex 5.032576e-03 8.310000e-03 7.273848e-03
      endloop
   endfacet
   facet normal 2.588191e-01 0.000000e+00 9.659258e-01
      outer loop
         vertex 4.401181e-03 6.331000e-02 7.443029e-03
         vertex 5.032576e-03 8.310000e-03 7.273848e-03
         vertex 5.032576e-03 6.331000e-02 7.273848e-03
      endloop
   endfacet
   facet normal 4.226183e-01 0.000000e+00 9.063078e-01
      outer loop
         vertex 5.032576e-03 6.331000e-02 7.273848e-03
         vertex 5.032576e-03 8.310000e-03 7.273848e-03
         vertex 5.625000e-03 8.310000e-03 6.997595e-03
      endloop
   endfacet
   facet normal 4.226183e-01 0.000000e+00 9.063078e-01
      outer loop
         vertex 5.032576e-03 6.331000e-02 7.273848e-03
         vertex 5.625000e-03 8.310000e-03 6.997595e-03
         vertex 5.625000e-03 6.331000e-02 6.997595e-03
      endloop
   endfacet
   facet normal 5.509900e-01 0.000000e+00 8.345118e-01
      outer loop
         vertex 5.625000e-03 6.331000e-02 6.997595e-03
         vertex 5.625000e-03 8.310000e-03 6.997595e-03
         vertex 6.000000e-03 8.310000e-03 6.750000e-03
      endloop
   endfacet
   facet normal 5.735766e-01 2.231460e-04 8.191519e-01
      outer loop
         vertex 5.625000e-03 6.331000e-02 6.997595e-03
         vertex 6.000000e-03 8.310000e-03 6.750000e-03
         vertex 6.160453e-03 6.331000e-02 6.622667e-03
      endloop
   endfacet
   facet normal 6.216261e-01 0.000000e+00 7.833141e-01
      outer loop
         vertex 6.160453e-03 6.331000e-02 6.622667e-03
         vertex 6.000000e-03 8.310000e-03 6.750000e-03
         vertex 6.160453e-03 8.310000e-03 6.622667e-03
      endloop
   endfacet
   facet normal 7.071065e-01 0.000000e+00 7.071071e-01
      outer loop
         vertex 6.160453e-03 6.331000e-02 6.622667e-03
         vertex 6.160453e-03 8.310000e-03 6.622667e-03
         vertex 6.622667e-03 8.310000e-03 6.160454e-03
      endloop
   endfacet
   facet normal 7.833145e-01 7.120790e-04 6.216251e-01
      outer loop
         vertex 6.750000e-03 8.310000e-03 6.000000e-03
         vertex 6.997595e-03 6.331000e-02 5.625000e-03
         vertex 6.622667e-03 8.310000e-03 6.160454e-03
      endloop
   endfacet
   facet normal 8.191520e-01 -0.000000e+00 5.735764e-01
      outer loop
         vertex 6.622667e-03 8.310000e-03 6.160454e-03
         vertex 6.997595e-03 6.331000e-02 5.625000e-03
         vertex 6.622667e-03 6.331000e-02 6.160454e-03
      endloop
   endfacet
   facet normal 7.071065e-01 -0.000000e+00 7.071071e-01
      outer loop
         vertex 6.622667e-03 8.310000e-03 6.160454e-03
         vertex 6.622667e-03 6.331000e-02 6.160454e-03
         vertex 6.160453e-03 6.331000e-02 6.622667e-03
      endloop
   endfacet
   facet normal 8.345118e-01 0.000000e+00 5.509901e-01
      outer loop
         vertex 6.750000e-03 8.310000e-03 6.000000e-03
         vertex 6.997595e-03 8.310000e-03 5.625000e-03
         vertex 6.997595e-03 6.331000e-02 5.625000e-03
      endloop
   endfacet
   facet normal 9.063080e-01 0.000000e+00 4.226178e-01
      outer loop
         vertex 6.997595e-03 6.331000e-02 5.625000e-03
         vertex 6.997595e-03 8.310000e-03 5.625000e-03
         vertex 7.273847e-03 8.310000e-03 5.032576e-03
      endloop
   endfacet
   facet normal 9.063080e-01 0.000000e+00 4.226178e-01
      outer loop
         vertex 6.997595e-03 6.331000e-02 5.625000e-03
         vertex 7.273847e-03 8.310000e-03 5.032576e-03
         vertex 7.273847e-03 6.331000e-02 5.032576e-03
      endloop
   endfacet
   facet normal 9.659258e-01 0.000000e+00 2.588191e-01
      outer loop
         vertex 7.273847e-03 6.331000e-02 5.032576e-03
         vertex 7.273847e-03 8.310000e-03 5.032576e-03
         vertex 7.443029e-03 8.310000e-03 4.401181e-03
      endloop
   endfacet
   facet normal 9.659258e-01 0.000000e+00 2.588191e-01
      outer loop
         vertex 7.273847e-03 6.331000e-02 5.032576e-03
         vertex 7.443029e-03 8.310000e-03 4.401181e-03
         vertex 7.443029e-03 6.331000e-02 4.401181e-03
      endloop
   endfacet
   facet normal 9.961946e-01 0.000000e+00 8.715635e-02
      outer loop
         vertex 7.443029e-03 6.331000e-02 4.401181e-03
         vertex 7.443029e-03 8.310000e-03 4.401181e-03
         vertex 7.500000e-03 8.310000e-03 3.750000e-03
      endloop
   endfacet
   facet normal 9.961946e-01 0.000000e+00 8.715635e-02
      outer loop
         vertex 7.443029e-03 6.331000e-02 4.401181e-03
         vertex 7.500000e-03 8.310000e-03 3.750000e-03
         vertex 7.500000e-03 6.331000e-02 3.750000e-03
      endloop
   endfacet
   facet normal 9.961946e-01 0.000000e+00 -8.715635e-02
      outer loop
         vertex 7.500000e-03 6.331000e-02 3.750000e-03
         vertex 7.500000e-03 8.310000e-03 3.750000e-03
         vertex 7.443029e-03 8.310000e-03 3.098819e-03
      endloop
   endfacet
   facet normal 9.961946e-01 0.000000e+00 -8.715635e-02
      outer loop
         vertex 7.500000e-03 6.331000e-02 3.750000e-03
         vertex 7.443029e-03 8.310000e-03 3.098819e-03
         vertex 7.443029e-03 6.331000e-02 3.098819e-03
      endloop
   endfacet
   facet normal 9.659258e-01 0.000000e+00 -2.588191e-01
      outer loop
         vertex 7.443029e-03 6.331000e-02 3.098819e-03
         vertex 7.443029e-03 8.310000e-03 3.098819e-03
         vertex 7.273847e-03 8.310000e-03 2.467425e-03
      endloop
   endfacet
   facet normal 9.659258e-01 0.000000e+00 -2.588191e-01
      outer loop
         vertex 7.443029e-03 6.331000e-02 3.098819e-03
         vertex 7.273847e-03 8.310000e-03 2.467425e-03
         vertex 7.273847e-03 6.331000e-02 2.467425e-03
      endloop
   endfacet
   facet normal 9.063080e-01 0.000000e+00 -4.226178e-01
      outer loop
         vertex 7.273847e-03 6.331000e-02 2.467425e-03
         vertex 7.273847e-03 8.310000e-03 2.467425e-03
         vertex 6.997595e-03 8.310000e-03 1.875000e-03
      endloop
   endfacet
   facet normal 9.063080e-01 0.000000e+00 -4.226178e-01
      outer loop
         vertex 7.273847e-03 6.331000e-02 2.467425e-03
         vertex 6.997595e-03 8.310000e-03 1.875000e-03
         vertex 6.997595e-03 6.331000e-02 1.875000e-03
      endloop
   endfacet
   facet normal 8.345117e-01 0.000000e+00 -5.509902e-01
      outer loop
         vertex 6.997595e-03 6.331000e-02 1.875000e-03
         vertex 6.997595e-03 8.310000e-03 1.875000e-03
         vertex 6.750000e-03 8.310000e-03 1.500000e-03
      endloop
   endfacet
   facet normal 8.191519e-01 2.231443e-04 -5.735766e-01
      outer loop
         vertex 6.997595e-03 6.331000e-02 1.875000e-03
         vertex 6.750000e-03 8.310000e-03 1.500000e-03
         vertex 6.622667e-03 6.331000e-02 1.339547e-03
      endloop
   endfacet
   facet normal 7.833144e-01 0.000000e+00 -6.216257e-01
      outer loop
         vertex 6.622667e-03 6.331000e-02 1.339547e-03
         vertex 6.750000e-03 8.310000e-03 1.500000e-03
         vertex 6.622667e-03 8.310000e-03 1.339547e-03
      endloop
   endfacet
   facet normal 7.071068e-01 0.000000e+00 -7.071068e-01
      outer loop
         vertex 6.622667e-03 6.331000e-02 1.339547e-03
         vertex 6.622667e-03 8.310000e-03 1.339547e-03
         vertex 6.160453e-03 8.310000e-03 8.773333e-04
      endloop
   endfacet
   facet normal 6.216256e-01 7.120820e-04 -7.833142e-01
      outer loop
         vertex 6.000000e-03 8.310000e-03 7.500001e-04
         vertex 5.625000e-03 6.331000e-02 5.024048e-04
         vertex 6.160453e-03 8.310000e-03 8.773333e-04
      endloop
   endfacet
   facet normal 5.735767e-01 0.000000e+00 -8.191519e-01
      outer loop
         vertex 6.160453e-03 8.310000e-03 8.773333e-04
         vertex 5.625000e-03 6.331000e-02 5.024048e-04
         vertex 6.160453e-03 6.331000e-02 8.773333e-04
      endloop
   endfacet
   facet normal 7.071068e-01 0.000000e+00 -7.071068e-01
      outer loop
         vertex 6.160453e-03 8.310000e-03 8.773333e-04
         vertex 6.160453e-03 6.331000e-02 8.773333e-04
         vertex 6.622667e-03 6.331000e-02 1.339547e-03
      endloop
   endfacet
   facet normal 5.509902e-01 0.000000e+00 -8.345117e-01
      outer loop
         vertex 6.000000e-03 8.310000e-03 7.500001e-04
         vertex 5.625000e-03 8.310000e-03 5.024048e-04
         vertex 5.625000e-03 6.331000e-02 5.024048e-04
      endloop
   endfacet
   facet normal 4.226178e-01 0.000000e+00 -9.063080e-01
      outer loop
         vertex 5.625000e-03 6.331000e-02 5.024048e-04
         vertex 5.625000e-03 8.310000e-03 5.024048e-04
         vertex 5.032576e-03 8.310000e-03 2.261531e-04
      endloop
   endfacet
   facet normal 4.226178e-01 0.000000e+00 -9.063080e-01
      outer loop
         vertex 5.625000e-03 6.331000e-02 5.024048e-04
         vertex 5.032576e-03 8.310000e-03 2.261531e-04
         vertex 5.032576e-03 6.331000e-02 2.261531e-04
      endloop
   endfacet
   facet normal 2.588191e-01 0.000000e+00 -9.659258e-01
      outer loop
         vertex 5.032576e-03 6.331000e-02 2.261531e-04
         vertex 5.032576e-03 8.310000e-03 2.261531e-04
         vertex 4.401181e-03 8.310000e-03 5.697133e-05
      endloop
   endfacet
   facet normal 2.588191e-01 0.000000e+00 -9.659258e-01
      outer loop
         vertex 5.032576e-03 6.331000e-02 2.261531e-04
         vertex 4.401181e-03 8.310000e-03 5.697133e-05
         vertex 4.401181e-03 6.331000e-02 5.697133e-05
      endloop
   endfacet
   facet normal 8.715635e-02 0.000000e+00 -9.961946e-01
      outer loop
         vertex 4.401181e-03 6.331000e-02 5.697133e-05
         vertex 4.401181e-03 8.310000e-03 5.697133e-05
         vertex 3.750000e-03 8.310000e-03 0.000000e+00
      endloop
   endfacet
   facet normal 8.715635e-02 0.000000e+00 -9.961946e-01
      outer loop
         vertex 4.401181e-03 6.331000e-02 5.697133e-05
         vertex 3.750000e-03 8.310000e-03 0.000000e+00
         vertex 3.750000e-03 6.331000e-02 0.000000e+00
      endloop
   endfacet
   facet normal -8.715635e-02 -0.000000e+00 -9.961946e-01
      outer loop
         vertex 3.750000e-03 6.331000e-02 0.000000e+00
         vertex 3.750000e-03 8.310000e-03 0.000000e+00
         vertex 3.098819e-03 8.310000e-03 5.697133e-05
      endloop
   endfacet
   facet normal -8.715635e-02 0.000000e+00 -9.961946e-01
      outer loop
         vertex 3.750000e-03 6.331000e-02 0.000000e+00
         vertex 3.098819e-03 8.310000e-03 5.697133e-05
         vertex 3.098819e-03 6.331000e-02 5.697133e-05
      endloop
   endfacet
   facet normal -2.588191e-01 -0.000000e+00 -9.659258e-01
      outer loop
         vertex 3.098819e-03 6.331000e-02 5.697133e-05
         vertex 3.098819e-03 8.310000e-03 5.697133e-05
         vertex 2.467424e-03 8.310000e-03 2.261531e-04
      endloop
   endfacet
   facet normal -2.588191e-01 0.000000e+00 -9.659258e-01
      outer loop
         vertex 3.098819e-03 6.331000e-02 5.697133e-05
         vertex 2.467424e-03 8.310000e-03 2.261531e-04
         vertex 2.467424e-03 6.331000e-02 2.261531e-04
      endloop
   endfacet
   facet normal -4.226178e-01 -0.000000e+00 -9.063080e-01
      outer loop
         vertex 2.467424e-03 6.331000e-02 2.261531e-04
         vertex 2.467424e-03 8.310000e-03 2.261531e-04
         vertex 1.875000e-03 8.310000e-03 5.024048e-04
      endloop
   endfacet
   facet normal -4.226178e-01 0.000000e+00 -9.063080e-01
      outer loop
         vertex 2.467424e-03 6.331000e-02 2.261531e-04
         vertex 1.875000e-03 8.310000e-03 5.024048e-04
         vertex 1.875000e-03 6.331000e-02 5.024048e-04
      endloop
   endfacet
   facet normal -5.509901e-01 -0.000000e+00 -8.345118e-01
      outer loop
         vertex 1.875000e-03 6.331000e-02 5.024048e-04
         vertex 1.875000e-03 8.310000e-03 5.024048e-04
         vertex 1.500000e-03 8.310000e-03 7.500001e-04
      endloop
   endfacet
   facet normal -5.735764e-01 2.231434e-04 -8.191520e-01
      outer loop
         vertex 1.875000e-03 6.331000e-02 5.024048e-04
         vertex 1.500000e-03 8.310000e-03 7.500001e-04
         vertex 1.339546e-03 6.331000e-02 8.773333e-04
      endloop
   endfacet
   facet normal -6.216253e-01 -0.000000e+00 -7.833147e-01
      outer loop
         vertex 1.339546e-03 6.331000e-02 8.773333e-04
         vertex 1.500000e-03 8.310000e-03 7.500001e-04
         vertex 1.339546e-03 8.310000e-03 8.773333e-04
      endloop
   endfacet
   facet normal -7.071071e-01 -0.000000e+00 -7.071065e-01
      outer loop
         vertex 1.339546e-03 6.331000e-02 8.773333e-04
         vertex 1.339546e-03 8.310000e-03 8.773333e-04
         vertex 8.773333e-04 8.310000e-03 1.339547e-03
      endloop
   endfacet
   facet normal -0.000000e+00 1.000000e+00 0.000000e+00
      outer loop
         vertex 2.467424e-03 6.331000e-02 7.273848e-03
         vertex 3.098819e-03 6.331000e-02 7.443029e-03
         vertex 3.750000e-03 6.331000e-02 3.750000e-03
      endloop
   endfacet
   facet normal 0.000000e+00 1.000000e+00 -0.000000e+00
      outer loop
         vertex 3.750000e-03 6.331000e-02 3.750000e-03
         vertex 3.098819e-03 6.331000e-02 7.443029e-03
         vertex 3.750000e-03 6.331000e-02 7.500000e-03
      endloop
   endfacet
   facet normal 0.000000e+00 1.000000e+00 0.000000e+00
      outer loop
         vertex 3.750000e-03 6.331000e-02 3.750000e-03
         vertex 3.750000e-03 6.331000e-02 7.500000e-03
         vertex 4.401181e-03 6.331000e-02 7.443029e-03
      endloop
   endfacet
   facet normal -0.000000e+00 1.000000e+00 0.000000e+00
      outer loop
         vertex 8.773333e-04 6.331000e-02 6.160454e-03
         vertex 1.339546e-03 6.331000e-02 6.622667e-03
         vertex 3.750000e-03 6.331000e-02 3.750000e-03
      endloop
   endfacet
   facet normal 0.000000e+00 1.000000e+00 0.000000e+00
      outer loop
         vertex 3.750000e-03 6.331000e-02 3.750000e-03
         vertex 1.339546e-03 6.331000e-02 6.622667e-03
         vertex 1.875000e-03 6.331000e-02 6.997595e-03
      endloop
   endfacet
   facet normal 0.000000e+00 1.000000e+00 0.000000e+00
      outer loop
         vertex 3.750000e-03 6.331000e-02 3.750000e-03
         vertex 1.875000e-03 6.331000e-02 6.997595e-03
         vertex 2.467424e-03 6.331000e-02 7.273848e-03
      endloop
   endfacet
   facet normal -0.000000e+00 1.000000e+00 0.000000e+00
      outer loop
         vertex 5.697092e-05 6.331000e-02 4.401181e-03
         vertex 2.261527e-04 6.331000e-02 5.032576e-03
         vertex 3.750000e-03 6.331000e-02 3.750000e-03
      endloop
   endfacet
   facet normal 0.000000e+00 1.000000e+00 0.000000e+00
      outer loop
         vertex 3.750000e-03 6.331000e-02 3.750000e-03
         vertex 2.261527e-04 6.331000e-02 5.032576e-03
         vertex 5.024048e-04 6.331000e-02 5.625000e-03
      endloop
   endfacet
   facet normal 0.000000e+00 1.000000e+00 0.000000e+00
      outer loop
         vertex 3.750000e-03 6.331000e-02 3.750000e-03
         vertex 5.024048e-04 6.331000e-02 5.625000e-03
         vertex 8.773333e-04 6.331000e-02 6.160454e-03
      endloop
   endfacet
   facet normal 0.000000e+00 1.000000e+00 -0.000000e+00
      outer loop
         vertex 2.261527e-04 6.331000e-02 2.467425e-03
         vertex 5.697092e-05 6.331000e-02 3.098819e-03
         vertex 3.750000e-03 6.331000e-02 3.750000e-03
      endloop
   endfacet
   facet normal 0.000000e+00 1.000000e+00 0.000000e+00
      outer loop
         vertex 3.750000e-03 6.331000e-02 3.750000e-03
         vertex 5.697092e-05 6.331000e-02 3.098819e-03
         vertex 0.000000e+00 6.331000e-02 3.750000e-03
      endloop
   endfacet
   facet normal 0.000000e+00 1.000000e+00 0.000000e+00
      outer loop
         vertex 3.750000e-03 6.331000e-02 3.750000e-03
         vertex 0.000000e+00 6.331000e-02 3.750000e-03
         vertex 5.697092e-05 6.331000e-02 4.401181e-03
      endloop
   endfacet
   facet normal 0.000000e+00 1.000000e+00 -0.000000e+00
      outer loop
         vertex 1.339546e-03 6.331000e-02 8.773333e-04
         vertex 8.773333e-04 6.331000e-02 1.339547e-03
         vertex 3.750000e-03 6.331000e-02 3.750000e-03
      endloop
   endfacet
   facet normal 0.000000e+00 1.000000e+00 0.000000e+00
      outer loop
         vertex 3.750000e-03 6.331000e-02 3.750000e-03
         vertex 8.773333e-04 6.331000e-02 1.339547e-03
         vertex 5.024048e-04 6.331000e-02 1.875000e-03
      endloop
   endfacet
   facet normal 0.000000e+00 1.000000e+00 0.000000e+00
      outer loop
         vertex 3.750000e-03 6.331000e-02 3.750000e-03
         vertex 5.024048e-04 6.331000e-02 1.875000e-03
         vertex 2.261527e-04 6.331000e-02 2.467425e-03
      endloop
   endfacet
   facet normal 0.000000e+00 1.000000e+00 -0.000000e+00
      outer loop
         vertex 3.098819e-03 6.331000e-02 5.697133e-05
         vertex 2.467424e-03 6.331000e-02 2.261531e-04
         vertex 3.750000e-03 6.331000e-02 3.750000e-03
      endloop
   endfacet
   facet normal 0.000000e+00 1.000000e+00 0.000000e+00
      outer loop
         vertex 3.750000e-03 6.331000e-02 3.750000e-03
         vertex 2.467424e-03 6.331000e-02 2.261531e-04
         vertex 1.875000e-03 6.331000e-02 5.024048e-04
      endloop
   endfacet
   facet normal 0.000000e+00 1.000000e+00 0.000000e+00
      outer loop
         vertex 3.750000e-03 6.331000e-02 3.750000e-03
         vertex 1.875000e-03 6.331000e-02 5.024048e-04
         vertex 1.339546e-03 6.331000e-02 8.773333e-04
      endloop
   endfacet
   facet normal 0.000000e+00 1.000000e+00 0.000000e+00
      outer loop
         vertex 5.032576e-03 6.331000e-02 2.261531e-04
         vertex 4.401181e-03 6.331000e-02 5.697133e-05
         vertex 3.750000e-03 6.331000e-02 3.750000e-03
      endloop
   endfacet
   facet normal 0.000000e+00 1.000000e+00 0.000000e+00
      outer loop
         vertex 3.750000e-03 6.331000e-02 3.750000e-03
         vertex 4.401181e-03 6.331000e-02 5.697133e-05
         vertex 3.750000e-03 6.331000e-02 0.000000e+00
      endloop
   endfacet
   facet normal 0.000000e+00 1.000000e+00 0.000000e+00
      outer loop
         vertex 3.750000e-03 6.331000e-02 3.750000e-03
         vertex 3.750000e-03 6.331000e-02 0.000000e+00
         vertex 3.098819e-03 6.331000e-02 5.697133e-05
      endloop
   endfacet
   facet normal 0.000000e+00 1.000000e+00 0.000000e+00
      outer loop
         vertex 6.622667e-03 6.331000e-02 1.339547e-03
         vertex 6.160453e-03 6.331000e-02 8.773333e-04
         vertex 3.750000e-03 6.331000e-02 3.750000e-03
      endloop
   endfacet
   facet normal 0.000000e+00 1.000000e+00 0.000000e+00
      outer loop
         vertex 3.750000e-03 6.331000e-02 3.750000e-03
         vertex 6.160453e-03 6.331000e-02 8.773333e-04
         vertex 5.625000e-03 6.331000e-02 5.024048e-04
      endloop
   endfacet
   facet normal 0.000000e+00 1.000000e+00 0.000000e+00
      outer loop
         vertex 3.750000e-03 6.331000e-02 3.750000e-03
         vertex 5.625000e-03 6.331000e-02 5.024048e-04
         vertex 5.032576e-03 6.331000e-02 2.261531e-04
      endloop
   endfacet
   facet normal 0.000000e+00 1.000000e+00 0.000000e+00
      outer loop
         vertex 7.443029e-03 6.331000e-02 3.098819e-03
         vertex 7.273847e-03 6.331000e-02 2.467425e-03
         vertex 3.750000e-03 6.331000e-02 3.750000e-03
      endloop
   endfacet
   facet normal 0.000000e+00 1.000000e+00 0.000000e+00
      outer loop
         vertex 3.750000e-03 6.331000e-02 3.750000e-03
         vertex 7.273847e-03 6.331000e-02 2.467425e-03
         vertex 6.997595e-03 6.331000e-02 1.875000e-03
      endloop
   endfacet
   facet normal 0.000000e+00 1.000000e+00 0.000000e+00
      outer loop
         vertex 3.750000e-03 6.331000e-02 3.750000e-03
         vertex 6.997595e-03 6.331000e-02 1.875000e-03
         vertex 6.622667e-03 6.331000e-02 1.339547e-03
      endloop
   endfacet
   facet normal 0.000000e+00 1.000000e+00 0.000000e+00
      outer loop
         vertex 7.273847e-03 6.331000e-02 5.032576e-03
         vertex 7.443029e-03 6.331000e-02 4.401181e-03
         vertex 3.750000e-03 6.331000e-02 3.750000e-03
      endloop
   endfacet
   facet normal 0.000000e+00 1.000000e+00 0.000000e+00
      outer loop
         vertex 3.750000e-03 6.331000e-02 3.750000e-03
         vertex 7.443029e-03 6.331000e-02 4.401181e-03
         vertex 7.500000e-03 6.331000e-02 3.750000e-03
      endloop
   endfacet
   facet normal -0.000000e+00 1.000000e+00 0.000000e+00
      outer loop
         vertex 3.750000e-03 6.331000e-02 3.750000e-03
         vertex 7.500000e-03 6.331000e-02 3.750000e-03
         vertex 7.443029e-03 6.331000e-02 3.098819e-03
      endloop
   endfacet
   facet normal 0.000000e+00 1.000000e+00 0.000000e+00
      outer loop
         vertex 6.160453e-03 6.331000e-02 6.622667e-03
         vertex 6.622667e-03 6.331000e-02 6.160454e-03
         vertex 3.750000e-03 6.331000e-02 3.750000e-03
      endloop
   endfacet
   facet normal 0.000000e+00 1.000000e+00 0.000000e+00
      outer loop
         vertex 3.750000e-03 6.331000e-02 3.750000e-03
         vertex 6.622667e-03 6.331000e-02 6.160454e-03
         vertex 6.997595e-03 6.331000e-02 5.625000e-03
      endloop
   endfacet
   facet normal 0.000000e+00 1.000000e+00 0.000000e+00
      outer loop
         vertex 3.750000e-03 6.331000e-02 3.750000e-03
         vertex 6.997595e-03 6.331000e-02 5.625000e-03
         vertex 7.273847e-03 6.331000e-02 5.032576e-03
      endloop
   endfacet
   facet normal 0.000000e+00 1.000000e+00 0.000000e+00
      outer loop
         vertex 4.401181e-03 6.331000e-02 7.443029e-03
         vertex 5.032576e-03 6.331000e-02 7.273848e-03
         vertex 3.750000e-03 6.331000e-02 3.750000e-03
      endloop
   endfacet
   facet normal 0.000000e+00 1.000000e+00 0.000000e+00
      outer loop
         vertex 3.750000e-03 6.331000e-02 3.750000e-03
         vertex 5.032576e-03 6.331000e-02 7.273848e-03
         vertex 5.625000e-03 6.331000e-02 6.997595e-03
      endloop
   endfacet
   facet normal 0.000000e+00 1.000000e+00 0.000000e+00
      outer loop
         vertex 3.750000e-03 6.331000e-02 3.750000e-03
         vertex 5.625000e-03 6.331000e-02 6.997595e-03
         vertex 6.160453e-03 6.331000e-02 6.622667e-03
      endloop
   endfacet
endsolid