solid Gimbal Ring Pin (For 3D Print)
   facet normal 8.715566e-02 -9.961947e-01 0.000000e+00
      outer loop
         vertex 3.175000e-03 4.127505e-05 2.540000e-02
         vertex 3.719166e-03 8.888333e-05 1.651000e-02
         vertex 3.719166e-03 8.888333e-05 2.540000e-02
      endloop
   endfacet
   facet normal 2.588188e-01 -9.659259e-01 0.000000e+00
      outer loop
         vertex 3.719166e-03 8.888333e-05 2.540000e-02
         vertex 3.719166e-03 8.888333e-05 1.651000e-02
         vertex 4.246797e-03 2.302616e-04 1.651000e-02
      endloop
   endfacet
   facet normal 2.588188e-01 -9.659259e-01 0.000000e+00
      outer loop
         vertex 3.719166e-03 8.888333e-05 2.540000e-02
         vertex 4.246797e-03 2.302616e-04 1.651000e-02
         vertex 4.246797e-03 2.302616e-04 2.540000e-02
      endloop
   endfacet
   facet normal 4.226186e-01 -9.063076e-01 0.000000e+00
      outer loop
         vertex 4.246797e-03 2.302616e-04 2.540000e-02
         vertex 4.246797e-03 2.302616e-04 1.651000e-02
         vertex 4.741862e-03 4.611146e-04 1.651000e-02
      endloop
   endfacet
   facet normal 4.226186e-01 -9.063076e-01 0.000000e+00
      outer loop
         vertex 4.246797e-03 2.302616e-04 2.540000e-02
         vertex 4.741862e-03 4.611146e-04 1.651000e-02
         vertex 4.741862e-03 4.611146e-04 2.540000e-02
      endloop
   endfacet
   facet normal 5.735763e-01 -8.191522e-01 0.000000e+00
      outer loop
         vertex 4.741862e-03 4.611146e-04 2.540000e-02
         vertex 4.741862e-03 4.611146e-04 1.651000e-02
         vertex 5.189320e-03 7.744273e-04 1.651000e-02
      endloop
   endfacet
   facet normal 5.735763e-01 -8.191522e-01 0.000000e+00
      outer loop
         vertex 4.741862e-03 4.611146e-04 2.540000e-02
         vertex 5.189320e-03 7.744273e-04 1.651000e-02
         vertex 5.189320e-03 7.744273e-04 2.540000e-02
      endloop
   endfacet
   facet normal 7.071068e-01 -7.071068e-01 0.000000e+00
      outer loop
         vertex 5.189320e-03 7.744273e-04 2.540000e-02
         vertex 5.189320e-03 7.744273e-04 1.651000e-02
         vertex 5.575573e-03 1.160680e-03 1.651000e-02
      endloop
   endfacet
   facet normal 7.071068e-01 -7.071068e-01 0.000000e+00
      outer loop
         vertex 5.189320e-03 7.744273e-04 2.540000e-02
         vertex 5.575573e-03 1.160680e-03 1.651000e-02
         vertex 5.575573e-03 1.160680e-03 2.540000e-02
      endloop
   endfacet
   facet normal 8.191522e-01 -5.735763e-01 0.000000e+00
      outer loop
         vertex 5.575573e-03 1.160680e-03 2.540000e-02
         vertex 5.575573e-03 1.160680e-03 1.651000e-02
         vertex 5.888885e-03 1.608138e-03 1.651000e-02
      endloop
   endfacet
   facet normal 8.191522e-01 -5.735763e-01 0.000000e+00
      outer loop
         vertex 5.575573e-03 1.160680e-03 2.540000e-02
         vertex 5.888885e-03 1.608138e-03 1.651000e-02
         vertex 5.888885e-03 1.608138e-03 2.540000e-02
      endloop
   endfacet
   facet normal 9.063076e-01 -4.226186e-01 0.000000e+00
      outer loop
         vertex 5.888885e-03 1.608138e-03 2.540000e-02
         vertex 5.888885e-03 1.608138e-03 1.651000e-02
         vertex 6.119738e-03 2.103203e-03 1.651000e-02
      endloop
   endfacet
   facet normal 9.063076e-01 -4.226186e-01 0.000000e+00
      outer loop
         vertex 5.888885e-03 1.608138e-03 2.540000e-02
         vertex 6.119738e-03 2.103203e-03 1.651000e-02
         vertex 6.119738e-03 2.103203e-03 2.540000e-02
      endloop
   endfacet
   facet normal 9.659259e-01 -2.588188e-01 0.000000e+00
      outer loop
         vertex 6.119738e-03 2.103203e-03 2.540000e-02
         vertex 6.119738e-03 2.103203e-03 1.651000e-02
         vertex 6.261117e-03 2.630834e-03 1.651000e-02
      endloop
   endfacet
   facet normal 9.659259e-01 -2.588188e-01 0.000000e+00
      outer loop
         vertex 6.119738e-03 2.103203e-03 2.540000e-02
         vertex 6.261117e-03 2.630834e-03 1.651000e-02
         vertex 6.261117e-03 2.630834e-03 2.540000e-02
      endloop
   endfacet
   facet normal 9.961947e-01 -8.715566e-02 0.000000e+00
      outer loop
         vertex 6.261117e-03 2.630834e-03 2.540000e-02
         vertex 6.261117e-03 2.630834e-03 1.651000e-02
         vertex 6.308725e-03 3.175000e-03 1.651000e-02
      endloop
   endfacet
   facet normal 9.961947e-01 -8.715566e-02 0.000000e+00
      outer loop
         vertex 6.261117e-03 2.630834e-03 2.540000e-02
         vertex 6.308725e-03 3.175000e-03 1.651000e-02
         vertex 6.308725e-03 3.175000e-03 2.540000e-02
      endloop
   endfacet
   facet normal 9.961947e-01 8.715566e-02 0.000000e+00
      outer loop
         vertex 6.308725e-03 3.175000e-03 2.540000e-02
         vertex 6.308725e-03 3.175000e-03 1.651000e-02
         vertex 6.261117e-03 3.719166e-03 1.651000e-02
      endloop
   endfacet
   facet normal 9.961947e-01 8.715566e-02 0.000000e+00
      outer loop
         vertex 6.308725e-03 3.175000e-03 2.540000e-02
         vertex 6.261117e-03 3.719166e-03 1.651000e-02
         vertex 6.261117e-03 3.719166e-03 2.540000e-02
      endloop
   endfacet
   facet normal 9.659259e-01 2.588188e-01 0.000000e+00
      outer loop
         vertex 6.261117e-03 3.719166e-03 2.540000e-02
         vertex 6.261117e-03 3.719166e-03 1.651000e-02
         vertex 6.119738e-03 4.246797e-03 1.651000e-02
      endloop
   endfacet
   facet normal 9.659259e-01 2.588188e-01 0.000000e+00
      outer loop
         vertex 6.261117e-03 3.719166e-03 2.540000e-02
         vertex 6.119738e-03 4.246797e-03 1.651000e-02
         vertex 6.119738e-03 4.246797e-03 2.540000e-02
      endloop
   endfacet
   facet normal 9.063076e-01 4.226186e-01 0.000000e+00
      outer loop
         vertex 6.119738e-03 4.246797e-03 2.540000e-02
         vertex 6.119738e-03 4.246797e-03 1.651000e-02
         vertex 5.888885e-03 4.741862e-03 1.651000e-02
      endloop
   endfacet
   facet normal 9.063076e-01 4.226186e-01 0.000000e+00
      outer loop
         vertex 6.119738e-03 4.246797e-03 2.540000e-02
         vertex 5.888885e-03 4.741862e-03 1.651000e-02
         vertex 5.888885e-03 4.741862e-03 2.540000e-02
      endloop
   endfacet
   facet normal 8.191522e-01 5.735763e-01 0.000000e+00
      outer loop
         vertex 5.888885e-03 4.741862e-03 2.540000e-02
         vertex 5.888885e-03 4.741862e-03 1.651000e-02
         vertex 5.575573e-03 5.189320e-03 1.651000e-02
      endloop
   endfacet
   facet normal 8.191522e-01 5.735763e-01 0.000000e+00
      outer loop
         vertex 5.888885e-03 4.741862e-03 2.540000e-02
         vertex 5.575573e-03 5.189320e-03 1.651000e-02
         vertex 5.575573e-03 5.189320e-03 2.540000e-02
      endloop
   endfacet
   facet normal 7.071068e-01 7.071068e-01 0.000000e+00
      outer loop
         vertex 5.575573e-03 5.189320e-03 2.540000e-02
         vertex 5.575573e-03 5.189320e-03 1.651000e-02
         vertex 5.189320e-03 5.575573e-03 1.651000e-02
      endloop
   endfacet
   facet normal 7.071068e-01 7.071068e-01 0.000000e+00
      outer loop
         vertex 5.575573e-03 5.189320e-03 2.540000e-02
         vertex 5.189320e-03 5.575573e-03 1.651000e-02
         vertex 5.189320e-03 5.575573e-03 2.540000e-02
      endloop
   endfacet
   facet normal 5.735763e-01 8.191522e-01 0.000000e+00
      outer loop
         vertex 5.189320e-03 5.575573e-03 2.540000e-02
         vertex 5.189320e-03 5.575573e-03 1.651000e-02
         vertex 4.741862e-03 5.888885e-03 1.651000e-02
      endloop
   endfacet
   facet normal 5.735763e-01 8.191522e-01 0.000000e+00
      outer loop
         vertex 5.189320e-03 5.575573e-03 2.540000e-02
         vertex 4.741862e-03 5.888885e-03 1.651000e-02
         vertex 4.741862e-03 5.888885e-03 2.540000e-02
      endloop
   endfacet
   facet normal 4.226186e-01 9.063076e-01 0.000000e+00
      outer loop
         vertex 4.741862e-03 5.888885e-03 2.540000e-02
         vertex 4.741862e-03 5.888885e-03 1.651000e-02
         vertex 4.246797e-03 6.119738e-03 1.651000e-02
      endloop
   endfacet
   facet normal 4.226186e-01 9.063076e-01 0.000000e+00
      outer loop
         vertex 4.741862e-03 5.888885e-03 2.540000e-02
         vertex 4.246797e-03 6.119738e-03 1.651000e-02
         vertex 4.246797e-03 6.119738e-03 2.540000e-02
      endloop
   endfacet
   facet normal 2.588188e-01 9.659259e-01 0.000000e+00
      outer loop
         vertex 4.246797e-03 6.119738e-03 2.540000e-02
         vertex 4.246797e-03 6.119738e-03 1.651000e-02
         vertex 3.719166e-03 6.261117e-03 1.651000e-02
      endloop
   endfacet
   facet normal 2.588188e-01 9.659259e-01 0.000000e+00
      outer loop
         vertex 4.246797e-03 6.119738e-03 2.540000e-02
         vertex 3.719166e-03 6.261117e-03 1.651000e-02
         vertex 3.719166e-03 6.261117e-03 2.540000e-02
      endloop
   endfacet
   facet normal 8.715566e-02 9.961947e-01 0.000000e+00
      outer loop
         vertex 3.719166e-03 6.261117e-03 2.540000e-02
         vertex 3.719166e-03 6.261117e-03 1.651000e-02
         vertex 3.175000e-03 6.308725e-03 1.651000e-02
      endloop
   endfacet
   facet normal 8.715566e-02 9.961947e-01 0.000000e+00
      outer loop
         vertex 3.719166e-03 6.261117e-03 2.540000e-02
         vertex 3.175000e-03 6.308725e-03 1.651000e-02
         vertex 3.175000e-03 6.308725e-03 2.540000e-02
      endloop
   endfacet
   facet normal -8.715566e-02 9.961947e-01 0.000000e+00
      outer loop
         vertex 3.175000e-03 6.308725e-03 2.540000e-02
         vertex 3.175000e-03 6.308725e-03 1.651000e-02
         vertex 2.630834e-03 6.261117e-03 1.651000e-02
      endloop
   endfacet
   facet normal -8.715566e-02 9.961947e-01 0.000000e+00
      outer loop
         vertex 3.175000e-03 6.308725e-03 2.540000e-02
         vertex 2.630834e-03 6.261117e-03 1.651000e-02
         vertex 2.630834e-03 6.261117e-03 2.540000e-02
      endloop
   endfacet
   facet normal -2.588188e-01 9.659259e-01 0.000000e+00
      outer loop
         vertex 2.630834e-03 6.261117e-03 2.540000e-02
         vertex 2.630834e-03 6.261117e-03 1.651000e-02
         vertex 2.103203e-03 6.119738e-03 1.651000e-02
      endloop
   endfacet
   facet normal -2.588188e-01 9.659259e-01 0.000000e+00
      outer loop
         vertex 2.630834e-03 6.261117e-03 2.540000e-02
         vertex 2.103203e-03 6.119738e-03 1.651000e-02
         vertex 2.103203e-03 6.119738e-03 2.540000e-02
      endloop
   endfacet
   facet normal -4.226186e-01 9.063076e-01 0.000000e+00
      outer loop
         vertex 2.103203e-03 6.119738e-03 2.540000e-02
         vertex 2.103203e-03 6.119738e-03 1.651000e-02
         vertex 1.608138e-03 5.888885e-03 1.651000e-02
      endloop
   endfacet
   facet normal -4.226186e-01 9.063076e-01 0.000000e+00
      outer loop
         vertex 2.103203e-03 6.119738e-03 2.540000e-02
         vertex 1.608138e-03 5.888885e-03 1.651000e-02
         vertex 1.608138e-03 5.888885e-03 2.540000e-02
      endloop
   endfacet
   facet normal -5.735763e-01 8.191522e-01 0.000000e+00
      outer loop
         vertex 1.608138e-03 5.888885e-03 2.540000e-02
         vertex 1.608138e-03 5.888885e-03 1.651000e-02
         vertex 1.160680e-03 5.575573e-03 1.651000e-02
      endloop
   endfacet
   facet normal -5.735763e-01 8.191522e-01 0.000000e+00
      outer loop
         vertex 1.608138e-03 5.888885e-03 2.540000e-02
         vertex 1.160680e-03 5.575573e-03 1.651000e-02
         vertex 1.160680e-03 5.575573e-03 2.540000e-02
      endloop
   endfacet
   facet normal -7.071068e-01 7.071068e-01 0.000000e+00
      outer loop
         vertex 1.160680e-03 5.575573e-03 2.540000e-02
         vertex 1.160680e-03 5.575573e-03 1.651000e-02
         vertex 7.744273e-04 5.189320e-03 1.651000e-02
      endloop
   endfacet
   facet normal -7.071068e-01 7.071068e-01 0.000000e+00
      outer loop
         vertex 1.160680e-03 5.575573e-03 2.540000e-02
         vertex 7.744273e-04 5.189320e-03 1.651000e-02
         vertex 7.744273e-04 5.189320e-03 2.540000e-02
      endloop
   endfacet
   facet normal -8.191522e-01 5.735763e-01 0.000000e+00
      outer loop
         vertex 7.744273e-04 5.189320e-03 2.540000e-02
         vertex 7.744273e-04 5.189320e-03 1.651000e-02
         vertex 4.611146e-04 4.741862e-03 1.651000e-02
      endloop
   endfacet
   facet normal -8.191522e-01 5.735763e-01 0.000000e+00
      outer loop
         vertex 7.744273e-04 5.189320e-03 2.540000e-02
         vertex 4.611146e-04 4.741862e-03 1.651000e-02
         vertex 4.611146e-04 4.741862e-03 2.540000e-02
      endloop
   endfacet
   facet normal -9.063076e-01 4.226186e-01 0.000000e+00
      outer loop
         vertex 4.611146e-04 4.741862e-03 2.540000e-02
         vertex 4.611146e-04 4.741862e-03 1.651000e-02
         vertex 2.302616e-04 4.246797e-03 1.651000e-02
      endloop
   endfacet
   facet normal -9.063076e-01 4.226186e-01 0.000000e+00
      outer loop
         vertex 4.611146e-04 4.741862e-03 2.540000e-02
         vertex 2.302616e-04 4.246797e-03 1.651000e-02
         vertex 2.302616e-04 4.246797e-03 2.540000e-02
      endloop
   endfacet
   facet normal -9.659259e-01 2.588188e-01 0.000000e+00
      outer loop
         vertex 2.302616e-04 4.246797e-03 2.540000e-02
         vertex 2.302616e-04 4.246797e-03 1.651000e-02
         vertex 8.888333e-05 3.719166e-03 1.651000e-02
      endloop
   endfacet
   facet normal -9.659259e-01 2.588188e-01 0.000000e+00
      outer loop
         vertex 2.302616e-04 4.246797e-03 2.540000e-02
         vertex 8.888333e-05 3.719166e-03 1.651000e-02
         vertex 8.888333e-05 3.719166e-03 2.540000e-02
      endloop
   endfacet
   facet normal -9.961947e-01 8.715566e-02 0.000000e+00
      outer loop
         vertex 8.888333e-05 3.719166e-03 2.540000e-02
         vertex 8.888333e-05 3.719166e-03 1.651000e-02
         vertex 4.127505e-05 3.175000e-03 1.651000e-02
      endloop
   endfacet
   facet normal -9.961947e-01 8.715566e-02 0.000000e+00
      outer loop
         vertex 8.888333e-05 3.719166e-03 2.540000e-02
         vertex 4.127505e-05 3.175000e-03 1.651000e-02
         vertex 4.127505e-05 3.175000e-03 2.540000e-02
      endloop
   endfacet
   facet normal -9.961947e-01 -8.715566e-02 -0.000000e+00
      outer loop
         vertex 4.127505e-05 3.175000e-03 2.540000e-02
         vertex 4.127505e-05 3.175000e-03 1.651000e-02
         vertex 8.888333e-05 2.630834e-03 1.651000e-02
      endloop
   endfacet
   facet normal -9.961947e-01 -8.715566e-02 0.000000e+00
      outer loop
         vertex 4.127505e-05 3.175000e-03 2.540000e-02
         vertex 8.888333e-05 2.630834e-03 1.651000e-02
         vertex 8.888333e-05 2.630834e-03 2.540000e-02
      endloop
   endfacet
   facet normal -9.659259e-01 -2.588188e-01 -0.000000e+00
      outer loop
         vertex 8.888333e-05 2.630834e-03 2.540000e-02
         vertex 8.888333e-05 2.630834e-03 1.651000e-02
         vertex 2.302616e-04 2.103203e-03 1.651000e-02
      endloop
   endfacet
   facet normal -9.659259e-01 -2.588188e-01 0.000000e+00
      outer loop
         vertex 8.888333e-05 2.630834e-03 2.540000e-02
         vertex 2.302616e-04 2.103203e-03 1.651000e-02
         vertex 2.302616e-04 2.103203e-03 2.540000e-02
      endloop
   endfacet
   facet normal -9.063076e-01 -4.226186e-01 -0.000000e+00
      outer loop
         vertex 2.302616e-04 2.103203e-03 2.540000e-02
         vertex 2.302616e-04 2.103203e-03 1.651000e-02
         vertex 4.611146e-04 1.608138e-03 1.651000e-02
      endloop
   endfacet
   facet normal -9.063076e-01 -4.226186e-01 0.000000e+00
      outer loop
         vertex 2.302616e-04 2.103203e-03 2.540000e-02
         vertex 4.611146e-04 1.608138e-03 1.651000e-02
         vertex 4.611146e-04 1.608138e-03 2.540000e-02
      endloop
   endfacet
   facet normal -8.191522e-01 -5.735763e-01 -0.000000e+00
      outer loop
         vertex 4.611146e-04 1.608138e-03 2.540000e-02
         vertex 4.611146e-04 1.608138e-03 1.651000e-02
         vertex 7.744273e-04 1.160680e-03 1.651000e-02
      endloop
   endfacet
   facet normal -8.191522e-01 -5.735763e-01 0.000000e+00
      outer loop
         vertex 4.611146e-04 1.608138e-03 2.540000e-02
         vertex 7.744273e-04 1.160680e-03 1.651000e-02
         vertex 7.744273e-04 1.160680e-03 2.540000e-02
      endloop
   endfacet
   facet normal -7.071068e-01 -7.071068e-01 -0.000000e+00
      outer loop
         vertex 7.744273e-04 1.160680e-03 2.540000e-02
         vertex 7.744273e-04 1.160680e-03 1.651000e-02
         vertex 1.160680e-03 7.744273e-04 1.651000e-02
      endloop
   endfacet
   facet normal -7.071068e-01 -7.071068e-01 0.000000e+00
      outer loop
         vertex 7.744273e-04 1.160680e-03 2.540000e-02
         vertex 1.160680e-03 7.744273e-04 1.651000e-02
         vertex 1.160680e-03 7.744273e-04 2.540000e-02
      endloop
   endfacet
   facet normal -5.735763e-01 -8.191522e-01 -0.000000e+00
      outer loop
         vertex 1.160680e-03 7.744273e-04 2.540000e-02
         vertex 1.160680e-03 7.744273e-04 1.651000e-02
         vertex 1.608138e-03 4.611146e-04 1.651000e-02
      endloop
   endfacet
   facet normal -5.735763e-01 -8.191522e-01 0.000000e+00
      outer loop
         vertex 1.160680e-03 7.744273e-04 2.540000e-02
         vertex 1.608138e-03 4.611146e-04 1.651000e-02
         vertex 1.608138e-03 4.611146e-04 2.540000e-02
      endloop
   endfacet
   facet normal -4.226186e-01 -9.063076e-01 -0.000000e+00
      outer loop
         vertex 1.608138e-03 4.611146e-04 2.540000e-02
         vertex 1.608138e-03 4.611146e-04 1.651000e-02
         vertex 2.103203e-03 2.302616e-04 1.651000e-02
      endloop
   endfacet
   facet normal -4.226186e-01 -9.063076e-01 0.000000e+00
      outer loop
         vertex 1.608138e-03 4.611146e-04 2.540000e-02
         vertex 2.103203e-03 2.302616e-04 1.651000e-02
         vertex 2.103203e-03 2.302616e-04 2.540000e-02
      endloop
   endfacet
   facet normal -2.588188e-01 -9.659259e-01 -0.000000e+00
      outer loop
         vertex 2.103203e-03 2.302616e-04 2.540000e-02
         vertex 2.103203e-03 2.302616e-04 1.651000e-02
         vertex 2.630834e-03 8.888333e-05 1.651000e-02
      endloop
   endfacet
   facet normal -2.588188e-01 -9.659259e-01 0.000000e+00
      outer loop
         vertex 2.103203e-03 2.302616e-04 2.540000e-02
         vertex 2.630834e-03 8.888333e-05 1.651000e-02
         vertex 2.630834e-03 8.888333e-05 2.540000e-02
      endloop
   endfacet
   facet normal -8.715566e-02 -9.961947e-01 -0.000000e+00
      outer loop
         vertex 2.630834e-03 8.888333e-05 2.540000e-02
         vertex 2.630834e-03 8.888333e-05 1.651000e-02
         vertex 3.175000e-03 4.127505e-05 1.651000e-02
      endloop
   endfacet
   facet normal -8.715566e-02 -9.961947e-01 0.000000e+00
      outer loop
         vertex 2.630834e-03 8.888333e-05 2.540000e-02
         vertex 3.175000e-03 4.127505e-05 1.651000e-02
         vertex 3.175000e-03 4.127505e-05 2.540000e-02
      endloop
   endfacet
   facet normal 8.715566e-02 -9.961947e-01 0.000000e+00
      outer loop
         vertex 3.175000e-03 4.127505e-05 2.540000e-02
         vertex 3.175000e-03 4.127505e-05 1.651000e-02
         vertex 3.719166e-03 8.888333e-05 1.651000e-02
      endloop
   endfacet
   facet normal 0.000000e+00 -0.000000e+00 -1.000000e+00
      outer loop
         vertex 5.551341e-03 2.755987e-03 1.651000e-02
         vertex 6.261117e-03 2.630834e-03 1.651000e-02
         vertex 5.442478e-03 2.349705e-03 1.651000e-02
      endloop
   endfacet
   facet normal 0.000000e+00 0.000000e+00 -1.000000e+00
      outer loop
         vertex 5.442478e-03 2.349705e-03 1.651000e-02
         vertex 6.261117e-03 2.630834e-03 1.651000e-02
         vertex 6.119738e-03 2.103203e-03 1.651000e-02
      endloop
   endfacet
   facet normal 0.000000e+00 -0.000000e+00 -1.000000e+00
      outer loop
         vertex 5.442478e-03 2.349705e-03 1.651000e-02
         vertex 6.119738e-03 2.103203e-03 1.651000e-02
         vertex 5.264719e-03 1.968500e-03 1.651000e-02
      endloop
   endfacet
   facet normal 0.000000e+00 0.000000e+00 -1.000000e+00
      outer loop
         vertex 5.264719e-03 1.968500e-03 1.651000e-02
         vertex 6.119738e-03 2.103203e-03 1.651000e-02
         vertex 5.888885e-03 1.608138e-03 1.651000e-02
      endloop
   endfacet
   facet normal 0.000000e+00 -0.000000e+00 -1.000000e+00
      outer loop
         vertex 5.264719e-03 1.968500e-03 1.651000e-02
         vertex 5.888885e-03 1.608138e-03 1.651000e-02
         vertex 5.023465e-03 1.623953e-03 1.651000e-02
      endloop
   endfacet
   facet normal 0.000000e+00 0.000000e+00 -1.000000e+00
      outer loop
         vertex 5.023465e-03 1.623953e-03 1.651000e-02
         vertex 5.888885e-03 1.608138e-03 1.651000e-02
         vertex 5.575573e-03 1.160680e-03 1.651000e-02
      endloop
   endfacet
   facet normal 0.000000e+00 -0.000000e+00 -1.000000e+00
      outer loop
         vertex 5.023465e-03 1.623953e-03 1.651000e-02
         vertex 5.575573e-03 1.160680e-03 1.651000e-02
         vertex 4.726046e-03 1.326535e-03 1.651000e-02
      endloop
   endfacet
   facet normal 0.000000e+00 0.000000e+00 -1.000000e+00
      outer loop
         vertex 4.726046e-03 1.326535e-03 1.651000e-02
         vertex 5.575573e-03 1.160680e-03 1.651000e-02
         vertex 5.189320e-03 7.744273e-04 1.651000e-02
      endloop
   endfacet
   facet normal 0.000000e+00 -0.000000e+00 -1.000000e+00
      outer loop
         vertex 4.726046e-03 1.326535e-03 1.651000e-02
         vertex 5.189320e-03 7.744273e-04 1.651000e-02
         vertex 4.381500e-03 1.085281e-03 1.651000e-02
      endloop
   endfacet
   facet normal 0.000000e+00 0.000000e+00 -1.000000e+00
      outer loop
         vertex 4.381500e-03 1.085281e-03 1.651000e-02
         vertex 5.189320e-03 7.744273e-04 1.651000e-02
         vertex 4.741862e-03 4.611146e-04 1.651000e-02
      endloop
   endfacet
   facet normal 0.000000e+00 -0.000000e+00 -1.000000e+00
      outer loop
         vertex 4.381500e-03 1.085281e-03 1.651000e-02
         vertex 4.741862e-03 4.611146e-04 1.651000e-02
         vertex 4.000295e-03 9.075217e-04 1.651000e-02
      endloop
   endfacet
   facet normal 0.000000e+00 0.000000e+00 -1.000000e+00
      outer loop
         vertex 4.000295e-03 9.075217e-04 1.651000e-02
         vertex 4.741862e-03 4.611146e-04 1.651000e-02
         vertex 4.246797e-03 2.302616e-04 1.651000e-02
      endloop
   endfacet
   facet normal 0.000000e+00 -0.000000e+00 -1.000000e+00
      outer loop
         vertex 4.000295e-03 9.075217e-04 1.651000e-02
         vertex 4.246797e-03 2.302616e-04 1.651000e-02
         vertex 3.594013e-03 7.986589e-04 1.651000e-02
      endloop
   endfacet
   facet normal 0.000000e+00 0.000000e+00 -1.000000e+00
      outer loop
         vertex 3.594013e-03 7.986589e-04 1.651000e-02
         vertex 4.246797e-03 2.302616e-04 1.651000e-02
         vertex 3.719166e-03 8.888333e-05 1.651000e-02
      endloop
   endfacet
   facet normal 0.000000e+00 -0.000000e+00 -1.000000e+00
      outer loop
         vertex 3.594013e-03 7.986589e-04 1.651000e-02
         vertex 3.719166e-03 8.888333e-05 1.651000e-02
         vertex 3.175000e-03 7.620000e-04 1.651000e-02
      endloop
   endfacet
   facet normal 0.000000e+00 0.000000e+00 -1.000000e+00
      outer loop
         vertex 3.175000e-03 7.620000e-04 1.651000e-02
         vertex 3.719166e-03 8.888333e-05 1.651000e-02
         vertex 3.175000e-03 4.127505e-05 1.651000e-02
      endloop
   endfacet
   facet normal -0.000000e+00 -0.000000e+00 -1.000000e+00
      outer loop
         vertex 3.175000e-03 7.620000e-04 1.651000e-02
         vertex 3.175000e-03 4.127505e-05 1.651000e-02
         vertex 2.755987e-03 7.986589e-04 1.651000e-02
      endloop
   endfacet
   facet normal 0.000000e+00 -0.000000e+00 -1.000000e+00
      outer loop
         vertex 2.755987e-03 7.986589e-04 1.651000e-02
         vertex 3.175000e-03 4.127505e-05 1.651000e-02
         vertex 2.630834e-03 8.888333e-05 1.651000e-02
      endloop
   endfacet
   facet normal -0.000000e+00 0.000000e+00 -1.000000e+00
      outer loop
         vertex 2.755987e-03 7.986589e-04 1.651000e-02
         vertex 2.630834e-03 8.888333e-05 1.651000e-02
         vertex 2.349705e-03 9.075217e-04 1.651000e-02
      endloop
   endfacet
   facet normal 0.000000e+00 -0.000000e+00 -1.000000e+00
      outer loop
         vertex 2.349705e-03 9.075217e-04 1.651000e-02
         vertex 2.630834e-03 8.888333e-05 1.651000e-02
         vertex 2.103203e-03 2.302616e-04 1.651000e-02
      endloop
   endfacet
   facet normal -0.000000e+00 0.000000e+00 -1.000000e+00
      outer loop
         vertex 2.349705e-03 9.075217e-04 1.651000e-02
         vertex 2.103203e-03 2.302616e-04 1.651000e-02
         vertex 1.968500e-03 1.085281e-03 1.651000e-02
      endloop
   endfacet
   facet normal 0.000000e+00 -0.000000e+00 -1.000000e+00
      outer loop
         vertex 1.968500e-03 1.085281e-03 1.651000e-02
         vertex 2.103203e-03 2.302616e-04 1.651000e-02
         vertex 1.608138e-03 4.611146e-04 1.651000e-02
      endloop
   endfacet
   facet normal -0.000000e+00 0.000000e+00 -1.000000e+00
      outer loop
         vertex 1.968500e-03 1.085281e-03 1.651000e-02
         vertex 1.608138e-03 4.611146e-04 1.651000e-02
         vertex 1.623953e-03 1.326535e-03 1.651000e-02
      endloop
   endfacet
   facet normal 0.000000e+00 0.000000e+00 -1.000000e+00
      outer loop
         vertex 1.623953e-03 1.326535e-03 1.651000e-02
         vertex 1.608138e-03 4.611146e-04 1.651000e-02
         vertex 1.160680e-03 7.744273e-04 1.651000e-02
      endloop
   endfacet
   facet normal -0.000000e+00 0.000000e+00 -1.000000e+00
      outer loop
         vertex 1.623953e-03 1.326535e-03 1.651000e-02
         vertex 1.160680e-03 7.744273e-04 1.651000e-02
         vertex 1.326535e-03 1.623953e-03 1.651000e-02
      endloop
   endfacet
   facet normal 0.000000e+00 0.000000e+00 -1.000000e+00
      outer loop
         vertex 1.326535e-03 1.623953e-03 1.651000e-02
         vertex 1.160680e-03 7.744273e-04 1.651000e-02
         vertex 7.744273e-04 1.160680e-03 1.651000e-02
      endloop
   endfacet
   facet normal -0.000000e+00 0.000000e+00 -1.000000e+00
      outer loop
         vertex 1.326535e-03 1.623953e-03 1.651000e-02
         vertex 7.744273e-04 1.160680e-03 1.651000e-02
         vertex 1.085281e-03 1.968500e-03 1.651000e-02
      endloop
   endfacet
   facet normal 0.000000e+00 0.000000e+00 -1.000000e+00
      outer loop
         vertex 1.085281e-03 1.968500e-03 1.651000e-02
         vertex 7.744273e-04 1.160680e-03 1.651000e-02
         vertex 4.611146e-04 1.608138e-03 1.651000e-02
      endloop
   endfacet
   facet normal -0.000000e+00 0.000000e+00 -1.000000e+00
      outer loop
         vertex 1.085281e-03 1.968500e-03 1.651000e-02
         vertex 4.611146e-04 1.608138e-03 1.651000e-02
         vertex 9.075217e-04 2.349705e-03 1.651000e-02
      endloop
   endfacet
   facet normal 0.000000e+00 0.000000e+00 -1.000000e+00
      outer loop
         vertex 9.075217e-04 2.349705e-03 1.651000e-02
         vertex 4.611146e-04 1.608138e-03 1.651000e-02
         vertex 2.302616e-04 2.103203e-03 1.651000e-02
      endloop
   endfacet
   facet normal -0.000000e+00 0.000000e+00 -1.000000e+00
      outer loop
         vertex 9.075217e-04 2.349705e-03 1.651000e-02
         vertex 2.302616e-04 2.103203e-03 1.651000e-02
         vertex 7.986589e-04 2.755987e-03 1.651000e-02
      endloop
   endfacet
   facet normal 0.000000e+00 0.000000e+00 -1.000000e+00
      outer loop
         vertex 7.986589e-04 2.755987e-03 1.651000e-02
         vertex 2.302616e-04 2.103203e-03 1.651000e-02
         vertex 8.888333e-05 2.630834e-03 1.651000e-02
      endloop
   endfacet
   facet normal -0.000000e+00 0.000000e+00 -1.000000e+00
      outer loop
         vertex 7.986589e-04 2.755987e-03 1.651000e-02
         vertex 8.888333e-05 2.630834e-03 1.651000e-02
         vertex 7.620000e-04 3.175000e-03 1.651000e-02
      endloop
   endfacet
   facet normal -0.000000e+00 0.000000e+00 -1.000000e+00
      outer loop
         vertex 7.620000e-04 3.175000e-03 1.651000e-02
         vertex 8.888333e-05 2.630834e-03 1.651000e-02
         vertex 4.127505e-05 3.175000e-03 1.651000e-02
      endloop
   endfacet
   facet normal 0.000000e+00 0.000000e+00 -1.000000e+00
      outer loop
         vertex 7.620000e-04 3.175000e-03 1.651000e-02
         vertex 4.127505e-05 3.175000e-03 1.651000e-02
         vertex 7.986589e-04 3.594013e-03 1.651000e-02
      endloop
   endfacet
   facet normal -0.000000e+00 0.000000e+00 -1.000000e+00
      outer loop
         vertex 7.986589e-04 3.594013e-03 1.651000e-02
         vertex 4.127505e-05 3.175000e-03 1.651000e-02
         vertex 8.888333e-05 3.719166e-03 1.651000e-02
      endloop
   endfacet
   facet normal 0.000000e+00 0.000000e+00 -1.000000e+00
      outer loop
         vertex 7.986589e-04 3.594013e-03 1.651000e-02
         vertex 8.888333e-05 3.719166e-03 1.651000e-02
         vertex 9.075217e-04 4.000295e-03 1.651000e-02
      endloop
   endfacet
   facet normal -0.000000e+00 0.000000e+00 -1.000000e+00
      outer loop
         vertex 9.075217e-04 4.000295e-03 1.651000e-02
         vertex 8.888333e-05 3.719166e-03 1.651000e-02
         vertex 2.302616e-04 4.246797e-03 1.651000e-02
      endloop
   endfacet
   facet normal 0.000000e+00 0.000000e+00 -1.000000e+00
      outer loop
         vertex 9.075217e-04 4.000295e-03 1.651000e-02
         vertex 2.302616e-04 4.246797e-03 1.651000e-02
         vertex 1.085281e-03 4.381500e-03 1.651000e-02
      endloop
   endfacet
   facet normal -0.000000e+00 0.000000e+00 -1.000000e+00
      outer loop
         vertex 1.085281e-03 4.381500e-03 1.651000e-02
         vertex 2.302616e-04 4.246797e-03 1.651000e-02
         vertex 4.611146e-04 4.741862e-03 1.651000e-02
      endloop
   endfacet
   facet normal 0.000000e+00 0.000000e+00 -1.000000e+00
      outer loop
         vertex 1.085281e-03 4.381500e-03 1.651000e-02
         vertex 4.611146e-04 4.741862e-03 1.651000e-02
         vertex 1.326535e-03 4.726046e-03 1.651000e-02
      endloop
   endfacet
   facet normal 0.000000e+00 0.000000e+00 -1.000000e+00
      outer loop
         vertex 1.326535e-03 4.726046e-03 1.651000e-02
         vertex 4.611146e-04 4.741862e-03 1.651000e-02
         vertex 7.744273e-04 5.189320e-03 1.651000e-02
      endloop
   endfacet
   facet normal 0.000000e+00 0.000000e+00 -1.000000e+00
      outer loop
         vertex 1.326535e-03 4.726046e-03 1.651000e-02
         vertex 7.744273e-04 5.189320e-03 1.651000e-02
         vertex 1.623953e-03 5.023465e-03 1.651000e-02
      endloop
   endfacet
   facet normal 0.000000e+00 0.000000e+00 -1.000000e+00
      outer loop
         vertex 1.623953e-03 5.023465e-03 1.651000e-02
         vertex 7.744273e-04 5.189320e-03 1.651000e-02
         vertex 1.160680e-03 5.575573e-03 1.651000e-02
      endloop
   endfacet
   facet normal 0.000000e+00 0.000000e+00 -1.000000e+00
      outer loop
         vertex 1.623953e-03 5.023465e-03 1.651000e-02
         vertex 1.160680e-03 5.575573e-03 1.651000e-02
         vertex 1.968500e-03 5.264719e-03 1.651000e-02
      endloop
   endfacet
   facet normal 0.000000e+00 0.000000e+00 -1.000000e+00
      outer loop
         vertex 1.968500e-03 5.264719e-03 1.651000e-02
         vertex 1.160680e-03 5.575573e-03 1.651000e-02
         vertex 1.608138e-03 5.888885e-03 1.651000e-02
      endloop
   endfacet
   facet normal 0.000000e+00 0.000000e+00 -1.000000e+00
      outer loop
         vertex 1.968500e-03 5.264719e-03 1.651000e-02
         vertex 1.608138e-03 5.888885e-03 1.651000e-02
         vertex 2.349705e-03 5.442478e-03 1.651000e-02
      endloop
   endfacet
   facet normal 0.000000e+00 0.000000e+00 -1.000000e+00
      outer loop
         vertex 2.349705e-03 5.442478e-03 1.651000e-02
         vertex 1.608138e-03 5.888885e-03 1.651000e-02
         vertex 2.103203e-03 6.119738e-03 1.651000e-02
      endloop
   endfacet
   facet normal 0.000000e+00 0.000000e+00 -1.000000e+00
      outer loop
         vertex 2.349705e-03 5.442478e-03 1.651000e-02
         vertex 2.103203e-03 6.119738e-03 1.651000e-02
         vertex 2.755987e-03 5.551341e-03 1.651000e-02
      endloop
   endfacet
   facet normal 0.000000e+00 0.000000e+00 -1.000000e+00
      outer loop
         vertex 2.755987e-03 5.551341e-03 1.651000e-02
         vertex 2.103203e-03 6.119738e-03 1.651000e-02
         vertex 2.630834e-03 6.261117e-03 1.651000e-02
      endloop
   endfacet
   facet normal 0.000000e+00 0.000000e+00 -1.000000e+00
      outer loop
         vertex 2.755987e-03 5.551341e-03 1.651000e-02
         vertex 2.630834e-03 6.261117e-03 1.651000e-02
         vertex 3.175000e-03 5.588000e-03 1.651000e-02
      endloop
   endfacet
   facet normal 0.000000e+00 0.000000e+00 -1.000000e+00
      outer loop
         vertex 3.175000e-03 5.588000e-03 1.651000e-02
         vertex 2.630834e-03 6.261117e-03 1.651000e-02
         vertex 3.175000e-03 6.308725e-03 1.651000e-02
      endloop
   endfacet
   facet normal 0.000000e+00 0.000000e+00 -1.000000e+00
      outer loop
         vertex 3.175000e-03 5.588000e-03 1.651000e-02
         vertex 3.175000e-03 6.308725e-03 1.651000e-02
         vertex 3.594013e-03 5.551341e-03 1.651000e-02
      endloop
   endfacet
   facet normal 0.000000e+00 0.000000e+00 -1.000000e+00
      outer loop
         vertex 3.594013e-03 5.551341e-03 1.651000e-02
         vertex 3.175000e-03 6.308725e-03 1.651000e-02
         vertex 3.719166e-03 6.261117e-03 1.651000e-02
      endloop
   endfacet
   facet normal 0.000000e+00 0.000000e+00 -1.000000e+00
      outer loop
         vertex 3.594013e-03 5.551341e-03 1.651000e-02
         vertex 3.719166e-03 6.261117e-03 1.651000e-02
         vertex 4.000295e-03 5.442478e-03 1.651000e-02
      endloop
   endfacet
   facet normal 0.000000e+00 0.000000e+00 -1.000000e+00
      outer loop
         vertex 4.000295e-03 5.442478e-03 1.651000e-02
         vertex 3.719166e-03 6.261117e-03 1.651000e-02
         vertex 4.246797e-03 6.119738e-03 1.651000e-02
      endloop
   endfacet
   facet normal 0.000000e+00 0.000000e+00 -1.000000e+00
      outer loop
         vertex 4.000295e-03 5.442478e-03 1.651000e-02
         vertex 4.246797e-03 6.119738e-03 1.651000e-02
         vertex 4.381500e-03 5.264719e-03 1.651000e-02
      endloop
   endfacet
   facet normal 0.000000e+00 0.000000e+00 -1.000000e+00
      outer loop
         vertex 4.381500e-03 5.264719e-03 1.651000e-02
         vertex 4.246797e-03 6.119738e-03 1.651000e-02
         vertex 4.741862e-03 5.888885e-03 1.651000e-02
      endloop
   endfacet
   facet normal 0.000000e+00 0.000000e+00 -1.000000e+00
      outer loop
         vertex 4.381500e-03 5.264719e-03 1.651000e-02
         vertex 4.741862e-03 5.888885e-03 1.651000e-02
         vertex 4.726046e-03 5.023465e-03 1.651000e-02
      endloop
   endfacet
   facet normal 0.000000e+00 0.000000e+00 -1.000000e+00
      outer loop
         vertex 4.726046e-03 5.023465e-03 1.651000e-02
         vertex 4.741862e-03 5.888885e-03 1.651000e-02
         vertex 5.189320e-03 5.575573e-03 1.651000e-02
      endloop
   endfacet
   facet normal 0.000000e+00 0.000000e+00 -1.000000e+00
      outer loop
         vertex 4.726046e-03 5.023465e-03 1.651000e-02
         vertex 5.189320e-03 5.575573e-03 1.651000e-02
         vertex 5.023465e-03 4.726046e-03 1.651000e-02
      endloop
   endfacet
   facet normal 0.000000e+00 0.000000e+00 -1.000000e+00
      outer loop
         vertex 5.023465e-03 4.726046e-03 1.651000e-02
         vertex 5.189320e-03 5.575573e-03 1.651000e-02
         vertex 5.575573e-03 5.189320e-03 1.651000e-02
      endloop
   endfacet
   facet normal 0.000000e+00 0.000000e+00 -1.000000e+00
      outer loop
         vertex 5.023465e-03 4.726046e-03 1.651000e-02
         vertex 5.575573e-03 5.189320e-03 1.651000e-02
         vertex 5.264719e-03 4.381500e-03 1.651000e-02
      endloop
   endfacet
   facet normal 0.000000e+00 0.000000e+00 -1.000000e+00
      outer loop
         vertex 5.264719e-03 4.381500e-03 1.651000e-02
         vertex 5.575573e-03 5.189320e-03 1.651000e-02
         vertex 5.888885e-03 4.741862e-03 1.651000e-02
      endloop
   endfacet
   facet normal 0.000000e+00 0.000000e+00 -1.000000e+00
      outer loop
         vertex 5.264719e-03 4.381500e-03 1.651000e-02
         vertex 5.888885e-03 4.741862e-03 1.651000e-02
         vertex 5.442478e-03 4.000295e-03 1.651000e-02
      endloop
   endfacet
   facet normal 0.000000e+00 0.000000e+00 -1.000000e+00
      outer loop
         vertex 5.442478e-03 4.000295e-03 1.651000e-02
         vertex 5.888885e-03 4.741862e-03 1.651000e-02
         vertex 6.119738e-03 4.246797e-03 1.651000e-02
      endloop
   endfacet
   facet normal 0.000000e+00 0.000000e+00 -1.000000e+00
      outer loop
         vertex 5.442478e-03 4.000295e-03 1.651000e-02
         vertex 6.119738e-03 4.246797e-03 1.651000e-02
         vertex 5.551341e-03 3.594013e-03 1.651000e-02
      endloop
   endfacet
   facet normal 0.000000e+00 0.000000e+00 -1.000000e+00
      outer loop
         vertex 5.551341e-03 3.594013e-03 1.651000e-02
         vertex 6.119738e-03 4.246797e-03 1.651000e-02
         vertex 6.261117e-03 3.719166e-03 1.651000e-02
      endloop
   endfacet
   facet normal 0.000000e+00 0.000000e+00 -1.000000e+00
      outer loop
         vertex 5.551341e-03 3.594013e-03 1.651000e-02
         vertex 6.261117e-03 3.719166e-03 1.651000e-02
         vertex 5.588000e-03 3.175000e-03 1.651000e-02
      endloop
   endfacet
   facet normal 0.000000e+00 0.000000e+00 -1.000000e+00
      outer loop
         vertex 5.588000e-03 3.175000e-03 1.651000e-02
         vertex 6.261117e-03 3.719166e-03 1.651000e-02
         vertex 6.308725e-03 3.175000e-03 1.651000e-02
      endloop
   endfacet
   facet normal 0.000000e+00 -0.000000e+00 -1.000000e+00
      outer loop
         vertex 5.588000e-03 3.175000e-03 1.651000e-02
         vertex 6.308725e-03 3.175000e-03 1.651000e-02
         vertex 5.551341e-03 2.755987e-03 1.651000e-02
      endloop
   endfacet
   facet normal 0.000000e+00 0.000000e+00 -1.000000e+00
      outer loop
         vertex 5.551341e-03 2.755987e-03 1.651000e-02
         vertex 6.308725e-03 3.175000e-03 1.651000e-02
         vertex 6.261117e-03 2.630834e-03 1.651000e-02
      endloop
   endfacet
   facet normal 8.715588e-02 -9.961947e-01 0.000000e+00
      outer loop
         vertex 3.175000e-03 7.620000e-04 1.651000e-02
         vertex 3.594013e-03 7.986589e-04 0.000000e+00
         vertex 3.594013e-03 7.986589e-04 1.651000e-02
      endloop
   endfacet
   facet normal 2.588189e-01 -9.659259e-01 0.000000e+00
      outer loop
         vertex 3.594013e-03 7.986589e-04 1.651000e-02
         vertex 3.594013e-03 7.986589e-04 0.000000e+00
         vertex 4.000295e-03 9.075217e-04 0.000000e+00
      endloop
   endfacet
   facet normal 2.588189e-01 -9.659259e-01 0.000000e+00
      outer loop
         vertex 3.594013e-03 7.986589e-04 1.651000e-02
         vertex 4.000295e-03 9.075217e-04 0.000000e+00
         vertex 4.000295e-03 9.075217e-04 1.651000e-02
      endloop
   endfacet
   facet normal 4.226182e-01 -9.063078e-01 0.000000e+00
      outer loop
         vertex 4.000295e-03 9.075217e-04 1.651000e-02
         vertex 4.000295e-03 9.075217e-04 0.000000e+00
         vertex 4.381500e-03 1.085281e-03 0.000000e+00
      endloop
   endfacet
   facet normal 4.226182e-01 -9.063078e-01 0.000000e+00
      outer loop
         vertex 4.000295e-03 9.075217e-04 1.651000e-02
         vertex 4.381500e-03 1.085281e-03 0.000000e+00
         vertex 4.381500e-03 1.085281e-03 1.651000e-02
      endloop
   endfacet
   facet normal 5.735763e-01 -8.191521e-01 0.000000e+00
      outer loop
         vertex 4.381500e-03 1.085281e-03 1.651000e-02
         vertex 4.381500e-03 1.085281e-03 0.000000e+00
         vertex 4.726046e-03 1.326535e-03 0.000000e+00
      endloop
   endfacet
   facet normal 5.735763e-01 -8.191521e-01 0.000000e+00
      outer loop
         vertex 4.381500e-03 1.085281e-03 1.651000e-02
         vertex 4.726046e-03 1.326535e-03 0.000000e+00
         vertex 4.726046e-03 1.326535e-03 1.651000e-02
      endloop
   endfacet
   facet normal 7.071068e-01 -7.071068e-01 0.000000e+00
      outer loop
         vertex 4.726046e-03 1.326535e-03 1.651000e-02
         vertex 4.726046e-03 1.326535e-03 0.000000e+00
         vertex 5.023465e-03 1.623953e-03 0.000000e+00
      endloop
   endfacet
   facet normal 7.071068e-01 -7.071068e-01 0.000000e+00
      outer loop
         vertex 4.726046e-03 1.326535e-03 1.651000e-02
         vertex 5.023465e-03 1.623953e-03 0.000000e+00
         vertex 5.023465e-03 1.623953e-03 1.651000e-02
      endloop
   endfacet
   facet normal 8.191521e-01 -5.735763e-01 0.000000e+00
      outer loop
         vertex 5.023465e-03 1.623953e-03 1.651000e-02
         vertex 5.023465e-03 1.623953e-03 0.000000e+00
         vertex 5.264719e-03 1.968500e-03 0.000000e+00
      endloop
   endfacet
   facet normal 8.191521e-01 -5.735763e-01 0.000000e+00
      outer loop
         vertex 5.023465e-03 1.623953e-03 1.651000e-02
         vertex 5.264719e-03 1.968500e-03 0.000000e+00
         vertex 5.264719e-03 1.968500e-03 1.651000e-02
      endloop
   endfacet
   facet normal 9.063078e-01 -4.226182e-01 0.000000e+00
      outer loop
         vertex 5.264719e-03 1.968500e-03 1.651000e-02
         vertex 5.264719e-03 1.968500e-03 0.000000e+00
         vertex 5.442478e-03 2.349705e-03 0.000000e+00
      endloop
   endfacet
   facet normal 9.063078e-01 -4.226182e-01 0.000000e+00
      outer loop
         vertex 5.264719e-03 1.968500e-03 1.651000e-02
         vertex 5.442478e-03 2.349705e-03 0.000000e+00
         vertex 5.442478e-03 2.349705e-03 1.651000e-02
      endloop
   endfacet
   facet normal 9.659259e-01 -2.588189e-01 0.000000e+00
      outer loop
         vertex 5.442478e-03 2.349705e-03 1.651000e-02
         vertex 5.442478e-03 2.349705e-03 0.000000e+00
         vertex 5.551341e-03 2.755987e-03 0.000000e+00
      endloop
   endfacet
   facet normal 9.659259e-01 -2.588189e-01 0.000000e+00
      outer loop
         vertex 5.442478e-03 2.349705e-03 1.651000e-02
         vertex 5.551341e-03 2.755987e-03 0.000000e+00
         vertex 5.551341e-03 2.755987e-03 1.651000e-02
      endloop
   endfacet
   facet normal 9.961947e-01 -8.715588e-02 0.000000e+00
      outer loop
         vertex 5.551341e-03 2.755987e-03 1.651000e-02
         vertex 5.551341e-03 2.755987e-03 0.000000e+00
         vertex 5.588000e-03 3.175000e-03 0.000000e+00
      endloop
   endfacet
   facet normal 9.961947e-01 -8.715588e-02 0.000000e+00
      outer loop
         vertex 5.551341e-03 2.755987e-03 1.651000e-02
         vertex 5.588000e-03 3.175000e-03 0.000000e+00
         vertex 5.588000e-03 3.175000e-03 1.651000e-02
      endloop
   endfacet
   facet normal 9.961947e-01 8.715588e-02 0.000000e+00
      outer loop
         vertex 5.588000e-03 3.175000e-03 1.651000e-02
         vertex 5.588000e-03 3.175000e-03 0.000000e+00
         vertex 5.551341e-03 3.594013e-03 0.000000e+00
      endloop
   endfacet
   facet normal 9.961947e-01 8.715588e-02 0.000000e+00
      outer loop
         vertex 5.588000e-03 3.175000e-03 1.651000e-02
         vertex 5.551341e-03 3.594013e-03 0.000000e+00
         vertex 5.551341e-03 3.594013e-03 1.651000e-02
      endloop
   endfacet
   facet normal 9.659259e-01 2.588189e-01 0.000000e+00
      outer loop
         vertex 5.551341e-03 3.594013e-03 1.651000e-02
         vertex 5.551341e-03 3.594013e-03 0.000000e+00
         vertex 5.442478e-03 4.000295e-03 0.000000e+00
      endloop
   endfacet
   facet normal 9.659259e-01 2.588189e-01 0.000000e+00
      outer loop
         vertex 5.551341e-03 3.594013e-03 1.651000e-02
         vertex 5.442478e-03 4.000295e-03 0.000000e+00
         vertex 5.442478e-03 4.000295e-03 1.651000e-02
      endloop
   endfacet
   facet normal 9.063078e-01 4.226182e-01 0.000000e+00
      outer loop
         vertex 5.442478e-03 4.000295e-03 1.651000e-02
         vertex 5.442478e-03 4.000295e-03 0.000000e+00
         vertex 5.264719e-03 4.381500e-03 0.000000e+00
      endloop
   endfacet
   facet normal 9.063078e-01 4.226182e-01 0.000000e+00
      outer loop
         vertex 5.442478e-03 4.000295e-03 1.651000e-02
         vertex 5.264719e-03 4.381500e-03 0.000000e+00
         vertex 5.264719e-03 4.381500e-03 1.651000e-02
      endloop
   endfacet
   facet normal 8.191521e-01 5.735763e-01 0.000000e+00
      outer loop
         vertex 5.264719e-03 4.381500e-03 1.651000e-02
         vertex 5.264719e-03 4.381500e-03 0.000000e+00
         vertex 5.023465e-03 4.726046e-03 0.000000e+00
      endloop
   endfacet
   facet normal 8.191521e-01 5.735763e-01 0.000000e+00
      outer loop
         vertex 5.264719e-03 4.381500e-03 1.651000e-02
         vertex 5.023465e-03 4.726046e-03 0.000000e+00
         vertex 5.023465e-03 4.726046e-03 1.651000e-02
      endloop
   endfacet
   facet normal 7.071068e-01 7.071068e-01 0.000000e+00
      outer loop
         vertex 5.023465e-03 4.726046e-03 1.651000e-02
         vertex 5.023465e-03 4.726046e-03 0.000000e+00
         vertex 4.726046e-03 5.023465e-03 0.000000e+00
      endloop
   endfacet
   facet normal 7.071068e-01 7.071068e-01 0.000000e+00
      outer loop
         vertex 5.023465e-03 4.726046e-03 1.651000e-02
         vertex 4.726046e-03 5.023465e-03 0.000000e+00
         vertex 4.726046e-03 5.023465e-03 1.651000e-02
      endloop
   endfacet
   facet normal 5.735763e-01 8.191521e-01 0.000000e+00
      outer loop
         vertex 4.726046e-03 5.023465e-03 1.651000e-02
         vertex 4.726046e-03 5.023465e-03 0.000000e+00
         vertex 4.381500e-03 5.264719e-03 0.000000e+00
      endloop
   endfacet
   facet normal 5.735763e-01 8.191521e-01 0.000000e+00
      outer loop
         vertex 4.726046e-03 5.023465e-03 1.651000e-02
         vertex 4.381500e-03 5.264719e-03 0.000000e+00
         vertex 4.381500e-03 5.264719e-03 1.651000e-02
      endloop
   endfacet
   facet normal 4.226182e-01 9.063078e-01 0.000000e+00
      outer loop
         vertex 4.381500e-03 5.264719e-03 1.651000e-02
         vertex 4.381500e-03 5.264719e-03 0.000000e+00
         vertex 4.000295e-03 5.442478e-03 0.000000e+00
      endloop
   endfacet
   facet normal 4.226182e-01 9.063078e-01 0.000000e+00
      outer loop
         vertex 4.381500e-03 5.264719e-03 1.651000e-02
         vertex 4.000295e-03 5.442478e-03 0.000000e+00
         vertex 4.000295e-03 5.442478e-03 1.651000e-02
      endloop
   endfacet
   facet normal 2.588189e-01 9.659259e-01 0.000000e+00
      outer loop
         vertex 4.000295e-03 5.442478e-03 1.651000e-02
         vertex 4.000295e-03 5.442478e-03 0.000000e+00
         vertex 3.594013e-03 5.551341e-03 0.000000e+00
      endloop
   endfacet
   facet normal 2.588189e-01 9.659259e-01 0.000000e+00
      outer loop
         vertex 4.000295e-03 5.442478e-03 1.651000e-02
         vertex 3.594013e-03 5.551341e-03 0.000000e+00
         vertex 3.594013e-03 5.551341e-03 1.651000e-02
      endloop
   endfacet
   facet normal 8.715588e-02 9.961947e-01 0.000000e+00
      outer loop
         vertex 3.594013e-03 5.551341e-03 1.651000e-02
         vertex 3.594013e-03 5.551341e-03 0.000000e+00
         vertex 3.175000e-03 5.588000e-03 0.000000e+00
      endloop
   endfacet
   facet normal 8.715588e-02 9.961947e-01 0.000000e+00
      outer loop
         vertex 3.594013e-03 5.551341e-03 1.651000e-02
         vertex 3.175000e-03 5.588000e-03 0.000000e+00
         vertex 3.175000e-03 5.588000e-03 1.651000e-02
      endloop
   endfacet
   facet normal -8.715588e-02 9.961947e-01 0.000000e+00
      outer loop
         vertex 3.175000e-03 5.588000e-03 1.651000e-02
         vertex 3.175000e-03 5.588000e-03 0.000000e+00
         vertex 2.755987e-03 5.551341e-03 0.000000e+00
      endloop
   endfacet
   facet normal -8.715588e-02 9.961947e-01 0.000000e+00
      outer loop
         vertex 3.175000e-03 5.588000e-03 1.651000e-02
         vertex 2.755987e-03 5.551341e-03 0.000000e+00
         vertex 2.755987e-03 5.551341e-03 1.651000e-02
      endloop
   endfacet
   facet normal -2.588189e-01 9.659259e-01 0.000000e+00
      outer loop
         vertex 2.755987e-03 5.551341e-03 1.651000e-02
         vertex 2.755987e-03 5.551341e-03 0.000000e+00
         vertex 2.349705e-03 5.442478e-03 0.000000e+00
      endloop
   endfacet
   facet normal -2.588189e-01 9.659259e-01 0.000000e+00
      outer loop
         vertex 2.755987e-03 5.551341e-03 1.651000e-02
         vertex 2.349705e-03 5.442478e-03 0.000000e+00
         vertex 2.349705e-03 5.442478e-03 1.651000e-02
      endloop
   endfacet
   facet normal -4.226182e-01 9.063078e-01 0.000000e+00
      outer loop
         vertex 2.349705e-03 5.442478e-03 1.651000e-02
         vertex 2.349705e-03 5.442478e-03 0.000000e+00
         vertex 1.968500e-03 5.264719e-03 0.000000e+00
      endloop
   endfacet
   facet normal -4.226182e-01 9.063078e-01 0.000000e+00
      outer loop
         vertex 2.349705e-03 5.442478e-03 1.651000e-02
         vertex 1.968500e-03 5.264719e-03 0.000000e+00
         vertex 1.968500e-03 5.264719e-03 1.651000e-02
      endloop
   endfacet
   facet normal -5.735763e-01 8.191521e-01 0.000000e+00
      outer loop
         vertex 1.968500e-03 5.264719e-03 1.651000e-02
         vertex 1.968500e-03 5.264719e-03 0.000000e+00
         vertex 1.623953e-03 5.023465e-03 0.000000e+00
      endloop
   endfacet
   facet normal -5.735763e-01 8.191521e-01 0.000000e+00
      outer loop
         vertex 1.968500e-03 5.264719e-03 1.651000e-02
         vertex 1.623953e-03 5.023465e-03 0.000000e+00
         vertex 1.623953e-03 5.023465e-03 1.651000e-02
      endloop
   endfacet
   facet normal -7.071068e-01 7.071068e-01 0.000000e+00
      outer loop
         vertex 1.623953e-03 5.023465e-03 1.651000e-02
         vertex 1.623953e-03 5.023465e-03 0.000000e+00
         vertex 1.326535e-03 4.726046e-03 0.000000e+00
      endloop
   endfacet
   facet normal -7.071068e-01 7.071068e-01 0.000000e+00
      outer loop
         vertex 1.623953e-03 5.023465e-03 1.651000e-02
         vertex 1.326535e-03 4.726046e-03 0.000000e+00
         vertex 1.326535e-03 4.726046e-03 1.651000e-02
      endloop
   endfacet
   facet normal -8.191521e-01 5.735763e-01 0.000000e+00
      outer loop
         vertex 1.326535e-03 4.726046e-03 1.651000e-02
         vertex 1.326535e-03 4.726046e-03 0.000000e+00
         vertex 1.085281e-03 4.381500e-03 0.000000e+00
      endloop
   endfacet
   facet normal -8.191521e-01 5.735763e-01 0.000000e+00
      outer loop
         vertex 1.326535e-03 4.726046e-03 1.651000e-02
         vertex 1.085281e-03 4.381500e-03 0.000000e+00
         vertex 1.085281e-03 4.381500e-03 1.651000e-02
      endloop
   endfacet
   facet normal -9.063078e-01 4.226182e-01 0.000000e+00
      outer loop
         vertex 1.085281e-03 4.381500e-03 1.651000e-02
         vertex 1.085281e-03 4.381500e-03 0.000000e+00
         vertex 9.075217e-04 4.000295e-03 0.000000e+00
      endloop
   endfacet
   facet normal -9.063078e-01 4.226182e-01 0.000000e+00
      outer loop
         vertex 1.085281e-03 4.381500e-03 1.651000e-02
         vertex 9.075217e-04 4.000295e-03 0.000000e+00
         vertex 9.075217e-04 4.000295e-03 1.651000e-02
      endloop
   endfacet
   facet normal -9.659259e-01 2.588189e-01 0.000000e+00
      outer loop
         vertex 9.075217e-04 4.000295e-03 1.651000e-02
         vertex 9.075217e-04 4.000295e-03 0.000000e+00
         vertex 7.986589e-04 3.594013e-03 0.000000e+00
      endloop
   endfacet
   facet normal -9.659259e-01 2.588189e-01 0.000000e+00
      outer loop
         vertex 9.075217e-04 4.000295e-03 1.651000e-02
         vertex 7.986589e-04 3.594013e-03 0.000000e+00
         vertex 7.986589e-04 3.594013e-03 1.651000e-02
      endloop
   endfacet
   facet normal -9.961947e-01 8.715588e-02 0.000000e+00
      outer loop
         vertex 7.986589e-04 3.594013e-03 1.651000e-02
         vertex 7.986589e-04 3.594013e-03 0.000000e+00
         vertex 7.620000e-04 3.175000e-03 0.000000e+00
      endloop
   endfacet
   facet normal -9.961947e-01 8.715588e-02 0.000000e+00
      outer loop
         vertex 7.986589e-04 3.594013e-03 1.651000e-02
         vertex 7.620000e-04 3.175000e-03 0.000000e+00
         vertex 7.620000e-04 3.175000e-03 1.651000e-02
      endloop
   endfacet
   facet normal -9.961947e-01 -8.715588e-02 -0.000000e+00
      outer loop
         vertex 7.620000e-04 3.175000e-03 1.651000e-02
         vertex 7.620000e-04 3.175000e-03 0.000000e+00
         vertex 7.986589e-04 2.755987e-03 0.000000e+00
      endloop
   endfacet
   facet normal -9.961947e-01 -8.715588e-02 0.000000e+00
      outer loop
         vertex 7.620000e-04 3.175000e-03 1.651000e-02
         vertex 7.986589e-04 2.755987e-03 0.000000e+00
         vertex 7.986589e-04 2.755987e-03 1.651000e-02
      endloop
   endfacet
   facet normal -9.659259e-01 -2.588189e-01 -0.000000e+00
      outer loop
         vertex 7.986589e-04 2.755987e-03 1.651000e-02
         vertex 7.986589e-04 2.755987e-03 0.000000e+00
         vertex 9.075217e-04 2.349705e-03 0.000000e+00
      endloop
   endfacet
   facet normal -9.659259e-01 -2.588189e-01 0.000000e+00
      outer loop
         vertex 7.986589e-04 2.755987e-03 1.651000e-02
         vertex 9.075217e-04 2.349705e-03 0.000000e+00
         vertex 9.075217e-04 2.349705e-03 1.651000e-02
      endloop
   endfacet
   facet normal -9.063078e-01 -4.226182e-01 -0.000000e+00
      outer loop
         vertex 9.075217e-04 2.349705e-03 1.651000e-02
         vertex 9.075217e-04 2.349705e-03 0.000000e+00
         vertex 1.085281e-03 1.968500e-03 0.000000e+00
      endloop
   endfacet
   facet normal -9.063078e-01 -4.226182e-01 0.000000e+00
      outer loop
         vertex 9.075217e-04 2.349705e-03 1.651000e-02
         vertex 1.085281e-03 1.968500e-03 0.000000e+00
         vertex 1.085281e-03 1.968500e-03 1.651000e-02
      endloop
   endfacet
   facet normal -8.191521e-01 -5.735763e-01 -0.000000e+00
      outer loop
         vertex 1.085281e-03 1.968500e-03 1.651000e-02
         vertex 1.085281e-03 1.968500e-03 0.000000e+00
         vertex 1.326535e-03 1.623953e-03 0.000000e+00
      endloop
   endfacet
   facet normal -8.191521e-01 -5.735763e-01 0.000000e+00
      outer loop
         vertex 1.085281e-03 1.968500e-03 1.651000e-02
         vertex 1.326535e-03 1.623953e-03 0.000000e+00
         vertex 1.326535e-03 1.623953e-03 1.651000e-02
      endloop
   endfacet
   facet normal -7.071068e-01 -7.071068e-01 -0.000000e+00
      outer loop
         vertex 1.326535e-03 1.623953e-03 1.651000e-02
         vertex 1.326535e-03 1.623953e-03 0.000000e+00
         vertex 1.623953e-03 1.326535e-03 0.000000e+00
      endloop
   endfacet
   facet normal -7.071068e-01 -7.071068e-01 0.000000e+00
      outer loop
         vertex 1.326535e-03 1.623953e-03 1.651000e-02
         vertex 1.623953e-03 1.326535e-03 0.000000e+00
         vertex 1.623953e-03 1.326535e-03 1.651000e-02
      endloop
   endfacet
   facet normal -5.735763e-01 -8.191521e-01 -0.000000e+00
      outer loop
         vertex 1.623953e-03 1.326535e-03 1.651000e-02
         vertex 1.623953e-03 1.326535e-03 0.000000e+00
         vertex 1.968500e-03 1.085281e-03 0.000000e+00
      endloop
   endfacet
   facet normal -5.735763e-01 -8.191521e-01 0.000000e+00
      outer loop
         vertex 1.623953e-03 1.326535e-03 1.651000e-02
         vertex 1.968500e-03 1.085281e-03 0.000000e+00
         vertex 1.968500e-03 1.085281e-03 1.651000e-02
      endloop
   endfacet
   facet normal -4.226182e-01 -9.063078e-01 -0.000000e+00
      outer loop
         vertex 1.968500e-03 1.085281e-03 1.651000e-02
         vertex 1.968500e-03 1.085281e-03 0.000000e+00
         vertex 2.349705e-03 9.075217e-04 0.000000e+00
      endloop
   endfacet
   facet normal -4.226182e-01 -9.063078e-01 0.000000e+00
      outer loop
         vertex 1.968500e-03 1.085281e-03 1.651000e-02
         vertex 2.349705e-03 9.075217e-04 0.000000e+00
         vertex 2.349705e-03 9.075217e-04 1.651000e-02
      endloop
   endfacet
   facet normal -2.588189e-01 -9.659259e-01 -0.000000e+00
      outer loop
         vertex 2.349705e-03 9.075217e-04 1.651000e-02
         vertex 2.349705e-03 9.075217e-04 0.000000e+00
         vertex 2.755987e-03 7.986589e-04 0.000000e+00
      endloop
   endfacet
   facet normal -2.588189e-01 -9.659259e-01 0.000000e+00
      outer loop
         vertex 2.349705e-03 9.075217e-04 1.651000e-02
         vertex 2.755987e-03 7.986589e-04 0.000000e+00
         vertex 2.755987e-03 7.986589e-04 1.651000e-02
      endloop
   endfacet
   facet normal -8.715588e-02 -9.961947e-01 -0.000000e+00
      outer loop
         vertex 2.755987e-03 7.986589e-04 1.651000e-02
         vertex 2.755987e-03 7.986589e-04 0.000000e+00
         vertex 3.175000e-03 7.620000e-04 0.000000e+00
      endloop
   endfacet
   facet normal -8.715588e-02 -9.961947e-01 0.000000e+00
      outer loop
         vertex 2.755987e-03 7.986589e-04 1.651000e-02
         vertex 3.175000e-03 7.620000e-04 0.000000e+00
         vertex 3.175000e-03 7.620000e-04 1.651000e-02
      endloop
   endfacet
   facet normal 8.715588e-02 -9.961947e-01 0.000000e+00
      outer loop
         vertex 3.175000e-03 7.620000e-04 1.651000e-02
         vertex 3.175000e-03 7.620000e-04 0.000000e+00
         vertex 3.594013e-03 7.986589e-04 0.000000e+00
      endloop
   endfacet
   facet normal 0.000000e+00 0.000000e+00 -1.000000e+00
      outer loop
         vertex 2.349705e-03 5.442478e-03 0.000000e+00
         vertex 2.755987e-03 5.551341e-03 0.000000e+00
         vertex 3.175000e-03 3.175000e-03 0.000000e+00
      endloop
   endfacet
   facet normal 0.000000e+00 0.000000e+00 -1.000000e+00
      outer loop
         vertex 3.175000e-03 3.175000e-03 0.000000e+00
         vertex 2.755987e-03 5.551341e-03 0.000000e+00
         vertex 3.175000e-03 5.588000e-03 0.000000e+00
      endloop
   endfacet
   facet normal 0.000000e+00 0.000000e+00 -1.000000e+00
      outer loop
         vertex 3.175000e-03 3.175000e-03 0.000000e+00
         vertex 3.175000e-03 5.588000e-03 0.000000e+00
         vertex 3.594013e-03 5.551341e-03 0.000000e+00
      endloop
   endfacet
   facet normal 0.000000e+00 0.000000e+00 -1.000000e+00
      outer loop
         vertex 1.326535e-03 4.726046e-03 0.000000e+00
         vertex 1.623953e-03 5.023465e-03 0.000000e+00
         vertex 3.175000e-03 3.175000e-03 0.000000e+00
      endloop
   endfacet
   facet normal 0.000000e+00 0.000000e+00 -1.000000e+00
      outer loop
         vertex 3.175000e-03 3.175000e-03 0.000000e+00
         vertex 1.623953e-03 5.023465e-03 0.000000e+00
         vertex 1.968500e-03 5.264719e-03 0.000000e+00
      endloop
   endfacet
   facet normal 0.000000e+00 0.000000e+00 -1.000000e+00
      outer loop
         vertex 3.175000e-03 3.175000e-03 0.000000e+00
         vertex 1.968500e-03 5.264719e-03 0.000000e+00
         vertex 2.349705e-03 5.442478e-03 0.000000e+00
      endloop
   endfacet
   facet normal 0.000000e+00 0.000000e+00 -1.000000e+00
      outer loop
         vertex 7.986589e-04 3.594013e-03 0.000000e+00
         vertex 9.075217e-04 4.000295e-03 0.000000e+00
         vertex 3.175000e-03 3.175000e-03 0.000000e+00
      endloop
   endfacet
   facet normal 0.000000e+00 0.000000e+00 -1.000000e+00
      outer loop
         vertex 3.175000e-03 3.175000e-03 0.000000e+00
         vertex 9.075217e-04 4.000295e-03 0.000000e+00
         vertex 1.085281e-03 4.381500e-03 0.000000e+00
      endloop
   endfacet
   facet normal 0.000000e+00 0.000000e+00 -1.000000e+00
      outer loop
         vertex 3.175000e-03 3.175000e-03 0.000000e+00
         vertex 1.085281e-03 4.381500e-03 0.000000e+00
         vertex 1.326535e-03 4.726046e-03 0.000000e+00
      endloop
   endfacet
   facet normal 0.000000e+00 0.000000e+00 -1.000000e+00
      outer loop
         vertex 9.075217e-04 2.349705e-03 0.000000e+00
         vertex 7.986589e-04 2.755987e-03 0.000000e+00
         vertex 3.175000e-03 3.175000e-03 0.000000e+00
      endloop
   endfacet
   facet normal -0.000000e+00 0.000000e+00 -1.000000e+00
      outer loop
         vertex 3.175000e-03 3.175000e-03 0.000000e+00
         vertex 7.986589e-04 2.755987e-03 0.000000e+00
         vertex 7.620000e-04 3.175000e-03 0.000000e+00
      endloop
   endfacet
   facet normal 0.000000e+00 0.000000e+00 -1.000000e+00
      outer loop
         vertex 3.175000e-03 3.175000e-03 0.000000e+00
         vertex 7.620000e-04 3.175000e-03 0.000000e+00
         vertex 7.986589e-04 3.594013e-03 0.000000e+00
      endloop
   endfacet
   facet normal 0.000000e+00 0.000000e+00 -1.000000e+00
      outer loop
         vertex 1.623953e-03 1.326535e-03 0.000000e+00
         vertex 1.326535e-03 1.623953e-03 0.000000e+00
         vertex 3.175000e-03 3.175000e-03 0.000000e+00
      endloop
   endfacet
   facet normal 0.000000e+00 0.000000e+00 -1.000000e+00
      outer loop
         vertex 3.175000e-03 3.175000e-03 0.000000e+00
         vertex 1.326535e-03 1.623953e-03 0.000000e+00
         vertex 1.085281e-03 1.968500e-03 0.000000e+00
      endloop
   endfacet
   facet normal 0.000000e+00 0.000000e+00 -1.000000e+00
      outer loop
         vertex 3.175000e-03 3.175000e-03 0.000000e+00
         vertex 1.085281e-03 1.968500e-03 0.000000e+00
         vertex 9.075217e-04 2.349705e-03 0.000000e+00
      endloop
   endfacet
   facet normal 0.000000e+00 0.000000e+00 -1.000000e+00
      outer loop
         vertex 2.755987e-03 7.986589e-04 0.000000e+00
         vertex 2.349705e-03 9.075217e-04 0.000000e+00
         vertex 3.175000e-03 3.175000e-03 0.000000e+00
      endloop
   endfacet
   facet normal 0.000000e+00 0.000000e+00 -1.000000e+00
      outer loop
         vertex 3.175000e-03 3.175000e-03 0.000000e+00
         vertex 2.349705e-03 9.075217e-04 0.000000e+00
         vertex 1.968500e-03 1.085281e-03 0.000000e+00
      endloop
   endfacet
   facet normal 0.000000e+00 0.000000e+00 -1.000000e+00
      outer loop
         vertex 3.175000e-03 3.175000e-03 0.000000e+00
         vertex 1.968500e-03 1.085281e-03 0.000000e+00
         vertex 1.623953e-03 1.326535e-03 0.000000e+00
      endloop
   endfacet
   facet normal -0.000000e+00 0.000000e+00 -1.000000e+00
      outer loop
         vertex 4.000295e-03 9.075217e-04 0.000000e+00
         vertex 3.594013e-03 7.986589e-04 0.000000e+00
         vertex 3.175000e-03 3.175000e-03 0.000000e+00
      endloop
   endfacet
   facet normal 0.000000e+00 0.000000e+00 -1.000000e+00
      outer loop
         vertex 3.175000e-03 3.175000e-03 0.000000e+00
         vertex 3.594013e-03 7.986589e-04 0.000000e+00
         vertex 3.175000e-03 7.620000e-04 0.000000e+00
      endloop
   endfacet
   facet normal 0.000000e+00 -0.000000e+00 -1.000000e+00
      outer loop
         vertex 3.175000e-03 3.175000e-03 0.000000e+00
         vertex 3.175000e-03 7.620000e-04 0.000000e+00
         vertex 2.755987e-03 7.986589e-04 0.000000e+00
      endloop
   endfacet
   facet normal -0.000000e+00 0.000000e+00 -1.000000e+00
      outer loop
         vertex 5.023465e-03 1.623953e-03 0.000000e+00
         vertex 4.726046e-03 1.326535e-03 0.000000e+00
         vertex 3.175000e-03 3.175000e-03 0.000000e+00
      endloop
   endfacet
   facet normal 0.000000e+00 0.000000e+00 -1.000000e+00
      outer loop
         vertex 3.175000e-03 3.175000e-03 0.000000e+00
         vertex 4.726046e-03 1.326535e-03 0.000000e+00
         vertex 4.381500e-03 1.085281e-03 0.000000e+00
      endloop
   endfacet
   facet normal 0.000000e+00 0.000000e+00 -1.000000e+00
      outer loop
         vertex 3.175000e-03 3.175000e-03 0.000000e+00
         vertex 4.381500e-03 1.085281e-03 0.000000e+00
         vertex 4.000295e-03 9.075217e-04 0.000000e+00
      endloop
   endfacet
   facet normal -0.000000e+00 0.000000e+00 -1.000000e+00
      outer loop
         vertex 5.551341e-03 2.755987e-03 0.000000e+00
         vertex 5.442478e-03 2.349705e-03 0.000000e+00
         vertex 3.175000e-03 3.175000e-03 0.000000e+00
      endloop
   endfacet
   facet normal 0.000000e+00 0.000000e+00 -1.000000e+00
      outer loop
         vertex 3.175000e-03 3.175000e-03 0.000000e+00
         vertex 5.442478e-03 2.349705e-03 0.000000e+00
         vertex 5.264719e-03 1.968500e-03 0.000000e+00
      endloop
   endfacet
   facet normal 0.000000e+00 0.000000e+00 -1.000000e+00
      outer loop
         vertex 3.175000e-03 3.175000e-03 0.000000e+00
         vertex 5.264719e-03 1.968500e-03 0.000000e+00
         vertex 5.023465e-03 1.623953e-03 0.000000e+00
      endloop
   endfacet
   facet normal 0.000000e+00 -0.000000e+00 -1.000000e+00
      outer loop
         vertex 5.442478e-03 4.000295e-03 0.000000e+00
         vertex 5.551341e-03 3.594013e-03 0.000000e+00
         vertex 3.175000e-03 3.175000e-03 0.000000e+00
      endloop
   endfacet
   facet normal 0.000000e+00 0.000000e+00 -1.000000e+00
      outer loop
         vertex 3.175000e-03 3.175000e-03 0.000000e+00
         vertex 5.551341e-03 3.594013e-03 0.000000e+00
         vertex 5.588000e-03 3.175000e-03 0.000000e+00
      endloop
   endfacet
   facet normal 0.000000e+00 0.000000e+00 -1.000000e+00
      outer loop
         vertex 3.175000e-03 3.175000e-03 0.000000e+00
         vertex 5.588000e-03 3.175000e-03 0.000000e+00
         vertex 5.551341e-03 2.755987e-03 0.000000e+00
      endloop
   endfacet
   facet normal 0.000000e+00 -0.000000e+00 -1.000000e+00
      outer loop
         vertex 4.726046e-03 5.023465e-03 0.000000e+00
         vertex 5.023465e-03 4.726046e-03 0.000000e+00
         vertex 3.175000e-03 3.175000e-03 0.000000e+00
      endloop
   endfacet
   facet normal 0.000000e+00 0.000000e+00 -1.000000e+00
      outer loop
         vertex 3.175000e-03 3.175000e-03 0.000000e+00
         vertex 5.023465e-03 4.726046e-03 0.000000e+00
         vertex 5.264719e-03 4.381500e-03 0.000000e+00
      endloop
   endfacet
   facet normal 0.000000e+00 0.000000e+00 -1.000000e+00
      outer loop
         vertex 3.175000e-03 3.175000e-03 0.000000e+00
         vertex 5.264719e-03 4.381500e-03 0.000000e+00
         vertex 5.442478e-03 4.000295e-03 0.000000e+00
      endloop
   endfacet
   facet normal 0.000000e+00 -0.000000e+00 -1.000000e+00
      outer loop
         vertex 3.594013e-03 5.551341e-03 0.000000e+00
         vertex 4.000295e-03 5.442478e-03 0.000000e+00
         vertex 3.175000e-03 3.175000e-03 0.000000e+00
      endloop
   endfacet
   facet normal 0.000000e+00 0.000000e+00 -1.000000e+00
      outer loop
         vertex 3.175000e-03 3.175000e-03 0.000000e+00
         vertex 4.000295e-03 5.442478e-03 0.000000e+00
         vertex 4.381500e-03 5.264719e-03 0.000000e+00
      endloop
   endfacet
   facet normal 0.000000e+00 0.000000e+00 -1.000000e+00
      outer loop
         vertex 3.175000e-03 3.175000e-03 0.000000e+00
         vertex 4.381500e-03 5.264719e-03 0.000000e+00
         vertex 4.726046e-03 5.023465e-03 0.000000e+00
      endloop
   endfacet
   facet normal 1.000000e+00 0.000000e+00 0.000000e+00
      outer loop
         vertex 6.350000e-03 6.350000e-03 2.921000e-02
         vertex 6.350000e-03 0.000000e+00 2.921000e-02
         vertex 6.350000e-03 6.350000e-03 2.540000e-02
      endloop
   endfacet
   facet normal 1.000000e+00 0.000000e+00 0.000000e+00
      outer loop
         vertex 6.350000e-03 6.350000e-03 2.540000e-02
         vertex 6.350000e-03 0.000000e+00 2.921000e-02
         vertex 6.350000e-03 0.000000e+00 2.540000e-02
      endloop
   endfacet
   facet normal -0.000000e+00 1.000000e+00 0.000000e+00
      outer loop
         vertex 0.000000e+00 6.350000e-03 2.921000e-02
         vertex 6.350000e-03 6.350000e-03 2.921000e-02
         vertex 0.000000e+00 6.350000e-03 2.540000e-02
      endloop
   endfacet
   facet normal 0.000000e+00 1.000000e+00 0.000000e+00
      outer loop
         vertex 0.000000e+00 6.350000e-03 2.540000e-02
         vertex 6.350000e-03 6.350000e-03 2.921000e-02
         vertex 6.350000e-03 6.350000e-03 2.540000e-02
      endloop
   endfacet
   facet normal -1.000000e+00 0.000000e+00 0.000000e+00
      outer loop
         vertex 0.000000e+00 0.000000e+00 2.921000e-02
         vertex 0.000000e+00 6.350000e-03 2.921000e-02
         vertex 0.000000e+00 0.000000e+00 2.540000e-02
      endloop
   endfacet
   facet normal -1.000000e+00 0.000000e+00 0.000000e+00
      outer loop
         vertex 0.000000e+00 0.000000e+00 2.540000e-02
         vertex 0.000000e+00 6.350000e-03 2.921000e-02
         vertex 0.000000e+00 6.350000e-03 2.540000e-02
      endloop
   endfacet
   facet normal -0.000000e+00 -1.000000e+00 -0.000000e+00
      outer loop
         vertex 6.350000e-03 0.000000e+00 2.921000e-02
         vertex 0.000000e+00 0.000000e+00 2.921000e-02
         vertex 6.350000e-03 0.000000e+00 2.540000e-02
      endloop
   endfacet
   facet normal 0.000000e+00 -1.000000e+00 0.000000e+00
      outer loop
         vertex 6.350000e-03 0.000000e+00 2.540000e-02
         vertex 0.000000e+00 0.000000e+00 2.921000e-02
         vertex 0.000000e+00 0.000000e+00 2.540000e-02
      endloop
   endfacet
   facet normal -0.000000e+00 0.000000e+00 1.000000e+00
      outer loop
         vertex 0.000000e+00 6.350000e-03 2.921000e-02
         vertex 0.000000e+00 0.000000e+00 2.921000e-02
         vertex 6.350000e-03 6.350000e-03 2.921000e-02
      endloop
   endfacet
   facet normal 0.000000e+00 0.000000e+00 1.000000e+00
      outer loop
         vertex 6.350000e-03 6.350000e-03 2.921000e-02
         vertex 0.000000e+00 0.000000e+00 2.921000e-02
         vertex 6.350000e-03 0.000000e+00 2.921000e-02
      endloop
   endfacet
   facet normal -0.000000e+00 0.000000e+00 -1.000000e+00
      outer loop
         vertex 8.888333e-05 3.719166e-03 2.540000e-02
         vertex 4.127505e-05 3.175000e-03 2.540000e-02
         vertex 0.000000e+00 6.350000e-03 2.540000e-02
      endloop
   endfacet
   facet normal 0.000000e+00 -0.000000e+00 -1.000000e+00
      outer loop
         vertex 4.611146e-04 1.608138e-03 2.540000e-02
         vertex 7.744273e-04 1.160680e-03 2.540000e-02
         vertex 0.000000e+00 0.000000e+00 2.540000e-02
      endloop
   endfacet
   facet normal -0.000000e+00 0.000000e+00 -1.000000e+00
      outer loop
         vertex 4.611146e-04 1.608138e-03 2.540000e-02
         vertex 0.000000e+00 0.000000e+00 2.540000e-02
         vertex 2.302616e-04 2.103203e-03 2.540000e-02
      endloop
   endfacet
   facet normal 0.000000e+00 0.000000e+00 -1.000000e+00
      outer loop
         vertex 5.575573e-03 5.189320e-03 2.540000e-02
         vertex 6.350000e-03 6.350000e-03 2.540000e-02
         vertex 5.888885e-03 4.741862e-03 2.540000e-02
      endloop
   endfacet
   facet normal 0.000000e+00 0.000000e+00 -1.000000e+00
      outer loop
         vertex 5.888885e-03 4.741862e-03 2.540000e-02
         vertex 6.350000e-03 6.350000e-03 2.540000e-02
         vertex 6.119738e-03 4.246797e-03 2.540000e-02
      endloop
   endfacet
   facet normal 0.000000e+00 0.000000e+00 -1.000000e+00
      outer loop
         vertex 0.000000e+00 6.350000e-03 2.540000e-02
         vertex 4.127505e-05 3.175000e-03 2.540000e-02
         vertex 0.000000e+00 0.000000e+00 2.540000e-02
      endloop
   endfacet
   facet normal 0.000000e+00 0.000000e+00 -1.000000e+00
      outer loop
         vertex 0.000000e+00 0.000000e+00 2.540000e-02
         vertex 4.127505e-05 3.175000e-03 2.540000e-02
         vertex 8.888333e-05 2.630834e-03 2.540000e-02
      endloop
   endfacet
   facet normal 0.000000e+00 0.000000e+00 -1.000000e+00
      outer loop
         vertex 0.000000e+00 0.000000e+00 2.540000e-02
         vertex 8.888333e-05 2.630834e-03 2.540000e-02
         vertex 2.302616e-04 2.103203e-03 2.540000e-02
      endloop
   endfacet
   facet normal 0.000000e+00 -0.000000e+00 -1.000000e+00
      outer loop
         vertex 7.744273e-04 1.160680e-03 2.540000e-02
         vertex 1.160680e-03 7.744273e-04 2.540000e-02
         vertex 0.000000e+00 0.000000e+00 2.540000e-02
      endloop
   endfacet
   facet normal 0.000000e+00 0.000000e+00 -1.000000e+00
      outer loop
         vertex 0.000000e+00 0.000000e+00 2.540000e-02
         vertex 1.160680e-03 7.744273e-04 2.540000e-02
         vertex 1.608138e-03 4.611146e-04 2.540000e-02
      endloop
   endfacet
   facet normal 0.000000e+00 0.000000e+00 -1.000000e+00
      outer loop
         vertex 0.000000e+00 0.000000e+00 2.540000e-02
         vertex 1.608138e-03 4.611146e-04 2.540000e-02
         vertex 2.103203e-03 2.302616e-04 2.540000e-02
      endloop
   endfacet
   facet normal 0.000000e+00 -0.000000e+00 -1.000000e+00
      outer loop
         vertex 3.719166e-03 8.888333e-05 2.540000e-02
         vertex 6.350000e-03 0.000000e+00 2.540000e-02
         vertex 3.175000e-03 4.127505e-05 2.540000e-02
      endloop
   endfacet
   facet normal 0.000000e+00 -0.000000e+00 -1.000000e+00
      outer loop
         vertex 3.175000e-03 4.127505e-05 2.540000e-02
         vertex 6.350000e-03 0.000000e+00 2.540000e-02
         vertex 0.000000e+00 0.000000e+00 2.540000e-02
      endloop
   endfacet
   facet normal -0.000000e+00 0.000000e+00 -1.000000e+00
      outer loop
         vertex 3.175000e-03 4.127505e-05 2.540000e-02
         vertex 0.000000e+00 0.000000e+00 2.540000e-02
         vertex 2.630834e-03 8.888333e-05 2.540000e-02
      endloop
   endfacet
   facet normal -0.000000e+00 0.000000e+00 -1.000000e+00
      outer loop
         vertex 2.630834e-03 8.888333e-05 2.540000e-02
         vertex 0.000000e+00 0.000000e+00 2.540000e-02
         vertex 2.103203e-03 2.302616e-04 2.540000e-02
      endloop
   endfacet
   facet normal 0.000000e+00 0.000000e+00 -1.000000e+00
      outer loop
         vertex 3.719166e-03 8.888333e-05 2.540000e-02
         vertex 4.246797e-03 2.302616e-04 2.540000e-02
         vertex 6.350000e-03 0.000000e+00 2.540000e-02
      endloop
   endfacet
   facet normal 0.000000e+00 0.000000e+00 -1.000000e+00
      outer loop
         vertex 6.350000e-03 0.000000e+00 2.540000e-02
         vertex 4.246797e-03 2.302616e-04 2.540000e-02
         vertex 4.741862e-03 4.611146e-04 2.540000e-02
      endloop
   endfacet
   facet normal 0.000000e+00 0.000000e+00 -1.000000e+00
      outer loop
         vertex 6.350000e-03 0.000000e+00 2.540000e-02
         vertex 4.741862e-03 4.611146e-04 2.540000e-02
         vertex 5.189320e-03 7.744273e-04 2.540000e-02
      endloop
   endfacet
   facet normal 0.000000e+00 0.000000e+00 -1.000000e+00
      outer loop
         vertex 5.189320e-03 7.744273e-04 2.540000e-02
         vertex 5.575573e-03 1.160680e-03 2.540000e-02
         vertex 6.350000e-03 0.000000e+00 2.540000e-02
      endloop
   endfacet
   facet normal 0.000000e+00 0.000000e+00 -1.000000e+00
      outer loop
         vertex 6.350000e-03 0.000000e+00 2.540000e-02
         vertex 5.575573e-03 1.160680e-03 2.540000e-02
         vertex 5.888885e-03 1.608138e-03 2.540000e-02
      endloop
   endfacet
   facet normal 0.000000e+00 0.000000e+00 -1.000000e+00
      outer loop
         vertex 6.350000e-03 0.000000e+00 2.540000e-02
         vertex 5.888885e-03 1.608138e-03 2.540000e-02
         vertex 6.119738e-03 2.103203e-03 2.540000e-02
      endloop
   endfacet
   facet normal 0.000000e+00 0.000000e+00 -1.000000e+00
      outer loop
         vertex 5.575573e-03 5.189320e-03 2.540000e-02
         vertex 5.189320e-03 5.575573e-03 2.540000e-02
         vertex 6.350000e-03 6.350000e-03 2.540000e-02
      endloop
   endfacet
   facet normal 0.000000e+00 0.000000e+00 -1.000000e+00
      outer loop
         vertex 6.350000e-03 6.350000e-03 2.540000e-02
         vertex 5.189320e-03 5.575573e-03 2.540000e-02
         vertex 4.741862e-03 5.888885e-03 2.540000e-02
      endloop
   endfacet
   facet normal 0.000000e+00 0.000000e+00 -1.000000e+00
      outer loop
         vertex 6.350000e-03 6.350000e-03 2.540000e-02
         vertex 4.741862e-03 5.888885e-03 2.540000e-02
         vertex 4.246797e-03 6.119738e-03 2.540000e-02
      endloop
   endfacet
   facet normal 0.000000e+00 0.000000e+00 -1.000000e+00
      outer loop
         vertex 6.119738e-03 2.103203e-03 2.540000e-02
         vertex 6.261117e-03 2.630834e-03 2.540000e-02
         vertex 6.350000e-03 0.000000e+00 2.540000e-02
      endloop
   endfacet
   facet normal 0.000000e+00 0.000000e+00 -1.000000e+00
      outer loop
         vertex 6.350000e-03 0.000000e+00 2.540000e-02
         vertex 6.261117e-03 2.630834e-03 2.540000e-02
         vertex 6.308725e-03 3.175000e-03 2.540000e-02
      endloop
   endfacet
   facet normal 0.000000e+00 0.000000e+00 -1.000000e+00
      outer loop
         vertex 6.350000e-03 0.000000e+00 2.540000e-02
         vertex 6.308725e-03 3.175000e-03 2.540000e-02
         vertex 6.350000e-03 6.350000e-03 2.540000e-02
      endloop
   endfacet
   facet normal 0.000000e+00 0.000000e+00 -1.000000e+00
      outer loop
         vertex 6.350000e-03 6.350000e-03 2.540000e-02
         vertex 6.308725e-03 3.175000e-03 2.540000e-02
         vertex 6.261117e-03 3.719166e-03 2.540000e-02
      endloop
   endfacet
   facet normal 0.000000e+00 0.000000e+00 -1.000000e+00
      outer loop
         vertex 6.350000e-03 6.350000e-03 2.540000e-02
         vertex 6.261117e-03 3.719166e-03 2.540000e-02
         vertex 6.119738e-03 4.246797e-03 2.540000e-02
      endloop
   endfacet
   facet normal 0.000000e+00 0.000000e+00 -1.000000e+00
      outer loop
         vertex 4.246797e-03 6.119738e-03 2.540000e-02
         vertex 3.719166e-03 6.261117e-03 2.540000e-02
         vertex 6.350000e-03 6.350000e-03 2.540000e-02
      endloop
   endfacet
   facet normal 0.000000e+00 0.000000e+00 -1.000000e+00
      outer loop
         vertex 6.350000e-03 6.350000e-03 2.540000e-02
         vertex 3.719166e-03 6.261117e-03 2.540000e-02
         vertex 3.175000e-03 6.308725e-03 2.540000e-02
      endloop
   endfacet
   facet normal -0.000000e+00 0.000000e+00 -1.000000e+00
      outer loop
         vertex 6.350000e-03 6.350000e-03 2.540000e-02
         vertex 3.175000e-03 6.308725e-03 2.540000e-02
         vertex 0.000000e+00 6.350000e-03 2.540000e-02
      endloop
   endfacet
   facet normal 0.000000e+00 0.000000e+00 -1.000000e+00
      outer loop
         vertex 0.000000e+00 6.350000e-03 2.540000e-02
         vertex 3.175000e-03 6.308725e-03 2.540000e-02
         vertex 2.630834e-03 6.261117e-03 2.540000e-02
      endloop
   endfacet
   facet normal 0.000000e+00 0.000000e+00 -1.000000e+00
      outer loop
         vertex 0.000000e+00 6.350000e-03 2.540000e-02
         vertex 2.630834e-03 6.261117e-03 2.540000e-02
         vertex 2.103203e-03 6.119738e-03 2.540000e-02
      endloop
   endfacet
   facet normal -0.000000e+00 0.000000e+00 -1.000000e+00
      outer loop
         vertex 2.103203e-03 6.119738e-03 2.540000e-02
         vertex 1.608138e-03 5.888885e-03 2.540000e-02
         vertex 0.000000e+00 6.350000e-03 2.540000e-02
      endloop
   endfacet
   facet normal 0.000000e+00 0.000000e+00 -1.000000e+00
      outer loop
         vertex 0.000000e+00 6.350000e-03 2.540000e-02
         vertex 1.608138e-03 5.888885e-03 2.540000e-02
         vertex 1.160680e-03 5.575573e-03 2.540000e-02
      endloop
   endfacet
   facet normal 0.000000e+00 0.000000e+00 -1.000000e+00
      outer loop
         vertex 0.000000e+00 6.350000e-03 2.540000e-02
         vertex 1.160680e-03 5.575573e-03 2.540000e-02
         vertex 7.744273e-04 5.189320e-03 2.540000e-02
      endloop
   endfacet
   facet normal -0.000000e+00 0.000000e+00 -1.000000e+00
      outer loop
         vertex 7.744273e-04 5.189320e-03 2.540000e-02
         vertex 4.611146e-04 4.741862e-03 2.540000e-02
         vertex 0.000000e+00 6.350000e-03 2.540000e-02
      endloop
   endfacet
   facet normal 0.000000e+00 0.000000e+00 -1.000000e+00
      outer loop
         vertex 0.000000e+00 6.350000e-03 2.540000e-02
         vertex 4.611146e-04 4.741862e-03 2.540000e-02
         vertex 2.302616e-04 4.246797e-03 2.540000e-02
      endloop
   endfacet
   facet normal 0.000000e+00 0.000000e+00 -1.000000e+00
      outer loop
         vertex 0.000000e+00 6.350000e-03 2.540000e-02
         vertex 2.302616e-04 4.246797e-03 2.540000e-02
         vertex 8.888333e-05 3.719166e-03 2.540000e-02
      endloop
   endfacet
endsolid