solid Mounting bracket 2
   facet normal 1.000000e+00 -0.000000e+00 0.000000e+00
      outer loop
         vertex 2.349500e-03 5.426533e-03 7.412355e-03
         vertex 2.349500e-03 5.583054e-03 7.076694e-03
         vertex 2.349500e-03 1.008888e-02 1.174750e-02
      endloop
   endfacet
   facet normal 1.000000e+00 0.000000e+00 0.000000e+00
      outer loop
         vertex 2.349500e-03 1.008888e-02 9.525000e-04
         vertex 2.349500e-03 3.955432e-03 4.257569e-03
         vertex 2.349500e-03 6.985000e-04 9.525000e-04
      endloop
   endfacet
   facet normal 1.000000e+00 0.000000e+00 0.000000e+00
      outer loop
         vertex 2.349500e-03 6.985000e-04 9.525000e-04
         vertex 2.349500e-03 3.955432e-03 4.257569e-03
         vertex 2.349500e-03 3.586480e-03 4.225290e-03
      endloop
   endfacet
   facet normal 1.000000e+00 0.000000e+00 0.000000e+00
      outer loop
         vertex 2.349500e-03 6.985000e-04 9.525000e-04
         vertex 2.349500e-03 3.586480e-03 4.225290e-03
         vertex 2.349500e-03 3.217528e-03 4.257569e-03
      endloop
   endfacet
   facet normal 1.000000e+00 0.000000e+00 0.000000e+00
      outer loop
         vertex 2.349500e-03 4.952217e-03 4.722378e-03
         vertex 2.349500e-03 4.648835e-03 4.509947e-03
         vertex 2.349500e-03 1.008888e-02 9.525000e-04
      endloop
   endfacet
   facet normal 1.000000e+00 0.000000e+00 0.000000e+00
      outer loop
         vertex 2.349500e-03 1.008888e-02 9.525000e-04
         vertex 2.349500e-03 4.648835e-03 4.509947e-03
         vertex 2.349500e-03 4.313174e-03 4.353426e-03
      endloop
   endfacet
   facet normal 1.000000e+00 0.000000e+00 0.000000e+00
      outer loop
         vertex 2.349500e-03 1.008888e-02 9.525000e-04
         vertex 2.349500e-03 4.313174e-03 4.353426e-03
         vertex 2.349500e-03 3.955432e-03 4.257569e-03
      endloop
   endfacet
   facet normal 1.000000e+00 0.000000e+00 0.000000e+00
      outer loop
         vertex 2.349500e-03 1.958858e-03 7.715737e-03
         vertex 2.349500e-03 6.985000e-04 1.174750e-02
         vertex 2.349500e-03 1.746427e-03 7.412355e-03
      endloop
   endfacet
   facet normal 1.000000e+00 0.000000e+00 0.000000e+00
      outer loop
         vertex 2.349500e-03 1.746427e-03 7.412355e-03
         vertex 2.349500e-03 6.985000e-04 1.174750e-02
         vertex 2.349500e-03 1.589906e-03 7.076694e-03
      endloop
   endfacet
   facet normal 1.000000e+00 -0.000000e+00 0.000000e+00
      outer loop
         vertex 2.349500e-03 5.583054e-03 7.076694e-03
         vertex 2.349500e-03 5.678911e-03 6.718952e-03
         vertex 2.349500e-03 1.008888e-02 1.174750e-02
      endloop
   endfacet
   facet normal 1.000000e+00 0.000000e+00 0.000000e+00
      outer loop
         vertex 2.349500e-03 1.008888e-02 1.174750e-02
         vertex 2.349500e-03 5.678911e-03 6.718952e-03
         vertex 2.349500e-03 5.711190e-03 6.350000e-03
      endloop
   endfacet
   facet normal 1.000000e+00 0.000000e+00 0.000000e+00
      outer loop
         vertex 2.349500e-03 1.008888e-02 1.174750e-02
         vertex 2.349500e-03 5.711190e-03 6.350000e-03
         vertex 2.349500e-03 1.008888e-02 9.525000e-04
      endloop
   endfacet
   facet normal 1.000000e+00 0.000000e+00 0.000000e+00
      outer loop
         vertex 2.349500e-03 1.008888e-02 9.525000e-04
         vertex 2.349500e-03 5.711190e-03 6.350000e-03
         vertex 2.349500e-03 5.678911e-03 5.981048e-03
      endloop
   endfacet
   facet normal 1.000000e+00 0.000000e+00 0.000000e+00
      outer loop
         vertex 2.349500e-03 1.008888e-02 9.525000e-04
         vertex 2.349500e-03 5.678911e-03 5.981048e-03
         vertex 2.349500e-03 5.583054e-03 5.623306e-03
      endloop
   endfacet
   facet normal 1.000000e+00 0.000000e+00 0.000000e+00
      outer loop
         vertex 2.349500e-03 5.583054e-03 5.623306e-03
         vertex 2.349500e-03 5.426533e-03 5.287645e-03
         vertex 2.349500e-03 1.008888e-02 9.525000e-04
      endloop
   endfacet
   facet normal 1.000000e+00 0.000000e+00 0.000000e+00
      outer loop
         vertex 2.349500e-03 1.008888e-02 9.525000e-04
         vertex 2.349500e-03 5.426533e-03 5.287645e-03
         vertex 2.349500e-03 5.214102e-03 4.984263e-03
      endloop
   endfacet
   facet normal 1.000000e+00 0.000000e+00 0.000000e+00
      outer loop
         vertex 2.349500e-03 1.008888e-02 9.525000e-04
         vertex 2.349500e-03 5.214102e-03 4.984263e-03
         vertex 2.349500e-03 4.952217e-03 4.722378e-03
      endloop
   endfacet
   facet normal 1.000000e+00 0.000000e+00 0.000000e+00
      outer loop
         vertex 2.349500e-03 3.217528e-03 4.257569e-03
         vertex 2.349500e-03 2.859786e-03 4.353426e-03
         vertex 2.349500e-03 6.985000e-04 9.525000e-04
      endloop
   endfacet
   facet normal 1.000000e+00 0.000000e+00 0.000000e+00
      outer loop
         vertex 2.349500e-03 6.985000e-04 9.525000e-04
         vertex 2.349500e-03 2.859786e-03 4.353426e-03
         vertex 2.349500e-03 2.524125e-03 4.509947e-03
      endloop
   endfacet
   facet normal 1.000000e+00 0.000000e+00 0.000000e+00
      outer loop
         vertex 2.349500e-03 6.985000e-04 9.525000e-04
         vertex 2.349500e-03 2.524125e-03 4.509947e-03
         vertex 2.349500e-03 2.220743e-03 4.722378e-03
      endloop
   endfacet
   facet normal 1.000000e+00 0.000000e+00 0.000000e+00
      outer loop
         vertex 2.349500e-03 2.220743e-03 4.722378e-03
         vertex 2.349500e-03 1.958858e-03 4.984263e-03
         vertex 2.349500e-03 6.985000e-04 9.525000e-04
      endloop
   endfacet
   facet normal 1.000000e+00 0.000000e+00 0.000000e+00
      outer loop
         vertex 2.349500e-03 6.985000e-04 9.525000e-04
         vertex 2.349500e-03 1.958858e-03 4.984263e-03
         vertex 2.349500e-03 1.746427e-03 5.287645e-03
      endloop
   endfacet
   facet normal 1.000000e+00 0.000000e+00 0.000000e+00
      outer loop
         vertex 2.349500e-03 6.985000e-04 9.525000e-04
         vertex 2.349500e-03 1.746427e-03 5.287645e-03
         vertex 2.349500e-03 1.589906e-03 5.623306e-03
      endloop
   endfacet
   facet normal 1.000000e+00 0.000000e+00 0.000000e+00
      outer loop
         vertex 2.349500e-03 1.589906e-03 5.623306e-03
         vertex 2.349500e-03 1.494049e-03 5.981048e-03
         vertex 2.349500e-03 6.985000e-04 9.525000e-04
      endloop
   endfacet
   facet normal 1.000000e+00 0.000000e+00 0.000000e+00
      outer loop
         vertex 2.349500e-03 6.985000e-04 9.525000e-04
         vertex 2.349500e-03 1.494049e-03 5.981048e-03
         vertex 2.349500e-03 1.461770e-03 6.350000e-03
      endloop
   endfacet
   facet normal 1.000000e+00 0.000000e+00 0.000000e+00
      outer loop
         vertex 2.349500e-03 6.985000e-04 9.525000e-04
         vertex 2.349500e-03 1.461770e-03 6.350000e-03
         vertex 2.349500e-03 6.985000e-04 1.174750e-02
      endloop
   endfacet
   facet normal 1.000000e+00 0.000000e+00 0.000000e+00
      outer loop
         vertex 2.349500e-03 6.985000e-04 1.174750e-02
         vertex 2.349500e-03 1.461770e-03 6.350000e-03
         vertex 2.349500e-03 1.494049e-03 6.718952e-03
      endloop
   endfacet
   facet normal 1.000000e+00 0.000000e+00 0.000000e+00
      outer loop
         vertex 2.349500e-03 6.985000e-04 1.174750e-02
         vertex 2.349500e-03 1.494049e-03 6.718952e-03
         vertex 2.349500e-03 1.589906e-03 7.076694e-03
      endloop
   endfacet
   facet normal 1.000000e+00 0.000000e+00 0.000000e+00
      outer loop
         vertex 2.349500e-03 1.008888e-02 1.174750e-02
         vertex 2.349500e-03 4.313174e-03 8.346574e-03
         vertex 2.349500e-03 4.648835e-03 8.190053e-03
      endloop
   endfacet
   facet normal 1.000000e+00 0.000000e+00 -0.000000e+00
      outer loop
         vertex 2.349500e-03 1.958858e-03 7.715737e-03
         vertex 2.349500e-03 2.220743e-03 7.977622e-03
         vertex 2.349500e-03 6.985000e-04 1.174750e-02
      endloop
   endfacet
   facet normal 1.000000e+00 0.000000e+00 0.000000e+00
      outer loop
         vertex 2.349500e-03 6.985000e-04 1.174750e-02
         vertex 2.349500e-03 2.220743e-03 7.977622e-03
         vertex 2.349500e-03 2.524125e-03 8.190053e-03
      endloop
   endfacet
   facet normal 1.000000e+00 0.000000e+00 0.000000e+00
      outer loop
         vertex 2.349500e-03 6.985000e-04 1.174750e-02
         vertex 2.349500e-03 2.524125e-03 8.190053e-03
         vertex 2.349500e-03 2.859786e-03 8.346574e-03
      endloop
   endfacet
   facet normal 1.000000e+00 -0.000000e+00 0.000000e+00
      outer loop
         vertex 2.349500e-03 4.648835e-03 8.190053e-03
         vertex 2.349500e-03 4.952217e-03 7.977622e-03
         vertex 2.349500e-03 1.008888e-02 1.174750e-02
      endloop
   endfacet
   facet normal 1.000000e+00 0.000000e+00 0.000000e+00
      outer loop
         vertex 2.349500e-03 1.008888e-02 1.174750e-02
         vertex 2.349500e-03 4.952217e-03 7.977622e-03
         vertex 2.349500e-03 5.214102e-03 7.715737e-03
      endloop
   endfacet
   facet normal 1.000000e+00 0.000000e+00 0.000000e+00
      outer loop
         vertex 2.349500e-03 1.008888e-02 1.174750e-02
         vertex 2.349500e-03 5.214102e-03 7.715737e-03
         vertex 2.349500e-03 5.426533e-03 7.412355e-03
      endloop
   endfacet
   facet normal 1.000000e+00 0.000000e+00 -0.000000e+00
      outer loop
         vertex 2.349500e-03 2.859786e-03 8.346574e-03
         vertex 2.349500e-03 3.217528e-03 8.442431e-03
         vertex 2.349500e-03 6.985000e-04 1.174750e-02
      endloop
   endfacet
   facet normal 1.000000e+00 0.000000e+00 0.000000e+00
      outer loop
         vertex 2.349500e-03 6.985000e-04 1.174750e-02
         vertex 2.349500e-03 3.217528e-03 8.442431e-03
         vertex 2.349500e-03 3.586480e-03 8.474710e-03
      endloop
   endfacet
   facet normal 1.000000e+00 -0.000000e+00 0.000000e+00
      outer loop
         vertex 2.349500e-03 6.985000e-04 1.174750e-02
         vertex 2.349500e-03 3.586480e-03 8.474710e-03
         vertex 2.349500e-03 1.008888e-02 1.174750e-02
      endloop
   endfacet
   facet normal 1.000000e+00 0.000000e+00 0.000000e+00
      outer loop
         vertex 2.349500e-03 1.008888e-02 1.174750e-02
         vertex 2.349500e-03 3.586480e-03 8.474710e-03
         vertex 2.349500e-03 3.955432e-03 8.442431e-03
      endloop
   endfacet
   facet normal 1.000000e+00 0.000000e+00 0.000000e+00
      outer loop
         vertex 2.349500e-03 1.008888e-02 1.174750e-02
         vertex 2.349500e-03 3.955432e-03 8.442431e-03
         vertex 2.349500e-03 4.313174e-03 8.346574e-03
      endloop
   endfacet
   facet normal -0.000000e+00 -1.000000e+00 -0.000000e+00
      outer loop
         vertex 1.035050e-02 1.008888e-02 1.174750e-02
         vertex 2.349500e-03 1.008888e-02 1.174750e-02
         vertex 1.035050e-02 1.008888e-02 9.525000e-04
      endloop
   endfacet
   facet normal 0.000000e+00 -1.000000e+00 0.000000e+00
      outer loop
         vertex 1.035050e-02 1.008888e-02 9.525000e-04
         vertex 2.349500e-03 1.008888e-02 1.174750e-02
         vertex 2.349500e-03 1.008888e-02 9.525000e-04
      endloop
   endfacet
   facet normal -1.000000e+00 -0.000000e+00 0.000000e+00
      outer loop
         vertex 1.035050e-02 1.958858e-03 7.715737e-03
         vertex 1.035050e-02 1.746427e-03 7.412355e-03
         vertex 1.035050e-02 6.985000e-04 1.174750e-02
      endloop
   endfacet
   facet normal -1.000000e+00 0.000000e+00 0.000000e+00
      outer loop
         vertex 1.035050e-02 6.985000e-04 1.174750e-02
         vertex 1.035050e-02 1.746427e-03 7.412355e-03
         vertex 1.035050e-02 1.589906e-03 7.076694e-03
      endloop
   endfacet
   facet normal -1.000000e+00 0.000000e+00 0.000000e+00
      outer loop
         vertex 1.035050e-02 6.985000e-04 1.174750e-02
         vertex 1.035050e-02 3.217528e-03 8.442431e-03
         vertex 1.035050e-02 2.859786e-03 8.346574e-03
      endloop
   endfacet
   facet normal -1.000000e+00 -0.000000e+00 0.000000e+00
      outer loop
         vertex 1.035050e-02 1.589906e-03 7.076694e-03
         vertex 1.035050e-02 1.494049e-03 6.718952e-03
         vertex 1.035050e-02 6.985000e-04 1.174750e-02
      endloop
   endfacet
   facet normal -1.000000e+00 0.000000e+00 0.000000e+00
      outer loop
         vertex 1.035050e-02 6.985000e-04 1.174750e-02
         vertex 1.035050e-02 1.494049e-03 6.718952e-03
         vertex 1.035050e-02 1.461770e-03 6.350000e-03
      endloop
   endfacet
   facet normal -1.000000e+00 0.000000e+00 0.000000e+00
      outer loop
         vertex 1.035050e-02 6.985000e-04 1.174750e-02
         vertex 1.035050e-02 1.461770e-03 6.350000e-03
         vertex 1.035050e-02 6.985000e-04 9.525000e-04
      endloop
   endfacet
   facet normal -1.000000e+00 0.000000e+00 0.000000e+00
      outer loop
         vertex 1.035050e-02 6.985000e-04 9.525000e-04
         vertex 1.035050e-02 1.461770e-03 6.350000e-03
         vertex 1.035050e-02 1.494049e-03 5.981048e-03
      endloop
   endfacet
   facet normal -1.000000e+00 0.000000e+00 0.000000e+00
      outer loop
         vertex 1.035050e-02 6.985000e-04 9.525000e-04
         vertex 1.035050e-02 1.494049e-03 5.981048e-03
         vertex 1.035050e-02 1.589906e-03 5.623306e-03
      endloop
   endfacet
   facet normal -1.000000e+00 0.000000e+00 -0.000000e+00
      outer loop
         vertex 1.035050e-02 2.220743e-03 4.722378e-03
         vertex 1.035050e-02 2.524125e-03 4.509947e-03
         vertex 1.035050e-02 6.985000e-04 9.525000e-04
      endloop
   endfacet
   facet normal -1.000000e+00 0.000000e+00 0.000000e+00
      outer loop
         vertex 1.035050e-02 6.985000e-04 9.525000e-04
         vertex 1.035050e-02 2.524125e-03 4.509947e-03
         vertex 1.035050e-02 2.859786e-03 4.353426e-03
      endloop
   endfacet
   facet normal -1.000000e+00 0.000000e+00 0.000000e+00
      outer loop
         vertex 1.035050e-02 5.678911e-03 6.718952e-03
         vertex 1.035050e-02 5.583054e-03 7.076694e-03
         vertex 1.035050e-02 1.008888e-02 1.174750e-02
      endloop
   endfacet
   facet normal -1.000000e+00 0.000000e+00 0.000000e+00
      outer loop
         vertex 1.035050e-02 1.008888e-02 1.174750e-02
         vertex 1.035050e-02 5.583054e-03 7.076694e-03
         vertex 1.035050e-02 5.426533e-03 7.412355e-03
      endloop
   endfacet
   facet normal -1.000000e+00 -0.000000e+00 0.000000e+00
      outer loop
         vertex 1.035050e-02 2.859786e-03 8.346574e-03
         vertex 1.035050e-02 2.524125e-03 8.190053e-03
         vertex 1.035050e-02 6.985000e-04 1.174750e-02
      endloop
   endfacet
   facet normal -1.000000e+00 0.000000e+00 0.000000e+00
      outer loop
         vertex 1.035050e-02 6.985000e-04 1.174750e-02
         vertex 1.035050e-02 2.524125e-03 8.190053e-03
         vertex 1.035050e-02 2.220743e-03 7.977622e-03
      endloop
   endfacet
   facet normal -1.000000e+00 0.000000e+00 0.000000e+00
      outer loop
         vertex 1.035050e-02 6.985000e-04 1.174750e-02
         vertex 1.035050e-02 2.220743e-03 7.977622e-03
         vertex 1.035050e-02 1.958858e-03 7.715737e-03
      endloop
   endfacet
   facet normal -1.000000e+00 0.000000e+00 -0.000000e+00
      outer loop
         vertex 1.035050e-02 1.589906e-03 5.623306e-03
         vertex 1.035050e-02 1.746427e-03 5.287645e-03
         vertex 1.035050e-02 6.985000e-04 9.525000e-04
      endloop
   endfacet
   facet normal -1.000000e+00 0.000000e+00 0.000000e+00
      outer loop
         vertex 1.035050e-02 6.985000e-04 9.525000e-04
         vertex 1.035050e-02 1.746427e-03 5.287645e-03
         vertex 1.035050e-02 1.958858e-03 4.984263e-03
      endloop
   endfacet
   facet normal -1.000000e+00 0.000000e+00 0.000000e+00
      outer loop
         vertex 1.035050e-02 6.985000e-04 9.525000e-04
         vertex 1.035050e-02 1.958858e-03 4.984263e-03
         vertex 1.035050e-02 2.220743e-03 4.722378e-03
      endloop
   endfacet
   facet normal -1.000000e+00 0.000000e+00 -0.000000e+00
      outer loop
         vertex 1.035050e-02 2.859786e-03 4.353426e-03
         vertex 1.035050e-02 3.217528e-03 4.257569e-03
         vertex 1.035050e-02 6.985000e-04 9.525000e-04
      endloop
   endfacet
   facet normal -1.000000e+00 0.000000e+00 0.000000e+00
      outer loop
         vertex 1.035050e-02 6.985000e-04 9.525000e-04
         vertex 1.035050e-02 3.217528e-03 4.257569e-03
         vertex 1.035050e-02 3.586480e-03 4.225290e-03
      endloop
   endfacet
   facet normal -1.000000e+00 0.000000e+00 0.000000e+00
      outer loop
         vertex 1.035050e-02 6.985000e-04 9.525000e-04
         vertex 1.035050e-02 3.586480e-03 4.225290e-03
         vertex 1.035050e-02 1.008888e-02 9.525000e-04
      endloop
   endfacet
   facet normal -1.000000e+00 0.000000e+00 0.000000e+00
      outer loop
         vertex 1.035050e-02 3.586480e-03 4.225290e-03
         vertex 1.035050e-02 3.955432e-03 4.257569e-03
         vertex 1.035050e-02 1.008888e-02 9.525000e-04
      endloop
   endfacet
   facet normal -1.000000e+00 0.000000e+00 0.000000e+00
      outer loop
         vertex 1.035050e-02 1.008888e-02 9.525000e-04
         vertex 1.035050e-02 3.955432e-03 4.257569e-03
         vertex 1.035050e-02 4.313174e-03 4.353426e-03
      endloop
   endfacet
   facet normal -1.000000e+00 0.000000e+00 0.000000e+00
      outer loop
         vertex 1.035050e-02 1.008888e-02 9.525000e-04
         vertex 1.035050e-02 4.313174e-03 4.353426e-03
         vertex 1.035050e-02 4.648835e-03 4.509947e-03
      endloop
   endfacet
   facet normal -1.000000e+00 0.000000e+00 0.000000e+00
      outer loop
         vertex 1.035050e-02 4.648835e-03 4.509947e-03
         vertex 1.035050e-02 4.952217e-03 4.722378e-03
         vertex 1.035050e-02 1.008888e-02 9.525000e-04
      endloop
   endfacet
   facet normal -1.000000e+00 0.000000e+00 0.000000e+00
      outer loop
         vertex 1.035050e-02 1.008888e-02 9.525000e-04
         vertex 1.035050e-02 4.952217e-03 4.722378e-03
         vertex 1.035050e-02 5.214102e-03 4.984263e-03
      endloop
   endfacet
   facet normal -1.000000e+00 0.000000e+00 0.000000e+00
      outer loop
         vertex 1.035050e-02 1.008888e-02 9.525000e-04
         vertex 1.035050e-02 5.214102e-03 4.984263e-03
         vertex 1.035050e-02 5.426533e-03 5.287645e-03
      endloop
   endfacet
   facet normal -1.000000e+00 0.000000e+00 0.000000e+00
      outer loop
         vertex 1.035050e-02 5.426533e-03 5.287645e-03
         vertex 1.035050e-02 5.583054e-03 5.623306e-03
         vertex 1.035050e-02 1.008888e-02 9.525000e-04
      endloop
   endfacet
   facet normal -1.000000e+00 0.000000e+00 0.000000e+00
      outer loop
         vertex 1.035050e-02 1.008888e-02 9.525000e-04
         vertex 1.035050e-02 5.583054e-03 5.623306e-03
         vertex 1.035050e-02 5.678911e-03 5.981048e-03
      endloop
   endfacet
   facet normal -1.000000e+00 0.000000e+00 0.000000e+00
      outer loop
         vertex 1.035050e-02 1.008888e-02 9.525000e-04
         vertex 1.035050e-02 5.678911e-03 5.981048e-03
         vertex 1.035050e-02 1.008888e-02 1.174750e-02
      endloop
   endfacet
   facet normal -1.000000e+00 0.000000e+00 0.000000e+00
      outer loop
         vertex 1.035050e-02 1.008888e-02 1.174750e-02
         vertex 1.035050e-02 5.678911e-03 5.981048e-03
         vertex 1.035050e-02 5.711190e-03 6.350000e-03
      endloop
   endfacet
   facet normal -1.000000e+00 0.000000e+00 0.000000e+00
      outer loop
         vertex 1.035050e-02 1.008888e-02 1.174750e-02
         vertex 1.035050e-02 5.711190e-03 6.350000e-03
         vertex 1.035050e-02 5.678911e-03 6.718952e-03
      endloop
   endfacet
   facet normal -1.000000e+00 0.000000e+00 0.000000e+00
      outer loop
         vertex 1.035050e-02 5.426533e-03 7.412355e-03
         vertex 1.035050e-02 5.214102e-03 7.715737e-03
         vertex 1.035050e-02 1.008888e-02 1.174750e-02
      endloop
   endfacet
   facet normal -1.000000e+00 0.000000e+00 0.000000e+00
      outer loop
         vertex 1.035050e-02 1.008888e-02 1.174750e-02
         vertex 1.035050e-02 5.214102e-03 7.715737e-03
         vertex 1.035050e-02 4.952217e-03 7.977622e-03
      endloop
   endfacet
   facet normal -1.000000e+00 0.000000e+00 0.000000e+00
      outer loop
         vertex 1.035050e-02 1.008888e-02 1.174750e-02
         vertex 1.035050e-02 4.952217e-03 7.977622e-03
         vertex 1.035050e-02 4.648835e-03 8.190053e-03
      endloop
   endfacet
   facet normal -1.000000e+00 0.000000e+00 0.000000e+00
      outer loop
         vertex 1.035050e-02 4.648835e-03 8.190053e-03
         vertex 1.035050e-02 4.313174e-03 8.346574e-03
         vertex 1.035050e-02 1.008888e-02 1.174750e-02
      endloop
   endfacet
   facet normal -1.000000e+00 0.000000e+00 0.000000e+00
      outer loop
         vertex 1.035050e-02 1.008888e-02 1.174750e-02
         vertex 1.035050e-02 4.313174e-03 8.346574e-03
         vertex 1.035050e-02 3.955432e-03 8.442431e-03
      endloop
   endfacet
   facet normal -1.000000e+00 -0.000000e+00 0.000000e+00
      outer loop
         vertex 1.035050e-02 1.008888e-02 1.174750e-02
         vertex 1.035050e-02 3.955432e-03 8.442431e-03
         vertex 1.035050e-02 6.985000e-04 1.174750e-02
      endloop
   endfacet
   facet normal -1.000000e+00 0.000000e+00 0.000000e+00
      outer loop
         vertex 1.035050e-02 6.985000e-04 1.174750e-02
         vertex 1.035050e-02 3.955432e-03 8.442431e-03
         vertex 1.035050e-02 3.586480e-03 8.474710e-03
      endloop
   endfacet
   facet normal -1.000000e+00 0.000000e+00 0.000000e+00
      outer loop
         vertex 1.035050e-02 6.985000e-04 1.174750e-02
         vertex 1.035050e-02 3.586480e-03 8.474710e-03
         vertex 1.035050e-02 3.217528e-03 8.442431e-03
      endloop
   endfacet
   facet normal 1.000000e+00 0.000000e+00 0.000000e+00
      outer loop
         vertex 1.270000e-02 6.985000e-04 0.000000e+00
         vertex 1.270000e-02 3.586480e-03 4.225290e-03
         vertex 1.270000e-02 3.217528e-03 4.257569e-03
      endloop
   endfacet
   facet normal 1.000000e+00 -0.000000e+00 0.000000e+00
      outer loop
         vertex 1.270000e-02 5.426533e-03 7.412355e-03
         vertex 1.270000e-02 5.583054e-03 7.076694e-03
         vertex 1.270000e-02 1.208786e-02 1.270000e-02
      endloop
   endfacet
   facet normal 1.000000e+00 0.000000e+00 0.000000e+00
      outer loop
         vertex 1.270000e-02 4.952217e-03 4.722378e-03
         vertex 1.270000e-02 4.648835e-03 4.509947e-03
         vertex 1.270000e-02 1.208786e-02 0.000000e+00
      endloop
   endfacet
   facet normal 1.000000e+00 0.000000e+00 0.000000e+00
      outer loop
         vertex 1.270000e-02 1.208786e-02 0.000000e+00
         vertex 1.270000e-02 4.648835e-03 4.509947e-03
         vertex 1.270000e-02 4.313174e-03 4.353426e-03
      endloop
   endfacet
   facet normal 1.000000e+00 0.000000e+00 0.000000e+00
      outer loop
         vertex 1.270000e-02 1.208786e-02 0.000000e+00
         vertex 1.270000e-02 4.313174e-03 4.353426e-03
         vertex 1.270000e-02 6.985000e-04 0.000000e+00
      endloop
   endfacet
   facet normal 1.000000e+00 0.000000e+00 0.000000e+00
      outer loop
         vertex 1.270000e-02 6.985000e-04 0.000000e+00
         vertex 1.270000e-02 4.313174e-03 4.353426e-03
         vertex 1.270000e-02 3.955432e-03 4.257569e-03
      endloop
   endfacet
   facet normal 1.000000e+00 0.000000e+00 0.000000e+00
      outer loop
         vertex 1.270000e-02 6.985000e-04 0.000000e+00
         vertex 1.270000e-02 3.955432e-03 4.257569e-03
         vertex 1.270000e-02 3.586480e-03 4.225290e-03
      endloop
   endfacet
   facet normal 1.000000e+00 -0.000000e+00 0.000000e+00
      outer loop
         vertex 1.270000e-02 5.583054e-03 7.076694e-03
         vertex 1.270000e-02 5.678911e-03 6.718952e-03
         vertex 1.270000e-02 1.208786e-02 1.270000e-02
      endloop
   endfacet
   facet normal 1.000000e+00 0.000000e+00 0.000000e+00
      outer loop
         vertex 1.270000e-02 1.208786e-02 1.270000e-02
         vertex 1.270000e-02 5.678911e-03 6.718952e-03
         vertex 1.270000e-02 5.711190e-03 6.350000e-03
      endloop
   endfacet
   facet normal 1.000000e+00 0.000000e+00 0.000000e+00
      outer loop
         vertex 1.270000e-02 1.208786e-02 1.270000e-02
         vertex 1.270000e-02 5.711190e-03 6.350000e-03
         vertex 1.270000e-02 1.208786e-02 0.000000e+00
      endloop
   endfacet
   facet normal 1.000000e+00 0.000000e+00 0.000000e+00
      outer loop
         vertex 1.270000e-02 1.208786e-02 0.000000e+00
         vertex 1.270000e-02 5.711190e-03 6.350000e-03
         vertex 1.270000e-02 5.678911e-03 5.981048e-03
      endloop
   endfacet
   facet normal 1.000000e+00 0.000000e+00 0.000000e+00
      outer loop
         vertex 1.270000e-02 1.208786e-02 0.000000e+00
         vertex 1.270000e-02 5.678911e-03 5.981048e-03
         vertex 1.270000e-02 5.583054e-03 5.623306e-03
      endloop
   endfacet
   facet normal 1.000000e+00 0.000000e+00 0.000000e+00
      outer loop
         vertex 1.270000e-02 5.583054e-03 5.623306e-03
         vertex 1.270000e-02 5.426533e-03 5.287645e-03
         vertex 1.270000e-02 1.208786e-02 0.000000e+00
      endloop
   endfacet
   facet normal 1.000000e+00 0.000000e+00 0.000000e+00
      outer loop
         vertex 1.270000e-02 1.208786e-02 0.000000e+00
         vertex 1.270000e-02 5.426533e-03 5.287645e-03
         vertex 1.270000e-02 5.214102e-03 4.984263e-03
      endloop
   endfacet
   facet normal 1.000000e+00 0.000000e+00 0.000000e+00
      outer loop
         vertex 1.270000e-02 1.208786e-02 0.000000e+00
         vertex 1.270000e-02 5.214102e-03 4.984263e-03
         vertex 1.270000e-02 4.952217e-03 4.722378e-03
      endloop
   endfacet
   facet normal 1.000000e+00 0.000000e+00 0.000000e+00
      outer loop
         vertex 1.270000e-02 3.217528e-03 4.257569e-03
         vertex 1.270000e-02 2.859786e-03 4.353426e-03
         vertex 1.270000e-02 6.985000e-04 0.000000e+00
      endloop
   endfacet
   facet normal 1.000000e+00 0.000000e+00 0.000000e+00
      outer loop
         vertex 1.270000e-02 6.985000e-04 0.000000e+00
         vertex 1.270000e-02 2.859786e-03 4.353426e-03
         vertex 1.270000e-02 2.524125e-03 4.509947e-03
      endloop
   endfacet
   facet normal 1.000000e+00 0.000000e+00 0.000000e+00
      outer loop
         vertex 1.270000e-02 6.985000e-04 0.000000e+00
         vertex 1.270000e-02 2.524125e-03 4.509947e-03
         vertex 1.270000e-02 2.220743e-03 4.722378e-03
      endloop
   endfacet
   facet normal 1.000000e+00 0.000000e+00 0.000000e+00
      outer loop
         vertex 1.270000e-02 2.220743e-03 4.722378e-03
         vertex 1.270000e-02 1.958858e-03 4.984263e-03
         vertex 1.270000e-02 6.985000e-04 0.000000e+00
      endloop
   endfacet
   facet normal 1.000000e+00 0.000000e+00 0.000000e+00
      outer loop
         vertex 1.270000e-02 6.985000e-04 0.000000e+00
         vertex 1.270000e-02 1.958858e-03 4.984263e-03
         vertex 1.270000e-02 1.746427e-03 5.287645e-03
      endloop
   endfacet
   facet normal 1.000000e+00 0.000000e+00 0.000000e+00
      outer loop
         vertex 1.270000e-02 6.985000e-04 0.000000e+00
         vertex 1.270000e-02 1.746427e-03 5.287645e-03
         vertex 1.270000e-02 1.589906e-03 5.623306e-03
      endloop
   endfacet
   facet normal 1.000000e+00 0.000000e+00 0.000000e+00
      outer loop
         vertex 1.270000e-02 1.589906e-03 5.623306e-03
         vertex 1.270000e-02 1.494049e-03 5.981048e-03
         vertex 1.270000e-02 6.985000e-04 0.000000e+00
      endloop
   endfacet
   facet normal 1.000000e+00 0.000000e+00 0.000000e+00
      outer loop
         vertex 1.270000e-02 6.985000e-04 0.000000e+00
         vertex 1.270000e-02 1.494049e-03 5.981048e-03
         vertex 1.270000e-02 1.461770e-03 6.350000e-03
      endloop
   endfacet
   facet normal 1.000000e+00 0.000000e+00 0.000000e+00
      outer loop
         vertex 1.270000e-02 6.985000e-04 0.000000e+00
         vertex 1.270000e-02 1.461770e-03 6.350000e-03
         vertex 1.270000e-02 6.985000e-04 1.270000e-02
      endloop
   endfacet
   facet normal 1.000000e+00 0.000000e+00 0.000000e+00
      outer loop
         vertex 1.270000e-02 6.985000e-04 1.270000e-02
         vertex 1.270000e-02 1.461770e-03 6.350000e-03
         vertex 1.270000e-02 1.494049e-03 6.718952e-03
      endloop
   endfacet
   facet normal 1.000000e+00 0.000000e+00 0.000000e+00
      outer loop
         vertex 1.270000e-02 6.985000e-04 1.270000e-02
         vertex 1.270000e-02 1.494049e-03 6.718952e-03
         vertex 1.270000e-02 1.589906e-03 7.076694e-03
      endloop
   endfacet
   facet normal 1.000000e+00 0.000000e+00 -0.000000e+00
      outer loop
         vertex 1.270000e-02 1.589906e-03 7.076694e-03
         vertex 1.270000e-02 1.746427e-03 7.412355e-03
         vertex 1.270000e-02 6.985000e-04 1.270000e-02
      endloop
   endfacet
   facet normal 1.000000e+00 0.000000e+00 0.000000e+00
      outer loop
         vertex 1.270000e-02 6.985000e-04 1.270000e-02
         vertex 1.270000e-02 1.746427e-03 7.412355e-03
         vertex 1.270000e-02 1.958858e-03 7.715737e-03
      endloop
   endfacet
   facet normal 1.000000e+00 0.000000e+00 0.000000e+00
      outer loop
         vertex 1.270000e-02 6.985000e-04 1.270000e-02
         vertex 1.270000e-02 1.958858e-03 7.715737e-03
         vertex 1.270000e-02 2.220743e-03 7.977622e-03
      endloop
   endfacet
   facet normal 1.000000e+00 0.000000e+00 -0.000000e+00
      outer loop
         vertex 1.270000e-02 2.220743e-03 7.977622e-03
         vertex 1.270000e-02 2.524125e-03 8.190053e-03
         vertex 1.270000e-02 6.985000e-04 1.270000e-02
      endloop
   endfacet
   facet normal 1.000000e+00 0.000000e+00 0.000000e+00
      outer loop
         vertex 1.270000e-02 6.985000e-04 1.270000e-02
         vertex 1.270000e-02 2.524125e-03 8.190053e-03
         vertex 1.270000e-02 2.859786e-03 8.346574e-03
      endloop
   endfacet
   facet normal 1.000000e+00 0.000000e+00 0.000000e+00
      outer loop
         vertex 1.270000e-02 6.985000e-04 1.270000e-02
         vertex 1.270000e-02 2.859786e-03 8.346574e-03
         vertex 1.270000e-02 3.217528e-03 8.442431e-03
      endloop
   endfacet
   facet normal 1.000000e+00 0.000000e+00 -0.000000e+00
      outer loop
         vertex 1.270000e-02 3.217528e-03 8.442431e-03
         vertex 1.270000e-02 3.586480e-03 8.474710e-03
         vertex 1.270000e-02 6.985000e-04 1.270000e-02
      endloop
   endfacet
   facet normal 1.000000e+00 0.000000e+00 0.000000e+00
      outer loop
         vertex 1.270000e-02 6.985000e-04 1.270000e-02
         vertex 1.270000e-02 3.586480e-03 8.474710e-03
         vertex 1.270000e-02 3.955432e-03 8.442431e-03
      endloop
   endfacet
   facet normal 1.000000e+00 -0.000000e+00 0.000000e+00
      outer loop
         vertex 1.270000e-02 6.985000e-04 1.270000e-02
         vertex 1.270000e-02 3.955432e-03 8.442431e-03
         vertex 1.270000e-02 1.208786e-02 1.270000e-02
      endloop
   endfacet
   facet normal 1.000000e+00 0.000000e+00 0.000000e+00
      outer loop
         vertex 1.270000e-02 1.208786e-02 1.270000e-02
         vertex 1.270000e-02 3.955432e-03 8.442431e-03
         vertex 1.270000e-02 4.313174e-03 8.346574e-03
      endloop
   endfacet
   facet normal 1.000000e+00 0.000000e+00 0.000000e+00
      outer loop
         vertex 1.270000e-02 1.208786e-02 1.270000e-02
         vertex 1.270000e-02 4.313174e-03 8.346574e-03
         vertex 1.270000e-02 4.648835e-03 8.190053e-03
      endloop
   endfacet
   facet normal 1.000000e+00 -0.000000e+00 0.000000e+00
      outer loop
         vertex 1.270000e-02 4.648835e-03 8.190053e-03
         vertex 1.270000e-02 4.952217e-03 7.977622e-03
         vertex 1.270000e-02 1.208786e-02 1.270000e-02
      endloop
   endfacet
   facet normal 1.000000e+00 0.000000e+00 0.000000e+00
      outer loop
         vertex 1.270000e-02 1.208786e-02 1.270000e-02
         vertex 1.270000e-02 4.952217e-03 7.977622e-03
         vertex 1.270000e-02 5.214102e-03 7.715737e-03
      endloop
   endfacet
   facet normal 1.000000e+00 0.000000e+00 0.000000e+00
      outer loop
         vertex 1.270000e-02 1.208786e-02 1.270000e-02
         vertex 1.270000e-02 5.214102e-03 7.715737e-03
         vertex 1.270000e-02 5.426533e-03 7.412355e-03
      endloop
   endfacet
   facet normal 0.000000e+00 1.000000e+00 0.000000e+00
      outer loop
         vertex 0.000000e+00 1.208786e-02 0.000000e+00
         vertex 0.000000e+00 1.208786e-02 1.270000e-02
         vertex 1.270000e-02 1.208786e-02 0.000000e+00
      endloop
   endfacet
   facet normal 0.000000e+00 1.000000e+00 -0.000000e+00
      outer loop
         vertex 1.270000e-02 1.208786e-02 0.000000e+00
         vertex 0.000000e+00 1.208786e-02 1.270000e-02
         vertex 1.270000e-02 1.208786e-02 1.270000e-02
      endloop
   endfacet
   facet normal -1.000000e+00 -0.000000e+00 0.000000e+00
      outer loop
         vertex 0.000000e+00 1.494049e-03 6.718952e-03
         vertex 0.000000e+00 1.461770e-03 6.350000e-03
         vertex 0.000000e+00 6.985000e-04 1.270000e-02
      endloop
   endfacet
   facet normal -1.000000e+00 0.000000e+00 0.000000e+00
      outer loop
         vertex 0.000000e+00 4.648835e-03 4.509947e-03
         vertex 0.000000e+00 4.952217e-03 4.722378e-03
         vertex 0.000000e+00 1.208786e-02 0.000000e+00
      endloop
   endfacet
   facet normal -1.000000e+00 0.000000e+00 0.000000e+00
      outer loop
         vertex 0.000000e+00 6.985000e-04 1.270000e-02
         vertex 0.000000e+00 1.461770e-03 6.350000e-03
         vertex 0.000000e+00 6.985000e-04 0.000000e+00
      endloop
   endfacet
   facet normal -1.000000e+00 0.000000e+00 0.000000e+00
      outer loop
         vertex 0.000000e+00 6.985000e-04 0.000000e+00
         vertex 0.000000e+00 1.461770e-03 6.350000e-03
         vertex 0.000000e+00 1.494049e-03 5.981048e-03
      endloop
   endfacet
   facet normal -1.000000e+00 0.000000e+00 0.000000e+00
      outer loop
         vertex 0.000000e+00 6.985000e-04 0.000000e+00
         vertex 0.000000e+00 1.494049e-03 5.981048e-03
         vertex 0.000000e+00 1.589906e-03 5.623306e-03
      endloop
   endfacet
   facet normal -1.000000e+00 0.000000e+00 -0.000000e+00
      outer loop
         vertex 0.000000e+00 1.589906e-03 5.623306e-03
         vertex 0.000000e+00 1.746427e-03 5.287645e-03
         vertex 0.000000e+00 6.985000e-04 0.000000e+00
      endloop
   endfacet
   facet normal -1.000000e+00 0.000000e+00 0.000000e+00
      outer loop
         vertex 0.000000e+00 6.985000e-04 0.000000e+00
         vertex 0.000000e+00 1.746427e-03 5.287645e-03
         vertex 0.000000e+00 1.958858e-03 4.984263e-03
      endloop
   endfacet
   facet normal -1.000000e+00 0.000000e+00 0.000000e+00
      outer loop
         vertex 0.000000e+00 6.985000e-04 0.000000e+00
         vertex 0.000000e+00 1.958858e-03 4.984263e-03
         vertex 0.000000e+00 2.220743e-03 4.722378e-03
      endloop
   endfacet
   facet normal -1.000000e+00 0.000000e+00 -0.000000e+00
      outer loop
         vertex 0.000000e+00 2.220743e-03 4.722378e-03
         vertex 0.000000e+00 2.524125e-03 4.509947e-03
         vertex 0.000000e+00 6.985000e-04 0.000000e+00
      endloop
   endfacet
   facet normal -1.000000e+00 0.000000e+00 0.000000e+00
      outer loop
         vertex 0.000000e+00 6.985000e-04 0.000000e+00
         vertex 0.000000e+00 2.524125e-03 4.509947e-03
         vertex 0.000000e+00 2.859786e-03 4.353426e-03
      endloop
   endfacet
   facet normal -1.000000e+00 0.000000e+00 0.000000e+00
      outer loop
         vertex 0.000000e+00 6.985000e-04 0.000000e+00
         vertex 0.000000e+00 2.859786e-03 4.353426e-03
         vertex 0.000000e+00 3.217528e-03 4.257569e-03
      endloop
   endfacet
   facet normal -1.000000e+00 0.000000e+00 -0.000000e+00
      outer loop
         vertex 0.000000e+00 3.217528e-03 4.257569e-03
         vertex 0.000000e+00 3.586480e-03 4.225290e-03
         vertex 0.000000e+00 6.985000e-04 0.000000e+00
      endloop
   endfacet
   facet normal -1.000000e+00 0.000000e+00 0.000000e+00
      outer loop
         vertex 0.000000e+00 6.985000e-04 0.000000e+00
         vertex 0.000000e+00 3.586480e-03 4.225290e-03
         vertex 0.000000e+00 3.955432e-03 4.257569e-03
      endloop
   endfacet
   facet normal -1.000000e+00 0.000000e+00 0.000000e+00
      outer loop
         vertex 0.000000e+00 6.985000e-04 0.000000e+00
         vertex 0.000000e+00 3.955432e-03 4.257569e-03
         vertex 0.000000e+00 1.208786e-02 0.000000e+00
      endloop
   endfacet
   facet normal -1.000000e+00 0.000000e+00 0.000000e+00
      outer loop
         vertex 0.000000e+00 1.208786e-02 0.000000e+00
         vertex 0.000000e+00 3.955432e-03 4.257569e-03
         vertex 0.000000e+00 4.313174e-03 4.353426e-03
      endloop
   endfacet
   facet normal -1.000000e+00 0.000000e+00 0.000000e+00
      outer loop
         vertex 0.000000e+00 1.208786e-02 0.000000e+00
         vertex 0.000000e+00 4.313174e-03 4.353426e-03
         vertex 0.000000e+00 4.648835e-03 4.509947e-03
      endloop
   endfacet
   facet normal -1.000000e+00 0.000000e+00 0.000000e+00
      outer loop
         vertex 0.000000e+00 4.952217e-03 4.722378e-03
         vertex 0.000000e+00 5.214102e-03 4.984263e-03
         vertex 0.000000e+00 1.208786e-02 0.000000e+00
      endloop
   endfacet
   facet normal -1.000000e+00 0.000000e+00 0.000000e+00
      outer loop
         vertex 0.000000e+00 1.208786e-02 0.000000e+00
         vertex 0.000000e+00 5.214102e-03 4.984263e-03
         vertex 0.000000e+00 5.426533e-03 5.287645e-03
      endloop
   endfacet
   facet normal -1.000000e+00 0.000000e+00 0.000000e+00
      outer loop
         vertex 0.000000e+00 1.208786e-02 0.000000e+00
         vertex 0.000000e+00 5.426533e-03 5.287645e-03
         vertex 0.000000e+00 5.583054e-03 5.623306e-03
      endloop
   endfacet
   facet normal -1.000000e+00 0.000000e+00 0.000000e+00
      outer loop
         vertex 0.000000e+00 5.583054e-03 5.623306e-03
         vertex 0.000000e+00 5.678911e-03 5.981048e-03
         vertex 0.000000e+00 1.208786e-02 0.000000e+00
      endloop
   endfacet
   facet normal -1.000000e+00 0.000000e+00 0.000000e+00
      outer loop
         vertex 0.000000e+00 1.208786e-02 0.000000e+00
         vertex 0.000000e+00 5.678911e-03 5.981048e-03
         vertex 0.000000e+00 5.711190e-03 6.350000e-03
      endloop
   endfacet
   facet normal -1.000000e+00 0.000000e+00 0.000000e+00
      outer loop
         vertex 0.000000e+00 1.208786e-02 0.000000e+00
         vertex 0.000000e+00 5.711190e-03 6.350000e-03
         vertex 0.000000e+00 1.208786e-02 1.270000e-02
      endloop
   endfacet
   facet normal -1.000000e+00 0.000000e+00 0.000000e+00
      outer loop
         vertex 0.000000e+00 1.208786e-02 1.270000e-02
         vertex 0.000000e+00 5.711190e-03 6.350000e-03
         vertex 0.000000e+00 5.678911e-03 6.718952e-03
      endloop
   endfacet
   facet normal -1.000000e+00 0.000000e+00 0.000000e+00
      outer loop
         vertex 0.000000e+00 1.208786e-02 1.270000e-02
         vertex 0.000000e+00 5.678911e-03 6.718952e-03
         vertex 0.000000e+00 5.583054e-03 7.076694e-03
      endloop
   endfacet
   facet normal -1.000000e+00 -0.000000e+00 0.000000e+00
      outer loop
         vertex 0.000000e+00 2.524125e-03 8.190053e-03
         vertex 0.000000e+00 2.220743e-03 7.977622e-03
         vertex 0.000000e+00 6.985000e-04 1.270000e-02
      endloop
   endfacet
   facet normal -1.000000e+00 0.000000e+00 0.000000e+00
      outer loop
         vertex 0.000000e+00 6.985000e-04 1.270000e-02
         vertex 0.000000e+00 2.220743e-03 7.977622e-03
         vertex 0.000000e+00 1.958858e-03 7.715737e-03
      endloop
   endfacet
   facet normal -1.000000e+00 0.000000e+00 0.000000e+00
      outer loop
         vertex 0.000000e+00 5.583054e-03 7.076694e-03
         vertex 0.000000e+00 5.426533e-03 7.412355e-03
         vertex 0.000000e+00 1.208786e-02 1.270000e-02
      endloop
   endfacet
   facet normal -1.000000e+00 0.000000e+00 0.000000e+00
      outer loop
         vertex 0.000000e+00 1.208786e-02 1.270000e-02
         vertex 0.000000e+00 5.426533e-03 7.412355e-03
         vertex 0.000000e+00 5.214102e-03 7.715737e-03
      endloop
   endfacet
   facet normal -1.000000e+00 0.000000e+00 0.000000e+00
      outer loop
         vertex 0.000000e+00 1.208786e-02 1.270000e-02
         vertex 0.000000e+00 5.214102e-03 7.715737e-03
         vertex 0.000000e+00 4.952217e-03 7.977622e-03
      endloop
   endfacet
   facet normal -1.000000e+00 -0.000000e+00 0.000000e+00
      outer loop
         vertex 0.000000e+00 3.586480e-03 8.474710e-03
         vertex 0.000000e+00 3.217528e-03 8.442431e-03
         vertex 0.000000e+00 6.985000e-04 1.270000e-02
      endloop
   endfacet
   facet normal -1.000000e+00 0.000000e+00 0.000000e+00
      outer loop
         vertex 0.000000e+00 6.985000e-04 1.270000e-02
         vertex 0.000000e+00 3.217528e-03 8.442431e-03
         vertex 0.000000e+00 2.859786e-03 8.346574e-03
      endloop
   endfacet
   facet normal -1.000000e+00 0.000000e+00 0.000000e+00
      outer loop
         vertex 0.000000e+00 6.985000e-04 1.270000e-02
         vertex 0.000000e+00 2.859786e-03 8.346574e-03
         vertex 0.000000e+00 2.524125e-03 8.190053e-03
      endloop
   endfacet
   facet normal -1.000000e+00 -0.000000e+00 0.000000e+00
      outer loop
         vertex 0.000000e+00 1.958858e-03 7.715737e-03
         vertex 0.000000e+00 1.746427e-03 7.412355e-03
         vertex 0.000000e+00 6.985000e-04 1.270000e-02
      endloop
   endfacet
   facet normal -1.000000e+00 0.000000e+00 0.000000e+00
      outer loop
         vertex 0.000000e+00 6.985000e-04 1.270000e-02
         vertex 0.000000e+00 1.746427e-03 7.412355e-03
         vertex 0.000000e+00 1.589906e-03 7.076694e-03
      endloop
   endfacet
   facet normal -1.000000e+00 0.000000e+00 0.000000e+00
      outer loop
         vertex 0.000000e+00 6.985000e-04 1.270000e-02
         vertex 0.000000e+00 1.589906e-03 7.076694e-03
         vertex 0.000000e+00 1.494049e-03 6.718952e-03
      endloop
   endfacet
   facet normal -1.000000e+00 0.000000e+00 0.000000e+00
      outer loop
         vertex 0.000000e+00 4.952217e-03 7.977622e-03
         vertex 0.000000e+00 4.648835e-03 8.190053e-03
         vertex 0.000000e+00 1.208786e-02 1.270000e-02
      endloop
   endfacet
   facet normal -1.000000e+00 0.000000e+00 0.000000e+00
      outer loop
         vertex 0.000000e+00 1.208786e-02 1.270000e-02
         vertex 0.000000e+00 4.648835e-03 8.190053e-03
         vertex 0.000000e+00 4.313174e-03 8.346574e-03
      endloop
   endfacet
   facet normal -1.000000e+00 -0.000000e+00 0.000000e+00
      outer loop
         vertex 0.000000e+00 1.208786e-02 1.270000e-02
         vertex 0.000000e+00 4.313174e-03 8.346574e-03
         vertex 0.000000e+00 6.985000e-04 1.270000e-02
      endloop
   endfacet
   facet normal -1.000000e+00 0.000000e+00 0.000000e+00
      outer loop
         vertex 0.000000e+00 6.985000e-04 1.270000e-02
         vertex 0.000000e+00 4.313174e-03 8.346574e-03
         vertex 0.000000e+00 3.955432e-03 8.442431e-03
      endloop
   endfacet
   facet normal -1.000000e+00 0.000000e+00 0.000000e+00
      outer loop
         vertex 0.000000e+00 6.985000e-04 1.270000e-02
         vertex 0.000000e+00 3.955432e-03 8.442431e-03
         vertex 0.000000e+00 3.586480e-03 8.474710e-03
      endloop
   endfacet
   facet normal 0.000000e+00 -8.715583e-02 9.961947e-01
      outer loop
         vertex 0.000000e+00 3.586480e-03 4.225290e-03
         vertex 2.349500e-03 3.586480e-03 4.225290e-03
         vertex 0.000000e+00 3.955432e-03 4.257569e-03
      endloop
   endfacet
   facet normal 0.000000e+00 -8.715583e-02 9.961947e-01
      outer loop
         vertex 0.000000e+00 3.955432e-03 4.257569e-03
         vertex 2.349500e-03 3.586480e-03 4.225290e-03
         vertex 2.349500e-03 3.955432e-03 4.257569e-03
      endloop
   endfacet
   facet normal 0.000000e+00 -2.588192e-01 9.659258e-01
      outer loop
         vertex 0.000000e+00 3.955432e-03 4.257569e-03
         vertex 2.349500e-03 3.955432e-03 4.257569e-03
         vertex 0.000000e+00 4.313174e-03 4.353426e-03
      endloop
   endfacet
   facet normal 0.000000e+00 -2.588192e-01 9.659258e-01
      outer loop
         vertex 0.000000e+00 4.313174e-03 4.353426e-03
         vertex 2.349500e-03 3.955432e-03 4.257569e-03
         vertex 2.349500e-03 4.313174e-03 4.353426e-03
      endloop
   endfacet
   facet normal 0.000000e+00 -4.226181e-01 9.063079e-01
      outer loop
         vertex 0.000000e+00 4.313174e-03 4.353426e-03
         vertex 2.349500e-03 4.313174e-03 4.353426e-03
         vertex 0.000000e+00 4.648835e-03 4.509947e-03
      endloop
   endfacet
   facet normal 0.000000e+00 -4.226181e-01 9.063079e-01
      outer loop
         vertex 0.000000e+00 4.648835e-03 4.509947e-03
         vertex 2.349500e-03 4.313174e-03 4.353426e-03
         vertex 2.349500e-03 4.648835e-03 4.509947e-03
      endloop
   endfacet
   facet normal 0.000000e+00 -5.735760e-01 8.191523e-01
      outer loop
         vertex 0.000000e+00 4.648835e-03 4.509947e-03
         vertex 2.349500e-03 4.648835e-03 4.509947e-03
         vertex 0.000000e+00 4.952217e-03 4.722378e-03
      endloop
   endfacet
   facet normal 0.000000e+00 -5.735760e-01 8.191523e-01
      outer loop
         vertex 0.000000e+00 4.952217e-03 4.722378e-03
         vertex 2.349500e-03 4.648835e-03 4.509947e-03
         vertex 2.349500e-03 4.952217e-03 4.722378e-03
      endloop
   endfacet
   facet normal 0.000000e+00 -7.071077e-01 7.071058e-01
      outer loop
         vertex 0.000000e+00 4.952217e-03 4.722378e-03
         vertex 2.349500e-03 4.952217e-03 4.722378e-03
         vertex 0.000000e+00 5.214102e-03 4.984263e-03
      endloop
   endfacet
   facet normal 0.000000e+00 -7.071077e-01 7.071058e-01
      outer loop
         vertex 0.000000e+00 5.214102e-03 4.984263e-03
         vertex 2.349500e-03 4.952217e-03 4.722378e-03
         vertex 2.349500e-03 5.214102e-03 4.984263e-03
      endloop
   endfacet
   facet normal 0.000000e+00 -8.191513e-01 5.735774e-01
      outer loop
         vertex 0.000000e+00 5.214102e-03 4.984263e-03
         vertex 2.349500e-03 5.214102e-03 4.984263e-03
         vertex 0.000000e+00 5.426533e-03 5.287645e-03
      endloop
   endfacet
   facet normal 0.000000e+00 -8.191513e-01 5.735774e-01
      outer loop
         vertex 0.000000e+00 5.426533e-03 5.287645e-03
         vertex 2.349500e-03 5.214102e-03 4.984263e-03
         vertex 2.349500e-03 5.426533e-03 5.287645e-03
      endloop
   endfacet
   facet normal 0.000000e+00 -9.063079e-01 4.226181e-01
      outer loop
         vertex 0.000000e+00 5.426533e-03 5.287645e-03
         vertex 2.349500e-03 5.426533e-03 5.287645e-03
         vertex 0.000000e+00 5.583054e-03 5.623306e-03
      endloop
   endfacet
   facet normal 0.000000e+00 -9.063079e-01 4.226181e-01
      outer loop
         vertex 0.000000e+00 5.583054e-03 5.623306e-03
         vertex 2.349500e-03 5.426533e-03 5.287645e-03
         vertex 2.349500e-03 5.583054e-03 5.623306e-03
      endloop
   endfacet
   facet normal 0.000000e+00 -9.659260e-01 2.588183e-01
      outer loop
         vertex 0.000000e+00 5.583054e-03 5.623306e-03
         vertex 2.349500e-03 5.583054e-03 5.623306e-03
         vertex 0.000000e+00 5.678911e-03 5.981048e-03
      endloop
   endfacet
   facet normal 0.000000e+00 -9.659260e-01 2.588183e-01
      outer loop
         vertex 0.000000e+00 5.678911e-03 5.981048e-03
         vertex 2.349500e-03 5.583054e-03 5.623306e-03
         vertex 2.349500e-03 5.678911e-03 5.981048e-03
      endloop
   endfacet
   facet normal 0.000000e+00 -9.961947e-01 8.715594e-02
      outer loop
         vertex 0.000000e+00 5.678911e-03 5.981048e-03
         vertex 2.349500e-03 5.678911e-03 5.981048e-03
         vertex 0.000000e+00 5.711190e-03 6.350000e-03
      endloop
   endfacet
   facet normal 0.000000e+00 -9.961947e-01 8.715594e-02
      outer loop
         vertex 0.000000e+00 5.711190e-03 6.350000e-03
         vertex 2.349500e-03 5.678911e-03 5.981048e-03
         vertex 2.349500e-03 5.711190e-03 6.350000e-03
      endloop
   endfacet
   facet normal 0.000000e+00 -9.961947e-01 -8.715594e-02
      outer loop
         vertex 0.000000e+00 5.711190e-03 6.350000e-03
         vertex 2.349500e-03 5.711190e-03 6.350000e-03
         vertex 0.000000e+00 5.678911e-03 6.718952e-03
      endloop
   endfacet
   facet normal 0.000000e+00 -9.961947e-01 -8.715594e-02
      outer loop
         vertex 0.000000e+00 5.678911e-03 6.718952e-03
         vertex 2.349500e-03 5.711190e-03 6.350000e-03
         vertex 2.349500e-03 5.678911e-03 6.718952e-03
      endloop
   endfacet
   facet normal 0.000000e+00 -9.659260e-01 -2.588183e-01
      outer loop
         vertex 0.000000e+00 5.678911e-03 6.718952e-03
         vertex 2.349500e-03 5.678911e-03 6.718952e-03
         vertex 0.000000e+00 5.583054e-03 7.076694e-03
      endloop
   endfacet
   facet normal 0.000000e+00 -9.659260e-01 -2.588183e-01
      outer loop
         vertex 0.000000e+00 5.583054e-03 7.076694e-03
         vertex 2.349500e-03 5.678911e-03 6.718952e-03
         vertex 2.349500e-03 5.583054e-03 7.076694e-03
      endloop
   endfacet
   facet normal 0.000000e+00 -9.063079e-01 -4.226181e-01
      outer loop
         vertex 0.000000e+00 5.583054e-03 7.076694e-03
         vertex 2.349500e-03 5.583054e-03 7.076694e-03
         vertex 0.000000e+00 5.426533e-03 7.412355e-03
      endloop
   endfacet
   facet normal 0.000000e+00 -9.063079e-01 -4.226181e-01
      outer loop
         vertex 0.000000e+00 5.426533e-03 7.412355e-03
         vertex 2.349500e-03 5.583054e-03 7.076694e-03
         vertex 2.349500e-03 5.426533e-03 7.412355e-03
      endloop
   endfacet
   facet normal 0.000000e+00 -8.191513e-01 -5.735774e-01
      outer loop
         vertex 0.000000e+00 5.426533e-03 7.412355e-03
         vertex 2.349500e-03 5.426533e-03 7.412355e-03
         vertex 0.000000e+00 5.214102e-03 7.715737e-03
      endloop
   endfacet
   facet normal 0.000000e+00 -8.191513e-01 -5.735774e-01
      outer loop
         vertex 0.000000e+00 5.214102e-03 7.715737e-03
         vertex 2.349500e-03 5.426533e-03 7.412355e-03
         vertex 2.349500e-03 5.214102e-03 7.715737e-03
      endloop
   endfacet
   facet normal 0.000000e+00 -7.071074e-01 -7.071062e-01
      outer loop
         vertex 0.000000e+00 5.214102e-03 7.715737e-03
         vertex 2.349500e-03 5.214102e-03 7.715737e-03
         vertex 0.000000e+00 4.952217e-03 7.977622e-03
      endloop
   endfacet
   facet normal 0.000000e+00 -7.071074e-01 -7.071062e-01
      outer loop
         vertex 0.000000e+00 4.952217e-03 7.977622e-03
         vertex 2.349500e-03 5.214102e-03 7.715737e-03
         vertex 2.349500e-03 4.952217e-03 7.977622e-03
      endloop
   endfacet
   facet normal 0.000000e+00 -5.735760e-01 -8.191523e-01
      outer loop
         vertex 0.000000e+00 4.952217e-03 7.977622e-03
         vertex 2.349500e-03 4.952217e-03 7.977622e-03
         vertex 0.000000e+00 4.648835e-03 8.190053e-03
      endloop
   endfacet
   facet normal 0.000000e+00 -5.735760e-01 -8.191523e-01
      outer loop
         vertex 0.000000e+00 4.648835e-03 8.190053e-03
         vertex 2.349500e-03 4.952217e-03 7.977622e-03
         vertex 2.349500e-03 4.648835e-03 8.190053e-03
      endloop
   endfacet
   facet normal 0.000000e+00 -4.226191e-01 -9.063074e-01
      outer loop
         vertex 0.000000e+00 4.648835e-03 8.190053e-03
         vertex 2.349500e-03 4.648835e-03 8.190053e-03
         vertex 0.000000e+00 4.313174e-03 8.346574e-03
      endloop
   endfacet
   facet normal 0.000000e+00 -4.226191e-01 -9.063074e-01
      outer loop
         vertex 0.000000e+00 4.313174e-03 8.346574e-03
         vertex 2.349500e-03 4.648835e-03 8.190053e-03
         vertex 2.349500e-03 4.313174e-03 8.346574e-03
      endloop
   endfacet
   facet normal 0.000000e+00 -2.588186e-01 -9.659259e-01
      outer loop
         vertex 0.000000e+00 4.313174e-03 8.346574e-03
         vertex 2.349500e-03 4.313174e-03 8.346574e-03
         vertex 0.000000e+00 3.955432e-03 8.442431e-03
      endloop
   endfacet
   facet normal 0.000000e+00 -2.588186e-01 -9.659259e-01
      outer loop
         vertex 0.000000e+00 3.955432e-03 8.442431e-03
         vertex 2.349500e-03 4.313174e-03 8.346574e-03
         vertex 2.349500e-03 3.955432e-03 8.442431e-03
      endloop
   endfacet
   facet normal 0.000000e+00 -8.715583e-02 -9.961947e-01
      outer loop
         vertex 0.000000e+00 3.955432e-03 8.442431e-03
         vertex 2.349500e-03 3.955432e-03 8.442431e-03
         vertex 0.000000e+00 3.586480e-03 8.474710e-03
      endloop
   endfacet
   facet normal 0.000000e+00 -8.715583e-02 -9.961947e-01
      outer loop
         vertex 0.000000e+00 3.586480e-03 8.474710e-03
         vertex 2.349500e-03 3.955432e-03 8.442431e-03
         vertex 2.349500e-03 3.586480e-03 8.474710e-03
      endloop
   endfacet
   facet normal 0.000000e+00 8.715588e-02 -9.961947e-01
      outer loop
         vertex 0.000000e+00 3.586480e-03 8.474710e-03
         vertex 2.349500e-03 3.586480e-03 8.474710e-03
         vertex 0.000000e+00 3.217528e-03 8.442431e-03
      endloop
   endfacet
   facet normal 0.000000e+00 8.715588e-02 -9.961947e-01
      outer loop
         vertex 0.000000e+00 3.217528e-03 8.442431e-03
         vertex 2.349500e-03 3.586480e-03 8.474710e-03
         vertex 2.349500e-03 3.217528e-03 8.442431e-03
      endloop
   endfacet
   facet normal 0.000000e+00 2.588186e-01 -9.659259e-01
      outer loop
         vertex 0.000000e+00 3.217528e-03 8.442431e-03
         vertex 2.349500e-03 3.217528e-03 8.442431e-03
         vertex 0.000000e+00 2.859786e-03 8.346574e-03
      endloop
   endfacet
   facet normal 0.000000e+00 2.588186e-01 -9.659259e-01
      outer loop
         vertex 0.000000e+00 2.859786e-03 8.346574e-03
         vertex 2.349500e-03 3.217528e-03 8.442431e-03
         vertex 2.349500e-03 2.859786e-03 8.346574e-03
      endloop
   endfacet
   facet normal 0.000000e+00 4.226189e-01 -9.063075e-01
      outer loop
         vertex 0.000000e+00 2.859786e-03 8.346574e-03
         vertex 2.349500e-03 2.859786e-03 8.346574e-03
         vertex 0.000000e+00 2.524125e-03 8.190053e-03
      endloop
   endfacet
   facet normal 0.000000e+00 4.226189e-01 -9.063075e-01
      outer loop
         vertex 0.000000e+00 2.524125e-03 8.190053e-03
         vertex 2.349500e-03 2.859786e-03 8.346574e-03
         vertex 2.349500e-03 2.524125e-03 8.190053e-03
      endloop
   endfacet
   facet normal 0.000000e+00 5.735763e-01 -8.191521e-01
      outer loop
         vertex 0.000000e+00 2.524125e-03 8.190053e-03
         vertex 2.349500e-03 2.524125e-03 8.190053e-03
         vertex 0.000000e+00 2.220743e-03 7.977622e-03
      endloop
   endfacet
   facet normal 0.000000e+00 5.735763e-01 -8.191521e-01
      outer loop
         vertex 0.000000e+00 2.220743e-03 7.977622e-03
         vertex 2.349500e-03 2.524125e-03 8.190053e-03
         vertex 2.349500e-03 2.220743e-03 7.977622e-03
      endloop
   endfacet
   facet normal 0.000000e+00 7.071071e-01 -7.071065e-01
      outer loop
         vertex 0.000000e+00 2.220743e-03 7.977622e-03
         vertex 2.349500e-03 2.220743e-03 7.977622e-03
         vertex 0.000000e+00 1.958858e-03 7.715737e-03
      endloop
   endfacet
   facet normal 0.000000e+00 7.071071e-01 -7.071065e-01
      outer loop
         vertex 0.000000e+00 1.958858e-03 7.715737e-03
         vertex 2.349500e-03 2.220743e-03 7.977622e-03
         vertex 2.349500e-03 1.958858e-03 7.715737e-03
      endloop
   endfacet
   facet normal 0.000000e+00 8.191518e-01 -5.735768e-01
      outer loop
         vertex 0.000000e+00 1.958858e-03 7.715737e-03
         vertex 2.349500e-03 1.958858e-03 7.715737e-03
         vertex 0.000000e+00 1.746427e-03 7.412355e-03
      endloop
   endfacet
   facet normal 0.000000e+00 8.191518e-01 -5.735768e-01
      outer loop
         vertex 0.000000e+00 1.746427e-03 7.412355e-03
         vertex 2.349500e-03 1.958858e-03 7.715737e-03
         vertex 2.349500e-03 1.746427e-03 7.412355e-03
      endloop
   endfacet
   facet normal 0.000000e+00 9.063077e-01 -4.226184e-01
      outer loop
         vertex 0.000000e+00 1.746427e-03 7.412355e-03
         vertex 2.349500e-03 1.746427e-03 7.412355e-03
         vertex 0.000000e+00 1.589906e-03 7.076694e-03
      endloop
   endfacet
   facet normal 0.000000e+00 9.063077e-01 -4.226184e-01
      outer loop
         vertex 0.000000e+00 1.589906e-03 7.076694e-03
         vertex 2.349500e-03 1.746427e-03 7.412355e-03
         vertex 2.349500e-03 1.589906e-03 7.076694e-03
      endloop
   endfacet
   facet normal 0.000000e+00 9.659259e-01 -2.588189e-01
      outer loop
         vertex 0.000000e+00 1.589906e-03 7.076694e-03
         vertex 2.349500e-03 1.589906e-03 7.076694e-03
         vertex 0.000000e+00 1.494049e-03 6.718952e-03
      endloop
   endfacet
   facet normal 0.000000e+00 9.659259e-01 -2.588189e-01
      outer loop
         vertex 0.000000e+00 1.494049e-03 6.718952e-03
         vertex 2.349500e-03 1.589906e-03 7.076694e-03
         vertex 2.349500e-03 1.494049e-03 6.718952e-03
      endloop
   endfacet
   facet normal 0.000000e+00 9.961947e-01 -8.715563e-02
      outer loop
         vertex 0.000000e+00 1.494049e-03 6.718952e-03
         vertex 2.349500e-03 1.494049e-03 6.718952e-03
         vertex 0.000000e+00 1.461770e-03 6.350000e-03
      endloop
   endfacet
   facet normal 0.000000e+00 9.961947e-01 -8.715563e-02
      outer loop
         vertex 0.000000e+00 1.461770e-03 6.350000e-03
         vertex 2.349500e-03 1.494049e-03 6.718952e-03
         vertex 2.349500e-03 1.461770e-03 6.350000e-03
      endloop
   endfacet
   facet normal -0.000000e+00 9.961947e-01 8.715563e-02
      outer loop
         vertex 0.000000e+00 1.461770e-03 6.350000e-03
         vertex 2.349500e-03 1.461770e-03 6.350000e-03
         vertex 0.000000e+00 1.494049e-03 5.981048e-03
      endloop
   endfacet
   facet normal -0.000000e+00 9.961947e-01 8.715563e-02
      outer loop
         vertex 0.000000e+00 1.494049e-03 5.981048e-03
         vertex 2.349500e-03 1.461770e-03 6.350000e-03
         vertex 2.349500e-03 1.494049e-03 5.981048e-03
      endloop
   endfacet
   facet normal -0.000000e+00 9.659259e-01 2.588189e-01
      outer loop
         vertex 0.000000e+00 1.494049e-03 5.981048e-03
         vertex 2.349500e-03 1.494049e-03 5.981048e-03
         vertex 0.000000e+00 1.589906e-03 5.623306e-03
      endloop
   endfacet
   facet normal -0.000000e+00 9.659259e-01 2.588189e-01
      outer loop
         vertex 0.000000e+00 1.589906e-03 5.623306e-03
         vertex 2.349500e-03 1.494049e-03 5.981048e-03
         vertex 2.349500e-03 1.589906e-03 5.623306e-03
      endloop
   endfacet
   facet normal -0.000000e+00 9.063077e-01 4.226184e-01
      outer loop
         vertex 0.000000e+00 1.589906e-03 5.623306e-03
         vertex 2.349500e-03 1.589906e-03 5.623306e-03
         vertex 0.000000e+00 1.746427e-03 5.287645e-03
      endloop
   endfacet
   facet normal -0.000000e+00 9.063077e-01 4.226184e-01
      outer loop
         vertex 0.000000e+00 1.746427e-03 5.287645e-03
         vertex 2.349500e-03 1.589906e-03 5.623306e-03
         vertex 2.349500e-03 1.746427e-03 5.287645e-03
      endloop
   endfacet
   facet normal -0.000000e+00 8.191518e-01 5.735768e-01
      outer loop
         vertex 0.000000e+00 1.746427e-03 5.287645e-03
         vertex 2.349500e-03 1.746427e-03 5.287645e-03
         vertex 0.000000e+00 1.958858e-03 4.984263e-03
      endloop
   endfacet
   facet normal -0.000000e+00 8.191518e-01 5.735768e-01
      outer loop
         vertex 0.000000e+00 1.958858e-03 4.984263e-03
         vertex 2.349500e-03 1.746427e-03 5.287645e-03
         vertex 2.349500e-03 1.958858e-03 4.984263e-03
      endloop
   endfacet
   facet normal -0.000000e+00 7.071074e-01 7.071062e-01
      outer loop
         vertex 0.000000e+00 1.958858e-03 4.984263e-03
         vertex 2.349500e-03 1.958858e-03 4.984263e-03
         vertex 0.000000e+00 2.220743e-03 4.722378e-03
      endloop
   endfacet
   facet normal -0.000000e+00 7.071074e-01 7.071062e-01
      outer loop
         vertex 0.000000e+00 2.220743e-03 4.722378e-03
         vertex 2.349500e-03 1.958858e-03 4.984263e-03
         vertex 2.349500e-03 2.220743e-03 4.722378e-03
      endloop
   endfacet
   facet normal -0.000000e+00 5.735763e-01 8.191521e-01
      outer loop
         vertex 0.000000e+00 2.220743e-03 4.722378e-03
         vertex 2.349500e-03 2.220743e-03 4.722378e-03
         vertex 0.000000e+00 2.524125e-03 4.509947e-03
      endloop
   endfacet
   facet normal -0.000000e+00 5.735763e-01 8.191521e-01
      outer loop
         vertex 0.000000e+00 2.524125e-03 4.509947e-03
         vertex 2.349500e-03 2.220743e-03 4.722378e-03
         vertex 2.349500e-03 2.524125e-03 4.509947e-03
      endloop
   endfacet
   facet normal -0.000000e+00 4.226179e-01 9.063080e-01
      outer loop
         vertex 0.000000e+00 2.524125e-03 4.509947e-03
         vertex 2.349500e-03 2.524125e-03 4.509947e-03
         vertex 0.000000e+00 2.859786e-03 4.353426e-03
      endloop
   endfacet
   facet normal -0.000000e+00 4.226179e-01 9.063080e-01
      outer loop
         vertex 0.000000e+00 2.859786e-03 4.353426e-03
         vertex 2.349500e-03 2.524125e-03 4.509947e-03
         vertex 2.349500e-03 2.859786e-03 4.353426e-03
      endloop
   endfacet
   facet normal -0.000000e+00 2.588192e-01 9.659258e-01
      outer loop
         vertex 0.000000e+00 2.859786e-03 4.353426e-03
         vertex 2.349500e-03 2.859786e-03 4.353426e-03
         vertex 0.000000e+00 3.217528e-03 4.257569e-03
      endloop
   endfacet
   facet normal -0.000000e+00 2.588192e-01 9.659258e-01
      outer loop
         vertex 0.000000e+00 3.217528e-03 4.257569e-03
         vertex 2.349500e-03 2.859786e-03 4.353426e-03
         vertex 2.349500e-03 3.217528e-03 4.257569e-03
      endloop
   endfacet
   facet normal -0.000000e+00 8.715588e-02 9.961947e-01
      outer loop
         vertex 0.000000e+00 3.217528e-03 4.257569e-03
         vertex 2.349500e-03 3.217528e-03 4.257569e-03
         vertex 0.000000e+00 3.586480e-03 4.225290e-03
      endloop
   endfacet
   facet normal -0.000000e+00 8.715588e-02 9.961947e-01
      outer loop
         vertex 0.000000e+00 3.586480e-03 4.225290e-03
         vertex 2.349500e-03 3.217528e-03 4.257569e-03
         vertex 2.349500e-03 3.586480e-03 4.225290e-03
      endloop
   endfacet
   facet normal 0.000000e+00 -8.715583e-02 9.961947e-01
      outer loop
         vertex 1.035050e-02 3.586480e-03 4.225290e-03
         vertex 1.270000e-02 3.586480e-03 4.225290e-03
         vertex 1.035050e-02 3.955432e-03 4.257569e-03
      endloop
   endfacet
   facet normal 0.000000e+00 -8.715583e-02 9.961947e-01
      outer loop
         vertex 1.035050e-02 3.955432e-03 4.257569e-03
         vertex 1.270000e-02 3.586480e-03 4.225290e-03
         vertex 1.270000e-02 3.955432e-03 4.257569e-03
      endloop
   endfacet
   facet normal 0.000000e+00 -2.588192e-01 9.659258e-01
      outer loop
         vertex 1.035050e-02 3.955432e-03 4.257569e-03
         vertex 1.270000e-02 3.955432e-03 4.257569e-03
         vertex 1.035050e-02 4.313174e-03 4.353426e-03
      endloop
   endfacet
   facet normal 0.000000e+00 -2.588192e-01 9.659258e-01
      outer loop
         vertex 1.035050e-02 4.313174e-03 4.353426e-03
         vertex 1.270000e-02 3.955432e-03 4.257569e-03
         vertex 1.270000e-02 4.313174e-03 4.353426e-03
      endloop
   endfacet
   facet normal 0.000000e+00 -4.226181e-01 9.063079e-01
      outer loop
         vertex 1.035050e-02 4.313174e-03 4.353426e-03
         vertex 1.270000e-02 4.313174e-03 4.353426e-03
         vertex 1.035050e-02 4.648835e-03 4.509947e-03
      endloop
   endfacet
   facet normal 0.000000e+00 -4.226181e-01 9.063079e-01
      outer loop
         vertex 1.035050e-02 4.648835e-03 4.509947e-03
         vertex 1.270000e-02 4.313174e-03 4.353426e-03
         vertex 1.270000e-02 4.648835e-03 4.509947e-03
      endloop
   endfacet
   facet normal 0.000000e+00 -5.735760e-01 8.191523e-01
      outer loop
         vertex 1.035050e-02 4.648835e-03 4.509947e-03
         vertex 1.270000e-02 4.648835e-03 4.509947e-03
         vertex 1.035050e-02 4.952217e-03 4.722378e-03
      endloop
   endfacet
   facet normal 0.000000e+00 -5.735760e-01 8.191523e-01
      outer loop
         vertex 1.035050e-02 4.952217e-03 4.722378e-03
         vertex 1.270000e-02 4.648835e-03 4.509947e-03
         vertex 1.270000e-02 4.952217e-03 4.722378e-03
      endloop
   endfacet
   facet normal 0.000000e+00 -7.071077e-01 7.071058e-01
      outer loop
         vertex 1.035050e-02 4.952217e-03 4.722378e-03
         vertex 1.270000e-02 4.952217e-03 4.722378e-03
         vertex 1.035050e-02 5.214102e-03 4.984263e-03
      endloop
   endfacet
   facet normal 0.000000e+00 -7.071077e-01 7.071058e-01
      outer loop
         vertex 1.035050e-02 5.214102e-03 4.984263e-03
         vertex 1.270000e-02 4.952217e-03 4.722378e-03
         vertex 1.270000e-02 5.214102e-03 4.984263e-03
      endloop
   endfacet
   facet normal 0.000000e+00 -8.191513e-01 5.735774e-01
      outer loop
         vertex 1.035050e-02 5.214102e-03 4.984263e-03
         vertex 1.270000e-02 5.214102e-03 4.984263e-03
         vertex 1.035050e-02 5.426533e-03 5.287645e-03
      endloop
   endfacet
   facet normal 0.000000e+00 -8.191513e-01 5.735774e-01
      outer loop
         vertex 1.035050e-02 5.426533e-03 5.287645e-03
         vertex 1.270000e-02 5.214102e-03 4.984263e-03
         vertex 1.270000e-02 5.426533e-03 5.287645e-03
      endloop
   endfacet
   facet normal 0.000000e+00 -9.063079e-01 4.226181e-01
      outer loop
         vertex 1.035050e-02 5.426533e-03 5.287645e-03
         vertex 1.270000e-02 5.426533e-03 5.287645e-03
         vertex 1.035050e-02 5.583054e-03 5.623306e-03
      endloop
   endfacet
   facet normal 0.000000e+00 -9.063079e-01 4.226181e-01
      outer loop
         vertex 1.035050e-02 5.583054e-03 5.623306e-03
         vertex 1.270000e-02 5.426533e-03 5.287645e-03
         vertex 1.270000e-02 5.583054e-03 5.623306e-03
      endloop
   endfacet
   facet normal 0.000000e+00 -9.659260e-01 2.588183e-01
      outer loop
         vertex 1.035050e-02 5.583054e-03 5.623306e-03
         vertex 1.270000e-02 5.583054e-03 5.623306e-03
         vertex 1.035050e-02 5.678911e-03 5.981048e-03
      endloop
   endfacet
   facet normal 0.000000e+00 -9.659260e-01 2.588183e-01
      outer loop
         vertex 1.035050e-02 5.678911e-03 5.981048e-03
         vertex 1.270000e-02 5.583054e-03 5.623306e-03
         vertex 1.270000e-02 5.678911e-03 5.981048e-03
      endloop
   endfacet
   facet normal 0.000000e+00 -9.961947e-01 8.715594e-02
      outer loop
         vertex 1.035050e-02 5.678911e-03 5.981048e-03
         vertex 1.270000e-02 5.678911e-03 5.981048e-03
         vertex 1.035050e-02 5.711190e-03 6.350000e-03
      endloop
   endfacet
   facet normal 0.000000e+00 -9.961947e-01 8.715594e-02
      outer loop
         vertex 1.035050e-02 5.711190e-03 6.350000e-03
         vertex 1.270000e-02 5.678911e-03 5.981048e-03
         vertex 1.270000e-02 5.711190e-03 6.350000e-03
      endloop
   endfacet
   facet normal 0.000000e+00 -9.961947e-01 -8.715594e-02
      outer loop
         vertex 1.035050e-02 5.711190e-03 6.350000e-03
         vertex 1.270000e-02 5.711190e-03 6.350000e-03
         vertex 1.035050e-02 5.678911e-03 6.718952e-03
      endloop
   endfacet
   facet normal 0.000000e+00 -9.961947e-01 -8.715594e-02
      outer loop
         vertex 1.035050e-02 5.678911e-03 6.718952e-03
         vertex 1.270000e-02 5.711190e-03 6.350000e-03
         vertex 1.270000e-02 5.678911e-03 6.718952e-03
      endloop
   endfacet
   facet normal 0.000000e+00 -9.659260e-01 -2.588183e-01
      outer loop
         vertex 1.035050e-02 5.678911e-03 6.718952e-03
         vertex 1.270000e-02 5.678911e-03 6.718952e-03
         vertex 1.035050e-02 5.583054e-03 7.076694e-03
      endloop
   endfacet
   facet normal 0.000000e+00 -9.659260e-01 -2.588183e-01
      outer loop
         vertex 1.035050e-02 5.583054e-03 7.076694e-03
         vertex 1.270000e-02 5.678911e-03 6.718952e-03
         vertex 1.270000e-02 5.583054e-03 7.076694e-03
      endloop
   endfacet
   facet normal 0.000000e+00 -9.063079e-01 -4.226181e-01
      outer loop
         vertex 1.035050e-02 5.583054e-03 7.076694e-03
         vertex 1.270000e-02 5.583054e-03 7.076694e-03
         vertex 1.035050e-02 5.426533e-03 7.412355e-03
      endloop
   endfacet
   facet normal 0.000000e+00 -9.063079e-01 -4.226181e-01
      outer loop
         vertex 1.035050e-02 5.426533e-03 7.412355e-03
         vertex 1.270000e-02 5.583054e-03 7.076694e-03
         vertex 1.270000e-02 5.426533e-03 7.412355e-03
      endloop
   endfacet
   facet normal 0.000000e+00 -8.191513e-01 -5.735774e-01
      outer loop
         vertex 1.035050e-02 5.426533e-03 7.412355e-03
         vertex 1.270000e-02 5.426533e-03 7.412355e-03
         vertex 1.035050e-02 5.214102e-03 7.715737e-03
      endloop
   endfacet
   facet normal 0.000000e+00 -8.191513e-01 -5.735774e-01
      outer loop
         vertex 1.035050e-02 5.214102e-03 7.715737e-03
         vertex 1.270000e-02 5.426533e-03 7.412355e-03
         vertex 1.270000e-02 5.214102e-03 7.715737e-03
      endloop
   endfacet
   facet normal 0.000000e+00 -7.071074e-01 -7.071062e-01
      outer loop
         vertex 1.035050e-02 5.214102e-03 7.715737e-03
         vertex 1.270000e-02 5.214102e-03 7.715737e-03
         vertex 1.035050e-02 4.952217e-03 7.977622e-03
      endloop
   endfacet
   facet normal 0.000000e+00 -7.071074e-01 -7.071062e-01
      outer loop
         vertex 1.035050e-02 4.952217e-03 7.977622e-03
         vertex 1.270000e-02 5.214102e-03 7.715737e-03
         vertex 1.270000e-02 4.952217e-03 7.977622e-03
      endloop
   endfacet
   facet normal 0.000000e+00 -5.735760e-01 -8.191523e-01
      outer loop
         vertex 1.035050e-02 4.952217e-03 7.977622e-03
         vertex 1.270000e-02 4.952217e-03 7.977622e-03
         vertex 1.035050e-02 4.648835e-03 8.190053e-03
      endloop
   endfacet
   facet normal 0.000000e+00 -5.735760e-01 -8.191523e-01
      outer loop
         vertex 1.035050e-02 4.648835e-03 8.190053e-03
         vertex 1.270000e-02 4.952217e-03 7.977622e-03
         vertex 1.270000e-02 4.648835e-03 8.190053e-03
      endloop
   endfacet
   facet normal 0.000000e+00 -4.226191e-01 -9.063074e-01
      outer loop
         vertex 1.035050e-02 4.648835e-03 8.190053e-03
         vertex 1.270000e-02 4.648835e-03 8.190053e-03
         vertex 1.035050e-02 4.313174e-03 8.346574e-03
      endloop
   endfacet
   facet normal 0.000000e+00 -4.226191e-01 -9.063074e-01
      outer loop
         vertex 1.035050e-02 4.313174e-03 8.346574e-03
         vertex 1.270000e-02 4.648835e-03 8.190053e-03
         vertex 1.270000e-02 4.313174e-03 8.346574e-03
      endloop
   endfacet
   facet normal 0.000000e+00 -2.588186e-01 -9.659259e-01
      outer loop
         vertex 1.035050e-02 4.313174e-03 8.346574e-03
         vertex 1.270000e-02 4.313174e-03 8.346574e-03
         vertex 1.035050e-02 3.955432e-03 8.442431e-03
      endloop
   endfacet
   facet normal 0.000000e+00 -2.588186e-01 -9.659259e-01
      outer loop
         vertex 1.035050e-02 3.955432e-03 8.442431e-03
         vertex 1.270000e-02 4.313174e-03 8.346574e-03
         vertex 1.270000e-02 3.955432e-03 8.442431e-03
      endloop
   endfacet
   facet normal 0.000000e+00 -8.715583e-02 -9.961947e-01
      outer loop
         vertex 1.035050e-02 3.955432e-03 8.442431e-03
         vertex 1.270000e-02 3.955432e-03 8.442431e-03
         vertex 1.035050e-02 3.586480e-03 8.474710e-03
      endloop
   endfacet
   facet normal 0.000000e+00 -8.715583e-02 -9.961947e-01
      outer loop
         vertex 1.035050e-02 3.586480e-03 8.474710e-03
         vertex 1.270000e-02 3.955432e-03 8.442431e-03
         vertex 1.270000e-02 3.586480e-03 8.474710e-03
      endloop
   endfacet
   facet normal 0.000000e+00 8.715588e-02 -9.961947e-01
      outer loop
         vertex 1.035050e-02 3.586480e-03 8.474710e-03
         vertex 1.270000e-02 3.586480e-03 8.474710e-03
         vertex 1.035050e-02 3.217528e-03 8.442431e-03
      endloop
   endfacet
   facet normal 0.000000e+00 8.715588e-02 -9.961947e-01
      outer loop
         vertex 1.035050e-02 3.217528e-03 8.442431e-03
         vertex 1.270000e-02 3.586480e-03 8.474710e-03
         vertex 1.270000e-02 3.217528e-03 8.442431e-03
      endloop
   endfacet
   facet normal 0.000000e+00 2.588186e-01 -9.659259e-01
      outer loop
         vertex 1.035050e-02 3.217528e-03 8.442431e-03
         vertex 1.270000e-02 3.217528e-03 8.442431e-03
         vertex 1.035050e-02 2.859786e-03 8.346574e-03
      endloop
   endfacet
   facet normal 0.000000e+00 2.588186e-01 -9.659259e-01
      outer loop
         vertex 1.035050e-02 2.859786e-03 8.346574e-03
         vertex 1.270000e-02 3.217528e-03 8.442431e-03
         vertex 1.270000e-02 2.859786e-03 8.346574e-03
      endloop
   endfacet
   facet normal 0.000000e+00 4.226189e-01 -9.063075e-01
      outer loop
         vertex 1.035050e-02 2.859786e-03 8.346574e-03
         vertex 1.270000e-02 2.859786e-03 8.346574e-03
         vertex 1.035050e-02 2.524125e-03 8.190053e-03
      endloop
   endfacet
   facet normal 0.000000e+00 4.226189e-01 -9.063075e-01
      outer loop
         vertex 1.035050e-02 2.524125e-03 8.190053e-03
         vertex 1.270000e-02 2.859786e-03 8.346574e-03
         vertex 1.270000e-02 2.524125e-03 8.190053e-03
      endloop
   endfacet
   facet normal 0.000000e+00 5.735763e-01 -8.191521e-01
      outer loop
         vertex 1.035050e-02 2.524125e-03 8.190053e-03
         vertex 1.270000e-02 2.524125e-03 8.190053e-03
         vertex 1.035050e-02 2.220743e-03 7.977622e-03
      endloop
   endfacet
   facet normal 0.000000e+00 5.735763e-01 -8.191521e-01
      outer loop
         vertex 1.035050e-02 2.220743e-03 7.977622e-03
         vertex 1.270000e-02 2.524125e-03 8.190053e-03
         vertex 1.270000e-02 2.220743e-03 7.977622e-03
      endloop
   endfacet
   facet normal 0.000000e+00 7.071071e-01 -7.071065e-01
      outer loop
         vertex 1.035050e-02 2.220743e-03 7.977622e-03
         vertex 1.270000e-02 2.220743e-03 7.977622e-03
         vertex 1.035050e-02 1.958858e-03 7.715737e-03
      endloop
   endfacet
   facet normal 0.000000e+00 7.071071e-01 -7.071065e-01
      outer loop
         vertex 1.035050e-02 1.958858e-03 7.715737e-03
         vertex 1.270000e-02 2.220743e-03 7.977622e-03
         vertex 1.270000e-02 1.958858e-03 7.715737e-03
      endloop
   endfacet
   facet normal 0.000000e+00 8.191518e-01 -5.735768e-01
      outer loop
         vertex 1.035050e-02 1.958858e-03 7.715737e-03
         vertex 1.270000e-02 1.958858e-03 7.715737e-03
         vertex 1.035050e-02 1.746427e-03 7.412355e-03
      endloop
   endfacet
   facet normal 0.000000e+00 8.191518e-01 -5.735768e-01
      outer loop
         vertex 1.035050e-02 1.746427e-03 7.412355e-03
         vertex 1.270000e-02 1.958858e-03 7.715737e-03
         vertex 1.270000e-02 1.746427e-03 7.412355e-03
      endloop
   endfacet
   facet normal 0.000000e+00 9.063077e-01 -4.226184e-01
      outer loop
         vertex 1.035050e-02 1.746427e-03 7.412355e-03
         vertex 1.270000e-02 1.746427e-03 7.412355e-03
         vertex 1.035050e-02 1.589906e-03 7.076694e-03
      endloop
   endfacet
   facet normal 0.000000e+00 9.063077e-01 -4.226184e-01
      outer loop
         vertex 1.035050e-02 1.589906e-03 7.076694e-03
         vertex 1.270000e-02 1.746427e-03 7.412355e-03
         vertex 1.270000e-02 1.589906e-03 7.076694e-03
      endloop
   endfacet
   facet normal 0.000000e+00 9.659259e-01 -2.588189e-01
      outer loop
         vertex 1.035050e-02 1.589906e-03 7.076694e-03
         vertex 1.270000e-02 1.589906e-03 7.076694e-03
         vertex 1.035050e-02 1.494049e-03 6.718952e-03
      endloop
   endfacet
   facet normal 0.000000e+00 9.659259e-01 -2.588189e-01
      outer loop
         vertex 1.035050e-02 1.494049e-03 6.718952e-03
         vertex 1.270000e-02 1.589906e-03 7.076694e-03
         vertex 1.270000e-02 1.494049e-03 6.718952e-03
      endloop
   endfacet
   facet normal 0.000000e+00 9.961947e-01 -8.715563e-02
      outer loop
         vertex 1.035050e-02 1.494049e-03 6.718952e-03
         vertex 1.270000e-02 1.494049e-03 6.718952e-03
         vertex 1.035050e-02 1.461770e-03 6.350000e-03
      endloop
   endfacet
   facet normal 0.000000e+00 9.961947e-01 -8.715563e-02
      outer loop
         vertex 1.035050e-02 1.461770e-03 6.350000e-03
         vertex 1.270000e-02 1.494049e-03 6.718952e-03
         vertex 1.270000e-02 1.461770e-03 6.350000e-03
      endloop
   endfacet
   facet normal -0.000000e+00 9.961947e-01 8.715563e-02
      outer loop
         vertex 1.035050e-02 1.461770e-03 6.350000e-03
         vertex 1.270000e-02 1.461770e-03 6.350000e-03
         vertex 1.035050e-02 1.494049e-03 5.981048e-03
      endloop
   endfacet
   facet normal -0.000000e+00 9.961947e-01 8.715563e-02
      outer loop
         vertex 1.035050e-02 1.494049e-03 5.981048e-03
         vertex 1.270000e-02 1.461770e-03 6.350000e-03
         vertex 1.270000e-02 1.494049e-03 5.981048e-03
      endloop
   endfacet
   facet normal -0.000000e+00 9.659259e-01 2.588189e-01
      outer loop
         vertex 1.035050e-02 1.494049e-03 5.981048e-03
         vertex 1.270000e-02 1.494049e-03 5.981048e-03
         vertex 1.035050e-02 1.589906e-03 5.623306e-03
      endloop
   endfacet
   facet normal -0.000000e+00 9.659259e-01 2.588189e-01
      outer loop
         vertex 1.035050e-02 1.589906e-03 5.623306e-03
         vertex 1.270000e-02 1.494049e-03 5.981048e-03
         vertex 1.270000e-02 1.589906e-03 5.623306e-03
      endloop
   endfacet
   facet normal -0.000000e+00 9.063077e-01 4.226184e-01
      outer loop
         vertex 1.035050e-02 1.589906e-03 5.623306e-03
         vertex 1.270000e-02 1.589906e-03 5.623306e-03
         vertex 1.035050e-02 1.746427e-03 5.287645e-03
      endloop
   endfacet
   facet normal -0.000000e+00 9.063077e-01 4.226184e-01
      outer loop
         vertex 1.035050e-02 1.746427e-03 5.287645e-03
         vertex 1.270000e-02 1.589906e-03 5.623306e-03
         vertex 1.270000e-02 1.746427e-03 5.287645e-03
      endloop
   endfacet
   facet normal -0.000000e+00 8.191518e-01 5.735768e-01
      outer loop
         vertex 1.035050e-02 1.746427e-03 5.287645e-03
         vertex 1.270000e-02 1.746427e-03 5.287645e-03
         vertex 1.035050e-02 1.958858e-03 4.984263e-03
      endloop
   endfacet
   facet normal -0.000000e+00 8.191518e-01 5.735768e-01
      outer loop
         vertex 1.035050e-02 1.958858e-03 4.984263e-03
         vertex 1.270000e-02 1.746427e-03 5.287645e-03
         vertex 1.270000e-02 1.958858e-03 4.984263e-03
      endloop
   endfacet
   facet normal -0.000000e+00 7.071074e-01 7.071062e-01
      outer loop
         vertex 1.035050e-02 1.958858e-03 4.984263e-03
         vertex 1.270000e-02 1.958858e-03 4.984263e-03
         vertex 1.035050e-02 2.220743e-03 4.722378e-03
      endloop
   endfacet
   facet normal -0.000000e+00 7.071074e-01 7.071062e-01
      outer loop
         vertex 1.035050e-02 2.220743e-03 4.722378e-03
         vertex 1.270000e-02 1.958858e-03 4.984263e-03
         vertex 1.270000e-02 2.220743e-03 4.722378e-03
      endloop
   endfacet
   facet normal -0.000000e+00 5.735763e-01 8.191521e-01
      outer loop
         vertex 1.035050e-02 2.220743e-03 4.722378e-03
         vertex 1.270000e-02 2.220743e-03 4.722378e-03
         vertex 1.035050e-02 2.524125e-03 4.509947e-03
      endloop
   endfacet
   facet normal -0.000000e+00 5.735763e-01 8.191521e-01
      outer loop
         vertex 1.035050e-02 2.524125e-03 4.509947e-03
         vertex 1.270000e-02 2.220743e-03 4.722378e-03
         vertex 1.270000e-02 2.524125e-03 4.509947e-03
      endloop
   endfacet
   facet normal -0.000000e+00 4.226179e-01 9.063080e-01
      outer loop
         vertex 1.035050e-02 2.524125e-03 4.509947e-03
         vertex 1.270000e-02 2.524125e-03 4.509947e-03
         vertex 1.035050e-02 2.859786e-03 4.353426e-03
      endloop
   endfacet
   facet normal -0.000000e+00 4.226179e-01 9.063080e-01
      outer loop
         vertex 1.035050e-02 2.859786e-03 4.353426e-03
         vertex 1.270000e-02 2.524125e-03 4.509947e-03
         vertex 1.270000e-02 2.859786e-03 4.353426e-03
      endloop
   endfacet
   facet normal -0.000000e+00 2.588192e-01 9.659258e-01
      outer loop
         vertex 1.035050e-02 2.859786e-03 4.353426e-03
         vertex 1.270000e-02 2.859786e-03 4.353426e-03
         vertex 1.035050e-02 3.217528e-03 4.257569e-03
      endloop
   endfacet
   facet normal -0.000000e+00 2.588192e-01 9.659258e-01
      outer loop
         vertex 1.035050e-02 3.217528e-03 4.257569e-03
         vertex 1.270000e-02 2.859786e-03 4.353426e-03
         vertex 1.270000e-02 3.217528e-03 4.257569e-03
      endloop
   endfacet
   facet normal -0.000000e+00 8.715588e-02 9.961947e-01
      outer loop
         vertex 1.035050e-02 3.217528e-03 4.257569e-03
         vertex 1.270000e-02 3.217528e-03 4.257569e-03
         vertex 1.035050e-02 3.586480e-03 4.225290e-03
      endloop
   endfacet
   facet normal -0.000000e+00 8.715588e-02 9.961947e-01
      outer loop
         vertex 1.035050e-02 3.586480e-03 4.225290e-03
         vertex 1.270000e-02 3.217528e-03 4.257569e-03
         vertex 1.270000e-02 3.586480e-03 4.225290e-03
      endloop
   endfacet
   facet normal 0.000000e+00 -1.000000e+00 0.000000e+00
      outer loop
         vertex 1.035050e-02 6.985000e-04 1.174750e-02
         vertex 1.270000e-02 6.985000e-04 1.270000e-02
         vertex 2.349500e-03 6.985000e-04 1.174750e-02
      endloop
   endfacet
   facet normal 0.000000e+00 -1.000000e+00 0.000000e+00
      outer loop
         vertex 2.349500e-03 6.985000e-04 1.174750e-02
         vertex 1.270000e-02 6.985000e-04 1.270000e-02
         vertex 0.000000e+00 6.985000e-04 1.270000e-02
      endloop
   endfacet
   facet normal -0.000000e+00 -1.000000e+00 -0.000000e+00
      outer loop
         vertex 2.349500e-03 6.985000e-04 1.174750e-02
         vertex 0.000000e+00 6.985000e-04 1.270000e-02
         vertex 2.349500e-03 6.985000e-04 9.525000e-04
      endloop
   endfacet
   facet normal -0.000000e+00 -1.000000e+00 0.000000e+00
      outer loop
         vertex 2.349500e-03 6.985000e-04 9.525000e-04
         vertex 0.000000e+00 6.985000e-04 1.270000e-02
         vertex 0.000000e+00 6.985000e-04 0.000000e+00
      endloop
   endfacet
   facet normal 0.000000e+00 -1.000000e+00 -0.000000e+00
      outer loop
         vertex 2.349500e-03 6.985000e-04 9.525000e-04
         vertex 0.000000e+00 6.985000e-04 0.000000e+00
         vertex 1.035050e-02 6.985000e-04 9.525000e-04
      endloop
   endfacet
   facet normal 0.000000e+00 -1.000000e+00 -0.000000e+00
      outer loop
         vertex 1.035050e-02 6.985000e-04 9.525000e-04
         vertex 0.000000e+00 6.985000e-04 0.000000e+00
         vertex 1.270000e-02 6.985000e-04 0.000000e+00
      endloop
   endfacet
   facet normal 0.000000e+00 -1.000000e+00 0.000000e+00
      outer loop
         vertex 1.035050e-02 6.985000e-04 9.525000e-04
         vertex 1.270000e-02 6.985000e-04 0.000000e+00
         vertex 1.035050e-02 6.985000e-04 1.174750e-02
      endloop
   endfacet
   facet normal 0.000000e+00 -1.000000e+00 0.000000e+00
      outer loop
         vertex 1.035050e-02 6.985000e-04 1.174750e-02
         vertex 1.270000e-02 6.985000e-04 0.000000e+00
         vertex 1.270000e-02 6.985000e-04 1.270000e-02
      endloop
   endfacet
   facet normal 0.000000e+00 0.000000e+00 -1.000000e+00
      outer loop
         vertex 2.349500e-03 1.008888e-02 1.174750e-02
         vertex 1.035050e-02 1.008888e-02 1.174750e-02
         vertex 2.349500e-03 6.985000e-04 1.174750e-02
      endloop
   endfacet
   facet normal 0.000000e+00 0.000000e+00 -1.000000e+00
      outer loop
         vertex 2.349500e-03 6.985000e-04 1.174750e-02
         vertex 1.035050e-02 1.008888e-02 1.174750e-02
         vertex 1.035050e-02 6.985000e-04 1.174750e-02
      endloop
   endfacet
   facet normal -0.000000e+00 0.000000e+00 1.000000e+00
      outer loop
         vertex 0.000000e+00 1.208786e-02 1.270000e-02
         vertex 0.000000e+00 6.985000e-04 1.270000e-02
         vertex 1.270000e-02 1.208786e-02 1.270000e-02
      endloop
   endfacet
   facet normal 0.000000e+00 0.000000e+00 1.000000e+00
      outer loop
         vertex 1.270000e-02 1.208786e-02 1.270000e-02
         vertex 0.000000e+00 6.985000e-04 1.270000e-02
         vertex 1.270000e-02 6.985000e-04 1.270000e-02
      endloop
   endfacet
   facet normal -0.000000e+00 0.000000e+00 1.000000e+00
      outer loop
         vertex 2.349500e-03 1.008888e-02 9.525000e-04
         vertex 2.349500e-03 6.985000e-04 9.525000e-04
         vertex 1.035050e-02 1.008888e-02 9.525000e-04
      endloop
   endfacet
   facet normal 0.000000e+00 0.000000e+00 1.000000e+00
      outer loop
         vertex 1.035050e-02 1.008888e-02 9.525000e-04
         vertex 2.349500e-03 6.985000e-04 9.525000e-04
         vertex 1.035050e-02 6.985000e-04 9.525000e-04
      endloop
   endfacet
   facet normal 0.000000e+00 0.000000e+00 -1.000000e+00
      outer loop
         vertex 0.000000e+00 6.985000e-04 0.000000e+00
         vertex 0.000000e+00 1.208786e-02 0.000000e+00
         vertex 1.270000e-02 6.985000e-04 0.000000e+00
      endloop
   endfacet
   facet normal 0.000000e+00 0.000000e+00 -1.000000e+00
      outer loop
         vertex 1.270000e-02 6.985000e-04 0.000000e+00
         vertex 0.000000e+00 1.208786e-02 0.000000e+00
         vertex 1.270000e-02 1.208786e-02 0.000000e+00
      endloop
   endfacet
endsolid