**ABCDEFGHIJKLMNOPQRSTUVWXYZabcdefghijklmnopqrstuvwxyz**************************
**PARASOLID !"#$%&'()*+,-./:;<=>?@[\]^_`{|}~0123456789**************************
**PART1;
MC=AMD64;
MC_MODEL=Intel64 Family 6 Model 60 Stepping 3, GenuineIntel;
MC_ID=unknown;
OS=Windows_NT;
OS_RELEASE=unknown;
FRU=Parasolid Version 24.1, build 257,  2-12-2013;
APPL=SolidWorks 2013-2013086;
SITE=;
USER=unknown;
FORMAT=text;
GUISE=transmit;
KEY=makeProjectedPlanarWire;
FILE=makeProjectedPlanarWire.x_t;
DATE=Mon Feb 24 21:39:39 2014;
**PART2;
SCH=SCH_2401257_20000;
USFLD_SIZE=0;
**PART3;
**END_OF_HEADER*****************************************************************
T51 : TRANSMIT FILE created by modeller version 240125723 SCH_2401257_20000_1300
6189 0 12 27 CCCCCCCCCCCCCCCCCCCCCCCA16 index_map_offset0 0 1 dA9 index_map82 0
 A17 node_id_index_map82 0 A20 schema_embedding_map82 0 Z1 572 0 0 0 0 0 0 1e3 1
e-8 0 2 0 1 0 3 1 3 4 5 6 7 8 9 0 0 0 0 13 255 3 73 0 1 0 10 0 0 7 10 50 255 4 2
 0 10 0 0 0 +0 0 0 0 0 1 1 0 0 30 255 5 44 0 8 11 0 0 +.02775 -2659589859577705e
-33 0 958410760208181e-31 1 0 29 255 6 71 0 9 12 0 .02775 -.0181 0 19 255 7 72 0
 1 0 0 3 V16 255 8 43 0 ?13 0 14 5 0 0 1 18 255 9 69 0 15 0 16 6 ?1 17 255 15 0
 0 0 0 9 17 18 0 19 +18 16 66 0 20 9 21 12 ?1 17 20 0 22 19 23 16 24 14 0 13 +18
 21 63 0 23 16 25 26 ?1 29 12 68 0 16 26 6 .02775 .0181 0 29 26 65 0 21 27 12 -.
02775 .0181 0 29 27 62 0 25 28 26 -.02775 -.0181 0 18 25 60 0 17 21 29 27 ?1 29
 28 59 0 29 30 27 -.03125 -.0216 0 18 29 57 0 31 25 32 28 ?1 29 30 56 0 32 33 28
 -.03125 .0216 0 18 32 54 0 34 29 35 30 ?1 29 33 53 0 35 36 30 .03125 .0216 0 18
 35 51 0 37 32 38 33 ?1 29 36 50 0 38 0 33 .03125 -.0216 0 18 38 48 0 39 35 0 36
 ?1 17 39 0 40 37 41 38 31 42 0 43 +15 255 40 6 0 39 10 22 17 37 0 40 34 39 35 4
3 44 0 45 +17 41 0 40 39 34 29 46 47 0 0 -17 31 0 0 0 0 29 39 42 0 41 -16 42 8 0
 ?39 44 0 48 0 0 1 17 43 0 0 0 0 38 37 44 0 0 -16 44 13 0 ?37 49 42 50 0 0 1 16
 49 18 0 ?45 47 44 51 0 0 1 30 50 14 0 44 48 51 0 +.03125 0 0 0 1 0 30 48 9 0 42
 0 50 0 +0 -.0216 0 1 0 0 30 51 19 0 49 50 52 0 +0 .0216 0 1 0 0 30 52 24 0 47 5
1 53 0 +-.03125 0 0 0 1 0 16 47 23 0 ?46 18 49 52 0 0 1 30 53 29 0 18 52 54 0 +0
 -.0181 0 1 0 0 16 18 28 0 ?15 55 47 53 0 0 1 30 54 34 0 55 53 11 0 +-.02775 0 0
 0 1 0 16 55 33 0 ?23 14 18 54 0 0 1 30 11 39 0 14 54 5 0 +0 .0181 0 1 0 0 16 14
 38 0 ?20 8 55 11 0 0 1 17 23 0 22 20 17 21 56 55 0 24 +15 22 7 0 17 10 0 17 17
 0 22 23 19 25 15 18 0 56 -17 56 0 0 0 0 25 23 55 0 0 -17 24 0 0 0 0 21 20 14 0
 0 -17 19 0 22 17 20 9 13 8 0 0 -17 13 0 0 0 0 16 19 8 0 0 +14 255 10 1 0 ?0 0 4
0 3 4 +0 0 0 0 3 17 46 0 0 0 0 32 41 47 0 0 +17 45 0 0 0 0 35 34 49 0 0 +17 34 0
 40 41 37 32 45 49 0 46 -1 0 
