solid Actuator Rod Top (For 3D Printed)
   facet normal 2.755334e-02 -3.835886e-18 9.996203e-01
      outer loop
         vertex 5.275439e-03 9.000000e-03 9.992408e-03
         vertex 5.000000e-03 9.000000e-03 1.000000e-02
         vertex 5.000000e-03 0.000000e+00 1.000000e-02
      endloop
   endfacet
   facet normal -2.755334e-02 3.749235e-18 9.996203e-01
      outer loop
         vertex 5.000000e-03 0.000000e+00 1.000000e-02
         vertex 5.000000e-03 9.000000e-03 1.000000e-02
         vertex 4.724561e-03 0.000000e+00 9.992408e-03
      endloop
   endfacet
   facet normal -2.755334e-02 0.000000e+00 9.996203e-01
      outer loop
         vertex 5.000000e-03 9.000000e-03 1.000000e-02
         vertex 4.724561e-03 9.000000e-03 9.992408e-03
         vertex 4.724561e-03 0.000000e+00 9.992408e-03
      endloop
   endfacet
   facet normal -1.100084e-01 0.000000e+00 9.939307e-01
      outer loop
         vertex 4.724561e-03 0.000000e+00 9.992408e-03
         vertex 4.724561e-03 9.000000e-03 9.992408e-03
         vertex 4.177027e-03 9.000000e-03 9.931806e-03
      endloop
   endfacet
   facet normal -1.100084e-01 0.000000e+00 9.939307e-01
      outer loop
         vertex 4.724561e-03 0.000000e+00 9.992408e-03
         vertex 4.177027e-03 9.000000e-03 9.931806e-03
         vertex 4.177027e-03 0.000000e+00 9.931806e-03
      endloop
   endfacet
   facet normal -2.186812e-01 0.000000e+00 9.757964e-01
      outer loop
         vertex 4.177027e-03 0.000000e+00 9.931806e-03
         vertex 4.177027e-03 9.000000e-03 9.931806e-03
         vertex 3.639483e-03 9.000000e-03 9.811340e-03
      endloop
   endfacet
   facet normal -2.186812e-01 0.000000e+00 9.757964e-01
      outer loop
         vertex 4.177027e-03 0.000000e+00 9.931806e-03
         vertex 3.639483e-03 9.000000e-03 9.811340e-03
         vertex 3.639483e-03 0.000000e+00 9.811340e-03
      endloop
   endfacet
   facet normal -3.246998e-01 0.000000e+00 9.458171e-01
      outer loop
         vertex 3.639483e-03 0.000000e+00 9.811340e-03
         vertex 3.639483e-03 9.000000e-03 9.811340e-03
         vertex 3.118453e-03 9.000000e-03 9.632470e-03
      endloop
   endfacet
   facet normal -3.246998e-01 0.000000e+00 9.458171e-01
      outer loop
         vertex 3.639483e-03 0.000000e+00 9.811340e-03
         vertex 3.118453e-03 9.000000e-03 9.632470e-03
         vertex 3.118453e-03 0.000000e+00 9.632470e-03
      endloop
   endfacet
   facet normal -4.267766e-01 0.000000e+00 9.043571e-01
      outer loop
         vertex 3.118453e-03 0.000000e+00 9.632470e-03
         vertex 3.118453e-03 9.000000e-03 9.632470e-03
         vertex 2.620263e-03 9.000000e-03 9.397368e-03
      endloop
   endfacet
   facet normal -4.267766e-01 0.000000e+00 9.043571e-01
      outer loop
         vertex 3.118453e-03 0.000000e+00 9.632470e-03
         vertex 2.620263e-03 9.000000e-03 9.397368e-03
         vertex 2.620263e-03 0.000000e+00 9.397368e-03
      endloop
   endfacet
   facet normal -5.236726e-01 0.000000e+00 8.519196e-01
      outer loop
         vertex 2.620263e-03 0.000000e+00 9.397368e-03
         vertex 2.620263e-03 9.000000e-03 9.397368e-03
         vertex 2.150960e-03 9.000000e-03 9.108889e-03
      endloop
   endfacet
   facet normal -5.236726e-01 0.000000e+00 8.519196e-01
      outer loop
         vertex 2.620263e-03 0.000000e+00 9.397368e-03
         vertex 2.150960e-03 9.000000e-03 9.108889e-03
         vertex 2.150960e-03 0.000000e+00 9.108889e-03
      endloop
   endfacet
   facet normal -6.142128e-01 0.000000e+00 7.891404e-01
      outer loop
         vertex 2.150960e-03 0.000000e+00 9.108889e-03
         vertex 2.150960e-03 9.000000e-03 9.108889e-03
         vertex 1.716240e-03 9.000000e-03 8.770533e-03
      endloop
   endfacet
   facet normal -6.142128e-01 0.000000e+00 7.891404e-01
      outer loop
         vertex 2.150960e-03 0.000000e+00 9.108889e-03
         vertex 1.716240e-03 9.000000e-03 8.770533e-03
         vertex 1.716240e-03 0.000000e+00 8.770533e-03
      endloop
   endfacet
   facet normal -6.972966e-01 0.000000e+00 7.167827e-01
      outer loop
         vertex 1.716240e-03 0.000000e+00 8.770533e-03
         vertex 1.716240e-03 9.000000e-03 8.770533e-03
         vertex 1.321380e-03 9.000000e-03 8.386408e-03
      endloop
   endfacet
   facet normal -6.972966e-01 0.000000e+00 7.167827e-01
      outer loop
         vertex 1.716240e-03 0.000000e+00 8.770533e-03
         vertex 1.321380e-03 9.000000e-03 8.386408e-03
         vertex 1.321380e-03 0.000000e+00 8.386408e-03
      endloop
   endfacet
   facet normal -7.719167e-01 0.000000e+00 6.357237e-01
      outer loop
         vertex 1.321380e-03 0.000000e+00 8.386408e-03
         vertex 1.321380e-03 9.000000e-03 8.386408e-03
         vertex 9.711743e-04 9.000000e-03 7.961176e-03
      endloop
   endfacet
   facet normal -7.719167e-01 0.000000e+00 6.357237e-01
      outer loop
         vertex 1.321380e-03 0.000000e+00 8.386408e-03
         vertex 9.711743e-04 9.000000e-03 7.961176e-03
         vertex 9.711743e-04 0.000000e+00 7.961176e-03
      endloop
   endfacet
   facet normal -8.371665e-01 0.000000e+00 5.469481e-01
      outer loop
         vertex 9.711743e-04 0.000000e+00 7.961176e-03
         vertex 9.711743e-04 9.000000e-03 7.961176e-03
         vertex 6.698729e-04 9.000000e-03 7.500000e-03
      endloop
   endfacet
   facet normal -8.371665e-01 0.000000e+00 5.469481e-01
      outer loop
         vertex 9.711743e-04 0.000000e+00 7.961176e-03
         vertex 6.698729e-04 9.000000e-03 7.500000e-03
         vertex 6.698729e-04 0.000000e+00 7.500000e-03
      endloop
   endfacet
   facet normal -8.922543e-01 0.000000e+00 4.515333e-01
      outer loop
         vertex 6.698729e-04 0.000000e+00 7.500000e-03
         vertex 6.698729e-04 9.000000e-03 7.500000e-03
         vertex 4.211334e-04 9.000000e-03 7.008477e-03
      endloop
   endfacet
   facet normal -8.922543e-01 0.000000e+00 4.515333e-01
      outer loop
         vertex 6.698729e-04 0.000000e+00 7.500000e-03
         vertex 4.211334e-04 9.000000e-03 7.008477e-03
         vertex 4.211334e-04 0.000000e+00 7.008477e-03
      endloop
   endfacet
   facet normal -9.365111e-01 0.000000e+00 3.506379e-01
      outer loop
         vertex 4.211334e-04 0.000000e+00 7.008477e-03
         vertex 4.211334e-04 9.000000e-03 7.008477e-03
         vertex 2.279747e-04 9.000000e-03 6.492574e-03
      endloop
   endfacet
   facet normal -9.365111e-01 0.000000e+00 3.506379e-01
      outer loop
         vertex 4.211334e-04 0.000000e+00 7.008477e-03
         vertex 2.279747e-04 9.000000e-03 6.492574e-03
         vertex 2.279747e-04 0.000000e+00 6.492574e-03
      endloop
   endfacet
   facet normal -9.694004e-01 0.000000e+00 2.454851e-01
      outer loop
         vertex 2.279747e-04 0.000000e+00 6.492574e-03
         vertex 2.279747e-04 9.000000e-03 6.492574e-03
         vertex 9.274250e-05 9.000000e-03 5.958553e-03
      endloop
   endfacet
   facet normal -9.694004e-01 0.000000e+00 2.454851e-01
      outer loop
         vertex 2.279747e-04 0.000000e+00 6.492574e-03
         vertex 9.274250e-05 9.000000e-03 5.958553e-03
         vertex 9.274250e-05 0.000000e+00 5.958553e-03
      endloop
   endfacet
   facet normal -9.905220e-01 0.000000e+00 1.373541e-01
      outer loop
         vertex 9.274250e-05 0.000000e+00 5.958553e-03
         vertex 9.274250e-05 9.000000e-03 5.958553e-03
         vertex 1.707720e-05 9.000000e-03 5.412897e-03
      endloop
   endfacet
   facet normal -9.905220e-01 0.000000e+00 1.373541e-01
      outer loop
         vertex 9.274250e-05 0.000000e+00 5.958553e-03
         vertex 1.707720e-05 9.000000e-03 5.412897e-03
         vertex 1.707720e-05 0.000000e+00 5.412897e-03
      endloop
   endfacet
   facet normal -9.996203e-01 0.000000e+00 2.755366e-02
      outer loop
         vertex 1.707720e-05 0.000000e+00 5.412897e-03
         vertex 1.707720e-05 9.000000e-03 5.412897e-03
         vertex 1.898501e-06 9.000000e-03 4.862228e-03
      endloop
   endfacet
   facet normal -9.996203e-01 0.000000e+00 2.755366e-02
      outer loop
         vertex 1.707720e-05 0.000000e+00 5.412897e-03
         vertex 1.898501e-06 9.000000e-03 4.862228e-03
         vertex 1.898501e-06 0.000000e+00 4.862228e-03
      endloop
   endfacet
   facet normal -9.965845e-01 0.000000e+00 -8.257899e-02
      outer loop
         vertex 1.898501e-06 0.000000e+00 4.862228e-03
         vertex 1.898501e-06 9.000000e-03 4.862228e-03
         vertex 4.738942e-05 9.000000e-03 4.313232e-03
      endloop
   endfacet
   facet normal -9.965845e-01 0.000000e+00 -8.257899e-02
      outer loop
         vertex 1.898501e-06 0.000000e+00 4.862228e-03
         vertex 4.738942e-05 9.000000e-03 4.313232e-03
         vertex 4.738942e-05 0.000000e+00 4.313232e-03
      endloop
   endfacet
   facet normal -9.814515e-01 0.000000e+00 -1.917108e-01
      outer loop
         vertex 4.738942e-05 0.000000e+00 4.313232e-03
         vertex 4.738942e-05 9.000000e-03 4.313232e-03
         vertex 1.529986e-04 9.000000e-03 3.772572e-03
      endloop
   endfacet
   facet normal -9.814515e-01 0.000000e+00 -1.917108e-01
      outer loop
         vertex 4.738942e-05 0.000000e+00 4.313232e-03
         vertex 1.529986e-04 9.000000e-03 3.772572e-03
         vertex 1.529986e-04 0.000000e+00 3.772572e-03
      endloop
   endfacet
   facet normal -9.544051e-01 0.000000e+00 -2.985146e-01
      outer loop
         vertex 1.529986e-04 0.000000e+00 3.772572e-03
         vertex 1.529986e-04 9.000000e-03 3.772572e-03
         vertex 3.174436e-04 9.000000e-03 3.246812e-03
      endloop
   endfacet
   facet normal -9.544051e-01 0.000000e+00 -2.985146e-01
      outer loop
         vertex 1.529986e-04 0.000000e+00 3.772572e-03
         vertex 3.174436e-04 9.000000e-03 3.246812e-03
         vertex 3.174436e-04 0.000000e+00 3.246812e-03
      endloop
   endfacet
   facet normal -9.157733e-01 0.000000e+00 -4.016954e-01
      outer loop
         vertex 3.174436e-04 0.000000e+00 3.246812e-03
         vertex 3.174436e-04 9.000000e-03 3.246812e-03
         vertex 5.387287e-04 9.000000e-03 2.742333e-03
      endloop
   endfacet
   facet normal -9.157733e-01 0.000000e+00 -4.016954e-01
      outer loop
         vertex 3.174436e-04 0.000000e+00 3.246812e-03
         vertex 5.387287e-04 9.000000e-03 2.742333e-03
         vertex 5.387287e-04 0.000000e+00 2.742333e-03
      endloop
   endfacet
   facet normal -8.660255e-01 0.000000e+00 -4.999998e-01
      outer loop
         vertex 5.387287e-04 0.000000e+00 2.742333e-03
         vertex 5.387287e-04 9.000000e-03 2.742333e-03
         vertex 8.141673e-04 9.000000e-03 2.265259e-03
      endloop
   endfacet
   facet normal -8.660255e-01 0.000000e+00 -4.999998e-01
      outer loop
         vertex 5.387287e-04 0.000000e+00 2.742333e-03
         vertex 8.141673e-04 9.000000e-03 2.265259e-03
         vertex 8.141673e-04 0.000000e+00 2.265259e-03
      endloop
   endfacet
   facet normal -8.057651e-01 0.000000e+00 -5.922353e-01
      outer loop
         vertex 8.141673e-04 0.000000e+00 2.265259e-03
         vertex 8.141673e-04 9.000000e-03 2.265259e-03
         vertex 1.140417e-03 9.000000e-03 1.821381e-03
      endloop
   endfacet
   facet normal -8.057651e-01 0.000000e+00 -5.922353e-01
      outer loop
         vertex 8.141673e-04 0.000000e+00 2.265259e-03
         vertex 1.140417e-03 9.000000e-03 1.821381e-03
         vertex 1.140417e-03 0.000000e+00 1.821381e-03
      endloop
   endfacet
   facet normal -7.357238e-01 0.000000e+00 -6.772817e-01
      outer loop
         vertex 1.140417e-03 0.000000e+00 1.821381e-03
         vertex 1.140417e-03 9.000000e-03 1.821381e-03
         vertex 1.513516e-03 9.000000e-03 1.416087e-03
      endloop
   endfacet
   facet normal -7.357238e-01 0.000000e+00 -6.772817e-01
      outer loop
         vertex 1.140417e-03 0.000000e+00 1.821381e-03
         vertex 1.513516e-03 9.000000e-03 1.416087e-03
         vertex 1.513516e-03 0.000000e+00 1.416087e-03
      endloop
   endfacet
   facet normal -6.567523e-01 0.000000e+00 -7.541064e-01
      outer loop
         vertex 1.513516e-03 0.000000e+00 1.416087e-03
         vertex 1.513516e-03 9.000000e-03 1.416087e-03
         vertex 1.928936e-03 9.000000e-03 1.054297e-03
      endloop
   endfacet
   facet normal -6.567523e-01 0.000000e+00 -7.541064e-01
      outer loop
         vertex 1.513516e-03 0.000000e+00 1.416087e-03
         vertex 1.928936e-03 9.000000e-03 1.054297e-03
         vertex 1.928936e-03 0.000000e+00 1.054297e-03
      endloop
   endfacet
   facet normal -5.698078e-01 0.000000e+00 -8.217780e-01
      outer loop
         vertex 1.928936e-03 0.000000e+00 1.054297e-03
         vertex 1.928936e-03 9.000000e-03 1.054297e-03
         vertex 2.381635e-03 9.000000e-03 7.404028e-04
      endloop
   endfacet
   facet normal -5.698078e-01 0.000000e+00 -8.217780e-01
      outer loop
         vertex 1.928936e-03 0.000000e+00 1.054297e-03
         vertex 2.381635e-03 9.000000e-03 7.404028e-04
         vertex 2.381635e-03 0.000000e+00 7.404028e-04
      endloop
   endfacet
   facet normal -4.759474e-01 0.000000e+00 -8.794738e-01
      outer loop
         vertex 2.381635e-03 0.000000e+00 7.404028e-04
         vertex 2.381635e-03 9.000000e-03 7.404028e-04
         vertex 2.866118e-03 9.000000e-03 4.782141e-04
      endloop
   endfacet
   facet normal -4.759474e-01 0.000000e+00 -8.794738e-01
      outer loop
         vertex 2.381635e-03 0.000000e+00 7.404028e-04
         vertex 2.866118e-03 9.000000e-03 4.782141e-04
         vertex 2.866118e-03 0.000000e+00 4.782141e-04
      endloop
   endfacet
   facet normal -3.763092e-01 0.000000e+00 -9.264941e-01
      outer loop
         vertex 2.866118e-03 0.000000e+00 4.782141e-04
         vertex 2.866118e-03 9.000000e-03 4.782141e-04
         vertex 3.376503e-03 9.000000e-03 2.709138e-04
      endloop
   endfacet
   facet normal -3.763092e-01 0.000000e+00 -9.264941e-01
      outer loop
         vertex 2.866118e-03 0.000000e+00 4.782141e-04
         vertex 3.376503e-03 9.000000e-03 2.709138e-04
         vertex 3.376503e-03 0.000000e+00 2.709138e-04
      endloop
   endfacet
   facet normal -2.721038e-01 0.000000e+00 -9.622679e-01
      outer loop
         vertex 3.376503e-03 0.000000e+00 2.709138e-04
         vertex 3.376503e-03 9.000000e-03 2.709138e-04
         vertex 3.906594e-03 9.000000e-03 1.210179e-04
      endloop
   endfacet
   facet normal -2.721038e-01 0.000000e+00 -9.622679e-01
      outer loop
         vertex 3.376503e-03 0.000000e+00 2.709138e-04
         vertex 3.906594e-03 9.000000e-03 1.210179e-04
         vertex 3.906594e-03 0.000000e+00 1.210179e-04
      endloop
   endfacet
   facet normal -1.645942e-01 0.000000e+00 -9.863614e-01
      outer loop
         vertex 3.906594e-03 0.000000e+00 1.210179e-04
         vertex 3.906594e-03 9.000000e-03 1.210179e-04
         vertex 4.449959e-03 9.000000e-03 3.034668e-05
      endloop
   endfacet
   facet normal -1.645942e-01 0.000000e+00 -9.863614e-01
      outer loop
         vertex 3.906594e-03 0.000000e+00 1.210179e-04
         vertex 4.449959e-03 9.000000e-03 3.034668e-05
         vertex 4.449959e-03 0.000000e+00 3.034668e-05
      endloop
   endfacet
   facet normal -5.508788e-02 0.000000e+00 -9.984815e-01
      outer loop
         vertex 4.449959e-03 0.000000e+00 3.034668e-05
         vertex 4.449959e-03 9.000000e-03 3.034668e-05
         vertex 5.000000e-03 9.000000e-03 0.000000e+00
      endloop
   endfacet
   facet normal -5.508788e-02 0.000000e+00 -9.984815e-01
      outer loop
         vertex 4.449959e-03 0.000000e+00 3.034668e-05
         vertex 5.000000e-03 9.000000e-03 0.000000e+00
         vertex 5.000000e-03 0.000000e+00 0.000000e+00
      endloop
   endfacet
   facet normal 5.508788e-02 0.000000e+00 -9.984815e-01
      outer loop
         vertex 5.000000e-03 0.000000e+00 0.000000e+00
         vertex 5.000000e-03 9.000000e-03 0.000000e+00
         vertex 5.550041e-03 9.000000e-03 3.034668e-05
      endloop
   endfacet
   facet normal 5.508788e-02 0.000000e+00 -9.984815e-01
      outer loop
         vertex 5.000000e-03 0.000000e+00 0.000000e+00
         vertex 5.550041e-03 9.000000e-03 3.034668e-05
         vertex 5.550041e-03 0.000000e+00 3.034668e-05
      endloop
   endfacet
   facet normal 1.645942e-01 0.000000e+00 -9.863614e-01
      outer loop
         vertex 5.550041e-03 0.000000e+00 3.034668e-05
         vertex 5.550041e-03 9.000000e-03 3.034668e-05
         vertex 6.093405e-03 9.000000e-03 1.210179e-04
      endloop
   endfacet
   facet normal 1.645942e-01 0.000000e+00 -9.863614e-01
      outer loop
         vertex 5.550041e-03 0.000000e+00 3.034668e-05
         vertex 6.093405e-03 9.000000e-03 1.210179e-04
         vertex 6.093405e-03 0.000000e+00 1.210179e-04
      endloop
   endfacet
   facet normal 2.721038e-01 0.000000e+00 -9.622679e-01
      outer loop
         vertex 6.093405e-03 0.000000e+00 1.210179e-04
         vertex 6.093405e-03 9.000000e-03 1.210179e-04
         vertex 6.623497e-03 9.000000e-03 2.709138e-04
      endloop
   endfacet
   facet normal 2.721038e-01 0.000000e+00 -9.622679e-01
      outer loop
         vertex 6.093405e-03 0.000000e+00 1.210179e-04
         vertex 6.623497e-03 9.000000e-03 2.709138e-04
         vertex 6.623497e-03 0.000000e+00 2.709138e-04
      endloop
   endfacet
   facet normal 3.763092e-01 0.000000e+00 -9.264941e-01
      outer loop
         vertex 6.623497e-03 0.000000e+00 2.709138e-04
         vertex 6.623497e-03 9.000000e-03 2.709138e-04
         vertex 7.133882e-03 9.000000e-03 4.782141e-04
      endloop
   endfacet
   facet normal 3.763092e-01 0.000000e+00 -9.264941e-01
      outer loop
         vertex 6.623497e-03 0.000000e+00 2.709138e-04
         vertex 7.133882e-03 9.000000e-03 4.782141e-04
         vertex 7.133882e-03 0.000000e+00 4.782141e-04
      endloop
   endfacet
   facet normal 4.759474e-01 0.000000e+00 -8.794738e-01
      outer loop
         vertex 7.133882e-03 0.000000e+00 4.782141e-04
         vertex 7.133882e-03 9.000000e-03 4.782141e-04
         vertex 7.618364e-03 9.000000e-03 7.404028e-04
      endloop
   endfacet
   facet normal 4.759474e-01 0.000000e+00 -8.794738e-01
      outer loop
         vertex 7.133882e-03 0.000000e+00 4.782141e-04
         vertex 7.618364e-03 9.000000e-03 7.404028e-04
         vertex 7.618364e-03 0.000000e+00 7.404028e-04
      endloop
   endfacet
   facet normal 5.698078e-01 0.000000e+00 -8.217780e-01
      outer loop
         vertex 7.618364e-03 0.000000e+00 7.404028e-04
         vertex 7.618364e-03 9.000000e-03 7.404028e-04
         vertex 8.071064e-03 9.000000e-03 1.054297e-03
      endloop
   endfacet
   facet normal 5.698078e-01 0.000000e+00 -8.217780e-01
      outer loop
         vertex 7.618364e-03 0.000000e+00 7.404028e-04
         vertex 8.071064e-03 9.000000e-03 1.054297e-03
         vertex 8.071064e-03 0.000000e+00 1.054297e-03
      endloop
   endfacet
   facet normal 6.567523e-01 0.000000e+00 -7.541064e-01
      outer loop
         vertex 8.071064e-03 0.000000e+00 1.054297e-03
         vertex 8.071064e-03 9.000000e-03 1.054297e-03
         vertex 8.486484e-03 9.000000e-03 1.416087e-03
      endloop
   endfacet
   facet normal 6.567523e-01 0.000000e+00 -7.541064e-01
      outer loop
         vertex 8.071064e-03 0.000000e+00 1.054297e-03
         vertex 8.486484e-03 9.000000e-03 1.416087e-03
         vertex 8.486484e-03 0.000000e+00 1.416087e-03
      endloop
   endfacet
   facet normal 7.357238e-01 0.000000e+00 -6.772817e-01
      outer loop
         vertex 8.486484e-03 0.000000e+00 1.416087e-03
         vertex 8.486484e-03 9.000000e-03 1.416087e-03
         vertex 8.859583e-03 9.000000e-03 1.821381e-03
      endloop
   endfacet
   facet normal 7.357238e-01 0.000000e+00 -6.772817e-01
      outer loop
         vertex 8.486484e-03 0.000000e+00 1.416087e-03
         vertex 8.859583e-03 9.000000e-03 1.821381e-03
         vertex 8.859583e-03 0.000000e+00 1.821381e-03
      endloop
   endfacet
   facet normal 8.057651e-01 0.000000e+00 -5.922353e-01
      outer loop
         vertex 8.859583e-03 0.000000e+00 1.821381e-03
         vertex 8.859583e-03 9.000000e-03 1.821381e-03
         vertex 9.185832e-03 9.000000e-03 2.265259e-03
      endloop
   endfacet
   facet normal 8.057651e-01 0.000000e+00 -5.922353e-01
      outer loop
         vertex 8.859583e-03 0.000000e+00 1.821381e-03
         vertex 9.185832e-03 9.000000e-03 2.265259e-03
         vertex 9.185832e-03 0.000000e+00 2.265259e-03
      endloop
   endfacet
   facet normal 8.660255e-01 0.000000e+00 -4.999998e-01
      outer loop
         vertex 9.185832e-03 0.000000e+00 2.265259e-03
         vertex 9.185832e-03 9.000000e-03 2.265259e-03
         vertex 9.461271e-03 9.000000e-03 2.742333e-03
      endloop
   endfacet
   facet normal 8.660255e-01 0.000000e+00 -4.999998e-01
      outer loop
         vertex 9.185832e-03 0.000000e+00 2.265259e-03
         vertex 9.461271e-03 9.000000e-03 2.742333e-03
         vertex 9.461271e-03 0.000000e+00 2.742333e-03
      endloop
   endfacet
   facet normal 9.157733e-01 0.000000e+00 -4.016954e-01
      outer loop
         vertex 9.461271e-03 0.000000e+00 2.742333e-03
         vertex 9.461271e-03 9.000000e-03 2.742333e-03
         vertex 9.682556e-03 9.000000e-03 3.246812e-03
      endloop
   endfacet
   facet normal 9.157733e-01 0.000000e+00 -4.016954e-01
      outer loop
         vertex 9.461271e-03 0.000000e+00 2.742333e-03
         vertex 9.682556e-03 9.000000e-03 3.246812e-03
         vertex 9.682556e-03 0.000000e+00 3.246812e-03
      endloop
   endfacet
   facet normal 9.544051e-01 0.000000e+00 -2.985146e-01
      outer loop
         vertex 9.682556e-03 0.000000e+00 3.246812e-03
         vertex 9.682556e-03 9.000000e-03 3.246812e-03
         vertex 9.847001e-03 9.000000e-03 3.772572e-03
      endloop
   endfacet
   facet normal 9.544051e-01 0.000000e+00 -2.985146e-01
      outer loop
         vertex 9.682556e-03 0.000000e+00 3.246812e-03
         vertex 9.847001e-03 9.000000e-03 3.772572e-03
         vertex 9.847001e-03 0.000000e+00 3.772572e-03
      endloop
   endfacet
   facet normal 9.814515e-01 0.000000e+00 -1.917108e-01
      outer loop
         vertex 9.847001e-03 0.000000e+00 3.772572e-03
         vertex 9.847001e-03 9.000000e-03 3.772572e-03
         vertex 9.952610e-03 9.000000e-03 4.313232e-03
      endloop
   endfacet
   facet normal 9.814515e-01 0.000000e+00 -1.917108e-01
      outer loop
         vertex 9.847001e-03 0.000000e+00 3.772572e-03
         vertex 9.952610e-03 9.000000e-03 4.313232e-03
         vertex 9.952610e-03 0.000000e+00 4.313232e-03
      endloop
   endfacet
   facet normal 9.965845e-01 0.000000e+00 -8.257899e-02
      outer loop
         vertex 9.952610e-03 0.000000e+00 4.313232e-03
         vertex 9.952610e-03 9.000000e-03 4.313232e-03
         vertex 9.998101e-03 9.000000e-03 4.862228e-03
      endloop
   endfacet
   facet normal 9.965845e-01 0.000000e+00 -8.257899e-02
      outer loop
         vertex 9.952610e-03 0.000000e+00 4.313232e-03
         vertex 9.998101e-03 9.000000e-03 4.862228e-03
         vertex 9.998101e-03 0.000000e+00 4.862228e-03
      endloop
   endfacet
   facet normal 9.996203e-01 -0.000000e+00 2.755366e-02
      outer loop
         vertex 9.998101e-03 0.000000e+00 4.862228e-03
         vertex 9.998101e-03 9.000000e-03 4.862228e-03
         vertex 9.982923e-03 9.000000e-03 5.412897e-03
      endloop
   endfacet
   facet normal 9.996203e-01 0.000000e+00 2.755366e-02
      outer loop
         vertex 9.998101e-03 0.000000e+00 4.862228e-03
         vertex 9.982923e-03 9.000000e-03 5.412897e-03
         vertex 9.982923e-03 0.000000e+00 5.412897e-03
      endloop
   endfacet
   facet normal 9.905220e-01 -0.000000e+00 1.373541e-01
      outer loop
         vertex 9.982923e-03 0.000000e+00 5.412897e-03
         vertex 9.982923e-03 9.000000e-03 5.412897e-03
         vertex 9.907257e-03 9.000000e-03 5.958553e-03
      endloop
   endfacet
   facet normal 9.905220e-01 0.000000e+00 1.373541e-01
      outer loop
         vertex 9.982923e-03 0.000000e+00 5.412897e-03
         vertex 9.907257e-03 9.000000e-03 5.958553e-03
         vertex 9.907257e-03 0.000000e+00 5.958553e-03
      endloop
   endfacet
   facet normal 9.694004e-01 -0.000000e+00 2.454851e-01
      outer loop
         vertex 9.907257e-03 0.000000e+00 5.958553e-03
         vertex 9.907257e-03 9.000000e-03 5.958553e-03
         vertex 9.772025e-03 9.000000e-03 6.492574e-03
      endloop
   endfacet
   facet normal 9.694004e-01 0.000000e+00 2.454851e-01
      outer loop
         vertex 9.907257e-03 0.000000e+00 5.958553e-03
         vertex 9.772025e-03 9.000000e-03 6.492574e-03
         vertex 9.772025e-03 0.000000e+00 6.492574e-03
      endloop
   endfacet
   facet normal 9.365111e-01 -0.000000e+00 3.506379e-01
      outer loop
         vertex 9.772025e-03 0.000000e+00 6.492574e-03
         vertex 9.772025e-03 9.000000e-03 6.492574e-03
         vertex 9.578866e-03 9.000000e-03 7.008477e-03
      endloop
   endfacet
   facet normal 9.365111e-01 0.000000e+00 3.506379e-01
      outer loop
         vertex 9.772025e-03 0.000000e+00 6.492574e-03
         vertex 9.578866e-03 9.000000e-03 7.008477e-03
         vertex 9.578866e-03 0.000000e+00 7.008477e-03
      endloop
   endfacet
   facet normal 8.922543e-01 -0.000000e+00 4.515333e-01
      outer loop
         vertex 9.578866e-03 0.000000e+00 7.008477e-03
         vertex 9.578866e-03 9.000000e-03 7.008477e-03
         vertex 9.330127e-03 9.000000e-03 7.500000e-03
      endloop
   endfacet
   facet normal 8.922543e-01 0.000000e+00 4.515333e-01
      outer loop
         vertex 9.578866e-03 0.000000e+00 7.008477e-03
         vertex 9.330127e-03 9.000000e-03 7.500000e-03
         vertex 9.330127e-03 0.000000e+00 7.500000e-03
      endloop
   endfacet
   facet normal 8.371665e-01 -0.000000e+00 5.469481e-01
      outer loop
         vertex 9.330127e-03 0.000000e+00 7.500000e-03
         vertex 9.330127e-03 9.000000e-03 7.500000e-03
         vertex 9.028825e-03 9.000000e-03 7.961176e-03
      endloop
   endfacet
   facet normal 8.371665e-01 0.000000e+00 5.469481e-01
      outer loop
         vertex 9.330127e-03 0.000000e+00 7.500000e-03
         vertex 9.028825e-03 9.000000e-03 7.961176e-03
         vertex 9.028825e-03 0.000000e+00 7.961176e-03
      endloop
   endfacet
   facet normal 7.719167e-01 -0.000000e+00 6.357237e-01
      outer loop
         vertex 9.028825e-03 0.000000e+00 7.961176e-03
         vertex 9.028825e-03 9.000000e-03 7.961176e-03
         vertex 8.678620e-03 9.000000e-03 8.386408e-03
      endloop
   endfacet
   facet normal 7.719167e-01 0.000000e+00 6.357237e-01
      outer loop
         vertex 9.028825e-03 0.000000e+00 7.961176e-03
         vertex 8.678620e-03 9.000000e-03 8.386408e-03
         vertex 8.678620e-03 0.000000e+00 8.386408e-03
      endloop
   endfacet
   facet normal 6.972966e-01 -0.000000e+00 7.167827e-01
      outer loop
         vertex 8.678620e-03 0.000000e+00 8.386408e-03
         vertex 8.678620e-03 9.000000e-03 8.386408e-03
         vertex 8.283760e-03 9.000000e-03 8.770533e-03
      endloop
   endfacet
   facet normal 6.972966e-01 0.000000e+00 7.167827e-01
      outer loop
         vertex 8.678620e-03 0.000000e+00 8.386408e-03
         vertex 8.283760e-03 9.000000e-03 8.770533e-03
         vertex 8.283760e-03 0.000000e+00 8.770533e-03
      endloop
   endfacet
   facet normal 6.142128e-01 -0.000000e+00 7.891404e-01
      outer loop
         vertex 8.283760e-03 0.000000e+00 8.770533e-03
         vertex 8.283760e-03 9.000000e-03 8.770533e-03
         vertex 7.849040e-03 9.000000e-03 9.108889e-03
      endloop
   endfacet
   facet normal 6.142128e-01 0.000000e+00 7.891404e-01
      outer loop
         vertex 8.283760e-03 0.000000e+00 8.770533e-03
         vertex 7.849040e-03 9.000000e-03 9.108889e-03
         vertex 7.849040e-03 0.000000e+00 9.108889e-03
      endloop
   endfacet
   facet normal 5.236726e-01 -0.000000e+00 8.519196e-01
      outer loop
         vertex 7.849040e-03 0.000000e+00 9.108889e-03
         vertex 7.849040e-03 9.000000e-03 9.108889e-03
         vertex 7.379737e-03 9.000000e-03 9.397368e-03
      endloop
   endfacet
   facet normal 5.236726e-01 0.000000e+00 8.519196e-01
      outer loop
         vertex 7.849040e-03 0.000000e+00 9.108889e-03
         vertex 7.379737e-03 9.000000e-03 9.397368e-03
         vertex 7.379737e-03 0.000000e+00 9.397368e-03
      endloop
   endfacet
   facet normal 4.267766e-01 -0.000000e+00 9.043571e-01
      outer loop
         vertex 7.379737e-03 0.000000e+00 9.397368e-03
         vertex 7.379737e-03 9.000000e-03 9.397368e-03
         vertex 6.881547e-03 9.000000e-03 9.632470e-03
      endloop
   endfacet
   facet normal 4.267766e-01 0.000000e+00 9.043571e-01
      outer loop
         vertex 7.379737e-03 0.000000e+00 9.397368e-03
         vertex 6.881547e-03 9.000000e-03 9.632470e-03
         vertex 6.881547e-03 0.000000e+00 9.632470e-03
      endloop
   endfacet
   facet normal 3.246998e-01 -0.000000e+00 9.458171e-01
      outer loop
         vertex 6.881547e-03 0.000000e+00 9.632470e-03
         vertex 6.881547e-03 9.000000e-03 9.632470e-03
         vertex 6.360517e-03 9.000000e-03 9.811340e-03
      endloop
   endfacet
   facet normal 3.246998e-01 0.000000e+00 9.458171e-01
      outer loop
         vertex 6.881547e-03 0.000000e+00 9.632470e-03
         vertex 6.360517e-03 9.000000e-03 9.811340e-03
         vertex 6.360517e-03 0.000000e+00 9.811340e-03
      endloop
   endfacet
   facet normal 2.186812e-01 -0.000000e+00 9.757964e-01
      outer loop
         vertex 6.360517e-03 0.000000e+00 9.811340e-03
         vertex 6.360517e-03 9.000000e-03 9.811340e-03
         vertex 5.822973e-03 9.000000e-03 9.931806e-03
      endloop
   endfacet
   facet normal 2.186812e-01 0.000000e+00 9.757964e-01
      outer loop
         vertex 6.360517e-03 0.000000e+00 9.811340e-03
         vertex 5.822973e-03 9.000000e-03 9.931806e-03
         vertex 5.822973e-03 0.000000e+00 9.931806e-03
      endloop
   endfacet
   facet normal 1.100084e-01 -0.000000e+00 9.939307e-01
      outer loop
         vertex 5.822973e-03 0.000000e+00 9.931806e-03
         vertex 5.822973e-03 9.000000e-03 9.931806e-03
         vertex 5.275439e-03 9.000000e-03 9.992408e-03
      endloop
   endfacet
   facet normal 1.100084e-01 0.000000e+00 9.939307e-01
      outer loop
         vertex 5.822973e-03 0.000000e+00 9.931806e-03
         vertex 5.275439e-03 9.000000e-03 9.992408e-03
         vertex 5.275439e-03 0.000000e+00 9.992408e-03
      endloop
   endfacet
   facet normal 2.755334e-02 -0.000000e+00 9.996203e-01
      outer loop
         vertex 5.275439e-03 0.000000e+00 9.992408e-03
         vertex 5.275439e-03 9.000000e-03 9.992408e-03
         vertex 5.000000e-03 0.000000e+00 1.000000e-02
      endloop
   endfacet
   facet normal 0.000000e+00 1.000000e+00 0.000000e+00
      outer loop
         vertex 5.000000e-03 9.000000e-03 1.000000e-02
         vertex 5.275439e-03 9.000000e-03 9.992408e-03
         vertex 5.000000e-03 9.000000e-03 5.000000e-03
      endloop
   endfacet
   facet normal -0.000000e+00 1.000000e+00 0.000000e+00
      outer loop
         vertex 3.639483e-03 9.000000e-03 9.811340e-03
         vertex 4.177027e-03 9.000000e-03 9.931806e-03
         vertex 5.000000e-03 9.000000e-03 5.000000e-03
      endloop
   endfacet
   facet normal 0.000000e+00 1.000000e+00 0.000000e+00
      outer loop
         vertex 5.000000e-03 9.000000e-03 5.000000e-03
         vertex 4.177027e-03 9.000000e-03 9.931806e-03
         vertex 4.724561e-03 9.000000e-03 9.992408e-03
      endloop
   endfacet
   facet normal 0.000000e+00 1.000000e+00 -0.000000e+00
      outer loop
         vertex 5.000000e-03 9.000000e-03 5.000000e-03
         vertex 4.724561e-03 9.000000e-03 9.992408e-03
         vertex 5.000000e-03 9.000000e-03 1.000000e-02
      endloop
   endfacet
   facet normal -0.000000e+00 1.000000e+00 0.000000e+00
      outer loop
         vertex 2.150960e-03 9.000000e-03 9.108889e-03
         vertex 2.620263e-03 9.000000e-03 9.397368e-03
         vertex 5.000000e-03 9.000000e-03 5.000000e-03
      endloop
   endfacet
   facet normal 0.000000e+00 1.000000e+00 0.000000e+00
      outer loop
         vertex 5.000000e-03 9.000000e-03 5.000000e-03
         vertex 2.620263e-03 9.000000e-03 9.397368e-03
         vertex 3.118453e-03 9.000000e-03 9.632470e-03
      endloop
   endfacet
   facet normal 0.000000e+00 1.000000e+00 0.000000e+00
      outer loop
         vertex 5.000000e-03 9.000000e-03 5.000000e-03
         vertex 3.118453e-03 9.000000e-03 9.632470e-03
         vertex 3.639483e-03 9.000000e-03 9.811340e-03
      endloop
   endfacet
   facet normal -0.000000e+00 1.000000e+00 0.000000e+00
      outer loop
         vertex 9.711743e-04 9.000000e-03 7.961176e-03
         vertex 1.321380e-03 9.000000e-03 8.386408e-03
         vertex 5.000000e-03 9.000000e-03 5.000000e-03
      endloop
   endfacet
   facet normal 0.000000e+00 1.000000e+00 0.000000e+00
      outer loop
         vertex 5.000000e-03 9.000000e-03 5.000000e-03
         vertex 1.321380e-03 9.000000e-03 8.386408e-03
         vertex 1.716240e-03 9.000000e-03 8.770533e-03
      endloop
   endfacet
   facet normal 0.000000e+00 1.000000e+00 0.000000e+00
      outer loop
         vertex 5.000000e-03 9.000000e-03 5.000000e-03
         vertex 1.716240e-03 9.000000e-03 8.770533e-03
         vertex 2.150960e-03 9.000000e-03 9.108889e-03
      endloop
   endfacet
   facet normal -0.000000e+00 1.000000e+00 0.000000e+00
      outer loop
         vertex 2.279747e-04 9.000000e-03 6.492574e-03
         vertex 4.211334e-04 9.000000e-03 7.008477e-03
         vertex 5.000000e-03 9.000000e-03 5.000000e-03
      endloop
   endfacet
   facet normal 0.000000e+00 1.000000e+00 0.000000e+00
      outer loop
         vertex 5.000000e-03 9.000000e-03 5.000000e-03
         vertex 4.211334e-04 9.000000e-03 7.008477e-03
         vertex 6.698729e-04 9.000000e-03 7.500000e-03
      endloop
   endfacet
   facet normal 0.000000e+00 1.000000e+00 0.000000e+00
      outer loop
         vertex 5.000000e-03 9.000000e-03 5.000000e-03
         vertex 6.698729e-04 9.000000e-03 7.500000e-03
         vertex 9.711743e-04 9.000000e-03 7.961176e-03
      endloop
   endfacet
   facet normal 0.000000e+00 1.000000e+00 0.000000e+00
      outer loop
         vertex 1.898501e-06 9.000000e-03 4.862228e-03
         vertex 1.707720e-05 9.000000e-03 5.412897e-03
         vertex 5.000000e-03 9.000000e-03 5.000000e-03
      endloop
   endfacet
   facet normal 0.000000e+00 1.000000e+00 0.000000e+00
      outer loop
         vertex 5.000000e-03 9.000000e-03 5.000000e-03
         vertex 1.707720e-05 9.000000e-03 5.412897e-03
         vertex 9.274250e-05 9.000000e-03 5.958553e-03
      endloop
   endfacet
   facet normal 0.000000e+00 1.000000e+00 0.000000e+00
      outer loop
         vertex 5.000000e-03 9.000000e-03 5.000000e-03
         vertex 9.274250e-05 9.000000e-03 5.958553e-03
         vertex 2.279747e-04 9.000000e-03 6.492574e-03
      endloop
   endfacet
   facet normal 0.000000e+00 1.000000e+00 -0.000000e+00
      outer loop
         vertex 3.174436e-04 9.000000e-03 3.246812e-03
         vertex 1.529986e-04 9.000000e-03 3.772572e-03
         vertex 5.000000e-03 9.000000e-03 5.000000e-03
      endloop
   endfacet
   facet normal 0.000000e+00 1.000000e+00 0.000000e+00
      outer loop
         vertex 5.000000e-03 9.000000e-03 5.000000e-03
         vertex 1.529986e-04 9.000000e-03 3.772572e-03
         vertex 4.738942e-05 9.000000e-03 4.313232e-03
      endloop
   endfacet
   facet normal 0.000000e+00 1.000000e+00 0.000000e+00
      outer loop
         vertex 5.000000e-03 9.000000e-03 5.000000e-03
         vertex 4.738942e-05 9.000000e-03 4.313232e-03
         vertex 1.898501e-06 9.000000e-03 4.862228e-03
      endloop
   endfacet
   facet normal 0.000000e+00 1.000000e+00 -0.000000e+00
      outer loop
         vertex 1.140417e-03 9.000000e-03 1.821381e-03
         vertex 8.141673e-04 9.000000e-03 2.265259e-03
         vertex 5.000000e-03 9.000000e-03 5.000000e-03
      endloop
   endfacet
   facet normal 0.000000e+00 1.000000e+00 0.000000e+00
      outer loop
         vertex 5.000000e-03 9.000000e-03 5.000000e-03
         vertex 8.141673e-04 9.000000e-03 2.265259e-03
         vertex 5.387287e-04 9.000000e-03 2.742333e-03
      endloop
   endfacet
   facet normal 0.000000e+00 1.000000e+00 0.000000e+00
      outer loop
         vertex 5.000000e-03 9.000000e-03 5.000000e-03
         vertex 5.387287e-04 9.000000e-03 2.742333e-03
         vertex 3.174436e-04 9.000000e-03 3.246812e-03
      endloop
   endfacet
   facet normal 0.000000e+00 1.000000e+00 -0.000000e+00
      outer loop
         vertex 2.381635e-03 9.000000e-03 7.404028e-04
         vertex 1.928936e-03 9.000000e-03 1.054297e-03
         vertex 5.000000e-03 9.000000e-03 5.000000e-03
      endloop
   endfacet
   facet normal 0.000000e+00 1.000000e+00 0.000000e+00
      outer loop
         vertex 5.000000e-03 9.000000e-03 5.000000e-03
         vertex 1.928936e-03 9.000000e-03 1.054297e-03
         vertex 1.513516e-03 9.000000e-03 1.416087e-03
      endloop
   endfacet
   facet normal 0.000000e+00 1.000000e+00 0.000000e+00
      outer loop
         vertex 5.000000e-03 9.000000e-03 5.000000e-03
         vertex 1.513516e-03 9.000000e-03 1.416087e-03
         vertex 1.140417e-03 9.000000e-03 1.821381e-03
      endloop
   endfacet
   facet normal 0.000000e+00 1.000000e+00 -0.000000e+00
      outer loop
         vertex 3.906594e-03 9.000000e-03 1.210179e-04
         vertex 3.376503e-03 9.000000e-03 2.709138e-04
         vertex 5.000000e-03 9.000000e-03 5.000000e-03
      endloop
   endfacet
   facet normal 0.000000e+00 1.000000e+00 0.000000e+00
      outer loop
         vertex 5.000000e-03 9.000000e-03 5.000000e-03
         vertex 3.376503e-03 9.000000e-03 2.709138e-04
         vertex 2.866118e-03 9.000000e-03 4.782141e-04
      endloop
   endfacet
   facet normal 0.000000e+00 1.000000e+00 0.000000e+00
      outer loop
         vertex 5.000000e-03 9.000000e-03 5.000000e-03
         vertex 2.866118e-03 9.000000e-03 4.782141e-04
         vertex 2.381635e-03 9.000000e-03 7.404028e-04
      endloop
   endfacet
   facet normal 0.000000e+00 1.000000e+00 0.000000e+00
      outer loop
         vertex 5.550041e-03 9.000000e-03 3.034668e-05
         vertex 5.000000e-03 9.000000e-03 0.000000e+00
         vertex 5.000000e-03 9.000000e-03 5.000000e-03
      endloop
   endfacet
   facet normal 0.000000e+00 1.000000e+00 0.000000e+00
      outer loop
         vertex 5.000000e-03 9.000000e-03 5.000000e-03
         vertex 5.000000e-03 9.000000e-03 0.000000e+00
         vertex 4.449959e-03 9.000000e-03 3.034668e-05
      endloop
   endfacet
   facet normal 0.000000e+00 1.000000e+00 0.000000e+00
      outer loop
         vertex 5.000000e-03 9.000000e-03 5.000000e-03
         vertex 4.449959e-03 9.000000e-03 3.034668e-05
         vertex 3.906594e-03 9.000000e-03 1.210179e-04
      endloop
   endfacet
   facet normal 0.000000e+00 1.000000e+00 0.000000e+00
      outer loop
         vertex 7.133882e-03 9.000000e-03 4.782141e-04
         vertex 6.623497e-03 9.000000e-03 2.709138e-04
         vertex 5.000000e-03 9.000000e-03 5.000000e-03
      endloop
   endfacet
   facet normal 0.000000e+00 1.000000e+00 0.000000e+00
      outer loop
         vertex 5.000000e-03 9.000000e-03 5.000000e-03
         vertex 6.623497e-03 9.000000e-03 2.709138e-04
         vertex 6.093405e-03 9.000000e-03 1.210179e-04
      endloop
   endfacet
   facet normal 0.000000e+00 1.000000e+00 0.000000e+00
      outer loop
         vertex 5.000000e-03 9.000000e-03 5.000000e-03
         vertex 6.093405e-03 9.000000e-03 1.210179e-04
         vertex 5.550041e-03 9.000000e-03 3.034668e-05
      endloop
   endfacet
   facet normal 0.000000e+00 1.000000e+00 0.000000e+00
      outer loop
         vertex 8.486484e-03 9.000000e-03 1.416087e-03
         vertex 8.071064e-03 9.000000e-03 1.054297e-03
         vertex 5.000000e-03 9.000000e-03 5.000000e-03
      endloop
   endfacet
   facet normal 0.000000e+00 1.000000e+00 0.000000e+00
      outer loop
         vertex 5.000000e-03 9.000000e-03 5.000000e-03
         vertex 8.071064e-03 9.000000e-03 1.054297e-03
         vertex 7.618364e-03 9.000000e-03 7.404028e-04
      endloop
   endfacet
   facet normal 0.000000e+00 1.000000e+00 0.000000e+00
      outer loop
         vertex 5.000000e-03 9.000000e-03 5.000000e-03
         vertex 7.618364e-03 9.000000e-03 7.404028e-04
         vertex 7.133882e-03 9.000000e-03 4.782141e-04
      endloop
   endfacet
   facet normal 0.000000e+00 1.000000e+00 0.000000e+00
      outer loop
         vertex 9.461271e-03 9.000000e-03 2.742333e-03
         vertex 9.185832e-03 9.000000e-03 2.265259e-03
         vertex 5.000000e-03 9.000000e-03 5.000000e-03
      endloop
   endfacet
   facet normal 0.000000e+00 1.000000e+00 0.000000e+00
      outer loop
         vertex 5.000000e-03 9.000000e-03 5.000000e-03
         vertex 9.185832e-03 9.000000e-03 2.265259e-03
         vertex 8.859583e-03 9.000000e-03 1.821381e-03
      endloop
   endfacet
   facet normal 0.000000e+00 1.000000e+00 0.000000e+00
      outer loop
         vertex 5.000000e-03 9.000000e-03 5.000000e-03
         vertex 8.859583e-03 9.000000e-03 1.821381e-03
         vertex 8.486484e-03 9.000000e-03 1.416087e-03
      endloop
   endfacet
   facet normal 0.000000e+00 1.000000e+00 0.000000e+00
      outer loop
         vertex 9.952610e-03 9.000000e-03 4.313232e-03
         vertex 9.847001e-03 9.000000e-03 3.772572e-03
         vertex 5.000000e-03 9.000000e-03 5.000000e-03
      endloop
   endfacet
   facet normal 0.000000e+00 1.000000e+00 0.000000e+00
      outer loop
         vertex 5.000000e-03 9.000000e-03 5.000000e-03
         vertex 9.847001e-03 9.000000e-03 3.772572e-03
         vertex 9.682556e-03 9.000000e-03 3.246812e-03
      endloop
   endfacet
   facet normal 0.000000e+00 1.000000e+00 0.000000e+00
      outer loop
         vertex 5.000000e-03 9.000000e-03 5.000000e-03
         vertex 9.682556e-03 9.000000e-03 3.246812e-03
         vertex 9.461271e-03 9.000000e-03 2.742333e-03
      endloop
   endfacet
   facet normal 0.000000e+00 1.000000e+00 0.000000e+00
      outer loop
         vertex 9.907257e-03 9.000000e-03 5.958553e-03
         vertex 9.982923e-03 9.000000e-03 5.412897e-03
         vertex 5.000000e-03 9.000000e-03 5.000000e-03
      endloop
   endfacet
   facet normal -0.000000e+00 1.000000e+00 0.000000e+00
      outer loop
         vertex 5.000000e-03 9.000000e-03 5.000000e-03
         vertex 9.982923e-03 9.000000e-03 5.412897e-03
         vertex 9.998101e-03 9.000000e-03 4.862228e-03
      endloop
   endfacet
   facet normal 0.000000e+00 1.000000e+00 0.000000e+00
      outer loop
         vertex 5.000000e-03 9.000000e-03 5.000000e-03
         vertex 9.998101e-03 9.000000e-03 4.862228e-03
         vertex 9.952610e-03 9.000000e-03 4.313232e-03
      endloop
   endfacet
   facet normal 0.000000e+00 1.000000e+00 0.000000e+00
      outer loop
         vertex 9.330127e-03 9.000000e-03 7.500000e-03
         vertex 9.578866e-03 9.000000e-03 7.008477e-03
         vertex 5.000000e-03 9.000000e-03 5.000000e-03
      endloop
   endfacet
   facet normal 0.000000e+00 1.000000e+00 0.000000e+00
      outer loop
         vertex 5.000000e-03 9.000000e-03 5.000000e-03
         vertex 9.578866e-03 9.000000e-03 7.008477e-03
         vertex 9.772025e-03 9.000000e-03 6.492574e-03
      endloop
   endfacet
   facet normal 0.000000e+00 1.000000e+00 0.000000e+00
      outer loop
         vertex 5.000000e-03 9.000000e-03 5.000000e-03
         vertex 9.772025e-03 9.000000e-03 6.492574e-03
         vertex 9.907257e-03 9.000000e-03 5.958553e-03
      endloop
   endfacet
   facet normal 0.000000e+00 1.000000e+00 0.000000e+00
      outer loop
         vertex 8.283760e-03 9.000000e-03 8.770533e-03
         vertex 8.678620e-03 9.000000e-03 8.386408e-03
         vertex 5.000000e-03 9.000000e-03 5.000000e-03
      endloop
   endfacet
   facet normal 0.000000e+00 1.000000e+00 0.000000e+00
      outer loop
         vertex 5.000000e-03 9.000000e-03 5.000000e-03
         vertex 8.678620e-03 9.000000e-03 8.386408e-03
         vertex 9.028825e-03 9.000000e-03 7.961176e-03
      endloop
   endfacet
   facet normal 0.000000e+00 1.000000e+00 0.000000e+00
      outer loop
         vertex 5.000000e-03 9.000000e-03 5.000000e-03
         vertex 9.028825e-03 9.000000e-03 7.961176e-03
         vertex 9.330127e-03 9.000000e-03 7.500000e-03
      endloop
   endfacet
   facet normal 0.000000e+00 1.000000e+00 0.000000e+00
      outer loop
         vertex 6.881547e-03 9.000000e-03 9.632470e-03
         vertex 7.379737e-03 9.000000e-03 9.397368e-03
         vertex 5.000000e-03 9.000000e-03 5.000000e-03
      endloop
   endfacet
   facet normal 0.000000e+00 1.000000e+00 0.000000e+00
      outer loop
         vertex 5.000000e-03 9.000000e-03 5.000000e-03
         vertex 7.379737e-03 9.000000e-03 9.397368e-03
         vertex 7.849040e-03 9.000000e-03 9.108889e-03
      endloop
   endfacet
   facet normal 0.000000e+00 1.000000e+00 0.000000e+00
      outer loop
         vertex 5.000000e-03 9.000000e-03 5.000000e-03
         vertex 7.849040e-03 9.000000e-03 9.108889e-03
         vertex 8.283760e-03 9.000000e-03 8.770533e-03
      endloop
   endfacet
   facet normal 0.000000e+00 1.000000e+00 0.000000e+00
      outer loop
         vertex 5.275439e-03 9.000000e-03 9.992408e-03
         vertex 5.822973e-03 9.000000e-03 9.931806e-03
         vertex 5.000000e-03 9.000000e-03 5.000000e-03
      endloop
   endfacet
   facet normal 0.000000e+00 1.000000e+00 0.000000e+00
      outer loop
         vertex 5.000000e-03 9.000000e-03 5.000000e-03
         vertex 5.822973e-03 9.000000e-03 9.931806e-03
         vertex 6.360517e-03 9.000000e-03 9.811340e-03
      endloop
   endfacet
   facet normal 0.000000e+00 1.000000e+00 0.000000e+00
      outer loop
         vertex 5.000000e-03 9.000000e-03 5.000000e-03
         vertex 6.360517e-03 9.000000e-03 9.811340e-03
         vertex 6.881547e-03 9.000000e-03 9.632470e-03
      endloop
   endfacet
   facet normal 0.000000e+00 -1.000000e+00 0.000000e+00
      outer loop
         vertex 5.000000e-03 0.000000e+00 1.000000e-02
         vertex 4.724561e-03 0.000000e+00 9.992408e-03
         vertex 5.000000e-03 0.000000e+00 5.000000e-03
      endloop
   endfacet
   facet normal -0.000000e+00 -1.000000e+00 0.000000e+00
      outer loop
         vertex 6.360517e-03 0.000000e+00 9.811340e-03
         vertex 5.822973e-03 0.000000e+00 9.931806e-03
         vertex 5.000000e-03 0.000000e+00 5.000000e-03
      endloop
   endfacet
   facet normal 0.000000e+00 -1.000000e+00 0.000000e+00
      outer loop
         vertex 5.000000e-03 0.000000e+00 5.000000e-03
         vertex 5.822973e-03 0.000000e+00 9.931806e-03
         vertex 5.275439e-03 0.000000e+00 9.992408e-03
      endloop
   endfacet
   facet normal 0.000000e+00 -1.000000e+00 0.000000e+00
      outer loop
         vertex 5.000000e-03 0.000000e+00 5.000000e-03
         vertex 5.275439e-03 0.000000e+00 9.992408e-03
         vertex 5.000000e-03 0.000000e+00 1.000000e-02
      endloop
   endfacet
   facet normal -0.000000e+00 -1.000000e+00 0.000000e+00
      outer loop
         vertex 7.849040e-03 0.000000e+00 9.108889e-03
         vertex 7.379737e-03 0.000000e+00 9.397368e-03
         vertex 5.000000e-03 0.000000e+00 5.000000e-03
      endloop
   endfacet
   facet normal 0.000000e+00 -1.000000e+00 0.000000e+00
      outer loop
         vertex 5.000000e-03 0.000000e+00 5.000000e-03
         vertex 7.379737e-03 0.000000e+00 9.397368e-03
         vertex 6.881547e-03 0.000000e+00 9.632470e-03
      endloop
   endfacet
   facet normal 0.000000e+00 -1.000000e+00 0.000000e+00
      outer loop
         vertex 5.000000e-03 0.000000e+00 5.000000e-03
         vertex 6.881547e-03 0.000000e+00 9.632470e-03
         vertex 6.360517e-03 0.000000e+00 9.811340e-03
      endloop
   endfacet
   facet normal -0.000000e+00 -1.000000e+00 0.000000e+00
      outer loop
         vertex 9.028825e-03 0.000000e+00 7.961176e-03
         vertex 8.678620e-03 0.000000e+00 8.386408e-03
         vertex 5.000000e-03 0.000000e+00 5.000000e-03
      endloop
   endfacet
   facet normal 0.000000e+00 -1.000000e+00 0.000000e+00
      outer loop
         vertex 5.000000e-03 0.000000e+00 5.000000e-03
         vertex 8.678620e-03 0.000000e+00 8.386408e-03
         vertex 8.283760e-03 0.000000e+00 8.770533e-03
      endloop
   endfacet
   facet normal 0.000000e+00 -1.000000e+00 0.000000e+00
      outer loop
         vertex 5.000000e-03 0.000000e+00 5.000000e-03
         vertex 8.283760e-03 0.000000e+00 8.770533e-03
         vertex 7.849040e-03 0.000000e+00 9.108889e-03
      endloop
   endfacet
   facet normal -0.000000e+00 -1.000000e+00 0.000000e+00
      outer loop
         vertex 9.772025e-03 0.000000e+00 6.492574e-03
         vertex 9.578866e-03 0.000000e+00 7.008477e-03
         vertex 5.000000e-03 0.000000e+00 5.000000e-03
      endloop
   endfacet
   facet normal 0.000000e+00 -1.000000e+00 0.000000e+00
      outer loop
         vertex 5.000000e-03 0.000000e+00 5.000000e-03
         vertex 9.578866e-03 0.000000e+00 7.008477e-03
         vertex 9.330127e-03 0.000000e+00 7.500000e-03
      endloop
   endfacet
   facet normal 0.000000e+00 -1.000000e+00 0.000000e+00
      outer loop
         vertex 5.000000e-03 0.000000e+00 5.000000e-03
         vertex 9.330127e-03 0.000000e+00 7.500000e-03
         vertex 9.028825e-03 0.000000e+00 7.961176e-03
      endloop
   endfacet
   facet normal 0.000000e+00 -1.000000e+00 0.000000e+00
      outer loop
         vertex 9.998101e-03 0.000000e+00 4.862228e-03
         vertex 9.982923e-03 0.000000e+00 5.412897e-03
         vertex 5.000000e-03 0.000000e+00 5.000000e-03
      endloop
   endfacet
   facet normal 0.000000e+00 -1.000000e+00 0.000000e+00
      outer loop
         vertex 5.000000e-03 0.000000e+00 5.000000e-03
         vertex 9.982923e-03 0.000000e+00 5.412897e-03
         vertex 9.907257e-03 0.000000e+00 5.958553e-03
      endloop
   endfacet
   facet normal 0.000000e+00 -1.000000e+00 0.000000e+00
      outer loop
         vertex 5.000000e-03 0.000000e+00 5.000000e-03
         vertex 9.907257e-03 0.000000e+00 5.958553e-03
         vertex 9.772025e-03 0.000000e+00 6.492574e-03
      endloop
   endfacet
   facet normal 0.000000e+00 -1.000000e+00 0.000000e+00
      outer loop
         vertex 9.682556e-03 0.000000e+00 3.246812e-03
         vertex 9.847001e-03 0.000000e+00 3.772572e-03
         vertex 5.000000e-03 0.000000e+00 5.000000e-03
      endloop
   endfacet
   facet normal 0.000000e+00 -1.000000e+00 0.000000e+00
      outer loop
         vertex 5.000000e-03 0.000000e+00 5.000000e-03
         vertex 9.847001e-03 0.000000e+00 3.772572e-03
         vertex 9.952610e-03 0.000000e+00 4.313232e-03
      endloop
   endfacet
   facet normal 0.000000e+00 -1.000000e+00 0.000000e+00
      outer loop
         vertex 5.000000e-03 0.000000e+00 5.000000e-03
         vertex 9.952610e-03 0.000000e+00 4.313232e-03
         vertex 9.998101e-03 0.000000e+00 4.862228e-03
      endloop
   endfacet
   facet normal 0.000000e+00 -1.000000e+00 0.000000e+00
      outer loop
         vertex 8.859583e-03 0.000000e+00 1.821381e-03
         vertex 9.185832e-03 0.000000e+00 2.265259e-03
         vertex 5.000000e-03 0.000000e+00 5.000000e-03
      endloop
   endfacet
   facet normal 0.000000e+00 -1.000000e+00 0.000000e+00
      outer loop
         vertex 5.000000e-03 0.000000e+00 5.000000e-03
         vertex 9.185832e-03 0.000000e+00 2.265259e-03
         vertex 9.461271e-03 0.000000e+00 2.742333e-03
      endloop
   endfacet
   facet normal 0.000000e+00 -1.000000e+00 0.000000e+00
      outer loop
         vertex 5.000000e-03 0.000000e+00 5.000000e-03
         vertex 9.461271e-03 0.000000e+00 2.742333e-03
         vertex 9.682556e-03 0.000000e+00 3.246812e-03
      endloop
   endfacet
   facet normal 0.000000e+00 -1.000000e+00 0.000000e+00
      outer loop
         vertex 7.618364e-03 0.000000e+00 7.404028e-04
         vertex 8.071064e-03 0.000000e+00 1.054297e-03
         vertex 5.000000e-03 0.000000e+00 5.000000e-03
      endloop
   endfacet
   facet normal 0.000000e+00 -1.000000e+00 0.000000e+00
      outer loop
         vertex 5.000000e-03 0.000000e+00 5.000000e-03
         vertex 8.071064e-03 0.000000e+00 1.054297e-03
         vertex 8.486484e-03 0.000000e+00 1.416087e-03
      endloop
   endfacet
   facet normal 0.000000e+00 -1.000000e+00 0.000000e+00
      outer loop
         vertex 5.000000e-03 0.000000e+00 5.000000e-03
         vertex 8.486484e-03 0.000000e+00 1.416087e-03
         vertex 8.859583e-03 0.000000e+00 1.821381e-03
      endloop
   endfacet
   facet normal 0.000000e+00 -1.000000e+00 0.000000e+00
      outer loop
         vertex 6.093405e-03 0.000000e+00 1.210179e-04
         vertex 6.623497e-03 0.000000e+00 2.709138e-04
         vertex 5.000000e-03 0.000000e+00 5.000000e-03
      endloop
   endfacet
   facet normal 0.000000e+00 -1.000000e+00 0.000000e+00
      outer loop
         vertex 5.000000e-03 0.000000e+00 5.000000e-03
         vertex 6.623497e-03 0.000000e+00 2.709138e-04
         vertex 7.133882e-03 0.000000e+00 4.782141e-04
      endloop
   endfacet
   facet normal 0.000000e+00 -1.000000e+00 0.000000e+00
      outer loop
         vertex 5.000000e-03 0.000000e+00 5.000000e-03
         vertex 7.133882e-03 0.000000e+00 4.782141e-04
         vertex 7.618364e-03 0.000000e+00 7.404028e-04
      endloop
   endfacet
   facet normal 0.000000e+00 -1.000000e+00 0.000000e+00
      outer loop
         vertex 4.449959e-03 0.000000e+00 3.034668e-05
         vertex 5.000000e-03 0.000000e+00 0.000000e+00
         vertex 5.000000e-03 0.000000e+00 5.000000e-03
      endloop
   endfacet
   facet normal 0.000000e+00 -1.000000e+00 0.000000e+00
      outer loop
         vertex 5.000000e-03 0.000000e+00 5.000000e-03
         vertex 5.000000e-03 0.000000e+00 0.000000e+00
         vertex 5.550041e-03 0.000000e+00 3.034668e-05
      endloop
   endfacet
   facet normal 0.000000e+00 -1.000000e+00 0.000000e+00
      outer loop
         vertex 5.000000e-03 0.000000e+00 5.000000e-03
         vertex 5.550041e-03 0.000000e+00 3.034668e-05
         vertex 6.093405e-03 0.000000e+00 1.210179e-04
      endloop
   endfacet
   facet normal 0.000000e+00 -1.000000e+00 0.000000e+00
      outer loop
         vertex 2.866118e-03 0.000000e+00 4.782141e-04
         vertex 3.376503e-03 0.000000e+00 2.709138e-04
         vertex 5.000000e-03 0.000000e+00 5.000000e-03
      endloop
   endfacet
   facet normal 0.000000e+00 -1.000000e+00 0.000000e+00
      outer loop
         vertex 5.000000e-03 0.000000e+00 5.000000e-03
         vertex 3.376503e-03 0.000000e+00 2.709138e-04
         vertex 3.906594e-03 0.000000e+00 1.210179e-04
      endloop
   endfacet
   facet normal 0.000000e+00 -1.000000e+00 0.000000e+00
      outer loop
         vertex 5.000000e-03 0.000000e+00 5.000000e-03
         vertex 3.906594e-03 0.000000e+00 1.210179e-04
         vertex 4.449959e-03 0.000000e+00 3.034668e-05
      endloop
   endfacet
   facet normal 0.000000e+00 -1.000000e+00 0.000000e+00
      outer loop
         vertex 1.513516e-03 0.000000e+00 1.416087e-03
         vertex 1.928936e-03 0.000000e+00 1.054297e-03
         vertex 5.000000e-03 0.000000e+00 5.000000e-03
      endloop
   endfacet
   facet normal 0.000000e+00 -1.000000e+00 0.000000e+00
      outer loop
         vertex 5.000000e-03 0.000000e+00 5.000000e-03
         vertex 1.928936e-03 0.000000e+00 1.054297e-03
         vertex 2.381635e-03 0.000000e+00 7.404028e-04
      endloop
   endfacet
   facet normal 0.000000e+00 -1.000000e+00 0.000000e+00
      outer loop
         vertex 5.000000e-03 0.000000e+00 5.000000e-03
         vertex 2.381635e-03 0.000000e+00 7.404028e-04
         vertex 2.866118e-03 0.000000e+00 4.782141e-04
      endloop
   endfacet
   facet normal 0.000000e+00 -1.000000e+00 0.000000e+00
      outer loop
         vertex 5.387287e-04 0.000000e+00 2.742333e-03
         vertex 8.141673e-04 0.000000e+00 2.265259e-03
         vertex 5.000000e-03 0.000000e+00 5.000000e-03
      endloop
   endfacet
   facet normal 0.000000e+00 -1.000000e+00 0.000000e+00
      outer loop
         vertex 5.000000e-03 0.000000e+00 5.000000e-03
         vertex 8.141673e-04 0.000000e+00 2.265259e-03
         vertex 1.140417e-03 0.000000e+00 1.821381e-03
      endloop
   endfacet
   facet normal 0.000000e+00 -1.000000e+00 0.000000e+00
      outer loop
         vertex 5.000000e-03 0.000000e+00 5.000000e-03
         vertex 1.140417e-03 0.000000e+00 1.821381e-03
         vertex 1.513516e-03 0.000000e+00 1.416087e-03
      endloop
   endfacet
   facet normal 0.000000e+00 -1.000000e+00 0.000000e+00
      outer loop
         vertex 4.738942e-05 0.000000e+00 4.313232e-03
         vertex 1.529986e-04 0.000000e+00 3.772572e-03
         vertex 5.000000e-03 0.000000e+00 5.000000e-03
      endloop
   endfacet
   facet normal 0.000000e+00 -1.000000e+00 0.000000e+00
      outer loop
         vertex 5.000000e-03 0.000000e+00 5.000000e-03
         vertex 1.529986e-04 0.000000e+00 3.772572e-03
         vertex 3.174436e-04 0.000000e+00 3.246812e-03
      endloop
   endfacet
   facet normal 0.000000e+00 -1.000000e+00 0.000000e+00
      outer loop
         vertex 5.000000e-03 0.000000e+00 5.000000e-03
         vertex 3.174436e-04 0.000000e+00 3.246812e-03
         vertex 5.387287e-04 0.000000e+00 2.742333e-03
      endloop
   endfacet
   facet normal 0.000000e+00 -1.000000e+00 -0.000000e+00
      outer loop
         vertex 9.274250e-05 0.000000e+00 5.958553e-03
         vertex 1.707720e-05 0.000000e+00 5.412897e-03
         vertex 5.000000e-03 0.000000e+00 5.000000e-03
      endloop
   endfacet
   facet normal -0.000000e+00 -1.000000e+00 0.000000e+00
      outer loop
         vertex 5.000000e-03 0.000000e+00 5.000000e-03
         vertex 1.707720e-05 0.000000e+00 5.412897e-03
         vertex 1.898501e-06 0.000000e+00 4.862228e-03
      endloop
   endfacet
   facet normal 0.000000e+00 -1.000000e+00 0.000000e+00
      outer loop
         vertex 5.000000e-03 0.000000e+00 5.000000e-03
         vertex 1.898501e-06 0.000000e+00 4.862228e-03
         vertex 4.738942e-05 0.000000e+00 4.313232e-03
      endloop
   endfacet
   facet normal 0.000000e+00 -1.000000e+00 -0.000000e+00
      outer loop
         vertex 6.698729e-04 0.000000e+00 7.500000e-03
         vertex 4.211334e-04 0.000000e+00 7.008477e-03
         vertex 5.000000e-03 0.000000e+00 5.000000e-03
      endloop
   endfacet
   facet normal 0.000000e+00 -1.000000e+00 0.000000e+00
      outer loop
         vertex 5.000000e-03 0.000000e+00 5.000000e-03
         vertex 4.211334e-04 0.000000e+00 7.008477e-03
         vertex 2.279747e-04 0.000000e+00 6.492574e-03
      endloop
   endfacet
   facet normal 0.000000e+00 -1.000000e+00 0.000000e+00
      outer loop
         vertex 5.000000e-03 0.000000e+00 5.000000e-03
         vertex 2.279747e-04 0.000000e+00 6.492574e-03
         vertex 9.274250e-05 0.000000e+00 5.958553e-03
      endloop
   endfacet
   facet normal 0.000000e+00 -1.000000e+00 -0.000000e+00
      outer loop
         vertex 1.716240e-03 0.000000e+00 8.770533e-03
         vertex 1.321380e-03 0.000000e+00 8.386408e-03
         vertex 5.000000e-03 0.000000e+00 5.000000e-03
      endloop
   endfacet
   facet normal 0.000000e+00 -1.000000e+00 0.000000e+00
      outer loop
         vertex 5.000000e-03 0.000000e+00 5.000000e-03
         vertex 1.321380e-03 0.000000e+00 8.386408e-03
         vertex 9.711743e-04 0.000000e+00 7.961176e-03
      endloop
   endfacet
   facet normal 0.000000e+00 -1.000000e+00 0.000000e+00
      outer loop
         vertex 5.000000e-03 0.000000e+00 5.000000e-03
         vertex 9.711743e-04 0.000000e+00 7.961176e-03
         vertex 6.698729e-04 0.000000e+00 7.500000e-03
      endloop
   endfacet
   facet normal 0.000000e+00 -1.000000e+00 -0.000000e+00
      outer loop
         vertex 3.118453e-03 0.000000e+00 9.632470e-03
         vertex 2.620263e-03 0.000000e+00 9.397368e-03
         vertex 5.000000e-03 0.000000e+00 5.000000e-03
      endloop
   endfacet
   facet normal 0.000000e+00 -1.000000e+00 0.000000e+00
      outer loop
         vertex 5.000000e-03 0.000000e+00 5.000000e-03
         vertex 2.620263e-03 0.000000e+00 9.397368e-03
         vertex 2.150960e-03 0.000000e+00 9.108889e-03
      endloop
   endfacet
   facet normal 0.000000e+00 -1.000000e+00 0.000000e+00
      outer loop
         vertex 5.000000e-03 0.000000e+00 5.000000e-03
         vertex 2.150960e-03 0.000000e+00 9.108889e-03
         vertex 1.716240e-03 0.000000e+00 8.770533e-03
      endloop
   endfacet
   facet normal 0.000000e+00 -1.000000e+00 -0.000000e+00
      outer loop
         vertex 4.724561e-03 0.000000e+00 9.992408e-03
         vertex 4.177027e-03 0.000000e+00 9.931806e-03
         vertex 5.000000e-03 0.000000e+00 5.000000e-03
      endloop
   endfacet
   facet normal 0.000000e+00 -1.000000e+00 0.000000e+00
      outer loop
         vertex 5.000000e-03 0.000000e+00 5.000000e-03
         vertex 4.177027e-03 0.000000e+00 9.931806e-03
         vertex 3.639483e-03 0.000000e+00 9.811340e-03
      endloop
   endfacet
   facet normal 0.000000e+00 -1.000000e+00 0.000000e+00
      outer loop
         vertex 5.000000e-03 0.000000e+00 5.000000e-03
         vertex 3.639483e-03 0.000000e+00 9.811340e-03
         vertex 3.118453e-03 0.000000e+00 9.632470e-03
      endloop
   endfacet
endsolid