solid Peg2
   facet normal -9.961947e-01 8.715614e-02 0.000000e+00
      outer loop
         vertex 0.000000e+00 2.061210e-03 5.551115e-17
         vertex 3.131456e-05 2.419135e-03 1.524000e-01
         vertex 3.131456e-05 2.419135e-03 5.551115e-17
      endloop
   endfacet
   facet normal -9.659258e-01 2.588190e-01 0.000000e+00
      outer loop
         vertex 3.131456e-05 2.419135e-03 5.551115e-17
         vertex 3.131456e-05 2.419135e-03 1.524000e-01
         vertex 1.243063e-04 2.766185e-03 1.524000e-01
      endloop
   endfacet
   facet normal -9.659258e-01 2.588190e-01 0.000000e+00
      outer loop
         vertex 3.131456e-05 2.419135e-03 5.551115e-17
         vertex 1.243063e-04 2.766185e-03 1.524000e-01
         vertex 1.243063e-04 2.766185e-03 5.551115e-17
      endloop
   endfacet
   facet normal -9.063079e-01 4.226180e-01 0.000000e+00
      outer loop
         vertex 1.243063e-04 2.766185e-03 5.551115e-17
         vertex 1.243063e-04 2.766185e-03 1.524000e-01
         vertex 2.761498e-04 3.091815e-03 1.524000e-01
      endloop
   endfacet
   facet normal -9.063079e-01 4.226180e-01 0.000000e+00
      outer loop
         vertex 1.243063e-04 2.766185e-03 5.551115e-17
         vertex 2.761498e-04 3.091815e-03 1.524000e-01
         vertex 2.761498e-04 3.091815e-03 5.551115e-17
      endloop
   endfacet
   facet normal -8.191519e-01 5.735766e-01 0.000000e+00
      outer loop
         vertex 2.761498e-04 3.091815e-03 5.551115e-17
         vertex 2.761498e-04 3.091815e-03 1.524000e-01
         vertex 4.822316e-04 3.386130e-03 1.524000e-01
      endloop
   endfacet
   facet normal -8.191519e-01 5.735766e-01 0.000000e+00
      outer loop
         vertex 2.761498e-04 3.091815e-03 5.551115e-17
         vertex 4.822316e-04 3.386130e-03 1.524000e-01
         vertex 4.822316e-04 3.386130e-03 5.551115e-17
      endloop
   endfacet
   facet normal -7.071068e-01 7.071068e-01 0.000000e+00
      outer loop
         vertex 4.822316e-04 3.386130e-03 5.551115e-17
         vertex 4.822316e-04 3.386130e-03 1.524000e-01
         vertex 7.362899e-04 3.640189e-03 1.524000e-01
      endloop
   endfacet
   facet normal -7.071068e-01 7.071068e-01 0.000000e+00
      outer loop
         vertex 4.822316e-04 3.386130e-03 5.551115e-17
         vertex 7.362899e-04 3.640189e-03 1.524000e-01
         vertex 7.362899e-04 3.640189e-03 5.551115e-17
      endloop
   endfacet
   facet normal -5.735766e-01 8.191519e-01 0.000000e+00
      outer loop
         vertex 7.362899e-04 3.640189e-03 5.551115e-17
         vertex 7.362899e-04 3.640189e-03 1.524000e-01
         vertex 1.030605e-03 3.846270e-03 1.524000e-01
      endloop
   endfacet
   facet normal -5.735766e-01 8.191519e-01 0.000000e+00
      outer loop
         vertex 7.362899e-04 3.640189e-03 5.551115e-17
         vertex 1.030605e-03 3.846270e-03 1.524000e-01
         vertex 1.030605e-03 3.846270e-03 5.551115e-17
      endloop
   endfacet
   facet normal -4.226180e-01 9.063079e-01 0.000000e+00
      outer loop
         vertex 1.030605e-03 3.846270e-03 5.551115e-17
         vertex 1.030605e-03 3.846270e-03 1.524000e-01
         vertex 1.356235e-03 3.998114e-03 1.524000e-01
      endloop
   endfacet
   facet normal -4.226180e-01 9.063079e-01 0.000000e+00
      outer loop
         vertex 1.030605e-03 3.846270e-03 5.551115e-17
         vertex 1.356235e-03 3.998114e-03 1.524000e-01
         vertex 1.356235e-03 3.998114e-03 5.551115e-17
      endloop
   endfacet
   facet normal -2.588190e-01 9.659258e-01 0.000000e+00
      outer loop
         vertex 1.356235e-03 3.998114e-03 5.551115e-17
         vertex 1.356235e-03 3.998114e-03 1.524000e-01
         vertex 1.703285e-03 4.091106e-03 1.524000e-01
      endloop
   endfacet
   facet normal -2.588190e-01 9.659258e-01 0.000000e+00
      outer loop
         vertex 1.356235e-03 3.998114e-03 5.551115e-17
         vertex 1.703285e-03 4.091106e-03 1.524000e-01
         vertex 1.703285e-03 4.091106e-03 5.551115e-17
      endloop
   endfacet
   facet normal -8.715614e-02 9.961947e-01 0.000000e+00
      outer loop
         vertex 1.703285e-03 4.091106e-03 5.551115e-17
         vertex 1.703285e-03 4.091106e-03 1.524000e-01
         vertex 2.061210e-03 4.122420e-03 1.524000e-01
      endloop
   endfacet
   facet normal -8.715614e-02 9.961947e-01 0.000000e+00
      outer loop
         vertex 1.703285e-03 4.091106e-03 5.551115e-17
         vertex 2.061210e-03 4.122420e-03 1.524000e-01
         vertex 2.061210e-03 4.122420e-03 5.551115e-17
      endloop
   endfacet
   facet normal 8.715614e-02 9.961947e-01 -0.000000e+00
      outer loop
         vertex 2.061210e-03 4.122420e-03 5.551115e-17
         vertex 2.061210e-03 4.122420e-03 1.524000e-01
         vertex 2.419135e-03 4.091106e-03 1.524000e-01
      endloop
   endfacet
   facet normal 8.715614e-02 9.961947e-01 0.000000e+00
      outer loop
         vertex 2.061210e-03 4.122420e-03 5.551115e-17
         vertex 2.419135e-03 4.091106e-03 1.524000e-01
         vertex 2.419135e-03 4.091106e-03 5.551115e-17
      endloop
   endfacet
   facet normal 2.588190e-01 9.659258e-01 -0.000000e+00
      outer loop
         vertex 2.419135e-03 4.091106e-03 5.551115e-17
         vertex 2.419135e-03 4.091106e-03 1.524000e-01
         vertex 2.766185e-03 3.998114e-03 1.524000e-01
      endloop
   endfacet
   facet normal 2.588190e-01 9.659258e-01 0.000000e+00
      outer loop
         vertex 2.419135e-03 4.091106e-03 5.551115e-17
         vertex 2.766185e-03 3.998114e-03 1.524000e-01
         vertex 2.766185e-03 3.998114e-03 5.551115e-17
      endloop
   endfacet
   facet normal 4.226180e-01 9.063079e-01 -0.000000e+00
      outer loop
         vertex 2.766185e-03 3.998114e-03 5.551115e-17
         vertex 2.766185e-03 3.998114e-03 1.524000e-01
         vertex 3.091815e-03 3.846270e-03 1.524000e-01
      endloop
   endfacet
   facet normal 4.226180e-01 9.063079e-01 0.000000e+00
      outer loop
         vertex 2.766185e-03 3.998114e-03 5.551115e-17
         vertex 3.091815e-03 3.846270e-03 1.524000e-01
         vertex 3.091815e-03 3.846270e-03 5.551115e-17
      endloop
   endfacet
   facet normal 5.735766e-01 8.191519e-01 -0.000000e+00
      outer loop
         vertex 3.091815e-03 3.846270e-03 5.551115e-17
         vertex 3.091815e-03 3.846270e-03 1.524000e-01
         vertex 3.386130e-03 3.640189e-03 1.524000e-01
      endloop
   endfacet
   facet normal 5.735766e-01 8.191519e-01 0.000000e+00
      outer loop
         vertex 3.091815e-03 3.846270e-03 5.551115e-17
         vertex 3.386130e-03 3.640189e-03 1.524000e-01
         vertex 3.386130e-03 3.640189e-03 5.551115e-17
      endloop
   endfacet
   facet normal 7.071068e-01 7.071068e-01 -0.000000e+00
      outer loop
         vertex 3.386130e-03 3.640189e-03 5.551115e-17
         vertex 3.386130e-03 3.640189e-03 1.524000e-01
         vertex 3.640189e-03 3.386130e-03 1.524000e-01
      endloop
   endfacet
   facet normal 7.071068e-01 7.071068e-01 0.000000e+00
      outer loop
         vertex 3.386130e-03 3.640189e-03 5.551115e-17
         vertex 3.640189e-03 3.386130e-03 1.524000e-01
         vertex 3.640189e-03 3.386130e-03 5.551115e-17
      endloop
   endfacet
   facet normal 8.191519e-01 5.735766e-01 -0.000000e+00
      outer loop
         vertex 3.640189e-03 3.386130e-03 5.551115e-17
         vertex 3.640189e-03 3.386130e-03 1.524000e-01
         vertex 3.846270e-03 3.091815e-03 1.524000e-01
      endloop
   endfacet
   facet normal 8.191519e-01 5.735766e-01 0.000000e+00
      outer loop
         vertex 3.640189e-03 3.386130e-03 5.551115e-17
         vertex 3.846270e-03 3.091815e-03 1.524000e-01
         vertex 3.846270e-03 3.091815e-03 5.551115e-17
      endloop
   endfacet
   facet normal 9.063079e-01 4.226180e-01 -0.000000e+00
      outer loop
         vertex 3.846270e-03 3.091815e-03 5.551115e-17
         vertex 3.846270e-03 3.091815e-03 1.524000e-01
         vertex 3.998114e-03 2.766185e-03 1.524000e-01
      endloop
   endfacet
   facet normal 9.063079e-01 4.226180e-01 0.000000e+00
      outer loop
         vertex 3.846270e-03 3.091815e-03 5.551115e-17
         vertex 3.998114e-03 2.766185e-03 1.524000e-01
         vertex 3.998114e-03 2.766185e-03 5.551115e-17
      endloop
   endfacet
   facet normal 9.659258e-01 2.588190e-01 -0.000000e+00
      outer loop
         vertex 3.998114e-03 2.766185e-03 5.551115e-17
         vertex 3.998114e-03 2.766185e-03 1.524000e-01
         vertex 4.091106e-03 2.419135e-03 1.524000e-01
      endloop
   endfacet
   facet normal 9.659258e-01 2.588190e-01 0.000000e+00
      outer loop
         vertex 3.998114e-03 2.766185e-03 5.551115e-17
         vertex 4.091106e-03 2.419135e-03 1.524000e-01
         vertex 4.091106e-03 2.419135e-03 5.551115e-17
      endloop
   endfacet
   facet normal 9.961947e-01 8.715614e-02 -0.000000e+00
      outer loop
         vertex 4.091106e-03 2.419135e-03 5.551115e-17
         vertex 4.091106e-03 2.419135e-03 1.524000e-01
         vertex 4.122420e-03 2.061210e-03 1.524000e-01
      endloop
   endfacet
   facet normal 9.961947e-01 8.715614e-02 0.000000e+00
      outer loop
         vertex 4.091106e-03 2.419135e-03 5.551115e-17
         vertex 4.122420e-03 2.061210e-03 1.524000e-01
         vertex 4.122420e-03 2.061210e-03 5.551115e-17
      endloop
   endfacet
   facet normal 9.961947e-01 -8.715614e-02 0.000000e+00
      outer loop
         vertex 4.122420e-03 2.061210e-03 5.551115e-17
         vertex 4.122420e-03 2.061210e-03 1.524000e-01
         vertex 4.091106e-03 1.703285e-03 1.524000e-01
      endloop
   endfacet
   facet normal 9.961947e-01 -8.715614e-02 0.000000e+00
      outer loop
         vertex 4.122420e-03 2.061210e-03 5.551115e-17
         vertex 4.091106e-03 1.703285e-03 1.524000e-01
         vertex 4.091106e-03 1.703285e-03 5.551115e-17
      endloop
   endfacet
   facet normal 9.659258e-01 -2.588190e-01 0.000000e+00
      outer loop
         vertex 4.091106e-03 1.703285e-03 5.551115e-17
         vertex 4.091106e-03 1.703285e-03 1.524000e-01
         vertex 3.998114e-03 1.356235e-03 1.524000e-01
      endloop
   endfacet
   facet normal 9.659258e-01 -2.588190e-01 0.000000e+00
      outer loop
         vertex 4.091106e-03 1.703285e-03 5.551115e-17
         vertex 3.998114e-03 1.356235e-03 1.524000e-01
         vertex 3.998114e-03 1.356235e-03 5.551115e-17
      endloop
   endfacet
   facet normal 9.063079e-01 -4.226180e-01 0.000000e+00
      outer loop
         vertex 3.998114e-03 1.356235e-03 5.551115e-17
         vertex 3.998114e-03 1.356235e-03 1.524000e-01
         vertex 3.846270e-03 1.030605e-03 1.524000e-01
      endloop
   endfacet
   facet normal 9.063079e-01 -4.226180e-01 0.000000e+00
      outer loop
         vertex 3.998114e-03 1.356235e-03 5.551115e-17
         vertex 3.846270e-03 1.030605e-03 1.524000e-01
         vertex 3.846270e-03 1.030605e-03 5.551115e-17
      endloop
   endfacet
   facet normal 8.191519e-01 -5.735766e-01 0.000000e+00
      outer loop
         vertex 3.846270e-03 1.030605e-03 5.551115e-17
         vertex 3.846270e-03 1.030605e-03 1.524000e-01
         vertex 3.640189e-03 7.362899e-04 1.524000e-01
      endloop
   endfacet
   facet normal 8.191519e-01 -5.735766e-01 0.000000e+00
      outer loop
         vertex 3.846270e-03 1.030605e-03 5.551115e-17
         vertex 3.640189e-03 7.362899e-04 1.524000e-01
         vertex 3.640189e-03 7.362899e-04 5.551115e-17
      endloop
   endfacet
   facet normal 7.071068e-01 -7.071068e-01 0.000000e+00
      outer loop
         vertex 3.640189e-03 7.362899e-04 5.551115e-17
         vertex 3.640189e-03 7.362899e-04 1.524000e-01
         vertex 3.386130e-03 4.822316e-04 1.524000e-01
      endloop
   endfacet
   facet normal 7.071068e-01 -7.071068e-01 0.000000e+00
      outer loop
         vertex 3.640189e-03 7.362899e-04 5.551115e-17
         vertex 3.386130e-03 4.822316e-04 1.524000e-01
         vertex 3.386130e-03 4.822316e-04 5.551115e-17
      endloop
   endfacet
   facet normal 5.735766e-01 -8.191519e-01 0.000000e+00
      outer loop
         vertex 3.386130e-03 4.822316e-04 5.551115e-17
         vertex 3.386130e-03 4.822316e-04 1.524000e-01
         vertex 3.091815e-03 2.761498e-04 1.524000e-01
      endloop
   endfacet
   facet normal 5.735766e-01 -8.191519e-01 0.000000e+00
      outer loop
         vertex 3.386130e-03 4.822316e-04 5.551115e-17
         vertex 3.091815e-03 2.761498e-04 1.524000e-01
         vertex 3.091815e-03 2.761498e-04 5.551115e-17
      endloop
   endfacet
   facet normal 4.226180e-01 -9.063079e-01 0.000000e+00
      outer loop
         vertex 3.091815e-03 2.761498e-04 5.551115e-17
         vertex 3.091815e-03 2.761498e-04 1.524000e-01
         vertex 2.766185e-03 1.243063e-04 1.524000e-01
      endloop
   endfacet
   facet normal 4.226180e-01 -9.063079e-01 0.000000e+00
      outer loop
         vertex 3.091815e-03 2.761498e-04 5.551115e-17
         vertex 2.766185e-03 1.243063e-04 1.524000e-01
         vertex 2.766185e-03 1.243063e-04 5.551115e-17
      endloop
   endfacet
   facet normal 2.588190e-01 -9.659258e-01 0.000000e+00
      outer loop
         vertex 2.766185e-03 1.243063e-04 5.551115e-17
         vertex 2.766185e-03 1.243063e-04 1.524000e-01
         vertex 2.419135e-03 3.131456e-05 1.524000e-01
      endloop
   endfacet
   facet normal 2.588190e-01 -9.659258e-01 0.000000e+00
      outer loop
         vertex 2.766185e-03 1.243063e-04 5.551115e-17
         vertex 2.419135e-03 3.131456e-05 1.524000e-01
         vertex 2.419135e-03 3.131456e-05 5.551115e-17
      endloop
   endfacet
   facet normal 8.715614e-02 -9.961947e-01 0.000000e+00
      outer loop
         vertex 2.419135e-03 3.131456e-05 5.551115e-17
         vertex 2.419135e-03 3.131456e-05 1.524000e-01
         vertex 2.061210e-03 0.000000e+00 1.524000e-01
      endloop
   endfacet
   facet normal 8.715614e-02 -9.961947e-01 0.000000e+00
      outer loop
         vertex 2.419135e-03 3.131456e-05 5.551115e-17
         vertex 2.061210e-03 0.000000e+00 1.524000e-01
         vertex 2.061210e-03 0.000000e+00 5.551115e-17
      endloop
   endfacet
   facet normal -8.715614e-02 -9.961947e-01 0.000000e+00
      outer loop
         vertex 2.061210e-03 0.000000e+00 5.551115e-17
         vertex 2.061210e-03 0.000000e+00 1.524000e-01
         vertex 1.703285e-03 3.131456e-05 1.524000e-01
      endloop
   endfacet
   facet normal -8.715614e-02 -9.961947e-01 0.000000e+00
      outer loop
         vertex 2.061210e-03 0.000000e+00 5.551115e-17
         vertex 1.703285e-03 3.131456e-05 1.524000e-01
         vertex 1.703285e-03 3.131456e-05 5.551115e-17
      endloop
   endfacet
   facet normal -2.588190e-01 -9.659258e-01 0.000000e+00
      outer loop
         vertex 1.703285e-03 3.131456e-05 5.551115e-17
         vertex 1.703285e-03 3.131456e-05 1.524000e-01
         vertex 1.356235e-03 1.243063e-04 1.524000e-01
      endloop
   endfacet
   facet normal -2.588190e-01 -9.659258e-01 0.000000e+00
      outer loop
         vertex 1.703285e-03 3.131456e-05 5.551115e-17
         vertex 1.356235e-03 1.243063e-04 1.524000e-01
         vertex 1.356235e-03 1.243063e-04 5.551115e-17
      endloop
   endfacet
   facet normal -4.226180e-01 -9.063079e-01 0.000000e+00
      outer loop
         vertex 1.356235e-03 1.243063e-04 5.551115e-17
         vertex 1.356235e-03 1.243063e-04 1.524000e-01
         vertex 1.030605e-03 2.761498e-04 1.524000e-01
      endloop
   endfacet
   facet normal -4.226180e-01 -9.063079e-01 0.000000e+00
      outer loop
         vertex 1.356235e-03 1.243063e-04 5.551115e-17
         vertex 1.030605e-03 2.761498e-04 1.524000e-01
         vertex 1.030605e-03 2.761498e-04 5.551115e-17
      endloop
   endfacet
   facet normal -5.735766e-01 -8.191519e-01 0.000000e+00
      outer loop
         vertex 1.030605e-03 2.761498e-04 5.551115e-17
         vertex 1.030605e-03 2.761498e-04 1.524000e-01
         vertex 7.362899e-04 4.822316e-04 1.524000e-01
      endloop
   endfacet
   facet normal -5.735766e-01 -8.191519e-01 0.000000e+00
      outer loop
         vertex 1.030605e-03 2.761498e-04 5.551115e-17
         vertex 7.362899e-04 4.822316e-04 1.524000e-01
         vertex 7.362899e-04 4.822316e-04 5.551115e-17
      endloop
   endfacet
   facet normal -7.071068e-01 -7.071068e-01 0.000000e+00
      outer loop
         vertex 7.362899e-04 4.822316e-04 5.551115e-17
         vertex 7.362899e-04 4.822316e-04 1.524000e-01
         vertex 4.822316e-04 7.362899e-04 1.524000e-01
      endloop
   endfacet
   facet normal -7.071068e-01 -7.071068e-01 0.000000e+00
      outer loop
         vertex 7.362899e-04 4.822316e-04 5.551115e-17
         vertex 4.822316e-04 7.362899e-04 1.524000e-01
         vertex 4.822316e-04 7.362899e-04 5.551115e-17
      endloop
   endfacet
   facet normal -8.191519e-01 -5.735766e-01 0.000000e+00
      outer loop
         vertex 4.822316e-04 7.362899e-04 5.551115e-17
         vertex 4.822316e-04 7.362899e-04 1.524000e-01
         vertex 2.761498e-04 1.030605e-03 1.524000e-01
      endloop
   endfacet
   facet normal -8.191519e-01 -5.735766e-01 0.000000e+00
      outer loop
         vertex 4.822316e-04 7.362899e-04 5.551115e-17
         vertex 2.761498e-04 1.030605e-03 1.524000e-01
         vertex 2.761498e-04 1.030605e-03 5.551115e-17
      endloop
   endfacet
   facet normal -9.063079e-01 -4.226180e-01 0.000000e+00
      outer loop
         vertex 2.761498e-04 1.030605e-03 5.551115e-17
         vertex 2.761498e-04 1.030605e-03 1.524000e-01
         vertex 1.243063e-04 1.356235e-03 1.524000e-01
      endloop
   endfacet
   facet normal -9.063079e-01 -4.226180e-01 0.000000e+00
      outer loop
         vertex 2.761498e-04 1.030605e-03 5.551115e-17
         vertex 1.243063e-04 1.356235e-03 1.524000e-01
         vertex 1.243063e-04 1.356235e-03 5.551115e-17
      endloop
   endfacet
   facet normal -9.659258e-01 -2.588190e-01 0.000000e+00
      outer loop
         vertex 1.243063e-04 1.356235e-03 5.551115e-17
         vertex 1.243063e-04 1.356235e-03 1.524000e-01
         vertex 3.131456e-05 1.703285e-03 1.524000e-01
      endloop
   endfacet
   facet normal -9.659258e-01 -2.588190e-01 0.000000e+00
      outer loop
         vertex 1.243063e-04 1.356235e-03 5.551115e-17
         vertex 3.131456e-05 1.703285e-03 1.524000e-01
         vertex 3.131456e-05 1.703285e-03 5.551115e-17
      endloop
   endfacet
   facet normal -9.961947e-01 -8.715614e-02 0.000000e+00
      outer loop
         vertex 3.131456e-05 1.703285e-03 5.551115e-17
         vertex 3.131456e-05 1.703285e-03 1.524000e-01
         vertex 0.000000e+00 2.061210e-03 1.524000e-01
      endloop
   endfacet
   facet normal -9.961947e-01 -8.715614e-02 0.000000e+00
      outer loop
         vertex 3.131456e-05 1.703285e-03 5.551115e-17
         vertex 0.000000e+00 2.061210e-03 1.524000e-01
         vertex 0.000000e+00 2.061210e-03 5.551115e-17
      endloop
   endfacet
   facet normal -9.961947e-01 8.715614e-02 0.000000e+00
      outer loop
         vertex 0.000000e+00 2.061210e-03 5.551115e-17
         vertex 0.000000e+00 2.061210e-03 1.524000e-01
         vertex 3.131456e-05 2.419135e-03 1.524000e-01
      endloop
   endfacet
   facet normal 0.000000e+00 -0.000000e+00 1.000000e+00
      outer loop
         vertex 3.998114e-03 1.356235e-03 1.524000e-01
         vertex 4.091106e-03 1.703285e-03 1.524000e-01
         vertex 2.061210e-03 2.061210e-03 1.524000e-01
      endloop
   endfacet
   facet normal -0.000000e+00 0.000000e+00 1.000000e+00
      outer loop
         vertex 2.061210e-03 2.061210e-03 1.524000e-01
         vertex 4.091106e-03 1.703285e-03 1.524000e-01
         vertex 4.122420e-03 2.061210e-03 1.524000e-01
      endloop
   endfacet
   facet normal 0.000000e+00 0.000000e+00 1.000000e+00
      outer loop
         vertex 2.061210e-03 2.061210e-03 1.524000e-01
         vertex 4.122420e-03 2.061210e-03 1.524000e-01
         vertex 4.091106e-03 2.419135e-03 1.524000e-01
      endloop
   endfacet
   facet normal 0.000000e+00 -0.000000e+00 1.000000e+00
      outer loop
         vertex 3.386130e-03 4.822316e-04 1.524000e-01
         vertex 3.640189e-03 7.362899e-04 1.524000e-01
         vertex 2.061210e-03 2.061210e-03 1.524000e-01
      endloop
   endfacet
   facet normal 0.000000e+00 0.000000e+00 1.000000e+00
      outer loop
         vertex 2.061210e-03 2.061210e-03 1.524000e-01
         vertex 3.640189e-03 7.362899e-04 1.524000e-01
         vertex 3.846270e-03 1.030605e-03 1.524000e-01
      endloop
   endfacet
   facet normal 0.000000e+00 0.000000e+00 1.000000e+00
      outer loop
         vertex 2.061210e-03 2.061210e-03 1.524000e-01
         vertex 3.846270e-03 1.030605e-03 1.524000e-01
         vertex 3.998114e-03 1.356235e-03 1.524000e-01
      endloop
   endfacet
   facet normal 0.000000e+00 -0.000000e+00 1.000000e+00
      outer loop
         vertex 2.419135e-03 3.131456e-05 1.524000e-01
         vertex 2.766185e-03 1.243063e-04 1.524000e-01
         vertex 2.061210e-03 2.061210e-03 1.524000e-01
      endloop
   endfacet
   facet normal 0.000000e+00 0.000000e+00 1.000000e+00
      outer loop
         vertex 2.061210e-03 2.061210e-03 1.524000e-01
         vertex 2.766185e-03 1.243063e-04 1.524000e-01
         vertex 3.091815e-03 2.761498e-04 1.524000e-01
      endloop
   endfacet
   facet normal 0.000000e+00 0.000000e+00 1.000000e+00
      outer loop
         vertex 2.061210e-03 2.061210e-03 1.524000e-01
         vertex 3.091815e-03 2.761498e-04 1.524000e-01
         vertex 3.386130e-03 4.822316e-04 1.524000e-01
      endloop
   endfacet
   facet normal -0.000000e+00 0.000000e+00 1.000000e+00
      outer loop
         vertex 1.356235e-03 1.243063e-04 1.524000e-01
         vertex 1.703285e-03 3.131456e-05 1.524000e-01
         vertex 2.061210e-03 2.061210e-03 1.524000e-01
      endloop
   endfacet
   facet normal 0.000000e+00 0.000000e+00 1.000000e+00
      outer loop
         vertex 2.061210e-03 2.061210e-03 1.524000e-01
         vertex 1.703285e-03 3.131456e-05 1.524000e-01
         vertex 2.061210e-03 0.000000e+00 1.524000e-01
      endloop
   endfacet
   facet normal 0.000000e+00 0.000000e+00 1.000000e+00
      outer loop
         vertex 2.061210e-03 2.061210e-03 1.524000e-01
         vertex 2.061210e-03 0.000000e+00 1.524000e-01
         vertex 2.419135e-03 3.131456e-05 1.524000e-01
      endloop
   endfacet
   facet normal -0.000000e+00 0.000000e+00 1.000000e+00
      outer loop
         vertex 4.822316e-04 7.362899e-04 1.524000e-01
         vertex 7.362899e-04 4.822316e-04 1.524000e-01
         vertex 2.061210e-03 2.061210e-03 1.524000e-01
      endloop
   endfacet
   facet normal 0.000000e+00 0.000000e+00 1.000000e+00
      outer loop
         vertex 2.061210e-03 2.061210e-03 1.524000e-01
         vertex 7.362899e-04 4.822316e-04 1.524000e-01
         vertex 1.030605e-03 2.761498e-04 1.524000e-01
      endloop
   endfacet
   facet normal 0.000000e+00 0.000000e+00 1.000000e+00
      outer loop
         vertex 2.061210e-03 2.061210e-03 1.524000e-01
         vertex 1.030605e-03 2.761498e-04 1.524000e-01
         vertex 1.356235e-03 1.243063e-04 1.524000e-01
      endloop
   endfacet
   facet normal -0.000000e+00 0.000000e+00 1.000000e+00
      outer loop
         vertex 3.131456e-05 1.703285e-03 1.524000e-01
         vertex 1.243063e-04 1.356235e-03 1.524000e-01
         vertex 2.061210e-03 2.061210e-03 1.524000e-01
      endloop
   endfacet
   facet normal 0.000000e+00 0.000000e+00 1.000000e+00
      outer loop
         vertex 2.061210e-03 2.061210e-03 1.524000e-01
         vertex 1.243063e-04 1.356235e-03 1.524000e-01
         vertex 2.761498e-04 1.030605e-03 1.524000e-01
      endloop
   endfacet
   facet normal 0.000000e+00 0.000000e+00 1.000000e+00
      outer loop
         vertex 2.061210e-03 2.061210e-03 1.524000e-01
         vertex 2.761498e-04 1.030605e-03 1.524000e-01
         vertex 4.822316e-04 7.362899e-04 1.524000e-01
      endloop
   endfacet
   facet normal 0.000000e+00 0.000000e+00 1.000000e+00
      outer loop
         vertex 1.243063e-04 2.766185e-03 1.524000e-01
         vertex 3.131456e-05 2.419135e-03 1.524000e-01
         vertex 2.061210e-03 2.061210e-03 1.524000e-01
      endloop
   endfacet
   facet normal 0.000000e+00 0.000000e+00 1.000000e+00
      outer loop
         vertex 2.061210e-03 2.061210e-03 1.524000e-01
         vertex 3.131456e-05 2.419135e-03 1.524000e-01
         vertex 0.000000e+00 2.061210e-03 1.524000e-01
      endloop
   endfacet
   facet normal 0.000000e+00 0.000000e+00 1.000000e+00
      outer loop
         vertex 2.061210e-03 2.061210e-03 1.524000e-01
         vertex 0.000000e+00 2.061210e-03 1.524000e-01
         vertex 3.131456e-05 1.703285e-03 1.524000e-01
      endloop
   endfacet
   facet normal 0.000000e+00 0.000000e+00 1.000000e+00
      outer loop
         vertex 7.362899e-04 3.640189e-03 1.524000e-01
         vertex 4.822316e-04 3.386130e-03 1.524000e-01
         vertex 2.061210e-03 2.061210e-03 1.524000e-01
      endloop
   endfacet
   facet normal 0.000000e+00 0.000000e+00 1.000000e+00
      outer loop
         vertex 2.061210e-03 2.061210e-03 1.524000e-01
         vertex 4.822316e-04 3.386130e-03 1.524000e-01
         vertex 2.761498e-04 3.091815e-03 1.524000e-01
      endloop
   endfacet
   facet normal 0.000000e+00 0.000000e+00 1.000000e+00
      outer loop
         vertex 2.061210e-03 2.061210e-03 1.524000e-01
         vertex 2.761498e-04 3.091815e-03 1.524000e-01
         vertex 1.243063e-04 2.766185e-03 1.524000e-01
      endloop
   endfacet
   facet normal 0.000000e+00 0.000000e+00 1.000000e+00
      outer loop
         vertex 1.703285e-03 4.091106e-03 1.524000e-01
         vertex 1.356235e-03 3.998114e-03 1.524000e-01
         vertex 2.061210e-03 2.061210e-03 1.524000e-01
      endloop
   endfacet
   facet normal 0.000000e+00 0.000000e+00 1.000000e+00
      outer loop
         vertex 2.061210e-03 2.061210e-03 1.524000e-01
         vertex 1.356235e-03 3.998114e-03 1.524000e-01
         vertex 1.030605e-03 3.846270e-03 1.524000e-01
      endloop
   endfacet
   facet normal 0.000000e+00 0.000000e+00 1.000000e+00
      outer loop
         vertex 2.061210e-03 2.061210e-03 1.524000e-01
         vertex 1.030605e-03 3.846270e-03 1.524000e-01
         vertex 7.362899e-04 3.640189e-03 1.524000e-01
      endloop
   endfacet
   facet normal 0.000000e+00 0.000000e+00 1.000000e+00
      outer loop
         vertex 2.766185e-03 3.998114e-03 1.524000e-01
         vertex 2.419135e-03 4.091106e-03 1.524000e-01
         vertex 2.061210e-03 2.061210e-03 1.524000e-01
      endloop
   endfacet
   facet normal 0.000000e+00 -0.000000e+00 1.000000e+00
      outer loop
         vertex 2.061210e-03 2.061210e-03 1.524000e-01
         vertex 2.419135e-03 4.091106e-03 1.524000e-01
         vertex 2.061210e-03 4.122420e-03 1.524000e-01
      endloop
   endfacet
   facet normal 0.000000e+00 0.000000e+00 1.000000e+00
      outer loop
         vertex 2.061210e-03 2.061210e-03 1.524000e-01
         vertex 2.061210e-03 4.122420e-03 1.524000e-01
         vertex 1.703285e-03 4.091106e-03 1.524000e-01
      endloop
   endfacet
   facet normal 0.000000e+00 0.000000e+00 1.000000e+00
      outer loop
         vertex 3.640189e-03 3.386130e-03 1.524000e-01
         vertex 3.386130e-03 3.640189e-03 1.524000e-01
         vertex 2.061210e-03 2.061210e-03 1.524000e-01
      endloop
   endfacet
   facet normal 0.000000e+00 0.000000e+00 1.000000e+00
      outer loop
         vertex 2.061210e-03 2.061210e-03 1.524000e-01
         vertex 3.386130e-03 3.640189e-03 1.524000e-01
         vertex 3.091815e-03 3.846270e-03 1.524000e-01
      endloop
   endfacet
   facet normal 0.000000e+00 0.000000e+00 1.000000e+00
      outer loop
         vertex 2.061210e-03 2.061210e-03 1.524000e-01
         vertex 3.091815e-03 3.846270e-03 1.524000e-01
         vertex 2.766185e-03 3.998114e-03 1.524000e-01
      endloop
   endfacet
   facet normal 0.000000e+00 0.000000e+00 1.000000e+00
      outer loop
         vertex 4.091106e-03 2.419135e-03 1.524000e-01
         vertex 3.998114e-03 2.766185e-03 1.524000e-01
         vertex 2.061210e-03 2.061210e-03 1.524000e-01
      endloop
   endfacet
   facet normal 0.000000e+00 0.000000e+00 1.000000e+00
      outer loop
         vertex 2.061210e-03 2.061210e-03 1.524000e-01
         vertex 3.998114e-03 2.766185e-03 1.524000e-01
         vertex 3.846270e-03 3.091815e-03 1.524000e-01
      endloop
   endfacet
   facet normal 0.000000e+00 0.000000e+00 1.000000e+00
      outer loop
         vertex 2.061210e-03 2.061210e-03 1.524000e-01
         vertex 3.846270e-03 3.091815e-03 1.524000e-01
         vertex 3.640189e-03 3.386130e-03 1.524000e-01
      endloop
   endfacet
   facet normal 0.000000e+00 -0.000000e+00 -1.000000e+00
      outer loop
         vertex 3.998114e-03 2.766185e-03 0.000000e+00
         vertex 4.091106e-03 2.419135e-03 0.000000e+00
         vertex 2.061210e-03 2.061210e-03 0.000000e+00
      endloop
   endfacet
   facet normal 0.000000e+00 0.000000e+00 -1.000000e+00
      outer loop
         vertex 2.061210e-03 2.061210e-03 0.000000e+00
         vertex 4.091106e-03 2.419135e-03 0.000000e+00
         vertex 4.122420e-03 2.061210e-03 0.000000e+00
      endloop
   endfacet
   facet normal 0.000000e+00 0.000000e+00 -1.000000e+00
      outer loop
         vertex 2.061210e-03 2.061210e-03 0.000000e+00
         vertex 4.122420e-03 2.061210e-03 0.000000e+00
         vertex 4.091106e-03 1.703285e-03 0.000000e+00
      endloop
   endfacet
   facet normal 0.000000e+00 -0.000000e+00 -1.000000e+00
      outer loop
         vertex 3.386130e-03 3.640189e-03 0.000000e+00
         vertex 3.640189e-03 3.386130e-03 0.000000e+00
         vertex 2.061210e-03 2.061210e-03 0.000000e+00
      endloop
   endfacet
   facet normal 0.000000e+00 0.000000e+00 -1.000000e+00
      outer loop
         vertex 2.061210e-03 2.061210e-03 0.000000e+00
         vertex 3.640189e-03 3.386130e-03 0.000000e+00
         vertex 3.846270e-03 3.091815e-03 0.000000e+00
      endloop
   endfacet
   facet normal 0.000000e+00 0.000000e+00 -1.000000e+00
      outer loop
         vertex 2.061210e-03 2.061210e-03 0.000000e+00
         vertex 3.846270e-03 3.091815e-03 0.000000e+00
         vertex 3.998114e-03 2.766185e-03 0.000000e+00
      endloop
   endfacet
   facet normal 0.000000e+00 -0.000000e+00 -1.000000e+00
      outer loop
         vertex 2.419135e-03 4.091106e-03 0.000000e+00
         vertex 2.766185e-03 3.998114e-03 0.000000e+00
         vertex 2.061210e-03 2.061210e-03 0.000000e+00
      endloop
   endfacet
   facet normal 0.000000e+00 0.000000e+00 -1.000000e+00
      outer loop
         vertex 2.061210e-03 2.061210e-03 0.000000e+00
         vertex 2.766185e-03 3.998114e-03 0.000000e+00
         vertex 3.091815e-03 3.846270e-03 0.000000e+00
      endloop
   endfacet
   facet normal 0.000000e+00 0.000000e+00 -1.000000e+00
      outer loop
         vertex 2.061210e-03 2.061210e-03 0.000000e+00
         vertex 3.091815e-03 3.846270e-03 0.000000e+00
         vertex 3.386130e-03 3.640189e-03 0.000000e+00
      endloop
   endfacet
   facet normal 0.000000e+00 0.000000e+00 -1.000000e+00
      outer loop
         vertex 1.356235e-03 3.998114e-03 0.000000e+00
         vertex 1.703285e-03 4.091106e-03 0.000000e+00
         vertex 2.061210e-03 2.061210e-03 0.000000e+00
      endloop
   endfacet
   facet normal 0.000000e+00 0.000000e+00 -1.000000e+00
      outer loop
         vertex 2.061210e-03 2.061210e-03 0.000000e+00
         vertex 1.703285e-03 4.091106e-03 0.000000e+00
         vertex 2.061210e-03 4.122420e-03 0.000000e+00
      endloop
   endfacet
   facet normal 0.000000e+00 0.000000e+00 -1.000000e+00
      outer loop
         vertex 2.061210e-03 2.061210e-03 0.000000e+00
         vertex 2.061210e-03 4.122420e-03 0.000000e+00
         vertex 2.419135e-03 4.091106e-03 0.000000e+00
      endloop
   endfacet
   facet normal 0.000000e+00 0.000000e+00 -1.000000e+00
      outer loop
         vertex 4.822316e-04 3.386130e-03 0.000000e+00
         vertex 7.362899e-04 3.640189e-03 0.000000e+00
         vertex 2.061210e-03 2.061210e-03 0.000000e+00
      endloop
   endfacet
   facet normal 0.000000e+00 0.000000e+00 -1.000000e+00
      outer loop
         vertex 2.061210e-03 2.061210e-03 0.000000e+00
         vertex 7.362899e-04 3.640189e-03 0.000000e+00
         vertex 1.030605e-03 3.846270e-03 0.000000e+00
      endloop
   endfacet
   facet normal 0.000000e+00 0.000000e+00 -1.000000e+00
      outer loop
         vertex 2.061210e-03 2.061210e-03 0.000000e+00
         vertex 1.030605e-03 3.846270e-03 0.000000e+00
         vertex 1.356235e-03 3.998114e-03 0.000000e+00
      endloop
   endfacet
   facet normal 0.000000e+00 0.000000e+00 -1.000000e+00
      outer loop
         vertex 3.131456e-05 2.419135e-03 0.000000e+00
         vertex 1.243063e-04 2.766185e-03 0.000000e+00
         vertex 2.061210e-03 2.061210e-03 0.000000e+00
      endloop
   endfacet
   facet normal 0.000000e+00 0.000000e+00 -1.000000e+00
      outer loop
         vertex 2.061210e-03 2.061210e-03 0.000000e+00
         vertex 1.243063e-04 2.766185e-03 0.000000e+00
         vertex 2.761498e-04 3.091815e-03 0.000000e+00
      endloop
   endfacet
   facet normal 0.000000e+00 0.000000e+00 -1.000000e+00
      outer loop
         vertex 2.061210e-03 2.061210e-03 0.000000e+00
         vertex 2.761498e-04 3.091815e-03 0.000000e+00
         vertex 4.822316e-04 3.386130e-03 0.000000e+00
      endloop
   endfacet
   facet normal 0.000000e+00 0.000000e+00 -1.000000e+00
      outer loop
         vertex 1.243063e-04 1.356235e-03 0.000000e+00
         vertex 3.131456e-05 1.703285e-03 0.000000e+00
         vertex 2.061210e-03 2.061210e-03 0.000000e+00
      endloop
   endfacet
   facet normal -0.000000e+00 0.000000e+00 -1.000000e+00
      outer loop
         vertex 2.061210e-03 2.061210e-03 0.000000e+00
         vertex 3.131456e-05 1.703285e-03 0.000000e+00
         vertex 0.000000e+00 2.061210e-03 0.000000e+00
      endloop
   endfacet
   facet normal 0.000000e+00 0.000000e+00 -1.000000e+00
      outer loop
         vertex 2.061210e-03 2.061210e-03 0.000000e+00
         vertex 0.000000e+00 2.061210e-03 0.000000e+00
         vertex 3.131456e-05 2.419135e-03 0.000000e+00
      endloop
   endfacet
   facet normal 0.000000e+00 0.000000e+00 -1.000000e+00
      outer loop
         vertex 7.362899e-04 4.822316e-04 0.000000e+00
         vertex 4.822316e-04 7.362899e-04 0.000000e+00
         vertex 2.061210e-03 2.061210e-03 0.000000e+00
      endloop
   endfacet
   facet normal 0.000000e+00 0.000000e+00 -1.000000e+00
      outer loop
         vertex 2.061210e-03 2.061210e-03 0.000000e+00
         vertex 4.822316e-04 7.362899e-04 0.000000e+00
         vertex 2.761498e-04 1.030605e-03 0.000000e+00
      endloop
   endfacet
   facet normal 0.000000e+00 0.000000e+00 -1.000000e+00
      outer loop
         vertex 2.061210e-03 2.061210e-03 0.000000e+00
         vertex 2.761498e-04 1.030605e-03 0.000000e+00
         vertex 1.243063e-04 1.356235e-03 0.000000e+00
      endloop
   endfacet
   facet normal 0.000000e+00 0.000000e+00 -1.000000e+00
      outer loop
         vertex 1.703285e-03 3.131456e-05 0.000000e+00
         vertex 1.356235e-03 1.243063e-04 0.000000e+00
         vertex 2.061210e-03 2.061210e-03 0.000000e+00
      endloop
   endfacet
   facet normal 0.000000e+00 0.000000e+00 -1.000000e+00
      outer loop
         vertex 2.061210e-03 2.061210e-03 0.000000e+00
         vertex 1.356235e-03 1.243063e-04 0.000000e+00
         vertex 1.030605e-03 2.761498e-04 0.000000e+00
      endloop
   endfacet
   facet normal 0.000000e+00 0.000000e+00 -1.000000e+00
      outer loop
         vertex 2.061210e-03 2.061210e-03 0.000000e+00
         vertex 1.030605e-03 2.761498e-04 0.000000e+00
         vertex 7.362899e-04 4.822316e-04 0.000000e+00
      endloop
   endfacet
   facet normal -0.000000e+00 0.000000e+00 -1.000000e+00
      outer loop
         vertex 2.766185e-03 1.243063e-04 0.000000e+00
         vertex 2.419135e-03 3.131456e-05 0.000000e+00
         vertex 2.061210e-03 2.061210e-03 0.000000e+00
      endloop
   endfacet
   facet normal 0.000000e+00 0.000000e+00 -1.000000e+00
      outer loop
         vertex 2.061210e-03 2.061210e-03 0.000000e+00
         vertex 2.419135e-03 3.131456e-05 0.000000e+00
         vertex 2.061210e-03 0.000000e+00 0.000000e+00
      endloop
   endfacet
   facet normal 0.000000e+00 -0.000000e+00 -1.000000e+00
      outer loop
         vertex 2.061210e-03 2.061210e-03 0.000000e+00
         vertex 2.061210e-03 0.000000e+00 0.000000e+00
         vertex 1.703285e-03 3.131456e-05 0.000000e+00
      endloop
   endfacet
   facet normal -0.000000e+00 0.000000e+00 -1.000000e+00
      outer loop
         vertex 3.640189e-03 7.362899e-04 0.000000e+00
         vertex 3.386130e-03 4.822316e-04 0.000000e+00
         vertex 2.061210e-03 2.061210e-03 0.000000e+00
      endloop
   endfacet
   facet normal 0.000000e+00 0.000000e+00 -1.000000e+00
      outer loop
         vertex 2.061210e-03 2.061210e-03 0.000000e+00
         vertex 3.386130e-03 4.822316e-04 0.000000e+00
         vertex 3.091815e-03 2.761498e-04 0.000000e+00
      endloop
   endfacet
   facet normal 0.000000e+00 0.000000e+00 -1.000000e+00
      outer loop
         vertex 2.061210e-03 2.061210e-03 0.000000e+00
         vertex 3.091815e-03 2.761498e-04 0.000000e+00
         vertex 2.766185e-03 1.243063e-04 0.000000e+00
      endloop
   endfacet
   facet normal -0.000000e+00 0.000000e+00 -1.000000e+00
      outer loop
         vertex 4.091106e-03 1.703285e-03 0.000000e+00
         vertex 3.998114e-03 1.356235e-03 0.000000e+00
         vertex 2.061210e-03 2.061210e-03 0.000000e+00
      endloop
   endfacet
   facet normal 0.000000e+00 0.000000e+00 -1.000000e+00
      outer loop
         vertex 2.061210e-03 2.061210e-03 0.000000e+00
         vertex 3.998114e-03 1.356235e-03 0.000000e+00
         vertex 3.846270e-03 1.030605e-03 0.000000e+00
      endloop
   endfacet
   facet normal 0.000000e+00 0.000000e+00 -1.000000e+00
      outer loop
         vertex 2.061210e-03 2.061210e-03 0.000000e+00
         vertex 3.846270e-03 1.030605e-03 0.000000e+00
         vertex 3.640189e-03 7.362899e-04 0.000000e+00
      endloop
   endfacet
endsolid