  0
SECTION
  2
HEADER
  9
$ACADVER
  1
AC1015
  9
$ACADMAINTVER
 70
     6
  9
$DWGCODEPAGE
  3
ANSI_1252
  9
$INSBASE
 10
0.0
 20
0.0
 30
0.0
  9
$EXTMIN
 10
-3.5
 20
-8.0
 30
0.0
  9
$EXTMAX
 10
3.5
 20
8.0
 30
0.0
  9
$LIMMIN
 10
0.0
 20
0.0
  9
$LIMMAX
 10
12.0
 20
9.0
  9
$ORTHOMODE
 70
     0
  9
$REGENMODE
 70
     1
  9
$FILLMODE
 70
     1
  9
$QTEXTMODE
 70
     0
  9
$MIRRTEXT
 70
     1
  9
$LTSCALE
 40
1.0
  9
$ATTMODE
 70
     1
  9
$TEXTSIZE
 40
0.125
  9
$TRACEWID
 40
0.05
  9
$TEXTSTYLE
  7
Standard
  9
$CLAYER
  8
0
  9
$CELTYPE
  6
ByLayer
  9
$CECOLOR
 62
   256
  9
$CELTSCALE
 40
1.0
  9
$DISPSILH
 70
     0
  9
$DIMSCALE
 40
1.0
  9
$DIMASZ
 40
0.13
  9
$DIMEXO
 40
0.0
  9
$DIMDLI
 40
0.38
  9
$DIMRND
 40
0.0
  9
$DIMDLE
 40
0.0
  9
$DIMEXE
 40
0.125
  9
$DIMTP
 40
0.0
  9
$DIMTM
 40
0.0
  9
$DIMTXT
 40
0.125
  9
$DIMCEN
 40
0.09
  9
$DIMTSZ
 40
0.0
  9
$DIMTOL
 70
     0
  9
$DIMLIM
 70
     0
  9
$DIMTIH
 70
     1
  9
$DIMTOH
 70
     1
  9
$DIMSE1
 70
     0
  9
$DIMSE2
 70
     0
  9
$DIMTAD
 70
     0
  9
$DIMZIN
 70
     1
  9
$DIMBLK
  1

  9
$DIMASO
 70
     1
  9
$DIMSHO
 70
     1
  9
$DIMPOST
  1

  9
$DIMAPOST
  1

  9
$DIMALT
 70
     0
  9
$DIMALTD
 70
     2
  9
$DIMALTF
 40
25.4
  9
$DIMLFAC
 40
1.0
  9
$DIMTOFL
 70
     0
  9
$DIMTVP
 40
0.0
  9
$DIMTIX
 70
     0
  9
$DIMSOXD
 70
     0
  9
$DIMSAH
 70
     0
  9
$DIMBLK1
  1

  9
$DIMBLK2
  1

  9
$DIMSTYLE
  2
Standard
  9
$DIMCLRD
 70
     0
  9
$DIMCLRE
 70
     0
  9
$DIMCLRT
 70
     0
  9
$DIMTFAC
 40
1.0
  9
$DIMGAP
 40
0.06
  9
$DIMJUST
 70
     0
  9
$DIMSD1
 70
     0
  9
$DIMSD2
 70
     0
  9
$DIMTOLJ
 70
     1
  9
$DIMTZIN
 70
     1
  9
$DIMALTZ
 70
     0
  9
$DIMALTTZ
 70
     0
  9
$DIMUPT
 70
     0
  9
$DIMDEC
 70
     2
  9
$DIMTDEC
 70
     2
  9
$DIMALTU
 70
     2
  9
$DIMALTTD
 70
     2
  9
$DIMTXSTY
  7
Standard
  9
$DIMAUNIT
 70
     0
  9
$DIMADEC
 70
     2
  9
$DIMALTRND
 40
0.0
  9
$DIMAZIN
 70
     0
  9
$DIMDSEP
 70
    46
  9
$DIMATFIT
 70
     3
  9
$DIMFRAC
 70
     0
  9
$DIMLDRBLK
  1

  9
$DIMLUNIT
 70
     2
  9
$DIMLWD
 70
    -2
  9
$DIMLWE
 70
    -2
  9
$DIMTMOVE
 70
     0
  9
$LUNITS
 70
     2
  9
$LUPREC
 70
     2
  9
$SKETCHINC
 40
0.1
  9
$FILLETRAD
 40
0.5
  9
$AUNITS
 70
     0
  9
$AUPREC
 70
     2
  9
$MENU
  1
.
  9
$ELEVATION
 40
0.0
  9
$PELEVATION
 40
0.0
  9
$THICKNESS
 40
0.0
  9
$LIMCHECK
 70
     0
  9
$CHAMFERA
 40
0.0
  9
$CHAMFERB
 40
0.0
  9
$CHAMFERC
 40
0.0
  9
$CHAMFERD
 40
0.0
  9
$SKPOLY
 70
     0
  9
$TDCREATE
 40
2459495.995063357
  9
$TDUCREATE
 40
2459496.161730023
  9
$TDUPDATE
 40
2459495.995173565
  9
$TDUUPDATE
 40
2459496.161840232
  9
$TDINDWG
 40
0.0000000116
  9
$TDUSRTIMER
 40
0.0000000116
  9
$USRTIMER
 70
     1
  9
$ANGBASE
 50
0.0
  9
$ANGDIR
 70
     0
  9
$PDMODE
 70
     0
  9
$PDSIZE
 40
-1.0
  9
$PLINEWID
 40
0.0
  9
$SPLFRAME
 70
     0
  9
$SPLINETYPE
 70
     6
  9
$SPLINESEGS
 70
     8
  9
$HANDSEED
  5
DB
  9
$SURFTAB1
 70
     6
  9
$SURFTAB2
 70
     6
  9
$SURFTYPE
 70
     6
  9
$SURFU
 70
     6
  9
$SURFV
 70
     6
  9
$UCSBASE
  2

  9
$UCSNAME
  2

  9
$UCSORG
 10
0.0
 20
0.0
 30
0.0
  9
$UCSXDIR
 10
1.0
 20
0.0
 30
0.0
  9
$UCSYDIR
 10
0.0
 20
1.0
 30
0.0
  9
$UCSORTHOREF
  2

  9
$UCSORTHOVIEW
 70
     0
  9
$UCSORGTOP
 10
0.0
 20
0.0
 30
0.0
  9
$UCSORGBOTTOM
 10
0.0
 20
0.0
 30
0.0
  9
$UCSORGLEFT
 10
0.0
 20
0.0
 30
0.0
  9
$UCSORGRIGHT
 10
0.0
 20
0.0
 30
0.0
  9
$UCSORGFRONT
 10
0.0
 20
0.0
 30
0.0
  9
$UCSORGBACK
 10
0.0
 20
0.0
 30
0.0
  9
$PUCSBASE
  2

  9
$PUCSNAME
  2

  9
$PUCSORG
 10
0.0
 20
0.0
 30
0.0
  9
$PUCSXDIR
 10
1.0
 20
0.0
 30
0.0
  9
$PUCSYDIR
 10
0.0
 20
1.0
 30
0.0
  9
$PUCSORTHOREF
  2

  9
$PUCSORTHOVIEW
 70
     0
  9
$PUCSORGTOP
 10
0.0
 20
0.0
 30
0.0
  9
$PUCSORGBOTTOM
 10
0.0
 20
0.0
 30
0.0
  9
$PUCSORGLEFT
 10
0.0
 20
0.0
 30
0.0
  9
$PUCSORGRIGHT
 10
0.0
 20
0.0
 30
0.0
  9
$PUCSORGFRONT
 10
0.0
 20
0.0
 30
0.0
  9
$PUCSORGBACK
 10
0.0
 20
0.0
 30
0.0
  9
$USERI1
 70
     0
  9
$USERI2
 70
     0
  9
$USERI3
 70
     0
  9
$USERI4
 70
     0
  9
$USERI5
 70
     0
  9
$USERR1
 40
0.0
  9
$USERR2
 40
0.0
  9
$USERR3
 40
0.0
  9
$USERR4
 40
0.0
  9
$USERR5
 40
0.0
  9
$WORLDVIEW
 70
     1
  9
$SHADEDGE
 70
     3
  9
$SHADEDIF
 70
    70
  9
$TILEMODE
 70
     1
  9
$MAXACTVP
 70
    64
  9
$PINSBASE
 10
0.0
 20
0.0
 30
0.0
  9
$PLIMCHECK
 70
     0
  9
$PEXTMIN
 10
1.0000000000E+20
 20
1.0000000000E+20
 30
1.0000000000E+20
  9
$PEXTMAX
 10
-1.0000000000E+20
 20
-1.0000000000E+20
 30
-1.0000000000E+20
  9
$PLIMMIN
 10
0.0
 20
0.0
  9
$PLIMMAX
 10
12.0
 20
9.0
  9
$UNITMODE
 70
     0
  9
$VISRETAIN
 70
     1
  9
$PLINEGEN
 70
     0
  9
$PSLTSCALE
 70
     1
  9
$TREEDEPTH
 70
  3020
  9
$CMLSTYLE
  2
Standard
  9
$CMLJUST
 70
     0
  9
$CMLSCALE
 40
1.0
  9
$PROXYGRAPHICS
 70
     1
  9
$MEASUREMENT
 70
     0
  9
$CELWEIGHT
370
    -1
  9
$ENDCAPS
280
     0
  9
$JOINSTYLE
280
     0
  9
$LWDISPLAY
290
     1
  9
$INSUNITS
 70
     1
  9
$HYPERLINKBASE
  1

  9
$STYLESHEET
  1

  9
$XEDIT
290
     1
  9
$CEPSNTYPE
380
     0
  9
$PSTYLEMODE
290
     1
  9
$FINGERPRINTGUID
  2
{aa1afa89-46c5-4913-b40f-092bffc3298c}
  9
$VERSIONGUID
  2
{FAEB1C32-E019-11D5-929B-00C0DF256EC4}
  9
$EXTNAMES
290
     1
  9
$PSVPSCALE
 40
0.0
  9
$OLESTARTUP
290
     0
  0
ENDSEC
  0
SECTION
  2
CLASSES
  0
CLASS
  1
ACDBDICTIONARYWDFLT
  2
AcDbDictionaryWithDefault
  3
ObjectDBX Classes
 90
        0
280
     0
281
     0
  0
CLASS
  1
VISUALSTYLE
  2
AcDbVisualStyle
  3
ObjectDBX Classes
 90
     4095
280
     0
281
     0
  0
CLASS
  1
MATERIAL
  2
AcDbMaterial
  3
ObjectDBX Classes
 90
     1153
280
     0
281
     0
  0
CLASS
  1
SCALE
  2
AcDbScale
  3
ObjectDBX Classes
 90
     1153
280
     0
281
     0
  0
CLASS
  1
TABLESTYLE
  2
AcDbTableStyle
  3
ObjectDBX Classes
 90
     4095
280
     0
281
     0
  0
CLASS
  1
MLEADERSTYLE
  2
AcDbMLeaderStyle
  3
ACDB_MLEADERSTYLE_CLASS
 90
     4095
280
     0
281
     0
  0
CLASS
  1
SUN
  2
AcDbSun
  3
SCENEOE
 90
     1153
280
     0
281
     0
  0
CLASS
  1
ACDBPLACEHOLDER
  2
AcDbPlaceHolder
  3
ObjectDBX Classes
 90
        0
280
     0
281
     0
  0
CLASS
  1
LAYOUT
  2
AcDbLayout
  3
ObjectDBX Classes
 90
        0
280
     0
281
     0
  0
ENDSEC
  0
SECTION
  2
TABLES
  0
TABLE
  2
VPORT
  5
8
330
0
100
AcDbSymbolTable
 70
     1
  0
VPORT
  5
29
330
8
100
AcDbSymbolTableRecord
100
AcDbViewportTableRecord
  2
*Active
 70
     0
 10
0.0
 20
0.0
 11
1.0
 21
1.0
 12
0.0
 22
0.0
 13
0.0
 23
0.0
 14
0.5
 24
0.5
 15
0.5
 25
0.5
 16
0.0
 26
0.0
 36
1.0
 17
0.0
 27
0.0
 37
0.0
 40
16.32
 41
0.4375
 42
50.0
 43
0.0
 44
0.0
 50
0.0
 51
0.0
 71
     0
 72
   100
 73
     1
 74
     3
 75
     0
 76
     0
 77
     0
 78
     0
281
     0
 65
     1
110
0.0
120
0.0
130
0.0
111
1.0
121
0.0
131
0.0
112
0.0
122
1.0
132
0.0
 79
     0
146
0.0
  0
ENDTAB
  0
TABLE
  2
LTYPE
  5
5
330
0
100
AcDbSymbolTable
 70
     6
  0
LTYPE
  5
14
330
5
100
AcDbSymbolTableRecord
100
AcDbLinetypeTableRecord
  2
ByBlock
 70
     0
  3

 72
    65
 73
     0
 40
0.0
  0
LTYPE
  5
15
330
5
100
AcDbSymbolTableRecord
100
AcDbLinetypeTableRecord
  2
ByLayer
 70
     0
  3

 72
    65
 73
     0
 40
0.0
  0
LTYPE
  5
16
330
5
100
AcDbSymbolTableRecord
100
AcDbLinetypeTableRecord
  2
Continuous
 70
     0
  3
Solid line
 72
    65
 73
     0
 40
0.0
  0
LTYPE
  5
6E
330
5
100
AcDbSymbolTableRecord
100
AcDbLinetypeTableRecord
  2
HIDDEN
 70
     0
  3
Hidden __ __ __ __ __ __ __ __ __ __ __ __ __ __
 72
    65
 73
     2
 40
0.075
 49
0.05
 74
     0
 49
-0.025
 74
     0
  0
LTYPE
  5
6F
330
5
100
AcDbSymbolTableRecord
100
AcDbLinetypeTableRecord
  2
PHANTOM
 70
     0
  3
Phantom ______  __  __  ______  __  __  ______
 72
    65
 73
     6
 40
0.5
 49
0.25
 74
     0
 49
-0.05
 74
     0
 49
0.05
 74
     0
 49
-0.05
 74
     0
 49
0.05
 74
     0
 49
-0.05
 74
     0
  0
LTYPE
  5
70
330
5
100
AcDbSymbolTableRecord
100
AcDbLinetypeTableRecord
  2
CENTER
 70
     0
  3
Center ____ _ ____ _ ____ _ ____ _ ____ _ ____
 72
    65
 73
     4
 40
0.4
 49
0.25
 74
     0
 49
-0.05
 74
     0
 49
0.05
 74
     0
 49
-0.05
 74
     0
  0
LTYPE
  5
71
330
5
100
AcDbSymbolTableRecord
100
AcDbLinetypeTableRecord
  2
CENTERX2
 70
     0
  3
Center (2x) ________  __  ________  __  _____
 72
    65
 73
     4
 40
0.8
 49
0.5
 74
     0
 49
-0.1
 74
     0
 49
0.1
 74
     0
 49
-0.1
 74
     0
  0
LTYPE
  5
72
330
5
100
AcDbSymbolTableRecord
100
AcDbLinetypeTableRecord
  2
DOT2
 70
     0
  3
Dot (.5x) ........................................
 72
    65
 73
     2
 40
0.025
 49
0.0
 74
     0
 49
-0.025
 74
     0
  0
ENDTAB
  0
TABLE
  2
LAYER
  5
2
330
0
100
AcDbSymbolTable
 70
     1
  0
LAYER
  5
10
330
2
100
AcDbSymbolTableRecord
100
AcDbLayerTableRecord
  2
0
 70
     0
 62
     7
  6
Continuous
370
    -3
390
F
  0
ENDTAB
  0
TABLE
  2
STYLE
  5
3
330
0
100
AcDbSymbolTable
 70
     2
  0
STYLE
  5
11
330
3
100
AcDbSymbolTableRecord
100
AcDbTextStyleTableRecord
  2
Standard
 70
     0
 40
0.0
 41
1.0
 50
0.0
 71
     0
 42
0.125
  3
txt
  4

  0
STYLE
  5
D7
330
3
100
AcDbSymbolTableRecord
100
AcDbTextStyleTableRecord
  2
SLDTEXTSTYLE0
 70
     0
 40
0.0
 41
0.7
 50
0.0
 71
     0
 42
0.125
  3
TXT
  4

  0
ENDTAB
  0
TABLE
  2
VIEW
  5
6
330
0
100
AcDbSymbolTable
 70
     0
  0
ENDTAB
  0
TABLE
  2
UCS
  5
7
330
0
100
AcDbSymbolTable
 70
     0
  0
ENDTAB
  0
TABLE
  2
APPID
  5
9
330
0
100
AcDbSymbolTable
 70
     1
  0
APPID
  5
12
330
9
100
AcDbSymbolTableRecord
100
AcDbRegAppTableRecord
  2
ACAD
 70
     0
  0
ENDTAB
  0
TABLE
  2
DIMSTYLE
  5
A
330
0
100
AcDbSymbolTable
 70
     1
100
AcDbDimStyleTable
  0
DIMSTYLE
105
27
330
A
100
AcDbSymbolTableRecord
100
AcDbDimStyleTableRecord
  2
Standard
 70
     0
178
     0
340
11
  0
ENDTAB
  0
TABLE
  2
BLOCK_RECORD
  5
1
330
0
100
AcDbSymbolTable
 70
     1
  0
BLOCK_RECORD
  5
1F
330
1
100
AcDbSymbolTableRecord
100
AcDbBlockTableRecord
  2
*Model_Space
340
22
  0
BLOCK_RECORD
  5
1B
330
1
100
AcDbSymbolTableRecord
100
AcDbBlockTableRecord
  2
*Paper_Space
340
1E
  0
BLOCK_RECORD
  5
23
330
1
100
AcDbSymbolTableRecord
100
AcDbBlockTableRecord
  2
*Paper_Space0
340
26
  0
ENDTAB
  0
ENDSEC
  0
SECTION
  2
BLOCKS
  0
BLOCK
  5
20
330
1F
100
AcDbEntity
  8
0
100
AcDbBlockBegin
  2
*Model_Space
 70
     0
 10
0.0
 20
0.0
 30
0.0
  3
*Model_Space
  1

  0
ENDBLK
  5
21
330
1F
100
AcDbEntity
  8
0
100
AcDbBlockEnd
  0
BLOCK
  5
1C
330
1B
100
AcDbEntity
 67
     1
  8
0
100
AcDbBlockBegin
  2
*Paper_Space
 70
     0
 10
0.0
 20
0.0
 30
0.0
  3
*Paper_Space
  1

  0
ENDBLK
  5
1D
330
1B
100
AcDbEntity
 67
     1
  8
0
100
AcDbBlockEnd
  0
BLOCK
  5
24
330
23
100
AcDbEntity
  8
0
100
AcDbBlockBegin
  2
*Paper_Space0
 70
     0
 10
0.0
 20
0.0
 30
0.0
  3
*Paper_Space0
  1

  0
ENDBLK
  5
25
330
23
100
AcDbEntity
  8
0
100
AcDbBlockEnd
  0
ENDSEC
  0
SECTION
  2
ENTITIES
  0
CIRCLE
  5
73
330
1F
100
AcDbEntity
  8
0
  6
Continuous
 62
     7
100
AcDbCircle
 10
0.0066608446
 20
7.85
 30
0.0
 40
0.0564999999999997
  0
CIRCLE
  5
74
330
1F
100
AcDbEntity
  8
0
  6
Continuous
 62
     7
100
AcDbCircle
 10
0.0066608446
 20
7.45
 30
0.0
 40
0.0532499999999987
  0
SPLINE
  5
7F
330
1F
100
AcDbEntity
  8
0
  6
Continuous
 62
     7
370
    25
100
AcDbSpline
210
0.0
220
0.0
230
1.0
 70
    11
 71
     3
 72
    50
 73
    46
 74
     0
 42
0.00000001
 43
0.00000001
 40
0.0
 40
0.0
 40
0.0
 40
0.0
 40
0.0625000000000011
 40
0.0625000000000011
 40
0.0937499999999971
 40
0.0937499999999971
 40
0.1249999999999931
 40
0.1249999999999931
 40
0.1874999999999938
 40
0.1874999999999938
 40
0.2499999999999944
 40
0.2499999999999944
 40
0.2812499999999946
 40
0.2812499999999946
 40
0.3124999999999947
 40
0.3124999999999947
 40
0.3749999999999928
 40
0.3749999999999928
 40
0.4374999999999909
 40
0.4374999999999909
 40
0.46874999999999
 40
0.46874999999999
 40
0.4999999999999891
 40
0.4999999999999891
 40
0.5624999999999872
 40
0.5624999999999872
 40
0.6249999999999853
 40
0.6249999999999853
 40
0.6562499999999853
 40
0.6562499999999853
 40
0.6874999999999852
 40
0.6874999999999852
 40
0.7187499999999851
 40
0.7187499999999851
 40
0.749999999999985
 40
0.749999999999985
 40
0.8124999999999869
 40
0.8124999999999869
 40
0.8437499999999896
 40
0.8437499999999896
 40
0.8749999999999922
 40
0.8749999999999922
 40
0.9374999999999962
 40
0.9374999999999962
 40
1.0
 40
1.0
 40
1.0
 40
1.0
 10
-3.000689396558752
 20
7.449999999999999
 30
0.0
 10
-3.000689396558752
 20
7.442963974161418
 30
0.0
 10
-3.001403154851529
 20
7.43605980687766
 30
0.0
 10
-3.003463174794954
 20
7.426386812684615
 30
0.0
 10
-3.004302947911222
 20
7.423328304074957
 30
0.0
 10
-3.006283774045273
 20
7.417539941148798
 30
0.0
 10
-3.007435288834595
 20
7.414799381268091
 30
0.0
 10
-3.011200890329475
 20
7.407431078688221
 30
0.0
 10
-3.014226845379502
 20
7.403463780014729
 30
0.0
 10
-3.020720032070746
 20
7.398152298753834
 30
0.0
 10
-3.024254271826948
 20
7.396753764579729
 30
0.0
 10
-3.029480693890336
 20
7.39674812939434
 30
0.0
 10
-3.03124557875269
 20
7.397093618250036
 30
0.0
 10
-3.034654075489991
 20
7.398451773443011
 30
0.0
 10
-3.036306407873862
 20
7.399456713100229
 30
0.0
 10
-3.041108982995565
 20
7.403454590456179
 30
0.0
 10
-3.044008490656393
 20
7.407359413440653
 30
0.0
 10
-3.048905138265123
 20
7.417294914670052
 30
0.0
 10
-3.050821112589329
 20
7.423156563545001
 30
0.0
 10
-3.052785011703266
 20
7.43283598242394
 30
0.0
 10
-3.053277514235474
 20
7.436155239560713
 30
0.0
 10
-3.053943694850007
 20
7.442977049786452
 30
0.0
 10
-3.054114341360524
 20
7.446506063199249
 30
0.0
 10
-3.054116142034409
 20
7.456931386740369
 30
0.0
 10
-3.053436599966862
 20
7.463936120016901
 30
0.0
 10
-3.050842116658827
 20
7.476756232316189
 30
0.0
 10
-3.04889914693198
 20
7.482702477762985
 30
0.0
 10
-3.045276843679912
 20
7.490074302621054
 30
0.0
 10
-3.043927584243594
 20
7.492324460747533
 30
0.0
 10
-3.041065054077119
 20
7.496197888614875
 30
0.0
 10
-3.039550764254062
 20
7.497835449011419
 30
0.0
 10
-3.036353566485978
 20
7.500510924829386
 30
0.0
 10
-3.034667877098184
 20
7.501540058043364
 30
0.0
 10
-3.031270678166315
 20
7.502899019311591
 30
0.0
 10
-3.029541360830923
 20
7.503246427944748
 30
0.0
 10
-3.024257188684995
 20
7.50325706269879
 30
0.0
 10
-3.020770122484651
 20
7.50188157379179
 30
0.0
 10
-3.015860367818207
 20
7.497875967845756
 30
0.0
 10
-3.014305891100181
 20
7.496242126761516
 30
0.0
 10
-3.011360741049093
 20
7.492386511011786
 30
0.0
 10
-3.009961110350169
 20
7.490139526074706
 30
0.0
 10
-3.006190141892217
 20
7.482771070574457
 30
0.0
 10
-3.004153080693771
 20
7.47683707511419
 30
0.0
 10
-3.001418012130719
 20
7.464025476079388
 30
0.0
 10
-3.000689396558752
 20
7.457036025838581
 30
0.0
 10
-3.000689396558752
 20
7.449999999999999
 30
0.0
  0
SPLINE
  5
80
330
1F
100
AcDbEntity
  8
0
  6
Continuous
 62
     7
370
    25
100
AcDbSpline
210
0.0
220
0.0
230
1.0
 70
     8
 71
     3
 72
    26
 73
    22
 74
     0
 42
0.00000001
 43
0.00000001
 40
0.0
 40
0.0
 40
0.0
 40
0.0
 40
0.0624999999999993
 40
0.0624999999999993
 40
0.1249999999999987
 40
0.1249999999999987
 40
0.2499999999999973
 40
0.2499999999999973
 40
0.374999999999996
 40
0.374999999999996
 40
0.4999999999999947
 40
0.4999999999999947
 40
0.6249999999999933
 40
0.6249999999999933
 40
0.749999999999992
 40
0.749999999999992
 40
0.8749999999999907
 40
0.8749999999999907
 40
0.9374999999999953
 40
0.9374999999999953
 40
1.0
 40
1.0
 40
1.0
 40
1.0
 10
-3.49948720396307
 20
7.449999999999999
 30
0.0
 10
-3.49948720396307
 20
7.445087950439956
 30
0.0
 10
-3.499498806160783
 20
7.440289506360438
 30
0.0
 10
-3.499542392507482
 20
7.430913923387854
 30
0.0
 10
-3.499574414059905
 20
7.42639374534704
 30
0.0
 10
-3.499687213166357
 20
7.413983500202746
 30
0.0
 10
-3.499786445738606
 20
7.407060230242555
 30
0.0
 10
-3.499939481009741
 20
7.398186372800699
 30
0.0
 10
-3.499991275030804
 20
7.396176675986776
 30
0.0
 10
-3.500006566481161
 20
7.397611145670159
 30
0.0
 10
-3.499969978350582
 20
7.401080312425376
 30
0.0
 10
-3.499860387481893
 20
7.412366025010185
 30
0.0
 10
-3.499789492112557
 20
7.420257227481521
 30
0.0
 10
-3.499697353650564
 20
7.438237945136858
 30
0.0
 10
-3.499678782343966
 20
7.448202755838224
 30
0.0
 10
-3.49971629523283
 20
7.467430072816817
 30
0.0
 10
-3.499772133932757
 20
7.476703413703515
 30
0.0
 10
-3.499863238576388
 20
7.487861107116567
 30
0.0
 10
-3.499894673587008
 20
7.491180505554869
 30
0.0
 10
-3.499948460840407
 20
7.496683673792386
 30
0.0
 10
-3.499970588893917
 20
7.498855538811124
 30
0.0
 10
-3.499984454392868
 20
7.500432228212959
 30
0.0
  0
SPLINE
  5
81
330
1F
100
AcDbEntity
  8
0
  6
Continuous
 62
     7
370
    25
100
AcDbSpline
210
0.0
220
0.0
230
1.0
 70
     8
 71
     3
 72
    13
 73
     9
 74
     0
 42
0.00000001
 43
0.00000001
 40
0.0
 40
0.0
 40
0.0
 40
0.0
 40
0.0812563338211536
 40
0.2798174001357869
 40
0.478384030586436
 40
0.6769733031245564
 40
0.8755684764396717
 40
1.0
 40
1.0
 40
1.0
 40
1.0
 10
-3.499989233186064
 20
7.502095227533767
 30
0.0
 10
-3.49999192745065
 20
7.502583561724844
 30
0.0
 10
-3.500001205522604
 20
7.504265207909447
 30
0.0
 10
-3.499920299818706
 20
7.500790061269448
 30
0.0
 10
-3.499769868016693
 20
7.492078087843356
 30
0.0
 10
-3.49960382636348
 20
7.478269564632251
 30
0.0
 10
-3.49950178433372
 20
7.463449353839287
 30
0.0
 10
-3.499491258548843
 20
7.453740066698282
 30
0.0
 10
-3.499487203963071
 20
7.449999999999998
 30
0.0
  0
SPLINE
  5
82
330
1F
100
AcDbEntity
  8
0
  6
Continuous
 62
     7
370
    25
100
AcDbSpline
210
0.0
220
0.0
230
1.0
 70
     8
 71
     3
 72
    12
 73
     8
 74
     0
 42
0.00000001
 43
0.00000001
 40
0.0
 40
0.0
 40
0.0
 40
0.0
 40
0.1462555804236045
 40
0.4167229450387688
 40
0.6871699645955204
 40
0.9576070725456269
 40
1.0
 40
1.0
 40
1.0
 40
1.0
 10
-1.718812580950281
 20
7.419268310083443
 30
0.0
 10
-1.717077299026102
 20
7.421823934780217
 30
0.0
 10
-1.712132996785996
 20
7.429105622405188
 30
0.0
 10
-1.708936514373517
 20
7.444458829822594
 30
0.0
 10
-1.71007595466228
 20
7.462218523659735
 30
0.0
 10
-1.713767685296323
 20
7.475082529492731
 30
0.0
 10
-1.717902864798306
 20
7.48009746490913
 30
0.0
 10
-1.718463240544873
 20
7.480777060118143
 30
0.0
  0
SPLINE
  5
83
330
1F
100
AcDbEntity
  8
0
  6
Continuous
 62
     7
370
    25
100
AcDbSpline
210
0.0
220
0.0
230
1.0
 70
     8
 71
     3
 72
    16
 73
    12
 74
     0
 42
0.00000001
 43
0.00000001
 40
0.0
 40
0.0
 40
0.0
 40
0.0
 40
0.113397386317816
 40
0.2301897573730795
 40
0.3469930072025384
 40
0.463798422635646
 40
0.5805950517480702
 40
0.6973874003835006
 40
0.8141872664397759
 40
0.9309935925626233
 40
0.9999999999999999
 40
0.9999999999999999
 40
0.9999999999999999
 40
0.9999999999999999
 10
3.499998813570715
 20
7.397253628456125
 30
0.0
 10
3.49999075001843
 20
7.398499321314546
 30
0.0
 10
3.499974381500564
 20
7.401028001614439
 30
0.0
 10
3.499861041304085
 20
7.411906205487291
 30
0.0
 10
3.499746460080503
 20
7.42672655412909
 30
0.0
 10
3.499680113594663
 20
7.444298971150118
 30
0.0
 10
3.499696063759604
 20
7.462461921575171
 30
0.0
 10
3.499787239737784
 20
7.479298623660319
 30
0.0
 10
3.499904787967936
 20
7.492567893934852
 30
0.0
 10
3.49999301629953
 20
7.50073008863458
 30
0.0
 10
3.499990257673739
 20
7.501725540505092
 30
0.0
 10
3.499989233186064
 20
7.50209522753377
 30
0.0
  0
SPLINE
  5
84
330
1F
100
AcDbEntity
  8
0
  6
Continuous
 62
     7
370
    25
100
AcDbSpline
210
0.0
220
0.0
230
1.0
 70
    11
 71
     3
 72
    50
 73
    46
 74
     0
 42
0.00000001
 43
0.00000001
 40
0.0
 40
0.0
 40
0.0
 40
0.0
 40
0.0625000000000011
 40
0.0625000000000011
 40
0.0937499999999971
 40
0.0937499999999971
 40
0.1249999999999932
 40
0.1249999999999932
 40
0.1874999999999907
 40
0.1874999999999907
 40
0.2499999999999882
 40
0.2499999999999882
 40
0.2812499999999892
 40
0.2812499999999892
 40
0.3124999999999903
 40
0.3124999999999903
 40
0.3749999999999901
 40
0.3749999999999901
 40
0.4374999999999898
 40
0.4374999999999898
 40
0.4687499999999892
 40
0.4687499999999892
 40
0.4999999999999887
 40
0.4999999999999887
 40
0.5624999999999876
 40
0.5624999999999876
 40
0.6249999999999865
 40
0.6249999999999865
 40
0.6562499999999866
 40
0.6562499999999866
 40
0.6874999999999867
 40
0.6874999999999867
 40
0.7187499999999868
 40
0.7187499999999868
 40
0.7499999999999869
 40
0.7499999999999869
 40
0.8124999999999897
 40
0.8124999999999897
 40
0.8437499999999919
 40
0.8437499999999919
 40
0.8749999999999941
 40
0.8749999999999941
 40
0.9374999999999971
 40
0.9374999999999971
 40
1.0
 40
1.0
 40
1.0
 40
1.0
 10
3.060600241142421
 20
7.450000000000001
 30
0.0
 10
3.06060024114242
 20
7.442963974161422
 30
0.0
 10
3.059928849450224
 20
7.436059806877663
 30
0.0
 10
3.057979658259018
 20
7.426386812684614
 30
0.0
 10
3.057183836399919
 20
7.42332830407496
 30
0.0
 10
3.055300449413817
 20
7.417539941148798
 30
0.0
 10
3.054202815011275
 20
7.41479938126809
 30
0.0
 10
3.050598828681555
 20
7.407431078688218
 30
0.0
 10
3.047684156700611
 20
7.403463780014728
 30
0.0
 10
3.041362517316965
 20
7.398152298753833
 30
0.0
 10
3.037889488094836
 20
7.396753764579725
 30
0.0
 10
3.032697556229136
 20
7.396748129394338
 30
0.0
 10
3.030935109191097
 20
7.397093618250033
 30
0.0
 10
3.027514021928462
 20
7.398451773443011
 30
0.0
 10
3.025846920073346
 20
7.399456713100228
 30
0.0
 10
3.020978861252702
 20
7.40345459045618
 30
0.0
 10
3.01800818254392
 20
7.407359413440653
 30
0.0
 10
3.012959083042225
 20
7.417294914670053
 30
0.0
 10
3.010965426058581
 20
7.423156563545002
 30
0.0
 10
3.008917074265628
 20
7.432835982423939
 30
0.0
 10
3.008402120221661
 20
7.436155239560716
 30
0.0
 10
3.007705206255497
 20
7.44297704978645
 30
0.0
 10
3.007526418055249
 20
7.446506063199249
 30
0.0
 10
3.007524532382718
 20
7.456931386740364
 30
0.0
 10
3.008237441373065
 20
7.4639361200169
 30
0.0
 10
3.0109435432593
 20
7.476756232316187
 30
0.0
 10
3.012965122596517
 20
7.482702477762984
 30
0.0
 10
3.016700408687043
 20
7.490074302621053
 30
0.0
 10
3.018087093932481
 20
7.492324460747533
 30
0.0
 10
3.021015379477525
 20
7.496197888614871
 30
0.0
 10
3.022558179442862
 20
7.497835449011418
 30
0.0
 10
3.025799261429219
 20
7.500510924829381
 30
0.0
 10
3.027500103197892
 20
7.501540058043364
 30
0.0
 10
3.030909982451681
 20
7.502899019311588
 30
0.0
 10
3.032637144969625
 20
7.503246427944749
 30
0.0
 10
3.037886874786673
 20
7.503257062698791
 30
0.0
 10
3.041313603333623
 20
7.501881573791797
 30
0.0
 10
3.046093863929201
 20
7.497875967845755
 30
0.0
 10
3.047599723392196
 20
7.496242126761517
 30
0.0
 10
3.0504412402569
 20
7.492386511011786
 30
0.0
 10
3.051785366808125
 20
7.490139526074702
 30
0.0
 10
3.055394585124492
 20
7.482771070574458
 30
0.0
 10
3.05732684654506
 20
7.476837075114188
 30
0.0
 10
3.05991481398614
 20
7.464025476079388
 30
0.0
 10
3.060600241142421
 20
7.45703602583858
 30
0.0
 10
3.060600241142421
 20
7.450000000000001
 30
0.0
  0
SPLINE
  5
85
330
1F
100
AcDbEntity
  8
0
  6
Continuous
 62
     7
370
    25
100
AcDbSpline
210
0.0
220
0.0
230
1.0
 70
    11
 71
     3
 72
    50
 73
    46
 74
     0
 42
0.00000001
 43
0.00000001
 40
0.0
 40
0.0
 40
0.0
 40
0.0
 40
0.0625000000000044
 40
0.0625000000000044
 40
0.0937500000000012
 40
0.0937500000000012
 40
0.124999999999998
 40
0.124999999999998
 40
0.1874999999999988
 40
0.1874999999999988
 40
0.2499999999999996
 40
0.2499999999999996
 40
0.28125
 40
0.28125
 40
0.3125000000000004
 40
0.3125000000000004
 40
0.374999999999999
 40
0.374999999999999
 40
0.4374999999999976
 40
0.4374999999999976
 40
0.4687499999999973
 40
0.4687499999999973
 40
0.4999999999999971
 40
0.4999999999999971
 40
0.5624999999999966
 40
0.5624999999999966
 40
0.6249999999999961
 40
0.6249999999999961
 40
0.6562499999999959
 40
0.6562499999999959
 40
0.6874999999999956
 40
0.6874999999999956
 40
0.7187499999999953
 40
0.7187499999999953
 40
0.7499999999999951
 40
0.7499999999999951
 40
0.8124999999999967
 40
0.8124999999999967
 40
0.8437499999999972
 40
0.8437499999999972
 40
0.8749999999999978
 40
0.8749999999999978
 40
0.9374999999999989
 40
0.9374999999999989
 40
1.0
 40
1.0
 40
1.0
 40
1.0
 10
1.801627915353156
 20
7.449999999999998
 30
0.0
 10
1.801627915353155
 20
7.442963974161418
 30
0.0
 10
1.800440570462242
 20
7.436059806877669
 30
0.0
 10
1.797000485275481
 20
7.426386812684616
 30
0.0
 10
1.795596706111589
 20
7.42332830407496
 30
0.0
 10
1.792278327643049
 20
7.417539941148797
 30
0.0
 10
1.7903460612339
 20
7.414799381268094
 30
0.0
 10
1.78401046524193
 20
7.407431078688219
 30
0.0
 10
1.778897855973643
 20
7.403463780014727
 30
0.0
 10
1.767849412489821
 20
7.398152298753836
 30
0.0
 10
1.761798609502598
 20
7.396753764579725
 30
0.0
 10
1.752786006796853
 20
7.396748129394339
 30
0.0
 10
1.749731951502794
 20
7.397093618250034
 30
0.0
 10
1.743813723689973
 20
7.398451773443011
 30
0.0
 10
1.740934745733721
 20
7.399456713100228
 30
0.0
 10
1.732540827553343
 20
7.403454590456179
 30
0.0
 10
1.727436551720463
 20
7.407359413440654
 30
0.0
 10
1.718779272992498
 20
7.417294914670056
 30
0.0
 10
1.715371007908298
 20
7.423156563544996
 30
0.0
 10
1.711871917308094
 20
7.432835982423939
 30
0.0
 10
1.710992953126738
 20
7.436155239560716
 30
0.0
 10
1.709803606637676
 20
7.442977049786449
 30
0.0
 10
1.70949863699781
 20
7.446506063199249
 30
0.0
 10
1.70949541999117
 20
7.456931386740367
 30
0.0
 10
1.710710950181765
 20
7.463936120016898
 30
0.0
 10
1.715333613123012
 20
7.476756232316188
 30
0.0
 10
1.718789705966897
 20
7.482702477762981
 30
0.0
 10
1.725194180584293
 20
7.490074302621055
 30
0.0
 10
1.727574382082529
 20
7.492324460747533
 30
0.0
 10
1.732608357540096
 20
7.496197888614875
 30
0.0
 10
1.735264105127654
 20
7.497835449011422
 30
0.0
 10
1.740852487234291
 20
7.500510924829385
 30
0.0
 10
1.743789683362084
 20
7.501540058043362
 30
0.0
 10
1.749688446490051
 20
7.502899019311588
 30
0.0
 10
1.752681223808489
 20
7.503246427944749
 30
0.0
 10
1.761793907865477
 20
7.503257062698789
 30
0.0
 10
1.76776401177297
 20
7.5018815737918
 30
0.0
 10
1.776118429434605
 20
7.49787596784576
 30
0.0
 10
1.778754723718849
 20
7.496242126761516
 30
0.0
 10
1.783736207947139
 20
7.492386511011784
 30
0.0
 10
1.786096348760277
 20
7.4901395260747
 30
0.0
 10
1.792441084747618
 20
7.482771070574458
 30
0.0
 10
1.795848365881515
 20
7.476837075114192
 30
0.0
 10
1.800415785850168
 20
7.464025476079387
 30
0.0
 10
1.801627915353156
 20
7.457036025838579
 30
0.0
 10
1.801627915353156
 20
7.449999999999999
 30
0.0
  0
SPLINE
  5
86
330
1F
100
AcDbEntity
  8
0
  6
Continuous
 62
     7
370
    25
100
AcDbSpline
210
0.0
220
0.0
230
1.0
 70
    11
 71
     3
 72
    50
 73
    46
 74
     0
 42
0.00000001
 43
0.00000001
 40
0.0
 40
0.0
 40
0.0
 40
0.0
 40
0.0625000000000002
 40
0.0625000000000002
 40
0.0937499999999958
 40
0.0937499999999958
 40
0.1249999999999914
 40
0.1249999999999914
 40
0.1874999999999927
 40
0.1874999999999927
 40
0.249999999999994
 40
0.249999999999994
 40
0.2812499999999947
 40
0.2812499999999947
 40
0.3124999999999953
 40
0.3124999999999953
 40
0.3749999999999966
 40
0.3749999999999966
 40
0.4374999999999979
 40
0.4374999999999979
 40
0.4687499999999986
 40
0.4687499999999986
 40
0.4999999999999992
 40
0.4999999999999992
 40
0.5625000000000003
 40
0.5625000000000003
 40
0.6250000000000016
 40
0.6250000000000016
 40
0.6562500000000021
 40
0.6562500000000021
 40
0.6875000000000027
 40
0.6875000000000027
 40
0.7187500000000032
 40
0.7187500000000032
 40
0.7500000000000038
 40
0.7500000000000038
 40
0.8125000000000049
 40
0.8125000000000049
 40
0.8437500000000046
 40
0.8437500000000046
 40
0.8750000000000042
 40
0.8750000000000042
 40
0.9375000000000021
 40
0.9375000000000021
 40
1.0
 40
1.0
 40
1.0
 40
1.0
 10
-1.697859288609879
 20
7.449999999999999
 30
0.0
 10
-1.697859288609879
 20
7.442963974161424
 30
0.0
 10
-1.699071093869043
 20
7.436059806877663
 30
0.0
 10
-1.702575166065732
 20
7.426386812684615
 30
0.0
 10
-1.704004320499782
 20
7.423328304074956
 30
0.0
 10
-1.707378955486619
 20
7.417539941148798
 30
0.0
 10
-1.709342329751581
 20
7.414799381268091
 30
0.0
 10
-1.71577123430266
 20
7.407431078688217
 30
0.0
 10
-1.720948092880838
 20
7.403463780014725
 30
0.0
 10
-1.732095579248882
 20
7.398152298753833
 30
0.0
 10
-1.738181722154428
 20
7.396753764579725
 30
0.0
 10
-1.747214237785093
 20
7.396748129394338
 30
0.0
 10
-1.750269700557675
 20
7.397093618250033
 30
0.0
 10
-1.756180659227306
 20
7.398451773443012
 30
0.0
 10
-1.759051110025359
 20
7.399456713100232
 30
0.0
 10
-1.767407221174526
 20
7.403454590456183
 30
0.0
 10
-1.772470406383711
 20
7.407359413440654
 30
0.0
 10
-1.781039666970234
 20
7.417294914670052
 30
0.0
 10
-1.784403081950096
 20
7.423156563544993
 30
0.0
 10
-1.787853413773336
 20
7.432835982423936
 30
0.0
 10
-1.788719415568335
 20
7.436155239560716
 30
0.0
 10
-1.789891018148559
 20
7.442977049786448
 30
0.0
 10
-1.790191287181669
 20
7.44650606319925
 30
0.0
 10
-1.790194455114317
 20
7.456931386740367
 30
0.0
 10
-1.78899818932558
 20
7.463936120016896
 30
0.0
 10
-1.784439969400507
 20
7.476756232316188
 30
0.0
 10
-1.78102926183633
 20
7.482702477762986
 30
0.0
 10
-1.774690017891132
 20
7.490074302621054
 30
0.0
 10
-1.772331424193863
 20
7.492324460747532
 30
0.0
 10
-1.767335412621814
 20
7.496197888614875
 30
0.0
 10
-1.764696125372577
 20
7.497835449011421
 30
0.0
 10
-1.759133079831173
 20
7.500510924829386
 30
0.0
 10
-1.756204631934561
 20
7.501540058043362
 30
0.0
 10
-1.750313189793869
 20
7.502899019311588
 30
0.0
 10
-1.747319168390996
 20
7.503246427944749
 30
0.0
 10
-1.738186599046156
 20
7.503257062698791
 30
0.0
 10
-1.732181659178236
 20
7.501881573791792
 30
0.0
 10
-1.723752478079927
 20
7.49787596784576
 30
0.0
 10
-1.721088114610404
 20
7.496242126761512
 30
0.0
 10
-1.716046797734058
 20
7.492386511011786
 30
0.0
 10
-1.713654611586305
 20
7.490139526074702
 30
0.0
 10
-1.707216489111177
 20
7.482771070574458
 30
0.0
 10
-1.703748701797313
 20
7.47683707511419
 30
0.0
 10
-1.69909635295629
 20
7.464025476079386
 30
0.0
 10
-1.697859288609879
 20
7.457036025838574
 30
0.0
 10
-1.697859288609879
 20
7.449999999999999
 30
0.0
  0
SPLINE
  5
87
330
1F
100
AcDbEntity
  8
0
  6
Continuous
 62
     7
370
    25
100
AcDbSpline
210
0.0
220
0.0
230
1.0
 70
    11
 71
     3
 72
    54
 73
    50
 74
     0
 42
0.00000001
 43
0.00000001
 40
0.0
 40
0.0
 40
0.0
 40
0.0
 40
0.0312499999999988
 40
0.0312499999999988
 40
0.0624999999999976
 40
0.0624999999999976
 40
0.0937499999999963
 40
0.0937499999999963
 40
0.1249999999999951
 40
0.1249999999999951
 40
0.1874999999999927
 40
0.1874999999999927
 40
0.2499999999999902
 40
0.2499999999999902
 40
0.2812499999999902
 40
0.2812499999999902
 40
0.3124999999999901
 40
0.3124999999999901
 40
0.3437499999999901
 40
0.3437499999999901
 40
0.37499999999999
 40
0.37499999999999
 40
0.4374999999999915
 40
0.4374999999999915
 40
0.4687499999999926
 40
0.4687499999999926
 40
0.4999999999999938
 40
0.4999999999999938
 40
0.562499999999996
 40
0.562499999999996
 40
0.6249999999999982
 40
0.6249999999999982
 40
0.6562499999999961
 40
0.6562499999999961
 40
0.687499999999994
 40
0.687499999999994
 40
0.7187499999999919
 40
0.7187499999999919
 40
0.7499999999999898
 40
0.7499999999999898
 40
0.8124999999999878
 40
0.8124999999999878
 40
0.8437499999999888
 40
0.8437499999999888
 40
0.8749999999999898
 40
0.8749999999999898
 40
0.9374999999999949
 40
0.9374999999999949
 40
1.0
 40
1.0
 40
1.0
 40
1.0
 10
-2.999014903841887
 20
7.850000000000001
 30
0.0
 10
-2.999014903841887
 20
7.846267265373573
 30
0.0
 10
-2.999203813621939
 20
7.842596922111886
 30
0.0
 10
-2.999943424089032
 20
7.835375910710386
 30
0.0
 10
-3.000503090480773
 20
7.831787849905754
 30
0.0
 10
-3.001962364682934
 20
7.824945612030227
 30
0.0
 10
-3.002854640208325
 20
7.821700437592625
 30
0.0
 10
-3.004959103771913
 20
7.815558801428999
 30
0.0
 10
-3.006182400368668
 20
7.812650986430877
 30
0.0
 10
-3.010182262552431
 20
7.804832995820624
 30
0.0
 10
-3.013395861424538
 20
7.800623564395878
 30
0.0
 10
-3.020289524339041
 20
7.794987900978779
 30
0.0
 10
-3.024040705959791
 20
7.793503999010313
 30
0.0
 10
-3.029586127267791
 20
7.793498012921047
 30
0.0
 10
-3.03145843555018
 20
7.793864587571858
 30
0.0
 10
-3.035073829962108
 20
7.795305634451655
 30
0.0
 10
-3.036826179020824
 20
7.796371909230584
 30
0.0
 10
-3.040221210563979
 20
7.799199834347567
 30
0.0
 10
-3.04185918476814
 20
7.800968779448052
 30
0.0
 10
-3.044883534183001
 20
7.805058020803783
 30
0.0
 10
-3.046289636062331
 20
7.807392406643953
 30
0.0
 10
-3.050181770786186
 20
7.815298837954126
 30
0.0
 10
-3.052211742723453
 20
7.82151822518705
 30
0.0
 10
-3.054292339186966
 20
7.83178838693226
 30
0.0
 10
-3.05481406733049
 20
7.835310227816532
 30
0.0
 10
-3.055519768818892
 20
7.842548408757254
 30
0.0
 10
-3.055700529739073
 20
7.846292813808542
 30
0.0
 10
-3.055702437318768
 20
7.857354433243759
 30
0.0
 10
-3.054982647362022
 20
7.864786702899786
 30
0.0
 10
-3.052233992003154
 20
7.878389265616799
 30
0.0
 10
-3.05017540901001
 20
7.88469841337658
 30
0.0
 10
-3.046336469073116
 20
7.892520160544582
 30
0.0
 10
-3.044906362136903
 20
7.894907653749823
 30
0.0
 10
-3.041871879741775
 20
7.899017474976879
 30
0.0
 10
-3.040266418728461
 20
7.900754981506005
 30
0.0
 10
-3.036876185345336
 20
7.903593756664243
 30
0.0
 10
-3.035088468281764
 20
7.904685697756292
 30
0.0
 10
-3.03148506376829
 20
7.906127599683167
 30
0.0
 10
-3.029650494957858
 20
7.906496212860918
 30
0.0
 10
-3.02404379187488
 20
7.906507488031072
 30
0.0
 10
-3.020342684021481
 20
7.905048027683243
 30
0.0
 10
-3.015130137508285
 20
7.900797954571148
 30
0.0
 10
-3.013479542424542
 20
7.899064397338003
 30
0.0
 10
-3.010351902837791
 20
7.894973455590666
 30
0.0
 10
-3.008865349508282
 20
7.892589334557031
 30
0.0
 10
-3.004859797509438
 20
7.88477119577465
 30
0.0
 10
-3.0026954358099
 20
7.878475035154657
 30
0.0
 10
-2.999789241919245
 20
7.864881524209345
 30
0.0
 10
-2.999014903841887
 20
7.857465469252857
 30
0.0
 10
-2.999014903841887
 20
7.850000000000001
 30
0.0
  0
SPLINE
  5
88
330
1F
100
AcDbEntity
  8
0
  6
Continuous
 62
     7
370
    25
100
AcDbSpline
210
0.0
220
0.0
230
1.0
 70
     8
 71
     3
 72
    30
 73
    26
 74
     0
 42
0.00000001
 43
0.00000001
 40
0.0
 40
0.0
 40
0.0
 40
0.0
 40
0.0624999999999978
 40
0.0624999999999978
 40
0.1249999999999955
 40
0.1249999999999955
 40
0.249999999999991
 40
0.249999999999991
 40
0.3749999999999864
 40
0.3749999999999864
 40
0.4374999999999841
 40
0.4374999999999841
 40
0.4999999999999818
 40
0.4999999999999818
 40
0.5624999999999796
 40
0.5624999999999796
 40
0.6249999999999774
 40
0.6249999999999774
 40
0.7499999999999849
 40
0.7499999999999849
 40
0.8749999999999925
 40
0.8749999999999925
 40
0.9374999999999962
 40
0.9374999999999962
 40
1.0
 40
1.0
 40
1.0
 40
1.0
 10
-3.499430054696261
 20
7.85
 30
0.0
 10
-3.499430054696261
 20
7.844788170949631
 30
0.0
 10
-3.499443034268352
 20
7.839696882968886
 30
0.0
 10
-3.499491779183598
 20
7.829749121308516
 30
0.0
 10
-3.499527585770428
 20
7.824953089342024
 30
0.0
 10
-3.499653640698448
 20
7.811785473667095
 30
0.0
 10
-3.499764438040402
 20
7.804439687955927
 30
0.0
 10
-3.499934593041533
 20
7.795024178648036
 30
0.0
 10
-3.499991690651424
 20
7.792891743073987
 30
0.0
 10
-3.500002804312282
 20
7.794033113259767
 30
0.0
 10
-3.49999477222343
 20
7.795125991656179
 30
0.0
 10
-3.499959958199019
 20
7.798633629689778
 30
0.0
 10
-3.499932819582165
 20
7.801087920313319
 30
0.0
 10
-3.499870162223103
 20
7.807075047007903
 30
0.0
 10
-3.49983385278426
 20
7.810697016233727
 30
0.0
 10
-3.499765019949578
 20
7.818738651079609
 30
0.0
 10
-3.499732071338952
 20
7.823210764380168
 30
0.0
 10
-3.499653568923935
 20
7.837519198621406
 30
0.0
 10
-3.4996325039004
 20
7.848092133978875
 30
0.0
 10
-3.499675082881393
 20
7.868492924954711
 30
0.0
 10
-3.499738457649023
 20
7.878332269743445
 30
0.0
 10
-3.499842171004304
 20
7.890171068222624
 30
0.0
 10
-3.499878010082496
 20
7.893693117262035
 30
0.0
 10
-3.499939554793968
 20
7.899532304524637
 30
0.0
 10
-3.499965001169534
 20
7.901836814731589
 30
0.0
 10
-3.499981185688704
 20
7.903509839230416
 30
0.0
  0
SPLINE
  5
89
330
1F
100
AcDbEntity
  8
0
  6
Continuous
 62
     7
370
    25
100
AcDbSpline
210
0.0
220
0.0
230
1.0
 70
     8
 71
     3
 72
    13
 73
     9
 74
     0
 42
0.00000001
 43
0.00000001
 40
0.0
 40
0.0
 40
0.0
 40
0.0
 40
0.0772664773274271
 40
0.2766839638957282
 40
0.4761073885094394
 40
0.6755562560247362
 40
0.8750119971401472
 40
1.0
 40
1.0
 40
1.0
 40
1.0
 10
-3.499988100898823
 20
7.905339608189902
 30
0.0
 10
-3.499991191570747
 20
7.905826383650329
 30
0.0
 10
-3.500002258975253
 20
7.907569480638528
 30
0.0
 10
-3.499913217316418
 20
7.903881197906259
 30
0.0
 10
-3.49974600733037
 20
7.894649816968959
 30
0.0
 10
-3.499560493351739
 20
7.879995858546201
 30
0.0
 10
-3.499446370584334
 20
7.864271518302702
 30
0.0
 10
-3.499434592182274
 20
7.853968942076285
 30
0.0
 10
-3.499430054696261
 20
7.850000000000001
 30
0.0
  0
SPLINE
  5
8A
330
1F
100
AcDbEntity
  8
0
  6
Continuous
 62
     7
370
    25
100
AcDbSpline
210
0.0
220
0.0
230
1.0
 70
     8
 71
     3
 72
    12
 73
     8
 74
     0
 42
0.00000001
 43
0.00000001
 40
0.0
 40
0.0
 40
0.0
 40
0.0
 40
0.1817437946747477
 40
0.4233265739990502
 40
0.6648885226008812
 40
0.9064403721775222
 40
1.0
 40
1.0
 40
1.0
 40
1.0
 10
-1.718557376150092
 20
7.814105706086433
 30
0.0
 10
-1.715955364783499
 20
7.817853423843501
 30
0.0
 10
-1.709894632094947
 20
7.826582792135018
 30
0.0
 10
-1.706040577730678
 20
7.844068036845938
 30
0.0
 10
-1.707203022315948
 20
7.863045685979451
 30
0.0
 10
-1.711844365909474
 20
7.877867026345213
 30
0.0
 10
-1.717235056102594
 20
7.884139173164461
 30
0.0
 10
-1.718740080556215
 20
7.88589029111068
 30
0.0
  0
SPLINE
  5
8B
330
1F
100
AcDbEntity
  8
0
  6
Continuous
 62
     7
370
    25
100
AcDbSpline
210
0.0
220
0.0
230
1.0
 70
     8
 71
     3
 72
    16
 73
    12
 74
     0
 42
0.00000001
 43
0.00000001
 40
0.0
 40
0.0
 40
0.0
 40
0.0
 40
0.1154073868368079
 40
0.2316009659016244
 40
0.3478067975926231
 40
0.4640149387216289
 40
0.5802130596846962
 40
0.6964063227313678
 40
0.8126081206184506
 40
0.9288173345011119
 40
1.0
 40
1.0
 40
1.0
 40
1.0
 10
3.49999968274962
 20
7.793915489559577
 30
0.0
 10
3.499989736397138
 20
7.795263100081343
 30
0.0
 10
3.499969775934424
 20
7.79796750148107
 30
0.0
 10
3.499839666267948
 20
7.809576506700326
 30
0.0
 10
3.499709310385655
 20
7.825306401908505
 30
0.0
 10
3.49963402188605
 20
7.843949662424142
 30
0.0
 10
3.499652120268612
 20
7.863222059247578
 30
0.0
 10
3.499755604016884
 20
7.881083973365624
 30
0.0
 10
3.49988957921952
 20
7.895171757762943
 30
0.0
 10
3.499991042201649
 20
7.903877841276184
 30
0.0
 10
3.499988910606426
 20
7.904937200190678
 30
0.0
 10
3.499988100898823
 20
7.905339608189905
 30
0.0
  0
SPLINE
  5
8C
330
1F
100
AcDbEntity
  8
0
  6
Continuous
 62
     7
370
    25
100
AcDbSpline
210
0.0
220
0.0
230
1.0
 70
    11
 71
     3
 72
    54
 73
    50
 74
     0
 42
0.00000001
 43
0.00000001
 40
0.0
 40
0.0
 40
0.0
 40
0.0
 40
0.0312500000000024
 40
0.0312500000000024
 40
0.0625000000000047
 40
0.0625000000000047
 40
0.0937500000000071
 40
0.0937500000000071
 40
0.1250000000000095
 40
0.1250000000000095
 40
0.1875000000000142
 40
0.1875000000000142
 40
0.2500000000000189
 40
0.2500000000000189
 40
0.2812500000000192
 40
0.2812500000000192
 40
0.3125000000000193
 40
0.3125000000000193
 40
0.3437500000000195
 40
0.3437500000000195
 40
0.3750000000000197
 40
0.3750000000000197
 40
0.4375000000000218
 40
0.4375000000000218
 40
0.4687500000000224
 40
0.4687500000000224
 40
0.500000000000023
 40
0.500000000000023
 40
0.5625000000000242
 40
0.5625000000000242
 40
0.6250000000000253
 40
0.6250000000000253
 40
0.6562500000000234
 40
0.6562500000000234
 40
0.6875000000000214
 40
0.6875000000000214
 40
0.7187500000000194
 40
0.7187500000000194
 40
0.7500000000000174
 40
0.7500000000000174
 40
0.8125000000000132
 40
0.8125000000000132
 40
0.84375000000001
 40
0.84375000000001
 40
0.8750000000000069
 40
0.8750000000000069
 40
0.9375000000000034
 40
0.9375000000000034
 40
1.0
 40
1.0
 40
1.0
 40
1.0
 10
3.062175748425557
 20
7.849999999999998
 30
0.0
 10
3.062175748425557
 20
7.846267265373571
 30
0.0
 10
3.061998383241023
 20
7.842596922111888
 30
0.0
 10
3.061302867018715
 20
7.835375910710391
 30
0.0
 10
3.060776268343124
 20
7.831787849905755
 30
0.0
 10
3.059399604708772
 20
7.824945612030225
 30
0.0
 10
3.058556460552868
 20
7.821700437592627
 30
0.0
 10
3.056560869318782
 20
7.815558801428997
 30
0.0
 10
3.055397751055447
 20
7.812650986430882
 30
0.0
 10
3.051578261526465
 20
7.804832995820627
 30
0.0
 10
3.048488676369621
 20
7.800623564395877
 30
0.0
 10
3.04178540491456
 20
7.794987900978777
 30
0.0
 10
3.038101638078449
 20
7.793503999010311
 30
0.0
 10
3.032592821886273
 20
7.79349801292105
 30
0.0
 10
3.03072250518745
 20
7.793864587571856
 30
0.0
 10
3.027091478673643
 20
7.795305634451654
 30
0.0
 10
3.025321793704173
 20
7.796371909230588
 30
0.0
 10
3.021876238492529
 20
7.799199834347569
 30
0.0
 10
3.020204936124026
 20
7.80096877944805
 30
0.0
 10
3.017105685422714
 20
7.805058020803788
 30
0.0
 10
3.015657736045611
 20
7.807392406643958
 30
0.0
 10
3.011635286336154
 20
7.815298837954129
 30
0.0
 10
3.009517024835408
 20
7.821518225187055
 30
0.0
 10
3.007340494877805
 20
7.831788386932265
 30
0.0
 10
3.006793275595309
 20
7.835310227816533
 30
0.0
 10
3.006052683231742
 20
7.842548408757251
 30
0.0
 10
3.005862681737369
 20
7.846292813808546
 30
0.0
 10
3.005860677671117
 20
7.857354433243757
 30
0.0
 10
3.006618329711094
 20
7.86478670289979
 30
0.0
 10
3.009493777293231
 20
7.8783892656168
 30
0.0
 10
3.011641705246543
 20
7.884698413376583
 30
0.0
 10
3.015609411602089
 20
7.892520160544578
 30
0.0
 10
3.017082236429804
 20
7.894907653749818
 30
0.0
 10
3.02019198177764
 20
7.899017474976873
 30
0.0
 10
3.021830191909245
 20
7.900754981506005
 30
0.0
 10
3.025271204262188
 20
7.90359375666424
 30
0.0
 10
3.027076702569098
 20
7.904685697756292
 30
0.0
 10
3.030695835479346
 20
7.906127599683164
 30
0.0
 10
3.032528716229555
 20
7.906496212860921
 30
0.0
 10
3.038098892567463
 20
7.906507488031073
 30
0.0
 10
3.041733548120188
 20
7.905048027683244
 30
0.0
 10
3.046802379855166
 20
7.900797954571148
 30
0.0
 10
3.0483988952378
 20
7.899064397338004
 30
0.0
 10
3.051411100081689
 20
7.894973455590666
 30
0.0
 10
3.05283575281102
 20
7.892589334557031
 30
0.0
 10
3.056660782807228
 20
7.884771195774651
 30
0.0
 10
3.058708007809372
 20
7.878475035154653
 30
0.0
 10
3.061449730712576
 20
7.864881524209345
 30
0.0
 10
3.062175748425557
 20
7.85746546925285
 30
0.0
 10
3.062175748425556
 20
7.849999999999997
 30
0.0
  0
SPLINE
  5
8D
330
1F
100
AcDbEntity
  8
0
  6
Continuous
 62
     7
370
    25
100
AcDbSpline
210
0.0
220
0.0
230
1.0
 70
    11
 71
     3
 72
    54
 73
    50
 74
     0
 42
0.00000001
 43
0.00000001
 40
0.0
 40
0.0
 40
0.0
 40
0.0
 40
0.0312500000000017
 40
0.0312500000000017
 40
0.0625000000000033
 40
0.0625000000000033
 40
0.093750000000005
 40
0.093750000000005
 40
0.1250000000000066
 40
0.1250000000000066
 40
0.1875000000000085
 40
0.1875000000000085
 40
0.2500000000000104
 40
0.2500000000000104
 40
0.2812500000000104
 40
0.2812500000000104
 40
0.3125000000000103
 40
0.3125000000000103
 40
0.3437500000000103
 40
0.3437500000000103
 40
0.3750000000000102
 40
0.3750000000000102
 40
0.4375000000000131
 40
0.4375000000000131
 40
0.4687500000000142
 40
0.4687500000000142
 40
0.5000000000000152
 40
0.5000000000000152
 40
0.5625000000000173
 40
0.5625000000000173
 40
0.6250000000000194
 40
0.6250000000000194
 40
0.6562500000000164
 40
0.6562500000000164
 40
0.6875000000000134
 40
0.6875000000000134
 40
0.7187500000000104
 40
0.7187500000000104
 40
0.7500000000000073
 40
0.7500000000000073
 40
0.8125000000000033
 40
0.8125000000000033
 40
0.8437500000000022
 40
0.8437500000000022
 40
0.8750000000000011
 40
0.8750000000000011
 40
0.9375000000000006
 40
0.9375000000000006
 40
1.0
 40
1.0
 40
1.0
 40
1.0
 10
1.804413923282052
 20
7.850000000000003
 30
0.0
 10
1.804413923282052
 20
7.846267265373572
 30
0.0
 10
1.804100052495614
 20
7.842596922111889
 30
0.0
 10
1.802869925236991
 20
7.835375910710388
 30
0.0
 10
1.801938737920848
 20
7.831787849905757
 30
0.0
 10
1.799506591327659
 20
7.824945612030224
 30
0.0
 10
1.79801785680213
 20
7.82170043759263
 30
0.0
 10
1.794498533924808
 20
7.815558801428998
 30
0.0
 10
1.792449210020498
 20
7.812650986430882
 30
0.0
 10
1.785729521896536
 20
7.80483299582063
 30
0.0
 10
1.780306604078678
 20
7.800623564395877
 30
0.0
 10
1.768586274781228
 20
7.794987900978777
 30
0.0
 10
1.762166881513784
 20
7.79350399901031
 30
0.0
 10
1.752604198005905
 20
7.793498012921047
 30
0.0
 10
1.749363564615994
 20
7.793864587571858
 30
0.0
 10
1.743083467408675
 20
7.795305634451655
 30
0.0
 10
1.740028292020902
 20
7.796371909230584
 30
0.0
 10
1.734089585187652
 20
7.799199834347564
 30
0.0
 10
1.731214046595253
 20
7.800968779448052
 30
0.0
 10
1.72588923119308
 20
7.805058020803786
 30
0.0
 10
1.723405469969254
 20
7.807392406643957
 30
0.0
 10
1.7165136200936
 20
7.815298837954129
 30
0.0
 10
1.712895657553833
 20
7.821518225187057
 30
0.0
 10
1.709181184311703
 20
7.831788386932263
 30
0.0
 10
1.708248090027489
 20
7.835310227816532
 30
0.0
 10
1.706985490682264
 20
7.842548408757253
 30
0.0
 10
1.706661733488493
 20
7.846292813808545
 30
0.0
 10
1.706658318050462
 20
7.857354433243758
 30
0.0
 10
1.707948750194215
 20
7.86478670289979
 30
0.0
 10
1.712855967976741
 20
7.878389265616799
 30
0.0
 10
1.716524704986073
 20
7.884698413376587
 30
0.0
 10
1.723322630656921
 20
7.892520160544579
 30
0.0
 10
1.725848974903014
 20
7.894907653749822
 30
0.0
 10
1.731191758758062
 20
7.899017474976872
 30
0.0
 10
1.734010314227215
 20
7.900754981506007
 30
0.0
 10
1.739941005200091
 20
7.903593756664241
 30
0.0
 10
1.743057953995007
 20
7.904685697756298
 30
0.0
 10
1.749317395280792
 20
7.906127599683164
 30
0.0
 10
1.752493012466392
 20
7.906496212860917
 30
0.0
 10
1.762161929616866
 20
7.906507488031073
 30
0.0
 10
1.768495703955882
 20
7.905048027683242
 30
0.0
 10
1.777358151821772
 20
7.900797954571148
 30
0.0
 10
1.780154620509551
 20
7.899064397338006
 30
0.0
 10
1.785438558621836
 20
7.894973455590666
 30
0.0
 10
1.787941867860357
 20
7.892589334557031
 30
0.0
 10
1.794671238581079
 20
7.88477119577465
 30
0.0
 10
1.798284765203092
 20
7.878475035154657
 30
0.0
 10
1.803128525940594
 20
7.864881524209343
 30
0.0
 10
1.804413923282053
 20
7.857465469252864
 30
0.0
 10
1.804413923282052
 20
7.850000000000002
 30
0.0
  0
SPLINE
  5
8E
330
1F
100
AcDbEntity
  8
0
  6
Continuous
 62
     7
370
    25
100
AcDbSpline
210
0.0
220
0.0
230
1.0
 70
    11
 71
     3
 72
    54
 73
    50
 74
     0
 42
0.00000001
 43
0.00000001
 40
0.0
 40
0.0
 40
0.0
 40
0.0
 40
0.0312500000000005
 40
0.0312500000000005
 40
0.0625000000000011
 40
0.0625000000000011
 40
0.0937500000000016
 40
0.0937500000000016
 40
0.1250000000000022
 40
0.1250000000000022
 40
0.1875000000000032
 40
0.1875000000000032
 40
0.2500000000000043
 40
0.2500000000000043
 40
0.2812500000000051
 40
0.2812500000000051
 40
0.3125000000000058
 40
0.3125000000000058
 40
0.3437500000000064
 40
0.3437500000000064
 40
0.3750000000000072
 40
0.3750000000000072
 40
0.4375000000000103
 40
0.4375000000000103
 40
0.4687500000000122
 40
0.4687500000000122
 40
0.5000000000000142
 40
0.5000000000000142
 40
0.5625000000000182
 40
0.5625000000000182
 40
0.6250000000000222
 40
0.6250000000000222
 40
0.6562500000000201
 40
0.6562500000000201
 40
0.6875000000000181
 40
0.6875000000000181
 40
0.7187500000000161
 40
0.7187500000000161
 40
0.7500000000000141
 40
0.7500000000000141
 40
0.8125000000000099
 40
0.8125000000000099
 40
0.8437500000000088
 40
0.8437500000000088
 40
0.8750000000000075
 40
0.8750000000000075
 40
0.9375000000000038
 40
0.9375000000000038
 40
1.0
 40
1.0
 40
1.0
 40
1.0
 10
-1.695016131414175
 20
7.850000000000001
 30
0.0
 10
-1.695016131414175
 20
7.846267265373575
 30
0.0
 10
-1.695336667475942
 20
7.842596922111885
 30
0.0
 10
-1.696592252558661
 20
7.83537591071039
 30
0.0
 10
-1.697542531529625
 20
7.831787849905758
 30
0.0
 10
-1.700022373356379
 20
7.824945612030227
 30
0.0
 10
-1.701539473891306
 20
7.82170043759263
 30
0.0
 10
-1.705121654237373
 20
7.815558801428998
 30
0.0
 10
-1.707205722118681
 20
7.812650986430881
 30
0.0
 10
-1.714029548443436
 20
7.804832995820628
 30
0.0
 10
-1.719524065613184
 20
7.800623564395878
 30
0.0
 10
-1.731354317470995
 20
7.794987900978778
 30
0.0
 10
-1.737812632682498
 20
7.793503999010316
 30
0.0
 10
-1.747396450163851
 20
7.793498012921047
 30
0.0
 10
-1.750638233395072
 20
7.793864587571858
 30
0.0
 10
-1.756909305404159
 20
7.795305634451658
 30
0.0
 10
-1.759954471899193
 20
7.796371909230584
 30
0.0
 10
-1.765864008878839
 20
7.799199834347565
 30
0.0
 10
-1.768720305446585
 20
7.800968779448049
 30
0.0
 10
-1.774001876570862
 20
7.805058020803784
 30
0.0
 10
-1.776461477130584
 20
7.80739240664396
 30
0.0
 10
-1.783278089614222
 20
7.815298837954125
 30
0.0
 10
-1.786845078150746
 20
7.821518225187051
 30
0.0
 10
-1.790504164164237
 20
7.831788386932257
 30
0.0
 10
-1.791422541132507
 20
7.835310227816533
 30
0.0
 10
-1.792664996221563
 20
7.842548408757253
 30
0.0
 10
-1.792983418367337
 20
7.846292813808546
 30
0.0
 10
-1.792986778098829
 20
7.857354433243758
 30
0.0
 10
-1.791718205639022
 20
7.864786702899792
 30
0.0
 10
-1.786884191380731
 20
7.8783892656168
 30
0.0
 10
-1.783267037708205
 20
7.884698413376585
 30
0.0
 10
-1.776543455363825
 20
7.89252016054458
 30
0.0
 10
-1.774041774303892
 20
7.89490765374982
 30
0.0
 10
-1.768742443534847
 20
7.899017474976873
 30
0.0
 10
-1.765942795777957
 20
7.900754981506005
 30
0.0
 10
-1.760041422056976
 20
7.90359375666424
 30
0.0
 10
-1.756934739267687
 20
7.904685697756292
 30
0.0
 10
-1.750684378776013
 20
7.906127599683164
 30
0.0
 10
-1.747507786988387
 20
7.906496212860918
 30
0.0
 10
-1.737817781111815
 20
7.906507488031073
 30
0.0
 10
-1.731445640519115
 20
7.905048027683248
 30
0.0
 10
-1.722500218887337
 20
7.90079795457115
 30
0.0
 10
-1.719672527269565
 20
7.899064397338002
 30
0.0
 10
-1.714321942877413
 20
7.894973455590665
 30
0.0
 10
-1.711782895310718
 20
7.89258933455703
 30
0.0
 10
-1.704949300163179
 20
7.884771195774648
 30
0.0
 10
-1.701268144637394
 20
7.878475035154653
 30
0.0
 10
-1.696329426531013
 20
7.864881524209344
 30
0.0
 10
-1.695016131414175
 20
7.857465469252852
 30
0.0
 10
-1.695016131414175
 20
7.850000000000001
 30
0.0
  0
SPLINE
  5
8F
330
1F
100
AcDbEntity
  8
0
  6
Continuous
 62
     7
370
    25
100
AcDbSpline
210
0.0
220
0.0
230
1.0
 70
    11
 71
     3
 72
    54
 73
    50
 74
     0
 42
0.00000001
 43
0.00000001
 40
0.0
 40
0.0
 40
0.0
 40
0.0
 40
0.0312500000000012
 40
0.0312500000000012
 40
0.0625000000000024
 40
0.0625000000000024
 40
0.0937500000000036
 40
0.0937500000000036
 40
0.1250000000000048
 40
0.1250000000000048
 40
0.1875000000000073
 40
0.1875000000000073
 40
0.2500000000000098
 40
0.2500000000000098
 40
0.281250000000011
 40
0.281250000000011
 40
0.3125000000000123
 40
0.3125000000000123
 40
0.3437500000000135
 40
0.3437500000000135
 40
0.3750000000000148
 40
0.3750000000000148
 40
0.4375000000000174
 40
0.4375000000000174
 40
0.4687500000000185
 40
0.4687500000000185
 40
0.5000000000000198
 40
0.5000000000000198
 40
0.5625000000000222
 40
0.5625000000000222
 40
0.6250000000000246
 40
0.6250000000000246
 40
0.6562500000000225
 40
0.6562500000000225
 40
0.6875000000000205
 40
0.6875000000000205
 40
0.7187500000000185
 40
0.7187500000000185
 40
0.7500000000000165
 40
0.7500000000000165
 40
0.8125000000000125
 40
0.8125000000000125
 40
0.8437500000000104
 40
0.8437500000000104
 40
0.8750000000000083
 40
0.8750000000000083
 40
0.9375000000000042
 40
0.9375000000000042
 40
1.0
 40
1.0
 40
1.0
 40
1.0
 10
0.0631608445836937
 20
7.849999999999997
 30
0.0
 10
0.0631608445836937
 20
7.846267265373571
 30
0.0
 10
0.0627945696191062
 20
7.842596922111885
 30
0.0
 10
0.0613594429297053
 20
7.835375910710388
 30
0.0
 10
0.0602731778623732
 20
7.831787849905758
 30
0.0
 10
0.0574372400258629
 20
7.824945612030225
 30
0.0
 10
0.0557018203445686
 20
7.821700437592629
 30
0.0
 10
0.0516017655468934
 20
7.815558801428997
 30
0.0
 10
0.049215350686801
 20
7.812650986430882
 30
0.0
 10
0.0413959989740606
 20
7.804832995820626
 30
0.0
 10
0.0350928149451063
 20
7.800623564395877
 30
0.0
 10
0.0214958805755436
 20
7.794987900978779
 30
0.0
 10
0.0140609321186799
 20
7.793503999010315
 30
0.0
 10
0.0030066946185059
 20
7.79349801292105
 30
0.0
 10
-0.0007359303627037
 20
7.793864587571857
 30
0.0
 10
-0.0079823512884398
 20
7.795305634451656
 30
0.0
 10
-0.0115043853166272
 20
7.796371909230587
 30
0.0
 10
-0.0183449720714278
 20
7.799199834347568
 30
0.0
 10
-0.0216542486440873
 20
7.800968779448052
 30
0.0
 10
-0.0277778487602622
 20
7.805058020803783
 30
0.0
 10
-0.0306319000166956
 20
7.807392406643957
 30
0.0
 10
-0.0385464844500088
 20
7.815298837954124
 30
0.0
 10
-0.0426947178880208
 20
7.821518225187055
 30
0.0
 10
-0.0469518443091395
 20
7.831788386932262
 30
0.0
 10
-0.0480207917351563
 20
7.835310227816536
 30
0.0
 10
-0.049467085587124
 20
7.842548408757253
 30
0.0
 10
-0.0498378480016782
 20
7.846292813808545
 30
0.0
 10
-0.0498417596476254
 20
7.857354433243759
 30
0.0
 10
-0.0483643176509024
 20
7.864786702899789
 30
0.0
 10
-0.042740214709899
 20
7.878389265616803
 30
0.0
 10
-0.0385337037634417
 20
7.884698413376583
 30
0.0
 10
-0.0307270574710007
 20
7.892520160544579
 30
0.0
 10
-0.0278241257070735
 20
7.894907653749821
 30
0.0
 10
-0.0216798979641072
 20
7.899017474976873
 30
0.0
 10
-0.018436226819189
 20
7.900754981506006
 30
0.0
 10
-0.011604981083121
 20
7.903593756664239
 30
0.0
 10
-0.008011765712644
 20
7.904685697756292
 30
0.0
 10
-0.0007892282889191
 20
7.906127599683164
 30
0.0
 10
0.0028782212717224
 20
7.906496212860916
 30
0.0
 10
0.0140551006926083
 20
7.906507488031069
 30
0.0
 10
0.0213908640987349
 20
7.905048027683248
 30
0.0
 10
0.0316722423469062
 20
7.90079795457115
 30
0.0
 10
0.0349193528132821
 20
7.899064397337999
 30
0.0
 10
0.0410591972439219
 20
7.894973455590668
 30
0.0
 10
0.0439704033027633
 20
7.892589334557031
 30
0.0
 10
0.0518009852978137
 20
7.884771195774651
 30
0.0
 10
0.0560125719994976
 20
7.878475035154657
 30
0.0
 10
0.0616604887933552
 20
7.864881524209345
 30
0.0
 10
0.0631608445836936
 20
7.857465469252849
 30
0.0
 10
0.0631608445836937
 20
7.849999999999998
 30
0.0
  0
SPLINE
  5
90
330
1F
100
AcDbEntity
  8
0
  6
Continuous
 62
     7
370
    25
100
AcDbSpline
210
0.0
220
0.0
230
1.0
 70
    11
 71
     3
 72
    50
 73
    46
 74
     0
 42
0.00000001
 43
0.00000001
 40
0.0
 40
0.0
 40
0.0
 40
0.0
 40
0.0625000000000018
 40
0.0625000000000018
 40
0.0937499999999981
 40
0.0937499999999981
 40
0.1249999999999945
 40
0.1249999999999945
 40
0.187499999999994
 40
0.187499999999994
 40
0.2499999999999936
 40
0.2499999999999936
 40
0.2812499999999934
 40
0.2812499999999934
 40
0.3124999999999932
 40
0.3124999999999932
 40
0.3749999999999927
 40
0.3749999999999927
 40
0.4374999999999923
 40
0.4374999999999923
 40
0.4687499999999922
 40
0.4687499999999922
 40
0.499999999999992
 40
0.499999999999992
 40
0.5624999999999917
 40
0.5624999999999917
 40
0.6249999999999913
 40
0.6249999999999913
 40
0.6562499999999911
 40
0.6562499999999911
 40
0.6874999999999909
 40
0.6874999999999909
 40
0.7187499999999907
 40
0.7187499999999907
 40
0.7499999999999903
 40
0.7499999999999903
 40
0.81249999999999
 40
0.81249999999999
 40
0.8437499999999917
 40
0.8437499999999917
 40
0.8749999999999933
 40
0.8749999999999933
 40
0.9374999999999967
 40
0.9374999999999967
 40
1.0
 40
1.0
 40
1.0
 40
1.0
 10
0.0599108445836926
 20
7.450000000000001
 30
0.0
 10
0.0599108445836926
 20
7.442963974161422
 30
0.0
 10
0.0585256945987197
 20
7.436059806877659
 30
0.0
 10
0.0545164834640887
 20
7.426386812684615
 30
0.0
 10
0.0528808884887209
 20
7.423328304074957
 30
0.0
 10
0.0490166753685695
 20
7.417539941148797
 30
0.0
 10
0.0467675261767051
 20
7.414799381268087
 30
0.0
 10
0.0393979383521044
 20
7.407431078688219
 30
0.0
 10
0.033457311321131
 20
7.403463780014727
 30
0.0
 10
0.0206424852462415
 20
7.398152298753832
 30
0.0
 10
0.0136352162679122
 20
7.396753764579723
 30
0.0
 10
0.0032168623388265
 20
7.396748129394338
 30
0.0
 10
-0.0003104695615686
 20
7.397093618250033
 30
0.0
 10
-0.0071400535615047
 20
7.398451773443011
 30
0.0
 10
-0.0104594878004901
 20
7.399456713100228
 30
0.0
 10
-0.0201301217428366
 20
7.403454590456179
 30
0.0
 10
-0.0260003081124478
 20
7.407359413440653
 30
0.0
 10
-0.0359460552228733
 20
7.417294914670053
 30
0.0
 10
-0.0398556865307267
 20
7.423156563545001
 30
0.0
 10
-0.043867937437614
 20
7.43283598242394
 30
0.0
 10
-0.0448753940137888
 20
7.436155239560713
 30
0.0
 10
-0.0462384885944841
 20
7.442977049786451
 30
0.0
 10
-0.0465879233052508
 20
7.44650606319925
 30
0.0
 10
-0.0465916096516669
 20
7.456931386740367
 30
0.0
 10
-0.0451991585937698
 20
7.463936120016895
 30
0.0
 10
-0.0398985733995014
 20
7.476756232316194
 30
0.0
 10
-0.0359340243354352
 20
7.482702477762985
 30
0.0
 10
-0.0285764349928446
 20
7.490074302621053
 30
0.0
 10
-0.0258404903110863
 20
7.49232446074753
 30
0.0
 10
-0.0200496745995681
 20
7.496197888614876
 30
0.0
 10
-0.0169925848111758
 20
7.497835449011422
 30
0.0
 10
-0.0105543050567319
 20
7.500510924829385
 30
0.0
 10
-0.00716777390027
 20
7.501540058043366
 30
0.0
 10
-0.0003606957146093
 20
7.502899019311588
 30
0.0
 10
0.0030957841387241
 20
7.503246427944748
 30
0.0
 10
0.0136296861017024
 20
7.503257062698786
 30
0.0
 10
0.0205434808489947
 20
7.5018815737918
 30
0.0
 10
0.0302334961110179
 20
7.497875967845759
 30
0.0
 10
0.0332938322920384
 20
7.496242126761514
 30
0.0
 10
0.0390804992078334
 20
7.492386511011787
 30
0.0
 10
0.0418242564579809
 20
7.490139526074702
 30
0.0
 10
0.049204443232301
 20
7.48277107057446
 30
0.0
 10
0.0531737658513124
 20
7.476837075114193
 30
0.0
 10
0.0584968018554454
 20
7.464025476079388
 30
0.0
 10
0.0599108445836926
 20
7.45703602583858
 30
0.0
 10
0.0599108445836926
 20
7.450000000000001
 30
0.0
  0
SPLINE
  5
9B
330
1F
100
AcDbEntity
  8
0
  6
Continuous
 62
     7
370
    25
100
AcDbSpline
210
0.0
220
0.0
230
1.0
 70
     8
 71
     3
 72
    30
 73
    26
 74
     0
 42
0.00000001
 43
0.00000001
 40
0.0
 40
0.0
 40
0.0
 40
0.0
 40
0.0294715572464743
 40
0.0589431211181263
 40
0.0884146982402324
 40
0.1178862952380649
 40
0.1473579187368698
 40
0.1768295753618895
 40
0.2063012717383385
 40
0.2357730144914008
 40
0.2652448102462329
 40
0.2947166656279626
 40
0.3241885872616566
 40
0.3536605817723595
 40
0.3831326557850571
 40
0.4126048159246743
 40
0.442077068816099
 40
0.4715494210841317
 40
0.5010218793535197
 40
0.5839415316829324
 40
0.7498523800434759
 40
0.8267537166970861
 40
0.8940870159070706
 40
0.9518394258013795
 40
0.9999999999999999
 40
0.9999999999999999
 40
0.9999999999999999
 40
0.9999999999999999
 10
0.0
 20
-7.802831767426729
 30
0.0
 10
-0.0014926589010272
 20
-7.8026062221514
 30
0.0
 10
-0.00447797703863
 20
-7.802155131550042
 30
0.0
 10
-0.00886258807155
 20
-7.800999431640849
 30
0.0
 10
-0.0131385055627657
 20
-7.799502691670671
 30
0.0
 10
-0.0172704576171155
 20
-7.797640978547487
 30
0.0
 10
-0.021229766897948
 20
-7.795437052383657
 30
0.0
 10
-0.0249875149996241
 20
-7.792904340691273
 30
0.0
 10
-0.0285166384800887
 20
-7.790061809402653
 30
0.0
 10
-0.0317916187411278
 20
-7.786929815165157
 30
0.0
 10
-0.0347888018261935
 20
-7.783531032976844
 30
0.0
 10
-0.0374865331883529
 20
-7.779890004258259
 30
0.0
 10
-0.0398653231697168
 20
-7.77603303730428
 30
0.0
 10
-0.0419079877753225
 20
-7.771987994333175
 30
0.0
 10
-0.0435997638950453
 20
-7.767784103996846
 30
0.0
 10
-0.044928451680719
 20
-7.763451717907746
 30
0.0
 10
-0.0458843687199056
 20
-7.759022206812302
 30
0.0
 10
-0.0464609201211733
 20
-7.754527304473782
 30
0.0
 10
-0.0467687559522997
 20
-7.747264078791245
 30
0.0
 10
-0.0450815681359897
 20
-7.732997903387769
 30
0.0
 10
-0.0369981617307623
 20
-7.71753676980904
 30
0.0
 10
-0.0251485448762241
 20
-7.706811045888322
 30
0.0
 10
-0.0161580535532606
 20
-7.701584230633502
 30
0.0
 10
-0.0077909038737447
 20
-7.698474777818233
 30
0.0
 10
-0.0024352939482048
 20
-7.697576634702175
 30
0.0
 10
0.0000000000000001
 20
-7.697168232573274
 30
0.0
  0
SPLINE
  5
9C
330
1F
100
AcDbEntity
  8
0
  6
Continuous
 62
     7
370
    25
100
AcDbSpline
210
0.0
220
0.0
230
1.0
 70
     8
 71
     3
 72
    30
 73
    26
 74
     0
 42
0.00000001
 43
0.00000001
 40
0.0
 40
0.0
 40
0.0
 40
0.0
 40
0.0624999999999997
 40
0.0624999999999997
 40
0.1249999999999994
 40
0.1249999999999994
 40
0.2499999999999936
 40
0.2499999999999936
 40
0.3124999999999966
 40
0.3124999999999966
 40
0.3749999999999996
 40
0.3749999999999996
 40
0.4999999999999892
 40
0.4999999999999892
 40
0.562499999999993
 40
0.562499999999993
 40
0.624999999999997
 40
0.624999999999997
 40
0.7499999999999882
 40
0.7499999999999882
 40
0.8124999999999898
 40
0.8124999999999898
 40
0.8749999999999913
 40
0.8749999999999913
 40
1.0
 40
1.0
 40
1.0
 40
1.0
 10
0.0
 20
-7.697168232573273
 30
0.0
 10
0.0037158339470211
 20
-7.696699753216524
 30
0.0
 10
0.0075355106039317
 20
-7.696624322394793
 30
0.0
 10
0.0150344916514687
 20
-7.697277992875402
 30
0.0
 10
0.0187095470120754
 20
-7.697994424747695
 30
0.0
 10
0.0295108712727136
 20
-7.701315370696347
 30
0.0
 10
0.0362073148439383
 20
-7.705058183985367
 30
0.0
 10
0.0447161159473094
 20
-7.71256127166523
 30
0.0
 10
0.0472466398969693
 20
-7.715323718903988
 30
0.0
 10
0.0517096961494624
 20
-7.721359954181846
 30
0.0
 10
0.05364740663251
 20
-7.724664541511024
 30
0.0
 10
0.0582775879716562
 20
-7.734916426747046
 30
0.0
 10
0.0599055426440221
 20
-7.742470109760252
 30
0.0
 10
0.0599134756539615
 20
-7.753708562893287
 30
0.0
 10
0.0595122413154072
 20
-7.757512229268569
 30
0.0
 10
0.0579319543230235
 20
-7.764865296202029
 30
0.0
 10
0.0567644209203716
 20
-7.768423117915348
 30
0.0
 10
0.0521205172763806
 20
-7.77873759211323
 30
0.0
 10
0.0475689091594937
 20
-7.78491636703154
 30
0.0
 10
0.0390754204926421
 20
-7.792416067146161
 30
0.0
 10
0.0360207726205899
 20
-7.794583231457075
 30
0.0
 10
0.0294718680259381
 20
-7.798263102998088
 30
0.0
 10
0.0259531653488587
 20
-7.799773654006474
 30
0.0
 10
0.015209606585274
 20
-7.80309116934941
 30
0.0
 10
0.0075366557785111
 20
-7.803781962645753
 30
0.0
 10
0.0
 20
-7.802831767426728
 30
0.0
  0
SPLINE
  5
9D
330
1F
100
AcDbEntity
  8
0
  6
Continuous
 62
     7
370
    25
100
AcDbSpline
210
0.0
220
0.0
230
1.0
 70
     8
 71
     3
 72
    30
 73
    26
 74
     0
 42
0.00000001
 43
0.00000001
 40
0.0
 40
0.0
 40
0.0
 40
0.0
 40
0.0625000000000019
 40
0.0625000000000019
 40
0.1250000000000037
 40
0.1250000000000037
 40
0.2499999999999983
 40
0.2499999999999983
 40
0.3124999999999999
 40
0.3124999999999999
 40
0.3750000000000016
 40
0.3750000000000016
 40
0.4999999999999901
 40
0.4999999999999901
 40
0.5624999999999934
 40
0.5624999999999934
 40
0.6249999999999968
 40
0.6249999999999968
 40
0.7499999999999887
 40
0.7499999999999887
 40
0.8124999999999891
 40
0.8124999999999891
 40
0.8749999999999895
 40
0.8749999999999895
 40
1.0
 40
1.0
 40
1.0
 40
1.0
 10
-1.750000000000004
 20
-7.697168232573273
 30
0.0
 10
-1.746781993405639
 20
-7.696699753216527
 30
0.0
 10
-1.743471004591371
 20
-7.696624322394795
 30
0.0
 10
-1.736964607008925
 20
-7.697277992875403
 30
0.0
 10
-1.733772979439737
 20
-7.697994424747698
 30
0.0
 10
-1.724384332190497
 20
-7.701315370696342
 30
0.0
 10
-1.718552201201415
 20
-7.705058183985367
 30
0.0
 10
-1.711132452887604
 20
-7.712561271665232
 30
0.0
 10
-1.708924112068879
 20
-7.71532371890399
 30
0.0
 10
-1.705027442559182
 20
-7.721359954181848
 30
0.0
 10
-1.703334566554435
 20
-7.724664541511022
 30
0.0
 10
-1.69928820114901
 20
-7.734916426747047
 30
0.0
 10
-1.697863925608632
 20
-7.742470109760252
 30
0.0
 10
-1.697856987514373
 20
-7.753708562893287
 30
0.0
 10
-1.698207934448698
 20
-7.75751222926857
 30
0.0
 10
-1.699589761819522
 20
-7.76486529620203
 30
0.0
 10
-1.70061056843162
 20
-7.768423117915348
 30
0.0
 10
-1.704668942931918
 20
-7.778737592113229
 30
0.0
 10
-1.708644770798123
 20
-7.784916367031539
 30
0.0
 10
-1.716051198979954
 20
-7.792416067146165
 30
0.0
 10
-1.718713181069702
 20
-7.794583231457079
 30
0.0
 10
-1.72441533623198
 20
-7.79826310299809
 30
0.0
 10
-1.727476703050513
 20
-7.799773654006472
 30
0.0
 10
-1.736815234950024
 20
-7.803091169349412
 30
0.0
 10
-1.743473064636235
 20
-7.803781962645753
 30
0.0
 10
-1.750000000000004
 20
-7.802831767426728
 30
0.0
  0
SPLINE
  5
9E
330
1F
100
AcDbEntity
  8
0
  6
Continuous
 62
     7
370
    25
100
AcDbSpline
210
0.0
220
0.0
230
1.0
 70
     8
 71
     3
 72
    30
 73
    26
 74
     0
 42
0.00000001
 43
0.00000001
 40
0.0
 40
0.0
 40
0.0
 40
0.0
 40
0.0294715572464723
 40
0.0589431211181233
 40
0.08841469824023
 40
0.1178862952380616
 40
0.1473579187368682
 40
0.1768295753618865
 40
0.2063012717383355
 40
0.2357730144913989
 40
0.2652448102462316
 40
0.294716665627961
 40
0.3241885872616548
 40
0.3536605817723585
 40
0.3831326557850553
 40
0.4126048159246729
 40
0.4420770688160976
 40
0.4715494210841304
 40
0.5010218793535185
 40
0.5839415316829312
 40
0.7498523800434757
 40
0.8267537166970862
 40
0.8940870159070691
 40
0.9518394258013795
 40
1.0
 40
1.0
 40
1.0
 40
1.0
 10
-1.750000000000004
 20
-7.802831767426729
 30
0.0
 10
-1.751292577279579
 20
-7.802606222151401
 30
0.0
 10
-1.753877732129298
 20
-7.802155131550044
 30
0.0
 10
-1.757673246436976
 20
-7.800999431640845
 30
0.0
 10
-1.761373633429357
 20
-7.799502691670678
 30
0.0
 10
-1.764948249070651
 20
-7.797640978547484
 30
0.0
 10
-1.768372284230964
 20
-7.79543705238366
 30
0.0
 10
-1.771620687826335
 20
-7.792904340691275
 30
0.0
 10
-1.774670024096412
 20
-7.790061809402654
 30
0.0
 10
-1.777498192824997
 20
-7.786929815165156
 30
0.0
 10
-1.78008470906434
 20
-7.783531032976845
 30
0.0
 10
-1.782410819970489
 20
-7.779890004258259
 30
0.0
 10
-1.784459644849864
 20
-7.776033037304281
 30
0.0
 10
-1.786216310001475
 20
-7.771987994333179
 30
0.0
 10
-1.787668000050791
 20
-7.767784103996845
 30
0.0
 10
-1.788804262129137
 20
-7.763451717907746
 30
0.0
 10
-1.789616291126658
 20
-7.759022206812303
 30
0.0
 10
-1.790099942776162
 20
-7.754527304473781
 30
0.0
 10
-1.790332293453684
 20
-7.747264078791249
 30
0.0
 10
-1.788900843776619
 20
-7.732997903387763
 30
0.0
 10
-1.781947973617344
 20
-7.717536769809038
 30
0.0
 10
-1.771734763920685
 20
-7.70681104588832
 30
0.0
 10
-1.763973347339477
 20
-7.701584230633505
 30
0.0
 10
-1.756743501823093
 20
-7.698474777818233
 30
0.0
 10
-1.752107895238554
 20
-7.697576634702174
 30
0.0
 10
-1.750000000000004
 20
-7.697168232573273
 30
0.0
  0
SPLINE
  5
9F
330
1F
100
AcDbEntity
  8
0
  6
Continuous
 62
     7
370
    25
100
AcDbSpline
210
0.0
220
0.0
230
1.0
 70
     8
 71
     3
 72
    30
 73
    26
 74
     0
 42
0.00000001
 43
0.00000001
 40
0.0
 40
0.0
 40
0.0
 40
0.0
 40
0.0624999999999984
 40
0.0624999999999984
 40
0.1249999999999968
 40
0.1249999999999968
 40
0.2499999999999927
 40
0.2499999999999927
 40
0.3124999999999966
 40
0.3124999999999966
 40
0.3750000000000005
 40
0.3750000000000005
 40
0.4999999999999901
 40
0.4999999999999901
 40
0.562499999999994
 40
0.562499999999994
 40
0.6249999999999979
 40
0.6249999999999979
 40
0.7499999999999892
 40
0.7499999999999892
 40
0.8124999999999906
 40
0.8124999999999906
 40
0.8749999999999918
 40
0.8749999999999918
 40
1.0
 40
1.0
 40
1.0
 40
1.0
 10
1.749999999999961
 20
-7.697168232573273
 30
0.0
 10
1.753218006594325
 20
-7.696699753216526
 30
0.0
 10
1.756522891818312
 20
-7.696624322394793
 30
0.0
 10
1.763005110415196
 20
-7.697277992875402
 30
0.0
 10
1.766178865451207
 20
-7.697994424747697
 30
0.0
 10
1.775498660610419
 20
-7.701315370696346
 30
0.0
 10
1.781265110116717
 20
-7.705058183985365
 30
0.0
 10
1.788583037625443
 20
-7.712561271665232
 30
0.0
 10
1.790757692857299
 20
-7.715323718903991
 30
0.0
 10
1.794591263533958
 20
-7.72135995418185
 30
0.0
 10
1.796254600536208
 20
-7.724664541511025
 30
0.0
 10
1.800227944458442
 20
-7.734916426747047
 30
0.0
 10
1.80162336912302
 20
-7.74247010976025
 30
0.0
 10
1.801630171405032
 20
-7.753708562893284
 30
0.0
 10
1.80128616007924
 20
-7.757512229268569
 30
0.0
 10
1.799930850088716
 20
-7.76486529620203
 30
0.0
 10
1.798929429527887
 20
-7.768423117915348
 30
0.0
 10
1.794944326971339
 20
-7.778737592113229
 30
0.0
 10
1.791036538322953
 20
-7.784916367031538
 30
0.0
 10
1.783731812600285
 20
-7.792416067146163
 30
0.0
 10
1.781102989376408
 20
-7.794583231457077
 30
0.0
 10
1.775462109046828
 20
-7.798263102998092
 30
0.0
 10
1.772428904051931
 20
-7.79977365400647
 30
0.0
 10
1.763159046318811
 20
-7.803091169349412
 30
0.0
 10
1.756526935363731
 20
-7.803781962645753
 30
0.0
 10
1.749999999999961
 20
-7.802831767426728
 30
0.0
  0
SPLINE
  5
A0
330
1F
100
AcDbEntity
  8
0
  6
Continuous
 62
     7
370
    25
100
AcDbSpline
210
0.0
220
0.0
230
1.0
 70
     8
 71
     3
 72
    30
 73
    26
 74
     0
 42
0.00000001
 43
0.00000001
 40
0.0
 40
0.0
 40
0.0
 40
0.0
 40
0.0294715572464762
 40
0.0589431211181258
 40
0.0884146982402318
 40
0.1178862952380643
 40
0.1473579187368699
 40
0.1768295753618895
 40
0.2063012717383369
 40
0.235773014491401
 40
0.2652448102462328
 40
0.2947166656279621
 40
0.3241885872616557
 40
0.3536605817723581
 40
0.3831326557850562
 40
0.4126048159246737
 40
0.4420770688160985
 40
0.4715494210841311
 40
0.501021879353519
 40
0.5839415316829314
 40
0.7498523800434761
 40
0.8267537166970863
 40
0.8940870159070696
 40
0.9518394258013786
 40
0.9999999999999999
 40
0.9999999999999999
 40
0.9999999999999999
 40
0.9999999999999999
 10
1.749999999999961
 20
-7.802831767426729
 30
0.0
 10
1.748707216224587
 20
-7.8026062221514
 30
0.0
 10
1.746121648383221
 20
-7.802155131550043
 30
0.0
 10
1.742322793610455
 20
-7.800999431640848
 30
0.0
 10
1.738617074259079
 20
-7.799502691670677
 30
0.0
 10
1.735034939007799
 20
-7.797640978547485
 30
0.0
 10
1.731601249330832
 20
-7.795437052383656
 30
0.0
 10
1.728341042292054
 20
-7.792904340691279
 30
0.0
 10
1.725277757387782
 20
-7.79006180940265
 30
0.0
 10
1.722433493910462
 20
-7.786929815165156
 30
0.0
 10
1.719828736766884
 20
-7.783531032976849
 30
0.0
 10
1.717482239888601
 20
-7.779890004258256
 30
0.0
 10
1.715410879659719
 20
-7.776033037304282
 30
0.0
 10
1.713629545931598
 20
-7.771987994333175
 30
0.0
 10
1.712150993786522
 20
-7.767784103996845
 30
0.0
 10
1.710985901112685
 20
-7.763451717907744
 30
0.0
 10
1.710142233230514
 20
-7.759022206812301
 30
0.0
 10
1.709627268559849
 20
-7.754527304473783
 30
0.0
 10
1.709326431937468
 20
-7.747264078791247
 30
0.0
 10
1.710817277280164
 20
-7.732997903387763
 30
0.0
 10
1.717865277712972
 20
-7.717536769809041
 30
0.0
 10
1.728176206458597
 20
-7.706811045888323
 30
0.0
 10
1.735986777633768
 20
-7.701584230633502
 30
0.0
 10
1.743249260476839
 20
-7.698474777818232
 30
0.0
 10
1.747889842388857
 20
-7.697576634702175
 30
0.0
 10
1.749999999999961
 20
-7.697168232573273
 30
0.0
  0
SPLINE
  5
A1
330
1F
100
AcDbEntity
  8
0
  6
Continuous
 62
     7
370
    25
100
AcDbSpline
210
0.0
220
0.0
230
1.0
 70
     8
 71
     3
 72
    30
 73
    26
 74
     0
 42
0.00000001
 43
0.00000001
 40
0.0
 40
0.0
 40
0.0
 40
0.0
 40
0.0624999999999983
 40
0.0624999999999983
 40
0.1249999999999965
 40
0.1249999999999965
 40
0.2499999999999957
 40
0.2499999999999957
 40
0.3124999999999996
 40
0.3124999999999996
 40
0.3750000000000036
 40
0.3750000000000036
 40
0.499999999999993
 40
0.499999999999993
 40
0.5624999999999968
 40
0.5624999999999968
 40
0.6250000000000006
 40
0.6250000000000006
 40
0.7499999999999901
 40
0.7499999999999901
 40
0.8124999999999923
 40
0.8124999999999923
 40
0.8749999999999946
 40
0.8749999999999946
 40
1.0
 40
1.0
 40
1.0
 40
1.0
 10
3.031088913245514
 20
-7.697168232573273
 30
0.0
 10
3.032946830219025
 20
-7.696699753216526
 30
0.0
 10
3.034851382683243
 20
-7.696624322394793
 30
0.0
 10
3.038579933591275
 20
-7.697277992875398
 30
0.0
 10
3.040401983203817
 20
-7.697994424747695
 30
0.0
 10
3.045743017675071
 20
-7.701315370696348
 30
0.0
 10
3.049034357628033
 20
-7.705058183985367
 30
0.0
 10
3.05320057877588
 20
-7.712561271665229
 30
0.0
 10
3.054436668176741
 20
-7.715323718903988
 30
0.0
 10
3.05661355111063
 20
-7.721359954181848
 30
0.0
 10
3.057556824825587
 20
-7.724664541511023
 30
0.0
 10
3.059808677035694
 20
-7.734916426747046
 30
0.0
 10
3.060597668780513
 20
-7.742470109760252
 30
0.0
 10
3.060601517668626
 20
-7.75370856289329
 30
0.0
 10
3.06040690691253
 20
-7.757512229268569
 30
0.0
 10
3.05963972814132
 20
-7.764865296202032
 30
0.0
 10
3.059072750252871
 20
-7.768423117915348
 30
0.0
 10
3.056814253795548
 20
-7.77873759211323
 30
0.0
 10
3.054597373428189
 20
-7.78491636703154
 30
0.0
 10
3.050438706008026
 20
-7.792416067146161
 30
0.0
 10
3.048940098492204
 20
-7.794583231457075
 30
0.0
 10
3.045718711756609
 20
-7.79826310299809
 30
0.0
 10
3.043983749272757
 20
-7.799773654006469
 30
0.0
 10
3.03867144346364
 20
-7.80309116934941
 30
0.0
 10
3.03485724113477
 20
-7.80378196264575
 30
0.0
 10
3.031088913245514
 20
-7.802831767426728
 30
0.0
  0
SPLINE
  5
A2
330
1F
100
AcDbEntity
  8
0
  6
Continuous
 62
     7
370
    25
100
AcDbSpline
210
0.0
220
0.0
230
1.0
 70
     8
 71
     3
 72
    30
 73
    26
 74
     0
 42
0.00000001
 43
0.00000001
 40
0.0
 40
0.0
 40
0.0
 40
0.0
 40
0.0294715572464755
 40
0.0589431211181282
 40
0.0884146982402314
 40
0.1178862952380646
 40
0.1473579187368698
 40
0.1768295753618892
 40
0.2063012717383383
 40
0.2357730144914005
 40
0.2652448102462343
 40
0.2947166656279626
 40
0.3241885872616573
 40
0.3536605817723601
 40
0.3831326557850568
 40
0.4126048159246744
 40
0.4420770688160993
 40
0.4715494210841319
 40
0.5010218793535199
 40
0.5839415316829326
 40
0.7498523800434761
 40
0.8267537166970863
 40
0.8940870159070692
 40
0.9518394258013778
 40
1.0
 40
1.0
 40
1.0
 40
1.0
 10
3.031088913245515
 20
-7.802831767426729
 30
0.0
 10
3.030342404964393
 20
-7.8026062221514
 30
0.0
 10
3.028849388234335
 20
-7.802155131550042
 30
0.0
 10
3.026654189790247
 20
-7.800999431640846
 30
0.0
 10
3.024511613086289
 20
-7.799502691670676
 30
0.0
 10
3.022439124885837
 20
-7.797640978547485
 30
0.0
 10
3.020451109188738
 20
-7.795437052383654
 30
0.0
 10
3.018562013056058
 20
-7.792904340691276
 30
0.0
 10
3.016785371444266
 20
-7.790061809402653
 30
0.0
 10
3.015133942852473
 20
-7.786929815165157
 30
0.0
 10
3.013619554223483
 20
-7.783531032976843
 30
0.0
 10
3.012253033772658
 20
-7.779890004258259
 30
0.0
 10
3.011044122596817
 20
-7.776033037304281
 30
0.0
 10
3.010001426680082
 20
-7.771987994333176
 30
0.0
 10
3.009132275362896
 20
-7.767784103996846
 30
0.0
 10
3.008442963441954
 20
-7.763451717907745
 30
0.0
 10
3.007937604844508
 20
-7.759022206812301
 30
0.0
 10
3.00762221127208
 20
-7.754527304473784
 30
0.0
 10
3.007408982788466
 20
-7.747264078791249
 30
0.0
 10
3.008304014851933
 20
-7.732997903387766
 30
0.0
 10
3.012428103288097
 20
-7.717536769809041
 30
0.0
 10
3.018437538894201
 20
-7.706811045888319
 30
0.0
 10
3.02297535368277
 20
-7.701584230633502
 30
0.0
 10
3.027187193276547
 20
-7.698474777818235
 30
0.0
 10
3.029869306999308
 20
-7.697576634702176
 30
0.0
 10
3.031088913245514
 20
-7.697168232573273
 30
0.0
  0
SPLINE
  5
A3
330
1F
100
AcDbEntity
  8
0
  6
Continuous
 62
     7
370
    25
100
AcDbSpline
210
0.0
220
0.0
230
1.0
 70
     8
 71
     3
 72
    30
 73
    26
 74
     0
 42
0.00000001
 43
0.00000001
 40
0.0
 40
0.0
 40
0.0
 40
0.0
 40
0.0294715572464743
 40
0.0589431211181263
 40
0.0884146982402324
 40
0.1178862952380649
 40
0.1473579187368698
 40
0.1768295753618896
 40
0.2063012717383385
 40
0.2357730144914008
 40
0.2652448102462329
 40
0.2947166656279626
 40
0.3241885872616566
 40
0.3536605817723595
 40
0.3831326557850571
 40
0.4126048159246743
 40
0.442077068816099
 40
0.4715494210841317
 40
0.5010218793535197
 40
0.5839415316829324
 40
0.7498523800434759
 40
0.8267537166970861
 40
0.8940870159070706
 40
0.9518394258013795
 40
0.9999999999999999
 40
0.9999999999999999
 40
0.9999999999999999
 40
0.9999999999999999
 10
3.5
 20
-7.802831767426729
 30
0.0
 10
3.4999997935042
 20
-7.8026062221514
 30
0.0
 10
3.499999380512555
 20
-7.802155131550042
 30
0.0
 10
3.499996040047467
 20
-7.800999431640849
 30
0.0
 10
3.49999070768847
 20
-7.799502691670672
 30
0.0
 10
3.499983188078484
 20
-7.797640978547485
 30
0.0
 10
3.499973533561829
 20
-7.795437052383656
 30
0.0
 10
3.499961730118422
 20
-7.792904340691276
 30
0.0
 10
3.499947781484229
 20
-7.790061809402649
 30
0.0
 10
3.499931686735494
 20
-7.786929815165159
 30
0.0
 10
3.499913445831258
 20
-7.783531032976844
 30
0.0
 10
3.499893059859126
 20
-7.779890004258259
 30
0.0
 10
3.499870524509615
 20
-7.77603303730428
 30
0.0
 10
3.499845855933106
 20
-7.771987994333175
 30
0.0
 10
3.49981899383735
 20
-7.767784103996846
 30
0.0
 10
3.499790163241857
 20
-7.763451717907746
 30
0.0
 10
3.499758524357208
 20
-7.759022206812302
 30
0.0
 10
3.499727211336046
 20
-7.754527304473782
 30
0.0
 10
3.499658725391185
 20
-7.747264078791245
 30
0.0
 10
3.499718121056821
 20
-7.732997903387769
 30
0.0
 10
3.499813251330353
 20
-7.71753676980904
 30
0.0
 10
3.499910970379316
 20
-7.706811045888322
 30
0.0
 10
3.49996012497328
 20
-7.701584230633502
 30
0.0
 10
3.499992762299967
 20
-7.698474777818233
 30
0.0
 10
3.499997737627447
 20
-7.697576634702175
 30
0.0
 10
3.5
 20
-7.697168232573274
 30
0.0
  0
SPLINE
  5
A4
330
1F
100
AcDbEntity
  8
0
  6
Continuous
 62
     7
370
    25
100
AcDbSpline
210
0.0
220
0.0
230
1.0
 70
     8
 71
     3
 72
    13
 73
     9
 74
     0
 42
0.00000001
 43
0.00000001
 40
0.0
 40
0.0
 40
0.0
 40
0.0
 40
0.1425711443753529
 40
0.3122307219854425
 40
0.433096882241925
 40
0.5050588649821329
 40
0.7943599920056557
 40
1.0
 40
1.0
 40
1.0
 40
1.0
 10
-1.718690044626926
 20
-7.718943378764514
 30
0.0
 10
-1.717056478669708
 20
-7.721486471782098
 30
0.0
 10
-1.713478970188117
 20
-7.727055843988762
 30
0.0
 10
-1.710844276211048
 20
-7.736269579742888
 30
0.0
 10
-1.709645676767542
 20
-7.744161919336324
 30
0.0
 10
-1.709280468991325
 20
-7.754771831087331
 30
0.0
 10
-1.710925769186626
 20
-7.767682851752139
 30
0.0
 10
-1.71638636398641
 20
-7.776723004154233
 30
0.0
 10
-1.718655152492422
 20
-7.780479040742644
 30
0.0
  0
SPLINE
  5
A5
330
1F
100
AcDbEntity
  8
0
  6
Continuous
 62
     7
370
    25
100
AcDbSpline
210
0.0
220
0.0
230
1.0
 70
     8
 71
     3
 72
    30
 73
    26
 74
     0
 42
0.00000001
 43
0.00000001
 40
0.0
 40
0.0
 40
0.0
 40
0.0
 40
0.0624999999999935
 40
0.0624999999999935
 40
0.124999999999987
 40
0.124999999999987
 40
0.2499999999999687
 40
0.2499999999999687
 40
0.3124999999999656
 40
0.3124999999999656
 40
0.3749999999999625
 40
0.3749999999999625
 40
0.4999999999999396
 40
0.4999999999999396
 40
0.5624999999999374
 40
0.5624999999999374
 40
0.624999999999935
 40
0.624999999999935
 40
0.7499999999999469
 40
0.7499999999999469
 40
0.8124999999999588
 40
0.8124999999999588
 40
0.8749999999999708
 40
0.8749999999999708
 40
1.0
 40
1.0
 40
1.0
 40
1.0
 10
-3.5
 20
-7.697168232573273
 30
0.0
 10
-3.499999999999999
 20
-7.696699753216524
 30
0.0
 10
-3.499993896409718
 20
-7.696624322394793
 30
0.0
 10
-3.499969717424155
 20
-7.697277992875399
 30
0.0
 10
-3.499951844890976
 20
-7.697994424747693
 30
0.0
 10
-3.499882992800951
 20
-7.701315370696344
 30
0.0
 10
-3.499817311318166
 20
-7.705058183985366
 30
0.0
 10
-3.499715490513081
 20
-7.71256127166523
 30
0.0
 10
-3.499681804926212
 20
-7.71532371890399
 30
0.0
 10
-3.499618706093176
 20
-7.721359954181847
 30
0.0
 10
-3.499589167090678
 20
-7.724664541511022
 30
0.0
 10
-3.499516145607487
 20
-7.734916426747047
 30
0.0
 10
-3.499487294731686
 20
-7.742470109760252
 30
0.0
 10
-3.49948715891944
 20
-7.75370856289329
 30
0.0
 10
-3.499494094527973
 20
-7.757512229268569
 30
0.0
 10
-3.499520611908272
 20
-7.764865296202031
 30
0.0
 10
-3.499539997959542
 20
-7.768423117915349
 30
0.0
 10
-3.499613269903292
 20
-7.77873759211323
 30
0.0
 10
-3.499681309121112
 20
-7.784916367031539
 30
0.0
 10
-3.499783011580273
 20
-7.792416067146162
 30
0.0
 10
-3.499816170446143
 20
-7.794583231457075
 30
0.0
 10
-3.499877445278842
 20
-7.798263102998091
 30
0.0
 10
-3.499905607102481
 20
-7.799773654006472
 30
0.0
 10
-3.49997428126887
 20
-7.803091169349413
 30
0.0
 10
-3.499999999999999
 20
-7.803781962645751
 30
0.0
 10
-3.5
 20
-7.802831767426728
 30
0.0
  0
SPLINE
  5
A6
330
1F
100
AcDbEntity
  8
0
  6
Continuous
 62
     7
370
    25
100
AcDbSpline
210
0.0
220
0.0
230
1.0
 70
     8
 71
     3
 72
    30
 73
    26
 74
     0
 42
0.00000001
 43
0.00000001
 40
0.0
 40
0.0
 40
0.0
 40
0.0
 40
0.0294715572464743
 40
0.0589431211181263
 40
0.0884146982402324
 40
0.1178862952380649
 40
0.1473579187368698
 40
0.1768295753618895
 40
0.2063012717383385
 40
0.2357730144914008
 40
0.2652448102462329
 40
0.2947166656279626
 40
0.3241885872616566
 40
0.3536605817723595
 40
0.3831326557850571
 40
0.4126048159246743
 40
0.442077068816099
 40
0.4715494210841317
 40
0.5010218793535197
 40
0.5839415316829324
 40
0.7498523800434759
 40
0.8267537166970861
 40
0.8940870159070706
 40
0.9518394258013795
 40
0.9999999999999999
 40
0.9999999999999999
 40
0.9999999999999999
 40
0.9999999999999999
 10
-3.5
 20
-7.802831767426729
 30
0.0
 10
-3.4999997935042
 20
-7.8026062221514
 30
0.0
 10
-3.499999380512555
 20
-7.802155131550042
 30
0.0
 10
-3.499996040047467
 20
-7.800999431640849
 30
0.0
 10
-3.49999070768847
 20
-7.799502691670671
 30
0.0
 10
-3.499983188078485
 20
-7.797640978547487
 30
0.0
 10
-3.499973533561831
 20
-7.795437052383657
 30
0.0
 10
-3.499961730118422
 20
-7.792904340691273
 30
0.0
 10
-3.499947781484231
 20
-7.790061809402653
 30
0.0
 10
-3.499931686735494
 20
-7.786929815165157
 30
0.0
 10
-3.499913445831259
 20
-7.783531032976844
 30
0.0
 10
-3.499893059859127
 20
-7.779890004258259
 30
0.0
 10
-3.499870524509617
 20
-7.77603303730428
 30
0.0
 10
-3.499845855933107
 20
-7.771987994333175
 30
0.0
 10
-3.49981899383735
 20
-7.767784103996846
 30
0.0
 10
-3.499790163241858
 20
-7.763451717907746
 30
0.0
 10
-3.499758524357208
 20
-7.759022206812302
 30
0.0
 10
-3.499727211336047
 20
-7.754527304473782
 30
0.0
 10
-3.499658725391185
 20
-7.747264078791245
 30
0.0
 10
-3.499718121056822
 20
-7.732997903387769
 30
0.0
 10
-3.499813251330353
 20
-7.71753676980904
 30
0.0
 10
-3.499910970379317
 20
-7.706811045888322
 30
0.0
 10
-3.499960124973279
 20
-7.701584230633502
 30
0.0
 10
-3.499992762299967
 20
-7.698474777818233
 30
0.0
 10
-3.499997737627447
 20
-7.697576634702175
 30
0.0
 10
-3.5
 20
-7.697168232573274
 30
0.0
  0
SPLINE
  5
A7
330
1F
100
AcDbEntity
  8
0
  6
Continuous
 62
     7
370
    25
100
AcDbSpline
210
0.0
220
0.0
230
1.0
 70
     8
 71
     3
 72
    30
 73
    26
 74
     0
 42
0.00000001
 43
0.00000001
 40
0.0
 40
0.0
 40
0.0
 40
0.0
 40
0.0625000000000012
 40
0.0625000000000012
 40
0.1250000000000024
 40
0.1250000000000024
 40
0.249999999999995
 40
0.249999999999995
 40
0.3124999999999973
 40
0.3124999999999973
 40
0.3749999999999996
 40
0.3749999999999996
 40
0.4999999999999891
 40
0.4999999999999891
 40
0.5624999999999931
 40
0.5624999999999931
 40
0.6249999999999969
 40
0.6249999999999969
 40
0.7499999999999881
 40
0.7499999999999881
 40
0.8124999999999898
 40
0.8124999999999898
 40
0.8749999999999915
 40
0.8749999999999915
 40
1.0
 40
1.0
 40
1.0
 40
1.0
 10
-3.03108891324554
 20
-7.697168232573273
 30
0.0
 10
-3.029230996272029
 20
-7.696699753216524
 30
0.0
 10
-3.027315872079336
 20
-7.696624322394793
 30
0.0
 10
-3.023545441939832
 20
-7.697277992875399
 30
0.0
 10
-3.021692436191766
 20
-7.697994424747695
 30
0.0
 10
-3.016232146402382
 20
-7.701315370696348
 30
0.0
 10
-3.01282704278412
 20
-7.705058183985366
 30
0.0
 10
-3.008484462828596
 20
-7.712561271665232
 30
0.0
 10
-3.007190028279795
 20
-7.71532371890399
 30
0.0
 10
-3.004903854961191
 20
-7.721359954181847
 30
0.0
 10
-3.003909418193102
 20
-7.724664541511025
 30
0.0
 10
-3.001531089064063
 20
-7.734916426747048
 30
0.0
 10
-3.000692126136516
 20
-7.742470109760252
 30
0.0
 10
-3.00068804201469
 20
-7.753708562893287
 30
0.0
 10
-3.000894665597146
 20
-7.75751222926857
 30
0.0
 10
-3.00170777381832
 20
-7.764865296202031
 30
0.0
 10
-3.002308329332524
 20
-7.76842311791535
 30
0.0
 10
-3.004693736519192
 20
-7.778737592113229
 30
0.0
 10
-3.007028464268721
 20
-7.78491636703154
 30
0.0
 10
-3.011363285515409
 20
-7.792416067146162
 30
0.0
 10
-3.012919325871638
 20
-7.794583231457077
 30
0.0
 10
-3.016246843730696
 20
-7.798263102998091
 30
0.0
 10
-3.018030583923921
 20
-7.799773654006472
 30
0.0
 10
-3.02346183687839
 20
-7.803091169349411
 30
0.0
 10
-3.027320585356285
 20
-7.803781962645756
 30
0.0
 10
-3.031088913245539
 20
-7.802831767426728
 30
0.0
  0
SPLINE
  5
A8
330
1F
100
AcDbEntity
  8
0
  6
Continuous
 62
     7
370
    25
100
AcDbSpline
210
0.0
220
0.0
230
1.0
 70
     8
 71
     3
 72
    30
 73
    26
 74
     0
 42
0.00000001
 43
0.00000001
 40
0.0
 40
0.0
 40
0.0
 40
0.0
 40
0.0294715572464747
 40
0.0589431211181257
 40
0.0884146982402334
 40
0.1178862952380659
 40
0.1473579187368702
 40
0.1768295753618895
 40
0.2063012717383396
 40
0.2357730144914013
 40
0.2652448102462331
 40
0.2947166656279633
 40
0.3241885872616571
 40
0.3536605817723594
 40
0.3831326557850568
 40
0.4126048159246739
 40
0.442077068816099
 40
0.4715494210841316
 40
0.5010218793535196
 40
0.5839415316829324
 40
0.7498523800434747
 40
0.8267537166970849
 40
0.8940870159070694
 40
0.9518394258013787
 40
0.9999999999999999
 40
0.9999999999999999
 40
0.9999999999999999
 40
0.9999999999999999
 10
-3.031088913245539
 20
-7.802831767426728
 30
0.0
 10
-3.031835063865445
 20
-7.802606222151399
 30
0.0
 10
-3.033327365272989
 20
-7.802155131550041
 30
0.0
 10
-3.035516777861824
 20
-7.80099943164085
 30
0.0
 10
-3.037650118649078
 20
-7.799502691670672
 30
0.0
 10
-3.039709582502979
 20
-7.797640978547489
 30
0.0
 10
-3.041680876086712
 20
-7.795437052383654
 30
0.0
 10
-3.043549528055707
 20
-7.79290434069128
 30
0.0
 10
-3.045302009924379
 20
-7.790061809402649
 30
0.0
 10
-3.046925561593628
 20
-7.786929815165159
 30
0.0
 10
-3.048408356049704
 20
-7.783531032976847
 30
0.0
 10
-3.049739566961034
 20
-7.779890004258257
 30
0.0
 10
-3.05090944576656
 20
-7.776033037304282
 30
0.0
 10
-3.051909414455429
 20
-7.771987994333175
 30
0.0
 10
-3.052732039257965
 20
-7.767784103996846
 30
0.0
 10
-3.053371415122699
 20
-7.763451717907746
 30
0.0
 10
-3.053821973564439
 20
-7.759022206812303
 30
0.0
 10
-3.054083131393278
 20
-7.754527304473782
 30
0.0
 10
-3.054177738740791
 20
-7.747264078791249
 30
0.0
 10
-3.053385582987947
 20
-7.732997903387763
 30
0.0
 10
-3.049426265018882
 20
-7.717536769809039
 30
0.0
 10
-3.043586083770451
 20
-7.70681104588832
 30
0.0
 10
-3.039133407236054
 20
-7.7015842306335
 30
0.0
 10
-3.034978097150319
 20
-7.698474777818236
 30
0.0
 10
-3.032304600947538
 20
-7.697576634702175
 30
0.0
 10
-3.031088913245539
 20
-7.697168232573273
 30
0.0
  0
SPLINE
  5
A9
330
1F
100
AcDbEntity
  8
0
  6
Continuous
 62
     7
370
    25
100
AcDbSpline
210
0.0
220
0.0
230
1.0
 70
    11
 71
     3
 72
    50
 73
    46
 74
     0
 42
0.00000001
 43
0.00000001
 40
0.0
 40
0.0
 40
0.0
 40
0.0
 40
0.0625000000000069
 40
0.0625000000000069
 40
0.0937500000000093
 40
0.0937500000000093
 40
0.1250000000000116
 40
0.1250000000000116
 40
0.1875000000000145
 40
0.1875000000000145
 40
0.2500000000000174
 40
0.2500000000000174
 40
0.2812500000000189
 40
0.2812500000000189
 40
0.3125000000000204
 40
0.3125000000000204
 40
0.3750000000000233
 40
0.3750000000000233
 40
0.4375000000000263
 40
0.4375000000000263
 40
0.4687500000000266
 40
0.4687500000000266
 40
0.500000000000027
 40
0.500000000000027
 40
0.5625000000000252
 40
0.5625000000000252
 40
0.6250000000000235
 40
0.6250000000000235
 40
0.6562500000000218
 40
0.6562500000000218
 40
0.68750000000002
 40
0.68750000000002
 40
0.7187500000000182
 40
0.7187500000000182
 40
0.7500000000000164
 40
0.7500000000000164
 40
0.812500000000013
 40
0.812500000000013
 40
0.8437500000000108
 40
0.8437500000000108
 40
0.8750000000000085
 40
0.8750000000000085
 40
0.9375000000000043
 40
0.9375000000000043
 40
1.0
 40
1.0
 40
1.0
 40
1.0
 10
0.0599108445836939
 20
2.333333333333332
 30
0.0
 10
0.0599108445836939
 20
2.340369359171912
 30
0.0
 10
0.058525694598721
 20
2.347273526455669
 30
0.0
 10
0.0545164834640902
 20
2.356946520648717
 30
0.0
 10
0.0528808884887219
 20
2.360005029258377
 30
0.0
 10
0.0490166753685704
 20
2.365793392184538
 30
0.0
 10
0.0467675261767062
 20
2.368533952065242
 30
0.0
 10
0.039397938352105
 20
2.375902254645112
 30
0.0
 10
0.0334573113211317
 20
2.379869553318609
 30
0.0
 10
0.020642485246242
 20
2.385181034579502
 30
0.0
 10
0.0136352162679126
 20
2.386579568753606
 30
0.0
 10
0.0032168623388267
 20
2.386585203938996
 30
0.0
 10
-0.0003104695615684
 20
2.386239715083299
 30
0.0
 10
-0.0071400535615047
 20
2.384881559890324
 30
0.0
 10
-0.0104594878004904
 20
2.383876620233107
 30
0.0
 10
-0.0201301217428372
 20
2.379878742877153
 30
0.0
 10
-0.0260003081124483
 20
2.375973919892682
 30
0.0
 10
-0.035946055222874
 20
2.366038418663281
 30
0.0
 10
-0.0398556865307272
 20
2.360176769788338
 30
0.0
 10
-0.0438679374376149
 20
2.350497350909393
 30
0.0
 10
-0.0448753940137901
 20
2.347178093772618
 30
0.0
 10
-0.0462384885944854
 20
2.340356283546881
 30
0.0
 10
-0.0465879233052521
 20
2.336827270134085
 30
0.0
 10
-0.0465916096516684
 20
2.326401946592966
 30
0.0
 10
-0.0451991585937712
 20
2.319397213316435
 30
0.0
 10
-0.0398985733995027
 20
2.30657710101714
 30
0.0
 10
-0.0359340243354364
 20
2.300630855570345
 30
0.0
 10
-0.0285764349928456
 20
2.293259030712277
 30
0.0
 10
-0.0258404903110877
 20
2.291008872585802
 30
0.0
 10
-0.0200496745995695
 20
2.287135444718455
 30
0.0
 10
-0.016992584811177
 20
2.285497884321915
 30
0.0
 10
-0.010554305056733
 20
2.282822408503946
 30
0.0
 10
-0.007167773900271
 20
2.281793275289967
 30
0.0
 10
-0.0003606957146102
 20
2.280434314021744
 30
0.0
 10
0.0030957841387233
 20
2.280086905388585
 30
0.0
 10
0.0136296861017019
 20
2.280076270634541
 30
0.0
 10
0.0205434808489935
 20
2.281451759541539
 30
0.0
 10
0.0302334961110176
 20
2.285457365487571
 30
0.0
 10
0.0332938322920384
 20
2.287091206571817
 30
0.0
 10
0.0390804992078335
 20
2.290946822321544
 30
0.0
 10
0.0418242564579813
 20
2.293193807258631
 30
0.0
 10
0.0492044432323017
 20
2.30056226275887
 30
0.0
 10
0.0531737658513128
 20
2.306496258219141
 30
0.0
 10
0.0584968018554463
 20
2.319307857253944
 30
0.0
 10
0.0599108445836939
 20
2.326297307494754
 30
0.0
 10
0.0599108445836939
 20
2.333333333333332
 30
0.0
  0
SPLINE
  5
AA
330
1F
100
AcDbEntity
  8
0
  6
Continuous
 62
     7
370
    25
100
AcDbSpline
210
0.0
220
0.0
230
1.0
 70
    11
 71
     3
 72
    50
 73
    46
 74
     0
 42
0.00000001
 43
0.00000001
 40
0.0
 40
0.0
 40
0.0
 40
0.0
 40
0.0625000000000069
 40
0.0625000000000069
 40
0.0937500000000093
 40
0.0937500000000093
 40
0.1250000000000116
 40
0.1250000000000116
 40
0.1875000000000145
 40
0.1875000000000145
 40
0.2500000000000174
 40
0.2500000000000174
 40
0.2812500000000189
 40
0.2812500000000189
 40
0.3125000000000204
 40
0.3125000000000204
 40
0.3750000000000233
 40
0.3750000000000233
 40
0.4375000000000263
 40
0.4375000000000263
 40
0.4687500000000266
 40
0.4687500000000266
 40
0.500000000000027
 40
0.500000000000027
 40
0.5625000000000252
 40
0.5625000000000252
 40
0.6250000000000235
 40
0.6250000000000235
 40
0.6562500000000218
 40
0.6562500000000218
 40
0.68750000000002
 40
0.68750000000002
 40
0.7187500000000182
 40
0.7187500000000182
 40
0.7500000000000164
 40
0.7500000000000164
 40
0.812500000000013
 40
0.812500000000013
 40
0.8437500000000108
 40
0.8437500000000108
 40
0.8750000000000085
 40
0.8750000000000085
 40
0.9375000000000043
 40
0.9375000000000043
 40
1.0
 40
1.0
 40
1.0
 40
1.0
 10
0.0599108445836939
 20
-2.333333333333333
 30
0.0
 10
0.0599108445836939
 20
-2.326297307494754
 30
0.0
 10
0.058525694598721
 20
-2.319393140210999
 30
0.0
 10
0.0545164834640902
 20
-2.309720146017947
 30
0.0
 10
0.0528808884887219
 20
-2.306661637408289
 30
0.0
 10
0.0490166753685704
 20
-2.300873274482129
 30
0.0
 10
0.0467675261767062
 20
-2.298132714601423
 30
0.0
 10
0.039397938352105
 20
-2.290764412021553
 30
0.0
 10
0.0334573113211317
 20
-2.286797113348058
 30
0.0
 10
0.020642485246242
 20
-2.281485632087164
 30
0.0
 10
0.0136352162679126
 20
-2.280087097913059
 30
0.0
 10
0.0032168623388267
 20
-2.28008146272767
 30
0.0
 10
-0.0003104695615684
 20
-2.280426951583367
 30
0.0
 10
-0.0071400535615047
 20
-2.28178510677634
 30
0.0
 10
-0.0104594878004904
 20
-2.28279004643356
 30
0.0
 10
-0.0201301217428372
 20
-2.286787923789512
 30
0.0
 10
-0.0260003081124483
 20
-2.290692746773984
 30
0.0
 10
-0.035946055222874
 20
-2.300628248003387
 30
0.0
 10
-0.0398556865307272
 20
-2.306489896878327
 30
0.0
 10
-0.0438679374376149
 20
-2.316169315757272
 30
0.0
 10
-0.0448753940137901
 20
-2.319488572894047
 30
0.0
 10
-0.0462384885944854
 20
-2.326310383119784
 30
0.0
 10
-0.0465879233052521
 20
-2.32983939653258
 30
0.0
 10
-0.0465916096516684
 20
-2.340264720073698
 30
0.0
 10
-0.0451991585937712
 20
-2.347269453350231
 30
0.0
 10
-0.0398985733995027
 20
-2.360089565649525
 30
0.0
 10
-0.0359340243354364
 20
-2.366035811096319
 30
0.0
 10
-0.0285764349928456
 20
-2.373407635954389
 30
0.0
 10
-0.0258404903110877
 20
-2.375657794080865
 30
0.0
 10
-0.0200496745995695
 20
-2.37953122194821
 30
0.0
 10
-0.016992584811177
 20
-2.381168782344753
 30
0.0
 10
-0.010554305056733
 20
-2.38384425816272
 30
0.0
 10
-0.007167773900271
 20
-2.384873391376699
 30
0.0
 10
-0.0003606957146102
 20
-2.386232352644922
 30
0.0
 10
0.0030957841387233
 20
-2.386579761278082
 30
0.0
 10
0.0136296861017019
 20
-2.386590396032124
 30
0.0
 10
0.0205434808489935
 20
-2.385214907125127
 30
0.0
 10
0.0302334961110176
 20
-2.381209301179094
 30
0.0
 10
0.0332938322920384
 20
-2.379575460094849
 30
0.0
 10
0.0390804992078335
 20
-2.375719844345121
 30
0.0
 10
0.0418242564579813
 20
-2.373472859408037
 30
0.0
 10
0.0492044432323017
 20
-2.366104403907795
 30
0.0
 10
0.0531737658513128
 20
-2.360170408447525
 30
0.0
 10
0.0584968018554463
 20
-2.347358809412721
 30
0.0
 10
0.0599108445836939
 20
-2.34036935917191
 30
0.0
 10
0.0599108445836939
 20
-2.333333333333333
 30
0.0
  0
SPLINE
  5
AB
330
1F
100
AcDbEntity
  8
0
  6
Continuous
 62
     7
370
    25
100
AcDbSpline
210
0.0
220
0.0
230
1.0
 70
     8
 71
     3
 72
    16
 73
    12
 74
     0
 42
0.00000001
 43
0.00000001
 40
0.0
 40
0.0
 40
0.0
 40
0.0
 40
0.1020502583067031
 40
0.2197795805198659
 40
0.3375206973517237
 40
0.4552645854053777
 40
0.5729990890802786
 40
0.6907285997318265
 40
0.8084660165239198
 40
0.9262107261309657
 40
1.0
 40
1.0
 40
1.0
 40
1.0
 10
0.0012921518633984
 20
7.502301220022747
 30
0.0
 10
0.0063894321014701
 20
7.501219118603954
 30
0.0
 10
0.0173671418212113
 20
7.49888866104462
 30
0.0
 10
0.0315348430406609
 20
7.488437634808876
 30
0.0
 10
0.0421579155354606
 20
7.473741138036901
 30
0.0
 10
0.0472500362182364
 20
7.456212213946965
 30
0.0
 10
0.0462712613781027
 20
7.438030969435899
 30
0.0
 10
0.0393246533666013
 20
7.421164711744296
 30
0.0
 10
0.0271908883431764
 20
7.40764078589419
 30
0.0
 10
0.0132368420284725
 20
7.399688414910328
 30
0.0
 10
0.0036813092503591
 20
7.397869122599009
 30
0.0
 10
-0.0000000000000007
 20
7.397168232573272
 30
0.0
  0
SPLINE
  5
AC
330
1F
100
AcDbEntity
  8
0
  6
Continuous
 62
     7
370
    25
100
AcDbSpline
210
0.0
220
0.0
230
1.0
 70
     8
 71
     3
 72
    13
 73
     9
 74
     0
 42
0.00000001
 43
0.00000001
 40
0.0
 40
0.0
 40
0.0
 40
0.0
 40
0.0182187941565061
 40
0.224843102973813
 40
0.4314722750182034
 40
0.6380849783826147
 40
0.8446889194724123
 40
1.0
 40
1.0
 40
1.0
 40
1.0
 10
-1.713019896435035
 20
7.488717884726556
 30
0.0
 10
-1.713394445865764
 20
7.488420664818682
 30
0.0
 10
-1.718016862448263
 20
7.4847525929486
 30
0.0
 10
-1.723656360747486
 20
7.473406786858724
 30
0.0
 10
-1.728333131369691
 20
7.456280878660659
 30
0.0
 10
-1.727321691948599
 20
7.43809062841081
 30
0.0
 10
-1.722195782590344
 20
7.422283898704923
 30
0.0
 10
-1.715756103353658
 20
7.414873963773034
 30
0.0
 10
-1.712992599545413
 20
7.411694087470117
 30
0.0
  0
SPLINE
  5
AD
330
1F
100
AcDbEntity
  8
0
  6
Continuous
 62
     7
370
    25
100
AcDbSpline
210
0.0
220
0.0
230
1.0
 70
     8
 71
     3
 72
    12
 73
     8
 74
     0
 42
0.00000001
 43
0.00000001
 40
0.0
 40
0.0
 40
0.0
 40
0.0
 40
0.1801691197586037
 40
0.4217152150728447
 40
0.6632389841778452
 40
0.9047516982098849
 40
1.0
 40
1.0
 40
1.0
 40
1.0
 10
1.718740080556218
 20
7.885890291110711
 30
0.0
 10
1.721293420230128
 20
7.882180377232584
 30
0.0
 10
1.727269928253144
 20
7.873496718617209
 30
0.0
 10
1.731073692001592
 20
7.856058954393097
 30
0.0
 10
1.729970159695817
 20
7.837077189840405
 30
0.0
 10
1.72541820615651
 20
7.822206943361948
 30
0.0
 10
1.720070034281154
 20
7.815891846017736
 30
0.0
 10
1.718557376150089
 20
7.814105706086405
 30
0.0
  0
SPLINE
  5
AE
330
1F
100
AcDbEntity
  8
0
  6
Continuous
 62
     7
370
    25
100
AcDbSpline
210
0.0
220
0.0
230
1.0
 70
     8
 71
     3
 72
    13
 73
     9
 74
     0
 42
0.00000001
 43
0.00000001
 40
0.0
 40
0.0
 40
0.0
 40
0.0
 40
0.1099450211481419
 40
0.3037166674827488
 40
0.49747322224547
 40
0.691200516787589
 40
0.8849265642750805
 40
1.0
 40
1.0
 40
1.0
 40
1.0
 10
1.724294020039649
 20
7.807467666913142
 30
0.0
 10
1.726722800643969
 20
7.809718836047709
 30
0.0
 10
1.733432164501353
 20
7.815937558645158
 30
0.0
 10
1.739901349778947
 20
7.830951340196534
 30
0.0
 10
1.742885005935552
 20
7.849871365943663
 30
0.0
 10
1.739978048281358
 20
7.868814301810645
 30
0.0
 10
1.733479502855843
 20
7.883990109661788
 30
0.0
 10
1.726673185516628
 20
7.890338653065123
 30
0.0
 10
1.724136826605954
 20
7.892704423543981
 30
0.0
  0
SPLINE
  5
B3
330
1F
100
AcDbEntity
  8
0
  6
Continuous
 62
     7
370
    25
100
AcDbSpline
210
0.0
220
0.0
230
1.0
 70
     8
 71
     3
 72
    13
 73
     9
 74
     0
 42
0.00000001
 43
0.00000001
 40
0.0
 40
0.0
 40
0.0
 40
0.0
 40
0.0552117895825322
 40
0.2486373065190161
 40
0.4420671439685451
 40
0.6354791026151947
 40
0.8288822083720334
 40
1.0
 40
1.0
 40
1.0
 40
1.0
 10
-1.712551338447435
 20
7.892976181193754
 30
0.0
 10
-1.713852452212375
 20
7.891972751154504
 30
0.0
 10
-1.719711806245921
 20
7.887453967319999
 30
0.0
 10
-1.726428389973978
 20
7.874552979773112
 30
0.0
 10
-1.731178951031889
 20
7.856230776041019
 30
0.0
 10
-1.730038632494762
 20
7.836947176985088
 30
0.0
 10
-1.724124012027803
 20
7.819491305059267
 30
0.0
 10
-1.716678260456102
 20
7.811133189112239
 30
0.0
 10
-1.713182986042205
 20
7.807209621620532
 30
0.0
  0
SPLINE
  5
B4
330
1F
100
AcDbEntity
  8
0
  6
Continuous
 62
     7
370
    25
100
AcDbSpline
210
0.0
220
0.0
230
1.0
 70
     8
 71
     3
 72
    16
 73
    12
 74
     0
 42
0.00000001
 43
0.00000001
 40
0.0
 40
0.0
 40
0.0
 40
0.0
 40
0.1053407703034443
 40
0.2226363778812961
 40
0.339945290818493
 40
0.457256824065029
 40
0.5745575141562068
 40
0.6918528351373701
 40
0.8091573580200114
 40
0.926470010005204
 40
1.0
 40
1.0
 40
1.0
 40
1.0
 10
0.0016089594959505
 20
7.905596143151786
 30
0.0
 10
0.0072060722471388
 20
7.904372372099489
 30
0.0
 10
0.0190354988397887
 20
7.901785947549389
 30
0.0
 10
0.0341621012110305
 20
7.890496275118358
 30
0.0
 10
0.0453173333924657
 20
7.874813692665228
 30
0.0
 10
0.0505866583368531
 20
7.856178593466696
 30
0.0
 10
0.049408640413154
 20
7.836895225773919
 30
0.0
 10
0.041909233280304
 20
7.819053575557674
 30
0.0
 10
0.0289318005285924
 20
7.80479754793445
 30
0.0
 10
0.014065041282641
 20
7.796466498777357
 30
0.0
 10
0.0039119115207346
 20
7.794609489932438
 30
0.0
 10
0.0000000000000005
 20
7.793894000771469
 30
0.0
  0
SPLINE
  5
B5
330
1F
100
AcDbEntity
  8
0
  6
Continuous
 62
     7
370
    25
100
AcDbSpline
210
0.0
220
0.0
230
1.0
 70
     8
 71
     3
 72
    13
 73
     9
 74
     0
 42
0.00000001
 43
0.00000001
 40
0.0
 40
0.0
 40
0.0
 40
0.0
 40
0.0839508528761922
 40
0.2901490151282982
 40
0.4963332386174208
 40
0.7024892997027594
 40
0.90864337131201
 40
1.0
 40
1.0
 40
1.0
 40
1.0
 10
1.724120093160978
 20
7.411554779809236
 30
0.0
 10
1.725757206495361
 20
7.413080229032172
 30
0.0
 10
1.731415360109657
 20
7.418352451701736
 30
0.0
 10
1.737080090565907
 20
7.431713873186719
 30
0.0
 10
1.740060358199945
 20
7.449484212199183
 30
0.0
 10
1.737376702950021
 20
7.467330605805561
 30
0.0
 10
1.731816549898018
 20
7.480977546501874
 30
0.0
 10
1.726091039468742
 20
7.486496235786294
 30
0.0
 10
1.724332906635825
 20
7.488190860037783
 30
0.0
  0
SPLINE
  5
B6
330
1F
100
AcDbEntity
  8
0
  6
Continuous
 62
     7
370
    25
100
AcDbSpline
210
0.0
220
0.0
230
1.0
 70
     8
 71
     3
 72
    12
 73
     8
 74
     0
 42
0.00000001
 43
0.00000001
 40
0.0
 40
0.0
 40
0.0
 40
0.0
 40
0.1395314838473819
 40
0.409802558297688
 40
0.6800520917052226
 40
0.9502901640525785
 40
1.0
 40
1.0
 40
1.0
 40
1.0
 10
1.718463240544875
 20
7.480777060118172
 30
0.0
 10
1.72011695667279
 20
7.478352892665034
 30
0.0
 10
1.724973904232088
 20
7.47123313734784
 30
0.0
 10
1.728182085988804
 20
7.456049433408536
 30
0.0
 10
1.727225137610973
 20
7.438271182362514
 30
0.0
 10
1.723618262452922
 20
7.425237205534549
 30
0.0
 10
1.719458826410662
 20
7.420070979088147
 30
0.0
 10
1.718812580950278
 20
7.419268310083413
 30
0.0
  0
SPLINE
  5
B7
330
1F
100
AcDbEntity
  8
0
  6
Continuous
 62
     7
370
    25
100
AcDbSpline
210
0.0
220
0.0
230
1.0
 70
     8
 71
     3
 72
    13
 73
     9
 74
     0
 42
0.00000001
 43
0.00000001
 40
0.0
 40
0.0
 40
0.0
 40
0.0
 40
0.0342058057612802
 40
0.2391532121980746
 40
0.4441039653717415
 40
0.6490379208151708
 40
0.8539644247569171
 40
1.0
 40
1.0
 40
1.0
 40
1.0
 10
-1.712665456560522
 20
-7.788857049629713
 30
0.0
 10
-1.713370362366818
 20
-7.788285853238595
 30
0.0
 10
-1.718298779754475
 20
-7.784292278209699
 30
0.0
 10
-1.724058648425231
 20
-7.772522489562581
 30
0.0
 10
-1.728420716435426
 20
-7.75524645786157
 30
0.0
 10
-1.727115430125407
 20
-7.73710217227641
 30
0.0
 10
-1.721836204347531
 20
-7.721605788332804
 30
0.0
 10
-1.715435334902346
 20
-7.714490291885247
 30
0.0
 10
-1.712771928492017
 20
-7.711529528661846
 30
0.0
  0
SPLINE
  5
B8
330
1F
100
AcDbEntity
  8
0
  6
Continuous
 62
     7
370
    25
100
AcDbSpline
210
0.0
220
0.0
230
1.0
 70
     8
 71
     3
 72
    13
 73
     9
 74
     0
 42
0.00000001
 43
0.00000001
 40
0.0
 40
0.0
 40
0.0
 40
0.0
 40
0.1719614207684946
 40
0.3788916166815874
 40
0.5857967163817804
 40
0.7926809963489744
 40
0.999578831789396
 40
1.0
 40
1.0
 40
1.0
 40
1.0
 10
1.724353469336525
 20
-7.711387066478568
 30
0.0
 10
1.727348964082904
 20
-7.714967621729574
 30
0.0
 10
1.733949094752589
 20
-7.722856846891873
 30
0.0
 10
1.738970541980893
 20
-7.739195434643555
 30
0.0
 10
1.739645600998589
 20
-7.757437176418782
 30
0.0
 10
1.734628567449931
 20
-7.774373903907644
 30
0.0
 10
1.729154356418782
 20
-7.785277879571123
 30
0.0
 10
1.724886829185947
 20
-7.788605869930397
 30
0.0
 10
1.724878159711482
 20
-7.788612630737267
 30
0.0
  0
SPLINE
  5
B9
330
1F
100
AcDbEntity
  8
0
  6
Continuous
 62
     7
370
    25
100
AcDbSpline
210
0.0
220
0.0
230
1.0
 70
     8
 71
     3
 72
    12
 73
     8
 74
     0
 42
0.00000001
 43
0.00000001
 40
0.0
 40
0.0
 40
0.0
 40
0.0
 40
0.1490010758410359
 40
0.4194169681931795
 40
0.6898106973029787
 40
0.960194594760804
 40
1.0
 40
1.0
 40
1.0
 40
1.0
 10
1.718655152492421
 20
-7.780479040742681
 30
0.0
 10
1.720382401260446
 20
-7.777856874616083
 30
0.0
 10
1.725244362407447
 20
-7.77047584759525
 30
0.0
 10
1.728284703897235
 20
-7.755032100023382
 30
0.0
 10
1.727008950538287
 20
-7.737288099541608
 30
0.0
 10
1.723308474103797
 20
-7.724509708689318
 30
0.0
 10
1.719215305302947
 20
-7.719576445531864
 30
0.0
 10
1.718690044626923
 20
-7.718943378764485
 30
0.0
  0
SPLINE
  5
BA
330
1F
100
AcDbEntity
  8
0
  6
Continuous
 62
     7
370
    25
100
AcDbSpline
210
0.0
220
0.0
230
1.0
 70
     8
 71
     3
 72
    16
 73
    12
 74
     0
 42
0.00000001
 43
0.00000001
 40
0.0
 40
0.0
 40
0.0
 40
0.0
 40
0.1154656806588603
 40
0.2309310155674352
 40
0.3464045085835619
 40
0.461879887251247
 40
0.5773458015757679
 40
0.6928075175015754
 40
0.8082774517311132
 40
0.9237539590198957
 40
1.0
 40
1.0
 40
1.0
 40
1.0
 10
0.0
 20
-7.802831767426728
 30
0.0
 10
0.0058668712464107
 20
-7.80149875416207
 30
0.0
 10
0.0176005961714804
 20
-7.798832731624333
 30
0.0
 10
0.0322650762746162
 20
-7.787732669583489
 30
0.0
 10
0.0425954955258491
 20
-7.772807360213983
 30
0.0
 10
0.0473589250291164
 20
-7.755191311070615
 30
0.0
 10
0.0460340503926331
 20
-7.737037920431937
 30
0.0
 10
0.0387753146877746
 20
-7.720275862009281
 30
0.0
 10
0.0263676563070684
 20
-7.707098698450163
 30
0.0
 10
0.0121520417840827
 20
-7.698932774758945
 30
0.0
 10
0.0022259088138457
 20
-7.698022227318148
 30
0.0
 10
-0.001721609869044
 20
-7.697660112177742
 30
0.0
  0
SPLINE
  5
BB
330
1F
100
AcDbEntity
  8
0
  6
Continuous
 62
     7
370
    25
100
AcDbSpline
210
0.0
220
0.0
230
1.0
 70
    11
 71
     3
 72
    50
 73
    46
 74
     0
 42
0.00000001
 43
0.00000001
 40
0.0
 40
0.0
 40
0.0
 40
0.0
 40
0.0625000000000019
 40
0.0625000000000019
 40
0.0937500000000034
 40
0.0937500000000034
 40
0.1250000000000049
 40
0.1250000000000049
 40
0.187500000000008
 40
0.187500000000008
 40
0.2500000000000111
 40
0.2500000000000111
 40
0.2812500000000114
 40
0.2812500000000114
 40
0.3125000000000118
 40
0.3125000000000118
 40
0.3750000000000126
 40
0.3750000000000126
 40
0.4375000000000135
 40
0.4375000000000135
 40
0.4687500000000147
 40
0.4687500000000147
 40
0.500000000000016
 40
0.500000000000016
 40
0.562500000000014
 40
0.562500000000014
 40
0.6250000000000119
 40
0.6250000000000119
 40
0.65625000000001
 40
0.65625000000001
 40
0.687500000000008
 40
0.687500000000008
 40
0.7187500000000061
 40
0.7187500000000061
 40
0.7500000000000041
 40
0.7500000000000041
 40
0.8125000000000032
 40
0.8125000000000032
 40
0.8437500000000038
 40
0.8437500000000038
 40
0.8750000000000043
 40
0.8750000000000043
 40
0.9375000000000022
 40
0.9375000000000022
 40
1.0
 40
1.0
 40
1.0
 40
1.0
 10
-2.922835737772497
 20
-2.386165100760061
 30
0.0
 10
-2.919345352586063
 20
-2.385284989630093
 30
0.0
 10
-2.915987800085001
 20
-2.383047108142194
 30
0.0
 10
-2.911393976719073
 20
-2.377859376567857
 30
0.0
 10
-2.909961174058698
 20
-2.375854025881073
 30
0.0
 10
-2.907293301929158
 20
-2.371296048068189
 30
0.0
 10
-2.906054073061594
 20
-2.36872169836476
 30
0.0
 10
-2.902801683029481
 20
-2.360488106879318
 30
0.0
 10
-2.901169442848911
 20
-2.354097684943477
 30
0.0
 10
-2.899294046940048
 20
-2.340718780492834
 30
0.0
 10
-2.899032130361032
 20
-2.333591503255042
 30
0.0
 10
-2.899696415607668
 20
-2.323254261097476
 30
0.0
 10
-2.900097704541177
 20
-2.319797878220154
 30
0.0
 10
-2.90122343022814
 20
-2.313191911583244
 30
0.0
 10
-2.901945052116221
 20
-2.310024304616131
 30
0.0
 10
-2.904585810173131
 20
-2.300929868929145
 30
0.0
 10
-2.906932516762007
 20
-2.295594351410637
 30
0.0
 10
-2.912557447987681
 20
-2.286969688028045
 30
0.0
 10
-2.915739689454646
 20
-2.283824041571651
 30
0.0
 10
-2.920811644087934
 20
-2.281054217988074
 30
0.0
 10
-2.92252340663457
 20
-2.280469931845604
 30
0.0
 10
-2.925987732035642
 20
-2.279970995864844
 30
0.0
 10
-2.927752861152445
 20
-2.280065810834834
 30
0.0
 10
-2.932889462026181
 20
-2.281366419128876
 30
0.0
 10
-2.936234694701082
 20
-2.283624223605381
 30
0.0
 10
-2.942160599915101
 20
-2.290486805414059
 30
0.0
 10
-2.944802120176806
 20
-2.29516392427042
 30
0.0
 10
-2.947918936432648
 20
-2.303385710428875
 30
0.0
 10
-2.948838661736929
 20
-2.306381591541267
 30
0.0
 10
-2.950354526458422
 20
-2.312611379438063
 30
0.0
 10
-2.95095746815614
 20
-2.315849270614865
 30
0.0
 10
-2.951854497615485
 20
-2.322571615409021
 30
0.0
 10
-2.95214403701082
 20
-2.326060289284372
 30
0.0
 10
-2.952384822961364
 20
-2.332983900925398
 30
0.0
 10
-2.952342349147409
 20
-2.336456691469632
 30
0.0
 10
-2.951708758849914
 20
-2.346909187159508
 30
0.0
 10
-2.950628343606308
 20
-2.353596639810534
 30
0.0
 10
-2.948105700324293
 20
-2.36270945835429
 30
0.0
 10
-2.947129897555538
 20
-2.365541378002358
 30
0.0
 10
-2.944910112005057
 20
-2.370800304122037
 30
0.0
 10
-2.943652780750396
 20
-2.373241440078738
 30
0.0
 10
-2.939619048948422
 20
-2.379641962438272
 30
0.0
 10
-2.936479196755417
 20
-2.382837867087526
 30
0.0
 10
-2.929862108486769
 20
-2.386516557118434
 30
0.0
 10
-2.926326122958931
 20
-2.387045211890028
 30
0.0
 10
-2.922835737772497
 20
-2.386165100760061
 30
0.0
  0
SPLINE
  5
BC
330
1F
100
AcDbEntity
  8
0
  6
Continuous
 62
     7
370
    25
100
AcDbSpline
210
0.0
220
0.0
230
1.0
 70
    11
 71
     3
 72
    50
 73
    46
 74
     0
 42
0.00000001
 43
0.00000001
 40
0.0
 40
0.0
 40
0.0
 40
0.0
 40
0.0624999999999966
 40
0.0624999999999966
 40
0.0937499999999964
 40
0.0937499999999964
 40
0.1249999999999963
 40
0.1249999999999963
 40
0.1874999999999974
 40
0.1874999999999974
 40
0.2499999999999985
 40
0.2499999999999985
 40
0.2812500000000002
 40
0.2812500000000002
 40
0.312500000000002
 40
0.312500000000002
 40
0.3750000000000012
 40
0.3750000000000012
 40
0.4375000000000003
 40
0.4375000000000003
 40
0.4687500000000014
 40
0.4687500000000014
 40
0.5000000000000024
 40
0.5000000000000024
 40
0.5625000000000046
 40
0.5625000000000046
 40
0.6250000000000068
 40
0.6250000000000068
 40
0.6562500000000069
 40
0.6562500000000069
 40
0.6875000000000069
 40
0.6875000000000069
 40
0.718750000000007
 40
0.718750000000007
 40
0.7500000000000071
 40
0.7500000000000071
 40
0.8125000000000046
 40
0.8125000000000046
 40
0.8437500000000044
 40
0.8437500000000044
 40
0.8750000000000043
 40
0.8750000000000043
 40
0.9375000000000021
 40
0.9375000000000021
 40
1.0
 40
1.0
 40
1.0
 40
1.0
 10
2.922835737772475
 20
-2.386165100760061
 30
0.0
 10
2.926326122958908
 20
-2.385284989630093
 30
0.0
 10
2.929645247964636
 20
-2.383047108142192
 30
0.0
 10
2.934147014104085
 20
-2.377859376567857
 30
0.0
 10
2.935544132214167
 20
-2.375854025881074
 30
0.0
 10
2.938135849189148
 20
-2.371296048068188
 30
0.0
 10
2.939334355012295
 20
-2.36872169836476
 30
0.0
 10
2.942470641460776
 20
-2.360488106879316
 30
0.0
 10
2.944031462759011
 20
-2.354097684943477
 30
0.0
 10
2.945822746213345
 20
-2.340718780492832
 30
0.0
 10
2.946071724651972
 20
-2.333591503255043
 30
0.0
 10
2.945438196193154
 20
-2.323254261097476
 30
0.0
 10
2.945055419914547
 20
-2.319797878220153
 30
0.0
 10
2.943979256991747
 20
-2.313191911583244
 30
0.0
 10
2.943288567984649
 20
-2.31002430461613
 30
0.0
 10
2.940753061078731
 20
-2.300929868929145
 30
0.0
 10
2.938491297728153
 20
-2.295594351410638
 30
0.0
 10
2.933014548159028
 20
-2.286969688028045
 30
0.0
 10
2.929892038079964
 20
-2.28382404157165
 30
0.0
 10
2.924858540596157
 20
-2.281054217988074
 30
0.0
 10
2.92315105642711
 20
-2.280469931845604
 30
0.0
 10
2.919676611664158
 20
-2.279970995864844
 30
0.0
 10
2.917896737991974
 20
-2.280065810834833
 30
0.0
 10
2.912689512549174
 20
-2.281366419128875
 30
0.0
 10
2.909259383547883
 20
-2.28362422360538
 30
0.0
 10
2.903129272060181
 20
-2.290486805414059
 30
0.0
 10
2.900367352723686
 20
-2.295163924270418
 30
0.0
 10
2.897090739464375
 20
-2.303385710428875
 30
0.0
 10
2.89612024327261
 20
-2.306381591541266
 30
0.0
 10
2.894517497352564
 20
-2.312611379438062
 30
0.0
 10
2.893878151429004
 20
-2.315849270614866
 30
0.0
 10
2.892926070251065
 20
-2.322571615409021
 30
0.0
 10
2.89261816489468
 20
-2.326060289284371
 30
0.0
 10
2.892362136179929
 20
-2.332983900925398
 30
0.0
 10
2.892407342200079
 20
-2.336456691469634
 30
0.0
 10
2.893080851050551
 20
-2.346909187159509
 30
0.0
 10
2.894229955500946
 20
-2.353596639810533
 30
0.0
 10
2.896893521753903
 20
-2.362709458354291
 30
0.0
 10
2.897921525000071
 20
-2.36554137800236
 30
0.0
 10
2.900250894063691
 20
-2.370800304122037
 30
0.0
 10
2.901566097476046
 20
-2.373241440078739
 30
0.0
 10
2.905766082450976
 20
-2.379641962438271
 30
0.0
 10
2.909010137968207
 20
-2.382837867087526
 30
0.0
 10
2.915769887961659
 20
-2.386516557118434
 30
0.0
 10
2.919345352586041
 20
-2.387045211890029
 30
0.0
 10
2.922835737772475
 20
-2.386165100760061
 30
0.0
  0
SPLINE
  5
BD
330
1F
100
AcDbEntity
  8
0
  6
Continuous
 62
     7
370
    25
100
AcDbSpline
210
0.0
220
0.0
230
1.0
 70
    11
 71
     3
 72
    50
 73
    46
 74
     0
 42
0.00000001
 43
0.00000001
 40
0.0
 40
0.0
 40
0.0
 40
0.0
 40
0.062500000000001
 40
0.062500000000001
 40
0.0937500000000021
 40
0.0937500000000021
 40
0.1250000000000032
 40
0.1250000000000032
 40
0.1875000000000054
 40
0.1875000000000054
 40
0.2500000000000077
 40
0.2500000000000077
 40
0.2812500000000075
 40
0.2812500000000075
 40
0.3125000000000074
 40
0.3125000000000074
 40
0.3750000000000071
 40
0.3750000000000071
 40
0.4375000000000068
 40
0.4375000000000068
 40
0.4687500000000075
 40
0.4687500000000075
 40
0.5000000000000082
 40
0.5000000000000082
 40
0.5625000000000072
 40
0.5625000000000072
 40
0.6250000000000062
 40
0.6250000000000062
 40
0.6562500000000047
 40
0.6562500000000047
 40
0.6875000000000032
 40
0.6875000000000032
 40
0.7187500000000017
 40
0.7187500000000017
 40
0.7500000000000002
 40
0.7500000000000002
 40
0.8125000000000002
 40
0.8125000000000002
 40
0.8437500000000013
 40
0.8437500000000013
 40
0.8750000000000026
 40
0.8750000000000026
 40
0.9375000000000013
 40
0.9375000000000013
 40
1.0
 40
1.0
 40
1.0
 40
1.0
 10
-2.922835737772497
 20
2.280501565906603
 30
0.0
 10
-2.919345352586062
 20
2.281381677036571
 30
0.0
 10
-2.915987800085
 20
2.283619558524474
 30
0.0
 10
-2.911393976719074
 20
2.288807290098809
 30
0.0
 10
-2.909961174058698
 20
2.290812640785592
 30
0.0
 10
-2.907293301929159
 20
2.295370618598476
 30
0.0
 10
-2.906054073061593
 20
2.297944968301907
 30
0.0
 10
-2.902801683029478
 20
2.306178559787348
 30
0.0
 10
-2.901169442848909
 20
2.312568981723188
 30
0.0
 10
-2.899294046940046
 20
2.325947886173831
 30
0.0
 10
-2.899032130361034
 20
2.333075163411622
 30
0.0
 10
-2.899696415607667
 20
2.343412405569189
 30
0.0
 10
-2.900097704541177
 20
2.346868788446513
 30
0.0
 10
-2.901223430228138
 20
2.353474755083421
 30
0.0
 10
-2.901945052116221
 20
2.356642362050535
 30
0.0
 10
-2.904585810173129
 20
2.365736797737521
 30
0.0
 10
-2.906932516762008
 20
2.371072315256028
 30
0.0
 10
-2.912557447987682
 20
2.37969697863862
 30
0.0
 10
-2.915739689454646
 20
2.382842625095017
 30
0.0
 10
-2.920811644087933
 20
2.385612448678592
 30
0.0
 10
-2.922523406634572
 20
2.386196734821062
 30
0.0
 10
-2.925987732035642
 20
2.386695670801822
 30
0.0
 10
-2.927752861152446
 20
2.386600855831833
 30
0.0
 10
-2.932889462026179
 20
2.38530024753779
 30
0.0
 10
-2.936234694701084
 20
2.383042443061285
 30
0.0
 10
-2.942160599915101
 20
2.376179861252606
 30
0.0
 10
-2.94480212017681
 20
2.371502742396245
 30
0.0
 10
-2.947918936432647
 20
2.36328095623779
 30
0.0
 10
-2.948838661736926
 20
2.360285075125399
 30
0.0
 10
-2.950354526458419
 20
2.354055287228602
 30
0.0
 10
-2.950957468156141
 20
2.350817396051799
 30
0.0
 10
-2.951854497615485
 20
2.344095051257645
 30
0.0
 10
-2.952144037010819
 20
2.340606377382295
 30
0.0
 10
-2.952384822961364
 20
2.333682765741267
 30
0.0
 10
-2.952342349147407
 20
2.330209975197032
 30
0.0
 10
-2.951708758849914
 20
2.319757479507157
 30
0.0
 10
-2.950628343606307
 20
2.313070026856133
 30
0.0
 10
-2.948105700324293
 20
2.303957208312376
 30
0.0
 10
-2.94712989755554
 20
2.301125288664308
 30
0.0
 10
-2.944910112005056
 20
2.29586636254463
 30
0.0
 10
-2.943652780750396
 20
2.293425226587927
 30
0.0
 10
-2.939619048948423
 20
2.287024704228394
 30
0.0
 10
-2.936479196755417
 20
2.28382879957914
 30
0.0
 10
-2.929862108486767
 20
2.280150109548231
 30
0.0
 10
-2.926326122958931
 20
2.279621454776636
 30
0.0
 10
-2.922835737772497
 20
2.280501565906603
 30
0.0
  0
SPLINE
  5
BE
330
1F
100
AcDbEntity
  8
0
  6
Continuous
 62
     7
370
    25
100
AcDbSpline
210
0.0
220
0.0
230
1.0
 70
    11
 71
     3
 72
    50
 73
    46
 74
     0
 42
0.00000001
 43
0.00000001
 40
0.0
 40
0.0
 40
0.0
 40
0.0
 40
0.0625000000000019
 40
0.0625000000000019
 40
0.0937500000000044
 40
0.0937500000000044
 40
0.1250000000000069
 40
0.1250000000000069
 40
0.1875000000000134
 40
0.1875000000000134
 40
0.2500000000000198
 40
0.2500000000000198
 40
0.281250000000022
 40
0.281250000000022
 40
0.3125000000000244
 40
0.3125000000000244
 40
0.3750000000000246
 40
0.3750000000000246
 40
0.4375000000000247
 40
0.4375000000000247
 40
0.468750000000024
 40
0.468750000000024
 40
0.5000000000000232
 40
0.5000000000000232
 40
0.5625000000000234
 40
0.5625000000000234
 40
0.6250000000000238
 40
0.6250000000000238
 40
0.6562500000000229
 40
0.6562500000000229
 40
0.6875000000000221
 40
0.6875000000000221
 40
0.7187500000000213
 40
0.7187500000000213
 40
0.7500000000000204
 40
0.7500000000000204
 40
0.8125000000000162
 40
0.8125000000000162
 40
0.8437500000000142
 40
0.8437500000000142
 40
0.8750000000000121
 40
0.8750000000000121
 40
0.9375000000000061
 40
0.9375000000000061
 40
1.0
 40
1.0
 40
1.0
 40
1.0
 10
2.922835737772474
 20
2.280501565906604
 30
0.0
 10
2.926326122958907
 20
2.281381677036572
 30
0.0
 10
2.929645247964634
 20
2.283619558524474
 30
0.0
 10
2.934147014104086
 20
2.288807290098809
 30
0.0
 10
2.935544132214165
 20
2.290812640785592
 30
0.0
 10
2.938135849189148
 20
2.295370618598476
 30
0.0
 10
2.939334355012294
 20
2.297944968301906
 30
0.0
 10
2.942470641460775
 20
2.306178559787348
 30
0.0
 10
2.944031462759013
 20
2.312568981723188
 30
0.0
 10
2.945822746213345
 20
2.325947886173832
 30
0.0
 10
2.946071724651973
 20
2.333075163411622
 30
0.0
 10
2.945438196193154
 20
2.343412405569189
 30
0.0
 10
2.945055419914548
 20
2.346868788446513
 30
0.0
 10
2.943979256991748
 20
2.353474755083422
 30
0.0
 10
2.94328856798465
 20
2.356642362050536
 30
0.0
 10
2.940753061078731
 20
2.365736797737521
 30
0.0
 10
2.938491297728151
 20
2.371072315256026
 30
0.0
 10
2.933014548159028
 20
2.37969697863862
 30
0.0
 10
2.929892038079959
 20
2.382842625095017
 30
0.0
 10
2.924858540596157
 20
2.385612448678592
 30
0.0
 10
2.923151056427107
 20
2.386196734821062
 30
0.0
 10
2.919676611664157
 20
2.386695670801823
 30
0.0
 10
2.917896737991974
 20
2.386600855831832
 30
0.0
 10
2.912689512549173
 20
2.38530024753779
 30
0.0
 10
2.909259383547882
 20
2.383042443061286
 30
0.0
 10
2.903129272060181
 20
2.376179861252604
 30
0.0
 10
2.900367352723683
 20
2.371502742396245
 30
0.0
 10
2.897090739464376
 20
2.36328095623779
 30
0.0
 10
2.89612024327261
 20
2.360285075125399
 30
0.0
 10
2.894517497352565
 20
2.354055287228602
 30
0.0
 10
2.893878151429005
 20
2.350817396051799
 30
0.0
 10
2.892926070251066
 20
2.344095051257645
 30
0.0
 10
2.89261816489468
 20
2.340606377382295
 30
0.0
 10
2.892362136179929
 20
2.333682765741267
 30
0.0
 10
2.892407342200079
 20
2.330209975197033
 30
0.0
 10
2.893080851050552
 20
2.319757479507157
 30
0.0
 10
2.894229955500946
 20
2.313070026856134
 30
0.0
 10
2.896893521753901
 20
2.303957208312374
 30
0.0
 10
2.897921525000071
 20
2.301125288664307
 30
0.0
 10
2.900250894063691
 20
2.295866362544629
 30
0.0
 10
2.901566097476045
 20
2.293425226587927
 30
0.0
 10
2.905766082450976
 20
2.287024704228394
 30
0.0
 10
2.909010137968207
 20
2.283828799579139
 30
0.0
 10
2.915769887961658
 20
2.28015010954823
 30
0.0
 10
2.919345352586041
 20
2.279621454776636
 30
0.0
 10
2.922835737772474
 20
2.280501565906604
 30
0.0
  0
LINE
  5
BF
330
1F
100
AcDbEntity
  8
0
  6
Continuous
 62
     7
370
    25
100
AcDbLine
 10
-3.5
 20
-7.8028317674
 30
0.0
 11
-3.5
 21
-8.0
 31
0.0
  0
LINE
  5
C0
330
1F
100
AcDbEntity
  8
0
  6
Continuous
 62
     7
370
    25
100
AcDbLine
 10
-3.5
 20
-7.0
 30
0.0
 11
-3.5
 21
-7.6971682326
 31
0.0
  0
LINE
  5
C1
330
1F
100
AcDbEntity
  8
0
  6
Continuous
 62
     7
370
    25
100
AcDbLine
 10
-3.5
 20
7.3972536285
 30
0.0
 11
-3.5
 21
7.0
 31
0.0
  0
LINE
  5
C2
330
1F
100
AcDbEntity
  8
0
  6
Continuous
 62
     7
370
    25
100
AcDbLine
 10
-3.5
 20
7.7939154896
 30
0.0
 11
-3.5
 21
7.5020952275
 31
0.0
  0
LINE
  5
C3
330
1F
100
AcDbEntity
  8
0
  6
Continuous
 62
     7
370
    25
100
AcDbLine
 10
-3.5
 20
8.0
 30
0.0
 11
-3.5
 21
7.9053396082
 31
0.0
  0
LINE
  5
C4
330
1F
100
AcDbEntity
  8
0
  6
Continuous
 62
     7
370
    25
100
AcDbLine
 10
3.5
 20
7.9053396082
 30
0.0
 11
3.5
 21
8.0
 31
0.0
  0
LINE
  5
C5
330
1F
100
AcDbEntity
  8
0
  6
Continuous
 62
     7
370
    25
100
AcDbLine
 10
3.5
 20
7.5020952275
 30
0.0
 11
3.5
 21
7.7939154896
 31
0.0
  0
LINE
  5
C6
330
1F
100
AcDbEntity
  8
0
  6
Continuous
 62
     7
370
    25
100
AcDbLine
 10
3.5
 20
7.0
 30
0.0
 11
3.5
 21
7.3972536285
 31
0.0
  0
LINE
  5
C7
330
1F
100
AcDbEntity
  8
0
  6
Continuous
 62
     7
370
    25
100
AcDbLine
 10
3.5
 20
-7.6971682326
 30
0.0
 11
3.5
 21
-7.0
 31
0.0
  0
LINE
  5
C8
330
1F
100
AcDbEntity
  8
0
  6
Continuous
 62
     7
370
    25
100
AcDbLine
 10
3.5
 20
-8.0
 30
0.0
 11
3.5
 21
-7.8028317674
 31
0.0
  0
LINE
  5
C9
330
1F
100
AcDbEntity
  8
0
  6
Continuous
 62
     7
370
    25
100
AcDbLine
 10
3.5
 20
8.0
 30
0.0
 11
-3.5
 21
8.0
 31
0.0
  0
LINE
  5
CA
330
1F
100
AcDbEntity
  8
0
  6
Continuous
 62
     7
370
    25
100
AcDbLine
 10
3.5
 20
-8.0
 30
0.0
 11
-3.5
 21
-8.0
 31
0.0
  0
LINE
  5
CB
330
1F
100
AcDbEntity
  8
0
  6
Continuous
 62
     7
370
    25
100
AcDbLine
 10
-3.5
 20
7.0
 30
0.0
 11
-0.5166238691
 21
7.0
 31
0.0
  0
LINE
  5
CC
330
1F
100
AcDbEntity
  8
0
  6
Continuous
 62
     7
370
    25
100
AcDbLine
 10
-3.2594521901
 20
-7.0
 30
0.0
 11
-3.2594521901
 21
7.0
 31
0.0
  0
LINE
  5
CD
330
1F
100
AcDbEntity
  8
0
  6
Continuous
 62
     7
370
    25
100
AcDbLine
 10
-3.5
 20
-7.0
 30
0.0
 11
-0.5166238691
 21
-7.0
 31
0.0
  0
LINE
  5
CE
330
1F
100
AcDbEntity
  8
0
  6
Continuous
 62
     7
370
    25
100
AcDbLine
 10
-0.5166238691
 20
-7.0
 30
0.0
 11
-0.5166238691
 21
7.0
 31
0.0
  0
LINE
  5
CF
330
1F
100
AcDbEntity
  8
0
  6
Continuous
 62
     7
370
    25
100
AcDbLine
 10
0.525426061
 20
7.0
 30
0.0
 11
3.5
 21
7.0
 31
0.0
  0
LINE
  5
D0
330
1F
100
AcDbEntity
  8
0
  6
Continuous
 62
     7
370
    25
100
AcDbLine
 10
0.525426061
 20
-7.0
 30
0.0
 11
0.525426061
 21
7.0
 31
0.0
  0
LINE
  5
D1
330
1F
100
AcDbEntity
  8
0
  6
Continuous
 62
     7
370
    25
100
AcDbLine
 10
0.525426061
 20
-7.0
 30
0.0
 11
3.5
 21
-7.0
 31
0.0
  0
LINE
  5
D2
330
1F
100
AcDbEntity
  8
0
  6
Continuous
 62
     7
370
    25
100
AcDbLine
 10
3.2561986624
 20
-7.0
 30
0.0
 11
3.2561986624
 21
7.0
 31
0.0
  0
LINE
  5
D3
330
1F
100
AcDbEntity
  8
0
  6
Continuous
 62
     7
370
    25
100
AcDbLine
 10
-3.1430431834
 20
-7.0
 30
0.0
 11
-3.1430431834
 21
7.0
 31
0.0
  0
LINE
  5
D4
330
1F
100
AcDbEntity
  8
0
  6
Continuous
 62
     7
370
    25
100
AcDbLine
 10
3.1399058531
 20
-7.0
 30
0.0
 11
3.1399058531
 21
7.0
 31
0.0
  0
LINE
  5
D5
330
1F
100
AcDbEntity
  8
0
  6
Continuous
 62
     7
370
    25
100
AcDbLine
 10
2.6363823388
 20
-7.0
 30
0.0
 11
2.6363823388
 21
7.0
 31
0.0
  0
LINE
  5
D6
330
1F
100
AcDbEntity
  8
0
  6
Continuous
 62
     7
370
    25
100
AcDbLine
 10
-2.6417328365
 20
-7.0
 30
0.0
 11
-2.6417328365
 21
7.0
 31
0.0
  0
MTEXT
  5
D8
330
1F
100
AcDbEntity
  8
0
  6
Continuous
 62
     7
100
AcDbMText
 10
-3.5
 20
-8.0401404091
 30
0.0
 40
0.1903
 41
0.0
 71
     1
 72
     1
  1
SOLIDWORKS Educational Product.
  7
SLDTEXTSTYLE0
 73
     1
 44
1.0
  0
MTEXT
  5
D9
330
1F
100
AcDbEntity
  8
0
  6
Continuous
 62
     7
100
AcDbMText
 10
-3.5
 20
-8.3255904091
 30
0.0
 40
0.1903
 41
0.0
 71
     1
 72
     1
  1
For Instructional Use Only.
  7
SLDTEXTSTYLE0
 73
     1
 44
1.0
  0
ENDSEC
  0
SECTION
  2
OBJECTS
  0
DICTIONARY
  5
C
330
0
100
AcDbDictionary
281
     1
  3
ACAD_GROUP
350
D
  3
ACAD_LAYOUT
350
1A
  3
ACAD_MLINESTYLE
350
17
  3
ACAD_PLOTSETTINGS
350
19
  3
ACAD_PLOTSTYLENAME
350
E
  3
ACAD_SCALELIST
350
47
  3
DWGPROPS
350
DA
  0
DICTIONARY
  5
D
102
{ACAD_REACTORS
330
C
102
}
330
C
100
AcDbDictionary
281
     1
  0
DICTIONARY
  5
1A
102
{ACAD_REACTORS
330
C
102
}
330
C
100
AcDbDictionary
281
     1
  3
Layout1
350
1E
  3
Layout2
350
26
  3
Model
350
22
  0
DICTIONARY
  5
17
102
{ACAD_REACTORS
330
C
102
}
330
C
100
AcDbDictionary
281
     1
  3
Standard
350
18
  0
DICTIONARY
  5
19
102
{ACAD_REACTORS
330
C
102
}
330
C
100
AcDbDictionary
281
     1
  0
ACDBDICTIONARYWDFLT
  5
E
102
{ACAD_REACTORS
330
C
102
}
330
C
100
AcDbDictionary
281
     1
  3
Normal
350
F
100
AcDbDictionaryWithDefault
340
F
  0
DICTIONARY
  5
47
102
{ACAD_REACTORS
330
C
102
}
330
C
100
AcDbDictionary
281
     1
  3
A0
350
48
  3
A1
350
49
  3
A2
350
4A
  3
A3
350
4B
  3
A4
350
4C
  3
A5
350
4D
  3
A6
350
4E
  3
A7
350
4F
  3
A8
350
50
  3
A9
350
51
  3
B0
350
52
  3
B1
350
53
  3
B2
350
54
  3
B3
350
55
  3
B4
350
56
  3
B5
350
57
  3
B6
350
58
  3
B7
350
59
  3
B8
350
5A
  3
B9
350
5B
  3
C0
350
5C
  3
C1
350
5D
  3
C2
350
5E
  3
C3
350
5F
  3
C4
350
60
  3
C5
350
61
  3
C6
350
62
  3
C7
350
63
  3
C8
350
64
  3
C9
350
65
  3
D0
350
66
  3
D1
350
67
  3
D2
350
68
  0
XRECORD
  5
DA
102
{ACAD_REACTORS
330
C
102
}
330
C
100
AcDbXrecord
280
     1
  1
DWGPROPS COOKIE
  2

  3

  4

  6

  7

  8
olori
  9

300
=
301
=
302
=
303
=
304
=
305
=
306
=
307
=
308
=
309
=
 40
0.0
 41
2459496.161730023
 42
2459496.161840232
  1

 90
        0
  0
LAYOUT
  5
1E
102
{ACAD_REACTORS
330
1A
102
}
330
1A
100
AcDbPlotSettings
  1

  2
none_device
  4

  6

 40
0.0
 41
0.0
 42
0.0
 43
0.0
 44
0.0
 45
0.0
 46
0.0
 47
0.0
 48
0.0
 49
0.0
140
0.0
141
0.0
142
1.0
143
1.0
 70
   688
 72
     0
 73
     0
 74
     5
  7

 75
    16
147
1.0
148
0.0
149
0.0
100
AcDbLayout
  1
Layout1
 70
     1
 71
     1
 10
0.0
 20
0.0
 11
12.0
 21
9.0
 12
0.0
 22
0.0
 32
0.0
 14
1.0000000000E+20
 24
1.0000000000E+20
 34
1.0000000000E+20
 15
-1.0000000000E+20
 25
-1.0000000000E+20
 35
-1.0000000000E+20
146
0.0
 13
0.0
 23
0.0
 33
0.0
 16
1.0
 26
0.0
 36
0.0
 17
0.0
 27
1.0
 37
0.0
 76
     0
330
1B
  0
LAYOUT
  5
26
102
{ACAD_REACTORS
330
1A
102
}
330
1A
100
AcDbPlotSettings
  1

  2
none_device
  4

  6

 40
0.0
 41
0.0
 42
0.0
 43
0.0
 44
0.0
 45
0.0
 46
0.0
 47
0.0
 48
0.0
 49
0.0
140
0.0
141
0.0
142
1.0
143
1.0
 70
   688
 72
     0
 73
     0
 74
     5
  7

 75
    16
147
1.0
148
0.0
149
0.0
100
AcDbLayout
  1
Layout2
 70
     1
 71
     2
 10
0.0
 20
0.0
 11
0.0
 21
0.0
 12
0.0
 22
0.0
 32
0.0
 14
0.0
 24
0.0
 34
0.0
 15
0.0
 25
0.0
 35
0.0
146
0.0
 13
0.0
 23
0.0
 33
0.0
 16
1.0
 26
0.0
 36
0.0
 17
0.0
 27
1.0
 37
0.0
 76
     0
330
23
  0
LAYOUT
  5
22
102
{ACAD_REACTORS
330
1A
102
}
330
1A
100
AcDbPlotSettings
  1

  2
none_device
  4
ANSI_A_(11.00_x_8.50_Inches)
  6

 40
6.35
 41
19.05
 42
6.35000508
 43
19.05000254
 44
279.4
 45
215.9
 46
133.34999746
 47
88.89999873
 48
0.0
 49
0.0
140
0.0
141
0.0
142
0.5259375
143
1.0
 70
  1696
 72
     0
 73
     0
 74
     0
  7

 75
     0
147
0.5913241897
148
-39.4088153714
149
0.0
100
AcDbLayout
  1
Model
 70
     1
 71
     0
 10
0.0
 20
0.0
 11
12.0
 21
9.0
 12
0.0
 22
0.0
 32
0.0
 14
-3.5
 24
-8.0
 34
0.0
 15
3.5
 25
8.0
 35
0.0
146
0.0
 13
0.0
 23
0.0
 33
0.0
 16
1.0
 26
0.0
 36
0.0
 17
0.0
 27
1.0
 37
0.0
 76
     0
330
1F
331
29
  0
MLINESTYLE
  5
18
102
{ACAD_REACTORS
330
17
102
}
330
17
100
AcDbMlineStyle
  2
Standard
 70
     0
  3

 62
   256
 51
90.0
 52
90.0
 71
     2
 49
0.5
 62
   256
  6
BYLAYER
 49
-0.5
 62
   256
  6
BYLAYER
  0
ACDBPLACEHOLDER
  5
F
102
{ACAD_REACTORS
330
E
102
}
330
E
  0
SCALE
  5
48
102
{ACAD_REACTORS
330
47
102
}
330
47
100
AcDbScale
 70
     0
300
1:1
140
1.0
141
1.0
290
     1
  0
SCALE
  5
49
102
{ACAD_REACTORS
330
47
102
}
330
47
100
AcDbScale
 70
     0
300
1:2
140
1.0
141
2.0
290
     0
  0
SCALE
  5
4A
102
{ACAD_REACTORS
330
47
102
}
330
47
100
AcDbScale
 70
     0
300
1:4
140
1.0
141
4.0
290
     0
  0
SCALE
  5
4B
102
{ACAD_REACTORS
330
47
102
}
330
47
100
AcDbScale
 70
     0
300
1:5
140
1.0
141
5.0
290
     0
  0
SCALE
  5
4C
102
{ACAD_REACTORS
330
47
102
}
330
47
100
AcDbScale
 70
     0
300
1:8
140
1.0
141
8.0
290
     0
  0
SCALE
  5
4D
102
{ACAD_REACTORS
330
47
102
}
330
47
100
AcDbScale
 70
     0
300
1:10
140
1.0
141
10.0
290
     0
  0
SCALE
  5
4E
102
{ACAD_REACTORS
330
47
102
}
330
47
100
AcDbScale
 70
     0
300
1:16
140
1.0
141
16.0
290
     0
  0
SCALE
  5
4F
102
{ACAD_REACTORS
330
47
102
}
330
47
100
AcDbScale
 70
     0
300
1:20
140
1.0
141
20.0
290
     0
  0
SCALE
  5
50
102
{ACAD_REACTORS
330
47
102
}
330
47
100
AcDbScale
 70
     0
300
1:30
140
1.0
141
30.0
290
     0
  0
SCALE
  5
51
102
{ACAD_REACTORS
330
47
102
}
330
47
100
AcDbScale
 70
     0
300
1:40
140
1.0
141
40.0
290
     0
  0
SCALE
  5
52
102
{ACAD_REACTORS
330
47
102
}
330
47
100
AcDbScale
 70
     0
300
1:50
140
1.0
141
50.0
290
     0
  0
SCALE
  5
53
102
{ACAD_REACTORS
330
47
102
}
330
47
100
AcDbScale
 70
     0
300
1:100
140
1.0
141
100.0
290
     0
  0
SCALE
  5
54
102
{ACAD_REACTORS
330
47
102
}
330
47
100
AcDbScale
 70
     0
300
2:1
140
2.0
141
1.0
290
     0
  0
SCALE
  5
55
102
{ACAD_REACTORS
330
47
102
}
330
47
100
AcDbScale
 70
     0
300
4:1
140
4.0
141
1.0
290
     0
  0
SCALE
  5
56
102
{ACAD_REACTORS
330
47
102
}
330
47
100
AcDbScale
 70
     0
300
8:1
140
8.0
141
1.0
290
     0
  0
SCALE
  5
57
102
{ACAD_REACTORS
330
47
102
}
330
47
100
AcDbScale
 70
     0
300
10:1
140
10.0
141
1.0
290
     0
  0
SCALE
  5
58
102
{ACAD_REACTORS
330
47
102
}
330
47
100
AcDbScale
 70
     0
300
100:1
140
100.0
141
1.0
290
     0
  0
SCALE
  5
59
102
{ACAD_REACTORS
330
47
102
}
330
47
100
AcDbScale
 70
     0
300
1/128" = 1'-0"
140
0.0078125
141
12.0
290
     0
  0
SCALE
  5
5A
102
{ACAD_REACTORS
330
47
102
}
330
47
100
AcDbScale
 70
     0
300
1/64" = 1'-0"
140
0.015625
141
12.0
290
     0
  0
SCALE
  5
5B
102
{ACAD_REACTORS
330
47
102
}
330
47
100
AcDbScale
 70
     0
300
1/32" = 1'-0"
140
0.03125
141
12.0
290
     0
  0
SCALE
  5
5C
102
{ACAD_REACTORS
330
47
102
}
330
47
100
AcDbScale
 70
     0
300
1/16" = 1'-0"
140
0.0625
141
12.0
290
     0
  0
SCALE
  5
5D
102
{ACAD_REACTORS
330
47
102
}
330
47
100
AcDbScale
 70
     0
300
3/32" = 1'-0"
140
0.09375
141
12.0
290
     0
  0
SCALE
  5
5E
102
{ACAD_REACTORS
330
47
102
}
330
47
100
AcDbScale
 70
     0
300
1/8" = 1'-0"
140
0.125
141
12.0
290
     0
  0
SCALE
  5
5F
102
{ACAD_REACTORS
330
47
102
}
330
47
100
AcDbScale
 70
     0
300
3/16" = 1'-0"
140
0.1875
141
12.0
290
     0
  0
SCALE
  5
60
102
{ACAD_REACTORS
330
47
102
}
330
47
100
AcDbScale
 70
     0
300
1/4" = 1'-0"
140
0.25
141
12.0
290
     0
  0
SCALE
  5
61
102
{ACAD_REACTORS
330
47
102
}
330
47
100
AcDbScale
 70
     0
300
3/8" = 1'-0"
140
0.375
141
12.0
290
     0
  0
SCALE
  5
62
102
{ACAD_REACTORS
330
47
102
}
330
47
100
AcDbScale
 70
     0
300
1/2" = 1'-0"
140
0.5
141
12.0
290
     0
  0
SCALE
  5
63
102
{ACAD_REACTORS
330
47
102
}
330
47
100
AcDbScale
 70
     0
300
3/4" = 1'-0"
140
0.75
141
12.0
290
     0
  0
SCALE
  5
64
102
{ACAD_REACTORS
330
47
102
}
330
47
100
AcDbScale
 70
     0
300
1" = 1'-0"
140
1.0
141
12.0
290
     0
  0
SCALE
  5
65
102
{ACAD_REACTORS
330
47
102
}
330
47
100
AcDbScale
 70
     0
300
1-1/2" = 1'-0"
140
1.5
141
12.0
290
     0
  0
SCALE
  5
66
102
{ACAD_REACTORS
330
47
102
}
330
47
100
AcDbScale
 70
     0
300
3" = 1'-0"
140
3.0
141
12.0
290
     0
  0
SCALE
  5
67
102
{ACAD_REACTORS
330
47
102
}
330
47
100
AcDbScale
 70
     0
300
6" = 1'-0"
140
6.0
141
12.0
290
     0
  0
SCALE
  5
68
102
{ACAD_REACTORS
330
47
102
}
330
47
100
AcDbScale
 70
     0
300
1'-0" = 1'-0"
140
12.0
141
12.0
290
     0
  0
ENDSEC
  0
EOF
