%TF.GenerationSoftware,KiCad,Pcbnew,6.0.11-2627ca5db0~126~ubuntu22.04.1*%
%TF.CreationDate,2023-03-24T18:23:20-04:00*%
%TF.ProjectId,Io,496f2e6b-6963-4616-945f-706362585858,rev?*%
%TF.SameCoordinates,Original*%
%TF.FileFunction,Copper,L4,Bot*%
%TF.FilePolarity,Positive*%
%FSLAX46Y46*%
G04 Gerber Fmt 4.6, Leading zero omitted, Abs format (unit mm)*
G04 Created by KiCad (PCBNEW 6.0.11-2627ca5db0~126~ubuntu22.04.1) date 2023-03-24 18:23:20*
%MOMM*%
%LPD*%
G01*
G04 APERTURE LIST*
G04 Aperture macros list*
%AMRoundRect*
0 Rectangle with rounded corners*
0 $1 Rounding radius*
0 $2 $3 $4 $5 $6 $7 $8 $9 X,Y pos of 4 corners*
0 Add a 4 corners polygon primitive as box body*
4,1,4,$2,$3,$4,$5,$6,$7,$8,$9,$2,$3,0*
0 Add four circle primitives for the rounded corners*
1,1,$1+$1,$2,$3*
1,1,$1+$1,$4,$5*
1,1,$1+$1,$6,$7*
1,1,$1+$1,$8,$9*
0 Add four rect primitives between the rounded corners*
20,1,$1+$1,$2,$3,$4,$5,0*
20,1,$1+$1,$4,$5,$6,$7,0*
20,1,$1+$1,$6,$7,$8,$9,0*
20,1,$1+$1,$8,$9,$2,$3,0*%
G04 Aperture macros list end*
%TA.AperFunction,ComponentPad*%
%ADD10C,6.400000*%
%TD*%
%TA.AperFunction,ComponentPad*%
%ADD11C,2.100000*%
%TD*%
%TA.AperFunction,ComponentPad*%
%ADD12R,2.100000X2.100000*%
%TD*%
%TA.AperFunction,ComponentPad*%
%ADD13R,1.700000X1.700000*%
%TD*%
%TA.AperFunction,ComponentPad*%
%ADD14O,1.700000X1.700000*%
%TD*%
%TA.AperFunction,ComponentPad*%
%ADD15C,2.586000*%
%TD*%
%TA.AperFunction,ComponentPad*%
%ADD16C,1.969000*%
%TD*%
%TA.AperFunction,SMDPad,CuDef*%
%ADD17R,0.950000X0.460000*%
%TD*%
%TA.AperFunction,SMDPad,CuDef*%
%ADD18R,5.080000X2.420000*%
%TD*%
%TA.AperFunction,ComponentPad*%
%ADD19C,0.970000*%
%TD*%
%TA.AperFunction,SMDPad,CuDef*%
%ADD20RoundRect,0.140000X-0.170000X0.140000X-0.170000X-0.140000X0.170000X-0.140000X0.170000X0.140000X0*%
%TD*%
%TA.AperFunction,SMDPad,CuDef*%
%ADD21R,1.400000X0.620000*%
%TD*%
%TA.AperFunction,SMDPad,CuDef*%
%ADD22R,2.400000X1.100000*%
%TD*%
%TA.AperFunction,ViaPad*%
%ADD23C,0.700000*%
%TD*%
%TA.AperFunction,Conductor*%
%ADD24C,0.150000*%
%TD*%
%TA.AperFunction,Conductor*%
%ADD25C,0.800000*%
%TD*%
%TA.AperFunction,Conductor*%
%ADD26C,1.600000*%
%TD*%
G04 APERTURE END LIST*
D10*
%TO.P,H3,1*%
%TO.N,GND*%
X172212000Y-146812000D03*
%TD*%
%TO.P,H4,1*%
%TO.N,GND*%
X132842000Y-146558000D03*
%TD*%
%TO.P,H1,1*%
%TO.N,GND*%
X133350000Y-64770000D03*
%TD*%
%TO.P,H2,1*%
%TO.N,GND*%
X171450000Y-64770000D03*
%TD*%
D11*
%TO.P,J2,8,Pin_8*%
%TO.N,ARM*%
X161544000Y-146963500D03*
%TO.P,J2,7,Pin_7*%
%TO.N,PYRO4_SW*%
X159004000Y-146963500D03*
%TO.P,J2,6,Pin_6*%
%TO.N,ARM*%
X156464000Y-146963500D03*
%TO.P,J2,5,Pin_5*%
%TO.N,PYRO3_SW*%
X153924000Y-146963500D03*
%TO.P,J2,4,Pin_4*%
%TO.N,ARM*%
X151384000Y-146963500D03*
%TO.P,J2,3,Pin_3*%
%TO.N,PYRO2_SW*%
X148844000Y-146963500D03*
%TO.P,J2,2,Pin_2*%
%TO.N,ARM*%
X146304000Y-146963500D03*
D12*
%TO.P,J2,1,Pin_1*%
%TO.N,PYRO1_SW*%
X143764000Y-146963500D03*
%TD*%
D13*
%TO.P,J1,1,Pin_1*%
%TO.N,+3.3V*%
X129540000Y-113020000D03*
D14*
%TO.P,J1,2,Pin_2*%
%TO.N,I2C3_SDA*%
X129540000Y-110480000D03*
%TO.P,J1,3,Pin_3*%
%TO.N,I2C3_SCL*%
X129540000Y-107940000D03*
%TO.P,J1,4,Pin_4*%
%TO.N,GND*%
X129540000Y-105400000D03*
%TD*%
D13*
%TO.P,J3,1,Pin_1*%
%TO.N,+3.3V*%
X175768000Y-84074000D03*
D14*
%TO.P,J3,2,Pin_2*%
%TO.N,SWDIO*%
X175768000Y-81534000D03*
%TO.P,J3,3,Pin_3*%
%TO.N,SWCLK*%
X175768000Y-78994000D03*
%TO.P,J3,4,Pin_4*%
%TO.N,GND*%
X175768000Y-76454000D03*
%TD*%
D12*
%TO.P,J5,1,Pin_1*%
%TO.N,ARM*%
X131445000Y-75184000D03*
D11*
%TO.P,J5,2,Pin_2*%
%TO.N,BATT*%
X131445000Y-77724000D03*
%TD*%
D12*
%TO.P,J4,1,Pin_1*%
%TO.N,BATT*%
X131445000Y-82380000D03*
D11*
%TO.P,J4,2,Pin_2*%
%TO.N,GND*%
X131445000Y-84920000D03*
%TD*%
D15*
%TO.P,J7,MH1*%
%TO.N,N/C*%
X175260000Y-97610000D03*
%TO.P,J7,MH2*%
X175260000Y-90410000D03*
D16*
%TO.P,J7,MH3*%
X172460000Y-97310000D03*
%TO.P,J7,MH4*%
X172460000Y-90710000D03*
%TD*%
D17*
%TO.P,J8,2,Ext*%
%TO.N,GND*%
X171375000Y-141540000D03*
D18*
X174365000Y-141540000D03*
D19*
X170925000Y-141540000D03*
D17*
X171375000Y-132780000D03*
D18*
X174365000Y-132780000D03*
D19*
X170925000Y-132780000D03*
%TD*%
D20*
%TO.P,C19,1*%
%TO.N,+3.3V*%
X144764000Y-125758000D03*
%TO.P,C19,2*%
%TO.N,GND*%
X144764000Y-126718000D03*
%TD*%
D21*
%TO.P,J6,1,DAT2*%
%TO.N,SDMMC_D2*%
X142992000Y-122388000D03*
%TO.P,J6,2,DAT3/CD*%
%TO.N,SDMMC_D3*%
X142992000Y-123488000D03*
%TO.P,J6,3,CMD*%
%TO.N,SDMMC_CMD*%
X142992000Y-124588000D03*
%TO.P,J6,4,VDD*%
%TO.N,+3.3V*%
X142992000Y-125688000D03*
%TO.P,J6,5,CLK*%
%TO.N,SDMMC_CLK*%
X142992000Y-126788000D03*
%TO.P,J6,6,VSS*%
%TO.N,GND*%
X142992000Y-127888000D03*
%TO.P,J6,7,DAT0*%
%TO.N,SDMMC_D0*%
X142992000Y-128988000D03*
%TO.P,J6,8,DAT1*%
%TO.N,SDMMC_D1*%
X142992000Y-130088000D03*
%TO.P,J6,9,DET_B*%
%TO.N,SDMMC_DET*%
X142992000Y-131188000D03*
D22*
%TO.P,J6,SH1*%
%TO.N,N/C*%
X131992000Y-132568000D03*
%TO.P,J6,SH2*%
X140992000Y-132568000D03*
%TO.P,J6,SH3*%
X140992000Y-116418000D03*
%TO.P,J6,SH4*%
X131992000Y-116418000D03*
%TD*%
D23*
%TO.N,ARM*%
X132334000Y-111760000D03*
X132334000Y-109474000D03*
%TO.N,GND*%
X148590000Y-96774000D03*
X162306000Y-109220000D03*
X156468000Y-110216000D03*
X134112000Y-105410000D03*
X141224000Y-66040000D03*
X171196000Y-107950000D03*
X140716000Y-127762000D03*
X136144000Y-114808000D03*
X165147000Y-135175000D03*
X146812000Y-136295500D03*
X162306000Y-116840000D03*
X165354000Y-107950000D03*
X149835000Y-137454750D03*
X136144000Y-109630500D03*
X158750000Y-109982000D03*
X138684000Y-136295500D03*
X142748000Y-136295500D03*
X163576000Y-118110000D03*
X171196000Y-92710000D03*
X172466000Y-116840000D03*
X149352000Y-116332000D03*
X164084000Y-68580000D03*
X142421500Y-113284000D03*
X152654000Y-98806000D03*
X134366000Y-111506000D03*
X163576000Y-99060000D03*
X157480000Y-81788000D03*
X134366000Y-112776000D03*
X142748000Y-101854000D03*
X155960000Y-113899000D03*
X139446000Y-85598000D03*
X172466000Y-109220000D03*
X153162000Y-105918000D03*
X136647496Y-107916732D03*
X138176000Y-102870000D03*
X150368000Y-101346000D03*
X138697875Y-110747301D03*
X146050000Y-86360000D03*
X134620000Y-136295500D03*
X142748000Y-67310000D03*
X170544000Y-127364000D03*
X136906000Y-105156000D03*
X146685000Y-96139000D03*
X159766000Y-68580000D03*
X150368000Y-122936000D03*
X171196000Y-118110000D03*
%TO.N,+3.3V*%
X138684000Y-105156000D03*
X141478000Y-101854000D03*
X148844000Y-98806000D03*
X169164000Y-107950000D03*
X136144000Y-113792000D03*
X140716000Y-125730000D03*
X141605000Y-96139000D03*
X150368000Y-116332000D03*
X172466000Y-114808000D03*
X142803910Y-112469834D03*
X153162000Y-104902000D03*
X156464000Y-104140000D03*
X152654000Y-99822000D03*
X151384000Y-97028000D03*
X165497000Y-129175000D03*
X165862000Y-70866000D03*
X156976000Y-113899000D03*
%TO.N,VBUS*%
X166562595Y-87691405D03*
X168148000Y-96774000D03*
%TO.N,SPI2_SCK*%
X153162000Y-112340500D03*
X155960000Y-111941998D03*
%TO.N,PYRO1*%
X146170500Y-116332000D03*
X136398000Y-134750500D03*
%TO.N,PYRO2*%
X140462000Y-134771500D03*
X146537500Y-117218007D03*
%TO.N,PYRO3*%
X146921500Y-118065858D03*
X144780000Y-134771500D03*
%TO.N,PYRO4*%
X148844000Y-134771500D03*
X147457500Y-118872000D03*
%TO.N,SDMMC_DET*%
X149142196Y-111060067D03*
%TO.N,SDMMC_D0*%
X146624411Y-110302411D03*
%TO.N,SDMMC_D1*%
X148336000Y-109474000D03*
%TO.N,RF_DIO0*%
X153162000Y-109474000D03*
X165354000Y-127254000D03*
%TO.N,RF_DIO1*%
X165354000Y-125222000D03*
X153924000Y-108849500D03*
%TO.N,RF_DIO5*%
X154724081Y-108225000D03*
X167132000Y-121412000D03*
%TO.N,SDMMC_D2*%
X147297000Y-106934000D03*
%TO.N,SDMMC_D3*%
X147921500Y-106047401D03*
%TO.N,SDMMC_CLK*%
X146116411Y-105476411D03*
%TO.N,SDMMC_CMD*%
X146921500Y-104882000D03*
%TO.N,I2C1_SDA*%
X146050000Y-100584000D03*
X148336000Y-100192500D03*
%TD*%
D24*
%TO.N,PYRO1*%
X146170500Y-116332000D02*
X145912500Y-116590000D01*
X145909974Y-130442026D02*
X142240000Y-134112000D01*
X145912500Y-116590000D02*
X145912500Y-124261052D01*
X145912500Y-124261052D02*
X146400000Y-124748552D01*
X146400000Y-124748552D02*
X146400000Y-128909948D01*
X146400000Y-128909948D02*
X145909974Y-129399974D01*
X145909974Y-129399974D02*
X145909974Y-130442026D01*
X142240000Y-134112000D02*
X137036500Y-134112000D01*
X137036500Y-134112000D02*
X136398000Y-134750500D01*
%TO.N,PYRO2*%
X146537500Y-117218007D02*
X146296500Y-117459007D01*
X146296500Y-117459007D02*
X146296500Y-122166500D01*
X146296500Y-122166500D02*
X146763026Y-122633026D01*
X146763026Y-122633026D02*
X146763026Y-131620974D01*
X146763026Y-131620974D02*
X143510000Y-134874000D01*
X143510000Y-134874000D02*
X140564500Y-134874000D01*
X140564500Y-134874000D02*
X140462000Y-134771500D01*
%TO.N,PYRO3*%
X147113026Y-133302974D02*
X145644500Y-134771500D01*
X145644500Y-134771500D02*
X144780000Y-134771500D01*
%TO.N,PYRO4*%
X148844000Y-120258500D02*
X148844000Y-134771500D01*
%TO.N,SDMMC_CLK*%
X139954000Y-125476000D02*
X139954000Y-125984000D01*
X138176000Y-119634000D02*
X140208000Y-121666000D01*
X140208000Y-121666000D02*
X140208000Y-125222000D01*
X140208000Y-125222000D02*
X139954000Y-125476000D01*
X140725000Y-126755000D02*
X142430500Y-126755000D01*
X146116411Y-105476411D02*
X138176000Y-113416822D01*
X138176000Y-113416822D02*
X138176000Y-119634000D01*
X139954000Y-125984000D02*
X140725000Y-126755000D01*
D25*
%TO.N,ARM*%
X132334000Y-111760000D02*
X132334000Y-109474000D01*
D24*
%TO.N,GND*%
X143417000Y-127855000D02*
X144554000Y-126718000D01*
X140716000Y-127762000D02*
X140809000Y-127855000D01*
X140809000Y-127855000D02*
X143417000Y-127855000D01*
X144554000Y-126718000D02*
X144764000Y-126718000D01*
%TO.N,+3.3V*%
X140791000Y-125655000D02*
X143661000Y-125655000D01*
X143764000Y-125758000D02*
X144764000Y-125758000D01*
X140716000Y-125730000D02*
X140791000Y-125655000D01*
X143661000Y-125655000D02*
X143764000Y-125758000D01*
D26*
%TO.N,VBUS*%
X168148000Y-89276810D02*
X168148000Y-96774000D01*
X166562595Y-87691405D02*
X168148000Y-89276810D01*
D24*
%TO.N,SPI2_SCK*%
X153162000Y-112340500D02*
X153540502Y-111961998D01*
X155940000Y-111961998D02*
X155960000Y-111941998D01*
X153540502Y-111961998D02*
X155940000Y-111961998D01*
%TO.N,PYRO3*%
X147113026Y-122488051D02*
X147113026Y-133302974D01*
X146921500Y-118065858D02*
X146654000Y-118333358D01*
X146654000Y-118333358D02*
X146654000Y-122029026D01*
X146654000Y-122029026D02*
X147113026Y-122488051D01*
%TO.N,PYRO4*%
X147457500Y-118872000D02*
X148844000Y-120258500D01*
%TO.N,SDMMC_DET*%
X146050000Y-124893526D02*
X145384000Y-124227526D01*
X147765933Y-111060067D02*
X149142196Y-111060067D01*
X145384000Y-124227526D02*
X145384000Y-121254000D01*
X143626974Y-131188000D02*
X146050000Y-128764974D01*
X144526000Y-114300000D02*
X147765933Y-111060067D01*
X145384000Y-121254000D02*
X144526000Y-120396000D01*
X142992000Y-131188000D02*
X143626974Y-131188000D01*
X146050000Y-128764974D02*
X146050000Y-124893526D01*
X144526000Y-120396000D02*
X144526000Y-114300000D01*
%TO.N,SDMMC_D0*%
X143755500Y-114037500D02*
X143764000Y-114046000D01*
X146624411Y-110302411D02*
X143755500Y-113171322D01*
X143764000Y-121158000D02*
X143764000Y-114046000D01*
X144062000Y-128988000D02*
X142992000Y-128988000D01*
X145349000Y-125283000D02*
X145349000Y-127701000D01*
X144526000Y-121920000D02*
X143764000Y-121158000D01*
X145349000Y-125283000D02*
X144526000Y-124460000D01*
X143755500Y-113171322D02*
X143755500Y-114037500D01*
X144526000Y-124460000D02*
X144526000Y-121920000D01*
X145349000Y-127701000D02*
X144062000Y-128988000D01*
%TO.N,SDMMC_D1*%
X145699000Y-125125000D02*
X145699000Y-128621000D01*
X144232000Y-130088000D02*
X142992000Y-130088000D01*
X145699000Y-128621000D02*
X144232000Y-130088000D01*
X145034000Y-121412000D02*
X144114000Y-120492000D01*
X145699000Y-125125000D02*
X145034000Y-124460000D01*
X144114000Y-113696000D02*
X148336000Y-109474000D01*
X145034000Y-124460000D02*
X145034000Y-121412000D01*
X144114000Y-120492000D02*
X144114000Y-113696000D01*
%TO.N,RF_DIO0*%
X153162000Y-109474000D02*
X154375886Y-109474000D01*
X161681000Y-116779114D02*
X161681000Y-123581000D01*
X154375886Y-109474000D02*
X161681000Y-116779114D01*
X161681000Y-123581000D02*
X165354000Y-127254000D01*
%TO.N,RF_DIO1*%
X155985384Y-108849500D02*
X165354000Y-118218116D01*
X165354000Y-118218116D02*
X165354000Y-125222000D01*
X153924000Y-108849500D02*
X155985384Y-108849500D01*
%TO.N,RF_DIO5*%
X157876884Y-108225000D02*
X167132000Y-117480116D01*
X167132000Y-117480116D02*
X167132000Y-121412000D01*
X154724081Y-108225000D02*
X157876884Y-108225000D01*
%TO.N,SDMMC_D2*%
X138955500Y-117210000D02*
X138955500Y-115560000D01*
X142992000Y-121246500D02*
X138955500Y-117210000D01*
X142992000Y-122388000D02*
X142992000Y-121246500D01*
X142178910Y-112336590D02*
X142178910Y-112210950D01*
X147297000Y-107092860D02*
X147297000Y-106934000D01*
X142178910Y-112210950D02*
X147297000Y-107092860D01*
X138955500Y-115560000D02*
X142178910Y-112336590D01*
%TO.N,SDMMC_D3*%
X144018000Y-121920000D02*
X144018000Y-123444000D01*
X144018000Y-123444000D02*
X143974000Y-123488000D01*
X147921500Y-106047401D02*
X147921500Y-108121438D01*
X143405500Y-121307500D02*
X144018000Y-121920000D01*
X147921500Y-108121438D02*
X143405500Y-112637438D01*
X143405500Y-112637438D02*
X143405500Y-121307500D01*
X143974000Y-123488000D02*
X142992000Y-123488000D01*
%TO.N,SDMMC_CMD*%
X138605500Y-113870500D02*
X138605500Y-118920000D01*
X146921500Y-105554500D02*
X138605500Y-113870500D01*
X138605500Y-118920000D02*
X141455500Y-121770000D01*
X141455500Y-124040000D02*
X142003500Y-124588000D01*
X141455500Y-121770000D02*
X141455500Y-124040000D01*
X142003500Y-124588000D02*
X142992000Y-124588000D01*
X146921500Y-104882000D02*
X146921500Y-105554500D01*
%TO.N,I2C1_SDA*%
X146441500Y-100192500D02*
X146050000Y-100584000D01*
X148336000Y-100192500D02*
X146441500Y-100192500D01*
%TD*%
M02*
