%TF.GenerationSoftware,KiCad,Pcbnew,6.0.11-2627ca5db0~126~ubuntu22.04.1*%
%TF.CreationDate,2023-03-24T18:23:20-04:00*%
%TF.ProjectId,Io,496f2e6b-6963-4616-945f-706362585858,rev?*%
%TF.SameCoordinates,Original*%
%TF.FileFunction,Soldermask,Bot*%
%TF.FilePolarity,Negative*%
%FSLAX46Y46*%
G04 Gerber Fmt 4.6, Leading zero omitted, Abs format (unit mm)*
G04 Created by KiCad (PCBNEW 6.0.11-2627ca5db0~126~ubuntu22.04.1) date 2023-03-24 18:23:20*
%MOMM*%
%LPD*%
G01*
G04 APERTURE LIST*
G04 Aperture macros list*
%AMRoundRect*
0 Rectangle with rounded corners*
0 $1 Rounding radius*
0 $2 $3 $4 $5 $6 $7 $8 $9 X,Y pos of 4 corners*
0 Add a 4 corners polygon primitive as box body*
4,1,4,$2,$3,$4,$5,$6,$7,$8,$9,$2,$3,0*
0 Add four circle primitives for the rounded corners*
1,1,$1+$1,$2,$3*
1,1,$1+$1,$4,$5*
1,1,$1+$1,$6,$7*
1,1,$1+$1,$8,$9*
0 Add four rect primitives between the rounded corners*
20,1,$1+$1,$2,$3,$4,$5,0*
20,1,$1+$1,$4,$5,$6,$7,0*
20,1,$1+$1,$6,$7,$8,$9,0*
20,1,$1+$1,$8,$9,$2,$3,0*%
G04 Aperture macros list end*
%ADD10C,6.400000*%
%ADD11C,0.900000*%
%ADD12C,2.100000*%
%ADD13R,2.100000X2.100000*%
%ADD14R,1.700000X1.700000*%
%ADD15O,1.700000X1.700000*%
%ADD16C,0.800000*%
%ADD17C,2.586000*%
%ADD18C,1.969000*%
%ADD19R,5.080000X2.420000*%
%ADD20RoundRect,0.140000X-0.170000X0.140000X-0.170000X-0.140000X0.170000X-0.140000X0.170000X0.140000X0*%
%ADD21C,0.950000*%
%ADD22R,1.400000X0.620000*%
%ADD23R,2.400000X1.100000*%
G04 APERTURE END LIST*
D10*
%TO.C,H3*%
X172212000Y-146812000D03*
%TD*%
%TO.C,H4*%
X132842000Y-146558000D03*
%TD*%
%TO.C,H1*%
X133350000Y-64770000D03*
%TD*%
%TO.C,H2*%
X171450000Y-64770000D03*
%TD*%
D11*
%TO.C,SW1*%
X147545000Y-90805000D03*
X140745000Y-90805000D03*
%TD*%
D12*
%TO.C,J2*%
X161544000Y-146963500D03*
X159004000Y-146963500D03*
X156464000Y-146963500D03*
X153924000Y-146963500D03*
X151384000Y-146963500D03*
X148844000Y-146963500D03*
X146304000Y-146963500D03*
D13*
X143764000Y-146963500D03*
%TD*%
D14*
%TO.C,J1*%
X129540000Y-113020000D03*
D15*
X129540000Y-110480000D03*
X129540000Y-107940000D03*
X129540000Y-105400000D03*
%TD*%
D14*
%TO.C,J3*%
X175768000Y-84074000D03*
D15*
X175768000Y-81534000D03*
X175768000Y-78994000D03*
X175768000Y-76454000D03*
%TD*%
D13*
%TO.C,J5*%
X131445000Y-75184000D03*
D12*
X131445000Y-77724000D03*
%TD*%
D13*
%TO.C,J4*%
X131445000Y-82380000D03*
D12*
X131445000Y-84920000D03*
%TD*%
D16*
%TO.C,J7*%
X173360000Y-92060000D03*
X173360000Y-95960000D03*
D17*
X175260000Y-97610000D03*
X175260000Y-90410000D03*
D18*
X172460000Y-97310000D03*
X172460000Y-90710000D03*
%TD*%
D19*
%TO.C,J8*%
X174365000Y-141540000D03*
X174365000Y-132780000D03*
%TD*%
D20*
%TO.C,C19*%
X144764000Y-125758000D03*
X144764000Y-126718000D03*
%TD*%
D21*
%TO.C,J6*%
X131572000Y-121568000D03*
X131572000Y-128368000D03*
D22*
X142992000Y-122388000D03*
X142992000Y-123488000D03*
X142992000Y-124588000D03*
X142992000Y-125688000D03*
X142992000Y-126788000D03*
X142992000Y-127888000D03*
X142992000Y-128988000D03*
X142992000Y-130088000D03*
X142992000Y-131188000D03*
D23*
X131992000Y-132568000D03*
X140992000Y-132568000D03*
X140992000Y-116418000D03*
X131992000Y-116418000D03*
%TD*%
M02*
