%TF.GenerationSoftware,KiCad,Pcbnew,6.0.11-2627ca5db0~126~ubuntu22.04.1*%
%TF.CreationDate,2023-03-24T18:23:20-04:00*%
%TF.ProjectId,Io,496f2e6b-6963-4616-945f-706362585858,rev?*%
%TF.SameCoordinates,Original*%
%TF.FileFunction,Copper,L2,Inr*%
%TF.FilePolarity,Positive*%
%FSLAX46Y46*%
G04 Gerber Fmt 4.6, Leading zero omitted, Abs format (unit mm)*
G04 Created by KiCad (PCBNEW 6.0.11-2627ca5db0~126~ubuntu22.04.1) date 2023-03-24 18:23:20*
%MOMM*%
%LPD*%
G01*
G04 APERTURE LIST*
%TA.AperFunction,ComponentPad*%
%ADD10C,6.400000*%
%TD*%
%TA.AperFunction,ComponentPad*%
%ADD11C,2.100000*%
%TD*%
%TA.AperFunction,ComponentPad*%
%ADD12R,2.100000X2.100000*%
%TD*%
%TA.AperFunction,ComponentPad*%
%ADD13R,1.700000X1.700000*%
%TD*%
%TA.AperFunction,ComponentPad*%
%ADD14O,1.700000X1.700000*%
%TD*%
%TA.AperFunction,ComponentPad*%
%ADD15C,2.586000*%
%TD*%
%TA.AperFunction,ComponentPad*%
%ADD16C,1.969000*%
%TD*%
%TA.AperFunction,ComponentPad*%
%ADD17C,0.970000*%
%TD*%
%TA.AperFunction,ViaPad*%
%ADD18C,0.700000*%
%TD*%
G04 APERTURE END LIST*
D10*
%TO.N,GND*%
%TO.C,H3*%
X172212000Y-146812000D03*
%TD*%
%TO.N,GND*%
%TO.C,H4*%
X132842000Y-146558000D03*
%TD*%
%TO.N,GND*%
%TO.C,H1*%
X133350000Y-64770000D03*
%TD*%
%TO.N,GND*%
%TO.C,H2*%
X171450000Y-64770000D03*
%TD*%
D11*
%TO.N,ARM*%
%TO.C,J2*%
X161544000Y-146963500D03*
%TO.N,PYRO4_SW*%
X159004000Y-146963500D03*
%TO.N,ARM*%
X156464000Y-146963500D03*
%TO.N,PYRO3_SW*%
X153924000Y-146963500D03*
%TO.N,ARM*%
X151384000Y-146963500D03*
%TO.N,PYRO2_SW*%
X148844000Y-146963500D03*
%TO.N,ARM*%
X146304000Y-146963500D03*
D12*
%TO.N,PYRO1_SW*%
X143764000Y-146963500D03*
%TD*%
D13*
%TO.N,+3.3V*%
%TO.C,J1*%
X129540000Y-113020000D03*
D14*
%TO.N,I2C3_SDA*%
X129540000Y-110480000D03*
%TO.N,I2C3_SCL*%
X129540000Y-107940000D03*
%TO.N,GND*%
X129540000Y-105400000D03*
%TD*%
D13*
%TO.N,+3.3V*%
%TO.C,J3*%
X175768000Y-84074000D03*
D14*
%TO.N,SWDIO*%
X175768000Y-81534000D03*
%TO.N,SWCLK*%
X175768000Y-78994000D03*
%TO.N,GND*%
X175768000Y-76454000D03*
%TD*%
D12*
%TO.N,ARM*%
%TO.C,J5*%
X131445000Y-75184000D03*
D11*
%TO.N,BATT*%
X131445000Y-77724000D03*
%TD*%
D12*
%TO.N,BATT*%
%TO.C,J4*%
X131445000Y-82380000D03*
D11*
%TO.N,GND*%
X131445000Y-84920000D03*
%TD*%
D15*
%TO.N,N/C*%
%TO.C,J7*%
X175260000Y-97610000D03*
X175260000Y-90410000D03*
D16*
X172460000Y-97310000D03*
X172460000Y-90710000D03*
%TD*%
D17*
%TO.N,GND*%
%TO.C,J8*%
X170925000Y-141540000D03*
X170925000Y-132780000D03*
%TD*%
D18*
%TO.N,ARM*%
X132334000Y-111760000D03*
X132334000Y-109474000D03*
%TO.N,GND*%
X148590000Y-96774000D03*
X162306000Y-109220000D03*
X156468000Y-110216000D03*
X134112000Y-105410000D03*
X141224000Y-66040000D03*
X171196000Y-107950000D03*
X140716000Y-127762000D03*
X136144000Y-114808000D03*
X165147000Y-135175000D03*
X146812000Y-136295500D03*
X162306000Y-116840000D03*
X165354000Y-107950000D03*
X149835000Y-137454750D03*
X136144000Y-109630500D03*
X158750000Y-109982000D03*
X138684000Y-136295500D03*
X142748000Y-136295500D03*
X163576000Y-118110000D03*
X171196000Y-92710000D03*
X172466000Y-116840000D03*
X149352000Y-116332000D03*
X164084000Y-68580000D03*
X142421500Y-113284000D03*
X152654000Y-98806000D03*
X134366000Y-111506000D03*
X163576000Y-99060000D03*
X157480000Y-81788000D03*
X134366000Y-112776000D03*
X142748000Y-101854000D03*
X155960000Y-113899000D03*
X139446000Y-85598000D03*
X172466000Y-109220000D03*
X153162000Y-105918000D03*
X136647496Y-107916732D03*
X138176000Y-102870000D03*
X150368000Y-101346000D03*
X138697875Y-110747301D03*
X146050000Y-86360000D03*
X134620000Y-136295500D03*
X142748000Y-67310000D03*
X170544000Y-127364000D03*
X136906000Y-105156000D03*
X146685000Y-96139000D03*
X159766000Y-68580000D03*
X150368000Y-122936000D03*
X171196000Y-118110000D03*
%TO.N,+3.3V*%
X138684000Y-105156000D03*
X141478000Y-101854000D03*
X148844000Y-98806000D03*
X169164000Y-107950000D03*
X136144000Y-113792000D03*
X140716000Y-125730000D03*
X141605000Y-96139000D03*
X150368000Y-116332000D03*
X172466000Y-114808000D03*
X142803910Y-112469834D03*
X153162000Y-104902000D03*
X156464000Y-104140000D03*
X152654000Y-99822000D03*
X151384000Y-97028000D03*
X165497000Y-129175000D03*
X165862000Y-70866000D03*
X156976000Y-113899000D03*
%TO.N,VBUS*%
X166562595Y-87691405D03*
X168148000Y-96774000D03*
%TO.N,SPI2_SCK*%
X153162000Y-112340500D03*
X155960000Y-111941998D03*
%TO.N,PYRO1*%
X146170500Y-116332000D03*
X136398000Y-134750500D03*
%TO.N,PYRO2*%
X140462000Y-134771500D03*
X146537500Y-117218007D03*
%TO.N,PYRO3*%
X146921500Y-118065858D03*
X144780000Y-134771500D03*
%TO.N,PYRO4*%
X148844000Y-134771500D03*
X147457500Y-118872000D03*
%TO.N,SDMMC_DET*%
X149142196Y-111060067D03*
%TO.N,SDMMC_D0*%
X146624411Y-110302411D03*
%TO.N,SDMMC_D1*%
X148336000Y-109474000D03*
%TO.N,RF_DIO0*%
X153162000Y-109474000D03*
X165354000Y-127254000D03*
%TO.N,RF_DIO1*%
X165354000Y-125222000D03*
X153924000Y-108849500D03*
%TO.N,RF_DIO5*%
X154724081Y-108225000D03*
X167132000Y-121412000D03*
%TO.N,SDMMC_D2*%
X147297000Y-106934000D03*
%TO.N,SDMMC_D3*%
X147921500Y-106047401D03*
%TO.N,SDMMC_CLK*%
X146116411Y-105476411D03*
%TO.N,SDMMC_CMD*%
X146921500Y-104882000D03*
%TO.N,I2C1_SDA*%
X146050000Y-100584000D03*
X148336000Y-100192500D03*
%TD*%
%TA.AperFunction,Conductor*%
%TO.N,GND*%
G36*
X172690075Y-58930009D02*
G01*
X172704850Y-58932310D01*
X172704856Y-58932310D01*
X172713724Y-58933691D01*
X172734183Y-58931016D01*
X172756008Y-58930072D01*
X173112937Y-58945656D01*
X173123886Y-58946614D01*
X173508379Y-58997233D01*
X173519205Y-58999142D01*
X173897822Y-59083080D01*
X173908439Y-59085925D01*
X174078702Y-59139608D01*
X174278302Y-59202542D01*
X174288615Y-59206295D01*
X174646932Y-59354715D01*
X174656876Y-59359353D01*
X175000867Y-59538423D01*
X175010387Y-59543919D01*
X175337468Y-59752292D01*
X175346472Y-59758597D01*
X175654138Y-59994678D01*
X175662558Y-60001743D01*
X175856954Y-60179873D01*
X175948483Y-60263744D01*
X175956256Y-60271517D01*
X176218257Y-60557442D01*
X176225322Y-60565862D01*
X176461403Y-60873528D01*
X176467708Y-60882532D01*
X176676081Y-61209613D01*
X176681576Y-61219132D01*
X176857028Y-61556170D01*
X176860643Y-61563115D01*
X176865285Y-61573068D01*
X176997296Y-61891770D01*
X177013702Y-61931377D01*
X177017458Y-61941698D01*
X177027206Y-61972614D01*
X177134075Y-62311561D01*
X177136920Y-62322178D01*
X177220858Y-62700795D01*
X177222767Y-62711621D01*
X177273386Y-63096114D01*
X177274344Y-63107064D01*
X177289603Y-63456552D01*
X177288223Y-63481429D01*
X177286309Y-63493724D01*
X177287473Y-63502626D01*
X177287473Y-63502628D01*
X177290436Y-63525283D01*
X177291500Y-63541621D01*
X177291500Y-75946210D01*
X177271498Y-76014331D01*
X177217842Y-76060824D01*
X177147568Y-76070928D01*
X177082988Y-76041434D01*
X177049950Y-75996452D01*
X176970972Y-75814814D01*
X176966105Y-75805739D01*
X176850426Y-75626926D01*
X176844136Y-75618757D01*
X176700806Y-75461240D01*
X176693273Y-75454215D01*
X176526139Y-75322222D01*
X176517552Y-75316517D01*
X176331117Y-75213599D01*
X176321705Y-75209369D01*
X176120959Y-75138280D01*
X176110988Y-75135646D01*
X176039837Y-75122972D01*
X176026540Y-75124432D01*
X176022000Y-75138989D01*
X176022000Y-76582000D01*
X176001998Y-76650121D01*
X175948342Y-76696614D01*
X175896000Y-76708000D01*
X174451225Y-76708000D01*
X174437694Y-76711973D01*
X174436257Y-76721966D01*
X174466565Y-76856446D01*
X174469645Y-76866275D01*
X174549770Y-77063603D01*
X174554413Y-77072794D01*
X174665694Y-77254388D01*
X174671777Y-77262699D01*
X174811213Y-77423667D01*
X174818580Y-77430883D01*
X174982434Y-77566916D01*
X174990881Y-77572831D01*
X175059969Y-77613203D01*
X175108693Y-77664842D01*
X175121764Y-77734625D01*
X175095033Y-77800396D01*
X175054584Y-77833752D01*
X175041607Y-77840507D01*
X175037474Y-77843610D01*
X175037471Y-77843612D01*
X174871060Y-77968557D01*
X174862965Y-77974635D01*
X174708629Y-78136138D01*
X174582743Y-78320680D01*
X174488688Y-78523305D01*
X174428989Y-78738570D01*
X174405251Y-78960695D01*
X174405548Y-78965848D01*
X174405548Y-78965851D01*
X174407018Y-78991342D01*
X174418110Y-79183715D01*
X174419247Y-79188761D01*
X174419248Y-79188767D01*
X174443304Y-79295508D01*
X174467222Y-79401639D01*
X174551266Y-79608616D01*
X174667987Y-79799088D01*
X174814250Y-79967938D01*
X174986126Y-80110632D01*
X175056595Y-80151811D01*
X175059445Y-80153476D01*
X175108169Y-80205114D01*
X175121240Y-80274897D01*
X175094509Y-80340669D01*
X175054055Y-80374027D01*
X175041607Y-80380507D01*
X175037474Y-80383610D01*
X175037471Y-80383612D01*
X175013247Y-80401800D01*
X174862965Y-80514635D01*
X174708629Y-80676138D01*
X174582743Y-80860680D01*
X174488688Y-81063305D01*
X174428989Y-81278570D01*
X174405251Y-81500695D01*
X174418110Y-81723715D01*
X174419247Y-81728761D01*
X174419248Y-81728767D01*
X174440275Y-81822069D01*
X174467222Y-81941639D01*
X174551266Y-82148616D01*
X174667987Y-82339088D01*
X174814250Y-82507938D01*
X174818230Y-82511242D01*
X174822981Y-82515187D01*
X174862616Y-82574090D01*
X174864113Y-82645071D01*
X174826997Y-82705593D01*
X174786724Y-82730112D01*
X174671295Y-82773385D01*
X174554739Y-82860739D01*
X174467385Y-82977295D01*
X174416255Y-83113684D01*
X174409500Y-83175866D01*
X174409500Y-84972134D01*
X174416255Y-85034316D01*
X174467385Y-85170705D01*
X174554739Y-85287261D01*
X174671295Y-85374615D01*
X174807684Y-85425745D01*
X174869866Y-85432500D01*
X176666134Y-85432500D01*
X176728316Y-85425745D01*
X176864705Y-85374615D01*
X176981261Y-85287261D01*
X177028062Y-85224815D01*
X177064674Y-85175964D01*
X177121534Y-85133449D01*
X177192352Y-85128423D01*
X177254645Y-85162483D01*
X177288635Y-85224815D01*
X177291500Y-85251529D01*
X177291500Y-90097042D01*
X177271498Y-90165163D01*
X177217842Y-90211656D01*
X177147568Y-90221760D01*
X177082988Y-90192266D01*
X177044604Y-90132540D01*
X177042607Y-90124850D01*
X176995700Y-89917556D01*
X176987613Y-89881816D01*
X176980352Y-89863144D01*
X176892259Y-89636613D01*
X176892258Y-89636611D01*
X176890566Y-89632260D01*
X176880328Y-89614347D01*
X176760018Y-89403847D01*
X176760016Y-89403845D01*
X176757699Y-89399790D01*
X176591929Y-89189512D01*
X176396899Y-89006046D01*
X176176894Y-88853423D01*
X176129306Y-88829955D01*
X175940934Y-88737060D01*
X175940931Y-88737059D01*
X175936746Y-88734995D01*
X175889318Y-88719813D01*
X175835930Y-88702724D01*
X175681731Y-88653364D01*
X175677124Y-88652614D01*
X175677121Y-88652613D01*
X175422062Y-88611074D01*
X175422063Y-88611074D01*
X175417451Y-88610323D01*
X175287740Y-88608625D01*
X175154390Y-88606880D01*
X175154387Y-88606880D01*
X175149713Y-88606819D01*
X174884397Y-88642926D01*
X174879907Y-88644235D01*
X174879901Y-88644236D01*
X174631826Y-88716544D01*
X174631821Y-88716546D01*
X174627333Y-88717854D01*
X174623086Y-88719812D01*
X174623083Y-88719813D01*
X174593238Y-88733572D01*
X174384167Y-88829955D01*
X174331907Y-88864218D01*
X174164154Y-88974201D01*
X174164149Y-88974205D01*
X174160241Y-88976767D01*
X173960476Y-89155064D01*
X173789259Y-89360930D01*
X173737993Y-89445414D01*
X173659612Y-89574582D01*
X173607173Y-89622442D01*
X173537182Y-89634354D01*
X173473801Y-89608098D01*
X173293103Y-89465392D01*
X173289045Y-89462187D01*
X173074113Y-89343537D01*
X172948840Y-89299176D01*
X172847563Y-89263311D01*
X172847559Y-89263310D01*
X172842688Y-89261585D01*
X172837598Y-89260678D01*
X172837593Y-89260677D01*
X172706231Y-89237279D01*
X172600985Y-89218532D01*
X172508259Y-89217399D01*
X172360667Y-89215595D01*
X172360665Y-89215595D01*
X172355497Y-89215532D01*
X172112815Y-89252668D01*
X171998113Y-89290158D01*
X171884374Y-89327333D01*
X171884368Y-89327336D01*
X171879456Y-89328941D01*
X171874870Y-89331328D01*
X171874866Y-89331330D01*
X171666282Y-89439913D01*
X171661689Y-89442304D01*
X171465361Y-89589711D01*
X171295744Y-89767204D01*
X171157395Y-89970017D01*
X171155222Y-89974699D01*
X171155220Y-89974702D01*
X171066812Y-90165163D01*
X171054028Y-90192703D01*
X170988419Y-90429281D01*
X170962330Y-90673398D01*
X170962627Y-90678550D01*
X170962627Y-90678554D01*
X170963276Y-90689810D01*
X170976463Y-90918498D01*
X170977598Y-90923535D01*
X170977599Y-90923541D01*
X171006231Y-91050591D01*
X171030436Y-91157998D01*
X171032380Y-91162784D01*
X171032381Y-91162789D01*
X171120858Y-91380680D01*
X171122802Y-91385467D01*
X171251079Y-91594796D01*
X171411822Y-91780364D01*
X171600715Y-91937186D01*
X171812685Y-92061051D01*
X171817505Y-92062891D01*
X171817510Y-92062894D01*
X171957322Y-92116282D01*
X172042039Y-92148632D01*
X172047107Y-92149663D01*
X172047110Y-92149664D01*
X172107468Y-92161944D01*
X172282617Y-92197579D01*
X172287791Y-92197769D01*
X172287793Y-92197769D01*
X172332050Y-92199392D01*
X172363644Y-92200550D01*
X172430986Y-92223034D01*
X172475482Y-92278358D01*
X172482273Y-92300267D01*
X172489831Y-92335824D01*
X172489834Y-92335833D01*
X172491206Y-92342288D01*
X172568882Y-92516752D01*
X172681134Y-92671253D01*
X172823056Y-92799040D01*
X172988444Y-92894527D01*
X173170072Y-92953542D01*
X173176633Y-92954232D01*
X173176635Y-92954232D01*
X173229889Y-92959829D01*
X173312390Y-92968500D01*
X173407610Y-92968500D01*
X173490111Y-92959829D01*
X173543365Y-92954232D01*
X173543367Y-92954232D01*
X173549928Y-92953542D01*
X173731556Y-92894527D01*
X173896944Y-92799040D01*
X174038866Y-92671253D01*
X174151118Y-92516752D01*
X174228794Y-92342288D01*
X174248647Y-92248888D01*
X174267128Y-92161944D01*
X174267128Y-92161939D01*
X174268500Y-92155487D01*
X174268500Y-92132729D01*
X174288502Y-92064608D01*
X174342158Y-92018115D01*
X174412432Y-92008011D01*
X174453168Y-92021221D01*
X174532375Y-92062894D01*
X174539639Y-92066716D01*
X174544058Y-92068259D01*
X174774934Y-92148884D01*
X174792430Y-92154994D01*
X174797023Y-92155866D01*
X175050904Y-92204067D01*
X175050907Y-92204067D01*
X175055493Y-92204938D01*
X175182630Y-92209933D01*
X175318380Y-92215267D01*
X175318385Y-92215267D01*
X175323048Y-92215450D01*
X175426987Y-92204067D01*
X175584565Y-92186810D01*
X175584571Y-92186809D01*
X175589218Y-92186300D01*
X175593742Y-92185109D01*
X175843632Y-92119319D01*
X175843634Y-92119318D01*
X175848155Y-92118128D01*
X176094172Y-92012430D01*
X176221106Y-91933881D01*
X176317891Y-91873989D01*
X176317895Y-91873986D01*
X176321864Y-91871530D01*
X176469135Y-91746856D01*
X176522662Y-91701542D01*
X176522663Y-91701541D01*
X176526228Y-91698523D01*
X176575494Y-91642346D01*
X176699694Y-91500725D01*
X176699698Y-91500720D01*
X176702776Y-91497210D01*
X176773397Y-91387418D01*
X176845100Y-91275942D01*
X176847628Y-91272012D01*
X176957603Y-91027877D01*
X177030284Y-90770168D01*
X177040507Y-90689810D01*
X177068947Y-90624759D01*
X177128041Y-90585409D01*
X177199028Y-90584255D01*
X177259370Y-90621662D01*
X177289909Y-90685755D01*
X177291500Y-90705712D01*
X177291500Y-97297042D01*
X177271498Y-97365163D01*
X177217842Y-97411656D01*
X177147568Y-97421760D01*
X177082988Y-97392266D01*
X177044604Y-97332540D01*
X177042607Y-97324850D01*
X176988644Y-97086373D01*
X176987613Y-97081816D01*
X176966685Y-97028000D01*
X176892259Y-96836613D01*
X176892258Y-96836611D01*
X176890566Y-96832260D01*
X176870811Y-96797695D01*
X176760018Y-96603847D01*
X176760016Y-96603845D01*
X176757699Y-96599790D01*
X176591929Y-96389512D01*
X176396899Y-96206046D01*
X176176894Y-96053423D01*
X176172701Y-96051355D01*
X175940934Y-95937060D01*
X175940931Y-95937059D01*
X175936746Y-95934995D01*
X175917834Y-95928941D01*
X175716560Y-95864513D01*
X175681731Y-95853364D01*
X175677124Y-95852614D01*
X175677121Y-95852613D01*
X175422062Y-95811074D01*
X175422063Y-95811074D01*
X175417451Y-95810323D01*
X175287740Y-95808625D01*
X175154390Y-95806880D01*
X175154387Y-95806880D01*
X175149713Y-95806819D01*
X174884397Y-95842926D01*
X174879907Y-95844235D01*
X174879901Y-95844236D01*
X174631826Y-95916544D01*
X174631821Y-95916546D01*
X174627333Y-95917854D01*
X174623086Y-95919812D01*
X174623083Y-95919813D01*
X174447251Y-96000873D01*
X174377014Y-96011228D01*
X174312328Y-95981965D01*
X174273731Y-95922377D01*
X174268500Y-95886447D01*
X174268500Y-95864513D01*
X174266434Y-95854789D01*
X174230166Y-95684169D01*
X174228794Y-95677712D01*
X174151118Y-95503248D01*
X174038866Y-95348747D01*
X174004740Y-95318020D01*
X173901852Y-95225379D01*
X173901851Y-95225378D01*
X173896944Y-95220960D01*
X173731556Y-95125473D01*
X173549928Y-95066458D01*
X173543367Y-95065768D01*
X173543365Y-95065768D01*
X173490111Y-95060171D01*
X173407610Y-95051500D01*
X173312390Y-95051500D01*
X173229889Y-95060171D01*
X173176635Y-95065768D01*
X173176633Y-95065768D01*
X173170072Y-95066458D01*
X172988444Y-95125473D01*
X172823056Y-95220960D01*
X172818149Y-95225378D01*
X172818148Y-95225379D01*
X172715260Y-95318020D01*
X172681134Y-95348747D01*
X172568882Y-95503248D01*
X172491206Y-95677712D01*
X172489834Y-95684169D01*
X172483116Y-95715773D01*
X172449388Y-95778246D01*
X172387238Y-95812568D01*
X172365799Y-95814790D01*
X172365830Y-95815234D01*
X172360669Y-95815595D01*
X172355497Y-95815532D01*
X172112815Y-95852668D01*
X171998113Y-95890158D01*
X171884374Y-95927333D01*
X171884368Y-95927336D01*
X171879456Y-95928941D01*
X171874870Y-95931328D01*
X171874866Y-95931330D01*
X171666282Y-96039913D01*
X171661689Y-96042304D01*
X171657547Y-96045414D01*
X171492280Y-96169500D01*
X171465361Y-96189711D01*
X171295744Y-96367204D01*
X171261660Y-96417170D01*
X171187200Y-96526325D01*
X171157395Y-96570017D01*
X171155222Y-96574699D01*
X171155220Y-96574702D01*
X171059691Y-96780504D01*
X171054028Y-96792703D01*
X170988419Y-97029281D01*
X170962330Y-97273398D01*
X170976463Y-97518498D01*
X170977598Y-97523535D01*
X170977599Y-97523541D01*
X171029298Y-97752949D01*
X171030436Y-97757998D01*
X171032380Y-97762784D01*
X171032381Y-97762789D01*
X171118416Y-97974666D01*
X171122802Y-97985467D01*
X171251079Y-98194796D01*
X171411822Y-98380364D01*
X171600715Y-98537186D01*
X171812685Y-98661051D01*
X171817505Y-98662891D01*
X171817510Y-98662894D01*
X171931223Y-98706316D01*
X172042039Y-98748632D01*
X172047107Y-98749663D01*
X172047110Y-98749664D01*
X172166057Y-98773864D01*
X172282617Y-98797579D01*
X172287790Y-98797769D01*
X172287793Y-98797769D01*
X172522795Y-98806386D01*
X172522799Y-98806386D01*
X172527959Y-98806575D01*
X172533079Y-98805919D01*
X172533081Y-98805919D01*
X172645904Y-98791466D01*
X172771476Y-98775380D01*
X172776427Y-98773895D01*
X172776430Y-98773894D01*
X172871552Y-98745356D01*
X173006628Y-98704831D01*
X173030213Y-98693277D01*
X173222458Y-98599096D01*
X173227100Y-98596822D01*
X173231304Y-98593824D01*
X173231308Y-98593821D01*
X173396568Y-98475942D01*
X173426971Y-98454256D01*
X173450426Y-98430883D01*
X173464395Y-98416963D01*
X173526767Y-98383048D01*
X173597573Y-98388237D01*
X173654334Y-98430883D01*
X173664319Y-98446564D01*
X173736370Y-98580659D01*
X173739165Y-98584402D01*
X173739167Y-98584405D01*
X173893787Y-98791466D01*
X173893792Y-98791472D01*
X173896579Y-98795204D01*
X173899888Y-98798484D01*
X173899893Y-98798490D01*
X174066350Y-98963500D01*
X174086739Y-98983712D01*
X174090501Y-98986470D01*
X174090504Y-98986473D01*
X174206790Y-99071737D01*
X174302674Y-99142042D01*
X174306809Y-99144218D01*
X174306813Y-99144220D01*
X174385097Y-99185407D01*
X174539639Y-99266716D01*
X174792430Y-99354994D01*
X174797023Y-99355866D01*
X175050904Y-99404067D01*
X175050907Y-99404067D01*
X175055493Y-99404938D01*
X175182630Y-99409933D01*
X175318380Y-99415267D01*
X175318385Y-99415267D01*
X175323048Y-99415450D01*
X175426987Y-99404067D01*
X175584565Y-99386810D01*
X175584571Y-99386809D01*
X175589218Y-99386300D01*
X175645357Y-99371520D01*
X175843632Y-99319319D01*
X175843634Y-99319318D01*
X175848155Y-99318128D01*
X176094172Y-99212430D01*
X176212386Y-99139277D01*
X176317891Y-99073989D01*
X176317895Y-99073986D01*
X176321864Y-99071530D01*
X176431270Y-98978911D01*
X176522662Y-98901542D01*
X176522663Y-98901541D01*
X176526228Y-98898523D01*
X176607440Y-98805919D01*
X176699694Y-98700725D01*
X176699698Y-98700720D01*
X176702776Y-98697210D01*
X176847628Y-98472012D01*
X176957603Y-98227877D01*
X177030284Y-97970168D01*
X177040507Y-97889811D01*
X177068947Y-97824760D01*
X177128041Y-97785410D01*
X177199028Y-97784256D01*
X177259370Y-97821663D01*
X177289909Y-97885756D01*
X177291500Y-97905708D01*
X177291499Y-124363500D01*
X177291499Y-147267623D01*
X177289809Y-147288189D01*
X177286391Y-147308849D01*
X177287470Y-147317757D01*
X177287470Y-147317760D01*
X177288876Y-147329369D01*
X177289614Y-147351186D01*
X177270860Y-147705145D01*
X177269806Y-147716037D01*
X177216150Y-148097298D01*
X177214158Y-148108051D01*
X177202624Y-148158052D01*
X177127615Y-148483235D01*
X177124695Y-148493782D01*
X177005924Y-148860045D01*
X177002100Y-148870296D01*
X176927328Y-149046921D01*
X176851997Y-149224865D01*
X176847298Y-149234746D01*
X176777866Y-149365753D01*
X176666993Y-149574953D01*
X176661453Y-149584391D01*
X176452306Y-149907671D01*
X176445968Y-149916592D01*
X176232926Y-150190465D01*
X176209565Y-150220496D01*
X176202492Y-150228818D01*
X175940583Y-150511090D01*
X175932807Y-150518772D01*
X175647414Y-150777233D01*
X175638991Y-150784220D01*
X175332248Y-151016941D01*
X175323253Y-151023169D01*
X175245527Y-151072133D01*
X174997470Y-151228397D01*
X174987971Y-151233819D01*
X174887156Y-151285700D01*
X174645618Y-151409998D01*
X174635679Y-151414579D01*
X174279311Y-151560394D01*
X174269012Y-151564094D01*
X173901355Y-151678431D01*
X173890776Y-151681223D01*
X173628614Y-151738369D01*
X173514575Y-151763227D01*
X173503791Y-151765091D01*
X173121906Y-151814139D01*
X173111002Y-151815061D01*
X172764606Y-151829222D01*
X172739751Y-151827776D01*
X172735969Y-151827177D01*
X172735967Y-151827177D01*
X172727102Y-151825773D01*
X172694227Y-151829985D01*
X172678407Y-151831007D01*
X132128201Y-151891427D01*
X132108983Y-151889981D01*
X132084862Y-151886293D01*
X132075966Y-151887481D01*
X132075964Y-151887481D01*
X132064505Y-151889011D01*
X132042627Y-151890013D01*
X131730465Y-151877118D01*
X131687792Y-151875355D01*
X131676741Y-151874409D01*
X131294381Y-151824666D01*
X131283466Y-151822754D01*
X130906955Y-151739567D01*
X130896241Y-151736700D01*
X130528509Y-151620714D01*
X130518086Y-151616914D01*
X130161994Y-151469035D01*
X130151954Y-151464338D01*
X129810238Y-151285700D01*
X129800643Y-151280132D01*
X129475973Y-151072133D01*
X129466903Y-151065742D01*
X129161785Y-150829985D01*
X129153313Y-150822822D01*
X129051429Y-150728678D01*
X128870116Y-150561138D01*
X128862323Y-150553273D01*
X128603246Y-150267694D01*
X128596160Y-150259157D01*
X128466527Y-150088171D01*
X128363199Y-149951882D01*
X128356904Y-149942770D01*
X128154593Y-149620522D01*
X128151885Y-149616208D01*
X128146405Y-149606561D01*
X128023314Y-149365753D01*
X128018015Y-149355386D01*
X130409759Y-149355386D01*
X130417216Y-149365753D01*
X130656935Y-149559874D01*
X130662272Y-149563751D01*
X130982685Y-149771830D01*
X130988394Y-149775127D01*
X131328811Y-149948578D01*
X131334836Y-149951260D01*
X131691502Y-150088171D01*
X131697784Y-150090212D01*
X132066816Y-150189094D01*
X132073266Y-150190465D01*
X132450629Y-150250234D01*
X132457167Y-150250920D01*
X132838699Y-150270916D01*
X132845301Y-150270916D01*
X133226833Y-150250920D01*
X133233371Y-150250234D01*
X133610734Y-150190465D01*
X133617184Y-150189094D01*
X133986216Y-150090212D01*
X133992498Y-150088171D01*
X134349164Y-149951260D01*
X134355189Y-149948578D01*
X134695606Y-149775127D01*
X134701315Y-149771830D01*
X134951456Y-149609386D01*
X169779759Y-149609386D01*
X169787216Y-149619753D01*
X170026935Y-149813874D01*
X170032272Y-149817751D01*
X170352685Y-150025830D01*
X170358394Y-150029127D01*
X170698811Y-150202578D01*
X170704836Y-150205260D01*
X171061502Y-150342171D01*
X171067784Y-150344212D01*
X171436816Y-150443094D01*
X171443266Y-150444465D01*
X171820629Y-150504234D01*
X171827167Y-150504920D01*
X172208699Y-150524916D01*
X172215301Y-150524916D01*
X172596833Y-150504920D01*
X172603371Y-150504234D01*
X172980734Y-150444465D01*
X172987184Y-150443094D01*
X173356216Y-150344212D01*
X173362498Y-150342171D01*
X173719164Y-150205260D01*
X173725189Y-150202578D01*
X174065606Y-150029127D01*
X174071315Y-150025830D01*
X174391728Y-149817751D01*
X174397065Y-149813874D01*
X174635835Y-149620522D01*
X174644300Y-149608267D01*
X174637966Y-149597176D01*
X172224812Y-147184022D01*
X172210868Y-147176408D01*
X172209035Y-147176539D01*
X172202420Y-147180790D01*
X169786900Y-149596310D01*
X169779759Y-149609386D01*
X134951456Y-149609386D01*
X135021728Y-149563751D01*
X135027065Y-149559874D01*
X135265835Y-149366522D01*
X135274300Y-149354267D01*
X135267966Y-149343176D01*
X132854812Y-146930022D01*
X132840868Y-146922408D01*
X132839035Y-146922539D01*
X132832420Y-146926790D01*
X130416900Y-149342310D01*
X130409759Y-149355386D01*
X128018015Y-149355386D01*
X127970900Y-149263213D01*
X127966301Y-149253144D01*
X127821688Y-148895710D01*
X127817983Y-148885252D01*
X127708411Y-148526431D01*
X127705369Y-148516472D01*
X127702600Y-148505730D01*
X127622865Y-148128478D01*
X127621051Y-148117533D01*
X127574812Y-147734734D01*
X127573968Y-147723672D01*
X127562808Y-147376452D01*
X127564483Y-147351536D01*
X127565089Y-147347929D01*
X127566575Y-147339080D01*
X127562349Y-147303464D01*
X127561471Y-147288702D01*
X127561470Y-147285891D01*
X127561012Y-146561301D01*
X129129084Y-146561301D01*
X129149080Y-146942833D01*
X129149766Y-146949371D01*
X129209535Y-147326734D01*
X129210906Y-147333184D01*
X129309788Y-147702216D01*
X129311829Y-147708498D01*
X129448740Y-148065164D01*
X129451422Y-148071189D01*
X129624872Y-148411603D01*
X129628169Y-148417313D01*
X129836253Y-148737735D01*
X129840123Y-148743061D01*
X130033478Y-148981835D01*
X130045733Y-148990300D01*
X130056824Y-148983966D01*
X132469978Y-146570812D01*
X132476356Y-146559132D01*
X133206408Y-146559132D01*
X133206539Y-146560965D01*
X133210790Y-146567580D01*
X135626310Y-148983100D01*
X135639386Y-148990241D01*
X135649753Y-148982784D01*
X135843877Y-148743061D01*
X135847747Y-148737735D01*
X136055831Y-148417313D01*
X136059128Y-148411603D01*
X136232578Y-148071189D01*
X136235260Y-148065164D01*
X136236615Y-148061634D01*
X142205500Y-148061634D01*
X142212255Y-148123816D01*
X142263385Y-148260205D01*
X142350739Y-148376761D01*
X142467295Y-148464115D01*
X142603684Y-148515245D01*
X142665866Y-148522000D01*
X144862134Y-148522000D01*
X144924316Y-148515245D01*
X145060705Y-148464115D01*
X145177261Y-148376761D01*
X145250128Y-148279535D01*
X145306988Y-148237021D01*
X145377806Y-148231996D01*
X145416789Y-148247668D01*
X145594268Y-148356427D01*
X145727474Y-148411603D01*
X145816335Y-148448411D01*
X145816337Y-148448412D01*
X145820908Y-148450305D01*
X145855997Y-148458729D01*
X146054630Y-148506417D01*
X146054636Y-148506418D01*
X146059443Y-148507572D01*
X146304000Y-148526819D01*
X146548557Y-148507572D01*
X146553364Y-148506418D01*
X146553370Y-148506417D01*
X146752003Y-148458729D01*
X146787092Y-148450305D01*
X146791663Y-148448412D01*
X146791665Y-148448411D01*
X146880526Y-148411603D01*
X147013732Y-148356427D01*
X147191212Y-148247668D01*
X147218670Y-148230842D01*
X147218673Y-148230840D01*
X147222896Y-148228252D01*
X147339716Y-148128478D01*
X147405677Y-148072141D01*
X147409433Y-148068933D01*
X147478189Y-147988431D01*
X147537640Y-147949622D01*
X147608635Y-147949116D01*
X147669811Y-147988431D01*
X147738567Y-148068933D01*
X147742323Y-148072141D01*
X147808285Y-148128478D01*
X147925104Y-148228252D01*
X147929327Y-148230840D01*
X147929330Y-148230842D01*
X147956788Y-148247668D01*
X148134268Y-148356427D01*
X148267474Y-148411603D01*
X148356335Y-148448411D01*
X148356337Y-148448412D01*
X148360908Y-148450305D01*
X148395997Y-148458729D01*
X148594630Y-148506417D01*
X148594636Y-148506418D01*
X148599443Y-148507572D01*
X148844000Y-148526819D01*
X149088557Y-148507572D01*
X149093364Y-148506418D01*
X149093370Y-148506417D01*
X149292003Y-148458729D01*
X149327092Y-148450305D01*
X149331663Y-148448412D01*
X149331665Y-148448411D01*
X149420526Y-148411603D01*
X149553732Y-148356427D01*
X149731212Y-148247668D01*
X149758670Y-148230842D01*
X149758673Y-148230840D01*
X149762896Y-148228252D01*
X149879716Y-148128478D01*
X149945677Y-148072141D01*
X149949433Y-148068933D01*
X150018189Y-147988431D01*
X150077640Y-147949622D01*
X150148635Y-147949116D01*
X150209811Y-147988431D01*
X150278567Y-148068933D01*
X150282323Y-148072141D01*
X150348285Y-148128478D01*
X150465104Y-148228252D01*
X150469327Y-148230840D01*
X150469330Y-148230842D01*
X150496788Y-148247668D01*
X150674268Y-148356427D01*
X150807474Y-148411603D01*
X150896335Y-148448411D01*
X150896337Y-148448412D01*
X150900908Y-148450305D01*
X150935997Y-148458729D01*
X151134630Y-148506417D01*
X151134636Y-148506418D01*
X151139443Y-148507572D01*
X151384000Y-148526819D01*
X151628557Y-148507572D01*
X151633364Y-148506418D01*
X151633370Y-148506417D01*
X151832003Y-148458729D01*
X151867092Y-148450305D01*
X151871663Y-148448412D01*
X151871665Y-148448411D01*
X151960526Y-148411603D01*
X152093732Y-148356427D01*
X152271212Y-148247668D01*
X152298670Y-148230842D01*
X152298673Y-148230840D01*
X152302896Y-148228252D01*
X152419716Y-148128478D01*
X152485677Y-148072141D01*
X152489433Y-148068933D01*
X152558189Y-147988431D01*
X152617640Y-147949622D01*
X152688635Y-147949116D01*
X152749811Y-147988431D01*
X152818567Y-148068933D01*
X152822323Y-148072141D01*
X152888285Y-148128478D01*
X153005104Y-148228252D01*
X153009327Y-148230840D01*
X153009330Y-148230842D01*
X153036788Y-148247668D01*
X153214268Y-148356427D01*
X153347474Y-148411603D01*
X153436335Y-148448411D01*
X153436337Y-148448412D01*
X153440908Y-148450305D01*
X153475997Y-148458729D01*
X153674630Y-148506417D01*
X153674636Y-148506418D01*
X153679443Y-148507572D01*
X153924000Y-148526819D01*
X154168557Y-148507572D01*
X154173364Y-148506418D01*
X154173370Y-148506417D01*
X154372003Y-148458729D01*
X154407092Y-148450305D01*
X154411663Y-148448412D01*
X154411665Y-148448411D01*
X154500526Y-148411603D01*
X154633732Y-148356427D01*
X154811212Y-148247668D01*
X154838670Y-148230842D01*
X154838673Y-148230840D01*
X154842896Y-148228252D01*
X154959716Y-148128478D01*
X155025677Y-148072141D01*
X155029433Y-148068933D01*
X155098189Y-147988431D01*
X155157640Y-147949622D01*
X155228635Y-147949116D01*
X155289811Y-147988431D01*
X155358567Y-148068933D01*
X155362323Y-148072141D01*
X155428285Y-148128478D01*
X155545104Y-148228252D01*
X155549327Y-148230840D01*
X155549330Y-148230842D01*
X155576788Y-148247668D01*
X155754268Y-148356427D01*
X155887474Y-148411603D01*
X155976335Y-148448411D01*
X155976337Y-148448412D01*
X155980908Y-148450305D01*
X156015997Y-148458729D01*
X156214630Y-148506417D01*
X156214636Y-148506418D01*
X156219443Y-148507572D01*
X156464000Y-148526819D01*
X156708557Y-148507572D01*
X156713364Y-148506418D01*
X156713370Y-148506417D01*
X156912003Y-148458729D01*
X156947092Y-148450305D01*
X156951663Y-148448412D01*
X156951665Y-148448411D01*
X157040526Y-148411603D01*
X157173732Y-148356427D01*
X157351212Y-148247668D01*
X157378670Y-148230842D01*
X157378673Y-148230840D01*
X157382896Y-148228252D01*
X157499716Y-148128478D01*
X157565677Y-148072141D01*
X157569433Y-148068933D01*
X157638189Y-147988431D01*
X157697640Y-147949622D01*
X157768635Y-147949116D01*
X157829811Y-147988431D01*
X157898567Y-148068933D01*
X157902323Y-148072141D01*
X157968285Y-148128478D01*
X158085104Y-148228252D01*
X158089327Y-148230840D01*
X158089330Y-148230842D01*
X158116788Y-148247668D01*
X158294268Y-148356427D01*
X158427474Y-148411603D01*
X158516335Y-148448411D01*
X158516337Y-148448412D01*
X158520908Y-148450305D01*
X158555997Y-148458729D01*
X158754630Y-148506417D01*
X158754636Y-148506418D01*
X158759443Y-148507572D01*
X159004000Y-148526819D01*
X159248557Y-148507572D01*
X159253364Y-148506418D01*
X159253370Y-148506417D01*
X159452003Y-148458729D01*
X159487092Y-148450305D01*
X159491663Y-148448412D01*
X159491665Y-148448411D01*
X159580526Y-148411603D01*
X159713732Y-148356427D01*
X159891212Y-148247668D01*
X159918670Y-148230842D01*
X159918673Y-148230840D01*
X159922896Y-148228252D01*
X160039716Y-148128478D01*
X160105677Y-148072141D01*
X160109433Y-148068933D01*
X160178189Y-147988431D01*
X160237640Y-147949622D01*
X160308635Y-147949116D01*
X160369811Y-147988431D01*
X160438567Y-148068933D01*
X160442323Y-148072141D01*
X160508285Y-148128478D01*
X160625104Y-148228252D01*
X160629327Y-148230840D01*
X160629330Y-148230842D01*
X160656788Y-148247668D01*
X160834268Y-148356427D01*
X160967474Y-148411603D01*
X161056335Y-148448411D01*
X161056337Y-148448412D01*
X161060908Y-148450305D01*
X161095997Y-148458729D01*
X161294630Y-148506417D01*
X161294636Y-148506418D01*
X161299443Y-148507572D01*
X161544000Y-148526819D01*
X161788557Y-148507572D01*
X161793364Y-148506418D01*
X161793370Y-148506417D01*
X161992003Y-148458729D01*
X162027092Y-148450305D01*
X162031663Y-148448412D01*
X162031665Y-148448411D01*
X162120526Y-148411603D01*
X162253732Y-148356427D01*
X162431212Y-148247668D01*
X162458670Y-148230842D01*
X162458673Y-148230840D01*
X162462896Y-148228252D01*
X162579716Y-148128478D01*
X162645677Y-148072141D01*
X162649433Y-148068933D01*
X162808752Y-147882396D01*
X162936927Y-147673232D01*
X163030805Y-147446592D01*
X163069386Y-147285891D01*
X163086917Y-147212870D01*
X163086918Y-147212864D01*
X163088072Y-147208057D01*
X163107319Y-146963500D01*
X163095656Y-146815301D01*
X168499084Y-146815301D01*
X168519080Y-147196833D01*
X168519766Y-147203371D01*
X168579535Y-147580734D01*
X168580906Y-147587184D01*
X168679788Y-147956216D01*
X168681829Y-147962498D01*
X168818740Y-148319164D01*
X168821422Y-148325189D01*
X168994872Y-148665603D01*
X168998169Y-148671313D01*
X169206253Y-148991735D01*
X169210123Y-148997061D01*
X169403478Y-149235835D01*
X169415733Y-149244300D01*
X169426824Y-149237966D01*
X171839978Y-146824812D01*
X171846356Y-146813132D01*
X172576408Y-146813132D01*
X172576539Y-146814965D01*
X172580790Y-146821580D01*
X174996310Y-149237100D01*
X175009386Y-149244241D01*
X175019753Y-149236784D01*
X175213877Y-148997061D01*
X175217747Y-148991735D01*
X175425831Y-148671313D01*
X175429128Y-148665603D01*
X175602578Y-148325189D01*
X175605260Y-148319164D01*
X175742171Y-147962498D01*
X175744212Y-147956216D01*
X175843094Y-147587184D01*
X175844465Y-147580734D01*
X175904234Y-147203371D01*
X175904920Y-147196833D01*
X175924916Y-146815301D01*
X175924916Y-146808699D01*
X175904920Y-146427167D01*
X175904234Y-146420629D01*
X175844465Y-146043266D01*
X175843094Y-146036816D01*
X175744212Y-145667784D01*
X175742171Y-145661502D01*
X175605260Y-145304836D01*
X175602578Y-145298811D01*
X175429128Y-144958397D01*
X175425831Y-144952687D01*
X175217747Y-144632265D01*
X175213877Y-144626939D01*
X175020522Y-144388165D01*
X175008267Y-144379700D01*
X174997176Y-144386034D01*
X172584022Y-146799188D01*
X172576408Y-146813132D01*
X171846356Y-146813132D01*
X171847592Y-146810868D01*
X171847461Y-146809035D01*
X171843210Y-146802420D01*
X169427690Y-144386900D01*
X169414614Y-144379759D01*
X169404247Y-144387216D01*
X169210123Y-144626939D01*
X169206253Y-144632265D01*
X168998169Y-144952687D01*
X168994872Y-144958397D01*
X168821422Y-145298811D01*
X168818740Y-145304836D01*
X168681829Y-145661502D01*
X168679788Y-145667784D01*
X168580906Y-146036816D01*
X168579535Y-146043266D01*
X168519766Y-146420629D01*
X168519080Y-146427167D01*
X168499084Y-146808699D01*
X168499084Y-146815301D01*
X163095656Y-146815301D01*
X163088072Y-146718943D01*
X163030805Y-146480408D01*
X162936927Y-146253768D01*
X162808752Y-146044604D01*
X162802101Y-146036816D01*
X162652641Y-145861823D01*
X162649433Y-145858067D01*
X162462896Y-145698748D01*
X162458673Y-145696160D01*
X162458670Y-145696158D01*
X162379209Y-145647465D01*
X162253732Y-145570573D01*
X162109033Y-145510636D01*
X162031665Y-145478589D01*
X162031663Y-145478588D01*
X162027092Y-145476695D01*
X161944437Y-145456851D01*
X161793370Y-145420583D01*
X161793364Y-145420582D01*
X161788557Y-145419428D01*
X161544000Y-145400181D01*
X161299443Y-145419428D01*
X161294636Y-145420582D01*
X161294630Y-145420583D01*
X161143563Y-145456851D01*
X161060908Y-145476695D01*
X161056337Y-145478588D01*
X161056335Y-145478589D01*
X160978967Y-145510636D01*
X160834268Y-145570573D01*
X160708791Y-145647465D01*
X160629330Y-145696158D01*
X160629327Y-145696160D01*
X160625104Y-145698748D01*
X160438567Y-145858067D01*
X160435359Y-145861823D01*
X160369811Y-145938569D01*
X160310360Y-145977378D01*
X160239365Y-145977884D01*
X160178189Y-145938569D01*
X160112641Y-145861823D01*
X160109433Y-145858067D01*
X159922896Y-145698748D01*
X159918673Y-145696160D01*
X159918670Y-145696158D01*
X159839209Y-145647465D01*
X159713732Y-145570573D01*
X159569033Y-145510636D01*
X159491665Y-145478589D01*
X159491663Y-145478588D01*
X159487092Y-145476695D01*
X159404437Y-145456851D01*
X159253370Y-145420583D01*
X159253364Y-145420582D01*
X159248557Y-145419428D01*
X159004000Y-145400181D01*
X158759443Y-145419428D01*
X158754636Y-145420582D01*
X158754630Y-145420583D01*
X158603563Y-145456851D01*
X158520908Y-145476695D01*
X158516337Y-145478588D01*
X158516335Y-145478589D01*
X158438967Y-145510636D01*
X158294268Y-145570573D01*
X158168791Y-145647465D01*
X158089330Y-145696158D01*
X158089327Y-145696160D01*
X158085104Y-145698748D01*
X157898567Y-145858067D01*
X157895359Y-145861823D01*
X157829811Y-145938569D01*
X157770360Y-145977378D01*
X157699365Y-145977884D01*
X157638189Y-145938569D01*
X157572641Y-145861823D01*
X157569433Y-145858067D01*
X157382896Y-145698748D01*
X157378673Y-145696160D01*
X157378670Y-145696158D01*
X157299209Y-145647465D01*
X157173732Y-145570573D01*
X157029033Y-145510636D01*
X156951665Y-145478589D01*
X156951663Y-145478588D01*
X156947092Y-145476695D01*
X156864437Y-145456851D01*
X156713370Y-145420583D01*
X156713364Y-145420582D01*
X156708557Y-145419428D01*
X156464000Y-145400181D01*
X156219443Y-145419428D01*
X156214636Y-145420582D01*
X156214630Y-145420583D01*
X156063563Y-145456851D01*
X155980908Y-145476695D01*
X155976337Y-145478588D01*
X155976335Y-145478589D01*
X155898967Y-145510636D01*
X155754268Y-145570573D01*
X155628791Y-145647465D01*
X155549330Y-145696158D01*
X155549327Y-145696160D01*
X155545104Y-145698748D01*
X155358567Y-145858067D01*
X155355359Y-145861823D01*
X155289811Y-145938569D01*
X155230360Y-145977378D01*
X155159365Y-145977884D01*
X155098189Y-145938569D01*
X155032641Y-145861823D01*
X155029433Y-145858067D01*
X154842896Y-145698748D01*
X154838673Y-145696160D01*
X154838670Y-145696158D01*
X154759209Y-145647465D01*
X154633732Y-145570573D01*
X154489033Y-145510636D01*
X154411665Y-145478589D01*
X154411663Y-145478588D01*
X154407092Y-145476695D01*
X154324437Y-145456851D01*
X154173370Y-145420583D01*
X154173364Y-145420582D01*
X154168557Y-145419428D01*
X153924000Y-145400181D01*
X153679443Y-145419428D01*
X153674636Y-145420582D01*
X153674630Y-145420583D01*
X153523563Y-145456851D01*
X153440908Y-145476695D01*
X153436337Y-145478588D01*
X153436335Y-145478589D01*
X153358967Y-145510636D01*
X153214268Y-145570573D01*
X153088791Y-145647465D01*
X153009330Y-145696158D01*
X153009327Y-145696160D01*
X153005104Y-145698748D01*
X152818567Y-145858067D01*
X152815359Y-145861823D01*
X152749811Y-145938569D01*
X152690360Y-145977378D01*
X152619365Y-145977884D01*
X152558189Y-145938569D01*
X152492641Y-145861823D01*
X152489433Y-145858067D01*
X152302896Y-145698748D01*
X152298673Y-145696160D01*
X152298670Y-145696158D01*
X152219209Y-145647465D01*
X152093732Y-145570573D01*
X151949033Y-145510636D01*
X151871665Y-145478589D01*
X151871663Y-145478588D01*
X151867092Y-145476695D01*
X151784437Y-145456851D01*
X151633370Y-145420583D01*
X151633364Y-145420582D01*
X151628557Y-145419428D01*
X151384000Y-145400181D01*
X151139443Y-145419428D01*
X151134636Y-145420582D01*
X151134630Y-145420583D01*
X150983563Y-145456851D01*
X150900908Y-145476695D01*
X150896337Y-145478588D01*
X150896335Y-145478589D01*
X150818967Y-145510636D01*
X150674268Y-145570573D01*
X150548791Y-145647465D01*
X150469330Y-145696158D01*
X150469327Y-145696160D01*
X150465104Y-145698748D01*
X150278567Y-145858067D01*
X150275359Y-145861823D01*
X150209811Y-145938569D01*
X150150360Y-145977378D01*
X150079365Y-145977884D01*
X150018189Y-145938569D01*
X149952641Y-145861823D01*
X149949433Y-145858067D01*
X149762896Y-145698748D01*
X149758673Y-145696160D01*
X149758670Y-145696158D01*
X149679209Y-145647465D01*
X149553732Y-145570573D01*
X149409033Y-145510636D01*
X149331665Y-145478589D01*
X149331663Y-145478588D01*
X149327092Y-145476695D01*
X149244437Y-145456851D01*
X149093370Y-145420583D01*
X149093364Y-145420582D01*
X149088557Y-145419428D01*
X148844000Y-145400181D01*
X148599443Y-145419428D01*
X148594636Y-145420582D01*
X148594630Y-145420583D01*
X148443563Y-145456851D01*
X148360908Y-145476695D01*
X148356337Y-145478588D01*
X148356335Y-145478589D01*
X148278967Y-145510636D01*
X148134268Y-145570573D01*
X148008791Y-145647465D01*
X147929330Y-145696158D01*
X147929327Y-145696160D01*
X147925104Y-145698748D01*
X147738567Y-145858067D01*
X147735359Y-145861823D01*
X147669811Y-145938569D01*
X147610360Y-145977378D01*
X147539365Y-145977884D01*
X147478189Y-145938569D01*
X147412641Y-145861823D01*
X147409433Y-145858067D01*
X147222896Y-145698748D01*
X147218673Y-145696160D01*
X147218670Y-145696158D01*
X147139209Y-145647465D01*
X147013732Y-145570573D01*
X146869033Y-145510636D01*
X146791665Y-145478589D01*
X146791663Y-145478588D01*
X146787092Y-145476695D01*
X146704437Y-145456851D01*
X146553370Y-145420583D01*
X146553364Y-145420582D01*
X146548557Y-145419428D01*
X146304000Y-145400181D01*
X146059443Y-145419428D01*
X146054636Y-145420582D01*
X146054630Y-145420583D01*
X145903563Y-145456851D01*
X145820908Y-145476695D01*
X145816337Y-145478588D01*
X145816335Y-145478589D01*
X145738967Y-145510636D01*
X145594268Y-145570573D01*
X145468791Y-145647465D01*
X145416788Y-145679332D01*
X145348255Y-145697870D01*
X145280578Y-145676413D01*
X145250128Y-145647465D01*
X145244918Y-145640513D01*
X145177261Y-145550239D01*
X145060705Y-145462885D01*
X144924316Y-145411755D01*
X144862134Y-145405000D01*
X142665866Y-145405000D01*
X142603684Y-145411755D01*
X142467295Y-145462885D01*
X142350739Y-145550239D01*
X142263385Y-145666795D01*
X142212255Y-145803184D01*
X142205500Y-145865366D01*
X142205500Y-148061634D01*
X136236615Y-148061634D01*
X136372171Y-147708498D01*
X136374212Y-147702216D01*
X136473094Y-147333184D01*
X136474465Y-147326734D01*
X136534234Y-146949371D01*
X136534920Y-146942833D01*
X136554916Y-146561301D01*
X136554916Y-146554699D01*
X136534920Y-146173167D01*
X136534234Y-146166629D01*
X136474465Y-145789266D01*
X136473094Y-145782816D01*
X136374212Y-145413784D01*
X136372171Y-145407502D01*
X136235260Y-145050836D01*
X136232578Y-145044811D01*
X136059128Y-144704397D01*
X136055831Y-144698687D01*
X135847747Y-144378265D01*
X135843877Y-144372939D01*
X135650522Y-144134165D01*
X135638267Y-144125700D01*
X135627176Y-144132034D01*
X133214022Y-146545188D01*
X133206408Y-146559132D01*
X132476356Y-146559132D01*
X132477592Y-146556868D01*
X132477461Y-146555035D01*
X132473210Y-146548420D01*
X130057690Y-144132900D01*
X130044614Y-144125759D01*
X130034247Y-144133216D01*
X129840123Y-144372939D01*
X129836253Y-144378265D01*
X129628169Y-144698687D01*
X129624872Y-144704397D01*
X129451422Y-145044811D01*
X129448740Y-145050836D01*
X129311829Y-145407502D01*
X129309788Y-145413784D01*
X129210906Y-145782816D01*
X129209535Y-145789266D01*
X129149766Y-146166629D01*
X129149080Y-146173167D01*
X129129084Y-146554699D01*
X129129084Y-146561301D01*
X127561012Y-146561301D01*
X127559242Y-143761733D01*
X130409700Y-143761733D01*
X130416034Y-143772824D01*
X132829188Y-146185978D01*
X132843132Y-146193592D01*
X132844965Y-146193461D01*
X132851580Y-146189210D01*
X135025057Y-144015733D01*
X169779700Y-144015733D01*
X169786034Y-144026824D01*
X172199188Y-146439978D01*
X172213132Y-146447592D01*
X172214965Y-146447461D01*
X172221580Y-146443210D01*
X174637100Y-144027690D01*
X174644241Y-144014614D01*
X174636784Y-144004247D01*
X174397065Y-143810126D01*
X174391728Y-143806249D01*
X174071315Y-143598170D01*
X174065606Y-143594873D01*
X173725189Y-143421422D01*
X173719164Y-143418740D01*
X173362498Y-143281829D01*
X173356216Y-143279788D01*
X172987184Y-143180906D01*
X172980734Y-143179535D01*
X172603371Y-143119766D01*
X172596833Y-143119080D01*
X172215301Y-143099084D01*
X172208699Y-143099084D01*
X171827167Y-143119080D01*
X171820629Y-143119766D01*
X171443266Y-143179535D01*
X171436816Y-143180906D01*
X171067784Y-143279788D01*
X171061502Y-143281829D01*
X170704836Y-143418740D01*
X170698811Y-143421422D01*
X170358397Y-143594872D01*
X170352687Y-143598169D01*
X170032265Y-143806253D01*
X170026939Y-143810123D01*
X169788165Y-144003478D01*
X169779700Y-144015733D01*
X135025057Y-144015733D01*
X135267100Y-143773690D01*
X135274241Y-143760614D01*
X135266784Y-143750247D01*
X135027065Y-143556126D01*
X135021728Y-143552249D01*
X134701315Y-143344170D01*
X134695606Y-143340873D01*
X134355189Y-143167422D01*
X134349164Y-143164740D01*
X133992498Y-143027829D01*
X133986216Y-143025788D01*
X133617184Y-142926906D01*
X133610734Y-142925535D01*
X133233371Y-142865766D01*
X133226833Y-142865080D01*
X132845301Y-142845084D01*
X132838699Y-142845084D01*
X132457167Y-142865080D01*
X132450629Y-142865766D01*
X132073266Y-142925535D01*
X132066816Y-142926906D01*
X131697784Y-143025788D01*
X131691502Y-143027829D01*
X131334836Y-143164740D01*
X131328811Y-143167422D01*
X130988397Y-143340872D01*
X130982687Y-143344169D01*
X130662265Y-143552253D01*
X130656939Y-143556123D01*
X130418165Y-143749478D01*
X130409700Y-143761733D01*
X127559242Y-143761733D01*
X127558380Y-142398109D01*
X170431721Y-142398109D01*
X170436630Y-142404667D01*
X170520150Y-142451344D01*
X170531390Y-142456255D01*
X170704877Y-142512624D01*
X170716851Y-142515257D01*
X170897992Y-142536857D01*
X170910241Y-142537114D01*
X171092125Y-142523119D01*
X171104205Y-142520988D01*
X171279895Y-142471934D01*
X171291328Y-142467500D01*
X171409342Y-142407887D01*
X171419626Y-142398242D01*
X171417388Y-142391598D01*
X170937812Y-141912022D01*
X170923868Y-141904408D01*
X170922035Y-141904539D01*
X170915420Y-141908790D01*
X170438481Y-142385729D01*
X170431721Y-142398109D01*
X127558380Y-142398109D01*
X127557832Y-141532212D01*
X169927808Y-141532212D01*
X169943071Y-141713982D01*
X169945286Y-141726047D01*
X169995565Y-141901391D01*
X170000083Y-141912803D01*
X170057286Y-142024107D01*
X170067007Y-142034328D01*
X170073806Y-142031984D01*
X170552978Y-141552812D01*
X170559356Y-141541132D01*
X171289408Y-141541132D01*
X171289539Y-141542965D01*
X171293790Y-141549580D01*
X171770659Y-142026449D01*
X171783039Y-142033209D01*
X171789773Y-142028168D01*
X171833494Y-141951207D01*
X171838487Y-141939991D01*
X171896062Y-141766914D01*
X171898782Y-141754942D01*
X171921973Y-141571364D01*
X171922465Y-141564335D01*
X171922756Y-141543505D01*
X171922463Y-141536512D01*
X171904403Y-141352325D01*
X171902020Y-141340290D01*
X171849298Y-141165665D01*
X171844623Y-141154324D01*
X171792472Y-141056241D01*
X171782610Y-141046158D01*
X171775484Y-141048726D01*
X171297022Y-141527188D01*
X171289408Y-141541132D01*
X170559356Y-141541132D01*
X170560592Y-141538868D01*
X170560461Y-141537035D01*
X170556210Y-141530420D01*
X170079166Y-141053376D01*
X170066786Y-141046616D01*
X170060398Y-141051398D01*
X170010854Y-141141516D01*
X170006017Y-141152801D01*
X169950861Y-141326675D01*
X169948313Y-141338664D01*
X169927979Y-141519943D01*
X169927808Y-141532212D01*
X127557832Y-141532212D01*
X127557295Y-140682216D01*
X170430934Y-140682216D01*
X170433389Y-140689179D01*
X170912188Y-141167978D01*
X170926132Y-141175592D01*
X170927965Y-141175461D01*
X170934580Y-141171210D01*
X171411766Y-140694024D01*
X171418526Y-140681644D01*
X171413867Y-140675421D01*
X171317083Y-140623090D01*
X171305778Y-140618338D01*
X171131524Y-140564397D01*
X171119511Y-140561931D01*
X170938094Y-140542863D01*
X170925826Y-140542778D01*
X170744169Y-140559310D01*
X170732120Y-140561608D01*
X170557128Y-140613111D01*
X170545751Y-140617708D01*
X170441083Y-140672427D01*
X170430934Y-140682216D01*
X127557295Y-140682216D01*
X127553545Y-134750500D01*
X135534771Y-134750500D01*
X135553635Y-134929975D01*
X135609401Y-135101607D01*
X135612704Y-135107329D01*
X135612705Y-135107330D01*
X135644689Y-135162727D01*
X135699633Y-135257893D01*
X135704051Y-135262800D01*
X135704052Y-135262801D01*
X135815965Y-135387093D01*
X135820387Y-135392004D01*
X135825729Y-135395885D01*
X135825731Y-135395887D01*
X135849291Y-135413004D01*
X135966385Y-135498078D01*
X135972413Y-135500762D01*
X135972415Y-135500763D01*
X136019582Y-135521763D01*
X136131248Y-135571480D01*
X136217414Y-135589795D01*
X136301311Y-135607628D01*
X136301315Y-135607628D01*
X136307768Y-135609000D01*
X136488232Y-135609000D01*
X136494685Y-135607628D01*
X136494689Y-135607628D01*
X136578586Y-135589795D01*
X136664752Y-135571480D01*
X136776418Y-135521763D01*
X136823585Y-135500763D01*
X136823587Y-135500762D01*
X136829615Y-135498078D01*
X136946709Y-135413004D01*
X136970269Y-135395887D01*
X136970271Y-135395885D01*
X136975613Y-135392004D01*
X136980035Y-135387093D01*
X137091948Y-135262801D01*
X137091949Y-135262800D01*
X137096367Y-135257893D01*
X137151311Y-135162727D01*
X137183295Y-135107330D01*
X137183296Y-135107329D01*
X137186599Y-135101607D01*
X137242365Y-134929975D01*
X137259022Y-134771500D01*
X139598771Y-134771500D01*
X139617635Y-134950975D01*
X139673401Y-135122607D01*
X139763633Y-135278893D01*
X139768051Y-135283800D01*
X139768052Y-135283801D01*
X139868975Y-135395887D01*
X139884387Y-135413004D01*
X139889729Y-135416885D01*
X139889731Y-135416887D01*
X140025043Y-135515197D01*
X140030385Y-135519078D01*
X140036413Y-135521762D01*
X140036415Y-135521763D01*
X140189217Y-135589795D01*
X140195248Y-135592480D01*
X140283508Y-135611240D01*
X140365311Y-135628628D01*
X140365315Y-135628628D01*
X140371768Y-135630000D01*
X140552232Y-135630000D01*
X140558685Y-135628628D01*
X140558689Y-135628628D01*
X140640492Y-135611240D01*
X140728752Y-135592480D01*
X140734783Y-135589795D01*
X140887585Y-135521763D01*
X140887587Y-135521762D01*
X140893615Y-135519078D01*
X140898957Y-135515197D01*
X141034269Y-135416887D01*
X141034271Y-135416885D01*
X141039613Y-135413004D01*
X141055025Y-135395887D01*
X141155948Y-135283801D01*
X141155949Y-135283800D01*
X141160367Y-135278893D01*
X141250599Y-135122607D01*
X141306365Y-134950975D01*
X141325229Y-134771500D01*
X143916771Y-134771500D01*
X143935635Y-134950975D01*
X143991401Y-135122607D01*
X144081633Y-135278893D01*
X144086051Y-135283800D01*
X144086052Y-135283801D01*
X144186975Y-135395887D01*
X144202387Y-135413004D01*
X144207729Y-135416885D01*
X144207731Y-135416887D01*
X144343043Y-135515197D01*
X144348385Y-135519078D01*
X144354413Y-135521762D01*
X144354415Y-135521763D01*
X144507217Y-135589795D01*
X144513248Y-135592480D01*
X144601508Y-135611240D01*
X144683311Y-135628628D01*
X144683315Y-135628628D01*
X144689768Y-135630000D01*
X144870232Y-135630000D01*
X144876685Y-135628628D01*
X144876689Y-135628628D01*
X144958492Y-135611240D01*
X145046752Y-135592480D01*
X145052783Y-135589795D01*
X145205585Y-135521763D01*
X145205587Y-135521762D01*
X145211615Y-135519078D01*
X145216957Y-135515197D01*
X145352269Y-135416887D01*
X145352271Y-135416885D01*
X145357613Y-135413004D01*
X145373025Y-135395887D01*
X145473948Y-135283801D01*
X145473949Y-135283800D01*
X145478367Y-135278893D01*
X145568599Y-135122607D01*
X145624365Y-134950975D01*
X145643229Y-134771500D01*
X147980771Y-134771500D01*
X147999635Y-134950975D01*
X148055401Y-135122607D01*
X148145633Y-135278893D01*
X148150051Y-135283800D01*
X148150052Y-135283801D01*
X148250975Y-135395887D01*
X148266387Y-135413004D01*
X148271729Y-135416885D01*
X148271731Y-135416887D01*
X148407043Y-135515197D01*
X148412385Y-135519078D01*
X148418413Y-135521762D01*
X148418415Y-135521763D01*
X148571217Y-135589795D01*
X148577248Y-135592480D01*
X148665508Y-135611240D01*
X148747311Y-135628628D01*
X148747315Y-135628628D01*
X148753768Y-135630000D01*
X148934232Y-135630000D01*
X148940685Y-135628628D01*
X148940689Y-135628628D01*
X149022492Y-135611240D01*
X149110752Y-135592480D01*
X149116783Y-135589795D01*
X149269585Y-135521763D01*
X149269587Y-135521762D01*
X149275615Y-135519078D01*
X149280957Y-135515197D01*
X149416269Y-135416887D01*
X149416271Y-135416885D01*
X149421613Y-135413004D01*
X149437025Y-135395887D01*
X149537948Y-135283801D01*
X149537949Y-135283800D01*
X149542367Y-135278893D01*
X149632599Y-135122607D01*
X149688365Y-134950975D01*
X149707229Y-134771500D01*
X149688365Y-134592025D01*
X149632599Y-134420393D01*
X149617171Y-134393670D01*
X149545668Y-134269825D01*
X149542367Y-134264107D01*
X149519040Y-134238199D01*
X149426035Y-134134907D01*
X149426034Y-134134906D01*
X149421613Y-134129996D01*
X149399469Y-134113907D01*
X149280957Y-134027803D01*
X149280956Y-134027802D01*
X149275615Y-134023922D01*
X149269587Y-134021238D01*
X149269585Y-134021237D01*
X149116783Y-133953205D01*
X149116781Y-133953205D01*
X149110752Y-133950520D01*
X149022492Y-133931760D01*
X148940689Y-133914372D01*
X148940685Y-133914372D01*
X148934232Y-133913000D01*
X148753768Y-133913000D01*
X148747315Y-133914372D01*
X148747311Y-133914372D01*
X148665508Y-133931760D01*
X148577248Y-133950520D01*
X148571219Y-133953204D01*
X148571217Y-133953205D01*
X148418416Y-134021237D01*
X148418414Y-134021238D01*
X148412386Y-134023922D01*
X148407045Y-134027802D01*
X148407044Y-134027803D01*
X148271731Y-134126113D01*
X148271729Y-134126115D01*
X148266387Y-134129996D01*
X148261966Y-134134906D01*
X148261965Y-134134907D01*
X148168961Y-134238199D01*
X148145633Y-134264107D01*
X148142332Y-134269825D01*
X148070830Y-134393670D01*
X148055401Y-134420393D01*
X147999635Y-134592025D01*
X147980771Y-134771500D01*
X145643229Y-134771500D01*
X145624365Y-134592025D01*
X145568599Y-134420393D01*
X145553171Y-134393670D01*
X145481668Y-134269825D01*
X145478367Y-134264107D01*
X145455040Y-134238199D01*
X145362035Y-134134907D01*
X145362034Y-134134906D01*
X145357613Y-134129996D01*
X145335469Y-134113907D01*
X145216957Y-134027803D01*
X145216956Y-134027802D01*
X145211615Y-134023922D01*
X145205587Y-134021238D01*
X145205585Y-134021237D01*
X145052783Y-133953205D01*
X145052781Y-133953205D01*
X145046752Y-133950520D01*
X144958492Y-133931760D01*
X144876689Y-133914372D01*
X144876685Y-133914372D01*
X144870232Y-133913000D01*
X144689768Y-133913000D01*
X144683315Y-133914372D01*
X144683311Y-133914372D01*
X144601508Y-133931760D01*
X144513248Y-133950520D01*
X144507219Y-133953204D01*
X144507217Y-133953205D01*
X144354416Y-134021237D01*
X144354414Y-134021238D01*
X144348386Y-134023922D01*
X144343045Y-134027802D01*
X144343044Y-134027803D01*
X144207731Y-134126113D01*
X144207729Y-134126115D01*
X144202387Y-134129996D01*
X144197966Y-134134906D01*
X144197965Y-134134907D01*
X144104961Y-134238199D01*
X144081633Y-134264107D01*
X144078332Y-134269825D01*
X144006830Y-134393670D01*
X143991401Y-134420393D01*
X143935635Y-134592025D01*
X143916771Y-134771500D01*
X141325229Y-134771500D01*
X141306365Y-134592025D01*
X141250599Y-134420393D01*
X141235171Y-134393670D01*
X141163668Y-134269825D01*
X141160367Y-134264107D01*
X141137040Y-134238199D01*
X141044035Y-134134907D01*
X141044034Y-134134906D01*
X141039613Y-134129996D01*
X141017469Y-134113907D01*
X140898957Y-134027803D01*
X140898956Y-134027802D01*
X140893615Y-134023922D01*
X140887587Y-134021238D01*
X140887585Y-134021237D01*
X140734783Y-133953205D01*
X140734781Y-133953205D01*
X140728752Y-133950520D01*
X140640492Y-133931760D01*
X140558689Y-133914372D01*
X140558685Y-133914372D01*
X140552232Y-133913000D01*
X140371768Y-133913000D01*
X140365315Y-133914372D01*
X140365311Y-133914372D01*
X140283508Y-133931760D01*
X140195248Y-133950520D01*
X140189219Y-133953204D01*
X140189217Y-133953205D01*
X140036416Y-134021237D01*
X140036414Y-134021238D01*
X140030386Y-134023922D01*
X140025045Y-134027802D01*
X140025044Y-134027803D01*
X139889731Y-134126113D01*
X139889729Y-134126115D01*
X139884387Y-134129996D01*
X139879966Y-134134906D01*
X139879965Y-134134907D01*
X139786961Y-134238199D01*
X139763633Y-134264107D01*
X139760332Y-134269825D01*
X139688830Y-134393670D01*
X139673401Y-134420393D01*
X139617635Y-134592025D01*
X139598771Y-134771500D01*
X137259022Y-134771500D01*
X137261229Y-134750500D01*
X137242365Y-134571025D01*
X137186599Y-134399393D01*
X137096367Y-134243107D01*
X136994522Y-134129996D01*
X136980035Y-134113907D01*
X136980034Y-134113906D01*
X136975613Y-134108996D01*
X136854824Y-134021237D01*
X136834957Y-134006803D01*
X136834956Y-134006802D01*
X136829615Y-134002922D01*
X136823587Y-134000238D01*
X136823585Y-134000237D01*
X136670783Y-133932205D01*
X136670781Y-133932205D01*
X136664752Y-133929520D01*
X136576492Y-133910760D01*
X136494689Y-133893372D01*
X136494685Y-133893372D01*
X136488232Y-133892000D01*
X136307768Y-133892000D01*
X136301315Y-133893372D01*
X136301311Y-133893372D01*
X136219508Y-133910760D01*
X136131248Y-133929520D01*
X136125219Y-133932204D01*
X136125217Y-133932205D01*
X135972416Y-134000237D01*
X135972414Y-134000238D01*
X135966386Y-134002922D01*
X135961045Y-134006802D01*
X135961044Y-134006803D01*
X135825731Y-134105113D01*
X135825729Y-134105115D01*
X135820387Y-134108996D01*
X135815966Y-134113906D01*
X135815965Y-134113907D01*
X135801479Y-134129996D01*
X135699633Y-134243107D01*
X135609401Y-134399393D01*
X135553635Y-134571025D01*
X135534771Y-134750500D01*
X127553545Y-134750500D01*
X127552842Y-133638109D01*
X170431721Y-133638109D01*
X170436630Y-133644667D01*
X170520150Y-133691344D01*
X170531390Y-133696255D01*
X170704877Y-133752624D01*
X170716851Y-133755257D01*
X170897992Y-133776857D01*
X170910241Y-133777114D01*
X171092125Y-133763119D01*
X171104205Y-133760988D01*
X171279895Y-133711934D01*
X171291328Y-133707500D01*
X171409342Y-133647887D01*
X171419626Y-133638242D01*
X171417388Y-133631598D01*
X170937812Y-133152022D01*
X170923868Y-133144408D01*
X170922035Y-133144539D01*
X170915420Y-133148790D01*
X170438481Y-133625729D01*
X170431721Y-133638109D01*
X127552842Y-133638109D01*
X127552294Y-132772212D01*
X169927808Y-132772212D01*
X169943071Y-132953982D01*
X169945286Y-132966047D01*
X169995565Y-133141391D01*
X170000083Y-133152803D01*
X170057286Y-133264107D01*
X170067007Y-133274328D01*
X170073806Y-133271984D01*
X170552978Y-132792812D01*
X170559356Y-132781132D01*
X171289408Y-132781132D01*
X171289539Y-132782965D01*
X171293790Y-132789580D01*
X171770659Y-133266449D01*
X171783039Y-133273209D01*
X171789773Y-133268168D01*
X171833494Y-133191207D01*
X171838487Y-133179991D01*
X171896062Y-133006914D01*
X171898782Y-132994942D01*
X171921973Y-132811364D01*
X171922465Y-132804335D01*
X171922756Y-132783505D01*
X171922463Y-132776512D01*
X171904403Y-132592325D01*
X171902020Y-132580290D01*
X171849298Y-132405665D01*
X171844623Y-132394324D01*
X171792472Y-132296241D01*
X171782610Y-132286158D01*
X171775484Y-132288726D01*
X171297022Y-132767188D01*
X171289408Y-132781132D01*
X170559356Y-132781132D01*
X170560592Y-132778868D01*
X170560461Y-132777035D01*
X170556210Y-132770420D01*
X170079166Y-132293376D01*
X170066786Y-132286616D01*
X170060398Y-132291398D01*
X170010854Y-132381516D01*
X170006017Y-132392801D01*
X169950861Y-132566675D01*
X169948313Y-132578664D01*
X169927979Y-132759943D01*
X169927808Y-132772212D01*
X127552294Y-132772212D01*
X127551757Y-131922216D01*
X170430934Y-131922216D01*
X170433389Y-131929179D01*
X170912188Y-132407978D01*
X170926132Y-132415592D01*
X170927965Y-132415461D01*
X170934580Y-132411210D01*
X171411766Y-131934024D01*
X171418526Y-131921644D01*
X171413867Y-131915421D01*
X171317083Y-131863090D01*
X171305778Y-131858338D01*
X171131524Y-131804397D01*
X171119511Y-131801931D01*
X170938094Y-131782863D01*
X170925826Y-131782778D01*
X170744169Y-131799310D01*
X170732120Y-131801608D01*
X170557128Y-131853111D01*
X170545751Y-131857708D01*
X170441083Y-131912427D01*
X170430934Y-131922216D01*
X127551757Y-131922216D01*
X127549540Y-128416292D01*
X130584608Y-128416292D01*
X130614486Y-128613848D01*
X130616689Y-128619835D01*
X130616689Y-128619836D01*
X130634265Y-128667607D01*
X130683477Y-128801361D01*
X130788765Y-128971172D01*
X130926047Y-129116344D01*
X131089716Y-129230946D01*
X131273086Y-129310298D01*
X131468666Y-129351156D01*
X131473522Y-129351411D01*
X131473561Y-129351413D01*
X131473577Y-129351413D01*
X131475229Y-129351500D01*
X131621934Y-129351500D01*
X131657268Y-129347911D01*
X131764434Y-129337026D01*
X131764438Y-129337025D01*
X131770780Y-129336381D01*
X131904042Y-129294619D01*
X131955349Y-129278540D01*
X131955350Y-129278539D01*
X131961440Y-129276631D01*
X132136191Y-129179765D01*
X132141040Y-129175609D01*
X132283052Y-129053891D01*
X132283053Y-129053890D01*
X132287896Y-129049739D01*
X132329949Y-128995525D01*
X132406445Y-128896907D01*
X132406447Y-128896904D01*
X132410357Y-128891863D01*
X132443803Y-128823893D01*
X132495752Y-128718318D01*
X132498571Y-128712589D01*
X132548935Y-128519238D01*
X132559392Y-128319708D01*
X132529514Y-128122152D01*
X132460523Y-127934639D01*
X132355235Y-127764828D01*
X132346580Y-127755675D01*
X132222335Y-127624290D01*
X132217953Y-127619656D01*
X132054284Y-127505054D01*
X131870914Y-127425702D01*
X131675334Y-127384844D01*
X131670478Y-127384589D01*
X131670439Y-127384587D01*
X131670423Y-127384587D01*
X131668771Y-127384500D01*
X131522066Y-127384500D01*
X131508933Y-127385834D01*
X131379566Y-127398974D01*
X131379562Y-127398975D01*
X131373220Y-127399619D01*
X131281898Y-127428238D01*
X131188651Y-127457460D01*
X131188650Y-127457461D01*
X131182560Y-127459369D01*
X131007809Y-127556235D01*
X131002960Y-127560391D01*
X130958122Y-127598822D01*
X130856104Y-127686261D01*
X130852197Y-127691298D01*
X130852195Y-127691300D01*
X130737555Y-127839093D01*
X130737553Y-127839096D01*
X130733643Y-127844137D01*
X130730825Y-127849863D01*
X130730823Y-127849867D01*
X130691779Y-127929216D01*
X130645429Y-128023411D01*
X130643820Y-128029589D01*
X130598825Y-128202329D01*
X130595065Y-128216762D01*
X130594731Y-128223142D01*
X130587872Y-128354020D01*
X130584608Y-128416292D01*
X127549540Y-128416292D01*
X127548805Y-127254000D01*
X164490771Y-127254000D01*
X164491461Y-127260565D01*
X164506077Y-127399619D01*
X164509635Y-127433475D01*
X164511675Y-127439753D01*
X164511675Y-127439754D01*
X164532892Y-127505054D01*
X164565401Y-127605107D01*
X164655633Y-127761393D01*
X164776387Y-127895504D01*
X164781729Y-127899385D01*
X164781731Y-127899387D01*
X164838496Y-127940629D01*
X164922385Y-128001578D01*
X164928413Y-128004262D01*
X164928415Y-128004263D01*
X165081217Y-128072295D01*
X165087248Y-128074980D01*
X165161967Y-128090862D01*
X165235307Y-128106451D01*
X165297780Y-128140180D01*
X165332102Y-128202329D01*
X165327374Y-128273168D01*
X165285098Y-128330206D01*
X165242657Y-128349586D01*
X165242988Y-128350606D01*
X165236704Y-128352648D01*
X165230248Y-128354020D01*
X165224219Y-128356704D01*
X165224217Y-128356705D01*
X165071416Y-128424737D01*
X165071414Y-128424738D01*
X165065386Y-128427422D01*
X165060045Y-128431302D01*
X165060044Y-128431303D01*
X164924731Y-128529613D01*
X164924729Y-128529615D01*
X164919387Y-128533496D01*
X164798633Y-128667607D01*
X164708401Y-128823893D01*
X164652635Y-128995525D01*
X164633771Y-129175000D01*
X164652635Y-129354475D01*
X164708401Y-129526107D01*
X164798633Y-129682393D01*
X164919387Y-129816504D01*
X165065385Y-129922578D01*
X165071413Y-129925262D01*
X165071415Y-129925263D01*
X165224217Y-129993295D01*
X165230248Y-129995980D01*
X165318508Y-130014740D01*
X165400311Y-130032128D01*
X165400315Y-130032128D01*
X165406768Y-130033500D01*
X165587232Y-130033500D01*
X165593685Y-130032128D01*
X165593689Y-130032128D01*
X165675492Y-130014740D01*
X165763752Y-129995980D01*
X165769783Y-129993295D01*
X165922585Y-129925263D01*
X165922587Y-129925262D01*
X165928615Y-129922578D01*
X166074613Y-129816504D01*
X166195367Y-129682393D01*
X166285599Y-129526107D01*
X166341365Y-129354475D01*
X166360229Y-129175000D01*
X166341365Y-128995525D01*
X166285599Y-128823893D01*
X166195367Y-128667607D01*
X166074613Y-128533496D01*
X166063498Y-128525420D01*
X165933957Y-128431303D01*
X165933956Y-128431302D01*
X165928615Y-128427422D01*
X165922587Y-128424738D01*
X165922585Y-128424737D01*
X165769783Y-128356705D01*
X165769781Y-128356705D01*
X165763752Y-128354020D01*
X165689033Y-128338138D01*
X165615693Y-128322549D01*
X165553220Y-128288820D01*
X165518898Y-128226671D01*
X165523626Y-128155832D01*
X165565902Y-128098794D01*
X165608343Y-128079414D01*
X165608012Y-128078394D01*
X165614296Y-128076352D01*
X165620752Y-128074980D01*
X165626783Y-128072295D01*
X165779585Y-128004263D01*
X165779587Y-128004262D01*
X165785615Y-128001578D01*
X165869504Y-127940629D01*
X165926269Y-127899387D01*
X165926271Y-127899385D01*
X165931613Y-127895504D01*
X166052367Y-127761393D01*
X166142599Y-127605107D01*
X166175108Y-127505054D01*
X166196325Y-127439754D01*
X166196325Y-127439753D01*
X166198365Y-127433475D01*
X166201924Y-127399619D01*
X166216539Y-127260565D01*
X166217229Y-127254000D01*
X166198365Y-127074525D01*
X166142599Y-126902893D01*
X166052367Y-126746607D01*
X165931613Y-126612496D01*
X165898586Y-126588500D01*
X165790957Y-126510303D01*
X165790956Y-126510302D01*
X165785615Y-126506422D01*
X165779587Y-126503738D01*
X165779585Y-126503737D01*
X165626783Y-126435705D01*
X165626781Y-126435705D01*
X165620752Y-126433020D01*
X165532492Y-126414260D01*
X165450689Y-126396872D01*
X165450685Y-126396872D01*
X165444232Y-126395500D01*
X165263768Y-126395500D01*
X165257315Y-126396872D01*
X165257311Y-126396872D01*
X165175508Y-126414260D01*
X165087248Y-126433020D01*
X165081219Y-126435704D01*
X165081217Y-126435705D01*
X164928416Y-126503737D01*
X164928414Y-126503738D01*
X164922386Y-126506422D01*
X164917045Y-126510302D01*
X164917044Y-126510303D01*
X164781731Y-126608613D01*
X164781729Y-126608615D01*
X164776387Y-126612496D01*
X164655633Y-126746607D01*
X164565401Y-126902893D01*
X164509635Y-127074525D01*
X164490771Y-127254000D01*
X127548805Y-127254000D01*
X127547842Y-125730000D01*
X139852771Y-125730000D01*
X139871635Y-125909475D01*
X139927401Y-126081107D01*
X140017633Y-126237393D01*
X140138387Y-126371504D01*
X140143729Y-126375385D01*
X140143731Y-126375387D01*
X140173303Y-126396872D01*
X140284385Y-126477578D01*
X140290413Y-126480262D01*
X140290415Y-126480263D01*
X140349169Y-126506422D01*
X140449248Y-126550980D01*
X140537508Y-126569740D01*
X140619311Y-126587128D01*
X140619315Y-126587128D01*
X140625768Y-126588500D01*
X140806232Y-126588500D01*
X140812685Y-126587128D01*
X140812689Y-126587128D01*
X140894492Y-126569740D01*
X140982752Y-126550980D01*
X141082831Y-126506422D01*
X141141585Y-126480263D01*
X141141587Y-126480262D01*
X141147615Y-126477578D01*
X141258697Y-126396872D01*
X141288269Y-126375387D01*
X141288271Y-126375385D01*
X141293613Y-126371504D01*
X141414367Y-126237393D01*
X141504599Y-126081107D01*
X141560365Y-125909475D01*
X141579229Y-125730000D01*
X141560365Y-125550525D01*
X141504599Y-125378893D01*
X141414367Y-125222607D01*
X141413820Y-125222000D01*
X164490771Y-125222000D01*
X164509635Y-125401475D01*
X164565401Y-125573107D01*
X164655633Y-125729393D01*
X164776387Y-125863504D01*
X164781729Y-125867385D01*
X164781731Y-125867387D01*
X164917043Y-125965697D01*
X164922385Y-125969578D01*
X164928413Y-125972262D01*
X164928415Y-125972263D01*
X165081217Y-126040295D01*
X165087248Y-126042980D01*
X165175508Y-126061740D01*
X165257311Y-126079128D01*
X165257315Y-126079128D01*
X165263768Y-126080500D01*
X165444232Y-126080500D01*
X165450685Y-126079128D01*
X165450689Y-126079128D01*
X165532492Y-126061740D01*
X165620752Y-126042980D01*
X165626783Y-126040295D01*
X165779585Y-125972263D01*
X165779587Y-125972262D01*
X165785615Y-125969578D01*
X165790957Y-125965697D01*
X165926269Y-125867387D01*
X165926271Y-125867385D01*
X165931613Y-125863504D01*
X166052367Y-125729393D01*
X166142599Y-125573107D01*
X166198365Y-125401475D01*
X166217229Y-125222000D01*
X166198365Y-125042525D01*
X166142599Y-124870893D01*
X166052367Y-124714607D01*
X165931613Y-124580496D01*
X165785615Y-124474422D01*
X165779587Y-124471738D01*
X165779585Y-124471737D01*
X165626783Y-124403705D01*
X165626781Y-124403705D01*
X165620752Y-124401020D01*
X165532492Y-124382260D01*
X165450689Y-124364872D01*
X165450685Y-124364872D01*
X165444232Y-124363500D01*
X165263768Y-124363500D01*
X165257315Y-124364872D01*
X165257311Y-124364872D01*
X165175508Y-124382260D01*
X165087248Y-124401020D01*
X165081219Y-124403704D01*
X165081217Y-124403705D01*
X164928416Y-124471737D01*
X164928414Y-124471738D01*
X164922386Y-124474422D01*
X164917045Y-124478302D01*
X164917044Y-124478303D01*
X164781731Y-124576613D01*
X164781729Y-124576615D01*
X164776387Y-124580496D01*
X164655633Y-124714607D01*
X164565401Y-124870893D01*
X164509635Y-125042525D01*
X164490771Y-125222000D01*
X141413820Y-125222000D01*
X141293613Y-125088496D01*
X141230340Y-125042525D01*
X141152957Y-124986303D01*
X141152956Y-124986302D01*
X141147615Y-124982422D01*
X141141587Y-124979738D01*
X141141585Y-124979737D01*
X140988783Y-124911705D01*
X140988781Y-124911705D01*
X140982752Y-124909020D01*
X140894492Y-124890260D01*
X140812689Y-124872872D01*
X140812685Y-124872872D01*
X140806232Y-124871500D01*
X140625768Y-124871500D01*
X140619315Y-124872872D01*
X140619311Y-124872872D01*
X140537508Y-124890260D01*
X140449248Y-124909020D01*
X140443219Y-124911704D01*
X140443217Y-124911705D01*
X140290416Y-124979737D01*
X140290414Y-124979738D01*
X140284386Y-124982422D01*
X140279045Y-124986302D01*
X140279044Y-124986303D01*
X140143731Y-125084613D01*
X140143729Y-125084615D01*
X140138387Y-125088496D01*
X140017633Y-125222607D01*
X139927401Y-125378893D01*
X139871635Y-125550525D01*
X139852771Y-125730000D01*
X127547842Y-125730000D01*
X127545241Y-121616292D01*
X130584608Y-121616292D01*
X130614486Y-121813848D01*
X130616689Y-121819835D01*
X130616689Y-121819836D01*
X130681273Y-121995371D01*
X130683477Y-122001361D01*
X130788765Y-122171172D01*
X130926047Y-122316344D01*
X131089716Y-122430946D01*
X131273086Y-122510298D01*
X131468666Y-122551156D01*
X131473522Y-122551411D01*
X131473561Y-122551413D01*
X131473577Y-122551413D01*
X131475229Y-122551500D01*
X131621934Y-122551500D01*
X131651230Y-122548524D01*
X131764434Y-122537026D01*
X131764438Y-122537025D01*
X131770780Y-122536381D01*
X131904042Y-122494619D01*
X131955349Y-122478540D01*
X131955350Y-122478539D01*
X131961440Y-122476631D01*
X132136191Y-122379765D01*
X132263674Y-122270500D01*
X132283052Y-122253891D01*
X132283053Y-122253890D01*
X132287896Y-122249739D01*
X132291805Y-122244700D01*
X132406445Y-122096907D01*
X132406447Y-122096904D01*
X132410357Y-122091863D01*
X132427322Y-122057387D01*
X132495752Y-121918318D01*
X132498571Y-121912589D01*
X132548935Y-121719238D01*
X132559392Y-121519708D01*
X132543102Y-121412000D01*
X166268771Y-121412000D01*
X166269461Y-121418565D01*
X166280763Y-121526089D01*
X166287635Y-121591475D01*
X166343401Y-121763107D01*
X166433633Y-121919393D01*
X166554387Y-122053504D01*
X166559729Y-122057385D01*
X166559731Y-122057387D01*
X166614126Y-122096907D01*
X166700385Y-122159578D01*
X166706413Y-122162262D01*
X166706415Y-122162263D01*
X166859217Y-122230295D01*
X166865248Y-122232980D01*
X166944094Y-122249739D01*
X167035311Y-122269128D01*
X167035315Y-122269128D01*
X167041768Y-122270500D01*
X167222232Y-122270500D01*
X167228685Y-122269128D01*
X167228689Y-122269128D01*
X167319906Y-122249739D01*
X167398752Y-122232980D01*
X167404783Y-122230295D01*
X167557585Y-122162263D01*
X167557587Y-122162262D01*
X167563615Y-122159578D01*
X167649874Y-122096907D01*
X167704269Y-122057387D01*
X167704271Y-122057385D01*
X167709613Y-122053504D01*
X167830367Y-121919393D01*
X167920599Y-121763107D01*
X167976365Y-121591475D01*
X167983238Y-121526089D01*
X167994539Y-121418565D01*
X167995229Y-121412000D01*
X167976365Y-121232525D01*
X167920599Y-121060893D01*
X167830367Y-120904607D01*
X167818386Y-120891300D01*
X167714035Y-120775407D01*
X167714034Y-120775406D01*
X167709613Y-120770496D01*
X167689985Y-120756235D01*
X167568957Y-120668303D01*
X167568956Y-120668302D01*
X167563615Y-120664422D01*
X167557587Y-120661738D01*
X167557585Y-120661737D01*
X167404783Y-120593705D01*
X167404781Y-120593705D01*
X167398752Y-120591020D01*
X167310492Y-120572260D01*
X167228689Y-120554872D01*
X167228685Y-120554872D01*
X167222232Y-120553500D01*
X167041768Y-120553500D01*
X167035315Y-120554872D01*
X167035311Y-120554872D01*
X166953508Y-120572260D01*
X166865248Y-120591020D01*
X166859219Y-120593704D01*
X166859217Y-120593705D01*
X166706416Y-120661737D01*
X166706414Y-120661738D01*
X166700386Y-120664422D01*
X166695045Y-120668302D01*
X166695044Y-120668303D01*
X166559731Y-120766613D01*
X166559729Y-120766615D01*
X166554387Y-120770496D01*
X166549966Y-120775406D01*
X166549965Y-120775407D01*
X166445615Y-120891300D01*
X166433633Y-120904607D01*
X166343401Y-121060893D01*
X166287635Y-121232525D01*
X166268771Y-121412000D01*
X132543102Y-121412000D01*
X132529514Y-121322152D01*
X132460523Y-121134639D01*
X132355235Y-120964828D01*
X132217953Y-120819656D01*
X132054284Y-120705054D01*
X131870914Y-120625702D01*
X131675334Y-120584844D01*
X131670478Y-120584589D01*
X131670439Y-120584587D01*
X131670423Y-120584587D01*
X131668771Y-120584500D01*
X131522066Y-120584500D01*
X131508933Y-120585834D01*
X131379566Y-120598974D01*
X131379562Y-120598975D01*
X131373220Y-120599619D01*
X131281898Y-120628238D01*
X131188651Y-120657460D01*
X131188650Y-120657461D01*
X131182560Y-120659369D01*
X131176978Y-120662463D01*
X131176976Y-120662464D01*
X131104715Y-120702519D01*
X131007809Y-120756235D01*
X130856104Y-120886261D01*
X130852197Y-120891298D01*
X130852195Y-120891300D01*
X130737555Y-121039093D01*
X130737553Y-121039096D01*
X130733643Y-121044137D01*
X130645429Y-121223411D01*
X130595065Y-121416762D01*
X130594731Y-121423142D01*
X130585580Y-121597754D01*
X130584608Y-121616292D01*
X127545241Y-121616292D01*
X127541900Y-116332000D01*
X145307271Y-116332000D01*
X145307961Y-116338564D01*
X145307961Y-116338565D01*
X145317769Y-116431875D01*
X145326135Y-116511475D01*
X145381901Y-116683107D01*
X145385204Y-116688829D01*
X145385205Y-116688830D01*
X145417189Y-116744227D01*
X145472133Y-116839393D01*
X145592887Y-116973504D01*
X145633521Y-117003026D01*
X145676873Y-117059246D01*
X145684769Y-117118131D01*
X145674271Y-117218007D01*
X145693135Y-117397482D01*
X145748901Y-117569114D01*
X145839133Y-117725400D01*
X145959887Y-117859511D01*
X146012589Y-117897801D01*
X146055942Y-117954021D01*
X146063837Y-118012906D01*
X146058271Y-118065858D01*
X146058961Y-118072423D01*
X146075576Y-118230496D01*
X146077135Y-118245333D01*
X146132901Y-118416965D01*
X146223133Y-118573251D01*
X146343887Y-118707362D01*
X146489885Y-118813436D01*
X146495912Y-118816119D01*
X146495920Y-118816124D01*
X146526482Y-118829731D01*
X146580577Y-118875711D01*
X146600542Y-118931666D01*
X146613135Y-119051475D01*
X146668901Y-119223107D01*
X146759133Y-119379393D01*
X146879887Y-119513504D01*
X147025885Y-119619578D01*
X147031913Y-119622262D01*
X147031915Y-119622263D01*
X147184717Y-119690295D01*
X147190748Y-119692980D01*
X147279008Y-119711740D01*
X147360811Y-119729128D01*
X147360815Y-119729128D01*
X147367268Y-119730500D01*
X147547732Y-119730500D01*
X147554185Y-119729128D01*
X147554189Y-119729128D01*
X147635992Y-119711740D01*
X147724252Y-119692980D01*
X147730283Y-119690295D01*
X147883085Y-119622263D01*
X147883087Y-119622262D01*
X147889115Y-119619578D01*
X148035113Y-119513504D01*
X148155867Y-119379393D01*
X148246099Y-119223107D01*
X148301865Y-119051475D01*
X148320729Y-118872000D01*
X148303833Y-118711245D01*
X148302555Y-118699089D01*
X148302555Y-118699088D01*
X148301865Y-118692525D01*
X148246099Y-118520893D01*
X148155867Y-118364607D01*
X148035113Y-118230496D01*
X147889115Y-118124422D01*
X147883088Y-118121739D01*
X147883080Y-118121734D01*
X147852518Y-118108127D01*
X147798423Y-118062147D01*
X147778458Y-118006192D01*
X147766555Y-117892947D01*
X147766555Y-117892946D01*
X147765865Y-117886383D01*
X147710099Y-117714751D01*
X147619867Y-117558465D01*
X147499113Y-117424354D01*
X147446411Y-117386064D01*
X147403058Y-117329844D01*
X147395163Y-117270957D01*
X147400039Y-117224570D01*
X147400729Y-117218007D01*
X147393612Y-117150295D01*
X147382555Y-117045096D01*
X147382555Y-117045095D01*
X147381865Y-117038532D01*
X147326099Y-116866900D01*
X147313052Y-116844301D01*
X147239168Y-116716332D01*
X147235867Y-116710614D01*
X147115113Y-116576503D01*
X147074479Y-116546981D01*
X147031127Y-116490761D01*
X147023231Y-116431875D01*
X147033039Y-116338564D01*
X147033729Y-116332000D01*
X149504771Y-116332000D01*
X149505461Y-116338564D01*
X149505461Y-116338565D01*
X149515269Y-116431875D01*
X149523635Y-116511475D01*
X149579401Y-116683107D01*
X149582704Y-116688829D01*
X149582705Y-116688830D01*
X149614689Y-116744227D01*
X149669633Y-116839393D01*
X149790387Y-116973504D01*
X149795729Y-116977385D01*
X149795731Y-116977387D01*
X149889873Y-117045785D01*
X149936385Y-117079578D01*
X149942413Y-117082262D01*
X149942415Y-117082263D01*
X150022978Y-117118132D01*
X150101248Y-117152980D01*
X150189508Y-117171740D01*
X150271311Y-117189128D01*
X150271315Y-117189128D01*
X150277768Y-117190500D01*
X150458232Y-117190500D01*
X150464685Y-117189128D01*
X150464689Y-117189128D01*
X150546492Y-117171740D01*
X150634752Y-117152980D01*
X150713022Y-117118132D01*
X150793585Y-117082263D01*
X150793587Y-117082262D01*
X150799615Y-117079578D01*
X150846127Y-117045785D01*
X150940269Y-116977387D01*
X150940271Y-116977385D01*
X150945613Y-116973504D01*
X151066367Y-116839393D01*
X151121311Y-116744227D01*
X151153295Y-116688830D01*
X151153296Y-116688829D01*
X151156599Y-116683107D01*
X151212365Y-116511475D01*
X151220732Y-116431875D01*
X151230539Y-116338565D01*
X151230539Y-116338564D01*
X151231229Y-116332000D01*
X151212365Y-116152525D01*
X151156599Y-115980893D01*
X151066367Y-115824607D01*
X150945613Y-115690496D01*
X150912586Y-115666500D01*
X150804957Y-115588303D01*
X150804956Y-115588302D01*
X150799615Y-115584422D01*
X150793587Y-115581738D01*
X150793585Y-115581737D01*
X150640783Y-115513705D01*
X150640781Y-115513705D01*
X150634752Y-115511020D01*
X150546492Y-115492260D01*
X150464689Y-115474872D01*
X150464685Y-115474872D01*
X150458232Y-115473500D01*
X150277768Y-115473500D01*
X150271315Y-115474872D01*
X150271311Y-115474872D01*
X150189508Y-115492260D01*
X150101248Y-115511020D01*
X150095219Y-115513704D01*
X150095217Y-115513705D01*
X149942416Y-115581737D01*
X149942414Y-115581738D01*
X149936386Y-115584422D01*
X149931045Y-115588302D01*
X149931044Y-115588303D01*
X149795731Y-115686613D01*
X149795729Y-115686615D01*
X149790387Y-115690496D01*
X149669633Y-115824607D01*
X149579401Y-115980893D01*
X149523635Y-116152525D01*
X149504771Y-116332000D01*
X147033729Y-116332000D01*
X147014865Y-116152525D01*
X146959099Y-115980893D01*
X146868867Y-115824607D01*
X146748113Y-115690496D01*
X146715086Y-115666500D01*
X146607457Y-115588303D01*
X146607456Y-115588302D01*
X146602115Y-115584422D01*
X146596087Y-115581738D01*
X146596085Y-115581737D01*
X146443283Y-115513705D01*
X146443281Y-115513705D01*
X146437252Y-115511020D01*
X146348992Y-115492260D01*
X146267189Y-115474872D01*
X146267185Y-115474872D01*
X146260732Y-115473500D01*
X146080268Y-115473500D01*
X146073815Y-115474872D01*
X146073811Y-115474872D01*
X145992008Y-115492260D01*
X145903748Y-115511020D01*
X145897719Y-115513704D01*
X145897717Y-115513705D01*
X145744916Y-115581737D01*
X145744914Y-115581738D01*
X145738886Y-115584422D01*
X145733545Y-115588302D01*
X145733544Y-115588303D01*
X145598231Y-115686613D01*
X145598229Y-115686615D01*
X145592887Y-115690496D01*
X145472133Y-115824607D01*
X145381901Y-115980893D01*
X145326135Y-116152525D01*
X145307271Y-116332000D01*
X127541900Y-116332000D01*
X127540937Y-114808000D01*
X171602771Y-114808000D01*
X171621635Y-114987475D01*
X171677401Y-115159107D01*
X171767633Y-115315393D01*
X171888387Y-115449504D01*
X171893729Y-115453385D01*
X171893731Y-115453387D01*
X171923303Y-115474872D01*
X172034385Y-115555578D01*
X172040413Y-115558262D01*
X172040415Y-115558263D01*
X172099169Y-115584422D01*
X172199248Y-115628980D01*
X172287508Y-115647740D01*
X172369311Y-115665128D01*
X172369315Y-115665128D01*
X172375768Y-115666500D01*
X172556232Y-115666500D01*
X172562685Y-115665128D01*
X172562689Y-115665128D01*
X172644492Y-115647740D01*
X172732752Y-115628980D01*
X172832831Y-115584422D01*
X172891585Y-115558263D01*
X172891587Y-115558262D01*
X172897615Y-115555578D01*
X173008697Y-115474872D01*
X173038269Y-115453387D01*
X173038271Y-115453385D01*
X173043613Y-115449504D01*
X173164367Y-115315393D01*
X173254599Y-115159107D01*
X173310365Y-114987475D01*
X173329229Y-114808000D01*
X173312531Y-114649128D01*
X173311055Y-114635089D01*
X173311055Y-114635088D01*
X173310365Y-114628525D01*
X173254599Y-114456893D01*
X173164367Y-114300607D01*
X173158126Y-114293675D01*
X173048035Y-114171407D01*
X173048034Y-114171406D01*
X173043613Y-114166496D01*
X173002771Y-114136822D01*
X172902957Y-114064303D01*
X172902956Y-114064302D01*
X172897615Y-114060422D01*
X172891587Y-114057738D01*
X172891585Y-114057737D01*
X172738783Y-113989705D01*
X172738781Y-113989705D01*
X172732752Y-113987020D01*
X172628736Y-113964911D01*
X172562689Y-113950872D01*
X172562685Y-113950872D01*
X172556232Y-113949500D01*
X172375768Y-113949500D01*
X172369315Y-113950872D01*
X172369311Y-113950872D01*
X172303264Y-113964911D01*
X172199248Y-113987020D01*
X172193219Y-113989704D01*
X172193217Y-113989705D01*
X172040416Y-114057737D01*
X172040414Y-114057738D01*
X172034386Y-114060422D01*
X172029045Y-114064302D01*
X172029044Y-114064303D01*
X171893731Y-114162613D01*
X171893729Y-114162615D01*
X171888387Y-114166496D01*
X171883966Y-114171406D01*
X171883965Y-114171407D01*
X171773875Y-114293675D01*
X171767633Y-114300607D01*
X171677401Y-114456893D01*
X171621635Y-114628525D01*
X171620945Y-114635088D01*
X171620945Y-114635089D01*
X171619469Y-114649128D01*
X171602771Y-114808000D01*
X127540937Y-114808000D01*
X127538180Y-110446695D01*
X128177251Y-110446695D01*
X128177548Y-110451848D01*
X128177548Y-110451851D01*
X128183691Y-110558392D01*
X128190110Y-110669715D01*
X128191247Y-110674761D01*
X128191248Y-110674767D01*
X128211119Y-110762939D01*
X128239222Y-110887639D01*
X128289891Y-111012422D01*
X128319309Y-111084870D01*
X128323266Y-111094616D01*
X128374019Y-111177438D01*
X128423587Y-111258325D01*
X128439987Y-111285088D01*
X128586250Y-111453938D01*
X128590230Y-111457242D01*
X128594981Y-111461187D01*
X128634616Y-111520090D01*
X128636113Y-111591071D01*
X128598997Y-111651593D01*
X128558725Y-111676112D01*
X128490814Y-111701571D01*
X128443295Y-111719385D01*
X128326739Y-111806739D01*
X128239385Y-111923295D01*
X128188255Y-112059684D01*
X128181500Y-112121866D01*
X128181500Y-113918134D01*
X128188255Y-113980316D01*
X128239385Y-114116705D01*
X128326739Y-114233261D01*
X128443295Y-114320615D01*
X128579684Y-114371745D01*
X128641866Y-114378500D01*
X130438134Y-114378500D01*
X130500316Y-114371745D01*
X130636705Y-114320615D01*
X130753261Y-114233261D01*
X130840615Y-114116705D01*
X130891745Y-113980316D01*
X130898500Y-113918134D01*
X130898500Y-113792000D01*
X135280771Y-113792000D01*
X135281461Y-113798565D01*
X135294386Y-113921531D01*
X135299635Y-113971475D01*
X135301675Y-113977753D01*
X135301675Y-113977754D01*
X135304240Y-113985648D01*
X135355401Y-114143107D01*
X135445633Y-114299393D01*
X135450051Y-114304300D01*
X135450052Y-114304301D01*
X135459892Y-114315229D01*
X135566387Y-114433504D01*
X135571729Y-114437385D01*
X135571731Y-114437387D01*
X135706900Y-114535593D01*
X135712385Y-114539578D01*
X135718413Y-114542262D01*
X135718415Y-114542263D01*
X135723186Y-114544387D01*
X135877248Y-114612980D01*
X135965508Y-114631740D01*
X136047311Y-114649128D01*
X136047315Y-114649128D01*
X136053768Y-114650500D01*
X136234232Y-114650500D01*
X136240685Y-114649128D01*
X136240689Y-114649128D01*
X136322492Y-114631740D01*
X136410752Y-114612980D01*
X136564814Y-114544387D01*
X136569585Y-114542263D01*
X136569587Y-114542262D01*
X136575615Y-114539578D01*
X136581100Y-114535593D01*
X136716269Y-114437387D01*
X136716271Y-114437385D01*
X136721613Y-114433504D01*
X136828108Y-114315229D01*
X136837948Y-114304301D01*
X136837949Y-114304300D01*
X136842367Y-114299393D01*
X136932599Y-114143107D01*
X136983760Y-113985648D01*
X136986325Y-113977754D01*
X136986325Y-113977753D01*
X136988365Y-113971475D01*
X136993615Y-113921531D01*
X136995983Y-113899000D01*
X156112771Y-113899000D01*
X156113461Y-113905565D01*
X156129738Y-114060422D01*
X156131635Y-114078475D01*
X156133675Y-114084753D01*
X156133675Y-114084754D01*
X156146391Y-114123891D01*
X156187401Y-114250107D01*
X156277633Y-114406393D01*
X156398387Y-114540504D01*
X156403729Y-114544385D01*
X156403731Y-114544387D01*
X156539043Y-114642697D01*
X156544385Y-114646578D01*
X156550413Y-114649262D01*
X156550415Y-114649263D01*
X156703217Y-114717295D01*
X156709248Y-114719980D01*
X156797508Y-114738740D01*
X156879311Y-114756128D01*
X156879315Y-114756128D01*
X156885768Y-114757500D01*
X157066232Y-114757500D01*
X157072685Y-114756128D01*
X157072689Y-114756128D01*
X157154492Y-114738740D01*
X157242752Y-114719980D01*
X157248783Y-114717295D01*
X157401585Y-114649263D01*
X157401587Y-114649262D01*
X157407615Y-114646578D01*
X157412957Y-114642697D01*
X157548269Y-114544387D01*
X157548271Y-114544385D01*
X157553613Y-114540504D01*
X157674367Y-114406393D01*
X157764599Y-114250107D01*
X157805609Y-114123891D01*
X157818325Y-114084754D01*
X157818325Y-114084753D01*
X157820365Y-114078475D01*
X157822263Y-114060422D01*
X157838539Y-113905565D01*
X157839229Y-113899000D01*
X157820365Y-113719525D01*
X157764599Y-113547893D01*
X157674367Y-113391607D01*
X157616161Y-113326962D01*
X157558035Y-113262407D01*
X157558034Y-113262406D01*
X157553613Y-113257496D01*
X157498443Y-113217412D01*
X157412957Y-113155303D01*
X157412956Y-113155302D01*
X157407615Y-113151422D01*
X157401587Y-113148738D01*
X157401585Y-113148737D01*
X157248783Y-113080705D01*
X157248781Y-113080705D01*
X157242752Y-113078020D01*
X157154492Y-113059260D01*
X157072689Y-113041872D01*
X157072685Y-113041872D01*
X157066232Y-113040500D01*
X156885768Y-113040500D01*
X156879315Y-113041872D01*
X156879311Y-113041872D01*
X156797508Y-113059260D01*
X156709248Y-113078020D01*
X156703219Y-113080704D01*
X156703217Y-113080705D01*
X156550416Y-113148737D01*
X156550414Y-113148738D01*
X156544386Y-113151422D01*
X156539045Y-113155302D01*
X156539044Y-113155303D01*
X156403731Y-113253613D01*
X156403729Y-113253615D01*
X156398387Y-113257496D01*
X156393966Y-113262406D01*
X156393965Y-113262407D01*
X156335840Y-113326962D01*
X156277633Y-113391607D01*
X156187401Y-113547893D01*
X156131635Y-113719525D01*
X156112771Y-113899000D01*
X136995983Y-113899000D01*
X137006539Y-113798565D01*
X137007229Y-113792000D01*
X136988365Y-113612525D01*
X136932599Y-113440893D01*
X136842367Y-113284607D01*
X136781865Y-113217412D01*
X136726035Y-113155407D01*
X136726034Y-113155406D01*
X136721613Y-113150496D01*
X136673062Y-113115221D01*
X136580957Y-113048303D01*
X136580956Y-113048302D01*
X136575615Y-113044422D01*
X136569587Y-113041738D01*
X136569585Y-113041737D01*
X136416783Y-112973705D01*
X136416781Y-112973705D01*
X136410752Y-112971020D01*
X136322492Y-112952260D01*
X136240689Y-112934872D01*
X136240685Y-112934872D01*
X136234232Y-112933500D01*
X136053768Y-112933500D01*
X136047315Y-112934872D01*
X136047311Y-112934872D01*
X135965508Y-112952260D01*
X135877248Y-112971020D01*
X135871219Y-112973704D01*
X135871217Y-112973705D01*
X135718416Y-113041737D01*
X135718414Y-113041738D01*
X135712386Y-113044422D01*
X135707045Y-113048302D01*
X135707044Y-113048303D01*
X135571731Y-113146613D01*
X135571729Y-113146615D01*
X135566387Y-113150496D01*
X135561966Y-113155406D01*
X135561965Y-113155407D01*
X135506136Y-113217412D01*
X135445633Y-113284607D01*
X135355401Y-113440893D01*
X135299635Y-113612525D01*
X135280771Y-113792000D01*
X130898500Y-113792000D01*
X130898500Y-112121866D01*
X130891745Y-112059684D01*
X130840615Y-111923295D01*
X130753261Y-111806739D01*
X130690897Y-111760000D01*
X131470771Y-111760000D01*
X131489635Y-111939475D01*
X131545401Y-112111107D01*
X131548704Y-112116829D01*
X131548705Y-112116830D01*
X131555011Y-112127752D01*
X131635633Y-112267393D01*
X131640051Y-112272300D01*
X131640052Y-112272301D01*
X131701459Y-112340500D01*
X131756387Y-112401504D01*
X131761729Y-112405385D01*
X131761731Y-112405387D01*
X131829053Y-112454299D01*
X131902385Y-112507578D01*
X131908413Y-112510262D01*
X131908415Y-112510263D01*
X132061217Y-112578295D01*
X132067248Y-112580980D01*
X132155508Y-112599740D01*
X132237311Y-112617128D01*
X132237315Y-112617128D01*
X132243768Y-112618500D01*
X132424232Y-112618500D01*
X132430685Y-112617128D01*
X132430689Y-112617128D01*
X132512492Y-112599740D01*
X132600752Y-112580980D01*
X132606783Y-112578295D01*
X132759585Y-112510263D01*
X132759587Y-112510262D01*
X132765615Y-112507578D01*
X132817565Y-112469834D01*
X141940681Y-112469834D01*
X141941371Y-112476399D01*
X141956163Y-112617128D01*
X141959545Y-112649309D01*
X142015311Y-112820941D01*
X142105543Y-112977227D01*
X142109961Y-112982134D01*
X142109962Y-112982135D01*
X142207771Y-113090763D01*
X142226297Y-113111338D01*
X142231639Y-113115219D01*
X142231641Y-113115221D01*
X142346953Y-113199000D01*
X142372295Y-113217412D01*
X142378323Y-113220096D01*
X142378325Y-113220097D01*
X142531127Y-113288129D01*
X142537158Y-113290814D01*
X142625418Y-113309574D01*
X142707221Y-113326962D01*
X142707225Y-113326962D01*
X142713678Y-113328334D01*
X142894142Y-113328334D01*
X142900595Y-113326962D01*
X142900599Y-113326962D01*
X142982402Y-113309574D01*
X143070662Y-113290814D01*
X143076693Y-113288129D01*
X143229495Y-113220097D01*
X143229497Y-113220096D01*
X143235525Y-113217412D01*
X143260867Y-113199000D01*
X143376179Y-113115221D01*
X143376181Y-113115219D01*
X143381523Y-113111338D01*
X143400049Y-113090763D01*
X143497858Y-112982135D01*
X143497859Y-112982134D01*
X143502277Y-112977227D01*
X143592509Y-112820941D01*
X143648275Y-112649309D01*
X143651658Y-112617128D01*
X143666449Y-112476399D01*
X143667139Y-112469834D01*
X143653545Y-112340500D01*
X152298771Y-112340500D01*
X152317635Y-112519975D01*
X152319675Y-112526253D01*
X152319675Y-112526254D01*
X152337902Y-112582352D01*
X152373401Y-112691607D01*
X152463633Y-112847893D01*
X152468051Y-112852800D01*
X152468052Y-112852801D01*
X152579965Y-112977093D01*
X152584387Y-112982004D01*
X152589729Y-112985885D01*
X152589731Y-112985887D01*
X152714653Y-113076648D01*
X152730385Y-113088078D01*
X152736413Y-113090762D01*
X152736415Y-113090763D01*
X152889217Y-113158795D01*
X152895248Y-113161480D01*
X152983508Y-113180240D01*
X153065311Y-113197628D01*
X153065315Y-113197628D01*
X153071768Y-113199000D01*
X153252232Y-113199000D01*
X153258685Y-113197628D01*
X153258689Y-113197628D01*
X153340492Y-113180240D01*
X153428752Y-113161480D01*
X153434783Y-113158795D01*
X153587585Y-113090763D01*
X153587587Y-113090762D01*
X153593615Y-113088078D01*
X153609347Y-113076648D01*
X153734269Y-112985887D01*
X153734271Y-112985885D01*
X153739613Y-112982004D01*
X153744035Y-112977093D01*
X153855948Y-112852801D01*
X153855949Y-112852800D01*
X153860367Y-112847893D01*
X153950599Y-112691607D01*
X153986098Y-112582352D01*
X154004325Y-112526254D01*
X154004325Y-112526253D01*
X154006365Y-112519975D01*
X154025229Y-112340500D01*
X154020649Y-112296923D01*
X154007055Y-112167589D01*
X154007055Y-112167588D01*
X154006365Y-112161025D01*
X153950599Y-111989393D01*
X153923235Y-111941998D01*
X155096771Y-111941998D01*
X155097461Y-111948563D01*
X155101753Y-111989393D01*
X155115635Y-112121473D01*
X155171401Y-112293105D01*
X155261633Y-112449391D01*
X155266051Y-112454298D01*
X155266052Y-112454299D01*
X155377965Y-112578591D01*
X155382387Y-112583502D01*
X155387729Y-112587383D01*
X155387731Y-112587385D01*
X155522530Y-112685322D01*
X155528385Y-112689576D01*
X155534413Y-112692260D01*
X155534415Y-112692261D01*
X155687217Y-112760293D01*
X155693248Y-112762978D01*
X155781508Y-112781738D01*
X155863311Y-112799126D01*
X155863315Y-112799126D01*
X155869768Y-112800498D01*
X156050232Y-112800498D01*
X156056685Y-112799126D01*
X156056689Y-112799126D01*
X156138492Y-112781738D01*
X156226752Y-112762978D01*
X156232783Y-112760293D01*
X156385585Y-112692261D01*
X156385587Y-112692260D01*
X156391615Y-112689576D01*
X156397470Y-112685322D01*
X156532269Y-112587385D01*
X156532271Y-112587383D01*
X156537613Y-112583502D01*
X156542035Y-112578591D01*
X156653948Y-112454299D01*
X156653949Y-112454298D01*
X156658367Y-112449391D01*
X156748599Y-112293105D01*
X156804365Y-112121473D01*
X156818248Y-111989393D01*
X156822539Y-111948563D01*
X156823229Y-111941998D01*
X156804365Y-111762523D01*
X156748599Y-111590891D01*
X156658367Y-111434605D01*
X156537613Y-111300494D01*
X156521780Y-111288990D01*
X156396957Y-111198301D01*
X156396956Y-111198300D01*
X156391615Y-111194420D01*
X156385587Y-111191736D01*
X156385585Y-111191735D01*
X156232783Y-111123703D01*
X156232781Y-111123703D01*
X156226752Y-111121018D01*
X156138492Y-111102258D01*
X156056689Y-111084870D01*
X156056685Y-111084870D01*
X156050232Y-111083498D01*
X155869768Y-111083498D01*
X155863315Y-111084870D01*
X155863311Y-111084870D01*
X155781508Y-111102258D01*
X155693248Y-111121018D01*
X155687219Y-111123702D01*
X155687217Y-111123703D01*
X155534416Y-111191735D01*
X155534414Y-111191736D01*
X155528386Y-111194420D01*
X155523045Y-111198300D01*
X155523044Y-111198301D01*
X155387731Y-111296611D01*
X155387729Y-111296613D01*
X155382387Y-111300494D01*
X155261633Y-111434605D01*
X155171401Y-111590891D01*
X155115635Y-111762523D01*
X155096771Y-111941998D01*
X153923235Y-111941998D01*
X153860367Y-111833107D01*
X153833947Y-111803764D01*
X153744035Y-111703907D01*
X153744034Y-111703906D01*
X153739613Y-111698996D01*
X153706531Y-111674960D01*
X153598957Y-111596803D01*
X153598956Y-111596802D01*
X153593615Y-111592922D01*
X153587587Y-111590238D01*
X153587585Y-111590237D01*
X153434783Y-111522205D01*
X153434781Y-111522205D01*
X153428752Y-111519520D01*
X153340492Y-111500760D01*
X153258689Y-111483372D01*
X153258685Y-111483372D01*
X153252232Y-111482000D01*
X153071768Y-111482000D01*
X153065315Y-111483372D01*
X153065311Y-111483372D01*
X152983508Y-111500760D01*
X152895248Y-111519520D01*
X152889219Y-111522204D01*
X152889217Y-111522205D01*
X152736416Y-111590237D01*
X152736414Y-111590238D01*
X152730386Y-111592922D01*
X152725045Y-111596802D01*
X152725044Y-111596803D01*
X152589731Y-111695113D01*
X152589729Y-111695115D01*
X152584387Y-111698996D01*
X152579966Y-111703906D01*
X152579965Y-111703907D01*
X152490054Y-111803764D01*
X152463633Y-111833107D01*
X152373401Y-111989393D01*
X152317635Y-112161025D01*
X152316945Y-112167588D01*
X152316945Y-112167589D01*
X152303351Y-112296923D01*
X152298771Y-112340500D01*
X143653545Y-112340500D01*
X143648275Y-112290359D01*
X143592509Y-112118727D01*
X143502277Y-111962441D01*
X143481599Y-111939475D01*
X143385945Y-111833241D01*
X143385944Y-111833240D01*
X143381523Y-111828330D01*
X143356749Y-111810330D01*
X143240867Y-111726137D01*
X143240866Y-111726136D01*
X143235525Y-111722256D01*
X143229497Y-111719572D01*
X143229495Y-111719571D01*
X143076693Y-111651539D01*
X143076691Y-111651539D01*
X143070662Y-111648854D01*
X142982402Y-111630094D01*
X142900599Y-111612706D01*
X142900595Y-111612706D01*
X142894142Y-111611334D01*
X142713678Y-111611334D01*
X142707225Y-111612706D01*
X142707221Y-111612706D01*
X142625418Y-111630094D01*
X142537158Y-111648854D01*
X142531129Y-111651538D01*
X142531127Y-111651539D01*
X142378326Y-111719571D01*
X142378324Y-111719572D01*
X142372296Y-111722256D01*
X142366955Y-111726136D01*
X142366954Y-111726137D01*
X142231641Y-111824447D01*
X142231639Y-111824449D01*
X142226297Y-111828330D01*
X142221876Y-111833240D01*
X142221875Y-111833241D01*
X142126222Y-111939475D01*
X142105543Y-111962441D01*
X142015311Y-112118727D01*
X141959545Y-112290359D01*
X141940681Y-112469834D01*
X132817565Y-112469834D01*
X132838947Y-112454299D01*
X132906269Y-112405387D01*
X132906271Y-112405385D01*
X132911613Y-112401504D01*
X132966541Y-112340500D01*
X133027948Y-112272301D01*
X133027949Y-112272300D01*
X133032367Y-112267393D01*
X133112989Y-112127752D01*
X133119295Y-112116830D01*
X133119296Y-112116829D01*
X133122599Y-112111107D01*
X133178365Y-111939475D01*
X133197229Y-111760000D01*
X133185829Y-111651539D01*
X133179055Y-111587089D01*
X133179055Y-111587088D01*
X133178365Y-111580525D01*
X133158544Y-111519520D01*
X133130953Y-111434605D01*
X133122599Y-111408893D01*
X133032367Y-111252607D01*
X132916302Y-111123703D01*
X132916035Y-111123407D01*
X132916034Y-111123406D01*
X132911613Y-111118496D01*
X132878746Y-111094616D01*
X132770957Y-111016303D01*
X132770956Y-111016302D01*
X132765615Y-111012422D01*
X132759587Y-111009738D01*
X132759585Y-111009737D01*
X132606783Y-110941705D01*
X132606781Y-110941705D01*
X132600752Y-110939020D01*
X132512492Y-110920260D01*
X132430689Y-110902872D01*
X132430685Y-110902872D01*
X132424232Y-110901500D01*
X132243768Y-110901500D01*
X132237315Y-110902872D01*
X132237311Y-110902872D01*
X132155508Y-110920260D01*
X132067248Y-110939020D01*
X132061219Y-110941704D01*
X132061217Y-110941705D01*
X131908416Y-111009737D01*
X131908414Y-111009738D01*
X131902386Y-111012422D01*
X131897045Y-111016302D01*
X131897044Y-111016303D01*
X131761731Y-111114613D01*
X131761729Y-111114615D01*
X131756387Y-111118496D01*
X131751966Y-111123406D01*
X131751965Y-111123407D01*
X131751699Y-111123703D01*
X131635633Y-111252607D01*
X131545401Y-111408893D01*
X131537047Y-111434605D01*
X131509457Y-111519520D01*
X131489635Y-111580525D01*
X131488945Y-111587088D01*
X131488945Y-111587089D01*
X131482171Y-111651539D01*
X131470771Y-111760000D01*
X130690897Y-111760000D01*
X130636705Y-111719385D01*
X130595418Y-111703907D01*
X130518203Y-111674960D01*
X130461439Y-111632318D01*
X130436739Y-111565756D01*
X130451947Y-111496408D01*
X130473493Y-111467727D01*
X130574435Y-111367137D01*
X130578096Y-111363489D01*
X130626153Y-111296611D01*
X130705435Y-111186277D01*
X130708453Y-111182077D01*
X130737450Y-111123407D01*
X130805136Y-110986453D01*
X130805137Y-110986451D01*
X130807430Y-110981811D01*
X130872370Y-110768069D01*
X130901529Y-110546590D01*
X130903156Y-110480000D01*
X130884852Y-110257361D01*
X130830431Y-110040702D01*
X130741354Y-109835840D01*
X130669275Y-109724423D01*
X130622822Y-109652617D01*
X130622820Y-109652614D01*
X130620014Y-109648277D01*
X130469670Y-109483051D01*
X130465619Y-109479852D01*
X130465615Y-109479848D01*
X130458210Y-109474000D01*
X131470771Y-109474000D01*
X131471461Y-109480565D01*
X131483990Y-109599763D01*
X131489635Y-109653475D01*
X131545401Y-109825107D01*
X131635633Y-109981393D01*
X131640048Y-109986296D01*
X131640052Y-109986301D01*
X131711987Y-110066193D01*
X131756387Y-110115504D01*
X131761729Y-110119385D01*
X131761731Y-110119387D01*
X131897043Y-110217697D01*
X131902385Y-110221578D01*
X131908413Y-110224262D01*
X131908415Y-110224263D01*
X131994346Y-110262522D01*
X132067248Y-110294980D01*
X132155508Y-110313740D01*
X132237311Y-110331128D01*
X132237315Y-110331128D01*
X132243768Y-110332500D01*
X132424232Y-110332500D01*
X132430685Y-110331128D01*
X132430689Y-110331128D01*
X132512492Y-110313740D01*
X132565791Y-110302411D01*
X145761182Y-110302411D01*
X145761872Y-110308976D01*
X145773907Y-110423474D01*
X145780046Y-110481886D01*
X145835812Y-110653518D01*
X145839115Y-110659240D01*
X145839116Y-110659241D01*
X145845163Y-110669715D01*
X145926044Y-110809804D01*
X146046798Y-110943915D01*
X146052140Y-110947796D01*
X146052142Y-110947798D01*
X146146431Y-111016303D01*
X146192796Y-111049989D01*
X146198824Y-111052673D01*
X146198826Y-111052674D01*
X146351628Y-111120706D01*
X146357659Y-111123391D01*
X146445919Y-111142151D01*
X146527722Y-111159539D01*
X146527726Y-111159539D01*
X146534179Y-111160911D01*
X146714643Y-111160911D01*
X146721096Y-111159539D01*
X146721100Y-111159539D01*
X146802903Y-111142151D01*
X146891163Y-111123391D01*
X146897194Y-111120706D01*
X147049996Y-111052674D01*
X147049998Y-111052673D01*
X147056026Y-111049989D01*
X147102391Y-111016303D01*
X147196680Y-110947798D01*
X147196682Y-110947796D01*
X147202024Y-110943915D01*
X147322778Y-110809804D01*
X147403659Y-110669715D01*
X147409706Y-110659241D01*
X147409707Y-110659240D01*
X147413010Y-110653518D01*
X147468776Y-110481886D01*
X147474916Y-110423474D01*
X147486950Y-110308976D01*
X147487640Y-110302411D01*
X147486577Y-110292295D01*
X147470153Y-110136031D01*
X147482925Y-110066193D01*
X147531427Y-110014346D01*
X147600260Y-109996952D01*
X147667570Y-110019533D01*
X147689091Y-110038543D01*
X147758387Y-110115504D01*
X147763729Y-110119385D01*
X147763731Y-110119387D01*
X147899043Y-110217697D01*
X147904385Y-110221578D01*
X147910413Y-110224262D01*
X147910415Y-110224263D01*
X147996346Y-110262522D01*
X148069248Y-110294980D01*
X148157508Y-110313740D01*
X148239311Y-110331128D01*
X148239315Y-110331128D01*
X148245768Y-110332500D01*
X148359075Y-110332500D01*
X148427196Y-110352502D01*
X148473689Y-110406158D01*
X148483793Y-110476432D01*
X148452710Y-110542810D01*
X148443829Y-110552674D01*
X148353597Y-110708960D01*
X148297831Y-110880592D01*
X148297141Y-110887155D01*
X148297141Y-110887156D01*
X148291690Y-110939020D01*
X148278967Y-111060067D01*
X148297831Y-111239542D01*
X148353597Y-111411174D01*
X148443829Y-111567460D01*
X148448247Y-111572367D01*
X148448248Y-111572368D01*
X148528503Y-111661500D01*
X148564583Y-111701571D01*
X148569925Y-111705452D01*
X148569927Y-111705454D01*
X148705239Y-111803764D01*
X148710581Y-111807645D01*
X148716609Y-111810329D01*
X148716611Y-111810330D01*
X148757040Y-111828330D01*
X148875444Y-111881047D01*
X148963704Y-111899807D01*
X149045507Y-111917195D01*
X149045511Y-111917195D01*
X149051964Y-111918567D01*
X149232428Y-111918567D01*
X149238881Y-111917195D01*
X149238885Y-111917195D01*
X149320688Y-111899807D01*
X149408948Y-111881047D01*
X149527352Y-111828330D01*
X149567781Y-111810330D01*
X149567783Y-111810329D01*
X149573811Y-111807645D01*
X149579153Y-111803764D01*
X149714465Y-111705454D01*
X149714467Y-111705452D01*
X149719809Y-111701571D01*
X149755889Y-111661500D01*
X149836144Y-111572368D01*
X149836145Y-111572367D01*
X149840563Y-111567460D01*
X149930795Y-111411174D01*
X149986561Y-111239542D01*
X150005425Y-111060067D01*
X149992702Y-110939020D01*
X149987251Y-110887156D01*
X149987251Y-110887155D01*
X149986561Y-110880592D01*
X149930795Y-110708960D01*
X149840563Y-110552674D01*
X149771915Y-110476432D01*
X149724231Y-110423474D01*
X149724230Y-110423473D01*
X149719809Y-110418563D01*
X149599466Y-110331128D01*
X149579153Y-110316370D01*
X149579152Y-110316369D01*
X149573811Y-110312489D01*
X149567783Y-110309805D01*
X149567781Y-110309804D01*
X149414979Y-110241772D01*
X149414977Y-110241772D01*
X149408948Y-110239087D01*
X149308315Y-110217697D01*
X149238885Y-110202939D01*
X149238881Y-110202939D01*
X149232428Y-110201567D01*
X149119121Y-110201567D01*
X149051000Y-110181565D01*
X149004507Y-110127909D01*
X148994403Y-110057635D01*
X149025486Y-109991257D01*
X149034367Y-109981393D01*
X149124599Y-109825107D01*
X149180365Y-109653475D01*
X149186011Y-109599763D01*
X149198539Y-109480565D01*
X149199229Y-109474000D01*
X152298771Y-109474000D01*
X152299461Y-109480565D01*
X152311990Y-109599763D01*
X152317635Y-109653475D01*
X152373401Y-109825107D01*
X152463633Y-109981393D01*
X152468048Y-109986296D01*
X152468052Y-109986301D01*
X152539987Y-110066193D01*
X152584387Y-110115504D01*
X152589729Y-110119385D01*
X152589731Y-110119387D01*
X152725043Y-110217697D01*
X152730385Y-110221578D01*
X152736413Y-110224262D01*
X152736415Y-110224263D01*
X152822346Y-110262522D01*
X152895248Y-110294980D01*
X152983508Y-110313740D01*
X153065311Y-110331128D01*
X153065315Y-110331128D01*
X153071768Y-110332500D01*
X153252232Y-110332500D01*
X153258685Y-110331128D01*
X153258689Y-110331128D01*
X153340492Y-110313740D01*
X153428752Y-110294980D01*
X153501654Y-110262522D01*
X153587585Y-110224263D01*
X153587587Y-110224262D01*
X153593615Y-110221578D01*
X153598957Y-110217697D01*
X153734269Y-110119387D01*
X153734271Y-110119385D01*
X153739613Y-110115504D01*
X153784013Y-110066193D01*
X153855948Y-109986301D01*
X153855952Y-109986296D01*
X153860367Y-109981393D01*
X153950599Y-109825107D01*
X153960376Y-109795018D01*
X153964271Y-109783029D01*
X154004344Y-109724423D01*
X154057907Y-109698717D01*
X154106571Y-109688373D01*
X154190752Y-109670480D01*
X154201223Y-109665818D01*
X154349585Y-109599763D01*
X154349587Y-109599762D01*
X154355615Y-109597078D01*
X154360957Y-109593197D01*
X154496269Y-109494887D01*
X154496271Y-109494885D01*
X154501613Y-109491004D01*
X154510233Y-109481431D01*
X154617948Y-109361801D01*
X154617949Y-109361800D01*
X154622367Y-109356893D01*
X154677311Y-109261727D01*
X154709295Y-109206330D01*
X154709296Y-109206329D01*
X154712599Y-109200607D01*
X154723447Y-109167220D01*
X154763518Y-109108617D01*
X154817082Y-109082911D01*
X154885384Y-109068394D01*
X154984375Y-109047353D01*
X154984378Y-109047352D01*
X154990833Y-109045980D01*
X155129658Y-108984171D01*
X155149666Y-108975263D01*
X155149668Y-108975262D01*
X155155696Y-108972578D01*
X155161038Y-108968697D01*
X155296350Y-108870387D01*
X155296352Y-108870385D01*
X155301694Y-108866504D01*
X155407504Y-108748990D01*
X155418029Y-108737301D01*
X155418030Y-108737300D01*
X155422448Y-108732393D01*
X155512680Y-108576107D01*
X155568446Y-108404475D01*
X155587310Y-108225000D01*
X155574374Y-108101922D01*
X155569136Y-108052089D01*
X155569136Y-108052088D01*
X155568446Y-108045525D01*
X155556874Y-108009908D01*
X155537409Y-107950000D01*
X168300771Y-107950000D01*
X168319635Y-108129475D01*
X168375401Y-108301107D01*
X168465633Y-108457393D01*
X168470051Y-108462300D01*
X168470052Y-108462301D01*
X168508210Y-108504680D01*
X168586387Y-108591504D01*
X168591729Y-108595385D01*
X168591731Y-108595387D01*
X168661775Y-108646277D01*
X168732385Y-108697578D01*
X168738413Y-108700262D01*
X168738415Y-108700263D01*
X168891217Y-108768295D01*
X168897248Y-108770980D01*
X168985508Y-108789740D01*
X169067311Y-108807128D01*
X169067315Y-108807128D01*
X169073768Y-108808500D01*
X169254232Y-108808500D01*
X169260685Y-108807128D01*
X169260689Y-108807128D01*
X169342492Y-108789740D01*
X169430752Y-108770980D01*
X169436783Y-108768295D01*
X169589585Y-108700263D01*
X169589587Y-108700262D01*
X169595615Y-108697578D01*
X169666225Y-108646277D01*
X169736269Y-108595387D01*
X169736271Y-108595385D01*
X169741613Y-108591504D01*
X169819790Y-108504680D01*
X169857948Y-108462301D01*
X169857949Y-108462300D01*
X169862367Y-108457393D01*
X169952599Y-108301107D01*
X170008365Y-108129475D01*
X170027229Y-107950000D01*
X170008365Y-107770525D01*
X169952599Y-107598893D01*
X169862367Y-107442607D01*
X169856126Y-107435675D01*
X169746035Y-107313407D01*
X169746034Y-107313406D01*
X169741613Y-107308496D01*
X169730732Y-107300590D01*
X169600957Y-107206303D01*
X169600956Y-107206302D01*
X169595615Y-107202422D01*
X169589587Y-107199738D01*
X169589585Y-107199737D01*
X169436783Y-107131705D01*
X169436781Y-107131705D01*
X169430752Y-107129020D01*
X169315191Y-107104457D01*
X169260689Y-107092872D01*
X169260685Y-107092872D01*
X169254232Y-107091500D01*
X169073768Y-107091500D01*
X169067315Y-107092872D01*
X169067311Y-107092872D01*
X169012809Y-107104457D01*
X168897248Y-107129020D01*
X168891219Y-107131704D01*
X168891217Y-107131705D01*
X168738416Y-107199737D01*
X168738414Y-107199738D01*
X168732386Y-107202422D01*
X168727045Y-107206302D01*
X168727044Y-107206303D01*
X168591731Y-107304613D01*
X168591729Y-107304615D01*
X168586387Y-107308496D01*
X168581966Y-107313406D01*
X168581965Y-107313407D01*
X168471875Y-107435675D01*
X168465633Y-107442607D01*
X168375401Y-107598893D01*
X168319635Y-107770525D01*
X168300771Y-107950000D01*
X155537409Y-107950000D01*
X155514722Y-107880178D01*
X155512680Y-107873893D01*
X155422448Y-107717607D01*
X155417708Y-107712342D01*
X155306116Y-107588407D01*
X155306115Y-107588406D01*
X155301694Y-107583496D01*
X155296039Y-107579387D01*
X155161038Y-107481303D01*
X155161037Y-107481302D01*
X155155696Y-107477422D01*
X155149668Y-107474738D01*
X155149666Y-107474737D01*
X154996864Y-107406705D01*
X154996862Y-107406705D01*
X154990833Y-107404020D01*
X154902573Y-107385260D01*
X154820770Y-107367872D01*
X154820766Y-107367872D01*
X154814313Y-107366500D01*
X154633849Y-107366500D01*
X154627396Y-107367872D01*
X154627392Y-107367872D01*
X154545589Y-107385260D01*
X154457329Y-107404020D01*
X154451300Y-107406704D01*
X154451298Y-107406705D01*
X154298497Y-107474737D01*
X154298495Y-107474738D01*
X154292467Y-107477422D01*
X154287126Y-107481302D01*
X154287125Y-107481303D01*
X154151812Y-107579613D01*
X154151810Y-107579615D01*
X154146468Y-107583496D01*
X154142047Y-107588406D01*
X154142046Y-107588407D01*
X154030455Y-107712342D01*
X154025714Y-107717607D01*
X153935482Y-107873893D01*
X153924634Y-107907280D01*
X153884563Y-107965883D01*
X153830999Y-107991589D01*
X153776183Y-108003240D01*
X153663706Y-108027147D01*
X153663703Y-108027148D01*
X153657248Y-108028520D01*
X153651219Y-108031204D01*
X153651217Y-108031205D01*
X153498416Y-108099237D01*
X153498414Y-108099238D01*
X153492386Y-108101922D01*
X153487045Y-108105802D01*
X153487044Y-108105803D01*
X153351731Y-108204113D01*
X153351729Y-108204115D01*
X153346387Y-108207996D01*
X153341966Y-108212906D01*
X153341965Y-108212907D01*
X153257397Y-108306830D01*
X153225633Y-108342107D01*
X153135401Y-108498393D01*
X153133359Y-108504678D01*
X153133358Y-108504680D01*
X153121729Y-108540471D01*
X153081656Y-108599077D01*
X153028093Y-108624783D01*
X152979429Y-108635127D01*
X152895248Y-108653020D01*
X152889219Y-108655704D01*
X152889217Y-108655705D01*
X152736416Y-108723737D01*
X152736414Y-108723738D01*
X152730386Y-108726422D01*
X152725045Y-108730302D01*
X152725044Y-108730303D01*
X152589731Y-108828613D01*
X152589729Y-108828615D01*
X152584387Y-108832496D01*
X152463633Y-108966607D01*
X152373401Y-109122893D01*
X152358310Y-109169338D01*
X152320188Y-109286669D01*
X152317635Y-109294525D01*
X152316945Y-109301088D01*
X152316945Y-109301089D01*
X152314525Y-109324118D01*
X152298771Y-109474000D01*
X149199229Y-109474000D01*
X149183475Y-109324118D01*
X149181055Y-109301089D01*
X149181055Y-109301088D01*
X149180365Y-109294525D01*
X149177813Y-109286669D01*
X149139690Y-109169338D01*
X149124599Y-109122893D01*
X149034367Y-108966607D01*
X148913613Y-108832496D01*
X148895440Y-108819292D01*
X148772957Y-108730303D01*
X148772956Y-108730302D01*
X148767615Y-108726422D01*
X148761587Y-108723738D01*
X148761585Y-108723737D01*
X148608783Y-108655705D01*
X148608781Y-108655705D01*
X148602752Y-108653020D01*
X148514492Y-108634260D01*
X148432689Y-108616872D01*
X148432685Y-108616872D01*
X148426232Y-108615500D01*
X148245768Y-108615500D01*
X148239315Y-108616872D01*
X148239311Y-108616872D01*
X148157508Y-108634260D01*
X148069248Y-108653020D01*
X148063219Y-108655704D01*
X148063217Y-108655705D01*
X147910416Y-108723737D01*
X147910414Y-108723738D01*
X147904386Y-108726422D01*
X147899045Y-108730302D01*
X147899044Y-108730303D01*
X147763731Y-108828613D01*
X147763729Y-108828615D01*
X147758387Y-108832496D01*
X147637633Y-108966607D01*
X147547401Y-109122893D01*
X147532310Y-109169338D01*
X147494188Y-109286669D01*
X147491635Y-109294525D01*
X147490945Y-109301088D01*
X147490945Y-109301089D01*
X147488525Y-109324118D01*
X147472771Y-109474000D01*
X147473461Y-109480565D01*
X147473461Y-109480566D01*
X147490258Y-109640380D01*
X147477486Y-109710218D01*
X147428984Y-109762065D01*
X147360151Y-109779459D01*
X147292841Y-109756878D01*
X147271320Y-109737868D01*
X147202024Y-109660907D01*
X147184641Y-109648277D01*
X147061368Y-109558714D01*
X147061367Y-109558713D01*
X147056026Y-109554833D01*
X147049998Y-109552149D01*
X147049996Y-109552148D01*
X146897194Y-109484116D01*
X146897192Y-109484116D01*
X146891163Y-109481431D01*
X146802903Y-109462671D01*
X146721100Y-109445283D01*
X146721096Y-109445283D01*
X146714643Y-109443911D01*
X146534179Y-109443911D01*
X146527726Y-109445283D01*
X146527722Y-109445283D01*
X146445919Y-109462671D01*
X146357659Y-109481431D01*
X146351630Y-109484115D01*
X146351628Y-109484116D01*
X146198827Y-109552148D01*
X146198825Y-109552149D01*
X146192797Y-109554833D01*
X146187456Y-109558713D01*
X146187455Y-109558714D01*
X146052142Y-109657024D01*
X146052140Y-109657026D01*
X146046798Y-109660907D01*
X145926044Y-109795018D01*
X145835812Y-109951304D01*
X145780046Y-110122936D01*
X145761182Y-110302411D01*
X132565791Y-110302411D01*
X132600752Y-110294980D01*
X132673654Y-110262522D01*
X132759585Y-110224263D01*
X132759587Y-110224262D01*
X132765615Y-110221578D01*
X132770957Y-110217697D01*
X132906269Y-110119387D01*
X132906271Y-110119385D01*
X132911613Y-110115504D01*
X132956013Y-110066193D01*
X133027948Y-109986301D01*
X133027952Y-109986296D01*
X133032367Y-109981393D01*
X133122599Y-109825107D01*
X133178365Y-109653475D01*
X133184011Y-109599763D01*
X133196539Y-109480565D01*
X133197229Y-109474000D01*
X133181475Y-109324118D01*
X133179055Y-109301089D01*
X133179055Y-109301088D01*
X133178365Y-109294525D01*
X133175813Y-109286669D01*
X133137690Y-109169338D01*
X133122599Y-109122893D01*
X133032367Y-108966607D01*
X132911613Y-108832496D01*
X132893440Y-108819292D01*
X132770957Y-108730303D01*
X132770956Y-108730302D01*
X132765615Y-108726422D01*
X132759587Y-108723738D01*
X132759585Y-108723737D01*
X132606783Y-108655705D01*
X132606781Y-108655705D01*
X132600752Y-108653020D01*
X132512492Y-108634260D01*
X132430689Y-108616872D01*
X132430685Y-108616872D01*
X132424232Y-108615500D01*
X132243768Y-108615500D01*
X132237315Y-108616872D01*
X132237311Y-108616872D01*
X132155508Y-108634260D01*
X132067248Y-108653020D01*
X132061219Y-108655704D01*
X132061217Y-108655705D01*
X131908416Y-108723737D01*
X131908414Y-108723738D01*
X131902386Y-108726422D01*
X131897045Y-108730302D01*
X131897044Y-108730303D01*
X131761731Y-108828613D01*
X131761729Y-108828615D01*
X131756387Y-108832496D01*
X131635633Y-108966607D01*
X131545401Y-109122893D01*
X131530310Y-109169338D01*
X131492188Y-109286669D01*
X131489635Y-109294525D01*
X131488945Y-109301088D01*
X131488945Y-109301089D01*
X131486525Y-109324118D01*
X131470771Y-109474000D01*
X130458210Y-109474000D01*
X130298414Y-109347800D01*
X130298410Y-109347798D01*
X130294359Y-109344598D01*
X130253053Y-109321796D01*
X130203084Y-109271364D01*
X130188312Y-109201921D01*
X130213428Y-109135516D01*
X130240780Y-109108909D01*
X130284603Y-109077650D01*
X130419860Y-108981173D01*
X130578096Y-108823489D01*
X130614842Y-108772352D01*
X130705435Y-108646277D01*
X130708453Y-108642077D01*
X130731529Y-108595387D01*
X130805136Y-108446453D01*
X130805137Y-108446451D01*
X130807430Y-108441811D01*
X130839900Y-108334940D01*
X130870865Y-108233023D01*
X130870865Y-108233021D01*
X130872370Y-108228069D01*
X130901529Y-108006590D01*
X130903156Y-107940000D01*
X130884852Y-107717361D01*
X130830431Y-107500702D01*
X130741354Y-107295840D01*
X130679182Y-107199737D01*
X130622822Y-107112617D01*
X130622820Y-107112614D01*
X130620014Y-107108277D01*
X130469670Y-106943051D01*
X130465619Y-106939852D01*
X130465615Y-106939848D01*
X130298414Y-106807800D01*
X130298410Y-106807798D01*
X130294359Y-106804598D01*
X130252569Y-106781529D01*
X130202598Y-106731097D01*
X130187826Y-106661654D01*
X130212942Y-106595248D01*
X130240294Y-106568641D01*
X130415328Y-106443792D01*
X130423200Y-106437139D01*
X130574052Y-106286812D01*
X130580730Y-106278965D01*
X130705003Y-106106020D01*
X130710313Y-106097183D01*
X130804670Y-105906267D01*
X130808469Y-105896672D01*
X130870377Y-105692910D01*
X130872555Y-105682837D01*
X130873986Y-105671962D01*
X130871775Y-105657778D01*
X130858617Y-105654000D01*
X128223225Y-105654000D01*
X128209694Y-105657973D01*
X128208257Y-105667966D01*
X128238565Y-105802446D01*
X128241645Y-105812275D01*
X128321770Y-106009603D01*
X128326413Y-106018794D01*
X128437694Y-106200388D01*
X128443777Y-106208699D01*
X128583213Y-106369667D01*
X128590580Y-106376883D01*
X128754434Y-106512916D01*
X128762881Y-106518831D01*
X128831969Y-106559203D01*
X128880693Y-106610842D01*
X128893764Y-106680625D01*
X128867033Y-106746396D01*
X128826584Y-106779752D01*
X128813607Y-106786507D01*
X128809474Y-106789610D01*
X128809471Y-106789612D01*
X128639100Y-106917530D01*
X128634965Y-106920635D01*
X128480629Y-107082138D01*
X128354743Y-107266680D01*
X128339003Y-107300590D01*
X128270427Y-107448325D01*
X128260688Y-107469305D01*
X128200989Y-107684570D01*
X128177251Y-107906695D01*
X128177548Y-107911848D01*
X128177548Y-107911851D01*
X128183011Y-108006590D01*
X128190110Y-108129715D01*
X128191247Y-108134761D01*
X128191248Y-108134767D01*
X128208858Y-108212907D01*
X128239222Y-108347639D01*
X128323266Y-108554616D01*
X128350512Y-108599077D01*
X128432208Y-108732393D01*
X128439987Y-108745088D01*
X128586250Y-108913938D01*
X128758126Y-109056632D01*
X128803097Y-109082911D01*
X128831445Y-109099476D01*
X128880169Y-109151114D01*
X128893240Y-109220897D01*
X128866509Y-109286669D01*
X128826055Y-109320027D01*
X128813607Y-109326507D01*
X128809474Y-109329610D01*
X128809471Y-109329612D01*
X128639100Y-109457530D01*
X128634965Y-109460635D01*
X128480629Y-109622138D01*
X128477715Y-109626410D01*
X128477714Y-109626411D01*
X128449484Y-109667795D01*
X128354743Y-109806680D01*
X128339003Y-109840590D01*
X128284694Y-109957589D01*
X128260688Y-110009305D01*
X128200989Y-110224570D01*
X128177251Y-110446695D01*
X127538180Y-110446695D01*
X127534835Y-105156000D01*
X137820771Y-105156000D01*
X137821461Y-105162565D01*
X137835606Y-105297138D01*
X137839635Y-105335475D01*
X137895401Y-105507107D01*
X137985633Y-105663393D01*
X137990051Y-105668300D01*
X137990052Y-105668301D01*
X138003140Y-105682837D01*
X138106387Y-105797504D01*
X138111729Y-105801385D01*
X138111731Y-105801387D01*
X138247043Y-105899697D01*
X138252385Y-105903578D01*
X138258413Y-105906262D01*
X138258415Y-105906263D01*
X138411217Y-105974295D01*
X138417248Y-105976980D01*
X138505508Y-105995740D01*
X138587311Y-106013128D01*
X138587315Y-106013128D01*
X138593768Y-106014500D01*
X138774232Y-106014500D01*
X138780685Y-106013128D01*
X138780689Y-106013128D01*
X138862492Y-105995740D01*
X138950752Y-105976980D01*
X138956783Y-105974295D01*
X139109585Y-105906263D01*
X139109587Y-105906262D01*
X139115615Y-105903578D01*
X139120957Y-105899697D01*
X139256269Y-105801387D01*
X139256271Y-105801385D01*
X139261613Y-105797504D01*
X139364860Y-105682837D01*
X139377948Y-105668301D01*
X139377949Y-105668300D01*
X139382367Y-105663393D01*
X139472599Y-105507107D01*
X139482573Y-105476411D01*
X145253182Y-105476411D01*
X145272046Y-105655886D01*
X145274086Y-105662164D01*
X145274086Y-105662165D01*
X145293846Y-105722980D01*
X145327812Y-105827518D01*
X145418044Y-105983804D01*
X145422462Y-105988711D01*
X145422463Y-105988712D01*
X145528088Y-106106020D01*
X145538798Y-106117915D01*
X145544140Y-106121796D01*
X145544142Y-106121798D01*
X145652312Y-106200388D01*
X145684796Y-106223989D01*
X145690824Y-106226673D01*
X145690826Y-106226674D01*
X145843626Y-106294705D01*
X145849659Y-106297391D01*
X145937919Y-106316151D01*
X146019722Y-106333539D01*
X146019726Y-106333539D01*
X146026179Y-106334911D01*
X146206643Y-106334911D01*
X146213096Y-106333539D01*
X146213100Y-106333539D01*
X146294903Y-106316151D01*
X146383163Y-106297391D01*
X146389190Y-106294708D01*
X146389198Y-106294705D01*
X146419337Y-106281286D01*
X146489704Y-106271852D01*
X146554001Y-106301959D01*
X146591814Y-106362048D01*
X146591137Y-106433041D01*
X146579704Y-106459393D01*
X146508401Y-106582893D01*
X146452635Y-106754525D01*
X146433771Y-106934000D01*
X146452635Y-107113475D01*
X146508401Y-107285107D01*
X146598633Y-107441393D01*
X146603051Y-107446300D01*
X146603052Y-107446301D01*
X146634568Y-107481303D01*
X146719387Y-107575504D01*
X146724729Y-107579385D01*
X146724731Y-107579387D01*
X146860043Y-107677697D01*
X146865385Y-107681578D01*
X146871413Y-107684262D01*
X146871415Y-107684263D01*
X147024217Y-107752295D01*
X147030248Y-107754980D01*
X147118508Y-107773740D01*
X147200311Y-107791128D01*
X147200315Y-107791128D01*
X147206768Y-107792500D01*
X147387232Y-107792500D01*
X147393685Y-107791128D01*
X147393689Y-107791128D01*
X147475492Y-107773740D01*
X147563752Y-107754980D01*
X147569783Y-107752295D01*
X147722585Y-107684263D01*
X147722587Y-107684262D01*
X147728615Y-107681578D01*
X147733957Y-107677697D01*
X147869269Y-107579387D01*
X147869271Y-107579385D01*
X147874613Y-107575504D01*
X147959432Y-107481303D01*
X147990948Y-107446301D01*
X147990949Y-107446300D01*
X147995367Y-107441393D01*
X148085599Y-107285107D01*
X148141365Y-107113475D01*
X148158485Y-106950596D01*
X148185499Y-106884939D01*
X148232546Y-106848660D01*
X148347085Y-106797664D01*
X148347087Y-106797663D01*
X148353115Y-106794979D01*
X148368056Y-106784124D01*
X148493769Y-106692788D01*
X148493771Y-106692786D01*
X148499113Y-106688905D01*
X148503535Y-106683994D01*
X148615448Y-106559702D01*
X148615449Y-106559701D01*
X148619867Y-106554794D01*
X148710099Y-106398508D01*
X148748186Y-106281286D01*
X148763825Y-106233155D01*
X148763825Y-106233154D01*
X148765865Y-106226876D01*
X148784729Y-106047401D01*
X148778045Y-105983804D01*
X148766555Y-105874490D01*
X148766555Y-105874489D01*
X148765865Y-105867926D01*
X148744590Y-105802446D01*
X148712141Y-105702579D01*
X148710099Y-105696294D01*
X148685681Y-105654000D01*
X148623168Y-105545726D01*
X148619867Y-105540008D01*
X148499113Y-105405897D01*
X148353115Y-105299823D01*
X148347087Y-105297139D01*
X148347085Y-105297138D01*
X148194283Y-105229106D01*
X148194281Y-105229106D01*
X148188252Y-105226421D01*
X148099992Y-105207661D01*
X148018189Y-105190273D01*
X148018185Y-105190273D01*
X148011732Y-105188901D01*
X147892409Y-105188901D01*
X147824288Y-105168899D01*
X147777795Y-105115243D01*
X147767099Y-105049730D01*
X147776099Y-104964110D01*
X147782627Y-104902000D01*
X152298771Y-104902000D01*
X152317635Y-105081475D01*
X152373401Y-105253107D01*
X152376704Y-105258829D01*
X152376705Y-105258830D01*
X152398706Y-105296936D01*
X152463633Y-105409393D01*
X152584387Y-105543504D01*
X152730385Y-105649578D01*
X152736413Y-105652262D01*
X152736415Y-105652263D01*
X152889217Y-105720295D01*
X152895248Y-105722980D01*
X152977674Y-105740500D01*
X153065311Y-105759128D01*
X153065315Y-105759128D01*
X153071768Y-105760500D01*
X153252232Y-105760500D01*
X153258685Y-105759128D01*
X153258689Y-105759128D01*
X153346326Y-105740500D01*
X153428752Y-105722980D01*
X153434783Y-105720295D01*
X153587585Y-105652263D01*
X153587587Y-105652262D01*
X153593615Y-105649578D01*
X153739613Y-105543504D01*
X153860367Y-105409393D01*
X153925294Y-105296936D01*
X153947295Y-105258830D01*
X153947296Y-105258829D01*
X153950599Y-105253107D01*
X154006365Y-105081475D01*
X154025229Y-104902000D01*
X154006365Y-104722525D01*
X154002000Y-104709089D01*
X153952641Y-104557178D01*
X153950599Y-104550893D01*
X153945531Y-104542114D01*
X153868343Y-104408422D01*
X153860367Y-104394607D01*
X153847508Y-104380325D01*
X153744035Y-104265407D01*
X153744034Y-104265406D01*
X153739613Y-104260496D01*
X153725217Y-104250036D01*
X153598957Y-104158303D01*
X153598956Y-104158302D01*
X153593615Y-104154422D01*
X153587587Y-104151738D01*
X153587585Y-104151737D01*
X153561223Y-104140000D01*
X155600771Y-104140000D01*
X155601461Y-104146565D01*
X155612337Y-104250036D01*
X155619635Y-104319475D01*
X155675401Y-104491107D01*
X155678704Y-104496829D01*
X155678705Y-104496830D01*
X155702000Y-104537178D01*
X155765633Y-104647393D01*
X155770051Y-104652300D01*
X155770052Y-104652301D01*
X155772870Y-104655431D01*
X155886387Y-104781504D01*
X155891729Y-104785385D01*
X155891731Y-104785387D01*
X156027043Y-104883697D01*
X156032385Y-104887578D01*
X156038413Y-104890262D01*
X156038415Y-104890263D01*
X156186341Y-104956124D01*
X156197248Y-104960980D01*
X156285508Y-104979740D01*
X156367311Y-104997128D01*
X156367315Y-104997128D01*
X156373768Y-104998500D01*
X156554232Y-104998500D01*
X156560685Y-104997128D01*
X156560689Y-104997128D01*
X156642492Y-104979740D01*
X156730752Y-104960980D01*
X156741659Y-104956124D01*
X156889585Y-104890263D01*
X156889587Y-104890262D01*
X156895615Y-104887578D01*
X156900957Y-104883697D01*
X157036269Y-104785387D01*
X157036271Y-104785385D01*
X157041613Y-104781504D01*
X157155130Y-104655431D01*
X157157948Y-104652301D01*
X157157949Y-104652300D01*
X157162367Y-104647393D01*
X157226000Y-104537178D01*
X157249295Y-104496830D01*
X157249296Y-104496829D01*
X157252599Y-104491107D01*
X157308365Y-104319475D01*
X157315664Y-104250036D01*
X157326539Y-104146565D01*
X157327229Y-104140000D01*
X157321447Y-104084989D01*
X157309055Y-103967089D01*
X157309055Y-103967088D01*
X157308365Y-103960525D01*
X157252599Y-103788893D01*
X157162367Y-103632607D01*
X157041613Y-103498496D01*
X156895615Y-103392422D01*
X156889587Y-103389738D01*
X156889585Y-103389737D01*
X156736783Y-103321705D01*
X156736781Y-103321705D01*
X156730752Y-103319020D01*
X156642492Y-103300260D01*
X156560689Y-103282872D01*
X156560685Y-103282872D01*
X156554232Y-103281500D01*
X156373768Y-103281500D01*
X156367315Y-103282872D01*
X156367311Y-103282872D01*
X156285508Y-103300260D01*
X156197248Y-103319020D01*
X156191219Y-103321704D01*
X156191217Y-103321705D01*
X156038416Y-103389737D01*
X156038414Y-103389738D01*
X156032386Y-103392422D01*
X156027045Y-103396302D01*
X156027044Y-103396303D01*
X155891731Y-103494613D01*
X155891729Y-103494615D01*
X155886387Y-103498496D01*
X155765633Y-103632607D01*
X155675401Y-103788893D01*
X155619635Y-103960525D01*
X155618945Y-103967088D01*
X155618945Y-103967089D01*
X155606553Y-104084989D01*
X155600771Y-104140000D01*
X153561223Y-104140000D01*
X153434783Y-104083705D01*
X153434781Y-104083705D01*
X153428752Y-104081020D01*
X153334658Y-104061020D01*
X153258689Y-104044872D01*
X153258685Y-104044872D01*
X153252232Y-104043500D01*
X153071768Y-104043500D01*
X153065315Y-104044872D01*
X153065311Y-104044872D01*
X152989342Y-104061020D01*
X152895248Y-104081020D01*
X152889219Y-104083704D01*
X152889217Y-104083705D01*
X152736416Y-104151737D01*
X152736414Y-104151738D01*
X152730386Y-104154422D01*
X152725045Y-104158302D01*
X152725044Y-104158303D01*
X152589731Y-104256613D01*
X152589729Y-104256615D01*
X152584387Y-104260496D01*
X152579966Y-104265406D01*
X152579965Y-104265407D01*
X152476493Y-104380325D01*
X152463633Y-104394607D01*
X152455657Y-104408422D01*
X152378470Y-104542114D01*
X152373401Y-104550893D01*
X152371359Y-104557178D01*
X152322001Y-104709089D01*
X152317635Y-104722525D01*
X152298771Y-104902000D01*
X147782627Y-104902000D01*
X147784729Y-104882000D01*
X147765865Y-104702525D01*
X147746752Y-104643699D01*
X147712141Y-104537178D01*
X147710099Y-104530893D01*
X147687129Y-104491107D01*
X147623168Y-104380325D01*
X147619867Y-104374607D01*
X147582988Y-104333648D01*
X147503535Y-104245407D01*
X147503534Y-104245406D01*
X147499113Y-104240496D01*
X147385985Y-104158303D01*
X147358457Y-104138303D01*
X147358456Y-104138302D01*
X147353115Y-104134422D01*
X147347087Y-104131738D01*
X147347085Y-104131737D01*
X147194283Y-104063705D01*
X147194281Y-104063705D01*
X147188252Y-104061020D01*
X147099992Y-104042260D01*
X147018189Y-104024872D01*
X147018185Y-104024872D01*
X147011732Y-104023500D01*
X146831268Y-104023500D01*
X146824815Y-104024872D01*
X146824811Y-104024872D01*
X146743008Y-104042260D01*
X146654748Y-104061020D01*
X146648719Y-104063704D01*
X146648717Y-104063705D01*
X146495916Y-104131737D01*
X146495914Y-104131738D01*
X146489886Y-104134422D01*
X146484545Y-104138302D01*
X146484544Y-104138303D01*
X146349231Y-104236613D01*
X146349229Y-104236615D01*
X146343887Y-104240496D01*
X146339466Y-104245406D01*
X146339465Y-104245407D01*
X146260013Y-104333648D01*
X146223133Y-104374607D01*
X146219832Y-104380325D01*
X146155872Y-104491107D01*
X146132901Y-104530893D01*
X146130859Y-104537177D01*
X146128175Y-104543206D01*
X146125722Y-104542114D01*
X146092384Y-104590874D01*
X146027550Y-104617911D01*
X146026179Y-104617911D01*
X146019726Y-104619283D01*
X146019722Y-104619283D01*
X145937919Y-104636671D01*
X145849659Y-104655431D01*
X145843630Y-104658115D01*
X145843628Y-104658116D01*
X145690827Y-104726148D01*
X145690825Y-104726149D01*
X145684797Y-104728833D01*
X145679456Y-104732713D01*
X145679455Y-104732714D01*
X145544142Y-104831024D01*
X145544140Y-104831026D01*
X145538798Y-104834907D01*
X145418044Y-104969018D01*
X145414743Y-104974736D01*
X145349492Y-105087754D01*
X145327812Y-105125304D01*
X145272046Y-105296936D01*
X145253182Y-105476411D01*
X139482573Y-105476411D01*
X139528365Y-105335475D01*
X139532395Y-105297138D01*
X139546539Y-105162565D01*
X139547229Y-105156000D01*
X139545708Y-105141525D01*
X139529055Y-104983089D01*
X139529055Y-104983088D01*
X139528365Y-104976525D01*
X139521737Y-104956124D01*
X139474641Y-104811178D01*
X139472599Y-104804893D01*
X139382367Y-104648607D01*
X139376126Y-104641675D01*
X139266035Y-104519407D01*
X139266034Y-104519406D01*
X139261613Y-104514496D01*
X139220771Y-104484822D01*
X139120957Y-104412303D01*
X139120956Y-104412302D01*
X139115615Y-104408422D01*
X139109587Y-104405738D01*
X139109585Y-104405737D01*
X138956783Y-104337705D01*
X138956781Y-104337705D01*
X138950752Y-104335020D01*
X138846736Y-104312911D01*
X138780689Y-104298872D01*
X138780685Y-104298872D01*
X138774232Y-104297500D01*
X138593768Y-104297500D01*
X138587315Y-104298872D01*
X138587311Y-104298872D01*
X138521264Y-104312911D01*
X138417248Y-104335020D01*
X138411219Y-104337704D01*
X138411217Y-104337705D01*
X138258416Y-104405737D01*
X138258414Y-104405738D01*
X138252386Y-104408422D01*
X138247045Y-104412302D01*
X138247044Y-104412303D01*
X138111731Y-104510613D01*
X138111729Y-104510615D01*
X138106387Y-104514496D01*
X138101966Y-104519406D01*
X138101965Y-104519407D01*
X137991875Y-104641675D01*
X137985633Y-104648607D01*
X137895401Y-104804893D01*
X137893359Y-104811178D01*
X137846264Y-104956124D01*
X137839635Y-104976525D01*
X137838945Y-104983088D01*
X137838945Y-104983089D01*
X137822292Y-105141525D01*
X137820771Y-105156000D01*
X127534835Y-105156000D01*
X127534821Y-105134183D01*
X128204389Y-105134183D01*
X128205912Y-105142607D01*
X128218292Y-105146000D01*
X129267885Y-105146000D01*
X129283124Y-105141525D01*
X129284329Y-105140135D01*
X129286000Y-105132452D01*
X129286000Y-105127885D01*
X129794000Y-105127885D01*
X129798475Y-105143124D01*
X129799865Y-105144329D01*
X129807548Y-105146000D01*
X130858344Y-105146000D01*
X130871875Y-105142027D01*
X130873180Y-105132947D01*
X130831214Y-104965875D01*
X130827894Y-104956124D01*
X130742972Y-104760814D01*
X130738105Y-104751739D01*
X130622426Y-104572926D01*
X130616136Y-104564757D01*
X130472806Y-104407240D01*
X130465273Y-104400215D01*
X130298139Y-104268222D01*
X130289552Y-104262517D01*
X130103117Y-104159599D01*
X130093705Y-104155369D01*
X129892959Y-104084280D01*
X129882988Y-104081646D01*
X129811837Y-104068972D01*
X129798540Y-104070432D01*
X129794000Y-104084989D01*
X129794000Y-105127885D01*
X129286000Y-105127885D01*
X129286000Y-104083102D01*
X129282082Y-104069758D01*
X129267806Y-104067771D01*
X129229324Y-104073660D01*
X129219288Y-104076051D01*
X129016868Y-104142212D01*
X129007359Y-104146209D01*
X128818463Y-104244542D01*
X128809738Y-104250036D01*
X128639433Y-104377905D01*
X128631726Y-104384748D01*
X128484590Y-104538717D01*
X128478104Y-104546727D01*
X128358098Y-104722649D01*
X128353000Y-104731623D01*
X128263338Y-104924783D01*
X128259775Y-104934470D01*
X128204389Y-105134183D01*
X127534821Y-105134183D01*
X127532969Y-102205107D01*
X127532747Y-101854000D01*
X140614771Y-101854000D01*
X140633635Y-102033475D01*
X140689401Y-102205107D01*
X140779633Y-102361393D01*
X140900387Y-102495504D01*
X141046385Y-102601578D01*
X141052413Y-102604262D01*
X141052415Y-102604263D01*
X141205217Y-102672295D01*
X141211248Y-102674980D01*
X141299508Y-102693740D01*
X141381311Y-102711128D01*
X141381315Y-102711128D01*
X141387768Y-102712500D01*
X141568232Y-102712500D01*
X141574685Y-102711128D01*
X141574689Y-102711128D01*
X141656492Y-102693740D01*
X141744752Y-102674980D01*
X141750783Y-102672295D01*
X141903585Y-102604263D01*
X141903587Y-102604262D01*
X141909615Y-102601578D01*
X142055613Y-102495504D01*
X142176367Y-102361393D01*
X142266599Y-102205107D01*
X142322365Y-102033475D01*
X142341229Y-101854000D01*
X142322365Y-101674525D01*
X142266599Y-101502893D01*
X142176367Y-101346607D01*
X142165253Y-101334263D01*
X142060035Y-101217407D01*
X142060034Y-101217406D01*
X142055613Y-101212496D01*
X141909615Y-101106422D01*
X141903587Y-101103738D01*
X141903585Y-101103737D01*
X141750783Y-101035705D01*
X141750781Y-101035705D01*
X141744752Y-101033020D01*
X141652822Y-101013480D01*
X141574689Y-100996872D01*
X141574685Y-100996872D01*
X141568232Y-100995500D01*
X141387768Y-100995500D01*
X141381315Y-100996872D01*
X141381311Y-100996872D01*
X141303178Y-101013480D01*
X141211248Y-101033020D01*
X141205219Y-101035704D01*
X141205217Y-101035705D01*
X141052416Y-101103737D01*
X141052414Y-101103738D01*
X141046386Y-101106422D01*
X141041045Y-101110302D01*
X141041044Y-101110303D01*
X140905731Y-101208613D01*
X140905729Y-101208615D01*
X140900387Y-101212496D01*
X140895966Y-101217406D01*
X140895965Y-101217407D01*
X140790748Y-101334263D01*
X140779633Y-101346607D01*
X140689401Y-101502893D01*
X140633635Y-101674525D01*
X140614771Y-101854000D01*
X127532747Y-101854000D01*
X127531944Y-100584000D01*
X145186771Y-100584000D01*
X145205635Y-100763475D01*
X145261401Y-100935107D01*
X145351633Y-101091393D01*
X145356051Y-101096300D01*
X145356052Y-101096301D01*
X145465096Y-101217407D01*
X145472387Y-101225504D01*
X145618385Y-101331578D01*
X145624413Y-101334262D01*
X145624415Y-101334263D01*
X145664983Y-101352325D01*
X145783248Y-101404980D01*
X145871508Y-101423740D01*
X145953311Y-101441128D01*
X145953315Y-101441128D01*
X145959768Y-101442500D01*
X146140232Y-101442500D01*
X146146685Y-101441128D01*
X146146689Y-101441128D01*
X146228492Y-101423740D01*
X146316752Y-101404980D01*
X146435017Y-101352325D01*
X146475585Y-101334263D01*
X146475587Y-101334262D01*
X146481615Y-101331578D01*
X146627613Y-101225504D01*
X146634904Y-101217407D01*
X146743948Y-101096301D01*
X146743949Y-101096300D01*
X146748367Y-101091393D01*
X146838599Y-100935107D01*
X146894365Y-100763475D01*
X146913229Y-100584000D01*
X146894365Y-100404525D01*
X146838599Y-100232893D01*
X146815278Y-100192500D01*
X147472771Y-100192500D01*
X147491635Y-100371975D01*
X147547401Y-100543607D01*
X147550704Y-100549329D01*
X147550705Y-100549330D01*
X147566932Y-100577435D01*
X147637633Y-100699893D01*
X147758387Y-100834004D01*
X147904385Y-100940078D01*
X147910413Y-100942762D01*
X147910415Y-100942763D01*
X148028864Y-100995500D01*
X148069248Y-101013480D01*
X148154723Y-101031648D01*
X148239311Y-101049628D01*
X148239315Y-101049628D01*
X148245768Y-101051000D01*
X148426232Y-101051000D01*
X148432685Y-101049628D01*
X148432689Y-101049628D01*
X148517277Y-101031648D01*
X148602752Y-101013480D01*
X148643136Y-100995500D01*
X148761585Y-100942763D01*
X148761587Y-100942762D01*
X148767615Y-100940078D01*
X148913613Y-100834004D01*
X149034367Y-100699893D01*
X149105068Y-100577435D01*
X149121295Y-100549330D01*
X149121296Y-100549329D01*
X149124599Y-100543607D01*
X149180365Y-100371975D01*
X149199229Y-100192500D01*
X149180365Y-100013025D01*
X149174480Y-99994911D01*
X149126641Y-99847678D01*
X149124599Y-99841393D01*
X149117193Y-99828565D01*
X149113403Y-99822000D01*
X151790771Y-99822000D01*
X151809635Y-100001475D01*
X151811675Y-100007753D01*
X151811675Y-100007754D01*
X151832452Y-100071699D01*
X151865401Y-100173107D01*
X151868704Y-100178829D01*
X151868705Y-100178830D01*
X151880388Y-100199065D01*
X151955633Y-100329393D01*
X151960051Y-100334300D01*
X151960052Y-100334301D01*
X152017628Y-100398246D01*
X152076387Y-100463504D01*
X152081729Y-100467385D01*
X152081731Y-100467387D01*
X152186639Y-100543607D01*
X152222385Y-100569578D01*
X152228413Y-100572262D01*
X152228415Y-100572263D01*
X152254777Y-100584000D01*
X152387248Y-100642980D01*
X152475508Y-100661740D01*
X152557311Y-100679128D01*
X152557315Y-100679128D01*
X152563768Y-100680500D01*
X152744232Y-100680500D01*
X152750685Y-100679128D01*
X152750689Y-100679128D01*
X152832492Y-100661740D01*
X152920752Y-100642980D01*
X153053223Y-100584000D01*
X153079585Y-100572263D01*
X153079587Y-100572262D01*
X153085615Y-100569578D01*
X153121361Y-100543607D01*
X153226269Y-100467387D01*
X153226271Y-100467385D01*
X153231613Y-100463504D01*
X153290372Y-100398246D01*
X153347948Y-100334301D01*
X153347949Y-100334300D01*
X153352367Y-100329393D01*
X153427612Y-100199065D01*
X153439295Y-100178830D01*
X153439296Y-100178829D01*
X153442599Y-100173107D01*
X153475548Y-100071699D01*
X153496325Y-100007754D01*
X153496325Y-100007753D01*
X153498365Y-100001475D01*
X153517229Y-99822000D01*
X153498365Y-99642525D01*
X153442599Y-99470893D01*
X153352367Y-99314607D01*
X153346126Y-99307675D01*
X153236035Y-99185407D01*
X153236034Y-99185406D01*
X153231613Y-99180496D01*
X153190771Y-99150822D01*
X153090957Y-99078303D01*
X153090956Y-99078302D01*
X153085615Y-99074422D01*
X153079587Y-99071738D01*
X153079585Y-99071737D01*
X152926783Y-99003705D01*
X152926781Y-99003705D01*
X152920752Y-99001020D01*
X152816736Y-98978911D01*
X152750689Y-98964872D01*
X152750685Y-98964872D01*
X152744232Y-98963500D01*
X152563768Y-98963500D01*
X152557315Y-98964872D01*
X152557311Y-98964872D01*
X152491264Y-98978911D01*
X152387248Y-99001020D01*
X152381219Y-99003704D01*
X152381217Y-99003705D01*
X152228416Y-99071737D01*
X152228414Y-99071738D01*
X152222386Y-99074422D01*
X152217045Y-99078302D01*
X152217044Y-99078303D01*
X152081731Y-99176613D01*
X152081729Y-99176615D01*
X152076387Y-99180496D01*
X152071966Y-99185406D01*
X152071965Y-99185407D01*
X151961875Y-99307675D01*
X151955633Y-99314607D01*
X151865401Y-99470893D01*
X151809635Y-99642525D01*
X151790771Y-99822000D01*
X149113403Y-99822000D01*
X149093259Y-99787110D01*
X149076521Y-99718114D01*
X149099742Y-99651022D01*
X149151129Y-99609003D01*
X149269585Y-99556263D01*
X149269587Y-99556262D01*
X149275615Y-99553578D01*
X149280957Y-99549697D01*
X149416269Y-99451387D01*
X149416271Y-99451385D01*
X149421613Y-99447504D01*
X149511677Y-99347478D01*
X149537948Y-99318301D01*
X149537949Y-99318300D01*
X149542367Y-99313393D01*
X149632599Y-99157107D01*
X149688365Y-98985475D01*
X149707229Y-98806000D01*
X149696752Y-98706316D01*
X149689055Y-98633089D01*
X149689055Y-98633088D01*
X149688365Y-98626525D01*
X149632599Y-98454893D01*
X149542367Y-98298607D01*
X149482525Y-98232145D01*
X149426035Y-98169407D01*
X149426034Y-98169406D01*
X149421613Y-98164496D01*
X149275615Y-98058422D01*
X149269587Y-98055738D01*
X149269585Y-98055737D01*
X149116783Y-97987705D01*
X149116781Y-97987705D01*
X149110752Y-97985020D01*
X149019095Y-97965538D01*
X148940689Y-97948872D01*
X148940685Y-97948872D01*
X148934232Y-97947500D01*
X148753768Y-97947500D01*
X148747315Y-97948872D01*
X148747311Y-97948872D01*
X148668905Y-97965538D01*
X148577248Y-97985020D01*
X148571219Y-97987704D01*
X148571217Y-97987705D01*
X148418416Y-98055737D01*
X148418414Y-98055738D01*
X148412386Y-98058422D01*
X148407045Y-98062302D01*
X148407044Y-98062303D01*
X148271731Y-98160613D01*
X148271729Y-98160615D01*
X148266387Y-98164496D01*
X148261966Y-98169406D01*
X148261965Y-98169407D01*
X148205476Y-98232145D01*
X148145633Y-98298607D01*
X148055401Y-98454893D01*
X147999635Y-98626525D01*
X147998945Y-98633088D01*
X147998945Y-98633089D01*
X147991248Y-98706316D01*
X147980771Y-98806000D01*
X147999635Y-98985475D01*
X148055401Y-99157107D01*
X148058704Y-99162829D01*
X148058705Y-99162830D01*
X148086741Y-99211390D01*
X148103479Y-99280386D01*
X148080258Y-99347478D01*
X148028871Y-99389496D01*
X147910424Y-99442233D01*
X147910419Y-99442236D01*
X147904386Y-99444922D01*
X147899045Y-99448802D01*
X147899044Y-99448803D01*
X147763731Y-99547113D01*
X147763729Y-99547115D01*
X147758387Y-99550996D01*
X147753966Y-99555906D01*
X147753965Y-99555907D01*
X147681628Y-99636246D01*
X147637633Y-99685107D01*
X147614312Y-99725500D01*
X147558598Y-99822000D01*
X147547401Y-99841393D01*
X147545359Y-99847678D01*
X147497521Y-99994911D01*
X147491635Y-100013025D01*
X147472771Y-100192500D01*
X146815278Y-100192500D01*
X146748367Y-100076607D01*
X146627613Y-99942496D01*
X146481615Y-99836422D01*
X146475587Y-99833738D01*
X146475585Y-99833737D01*
X146322783Y-99765705D01*
X146322781Y-99765705D01*
X146316752Y-99763020D01*
X146228492Y-99744260D01*
X146146689Y-99726872D01*
X146146685Y-99726872D01*
X146140232Y-99725500D01*
X145959768Y-99725500D01*
X145953315Y-99726872D01*
X145953311Y-99726872D01*
X145871508Y-99744260D01*
X145783248Y-99763020D01*
X145777219Y-99765704D01*
X145777217Y-99765705D01*
X145624416Y-99833737D01*
X145624414Y-99833738D01*
X145618386Y-99836422D01*
X145613045Y-99840302D01*
X145613044Y-99840303D01*
X145477731Y-99938613D01*
X145477729Y-99938615D01*
X145472387Y-99942496D01*
X145351633Y-100076607D01*
X145261401Y-100232893D01*
X145205635Y-100404525D01*
X145186771Y-100584000D01*
X127531944Y-100584000D01*
X127529696Y-97028000D01*
X150520771Y-97028000D01*
X150539635Y-97207475D01*
X150595401Y-97379107D01*
X150685633Y-97535393D01*
X150806387Y-97669504D01*
X150811729Y-97673385D01*
X150811731Y-97673387D01*
X150921239Y-97752949D01*
X150952385Y-97775578D01*
X150958413Y-97778262D01*
X150958415Y-97778263D01*
X151055893Y-97821663D01*
X151117248Y-97848980D01*
X151205508Y-97867740D01*
X151287311Y-97885128D01*
X151287315Y-97885128D01*
X151293768Y-97886500D01*
X151474232Y-97886500D01*
X151480685Y-97885128D01*
X151480689Y-97885128D01*
X151562492Y-97867740D01*
X151650752Y-97848980D01*
X151712107Y-97821663D01*
X151809585Y-97778263D01*
X151809587Y-97778262D01*
X151815615Y-97775578D01*
X151846761Y-97752949D01*
X151956269Y-97673387D01*
X151956271Y-97673385D01*
X151961613Y-97669504D01*
X152082367Y-97535393D01*
X152172599Y-97379107D01*
X152228365Y-97207475D01*
X152247229Y-97028000D01*
X152228365Y-96848525D01*
X152221763Y-96828204D01*
X152204151Y-96774000D01*
X167284771Y-96774000D01*
X167285461Y-96780565D01*
X167290895Y-96832260D01*
X167303635Y-96953475D01*
X167305675Y-96959753D01*
X167305675Y-96959754D01*
X167327849Y-97028000D01*
X167359401Y-97125107D01*
X167449633Y-97281393D01*
X167454051Y-97286300D01*
X167454052Y-97286301D01*
X167525060Y-97365163D01*
X167570387Y-97415504D01*
X167575729Y-97419385D01*
X167575731Y-97419387D01*
X167705045Y-97513339D01*
X167716385Y-97521578D01*
X167722413Y-97524262D01*
X167722415Y-97524263D01*
X167758437Y-97540301D01*
X167881248Y-97594980D01*
X167969508Y-97613740D01*
X168051311Y-97631128D01*
X168051315Y-97631128D01*
X168057768Y-97632500D01*
X168238232Y-97632500D01*
X168244685Y-97631128D01*
X168244689Y-97631128D01*
X168326492Y-97613740D01*
X168414752Y-97594980D01*
X168537563Y-97540301D01*
X168573585Y-97524263D01*
X168573587Y-97524262D01*
X168579615Y-97521578D01*
X168590955Y-97513339D01*
X168720269Y-97419387D01*
X168720271Y-97419385D01*
X168725613Y-97415504D01*
X168770940Y-97365163D01*
X168841948Y-97286301D01*
X168841949Y-97286300D01*
X168846367Y-97281393D01*
X168936599Y-97125107D01*
X168968151Y-97028000D01*
X168990325Y-96959754D01*
X168990325Y-96959753D01*
X168992365Y-96953475D01*
X169005106Y-96832260D01*
X169010539Y-96780565D01*
X169011229Y-96774000D01*
X168992365Y-96594525D01*
X168936599Y-96422893D01*
X168917327Y-96389512D01*
X168849668Y-96272325D01*
X168846367Y-96266607D01*
X168794725Y-96209252D01*
X168730035Y-96137407D01*
X168730034Y-96137406D01*
X168725613Y-96132496D01*
X168619620Y-96055487D01*
X168584957Y-96030303D01*
X168584956Y-96030302D01*
X168579615Y-96026422D01*
X168573587Y-96023738D01*
X168573585Y-96023737D01*
X168420783Y-95955705D01*
X168420781Y-95955705D01*
X168414752Y-95953020D01*
X168323255Y-95933572D01*
X168244689Y-95916872D01*
X168244685Y-95916872D01*
X168238232Y-95915500D01*
X168057768Y-95915500D01*
X168051315Y-95916872D01*
X168051311Y-95916872D01*
X167972745Y-95933572D01*
X167881248Y-95953020D01*
X167875219Y-95955704D01*
X167875217Y-95955705D01*
X167722416Y-96023737D01*
X167722414Y-96023738D01*
X167716386Y-96026422D01*
X167711045Y-96030302D01*
X167711044Y-96030303D01*
X167575731Y-96128613D01*
X167575729Y-96128615D01*
X167570387Y-96132496D01*
X167565966Y-96137406D01*
X167565965Y-96137407D01*
X167501276Y-96209252D01*
X167449633Y-96266607D01*
X167446332Y-96272325D01*
X167378674Y-96389512D01*
X167359401Y-96422893D01*
X167303635Y-96594525D01*
X167284771Y-96774000D01*
X152204151Y-96774000D01*
X152174641Y-96683178D01*
X152172599Y-96676893D01*
X152157824Y-96651301D01*
X152085668Y-96526325D01*
X152082367Y-96520607D01*
X151961613Y-96386496D01*
X151929917Y-96363467D01*
X151820957Y-96284303D01*
X151820956Y-96284302D01*
X151815615Y-96280422D01*
X151809587Y-96277738D01*
X151809585Y-96277737D01*
X151656783Y-96209705D01*
X151656781Y-96209705D01*
X151650752Y-96207020D01*
X151562492Y-96188260D01*
X151480689Y-96170872D01*
X151480685Y-96170872D01*
X151474232Y-96169500D01*
X151293768Y-96169500D01*
X151287315Y-96170872D01*
X151287311Y-96170872D01*
X151205508Y-96188260D01*
X151117248Y-96207020D01*
X151111219Y-96209704D01*
X151111217Y-96209705D01*
X150958416Y-96277737D01*
X150958414Y-96277738D01*
X150952386Y-96280422D01*
X150947045Y-96284302D01*
X150947044Y-96284303D01*
X150811731Y-96382613D01*
X150811729Y-96382615D01*
X150806387Y-96386496D01*
X150685633Y-96520607D01*
X150682332Y-96526325D01*
X150610177Y-96651301D01*
X150595401Y-96676893D01*
X150593359Y-96683178D01*
X150546238Y-96828204D01*
X150539635Y-96848525D01*
X150520771Y-97028000D01*
X127529696Y-97028000D01*
X127529134Y-96139000D01*
X140741771Y-96139000D01*
X140760635Y-96318475D01*
X140816401Y-96490107D01*
X140819704Y-96495829D01*
X140819705Y-96495830D01*
X140851689Y-96551227D01*
X140906633Y-96646393D01*
X141027387Y-96780504D01*
X141032729Y-96784385D01*
X141032731Y-96784387D01*
X141130044Y-96855089D01*
X141173385Y-96886578D01*
X141179413Y-96889262D01*
X141179415Y-96889263D01*
X141332217Y-96957295D01*
X141338248Y-96959980D01*
X141426508Y-96978740D01*
X141508311Y-96996128D01*
X141508315Y-96996128D01*
X141514768Y-96997500D01*
X141695232Y-96997500D01*
X141701685Y-96996128D01*
X141701689Y-96996128D01*
X141783492Y-96978740D01*
X141871752Y-96959980D01*
X141877783Y-96957295D01*
X142030585Y-96889263D01*
X142030587Y-96889262D01*
X142036615Y-96886578D01*
X142079956Y-96855089D01*
X142177269Y-96784387D01*
X142177271Y-96784385D01*
X142182613Y-96780504D01*
X142303367Y-96646393D01*
X142358311Y-96551227D01*
X142390295Y-96495830D01*
X142390296Y-96495829D01*
X142393599Y-96490107D01*
X142449365Y-96318475D01*
X142468229Y-96139000D01*
X142459017Y-96051355D01*
X142450055Y-95966089D01*
X142450055Y-95966088D01*
X142449365Y-95959525D01*
X142447252Y-95953020D01*
X142402579Y-95815532D01*
X142393599Y-95787893D01*
X142303367Y-95631607D01*
X142182613Y-95497496D01*
X142036615Y-95391422D01*
X142030587Y-95388738D01*
X142030585Y-95388737D01*
X141877783Y-95320705D01*
X141877781Y-95320705D01*
X141871752Y-95318020D01*
X141783492Y-95299260D01*
X141701689Y-95281872D01*
X141701685Y-95281872D01*
X141695232Y-95280500D01*
X141514768Y-95280500D01*
X141508315Y-95281872D01*
X141508311Y-95281872D01*
X141426508Y-95299260D01*
X141338248Y-95318020D01*
X141332219Y-95320704D01*
X141332217Y-95320705D01*
X141179416Y-95388737D01*
X141179414Y-95388738D01*
X141173386Y-95391422D01*
X141168045Y-95395302D01*
X141168044Y-95395303D01*
X141032731Y-95493613D01*
X141032729Y-95493615D01*
X141027387Y-95497496D01*
X140906633Y-95631607D01*
X140816401Y-95787893D01*
X140807421Y-95815532D01*
X140762749Y-95953020D01*
X140760635Y-95959525D01*
X140759945Y-95966088D01*
X140759945Y-95966089D01*
X140750983Y-96051355D01*
X140741771Y-96139000D01*
X127529134Y-96139000D01*
X127525791Y-90852064D01*
X139782707Y-90852064D01*
X139783663Y-90858382D01*
X139809942Y-91032145D01*
X139811825Y-91044599D01*
X139814028Y-91050585D01*
X139814029Y-91050591D01*
X139876860Y-91221360D01*
X139876862Y-91221365D01*
X139879063Y-91227346D01*
X139882425Y-91232768D01*
X139977103Y-91385467D01*
X139981674Y-91392840D01*
X140115466Y-91534322D01*
X140274975Y-91646011D01*
X140280838Y-91648548D01*
X140447825Y-91720810D01*
X140447829Y-91720811D01*
X140453684Y-91723345D01*
X140459931Y-91724650D01*
X140459934Y-91724651D01*
X140639557Y-91762176D01*
X140639562Y-91762177D01*
X140644293Y-91763165D01*
X140650685Y-91763500D01*
X140793663Y-91763500D01*
X140862951Y-91756462D01*
X140932378Y-91749410D01*
X140932379Y-91749410D01*
X140938727Y-91748765D01*
X141019843Y-91723345D01*
X141118451Y-91692444D01*
X141118456Y-91692442D01*
X141124541Y-91690535D01*
X141211475Y-91642346D01*
X141289271Y-91599223D01*
X141289274Y-91599221D01*
X141294850Y-91596130D01*
X141299691Y-91591981D01*
X141299695Y-91591978D01*
X141437855Y-91473560D01*
X141442698Y-91469409D01*
X141511524Y-91380680D01*
X141558131Y-91320594D01*
X141562046Y-91315547D01*
X141602779Y-91232768D01*
X141645200Y-91146556D01*
X141648018Y-91140829D01*
X141649628Y-91134649D01*
X141695492Y-90958575D01*
X141695492Y-90958572D01*
X141697102Y-90952393D01*
X141702360Y-90852064D01*
X146582707Y-90852064D01*
X146583663Y-90858382D01*
X146609942Y-91032145D01*
X146611825Y-91044599D01*
X146614028Y-91050585D01*
X146614029Y-91050591D01*
X146676860Y-91221360D01*
X146676862Y-91221365D01*
X146679063Y-91227346D01*
X146682425Y-91232768D01*
X146777103Y-91385467D01*
X146781674Y-91392840D01*
X146915466Y-91534322D01*
X147074975Y-91646011D01*
X147080838Y-91648548D01*
X147247825Y-91720810D01*
X147247829Y-91720811D01*
X147253684Y-91723345D01*
X147259931Y-91724650D01*
X147259934Y-91724651D01*
X147439557Y-91762176D01*
X147439562Y-91762177D01*
X147444293Y-91763165D01*
X147450685Y-91763500D01*
X147593663Y-91763500D01*
X147662951Y-91756462D01*
X147732378Y-91749410D01*
X147732379Y-91749410D01*
X147738727Y-91748765D01*
X147819843Y-91723345D01*
X147918451Y-91692444D01*
X147918456Y-91692442D01*
X147924541Y-91690535D01*
X148011475Y-91642346D01*
X148089271Y-91599223D01*
X148089274Y-91599221D01*
X148094850Y-91596130D01*
X148099691Y-91591981D01*
X148099695Y-91591978D01*
X148237855Y-91473560D01*
X148242698Y-91469409D01*
X148311524Y-91380680D01*
X148358131Y-91320594D01*
X148362046Y-91315547D01*
X148402779Y-91232768D01*
X148445200Y-91146556D01*
X148448018Y-91140829D01*
X148449628Y-91134649D01*
X148495492Y-90958575D01*
X148495492Y-90958572D01*
X148497102Y-90952393D01*
X148502694Y-90845683D01*
X148506959Y-90764317D01*
X148506959Y-90764313D01*
X148507293Y-90757936D01*
X148478175Y-90565401D01*
X148475972Y-90559415D01*
X148475971Y-90559409D01*
X148413140Y-90388640D01*
X148413138Y-90388635D01*
X148410937Y-90382654D01*
X148308326Y-90217160D01*
X148174534Y-90075678D01*
X148015025Y-89963989D01*
X147967013Y-89943212D01*
X147842175Y-89889190D01*
X147842171Y-89889189D01*
X147836316Y-89886655D01*
X147830069Y-89885350D01*
X147830066Y-89885349D01*
X147650443Y-89847824D01*
X147650438Y-89847823D01*
X147645707Y-89846835D01*
X147639315Y-89846500D01*
X147496337Y-89846500D01*
X147427049Y-89853538D01*
X147357622Y-89860590D01*
X147357621Y-89860590D01*
X147351273Y-89861235D01*
X147299492Y-89877462D01*
X147171549Y-89917556D01*
X147171544Y-89917558D01*
X147165459Y-89919465D01*
X147089713Y-89961452D01*
X147000729Y-90010777D01*
X147000726Y-90010779D01*
X146995150Y-90013870D01*
X146990309Y-90018019D01*
X146990305Y-90018022D01*
X146865667Y-90124850D01*
X146847302Y-90140591D01*
X146727954Y-90294453D01*
X146725138Y-90300176D01*
X146725136Y-90300179D01*
X146681608Y-90388640D01*
X146641982Y-90469171D01*
X146640373Y-90475349D01*
X146640372Y-90475351D01*
X146618477Y-90559409D01*
X146592898Y-90657607D01*
X146582707Y-90852064D01*
X141702360Y-90852064D01*
X141702694Y-90845683D01*
X141706959Y-90764317D01*
X141706959Y-90764313D01*
X141707293Y-90757936D01*
X141678175Y-90565401D01*
X141675972Y-90559415D01*
X141675971Y-90559409D01*
X141613140Y-90388640D01*
X141613138Y-90388635D01*
X141610937Y-90382654D01*
X141508326Y-90217160D01*
X141374534Y-90075678D01*
X141215025Y-89963989D01*
X141167013Y-89943212D01*
X141042175Y-89889190D01*
X141042171Y-89889189D01*
X141036316Y-89886655D01*
X141030069Y-89885350D01*
X141030066Y-89885349D01*
X140850443Y-89847824D01*
X140850438Y-89847823D01*
X140845707Y-89846835D01*
X140839315Y-89846500D01*
X140696337Y-89846500D01*
X140627049Y-89853538D01*
X140557622Y-89860590D01*
X140557621Y-89860590D01*
X140551273Y-89861235D01*
X140499492Y-89877462D01*
X140371549Y-89917556D01*
X140371544Y-89917558D01*
X140365459Y-89919465D01*
X140289713Y-89961452D01*
X140200729Y-90010777D01*
X140200726Y-90010779D01*
X140195150Y-90013870D01*
X140190309Y-90018019D01*
X140190305Y-90018022D01*
X140065667Y-90124850D01*
X140047302Y-90140591D01*
X139927954Y-90294453D01*
X139925138Y-90300176D01*
X139925136Y-90300179D01*
X139881608Y-90388640D01*
X139841982Y-90469171D01*
X139840373Y-90475349D01*
X139840372Y-90475351D01*
X139818477Y-90559409D01*
X139792898Y-90657607D01*
X139782707Y-90852064D01*
X127525791Y-90852064D01*
X127523793Y-87691405D01*
X165699366Y-87691405D01*
X165718230Y-87870880D01*
X165773996Y-88042512D01*
X165864228Y-88198798D01*
X165984982Y-88332909D01*
X166130980Y-88438983D01*
X166137008Y-88441667D01*
X166137010Y-88441668D01*
X166289812Y-88509700D01*
X166295843Y-88512385D01*
X166384103Y-88531145D01*
X166465906Y-88548533D01*
X166465910Y-88548533D01*
X166472363Y-88549905D01*
X166652827Y-88549905D01*
X166659280Y-88548533D01*
X166659284Y-88548533D01*
X166741087Y-88531145D01*
X166829347Y-88512385D01*
X166835378Y-88509700D01*
X166988180Y-88441668D01*
X166988182Y-88441667D01*
X166994210Y-88438983D01*
X167140208Y-88332909D01*
X167260962Y-88198798D01*
X167351194Y-88042512D01*
X167406960Y-87870880D01*
X167425824Y-87691405D01*
X167406960Y-87511930D01*
X167351194Y-87340298D01*
X167260962Y-87184012D01*
X167140208Y-87049901D01*
X166994210Y-86943827D01*
X166988182Y-86941143D01*
X166988180Y-86941142D01*
X166835378Y-86873110D01*
X166835376Y-86873110D01*
X166829347Y-86870425D01*
X166741087Y-86851665D01*
X166659284Y-86834277D01*
X166659280Y-86834277D01*
X166652827Y-86832905D01*
X166472363Y-86832905D01*
X166465910Y-86834277D01*
X166465906Y-86834277D01*
X166384103Y-86851665D01*
X166295843Y-86870425D01*
X166289814Y-86873109D01*
X166289812Y-86873110D01*
X166137011Y-86941142D01*
X166137009Y-86941143D01*
X166130981Y-86943827D01*
X166125640Y-86947707D01*
X166125639Y-86947708D01*
X165990326Y-87046018D01*
X165990324Y-87046020D01*
X165984982Y-87049901D01*
X165864228Y-87184012D01*
X165773996Y-87340298D01*
X165718230Y-87511930D01*
X165699366Y-87691405D01*
X127523793Y-87691405D01*
X127522843Y-86189030D01*
X130540800Y-86189030D01*
X130546527Y-86196680D01*
X130731272Y-86309893D01*
X130740067Y-86314375D01*
X130957490Y-86404434D01*
X130966875Y-86407483D01*
X131195708Y-86462422D01*
X131205455Y-86463965D01*
X131440070Y-86482430D01*
X131449930Y-86482430D01*
X131684545Y-86463965D01*
X131694292Y-86462422D01*
X131923125Y-86407483D01*
X131932510Y-86404434D01*
X132149933Y-86314375D01*
X132158728Y-86309893D01*
X132339805Y-86198928D01*
X132349267Y-86188470D01*
X132345484Y-86179694D01*
X131457812Y-85292022D01*
X131443868Y-85284408D01*
X131442035Y-85284539D01*
X131435420Y-85288790D01*
X130547560Y-86176650D01*
X130540800Y-86189030D01*
X127522843Y-86189030D01*
X127522044Y-84924930D01*
X129882570Y-84924930D01*
X129901035Y-85159545D01*
X129902578Y-85169292D01*
X129957517Y-85398125D01*
X129960566Y-85407510D01*
X130050625Y-85624933D01*
X130055107Y-85633728D01*
X130166072Y-85814805D01*
X130176530Y-85824267D01*
X130185306Y-85820484D01*
X131355905Y-84649885D01*
X131418217Y-84615859D01*
X131489032Y-84620924D01*
X131534095Y-84649885D01*
X132701650Y-85817440D01*
X132714030Y-85824200D01*
X132721680Y-85818473D01*
X132834893Y-85633728D01*
X132839375Y-85624933D01*
X132929434Y-85407510D01*
X132932483Y-85398125D01*
X132987422Y-85169292D01*
X132988965Y-85159545D01*
X133007430Y-84924930D01*
X133007430Y-84915070D01*
X132988965Y-84680455D01*
X132987422Y-84670708D01*
X132932483Y-84441875D01*
X132929434Y-84432490D01*
X132839375Y-84215067D01*
X132834893Y-84206272D01*
X132728766Y-84033090D01*
X132710227Y-83964557D01*
X132731683Y-83896880D01*
X132760633Y-83866429D01*
X132851081Y-83798642D01*
X132858261Y-83793261D01*
X132945615Y-83676705D01*
X132996745Y-83540316D01*
X133003500Y-83478134D01*
X133003500Y-81281866D01*
X132996745Y-81219684D01*
X132945615Y-81083295D01*
X132858261Y-80966739D01*
X132741705Y-80879385D01*
X132605316Y-80828255D01*
X132543134Y-80821500D01*
X130346866Y-80821500D01*
X130284684Y-80828255D01*
X130148295Y-80879385D01*
X130031739Y-80966739D01*
X129944385Y-81083295D01*
X129893255Y-81219684D01*
X129886500Y-81281866D01*
X129886500Y-83478134D01*
X129893255Y-83540316D01*
X129944385Y-83676705D01*
X130031739Y-83793261D01*
X130038919Y-83798642D01*
X130129367Y-83866429D01*
X130171882Y-83923288D01*
X130176908Y-83994107D01*
X130161234Y-84033090D01*
X130055107Y-84206272D01*
X130050625Y-84215067D01*
X129960566Y-84432490D01*
X129957517Y-84441875D01*
X129902578Y-84670708D01*
X129901035Y-84680455D01*
X129882570Y-84915070D01*
X129882570Y-84924930D01*
X127522044Y-84924930D01*
X127517492Y-77724000D01*
X129881681Y-77724000D01*
X129900928Y-77968557D01*
X129902082Y-77973364D01*
X129902083Y-77973370D01*
X129938351Y-78124437D01*
X129958195Y-78207092D01*
X130052073Y-78433732D01*
X130083463Y-78484956D01*
X130159890Y-78609674D01*
X130180248Y-78642896D01*
X130339567Y-78829433D01*
X130343323Y-78832641D01*
X130499291Y-78965851D01*
X130526104Y-78988752D01*
X130530327Y-78991340D01*
X130530330Y-78991342D01*
X130534668Y-78994000D01*
X130735268Y-79116927D01*
X130879967Y-79176864D01*
X130957335Y-79208911D01*
X130957337Y-79208912D01*
X130961908Y-79210805D01*
X131044563Y-79230649D01*
X131195630Y-79266917D01*
X131195636Y-79266918D01*
X131200443Y-79268072D01*
X131445000Y-79287319D01*
X131689557Y-79268072D01*
X131694364Y-79266918D01*
X131694370Y-79266917D01*
X131845437Y-79230649D01*
X131928092Y-79210805D01*
X131932663Y-79208912D01*
X131932665Y-79208911D01*
X132010033Y-79176864D01*
X132154732Y-79116927D01*
X132355332Y-78994000D01*
X132359670Y-78991342D01*
X132359673Y-78991340D01*
X132363896Y-78988752D01*
X132390710Y-78965851D01*
X132546677Y-78832641D01*
X132550433Y-78829433D01*
X132709752Y-78642896D01*
X132730111Y-78609674D01*
X132806537Y-78484956D01*
X132837927Y-78433732D01*
X132931805Y-78207092D01*
X132951649Y-78124437D01*
X132987917Y-77973370D01*
X132987918Y-77973364D01*
X132989072Y-77968557D01*
X133008319Y-77724000D01*
X132989072Y-77479443D01*
X132975682Y-77423667D01*
X132951649Y-77323563D01*
X132931805Y-77240908D01*
X132837927Y-77014268D01*
X132729168Y-76836788D01*
X132710630Y-76768255D01*
X132732087Y-76700578D01*
X132761035Y-76670128D01*
X132787730Y-76650121D01*
X132858261Y-76597261D01*
X132945615Y-76480705D01*
X132996745Y-76344316D01*
X133003500Y-76282134D01*
X133003500Y-76188183D01*
X174432389Y-76188183D01*
X174433912Y-76196607D01*
X174446292Y-76200000D01*
X175495885Y-76200000D01*
X175511124Y-76195525D01*
X175512329Y-76194135D01*
X175514000Y-76186452D01*
X175514000Y-75137102D01*
X175510082Y-75123758D01*
X175495806Y-75121771D01*
X175457324Y-75127660D01*
X175447288Y-75130051D01*
X175244868Y-75196212D01*
X175235359Y-75200209D01*
X175046463Y-75298542D01*
X175037738Y-75304036D01*
X174867433Y-75431905D01*
X174859726Y-75438748D01*
X174712590Y-75592717D01*
X174706104Y-75600727D01*
X174586098Y-75776649D01*
X174581000Y-75785623D01*
X174491338Y-75978783D01*
X174487775Y-75988470D01*
X174432389Y-76188183D01*
X133003500Y-76188183D01*
X133003500Y-74085866D01*
X132996745Y-74023684D01*
X132945615Y-73887295D01*
X132858261Y-73770739D01*
X132741705Y-73683385D01*
X132605316Y-73632255D01*
X132543134Y-73625500D01*
X130346866Y-73625500D01*
X130284684Y-73632255D01*
X130148295Y-73683385D01*
X130031739Y-73770739D01*
X129944385Y-73887295D01*
X129893255Y-74023684D01*
X129886500Y-74085866D01*
X129886500Y-76282134D01*
X129893255Y-76344316D01*
X129944385Y-76480705D01*
X130031739Y-76597261D01*
X130102270Y-76650121D01*
X130128965Y-76670128D01*
X130171479Y-76726988D01*
X130176504Y-76797806D01*
X130160832Y-76836788D01*
X130052073Y-77014268D01*
X129958195Y-77240908D01*
X129938351Y-77323563D01*
X129914319Y-77423667D01*
X129900928Y-77479443D01*
X129881681Y-77724000D01*
X127517492Y-77724000D01*
X127513156Y-70866000D01*
X164998771Y-70866000D01*
X165017635Y-71045475D01*
X165073401Y-71217107D01*
X165163633Y-71373393D01*
X165284387Y-71507504D01*
X165430385Y-71613578D01*
X165436413Y-71616262D01*
X165436415Y-71616263D01*
X165589217Y-71684295D01*
X165595248Y-71686980D01*
X165683508Y-71705740D01*
X165765311Y-71723128D01*
X165765315Y-71723128D01*
X165771768Y-71724500D01*
X165952232Y-71724500D01*
X165958685Y-71723128D01*
X165958689Y-71723128D01*
X166040492Y-71705740D01*
X166128752Y-71686980D01*
X166134783Y-71684295D01*
X166287585Y-71616263D01*
X166287587Y-71616262D01*
X166293615Y-71613578D01*
X166439613Y-71507504D01*
X166560367Y-71373393D01*
X166650599Y-71217107D01*
X166706365Y-71045475D01*
X166725229Y-70866000D01*
X166706365Y-70686525D01*
X166650599Y-70514893D01*
X166560367Y-70358607D01*
X166439613Y-70224496D01*
X166293615Y-70118422D01*
X166287587Y-70115738D01*
X166287585Y-70115737D01*
X166134783Y-70047705D01*
X166134781Y-70047705D01*
X166128752Y-70045020D01*
X166040492Y-70026260D01*
X165958689Y-70008872D01*
X165958685Y-70008872D01*
X165952232Y-70007500D01*
X165771768Y-70007500D01*
X165765315Y-70008872D01*
X165765311Y-70008872D01*
X165683508Y-70026260D01*
X165595248Y-70045020D01*
X165589219Y-70047704D01*
X165589217Y-70047705D01*
X165436416Y-70115737D01*
X165436414Y-70115738D01*
X165430386Y-70118422D01*
X165425045Y-70122302D01*
X165425044Y-70122303D01*
X165289731Y-70220613D01*
X165289729Y-70220615D01*
X165284387Y-70224496D01*
X165163633Y-70358607D01*
X165073401Y-70514893D01*
X165017635Y-70686525D01*
X164998771Y-70866000D01*
X127513156Y-70866000D01*
X127511071Y-67567386D01*
X130917759Y-67567386D01*
X130925216Y-67577753D01*
X131164935Y-67771874D01*
X131170272Y-67775751D01*
X131490685Y-67983830D01*
X131496394Y-67987127D01*
X131836811Y-68160578D01*
X131842836Y-68163260D01*
X132199502Y-68300171D01*
X132205784Y-68302212D01*
X132574816Y-68401094D01*
X132581266Y-68402465D01*
X132958629Y-68462234D01*
X132965167Y-68462920D01*
X133346699Y-68482916D01*
X133353301Y-68482916D01*
X133734833Y-68462920D01*
X133741371Y-68462234D01*
X134118734Y-68402465D01*
X134125184Y-68401094D01*
X134494216Y-68302212D01*
X134500498Y-68300171D01*
X134857164Y-68163260D01*
X134863189Y-68160578D01*
X135203606Y-67987127D01*
X135209315Y-67983830D01*
X135529728Y-67775751D01*
X135535065Y-67771874D01*
X135773835Y-67578522D01*
X135781527Y-67567386D01*
X169017759Y-67567386D01*
X169025216Y-67577753D01*
X169264935Y-67771874D01*
X169270272Y-67775751D01*
X169590685Y-67983830D01*
X169596394Y-67987127D01*
X169936811Y-68160578D01*
X169942836Y-68163260D01*
X170299502Y-68300171D01*
X170305784Y-68302212D01*
X170674816Y-68401094D01*
X170681266Y-68402465D01*
X171058629Y-68462234D01*
X171065167Y-68462920D01*
X171446699Y-68482916D01*
X171453301Y-68482916D01*
X171834833Y-68462920D01*
X171841371Y-68462234D01*
X172218734Y-68402465D01*
X172225184Y-68401094D01*
X172594216Y-68302212D01*
X172600498Y-68300171D01*
X172957164Y-68163260D01*
X172963189Y-68160578D01*
X173303606Y-67987127D01*
X173309315Y-67983830D01*
X173629728Y-67775751D01*
X173635065Y-67771874D01*
X173873835Y-67578522D01*
X173882300Y-67566267D01*
X173875966Y-67555176D01*
X171462812Y-65142022D01*
X171448868Y-65134408D01*
X171447035Y-65134539D01*
X171440420Y-65138790D01*
X169024900Y-67554310D01*
X169017759Y-67567386D01*
X135781527Y-67567386D01*
X135782300Y-67566267D01*
X135775966Y-67555176D01*
X133362812Y-65142022D01*
X133348868Y-65134408D01*
X133347035Y-65134539D01*
X133340420Y-65138790D01*
X130924900Y-67554310D01*
X130917759Y-67567386D01*
X127511071Y-67567386D01*
X127509305Y-64773301D01*
X129637084Y-64773301D01*
X129657080Y-65154833D01*
X129657766Y-65161371D01*
X129717535Y-65538734D01*
X129718906Y-65545184D01*
X129817788Y-65914216D01*
X129819829Y-65920498D01*
X129956740Y-66277164D01*
X129959422Y-66283189D01*
X130132872Y-66623603D01*
X130136169Y-66629313D01*
X130344253Y-66949735D01*
X130348123Y-66955061D01*
X130541478Y-67193835D01*
X130553733Y-67202300D01*
X130564824Y-67195966D01*
X132977978Y-64782812D01*
X132984356Y-64771132D01*
X133714408Y-64771132D01*
X133714539Y-64772965D01*
X133718790Y-64779580D01*
X136134310Y-67195100D01*
X136147386Y-67202241D01*
X136157753Y-67194784D01*
X136351877Y-66955061D01*
X136355747Y-66949735D01*
X136563831Y-66629313D01*
X136567128Y-66623603D01*
X136740578Y-66283189D01*
X136743260Y-66277164D01*
X136880171Y-65920498D01*
X136882212Y-65914216D01*
X136981094Y-65545184D01*
X136982465Y-65538734D01*
X137042234Y-65161371D01*
X137042920Y-65154833D01*
X137062916Y-64773301D01*
X167737084Y-64773301D01*
X167757080Y-65154833D01*
X167757766Y-65161371D01*
X167817535Y-65538734D01*
X167818906Y-65545184D01*
X167917788Y-65914216D01*
X167919829Y-65920498D01*
X168056740Y-66277164D01*
X168059422Y-66283189D01*
X168232872Y-66623603D01*
X168236169Y-66629313D01*
X168444253Y-66949735D01*
X168448123Y-66955061D01*
X168641478Y-67193835D01*
X168653733Y-67202300D01*
X168664824Y-67195966D01*
X171077978Y-64782812D01*
X171084356Y-64771132D01*
X171814408Y-64771132D01*
X171814539Y-64772965D01*
X171818790Y-64779580D01*
X174234310Y-67195100D01*
X174247386Y-67202241D01*
X174257753Y-67194784D01*
X174451877Y-66955061D01*
X174455747Y-66949735D01*
X174663831Y-66629313D01*
X174667128Y-66623603D01*
X174840578Y-66283189D01*
X174843260Y-66277164D01*
X174980171Y-65920498D01*
X174982212Y-65914216D01*
X175081094Y-65545184D01*
X175082465Y-65538734D01*
X175142234Y-65161371D01*
X175142920Y-65154833D01*
X175162916Y-64773301D01*
X175162916Y-64766699D01*
X175142920Y-64385167D01*
X175142234Y-64378629D01*
X175082465Y-64001266D01*
X175081094Y-63994816D01*
X174982212Y-63625784D01*
X174980171Y-63619502D01*
X174843260Y-63262836D01*
X174840578Y-63256811D01*
X174667128Y-62916397D01*
X174663831Y-62910687D01*
X174455747Y-62590265D01*
X174451877Y-62584939D01*
X174258522Y-62346165D01*
X174246267Y-62337700D01*
X174235176Y-62344034D01*
X171822022Y-64757188D01*
X171814408Y-64771132D01*
X171084356Y-64771132D01*
X171085592Y-64768868D01*
X171085461Y-64767035D01*
X171081210Y-64760420D01*
X168665690Y-62344900D01*
X168652614Y-62337759D01*
X168642247Y-62345216D01*
X168448123Y-62584939D01*
X168444253Y-62590265D01*
X168236169Y-62910687D01*
X168232872Y-62916397D01*
X168059422Y-63256811D01*
X168056740Y-63262836D01*
X167919829Y-63619502D01*
X167917788Y-63625784D01*
X167818906Y-63994816D01*
X167817535Y-64001266D01*
X167757766Y-64378629D01*
X167757080Y-64385167D01*
X167737084Y-64766699D01*
X167737084Y-64773301D01*
X137062916Y-64773301D01*
X137062916Y-64766699D01*
X137042920Y-64385167D01*
X137042234Y-64378629D01*
X136982465Y-64001266D01*
X136981094Y-63994816D01*
X136882212Y-63625784D01*
X136880171Y-63619502D01*
X136743260Y-63262836D01*
X136740578Y-63256811D01*
X136567128Y-62916397D01*
X136563831Y-62910687D01*
X136355747Y-62590265D01*
X136351877Y-62584939D01*
X136158522Y-62346165D01*
X136146267Y-62337700D01*
X136135176Y-62344034D01*
X133722022Y-64757188D01*
X133714408Y-64771132D01*
X132984356Y-64771132D01*
X132985592Y-64768868D01*
X132985461Y-64767035D01*
X132981210Y-64760420D01*
X130565690Y-62344900D01*
X130552614Y-62337759D01*
X130542247Y-62345216D01*
X130348123Y-62584939D01*
X130344253Y-62590265D01*
X130136169Y-62910687D01*
X130132872Y-62916397D01*
X129959422Y-63256811D01*
X129956740Y-63262836D01*
X129819829Y-63619502D01*
X129817788Y-63625784D01*
X129718906Y-63994816D01*
X129717535Y-64001266D01*
X129657766Y-64378629D01*
X129657080Y-64385167D01*
X129637084Y-64766699D01*
X129637084Y-64773301D01*
X127509305Y-64773301D01*
X127508534Y-63553130D01*
X127510280Y-63532147D01*
X127512769Y-63517351D01*
X127512769Y-63517346D01*
X127513576Y-63512552D01*
X127513729Y-63500000D01*
X127513040Y-63495185D01*
X127513039Y-63495177D01*
X127511431Y-63483947D01*
X127510287Y-63460409D01*
X127526823Y-63093947D01*
X127527846Y-63082634D01*
X127578345Y-62711621D01*
X127581900Y-62685505D01*
X127583937Y-62674335D01*
X127601905Y-62596002D01*
X127659210Y-62346165D01*
X127673538Y-62283698D01*
X127676574Y-62272752D01*
X127774226Y-61973733D01*
X130917700Y-61973733D01*
X130924034Y-61984824D01*
X133337188Y-64397978D01*
X133351132Y-64405592D01*
X133352965Y-64405461D01*
X133359580Y-64401210D01*
X135775100Y-61985690D01*
X135781630Y-61973733D01*
X169017700Y-61973733D01*
X169024034Y-61984824D01*
X171437188Y-64397978D01*
X171451132Y-64405592D01*
X171452965Y-64405461D01*
X171459580Y-64401210D01*
X173875100Y-61985690D01*
X173882241Y-61972614D01*
X173874784Y-61962247D01*
X173635065Y-61768126D01*
X173629728Y-61764249D01*
X173309315Y-61556170D01*
X173303606Y-61552873D01*
X172963189Y-61379422D01*
X172957164Y-61376740D01*
X172600498Y-61239829D01*
X172594216Y-61237788D01*
X172225184Y-61138906D01*
X172218734Y-61137535D01*
X171841371Y-61077766D01*
X171834833Y-61077080D01*
X171453301Y-61057084D01*
X171446699Y-61057084D01*
X171065167Y-61077080D01*
X171058629Y-61077766D01*
X170681266Y-61137535D01*
X170674816Y-61138906D01*
X170305784Y-61237788D01*
X170299502Y-61239829D01*
X169942836Y-61376740D01*
X169936811Y-61379422D01*
X169596397Y-61552872D01*
X169590687Y-61556169D01*
X169270265Y-61764253D01*
X169264939Y-61768123D01*
X169026165Y-61961478D01*
X169017700Y-61973733D01*
X135781630Y-61973733D01*
X135782241Y-61972614D01*
X135774784Y-61962247D01*
X135535065Y-61768126D01*
X135529728Y-61764249D01*
X135209315Y-61556170D01*
X135203606Y-61552873D01*
X134863189Y-61379422D01*
X134857164Y-61376740D01*
X134500498Y-61239829D01*
X134494216Y-61237788D01*
X134125184Y-61138906D01*
X134118734Y-61137535D01*
X133741371Y-61077766D01*
X133734833Y-61077080D01*
X133353301Y-61057084D01*
X133346699Y-61057084D01*
X132965167Y-61077080D01*
X132958629Y-61077766D01*
X132581266Y-61137535D01*
X132574816Y-61138906D01*
X132205784Y-61237788D01*
X132199502Y-61239829D01*
X131842836Y-61376740D01*
X131836811Y-61379422D01*
X131496397Y-61552872D01*
X131490687Y-61556169D01*
X131170265Y-61764253D01*
X131164939Y-61768123D01*
X130926165Y-61961478D01*
X130917700Y-61973733D01*
X127774226Y-61973733D01*
X127800994Y-61891766D01*
X127805003Y-61881141D01*
X127963229Y-61512917D01*
X127968180Y-61502693D01*
X128158929Y-61150213D01*
X128164780Y-61140476D01*
X128336079Y-60882532D01*
X128386508Y-60806596D01*
X128393193Y-60797452D01*
X128644096Y-60484893D01*
X128651589Y-60476375D01*
X128852792Y-60267461D01*
X128929617Y-60187691D01*
X128937858Y-60179873D01*
X129240740Y-59917416D01*
X129249652Y-59910371D01*
X129308861Y-59867759D01*
X129574955Y-59676252D01*
X129584461Y-59670041D01*
X129929513Y-59466180D01*
X129939544Y-59460848D01*
X130301568Y-59288886D01*
X130312038Y-59284480D01*
X130534262Y-59202539D01*
X130688071Y-59145825D01*
X130698884Y-59142383D01*
X130858458Y-59099407D01*
X131085882Y-59038159D01*
X131096973Y-59035702D01*
X131491793Y-58966755D01*
X131503060Y-58965308D01*
X131902466Y-58932202D01*
X131913818Y-58931775D01*
X132276920Y-58934495D01*
X132301871Y-58937181D01*
X132304941Y-58937826D01*
X132304946Y-58937826D01*
X132313733Y-58939672D01*
X132362414Y-58935895D01*
X132372130Y-58935517D01*
X145989413Y-58933149D01*
X172670668Y-58928509D01*
X172690075Y-58930009D01*
G37*
%TD.AperFunction*%
%TD*%
M02*
