%TF.GenerationSoftware,KiCad,Pcbnew,7.0.1*%
%TF.CreationDate,2024-01-06T20:51:44-05:00*%
%TF.ProjectId,Io-v2-Board,496f2d76-322d-4426-9f61-72642e6b6963,rev?*%
%TF.SameCoordinates,Original*%
%TF.FileFunction,Soldermask,Top*%
%TF.FilePolarity,Negative*%
%FSLAX46Y46*%
G04 Gerber Fmt 4.6, Leading zero omitted, Abs format (unit mm)*
G04 Created by KiCad (PCBNEW 7.0.1) date 2024-01-06 20:51:44*
%MOMM*%
%LPD*%
G01*
G04 APERTURE LIST*
G04 Aperture macros list*
%AMRoundRect*
0 Rectangle with rounded corners*
0 $1 Rounding radius*
0 $2 $3 $4 $5 $6 $7 $8 $9 X,Y pos of 4 corners*
0 Add a 4 corners polygon primitive as box body*
4,1,4,$2,$3,$4,$5,$6,$7,$8,$9,$2,$3,0*
0 Add four circle primitives for the rounded corners*
1,1,$1+$1,$2,$3*
1,1,$1+$1,$4,$5*
1,1,$1+$1,$6,$7*
1,1,$1+$1,$8,$9*
0 Add four rect primitives between the rounded corners*
20,1,$1+$1,$2,$3,$4,$5,0*
20,1,$1+$1,$4,$5,$6,$7,0*
20,1,$1+$1,$6,$7,$8,$9,0*
20,1,$1+$1,$8,$9,$2,$3,0*%
%AMRotRect*
0 Rectangle, with rotation*
0 The origin of the aperture is its center*
0 $1 length*
0 $2 width*
0 $3 Rotation angle, in degrees counterclockwise*
0 Add horizontal line*
21,1,$1,$2,0,0,$3*%
G04 Aperture macros list end*
%ADD10RoundRect,0.225000X0.225000X0.250000X-0.225000X0.250000X-0.225000X-0.250000X0.225000X-0.250000X0*%
%ADD11RoundRect,0.250000X0.250000X0.475000X-0.250000X0.475000X-0.250000X-0.475000X0.250000X-0.475000X0*%
%ADD12C,0.650000*%
%ADD13RoundRect,0.102000X-0.750000X0.850000X-0.750000X-0.850000X0.750000X-0.850000X0.750000X0.850000X0*%
%ADD14RoundRect,0.102000X-1.000000X-1.000000X1.000000X-1.000000X1.000000X1.000000X-1.000000X1.000000X0*%
%ADD15C,2.000000*%
%ADD16R,0.375000X0.500000*%
%ADD17R,0.300000X0.650000*%
%ADD18C,2.700000*%
%ADD19RoundRect,0.000001X-0.750000X-0.900000X0.750000X-0.900000X0.750000X0.900000X-0.750000X0.900000X0*%
%ADD20RoundRect,0.000001X-0.900000X-0.750000X0.900000X-0.750000X0.900000X0.750000X-0.900000X0.750000X0*%
%ADD21RoundRect,0.102000X1.000000X1.000000X-1.000000X1.000000X-1.000000X-1.000000X1.000000X-1.000000X0*%
%ADD22RotRect,0.406400X0.508000X45.000000*%
%ADD23RotRect,0.406400X0.508000X315.000000*%
%ADD24RotRect,0.376682X0.351536X225.000000*%
%ADD25RotRect,0.376682X0.351536X315.000000*%
%ADD26RoundRect,0.218750X0.256250X-0.218750X0.256250X0.218750X-0.256250X0.218750X-0.256250X-0.218750X0*%
%ADD27RotRect,0.355600X0.457200X45.000000*%
%ADD28RotRect,0.355600X0.457200X315.000000*%
%ADD29R,1.498600X0.889000*%
%ADD30R,0.889000X1.498600*%
%ADD31R,0.889000X0.889000*%
%ADD32RotRect,0.351536X0.376682X45.000000*%
%ADD33RotRect,0.351536X0.376682X315.000000*%
%ADD34C,1.524000*%
%ADD35RoundRect,0.102000X2.280000X-0.500000X2.280000X0.500000X-2.280000X0.500000X-2.280000X-0.500000X0*%
%ADD36RoundRect,0.102000X2.280000X-0.425000X2.280000X0.425000X-2.280000X0.425000X-2.280000X-0.425000X0*%
G04 APERTURE END LIST*
D10*
%TO.C,C19*%
X105042000Y-36703000D03*
X103492000Y-36703000D03*
%TD*%
D11*
%TO.C,C13*%
X105344000Y-38735000D03*
X103444000Y-38735000D03*
%TD*%
D12*
%TO.C,J2*%
X100327000Y-68645000D03*
X100327000Y-62865000D03*
%TD*%
D13*
%TO.C,LS1*%
X111509000Y-116586000D03*
X121409000Y-116586000D03*
%TD*%
D14*
%TO.C,S1*%
X131795000Y-92202000D03*
X137795000Y-92202000D03*
%TD*%
D15*
%TO.C,J1*%
X135636000Y-58955000D03*
X135636000Y-53875000D03*
X135636000Y-48795000D03*
%TD*%
D16*
%TO.C,U5*%
X104745500Y-60159000D03*
D17*
X105283000Y-60234000D03*
D16*
X105820500Y-60159000D03*
X105820500Y-58459000D03*
D17*
X105283000Y-58384000D03*
D16*
X104745500Y-58459000D03*
%TD*%
D15*
%TO.C,J4*%
X98683000Y-98933000D03*
X98683000Y-104013000D03*
X98683000Y-109093000D03*
X98683000Y-114173000D03*
%TD*%
D18*
%TO.C,H3*%
X135636000Y-121666000D03*
%TD*%
D19*
%TO.C,U9*%
X112605000Y-84844000D03*
X114505000Y-84844000D03*
X116405000Y-84844000D03*
X118305000Y-84844000D03*
X120205000Y-84844000D03*
D20*
X123005000Y-87644000D03*
X123005000Y-89544000D03*
X123005000Y-91444000D03*
X123005000Y-93344000D03*
X123005000Y-95244000D03*
D19*
X120205000Y-98044000D03*
X118305000Y-98044000D03*
X116405000Y-98044000D03*
X114505000Y-98044000D03*
X112605000Y-98044000D03*
D20*
X109805000Y-95244000D03*
X109805000Y-93344000D03*
X109805000Y-91444000D03*
X109805000Y-89544000D03*
X109805000Y-87644000D03*
%TD*%
D21*
%TO.C,S2*%
X101933000Y-92202000D03*
X95933000Y-92202000D03*
%TD*%
D22*
%TO.C,U4*%
X115855193Y-61106336D03*
X115395575Y-61565954D03*
X114935954Y-62025575D03*
X114476336Y-62485193D03*
D23*
X114476336Y-63620807D03*
X114935954Y-64080425D03*
X115395575Y-64540046D03*
X115855193Y-64999664D03*
D22*
X116990807Y-64999664D03*
X117450425Y-64540046D03*
X117910046Y-64080425D03*
X118369664Y-63620807D03*
D23*
X118369664Y-62485193D03*
X117910046Y-62025575D03*
X117450425Y-61565954D03*
X116990807Y-61106336D03*
%TD*%
D18*
%TO.C,H2*%
X135636000Y-39751000D03*
%TD*%
D24*
%TO.C,U7*%
X111550662Y-68768000D03*
X111197107Y-68414446D03*
X110843554Y-68060893D03*
X110490000Y-67707338D03*
D25*
X110136446Y-68060893D03*
X109782893Y-68414446D03*
D24*
X109429338Y-68768000D03*
X109782893Y-69121554D03*
X110136446Y-69475107D03*
X110490000Y-69828662D03*
D25*
X110843554Y-69475107D03*
X111197107Y-69121554D03*
%TD*%
D15*
%TO.C,J3*%
X98302000Y-48895000D03*
X98302000Y-53975000D03*
%TD*%
D26*
%TO.C,D2*%
X130302000Y-40919500D03*
X130302000Y-39344500D03*
%TD*%
D15*
%TO.C,J5*%
X135001000Y-114073000D03*
X135001000Y-108993000D03*
X135001000Y-103913000D03*
X135001000Y-98833000D03*
%TD*%
D18*
%TO.C,H4*%
X98298000Y-121666000D03*
%TD*%
D27*
%TO.C,U2*%
X116255454Y-72392884D03*
X115901811Y-72746526D03*
X115548169Y-73100169D03*
X115194526Y-73453811D03*
X114840884Y-73807454D03*
D28*
X115194526Y-74496189D03*
X115548169Y-74849831D03*
X115901811Y-75203474D03*
D27*
X116590546Y-75557116D03*
X116944189Y-75203474D03*
X117297831Y-74849831D03*
X117651474Y-74496189D03*
X118005116Y-74142546D03*
D28*
X117651474Y-73453811D03*
X117297831Y-73100169D03*
X116944189Y-72746526D03*
%TD*%
D29*
%TO.C,U1*%
X107673000Y-36449000D03*
X107673000Y-37719000D03*
X107673000Y-38989000D03*
X107673000Y-40259000D03*
X107673000Y-41529000D03*
X107673000Y-42799000D03*
X107673000Y-44069000D03*
X107673000Y-45339000D03*
X107673000Y-46609000D03*
X107673000Y-47879000D03*
X107673000Y-49149000D03*
X107673000Y-50419000D03*
X107673000Y-51689000D03*
X107673000Y-52959000D03*
D30*
X109438000Y-54209000D03*
X110708000Y-54209000D03*
X111978000Y-54209000D03*
X113248000Y-54209000D03*
X114518000Y-54209000D03*
X115788000Y-54209000D03*
X117058000Y-54209000D03*
X118328000Y-54209000D03*
X119598000Y-54209000D03*
X120868000Y-54209000D03*
X122138000Y-54209000D03*
X123408000Y-54209000D03*
D29*
X125173000Y-52959000D03*
X125173000Y-51689000D03*
X125173000Y-50419000D03*
X125173000Y-49149000D03*
X125173000Y-47879000D03*
X125173000Y-46609000D03*
X125173000Y-45339000D03*
X125173000Y-44069000D03*
X125173000Y-42799000D03*
X125173000Y-41529000D03*
X125173000Y-40259000D03*
X125173000Y-38989000D03*
X125173000Y-37719000D03*
X125173000Y-36449000D03*
D31*
X115173000Y-44169000D03*
X115173000Y-42769000D03*
X113773000Y-42769000D03*
X113773000Y-44169000D03*
X113773000Y-45569000D03*
X115173000Y-45569000D03*
X116573000Y-45569000D03*
X116573000Y-44169000D03*
X116573000Y-42769000D03*
%TD*%
D18*
%TO.C,H1*%
X98298000Y-39751000D03*
%TD*%
D32*
%TO.C,U6*%
X122781504Y-68005951D03*
X122427951Y-68359504D03*
D33*
X122251175Y-68999720D03*
X122604728Y-69353272D03*
X122958280Y-69706825D03*
D32*
X123598496Y-69530049D03*
X123952049Y-69176496D03*
D33*
X124128825Y-68536280D03*
X123775272Y-68182728D03*
X123421720Y-67829175D03*
%TD*%
D34*
%TO.C,C2*%
X110871000Y-101732000D03*
X122671000Y-101732000D03*
%TD*%
D35*
%TO.C,J7*%
X137527500Y-80058000D03*
X137527500Y-85598000D03*
D36*
X137527500Y-82828000D03*
%TD*%
M02*
