%TF.GenerationSoftware,KiCad,Pcbnew,7.0.1*%
%TF.CreationDate,2024-01-06T20:51:44-05:00*%
%TF.ProjectId,Io-v2-Board,496f2d76-322d-4426-9f61-72642e6b6963,rev?*%
%TF.SameCoordinates,Original*%
%TF.FileFunction,Copper,L3,Inr*%
%TF.FilePolarity,Positive*%
%FSLAX46Y46*%
G04 Gerber Fmt 4.6, Leading zero omitted, Abs format (unit mm)*
G04 Created by KiCad (PCBNEW 7.0.1) date 2024-01-06 20:51:44*
%MOMM*%
%LPD*%
G01*
G04 APERTURE LIST*
G04 Aperture macros list*
%AMRoundRect*
0 Rectangle with rounded corners*
0 $1 Rounding radius*
0 $2 $3 $4 $5 $6 $7 $8 $9 X,Y pos of 4 corners*
0 Add a 4 corners polygon primitive as box body*
4,1,4,$2,$3,$4,$5,$6,$7,$8,$9,$2,$3,0*
0 Add four circle primitives for the rounded corners*
1,1,$1+$1,$2,$3*
1,1,$1+$1,$4,$5*
1,1,$1+$1,$6,$7*
1,1,$1+$1,$8,$9*
0 Add four rect primitives between the rounded corners*
20,1,$1+$1,$2,$3,$4,$5,0*
20,1,$1+$1,$4,$5,$6,$7,0*
20,1,$1+$1,$6,$7,$8,$9,0*
20,1,$1+$1,$8,$9,$2,$3,0*%
G04 Aperture macros list end*
%TA.AperFunction,ComponentPad*%
%ADD10RoundRect,0.250000X-0.650000X0.250000X-0.650000X-0.250000X0.650000X-0.250000X0.650000X0.250000X0*%
%TD*%
%TA.AperFunction,ComponentPad*%
%ADD11O,2.100000X1.000000*%
%TD*%
%TA.AperFunction,ComponentPad*%
%ADD12C,2.000000*%
%TD*%
%TA.AperFunction,ComponentPad*%
%ADD13C,1.524000*%
%TD*%
%TA.AperFunction,ViaPad*%
%ADD14C,0.700000*%
%TD*%
%TA.AperFunction,ViaPad*%
%ADD15C,0.800000*%
%TD*%
G04 APERTURE END LIST*
D10*
%TO.N,GND*%
%TO.C,J2*%
X96647000Y-70075000D03*
X96647000Y-61435000D03*
D11*
X100827000Y-70075000D03*
X100827000Y-61435000D03*
%TD*%
D12*
%TO.N,/VBAT*%
%TO.C,J1*%
X135636000Y-58955000D03*
%TO.N,GND*%
X135636000Y-53875000D03*
%TO.N,/VSW*%
X135636000Y-48795000D03*
%TD*%
%TO.N,/PYRO1_SW*%
%TO.C,J4*%
X98683000Y-98933000D03*
%TO.N,/VPYRO*%
X98683000Y-104013000D03*
%TO.N,/PYRO2_SW*%
X98683000Y-109093000D03*
%TO.N,/VPYRO*%
X98683000Y-114173000D03*
%TD*%
%TO.N,/VBAT*%
%TO.C,J3*%
X98302000Y-48895000D03*
%TO.N,GND*%
X98302000Y-53975000D03*
%TD*%
%TO.N,/PYRO3_SW*%
%TO.C,J5*%
X135001000Y-114073000D03*
%TO.N,/VPYRO*%
X135001000Y-108993000D03*
%TO.N,/PYRO4_SW*%
X135001000Y-103913000D03*
%TO.N,/VPYRO*%
X135001000Y-98833000D03*
%TD*%
D13*
%TO.N,/VPYRO*%
%TO.C,C2*%
X110871000Y-101732000D03*
%TO.N,GND*%
X122671000Y-101732000D03*
%TD*%
D14*
%TO.N,GND*%
X102870000Y-37592000D03*
%TO.N,/BOOT*%
X127000000Y-79121000D03*
X125423500Y-79219500D03*
%TO.N,Net-(U11-ANT)*%
X126873000Y-82828000D03*
%TO.N,GND*%
X112649000Y-45720000D03*
X112649000Y-42164000D03*
X119380000Y-38189500D03*
%TO.N,/VSW_DET*%
X123886832Y-39054168D03*
%TO.N,/VIN*%
X121696340Y-42888500D03*
X121793000Y-44577000D03*
%TO.N,GND*%
X111379000Y-39370000D03*
X116586000Y-59563000D03*
X131191000Y-115189000D03*
X112649000Y-43942000D03*
X109347000Y-37719000D03*
X129540000Y-101346000D03*
X104062500Y-65187881D03*
D15*
X100965000Y-106299000D03*
D14*
X136525000Y-90551000D03*
X110744000Y-74168000D03*
X120396000Y-96520000D03*
D15*
X103759000Y-109982000D03*
D14*
X112649000Y-96520000D03*
D15*
X106807000Y-67437000D03*
D14*
X114300000Y-73660000D03*
X129286000Y-90297000D03*
X104377988Y-59389820D03*
X124841000Y-68014500D03*
X112649000Y-44831000D03*
X128270000Y-37387000D03*
X126492000Y-55499000D03*
D15*
X100330000Y-113157000D03*
D14*
X120762500Y-68834000D03*
D15*
X101346000Y-104013000D03*
D14*
X131445000Y-107061000D03*
X134620000Y-80010000D03*
X111379000Y-95250000D03*
X111252000Y-82677000D03*
X112817766Y-86401766D03*
X117046692Y-74056862D03*
X120904000Y-86868000D03*
X117015647Y-70627147D03*
X129283477Y-111738092D03*
X97536000Y-90424000D03*
X122682000Y-61908000D03*
X122666459Y-97906693D03*
D15*
X104394000Y-99822000D03*
D14*
X106807000Y-96139000D03*
X112649000Y-43053000D03*
X132715000Y-97028000D03*
X130556000Y-50165000D03*
X132294500Y-104902000D03*
X115189000Y-57785000D03*
X111252000Y-88011000D03*
X118618000Y-47498000D03*
X116459000Y-64643000D03*
X135531489Y-43770385D03*
D15*
X103886000Y-90424000D03*
D14*
X112903000Y-116713000D03*
X121920000Y-84709000D03*
X100126500Y-67691000D03*
X102184307Y-60121693D03*
X111379000Y-93472000D03*
X134620000Y-85598000D03*
D15*
X108712000Y-69469000D03*
D14*
X126492000Y-60452000D03*
X102421516Y-97095484D03*
D15*
%TO.N,+3.3V*%
X127381000Y-90297000D03*
X105550000Y-90424000D03*
D14*
X136017000Y-89789000D03*
X123839767Y-66816767D03*
X116967000Y-46563002D03*
X106233000Y-37719000D03*
X110109000Y-70485000D03*
D15*
X121285000Y-90678000D03*
D14*
X120269000Y-100330000D03*
X118745000Y-122809000D03*
X128778000Y-55499000D03*
X119634000Y-52451000D03*
D15*
X118364000Y-85979000D03*
D14*
X126604500Y-58547000D03*
D15*
X111125000Y-90551000D03*
D14*
X118364000Y-72771000D03*
X116459000Y-61595000D03*
X127889000Y-92583000D03*
X130302000Y-38227000D03*
%TO.N,/VBUS*%
X103074500Y-63971119D03*
X104416017Y-61968483D03*
X102876500Y-67905500D03*
X120269000Y-44704000D03*
X109093000Y-52832000D03*
X107188000Y-58420000D03*
%TO.N,/VSW_D*%
X119988500Y-41719500D03*
X123063000Y-40513000D03*
D15*
%TO.N,/PYRO1*%
X103378000Y-45339000D03*
D14*
%TO.N,/PYRO1_SW*%
X99333500Y-100711000D03*
D15*
%TO.N,/PYRO2*%
X101457662Y-59324338D03*
X99822000Y-60198000D03*
X103213683Y-46324904D03*
X97440500Y-95153096D03*
X100330000Y-103124000D03*
D14*
%TO.N,/PYRO3*%
X126873000Y-113157000D03*
X128563500Y-113538000D03*
D15*
X103632000Y-48095500D03*
D14*
%TO.N,/PYRO3_SW*%
X131953000Y-112776000D03*
D15*
%TO.N,/PYRO4*%
X100838000Y-96430500D03*
X100584000Y-90170000D03*
X118410766Y-114718500D03*
X116586000Y-115824000D03*
X102363273Y-104929559D03*
X104267000Y-49276000D03*
X103584500Y-88138000D03*
D14*
%TO.N,/PYRO4_SW*%
X134239000Y-100965000D03*
%TO.N,/BOOT*%
X105283000Y-82169000D03*
X108261500Y-79121000D03*
X128778000Y-65278000D03*
X127253977Y-61809466D03*
%TO.N,/BUZZ_OUT*%
X130048000Y-86360000D03*
X123317000Y-109855000D03*
X130048000Y-63627000D03*
X122047000Y-123190000D03*
X128553500Y-63627000D03*
X127254000Y-63627000D03*
X130048000Y-84074000D03*
%TO.N,Net-(Q6-S)*%
X121031000Y-119888000D03*
%TO.N,/RST*%
X121680500Y-60579000D03*
X120381500Y-59563000D03*
X128778000Y-84074000D03*
X125476000Y-75184000D03*
X113298767Y-51674233D03*
X133858000Y-91059000D03*
X118110000Y-69533500D03*
%TO.N,/RF_DIO0*%
X126294500Y-91821000D03*
D15*
%TO.N,/SPI2_SCL*%
X113947500Y-59944000D03*
X108839000Y-50419000D03*
X118745000Y-65278000D03*
X117150765Y-63633029D03*
%TO.N,/SPI2_MOSI*%
X113284000Y-65024000D03*
X115357067Y-62741702D03*
X114300000Y-75438000D03*
X117602000Y-67691000D03*
D14*
%TO.N,/SPI2_MISO*%
X121871266Y-67485734D03*
X121412000Y-70206684D03*
%TO.N,/ACC_CS*%
X127000000Y-70485000D03*
X122936000Y-76581000D03*
%TO.N,/GYRO_CS*%
X119267767Y-58659233D03*
X115951000Y-63881000D03*
D15*
%TO.N,/GYRO_PLLFILT*%
X118999000Y-61722000D03*
D14*
%TO.N,/MAG_CS*%
X117616766Y-57008234D03*
X113157000Y-59309000D03*
X114597000Y-56896000D03*
X111760000Y-67564000D03*
D15*
%TO.N,/MAG_C*%
X109822971Y-67277971D03*
D14*
%TO.N,/RF_RST*%
X127254500Y-62708968D03*
%TO.N,/SPI3_MISO*%
X126604500Y-54356000D03*
%TO.N,/SPI3_MOSI*%
X123317000Y-51562000D03*
%TO.N,/SPI3_SCL*%
X121285000Y-50800000D03*
X129159000Y-53086000D03*
X128270000Y-79121000D03*
X123571000Y-49911000D03*
%TO.N,/I2C_SDA*%
X117221000Y-96266000D03*
X117095736Y-100223877D03*
X119380000Y-96520000D03*
%TO.N,/I2C_SCL*%
X126365000Y-93599000D03*
%TO.N,/FLASH_CS*%
X123698000Y-48768000D03*
D15*
%TO.N,/PYRO1_DET*%
X104627415Y-41202954D03*
%TO.N,/PYRO2_DET*%
X98552000Y-101346000D03*
X104391518Y-42174220D03*
X97028000Y-103251000D03*
%TO.N,/PYRO3_DET*%
X103886000Y-43180000D03*
%TO.N,/PYRO4_DET*%
X103759000Y-44196000D03*
X96012000Y-101727000D03*
D14*
X132925168Y-99778168D03*
D15*
X97028000Y-96139000D03*
D14*
X131064000Y-99695000D03*
%TO.N,/RF_CS*%
X127000000Y-68834000D03*
D15*
%TO.N,/VBAT*%
X101346000Y-36576000D03*
D14*
%TO.N,/VPYRO*%
X107696000Y-64516000D03*
X112379000Y-50546000D03*
X111379000Y-52032500D03*
X122936000Y-42672000D03*
X117856000Y-50927000D03*
%TO.N,/PLED_R*%
X131826000Y-41275000D03*
%TO.N,Net-(J2-CC1)*%
X100195054Y-64633769D03*
%TO.N,Net-(J2-CC2)*%
X103770284Y-67575284D03*
%TD*%
%TA.AperFunction,Conductor*%
%TO.N,+3.3V*%
G36*
X135638855Y-35560632D02*
G01*
X135808859Y-35568491D01*
X136023983Y-35579060D01*
X136034978Y-35580095D01*
X136222982Y-35606320D01*
X136224000Y-35606467D01*
X136419459Y-35635461D01*
X136429630Y-35637408D01*
X136617832Y-35681673D01*
X136619403Y-35682054D01*
X136807751Y-35729233D01*
X136816976Y-35731929D01*
X137001631Y-35793819D01*
X137003940Y-35794619D01*
X137185349Y-35859528D01*
X137193608Y-35862825D01*
X137372397Y-35941768D01*
X137375259Y-35943076D01*
X137548759Y-36025135D01*
X137556081Y-36028901D01*
X137727184Y-36124205D01*
X137730577Y-36126165D01*
X137894796Y-36224595D01*
X137901074Y-36228622D01*
X138062877Y-36339460D01*
X138066667Y-36342161D01*
X138220217Y-36456042D01*
X138225566Y-36460242D01*
X138340336Y-36555545D01*
X138364969Y-36576000D01*
X138376551Y-36585617D01*
X138380608Y-36589137D01*
X138522159Y-36717431D01*
X138526567Y-36721628D01*
X138665370Y-36860431D01*
X138669567Y-36864839D01*
X138797861Y-37006390D01*
X138801381Y-37010447D01*
X138926756Y-37161432D01*
X138930956Y-37166781D01*
X139044837Y-37320331D01*
X139047538Y-37324121D01*
X139158363Y-37485904D01*
X139162414Y-37492220D01*
X139185484Y-37530709D01*
X139260823Y-37656405D01*
X139262793Y-37659814D01*
X139358097Y-37830917D01*
X139361863Y-37838239D01*
X139443907Y-38011706D01*
X139445246Y-38014637D01*
X139524162Y-38193364D01*
X139527480Y-38201676D01*
X139592374Y-38383045D01*
X139593194Y-38385412D01*
X139655059Y-38569990D01*
X139657771Y-38579268D01*
X139704928Y-38767531D01*
X139705350Y-38769270D01*
X139749587Y-38957354D01*
X139751539Y-38967550D01*
X139780530Y-39162995D01*
X139780683Y-39164057D01*
X139806900Y-39351994D01*
X139807940Y-39363041D01*
X139818513Y-39578250D01*
X139819080Y-39590498D01*
X139826368Y-39748146D01*
X139826500Y-39753870D01*
X139828422Y-121663067D01*
X139828285Y-121668907D01*
X139820441Y-121835350D01*
X139820423Y-121835715D01*
X139809101Y-122061810D01*
X139808021Y-122073068D01*
X139781114Y-122262261D01*
X139780955Y-122263343D01*
X139750465Y-122464948D01*
X139748438Y-122475334D01*
X139702829Y-122665445D01*
X139702390Y-122667215D01*
X139653009Y-122860470D01*
X139650193Y-122869911D01*
X139586317Y-123056616D01*
X139585465Y-123059023D01*
X139517658Y-123244648D01*
X139514215Y-123253097D01*
X139432679Y-123433820D01*
X139431289Y-123436795D01*
X139345698Y-123613844D01*
X139341792Y-123621272D01*
X139243328Y-123794043D01*
X139241284Y-123797498D01*
X139138726Y-123964633D01*
X139134518Y-123971037D01*
X139020081Y-124134013D01*
X139017281Y-124137843D01*
X138898714Y-124293668D01*
X138894363Y-124299066D01*
X138764994Y-124450689D01*
X138761351Y-124454773D01*
X138627909Y-124597868D01*
X138623564Y-124602299D01*
X138480453Y-124741137D01*
X138475895Y-124745343D01*
X138328845Y-124874373D01*
X138324652Y-124877892D01*
X138169150Y-125002633D01*
X138163622Y-125006818D01*
X138004320Y-125120581D01*
X138000408Y-125123264D01*
X137834004Y-125232736D01*
X137827475Y-125236748D01*
X137657295Y-125334205D01*
X137653779Y-125336143D01*
X137478143Y-125429308D01*
X137470602Y-125432987D01*
X137414449Y-125458065D01*
X137363541Y-125468843D01*
X96351343Y-125355549D01*
X96291347Y-125339878D01*
X96206819Y-125292796D01*
X96203409Y-125290825D01*
X96039243Y-125192428D01*
X96032915Y-125188369D01*
X95871104Y-125077525D01*
X95867314Y-125074824D01*
X95713781Y-124960956D01*
X95708432Y-124956756D01*
X95557447Y-124831381D01*
X95553390Y-124827861D01*
X95411839Y-124699567D01*
X95407431Y-124695370D01*
X95268628Y-124556567D01*
X95264431Y-124552159D01*
X95136137Y-124410608D01*
X95132617Y-124406551D01*
X95007242Y-124255566D01*
X95003042Y-124250217D01*
X94889161Y-124096667D01*
X94886460Y-124092877D01*
X94848388Y-124037299D01*
X94775622Y-123931074D01*
X94771595Y-123924796D01*
X94673165Y-123760577D01*
X94671205Y-123757184D01*
X94575901Y-123586081D01*
X94572135Y-123578759D01*
X94503584Y-123433820D01*
X94490076Y-123405259D01*
X94488768Y-123402397D01*
X94409825Y-123223608D01*
X94406528Y-123215349D01*
X94341619Y-123033940D01*
X94340819Y-123031631D01*
X94278929Y-122846976D01*
X94276233Y-122837751D01*
X94229054Y-122649403D01*
X94228673Y-122647832D01*
X94184408Y-122459630D01*
X94182459Y-122449448D01*
X94153468Y-122254003D01*
X94153315Y-122252941D01*
X94152305Y-122245701D01*
X94127095Y-122064978D01*
X94126060Y-122053983D01*
X94115488Y-121838790D01*
X94107632Y-121668855D01*
X94107566Y-121666000D01*
X96692551Y-121666000D01*
X96712317Y-121917149D01*
X96771126Y-122162110D01*
X96819330Y-122278484D01*
X96867534Y-122394859D01*
X96999164Y-122609659D01*
X97162776Y-122801224D01*
X97354341Y-122964836D01*
X97569141Y-123096466D01*
X97801889Y-123192873D01*
X98046852Y-123251683D01*
X98235118Y-123266500D01*
X98360879Y-123266500D01*
X98360882Y-123266500D01*
X98549148Y-123251683D01*
X98794111Y-123192873D01*
X98801049Y-123189999D01*
X121491749Y-123189999D01*
X121510670Y-123333709D01*
X121566137Y-123467622D01*
X121566138Y-123467624D01*
X121566139Y-123467625D01*
X121654379Y-123582621D01*
X121769375Y-123670861D01*
X121903291Y-123726330D01*
X122047000Y-123745250D01*
X122190709Y-123726330D01*
X122324625Y-123670861D01*
X122439621Y-123582621D01*
X122527861Y-123467625D01*
X122583330Y-123333709D01*
X122602250Y-123190000D01*
X122583330Y-123046291D01*
X122527861Y-122912375D01*
X122439621Y-122797379D01*
X122324625Y-122709139D01*
X122324624Y-122709138D01*
X122324622Y-122709137D01*
X122190709Y-122653670D01*
X122047000Y-122634749D01*
X121903290Y-122653670D01*
X121769377Y-122709137D01*
X121654379Y-122797379D01*
X121566137Y-122912377D01*
X121510670Y-123046290D01*
X121491749Y-123189999D01*
X98801049Y-123189999D01*
X99026859Y-123096466D01*
X99241659Y-122964836D01*
X99433224Y-122801224D01*
X99596836Y-122609659D01*
X99728466Y-122394859D01*
X99824873Y-122162111D01*
X99883683Y-121917148D01*
X99903449Y-121666000D01*
X99903449Y-121665999D01*
X134030551Y-121665999D01*
X134050317Y-121917149D01*
X134109126Y-122162110D01*
X134157330Y-122278484D01*
X134205534Y-122394859D01*
X134337164Y-122609659D01*
X134500776Y-122801224D01*
X134692341Y-122964836D01*
X134907141Y-123096466D01*
X135139889Y-123192873D01*
X135384852Y-123251683D01*
X135573118Y-123266500D01*
X135698879Y-123266500D01*
X135698882Y-123266500D01*
X135887148Y-123251683D01*
X136132111Y-123192873D01*
X136364859Y-123096466D01*
X136579659Y-122964836D01*
X136771224Y-122801224D01*
X136934836Y-122609659D01*
X137066466Y-122394859D01*
X137162873Y-122162111D01*
X137221683Y-121917148D01*
X137241449Y-121666000D01*
X137221683Y-121414852D01*
X137162873Y-121169889D01*
X137066466Y-120937141D01*
X136934836Y-120722341D01*
X136771224Y-120530776D01*
X136579659Y-120367164D01*
X136364859Y-120235534D01*
X136248485Y-120187330D01*
X136132110Y-120139126D01*
X135887149Y-120080317D01*
X135840081Y-120076612D01*
X135698882Y-120065500D01*
X135573118Y-120065500D01*
X135460158Y-120074390D01*
X135384850Y-120080317D01*
X135139889Y-120139126D01*
X134907139Y-120235535D01*
X134692342Y-120367163D01*
X134500776Y-120530776D01*
X134337163Y-120722342D01*
X134205535Y-120937139D01*
X134109126Y-121169889D01*
X134050317Y-121414850D01*
X134030551Y-121665999D01*
X99903449Y-121665999D01*
X99883683Y-121414852D01*
X99824873Y-121169889D01*
X99728466Y-120937141D01*
X99596836Y-120722341D01*
X99433224Y-120530776D01*
X99241659Y-120367164D01*
X99026859Y-120235534D01*
X98910485Y-120187330D01*
X98794110Y-120139126D01*
X98549149Y-120080317D01*
X98502081Y-120076612D01*
X98360882Y-120065500D01*
X98235118Y-120065500D01*
X98122158Y-120074390D01*
X98046850Y-120080317D01*
X97801889Y-120139126D01*
X97569139Y-120235535D01*
X97354342Y-120367163D01*
X97162776Y-120530776D01*
X96999163Y-120722342D01*
X96867535Y-120937139D01*
X96771126Y-121169889D01*
X96712317Y-121414850D01*
X96692551Y-121666000D01*
X94107566Y-121666000D01*
X94107500Y-121663129D01*
X94107500Y-119888000D01*
X120475749Y-119888000D01*
X120494670Y-120031709D01*
X120550137Y-120165622D01*
X120550138Y-120165624D01*
X120550139Y-120165625D01*
X120638379Y-120280621D01*
X120753375Y-120368861D01*
X120887291Y-120424330D01*
X121031000Y-120443250D01*
X121174709Y-120424330D01*
X121308625Y-120368861D01*
X121423621Y-120280621D01*
X121511861Y-120165625D01*
X121567330Y-120031709D01*
X121586250Y-119888000D01*
X121567330Y-119744291D01*
X121511861Y-119610375D01*
X121423621Y-119495379D01*
X121308625Y-119407139D01*
X121308624Y-119407138D01*
X121308622Y-119407137D01*
X121174709Y-119351670D01*
X121031000Y-119332749D01*
X120887290Y-119351670D01*
X120753377Y-119407137D01*
X120638379Y-119495379D01*
X120550137Y-119610377D01*
X120494670Y-119744290D01*
X120475749Y-119888000D01*
X94107500Y-119888000D01*
X94107500Y-116713000D01*
X112347749Y-116713000D01*
X112366670Y-116856709D01*
X112422137Y-116990622D01*
X112422138Y-116990624D01*
X112422139Y-116990625D01*
X112510379Y-117105621D01*
X112625375Y-117193861D01*
X112759291Y-117249330D01*
X112903000Y-117268250D01*
X113046709Y-117249330D01*
X113180625Y-117193861D01*
X113295621Y-117105621D01*
X113383861Y-116990625D01*
X113439330Y-116856709D01*
X113458250Y-116713000D01*
X113439330Y-116569291D01*
X113383861Y-116435375D01*
X113295621Y-116320379D01*
X113180625Y-116232139D01*
X113180624Y-116232138D01*
X113180622Y-116232137D01*
X113046709Y-116176670D01*
X112903000Y-116157749D01*
X112759290Y-116176670D01*
X112625377Y-116232137D01*
X112510379Y-116320379D01*
X112422137Y-116435377D01*
X112366670Y-116569290D01*
X112347749Y-116713000D01*
X94107500Y-116713000D01*
X94107500Y-115824000D01*
X115980317Y-115824000D01*
X116000956Y-115980762D01*
X116061463Y-116126840D01*
X116157717Y-116252282D01*
X116246464Y-116320379D01*
X116283159Y-116348536D01*
X116429238Y-116409044D01*
X116586000Y-116429682D01*
X116742762Y-116409044D01*
X116888841Y-116348536D01*
X117014282Y-116252282D01*
X117110536Y-116126841D01*
X117171044Y-115980762D01*
X117191682Y-115824000D01*
X117171044Y-115667238D01*
X117110536Y-115521159D01*
X117068691Y-115466625D01*
X117014282Y-115395717D01*
X116888840Y-115299463D01*
X116742762Y-115238956D01*
X116586000Y-115218317D01*
X116429237Y-115238956D01*
X116283159Y-115299463D01*
X116157717Y-115395717D01*
X116061463Y-115521159D01*
X116000956Y-115667237D01*
X115980317Y-115824000D01*
X94107500Y-115824000D01*
X94107500Y-114173000D01*
X97477357Y-114173000D01*
X97479300Y-114193964D01*
X97497885Y-114394537D01*
X97558769Y-114608526D01*
X97657941Y-114807688D01*
X97792019Y-114985237D01*
X97956437Y-115135124D01*
X98145595Y-115252245D01*
X98145597Y-115252245D01*
X98145599Y-115252247D01*
X98353060Y-115332618D01*
X98571757Y-115373500D01*
X98794241Y-115373500D01*
X98794243Y-115373500D01*
X99012940Y-115332618D01*
X99220401Y-115252247D01*
X99409562Y-115135124D01*
X99573981Y-114985236D01*
X99708058Y-114807689D01*
X99752469Y-114718500D01*
X117805083Y-114718500D01*
X117825722Y-114875262D01*
X117886229Y-115021340D01*
X117982483Y-115146782D01*
X118075710Y-115218317D01*
X118107925Y-115243036D01*
X118254004Y-115303544D01*
X118410766Y-115324182D01*
X118567528Y-115303544D01*
X118713607Y-115243036D01*
X118784028Y-115189000D01*
X130635749Y-115189000D01*
X130654670Y-115332709D01*
X130710137Y-115466622D01*
X130710138Y-115466624D01*
X130710139Y-115466625D01*
X130798379Y-115581621D01*
X130913375Y-115669861D01*
X131047291Y-115725330D01*
X131191000Y-115744250D01*
X131334709Y-115725330D01*
X131468625Y-115669861D01*
X131583621Y-115581621D01*
X131671861Y-115466625D01*
X131727330Y-115332709D01*
X131746250Y-115189000D01*
X131727330Y-115045291D01*
X131671861Y-114911375D01*
X131583621Y-114796379D01*
X131468625Y-114708139D01*
X131468624Y-114708138D01*
X131468622Y-114708137D01*
X131334709Y-114652670D01*
X131191000Y-114633749D01*
X131047290Y-114652670D01*
X130913377Y-114708137D01*
X130798379Y-114796379D01*
X130710137Y-114911377D01*
X130654670Y-115045290D01*
X130635749Y-115189000D01*
X118784028Y-115189000D01*
X118839048Y-115146782D01*
X118935302Y-115021341D01*
X118995810Y-114875262D01*
X119016448Y-114718500D01*
X118995810Y-114561738D01*
X118935302Y-114415659D01*
X118919094Y-114394536D01*
X118839048Y-114290217D01*
X118713606Y-114193963D01*
X118567528Y-114133456D01*
X118410766Y-114112817D01*
X118254003Y-114133456D01*
X118107925Y-114193963D01*
X117982483Y-114290217D01*
X117886229Y-114415659D01*
X117825722Y-114561737D01*
X117805083Y-114718500D01*
X99752469Y-114718500D01*
X99807229Y-114608528D01*
X99868115Y-114394536D01*
X99888643Y-114173000D01*
X99868115Y-113951464D01*
X99839662Y-113851462D01*
X99827997Y-113810462D01*
X99826342Y-113749068D01*
X99854351Y-113694410D01*
X99905153Y-113659897D01*
X99966285Y-113653996D01*
X100022749Y-113678152D01*
X100027159Y-113681536D01*
X100027160Y-113681536D01*
X100027161Y-113681537D01*
X100055630Y-113693329D01*
X100173238Y-113742044D01*
X100330000Y-113762682D01*
X100486762Y-113742044D01*
X100632841Y-113681536D01*
X100758282Y-113585282D01*
X100854536Y-113459841D01*
X100915044Y-113313762D01*
X100935682Y-113157000D01*
X100935682Y-113156999D01*
X126317749Y-113156999D01*
X126336670Y-113300709D01*
X126392137Y-113434622D01*
X126392138Y-113434624D01*
X126392139Y-113434625D01*
X126480379Y-113549621D01*
X126595375Y-113637861D01*
X126729291Y-113693330D01*
X126873000Y-113712250D01*
X127016709Y-113693330D01*
X127150625Y-113637861D01*
X127265621Y-113549621D01*
X127274539Y-113537999D01*
X128008249Y-113537999D01*
X128027170Y-113681709D01*
X128082637Y-113815622D01*
X128082638Y-113815624D01*
X128082639Y-113815625D01*
X128170879Y-113930621D01*
X128285875Y-114018861D01*
X128419791Y-114074330D01*
X128563500Y-114093250D01*
X128707209Y-114074330D01*
X128710420Y-114073000D01*
X133795357Y-114073000D01*
X133815885Y-114294537D01*
X133876769Y-114508526D01*
X133975941Y-114707688D01*
X134110019Y-114885237D01*
X134274437Y-115035124D01*
X134463595Y-115152245D01*
X134463597Y-115152245D01*
X134463599Y-115152247D01*
X134671060Y-115232618D01*
X134889757Y-115273500D01*
X135112241Y-115273500D01*
X135112243Y-115273500D01*
X135330940Y-115232618D01*
X135538401Y-115152247D01*
X135727562Y-115035124D01*
X135891981Y-114885236D01*
X136026058Y-114707689D01*
X136125229Y-114508528D01*
X136186115Y-114294536D01*
X136206643Y-114073000D01*
X136186115Y-113851464D01*
X136153682Y-113737473D01*
X136125230Y-113637473D01*
X136026058Y-113438311D01*
X135891980Y-113260762D01*
X135727562Y-113110875D01*
X135538404Y-112993754D01*
X135477174Y-112970033D01*
X135330940Y-112913382D01*
X135112243Y-112872500D01*
X134889757Y-112872500D01*
X134671059Y-112913382D01*
X134671060Y-112913382D01*
X134463595Y-112993754D01*
X134274437Y-113110875D01*
X134110019Y-113260762D01*
X133975941Y-113438311D01*
X133876769Y-113637473D01*
X133815885Y-113851462D01*
X133795357Y-114073000D01*
X128710420Y-114073000D01*
X128841125Y-114018861D01*
X128956121Y-113930621D01*
X129044361Y-113815625D01*
X129099830Y-113681709D01*
X129118750Y-113538000D01*
X129099830Y-113394291D01*
X129044361Y-113260375D01*
X128956121Y-113145379D01*
X128841125Y-113057139D01*
X128841124Y-113057138D01*
X128841122Y-113057137D01*
X128707209Y-113001670D01*
X128563500Y-112982749D01*
X128419790Y-113001670D01*
X128285877Y-113057137D01*
X128170879Y-113145379D01*
X128082637Y-113260377D01*
X128027170Y-113394290D01*
X128008249Y-113537999D01*
X127274539Y-113537999D01*
X127353861Y-113434625D01*
X127409330Y-113300709D01*
X127428250Y-113157000D01*
X127409330Y-113013291D01*
X127353861Y-112879375D01*
X127274538Y-112776000D01*
X131397749Y-112776000D01*
X131416670Y-112919709D01*
X131472137Y-113053622D01*
X131472138Y-113053624D01*
X131472139Y-113053625D01*
X131560379Y-113168621D01*
X131675375Y-113256861D01*
X131675376Y-113256861D01*
X131675377Y-113256862D01*
X131684793Y-113260762D01*
X131809291Y-113312330D01*
X131953000Y-113331250D01*
X132096709Y-113312330D01*
X132230625Y-113256861D01*
X132345621Y-113168621D01*
X132433861Y-113053625D01*
X132489330Y-112919709D01*
X132508250Y-112776000D01*
X132489330Y-112632291D01*
X132433861Y-112498375D01*
X132345621Y-112383379D01*
X132230625Y-112295139D01*
X132230624Y-112295138D01*
X132230622Y-112295137D01*
X132096709Y-112239670D01*
X131953000Y-112220749D01*
X131809290Y-112239670D01*
X131675377Y-112295137D01*
X131560379Y-112383379D01*
X131472137Y-112498377D01*
X131416670Y-112632290D01*
X131397749Y-112776000D01*
X127274538Y-112776000D01*
X127265621Y-112764379D01*
X127150625Y-112676139D01*
X127150624Y-112676138D01*
X127150622Y-112676137D01*
X127016709Y-112620670D01*
X126873000Y-112601749D01*
X126729290Y-112620670D01*
X126595377Y-112676137D01*
X126480379Y-112764379D01*
X126392137Y-112879377D01*
X126336670Y-113013290D01*
X126317749Y-113156999D01*
X100935682Y-113156999D01*
X100915044Y-113000238D01*
X100854536Y-112854159D01*
X100785646Y-112764379D01*
X100758282Y-112728717D01*
X100632840Y-112632463D01*
X100486762Y-112571956D01*
X100330000Y-112551317D01*
X100173237Y-112571956D01*
X100027159Y-112632463D01*
X99901717Y-112728717D01*
X99805463Y-112854159D01*
X99744956Y-113000237D01*
X99724317Y-113157001D01*
X99731014Y-113207869D01*
X99724244Y-113267420D01*
X99690334Y-113316840D01*
X99637207Y-113344582D01*
X99577274Y-113344167D01*
X99524539Y-113315691D01*
X99409562Y-113210876D01*
X99409559Y-113210873D01*
X99220404Y-113093754D01*
X99159174Y-113070033D01*
X99012940Y-113013382D01*
X98794243Y-112972500D01*
X98571757Y-112972500D01*
X98353552Y-113013290D01*
X98353060Y-113013382D01*
X98145595Y-113093754D01*
X97956437Y-113210875D01*
X97792019Y-113360762D01*
X97657941Y-113538311D01*
X97558769Y-113737473D01*
X97497885Y-113951462D01*
X97481021Y-114133456D01*
X97477357Y-114173000D01*
X94107500Y-114173000D01*
X94107500Y-111738092D01*
X128728226Y-111738092D01*
X128747147Y-111881801D01*
X128802614Y-112015714D01*
X128802615Y-112015716D01*
X128802616Y-112015717D01*
X128890856Y-112130713D01*
X129005852Y-112218953D01*
X129139768Y-112274422D01*
X129283477Y-112293342D01*
X129427186Y-112274422D01*
X129561102Y-112218953D01*
X129676098Y-112130713D01*
X129764338Y-112015717D01*
X129819807Y-111881801D01*
X129838727Y-111738092D01*
X129819807Y-111594383D01*
X129764338Y-111460467D01*
X129676098Y-111345471D01*
X129561102Y-111257231D01*
X129561101Y-111257230D01*
X129561099Y-111257229D01*
X129427186Y-111201762D01*
X129283477Y-111182841D01*
X129139767Y-111201762D01*
X129005854Y-111257229D01*
X128890856Y-111345471D01*
X128802614Y-111460469D01*
X128747147Y-111594382D01*
X128728226Y-111738092D01*
X94107500Y-111738092D01*
X94107500Y-109093000D01*
X97477357Y-109093000D01*
X97497885Y-109314537D01*
X97558769Y-109528526D01*
X97657941Y-109727688D01*
X97792019Y-109905237D01*
X97956437Y-110055124D01*
X98145595Y-110172245D01*
X98145597Y-110172245D01*
X98145599Y-110172247D01*
X98353060Y-110252618D01*
X98571757Y-110293500D01*
X98794241Y-110293500D01*
X98794243Y-110293500D01*
X99012940Y-110252618D01*
X99220401Y-110172247D01*
X99409562Y-110055124D01*
X99489776Y-109981999D01*
X103153317Y-109981999D01*
X103173956Y-110138762D01*
X103234463Y-110284840D01*
X103330717Y-110410282D01*
X103456158Y-110506535D01*
X103456159Y-110506536D01*
X103602238Y-110567044D01*
X103759000Y-110587682D01*
X103915762Y-110567044D01*
X104061841Y-110506536D01*
X104187282Y-110410282D01*
X104283536Y-110284841D01*
X104344044Y-110138762D01*
X104364682Y-109982000D01*
X104347962Y-109854999D01*
X122761749Y-109854999D01*
X122780670Y-109998709D01*
X122836137Y-110132622D01*
X122836138Y-110132624D01*
X122836139Y-110132625D01*
X122924379Y-110247621D01*
X123039375Y-110335861D01*
X123173291Y-110391330D01*
X123317000Y-110410250D01*
X123460709Y-110391330D01*
X123594625Y-110335861D01*
X123709621Y-110247621D01*
X123797861Y-110132625D01*
X123853330Y-109998709D01*
X123872250Y-109855000D01*
X123853330Y-109711291D01*
X123797861Y-109577375D01*
X123709621Y-109462379D01*
X123594625Y-109374139D01*
X123594624Y-109374138D01*
X123594622Y-109374137D01*
X123460709Y-109318670D01*
X123317000Y-109299749D01*
X123173290Y-109318670D01*
X123039377Y-109374137D01*
X122924379Y-109462379D01*
X122836137Y-109577377D01*
X122780670Y-109711290D01*
X122761749Y-109854999D01*
X104347962Y-109854999D01*
X104344044Y-109825238D01*
X104283536Y-109679159D01*
X104244041Y-109627688D01*
X104187282Y-109553717D01*
X104061840Y-109457463D01*
X103915762Y-109396956D01*
X103759000Y-109376317D01*
X103602237Y-109396956D01*
X103456159Y-109457463D01*
X103330717Y-109553717D01*
X103234463Y-109679159D01*
X103173956Y-109825237D01*
X103153317Y-109981999D01*
X99489776Y-109981999D01*
X99573981Y-109905236D01*
X99708058Y-109727689D01*
X99807229Y-109528528D01*
X99827449Y-109457464D01*
X99850536Y-109376318D01*
X99868115Y-109314536D01*
X99888643Y-109093000D01*
X99879377Y-108993000D01*
X133795357Y-108993000D01*
X133815885Y-109214537D01*
X133876769Y-109428526D01*
X133975941Y-109627688D01*
X134110019Y-109805237D01*
X134274437Y-109955124D01*
X134463595Y-110072245D01*
X134463597Y-110072245D01*
X134463599Y-110072247D01*
X134671060Y-110152618D01*
X134889757Y-110193500D01*
X135112241Y-110193500D01*
X135112243Y-110193500D01*
X135330940Y-110152618D01*
X135538401Y-110072247D01*
X135727562Y-109955124D01*
X135891981Y-109805236D01*
X136026058Y-109627689D01*
X136125229Y-109428528D01*
X136186115Y-109214536D01*
X136206643Y-108993000D01*
X136186115Y-108771464D01*
X136153682Y-108657473D01*
X136125230Y-108557473D01*
X136026058Y-108358311D01*
X135891980Y-108180762D01*
X135727562Y-108030875D01*
X135538404Y-107913754D01*
X135477174Y-107890033D01*
X135330940Y-107833382D01*
X135112243Y-107792500D01*
X134889757Y-107792500D01*
X134671059Y-107833382D01*
X134671060Y-107833382D01*
X134463595Y-107913754D01*
X134274437Y-108030875D01*
X134110019Y-108180762D01*
X133975941Y-108358311D01*
X133876769Y-108557473D01*
X133815885Y-108771462D01*
X133795357Y-108993000D01*
X99879377Y-108993000D01*
X99868115Y-108871464D01*
X99839662Y-108771462D01*
X99807230Y-108657473D01*
X99708058Y-108458311D01*
X99573980Y-108280762D01*
X99409562Y-108130875D01*
X99220404Y-108013754D01*
X99159174Y-107990033D01*
X99012940Y-107933382D01*
X98794243Y-107892500D01*
X98571757Y-107892500D01*
X98353059Y-107933382D01*
X98353060Y-107933382D01*
X98145595Y-108013754D01*
X97956437Y-108130875D01*
X97792019Y-108280762D01*
X97657941Y-108458311D01*
X97558769Y-108657473D01*
X97497885Y-108871462D01*
X97477357Y-109093000D01*
X94107500Y-109093000D01*
X94107500Y-107061000D01*
X130889749Y-107061000D01*
X130908670Y-107204709D01*
X130964137Y-107338622D01*
X130964138Y-107338624D01*
X130964139Y-107338625D01*
X131052379Y-107453621D01*
X131167375Y-107541861D01*
X131301291Y-107597330D01*
X131445000Y-107616250D01*
X131588709Y-107597330D01*
X131722625Y-107541861D01*
X131837621Y-107453621D01*
X131925861Y-107338625D01*
X131981330Y-107204709D01*
X132000250Y-107061000D01*
X131981330Y-106917291D01*
X131925861Y-106783375D01*
X131837621Y-106668379D01*
X131722625Y-106580139D01*
X131722624Y-106580138D01*
X131722622Y-106580137D01*
X131588709Y-106524670D01*
X131445000Y-106505749D01*
X131301290Y-106524670D01*
X131167377Y-106580137D01*
X131052379Y-106668379D01*
X130964137Y-106783377D01*
X130908670Y-106917290D01*
X130889749Y-107061000D01*
X94107500Y-107061000D01*
X94107500Y-106298999D01*
X100359317Y-106298999D01*
X100379956Y-106455762D01*
X100440463Y-106601840D01*
X100536717Y-106727282D01*
X100662159Y-106823536D01*
X100808238Y-106884044D01*
X100965000Y-106904682D01*
X101121762Y-106884044D01*
X101267841Y-106823536D01*
X101393282Y-106727282D01*
X101489536Y-106601841D01*
X101550044Y-106455762D01*
X101570682Y-106299000D01*
X101550044Y-106142238D01*
X101489536Y-105996159D01*
X101489535Y-105996158D01*
X101393282Y-105870717D01*
X101267840Y-105774463D01*
X101121762Y-105713956D01*
X100965000Y-105693317D01*
X100808237Y-105713956D01*
X100662159Y-105774463D01*
X100536717Y-105870717D01*
X100440463Y-105996159D01*
X100379956Y-106142237D01*
X100359317Y-106298999D01*
X94107500Y-106298999D01*
X94107500Y-103250999D01*
X96422317Y-103250999D01*
X96442956Y-103407762D01*
X96503463Y-103553840D01*
X96599717Y-103679282D01*
X96669512Y-103732837D01*
X96725159Y-103775536D01*
X96871238Y-103836044D01*
X97028000Y-103856682D01*
X97184762Y-103836044D01*
X97316202Y-103781599D01*
X97378653Y-103773072D01*
X97437230Y-103796350D01*
X97476795Y-103845420D01*
X97487123Y-103907602D01*
X97477357Y-104012999D01*
X97497885Y-104234537D01*
X97558769Y-104448526D01*
X97657941Y-104647688D01*
X97792019Y-104825237D01*
X97956437Y-104975124D01*
X98145595Y-105092245D01*
X98145597Y-105092245D01*
X98145599Y-105092247D01*
X98353060Y-105172618D01*
X98571757Y-105213500D01*
X98794241Y-105213500D01*
X98794243Y-105213500D01*
X99012940Y-105172618D01*
X99220401Y-105092247D01*
X99409562Y-104975124D01*
X99573981Y-104825236D01*
X99708058Y-104647689D01*
X99807229Y-104448528D01*
X99815023Y-104421137D01*
X99842695Y-104323877D01*
X99868115Y-104234536D01*
X99888643Y-104013000D01*
X99868115Y-103791464D01*
X99867055Y-103780023D01*
X99871000Y-103779657D01*
X99871129Y-103732837D01*
X99907720Y-103674855D01*
X99969527Y-103645180D01*
X100037653Y-103652882D01*
X100173238Y-103709044D01*
X100330000Y-103729682D01*
X100486762Y-103709044D01*
X100614766Y-103656022D01*
X100671947Y-103646966D01*
X100727007Y-103664856D01*
X100767945Y-103705793D01*
X100785836Y-103760854D01*
X100776779Y-103818035D01*
X100760957Y-103856237D01*
X100760956Y-103856239D01*
X100740317Y-104012999D01*
X100760956Y-104169762D01*
X100821463Y-104315840D01*
X100917717Y-104441282D01*
X100995904Y-104501276D01*
X101043159Y-104537536D01*
X101189238Y-104598044D01*
X101346000Y-104618682D01*
X101502762Y-104598044D01*
X101646081Y-104538678D01*
X101703263Y-104529622D01*
X101758323Y-104547512D01*
X101799261Y-104588450D01*
X101817152Y-104643510D01*
X101808096Y-104700692D01*
X101778228Y-104772799D01*
X101757590Y-104929558D01*
X101778229Y-105086321D01*
X101838736Y-105232399D01*
X101934990Y-105357841D01*
X102060432Y-105454095D01*
X102206511Y-105514603D01*
X102363273Y-105535241D01*
X102520035Y-105514603D01*
X102666114Y-105454095D01*
X102791555Y-105357841D01*
X102887809Y-105232400D01*
X102948317Y-105086321D01*
X102968955Y-104929559D01*
X102965327Y-104902000D01*
X131739249Y-104902000D01*
X131758170Y-105045709D01*
X131813637Y-105179622D01*
X131813638Y-105179624D01*
X131813639Y-105179625D01*
X131901879Y-105294621D01*
X132016875Y-105382861D01*
X132150791Y-105438330D01*
X132294500Y-105457250D01*
X132438209Y-105438330D01*
X132572125Y-105382861D01*
X132687121Y-105294621D01*
X132775361Y-105179625D01*
X132830830Y-105045709D01*
X132849750Y-104902000D01*
X132830830Y-104758291D01*
X132783287Y-104643510D01*
X132775362Y-104624377D01*
X132775361Y-104624376D01*
X132775361Y-104624375D01*
X132687121Y-104509379D01*
X132572125Y-104421139D01*
X132572124Y-104421138D01*
X132572122Y-104421137D01*
X132438209Y-104365670D01*
X132294500Y-104346749D01*
X132150790Y-104365670D01*
X132016877Y-104421137D01*
X131901879Y-104509379D01*
X131813637Y-104624377D01*
X131758170Y-104758290D01*
X131739249Y-104902000D01*
X102965327Y-104902000D01*
X102948317Y-104772797D01*
X102887809Y-104626718D01*
X102858445Y-104588450D01*
X102791555Y-104501276D01*
X102666113Y-104405022D01*
X102520035Y-104344515D01*
X102363273Y-104323876D01*
X102206510Y-104344515D01*
X102063190Y-104403879D01*
X102006008Y-104412936D01*
X101950947Y-104395045D01*
X101910010Y-104354107D01*
X101892120Y-104299046D01*
X101901176Y-104241868D01*
X101931044Y-104169762D01*
X101951682Y-104013000D01*
X101938517Y-103912999D01*
X133795357Y-103912999D01*
X133815885Y-104134537D01*
X133876769Y-104348526D01*
X133975941Y-104547688D01*
X134110019Y-104725237D01*
X134274437Y-104875124D01*
X134463595Y-104992245D01*
X134463597Y-104992245D01*
X134463599Y-104992247D01*
X134671060Y-105072618D01*
X134889757Y-105113500D01*
X135112241Y-105113500D01*
X135112243Y-105113500D01*
X135330940Y-105072618D01*
X135538401Y-104992247D01*
X135727562Y-104875124D01*
X135839810Y-104772796D01*
X135891980Y-104725237D01*
X135891981Y-104725236D01*
X136026058Y-104547689D01*
X136125229Y-104348528D01*
X136125736Y-104346749D01*
X136157662Y-104234537D01*
X136186115Y-104134536D01*
X136206643Y-103913000D01*
X136186115Y-103691464D01*
X136155743Y-103584717D01*
X136125230Y-103477473D01*
X136026058Y-103278311D01*
X135891980Y-103100762D01*
X135727562Y-102950875D01*
X135538404Y-102833754D01*
X135477174Y-102810033D01*
X135330940Y-102753382D01*
X135112243Y-102712500D01*
X134889757Y-102712500D01*
X134671060Y-102753381D01*
X134671060Y-102753382D01*
X134463595Y-102833754D01*
X134274437Y-102950875D01*
X134110019Y-103100762D01*
X133975941Y-103278311D01*
X133876769Y-103477473D01*
X133815885Y-103691462D01*
X133795357Y-103912999D01*
X101938517Y-103912999D01*
X101931044Y-103856238D01*
X101870536Y-103710159D01*
X101846843Y-103679282D01*
X101774282Y-103584717D01*
X101648840Y-103488463D01*
X101502762Y-103427956D01*
X101346000Y-103407317D01*
X101189240Y-103427955D01*
X101061233Y-103480977D01*
X101004051Y-103490033D01*
X100948990Y-103472142D01*
X100908053Y-103431204D01*
X100890163Y-103376143D01*
X100899219Y-103318966D01*
X100915044Y-103280762D01*
X100935682Y-103124000D01*
X100915044Y-102967238D01*
X100854536Y-102821159D01*
X100802529Y-102753382D01*
X100758282Y-102695717D01*
X100632840Y-102599463D01*
X100486762Y-102538956D01*
X100330000Y-102518317D01*
X100173237Y-102538956D01*
X100027159Y-102599463D01*
X99901717Y-102695717D01*
X99805463Y-102821159D01*
X99744956Y-102967237D01*
X99730179Y-103079477D01*
X99703995Y-103140844D01*
X99649800Y-103179758D01*
X99583283Y-103184955D01*
X99523702Y-103154928D01*
X99409562Y-103050875D01*
X99220404Y-102933754D01*
X99159174Y-102910033D01*
X99012940Y-102853382D01*
X98794243Y-102812500D01*
X98571757Y-102812500D01*
X98353059Y-102853382D01*
X98353060Y-102853382D01*
X98145595Y-102933754D01*
X97956437Y-103050875D01*
X97820226Y-103175049D01*
X97760645Y-103205076D01*
X97694127Y-103199879D01*
X97639932Y-103160963D01*
X97613749Y-103099595D01*
X97613044Y-103094238D01*
X97552536Y-102948159D01*
X97541482Y-102933753D01*
X97456282Y-102822717D01*
X97330840Y-102726463D01*
X97184762Y-102665956D01*
X97028000Y-102645317D01*
X96871237Y-102665956D01*
X96725159Y-102726463D01*
X96599717Y-102822717D01*
X96503463Y-102948159D01*
X96442956Y-103094237D01*
X96422317Y-103250999D01*
X94107500Y-103250999D01*
X94107500Y-101727000D01*
X95406317Y-101727000D01*
X95426956Y-101883762D01*
X95487463Y-102029840D01*
X95583717Y-102155282D01*
X95709159Y-102251536D01*
X95855238Y-102312044D01*
X96012000Y-102332682D01*
X96168762Y-102312044D01*
X96314841Y-102251536D01*
X96440282Y-102155282D01*
X96536536Y-102029841D01*
X96597044Y-101883762D01*
X96617682Y-101727000D01*
X96597044Y-101570238D01*
X96536536Y-101424159D01*
X96488752Y-101361885D01*
X96440282Y-101298717D01*
X96314840Y-101202463D01*
X96168762Y-101141956D01*
X96012000Y-101121317D01*
X95855237Y-101141956D01*
X95709159Y-101202463D01*
X95583717Y-101298717D01*
X95487463Y-101424159D01*
X95426956Y-101570237D01*
X95406317Y-101727000D01*
X94107500Y-101727000D01*
X94107500Y-98933000D01*
X97477357Y-98933000D01*
X97497885Y-99154537D01*
X97558769Y-99368526D01*
X97657941Y-99567688D01*
X97792019Y-99745237D01*
X97956437Y-99895124D01*
X98145595Y-100012245D01*
X98145597Y-100012245D01*
X98145599Y-100012247D01*
X98353060Y-100092618D01*
X98571757Y-100133500D01*
X98794242Y-100133500D01*
X98794243Y-100133500D01*
X98812788Y-100130033D01*
X98871887Y-100133357D01*
X98922712Y-100163700D01*
X98953680Y-100214147D01*
X98957734Y-100273202D01*
X98933950Y-100327407D01*
X98852638Y-100433375D01*
X98797170Y-100567290D01*
X98786786Y-100646160D01*
X98762222Y-100705460D01*
X98711299Y-100744534D01*
X98647662Y-100752912D01*
X98552000Y-100740317D01*
X98395237Y-100760956D01*
X98249159Y-100821463D01*
X98123717Y-100917717D01*
X98027463Y-101043159D01*
X97966956Y-101189237D01*
X97946317Y-101346000D01*
X97966956Y-101502762D01*
X98027463Y-101648840D01*
X98123717Y-101774282D01*
X98249159Y-101870536D01*
X98395238Y-101931044D01*
X98552000Y-101951682D01*
X98708762Y-101931044D01*
X98854841Y-101870536D01*
X98980282Y-101774282D01*
X99012726Y-101732000D01*
X109903843Y-101732000D01*
X109922426Y-101920681D01*
X109925570Y-101931044D01*
X109977463Y-102102115D01*
X110066838Y-102269324D01*
X110187117Y-102415883D01*
X110333676Y-102536162D01*
X110500885Y-102625537D01*
X110682317Y-102680573D01*
X110871000Y-102699157D01*
X111059683Y-102680573D01*
X111241115Y-102625537D01*
X111408324Y-102536162D01*
X111554883Y-102415883D01*
X111675162Y-102269324D01*
X111764537Y-102102115D01*
X111819573Y-101920683D01*
X111838157Y-101732000D01*
X121703843Y-101732000D01*
X121722426Y-101920681D01*
X121725570Y-101931044D01*
X121777463Y-102102115D01*
X121866838Y-102269324D01*
X121987117Y-102415883D01*
X122133676Y-102536162D01*
X122300885Y-102625537D01*
X122482317Y-102680573D01*
X122671000Y-102699157D01*
X122859683Y-102680573D01*
X123041115Y-102625537D01*
X123208324Y-102536162D01*
X123354883Y-102415883D01*
X123475162Y-102269324D01*
X123564537Y-102102115D01*
X123619573Y-101920683D01*
X123638157Y-101732000D01*
X123619573Y-101543317D01*
X123564537Y-101361885D01*
X123556046Y-101346000D01*
X128984749Y-101346000D01*
X129003670Y-101489709D01*
X129059137Y-101623622D01*
X129059138Y-101623624D01*
X129059139Y-101623625D01*
X129147379Y-101738621D01*
X129262375Y-101826861D01*
X129396291Y-101882330D01*
X129540000Y-101901250D01*
X129683709Y-101882330D01*
X129817625Y-101826861D01*
X129932621Y-101738621D01*
X130020861Y-101623625D01*
X130076330Y-101489709D01*
X130095250Y-101346000D01*
X130076330Y-101202291D01*
X130020861Y-101068375D01*
X129941537Y-100964999D01*
X133683749Y-100964999D01*
X133702670Y-101108709D01*
X133758137Y-101242622D01*
X133758138Y-101242624D01*
X133758139Y-101242625D01*
X133846379Y-101357621D01*
X133961375Y-101445861D01*
X134095291Y-101501330D01*
X134239000Y-101520250D01*
X134382709Y-101501330D01*
X134516625Y-101445861D01*
X134631621Y-101357621D01*
X134719861Y-101242625D01*
X134775330Y-101108709D01*
X134794250Y-100965000D01*
X134775330Y-100821291D01*
X134719861Y-100687375D01*
X134631621Y-100572379D01*
X134516625Y-100484139D01*
X134516624Y-100484138D01*
X134516622Y-100484137D01*
X134382709Y-100428670D01*
X134239000Y-100409749D01*
X134095290Y-100428670D01*
X133961377Y-100484137D01*
X133846379Y-100572379D01*
X133758137Y-100687377D01*
X133702670Y-100821290D01*
X133683749Y-100964999D01*
X129941537Y-100964999D01*
X129932621Y-100953379D01*
X129817625Y-100865139D01*
X129817624Y-100865138D01*
X129817622Y-100865137D01*
X129683709Y-100809670D01*
X129540000Y-100790749D01*
X129396290Y-100809670D01*
X129262377Y-100865137D01*
X129147379Y-100953379D01*
X129059137Y-101068377D01*
X129003670Y-101202290D01*
X128984749Y-101346000D01*
X123556046Y-101346000D01*
X123475162Y-101194676D01*
X123354883Y-101048117D01*
X123208324Y-100927838D01*
X123041115Y-100838463D01*
X122946196Y-100809670D01*
X122859681Y-100783426D01*
X122671000Y-100764843D01*
X122482318Y-100783426D01*
X122300882Y-100838464D01*
X122133677Y-100927837D01*
X121987117Y-101048117D01*
X121866837Y-101194677D01*
X121777464Y-101361882D01*
X121722426Y-101543318D01*
X121703843Y-101732000D01*
X111838157Y-101732000D01*
X111819573Y-101543317D01*
X111764537Y-101361885D01*
X111675162Y-101194676D01*
X111554883Y-101048117D01*
X111408324Y-100927838D01*
X111241115Y-100838463D01*
X111146196Y-100809670D01*
X111059681Y-100783426D01*
X110871000Y-100764843D01*
X110682318Y-100783426D01*
X110500882Y-100838464D01*
X110333677Y-100927837D01*
X110187117Y-101048117D01*
X110066837Y-101194677D01*
X109977464Y-101361882D01*
X109922426Y-101543318D01*
X109903843Y-101732000D01*
X99012726Y-101732000D01*
X99076536Y-101648841D01*
X99137044Y-101502762D01*
X99154812Y-101367792D01*
X99179375Y-101308494D01*
X99230299Y-101269419D01*
X99293935Y-101261041D01*
X99333500Y-101266250D01*
X99477209Y-101247330D01*
X99611125Y-101191861D01*
X99726121Y-101103621D01*
X99814361Y-100988625D01*
X99869830Y-100854709D01*
X99888750Y-100711000D01*
X99869830Y-100567291D01*
X99814361Y-100433375D01*
X99726121Y-100318379D01*
X99611125Y-100230139D01*
X99611124Y-100230138D01*
X99611122Y-100230137D01*
X99477209Y-100174670D01*
X99393742Y-100163681D01*
X99337661Y-100141507D01*
X99298673Y-100095499D01*
X99285999Y-100036541D01*
X99302637Y-99978576D01*
X99344651Y-99935315D01*
X99366354Y-99921877D01*
X99409562Y-99895124D01*
X99489775Y-99822000D01*
X103788317Y-99822000D01*
X103808956Y-99978762D01*
X103869463Y-100124840D01*
X103965717Y-100250282D01*
X104074063Y-100333418D01*
X104091159Y-100346536D01*
X104237238Y-100407044D01*
X104394000Y-100427682D01*
X104550762Y-100407044D01*
X104696841Y-100346536D01*
X104822282Y-100250282D01*
X104842543Y-100223877D01*
X116540485Y-100223877D01*
X116559406Y-100367586D01*
X116614873Y-100501499D01*
X116614874Y-100501501D01*
X116614875Y-100501502D01*
X116703115Y-100616498D01*
X116818111Y-100704738D01*
X116952027Y-100760207D01*
X117095736Y-100779127D01*
X117239445Y-100760207D01*
X117373361Y-100704738D01*
X117488357Y-100616498D01*
X117576597Y-100501502D01*
X117632066Y-100367586D01*
X117650986Y-100223877D01*
X117632066Y-100080168D01*
X117576597Y-99946252D01*
X117488357Y-99831256D01*
X117373361Y-99743016D01*
X117373360Y-99743015D01*
X117373358Y-99743014D01*
X117257436Y-99694999D01*
X130508749Y-99694999D01*
X130527670Y-99838709D01*
X130583137Y-99972622D01*
X130583138Y-99972624D01*
X130583139Y-99972625D01*
X130671379Y-100087621D01*
X130786375Y-100175861D01*
X130920291Y-100231330D01*
X131064000Y-100250250D01*
X131207709Y-100231330D01*
X131341625Y-100175861D01*
X131456621Y-100087621D01*
X131544861Y-99972625D01*
X131600330Y-99838709D01*
X131608301Y-99778167D01*
X132369917Y-99778167D01*
X132388838Y-99921877D01*
X132444305Y-100055790D01*
X132444306Y-100055792D01*
X132444307Y-100055793D01*
X132532547Y-100170789D01*
X132647543Y-100259029D01*
X132781459Y-100314498D01*
X132925168Y-100333418D01*
X133068877Y-100314498D01*
X133202793Y-100259029D01*
X133317789Y-100170789D01*
X133406029Y-100055793D01*
X133461498Y-99921877D01*
X133480418Y-99778168D01*
X133461498Y-99634459D01*
X133406029Y-99500543D01*
X133317789Y-99385547D01*
X133202793Y-99297307D01*
X133202792Y-99297306D01*
X133202790Y-99297305D01*
X133068877Y-99241838D01*
X132925168Y-99222917D01*
X132781458Y-99241838D01*
X132647545Y-99297305D01*
X132532547Y-99385547D01*
X132444305Y-99500545D01*
X132388838Y-99634458D01*
X132369917Y-99778167D01*
X131608301Y-99778167D01*
X131619250Y-99695000D01*
X131600330Y-99551291D01*
X131544861Y-99417375D01*
X131456621Y-99302379D01*
X131341625Y-99214139D01*
X131341624Y-99214138D01*
X131341622Y-99214137D01*
X131207709Y-99158670D01*
X131064000Y-99139749D01*
X130920290Y-99158670D01*
X130786377Y-99214137D01*
X130671379Y-99302379D01*
X130583137Y-99417377D01*
X130527670Y-99551290D01*
X130508749Y-99694999D01*
X117257436Y-99694999D01*
X117239445Y-99687547D01*
X117095736Y-99668626D01*
X116952026Y-99687547D01*
X116818113Y-99743014D01*
X116703115Y-99831256D01*
X116614873Y-99946254D01*
X116559406Y-100080167D01*
X116540485Y-100223877D01*
X104842543Y-100223877D01*
X104918536Y-100124841D01*
X104979044Y-99978762D01*
X104999682Y-99822000D01*
X104979044Y-99665238D01*
X104918536Y-99519159D01*
X104904253Y-99500545D01*
X104822282Y-99393717D01*
X104696840Y-99297463D01*
X104550762Y-99236956D01*
X104394000Y-99216317D01*
X104237237Y-99236956D01*
X104091159Y-99297463D01*
X103965717Y-99393717D01*
X103869463Y-99519159D01*
X103808956Y-99665237D01*
X103788317Y-99822000D01*
X99489775Y-99822000D01*
X99573981Y-99745236D01*
X99708058Y-99567689D01*
X99807229Y-99368528D01*
X99827449Y-99297464D01*
X99844664Y-99236956D01*
X99868115Y-99154536D01*
X99888643Y-98933000D01*
X99879377Y-98832999D01*
X133795357Y-98832999D01*
X133815885Y-99054537D01*
X133876769Y-99268526D01*
X133975941Y-99467688D01*
X134110019Y-99645237D01*
X134274437Y-99795124D01*
X134463595Y-99912245D01*
X134463597Y-99912245D01*
X134463599Y-99912247D01*
X134671060Y-99992618D01*
X134889757Y-100033500D01*
X135112241Y-100033500D01*
X135112243Y-100033500D01*
X135330940Y-99992618D01*
X135538401Y-99912247D01*
X135727562Y-99795124D01*
X135866322Y-99668627D01*
X135891980Y-99645237D01*
X135900120Y-99634458D01*
X136026058Y-99467689D01*
X136125229Y-99268528D01*
X136138207Y-99222917D01*
X136157662Y-99154537D01*
X136186115Y-99054536D01*
X136206643Y-98833000D01*
X136186115Y-98611464D01*
X136153682Y-98497473D01*
X136125230Y-98397473D01*
X136026058Y-98198311D01*
X135891980Y-98020762D01*
X135727562Y-97870875D01*
X135538404Y-97753754D01*
X135477174Y-97730033D01*
X135330940Y-97673382D01*
X135112243Y-97632500D01*
X134889757Y-97632500D01*
X134671059Y-97673382D01*
X134671060Y-97673382D01*
X134463595Y-97753754D01*
X134274437Y-97870875D01*
X134110019Y-98020762D01*
X133975941Y-98198311D01*
X133876769Y-98397473D01*
X133815885Y-98611462D01*
X133795357Y-98832999D01*
X99879377Y-98832999D01*
X99868115Y-98711464D01*
X99839662Y-98611462D01*
X99807230Y-98497473D01*
X99708058Y-98298311D01*
X99573980Y-98120762D01*
X99409562Y-97970875D01*
X99305902Y-97906692D01*
X122111208Y-97906692D01*
X122130129Y-98050402D01*
X122185596Y-98184315D01*
X122185597Y-98184317D01*
X122185598Y-98184318D01*
X122273838Y-98299314D01*
X122388834Y-98387554D01*
X122388835Y-98387554D01*
X122388836Y-98387555D01*
X122412781Y-98397473D01*
X122522750Y-98443023D01*
X122666459Y-98461943D01*
X122810168Y-98443023D01*
X122944084Y-98387554D01*
X123059080Y-98299314D01*
X123147320Y-98184318D01*
X123202789Y-98050402D01*
X123221709Y-97906693D01*
X123202789Y-97762984D01*
X123148742Y-97632500D01*
X123147321Y-97629070D01*
X123147320Y-97629069D01*
X123147320Y-97629068D01*
X123059080Y-97514072D01*
X122944084Y-97425832D01*
X122944083Y-97425831D01*
X122944081Y-97425830D01*
X122810168Y-97370363D01*
X122666459Y-97351442D01*
X122522749Y-97370363D01*
X122388836Y-97425830D01*
X122273838Y-97514072D01*
X122185596Y-97629070D01*
X122130129Y-97762983D01*
X122111208Y-97906692D01*
X99305902Y-97906692D01*
X99220404Y-97853754D01*
X99159174Y-97830033D01*
X99012940Y-97773382D01*
X98794243Y-97732500D01*
X98571757Y-97732500D01*
X98408684Y-97762984D01*
X98353060Y-97773382D01*
X98145595Y-97853754D01*
X97956437Y-97970875D01*
X97792019Y-98120762D01*
X97657941Y-98298311D01*
X97558769Y-98497473D01*
X97497885Y-98711462D01*
X97477357Y-98933000D01*
X94107500Y-98933000D01*
X94107500Y-97095483D01*
X101866265Y-97095483D01*
X101885186Y-97239193D01*
X101940653Y-97373106D01*
X101940654Y-97373108D01*
X101940655Y-97373109D01*
X102028895Y-97488105D01*
X102143891Y-97576345D01*
X102277807Y-97631814D01*
X102421516Y-97650734D01*
X102565225Y-97631814D01*
X102699141Y-97576345D01*
X102814137Y-97488105D01*
X102902377Y-97373109D01*
X102957846Y-97239193D01*
X102976766Y-97095484D01*
X102957846Y-96951775D01*
X102902377Y-96817859D01*
X102814137Y-96702863D01*
X102699141Y-96614623D01*
X102699140Y-96614622D01*
X102699138Y-96614621D01*
X102565225Y-96559154D01*
X102421516Y-96540233D01*
X102277806Y-96559154D01*
X102143893Y-96614621D01*
X102028895Y-96702863D01*
X101940653Y-96817861D01*
X101885186Y-96951774D01*
X101866265Y-97095483D01*
X94107500Y-97095483D01*
X94107500Y-96139000D01*
X96422317Y-96139000D01*
X96442956Y-96295762D01*
X96503463Y-96441840D01*
X96599717Y-96567282D01*
X96688464Y-96635379D01*
X96725159Y-96663536D01*
X96871238Y-96724044D01*
X97028000Y-96744682D01*
X97184762Y-96724044D01*
X97330841Y-96663536D01*
X97456282Y-96567282D01*
X97552536Y-96441841D01*
X97557234Y-96430499D01*
X100232317Y-96430499D01*
X100252956Y-96587262D01*
X100313463Y-96733340D01*
X100409717Y-96858782D01*
X100530908Y-96951774D01*
X100535159Y-96955036D01*
X100681238Y-97015544D01*
X100838000Y-97036182D01*
X100994762Y-97015544D01*
X101140841Y-96955036D01*
X101266282Y-96858782D01*
X101362536Y-96733341D01*
X101423044Y-96587262D01*
X101443682Y-96430500D01*
X101423044Y-96273738D01*
X101367233Y-96138999D01*
X106251749Y-96138999D01*
X106270670Y-96282709D01*
X106326137Y-96416622D01*
X106326138Y-96416624D01*
X106326139Y-96416625D01*
X106414379Y-96531621D01*
X106529375Y-96619861D01*
X106663291Y-96675330D01*
X106807000Y-96694250D01*
X106950709Y-96675330D01*
X107084625Y-96619861D01*
X107199621Y-96531621D01*
X107208538Y-96520000D01*
X112093749Y-96520000D01*
X112112670Y-96663709D01*
X112168137Y-96797622D01*
X112168138Y-96797624D01*
X112168139Y-96797625D01*
X112256379Y-96912621D01*
X112371375Y-97000861D01*
X112505291Y-97056330D01*
X112649000Y-97075250D01*
X112792709Y-97056330D01*
X112926625Y-97000861D01*
X113041621Y-96912621D01*
X113129861Y-96797625D01*
X113185330Y-96663709D01*
X113204250Y-96520000D01*
X113185330Y-96376291D01*
X113139646Y-96265999D01*
X116665749Y-96265999D01*
X116684670Y-96409709D01*
X116740137Y-96543622D01*
X116740138Y-96543624D01*
X116740139Y-96543625D01*
X116828379Y-96658621D01*
X116943375Y-96746861D01*
X116943376Y-96746861D01*
X116943377Y-96746862D01*
X116973715Y-96759428D01*
X117077291Y-96802330D01*
X117221000Y-96821250D01*
X117364709Y-96802330D01*
X117498625Y-96746861D01*
X117613621Y-96658621D01*
X117701861Y-96543625D01*
X117711647Y-96520000D01*
X118824749Y-96520000D01*
X118843670Y-96663709D01*
X118899137Y-96797622D01*
X118899138Y-96797624D01*
X118899139Y-96797625D01*
X118987379Y-96912621D01*
X119102375Y-97000861D01*
X119236291Y-97056330D01*
X119380000Y-97075250D01*
X119523709Y-97056330D01*
X119657625Y-97000861D01*
X119772621Y-96912621D01*
X119789624Y-96890461D01*
X119833156Y-96854736D01*
X119888000Y-96841948D01*
X119942844Y-96854736D01*
X119986375Y-96890461D01*
X120003379Y-96912621D01*
X120118375Y-97000861D01*
X120252291Y-97056330D01*
X120396000Y-97075250D01*
X120539709Y-97056330D01*
X120608105Y-97028000D01*
X132159749Y-97028000D01*
X132178670Y-97171709D01*
X132234137Y-97305622D01*
X132234138Y-97305624D01*
X132234139Y-97305625D01*
X132322379Y-97420621D01*
X132437375Y-97508861D01*
X132437376Y-97508861D01*
X132437377Y-97508862D01*
X132467715Y-97521428D01*
X132571291Y-97564330D01*
X132715000Y-97583250D01*
X132858709Y-97564330D01*
X132992625Y-97508861D01*
X133107621Y-97420621D01*
X133195861Y-97305625D01*
X133251330Y-97171709D01*
X133270250Y-97028000D01*
X133251330Y-96884291D01*
X133195861Y-96750375D01*
X133107621Y-96635379D01*
X132992625Y-96547139D01*
X132992624Y-96547138D01*
X132992622Y-96547137D01*
X132858709Y-96491670D01*
X132715000Y-96472749D01*
X132571290Y-96491670D01*
X132437377Y-96547137D01*
X132322379Y-96635379D01*
X132234137Y-96750377D01*
X132178670Y-96884290D01*
X132159749Y-97028000D01*
X120608105Y-97028000D01*
X120673625Y-97000861D01*
X120788621Y-96912621D01*
X120876861Y-96797625D01*
X120932330Y-96663709D01*
X120951250Y-96520000D01*
X120932330Y-96376291D01*
X120876861Y-96242375D01*
X120788621Y-96127379D01*
X120673625Y-96039139D01*
X120673624Y-96039138D01*
X120673622Y-96039137D01*
X120539709Y-95983670D01*
X120396000Y-95964749D01*
X120252290Y-95983670D01*
X120118377Y-96039137D01*
X120003379Y-96127379D01*
X119986376Y-96149538D01*
X119942844Y-96185263D01*
X119888000Y-96198051D01*
X119833156Y-96185263D01*
X119789624Y-96149538D01*
X119781537Y-96138999D01*
X119772621Y-96127379D01*
X119657625Y-96039139D01*
X119657624Y-96039138D01*
X119657622Y-96039137D01*
X119523709Y-95983670D01*
X119380000Y-95964749D01*
X119236290Y-95983670D01*
X119102377Y-96039137D01*
X118987379Y-96127379D01*
X118899137Y-96242377D01*
X118843670Y-96376290D01*
X118824749Y-96520000D01*
X117711647Y-96520000D01*
X117757330Y-96409709D01*
X117776250Y-96266000D01*
X117757330Y-96122291D01*
X117707595Y-96002218D01*
X117701862Y-95988377D01*
X117701861Y-95988376D01*
X117701861Y-95988375D01*
X117613621Y-95873379D01*
X117498625Y-95785139D01*
X117498624Y-95785138D01*
X117498622Y-95785137D01*
X117364709Y-95729670D01*
X117221000Y-95710749D01*
X117077290Y-95729670D01*
X116943377Y-95785137D01*
X116828379Y-95873379D01*
X116740137Y-95988377D01*
X116684670Y-96122290D01*
X116665749Y-96265999D01*
X113139646Y-96265999D01*
X113129861Y-96242375D01*
X113041621Y-96127379D01*
X112926625Y-96039139D01*
X112926624Y-96039138D01*
X112926622Y-96039137D01*
X112792709Y-95983670D01*
X112649000Y-95964749D01*
X112505290Y-95983670D01*
X112371377Y-96039137D01*
X112256379Y-96127379D01*
X112168137Y-96242377D01*
X112112670Y-96376290D01*
X112093749Y-96520000D01*
X107208538Y-96520000D01*
X107287861Y-96416625D01*
X107343330Y-96282709D01*
X107362250Y-96139000D01*
X107343330Y-95995291D01*
X107287861Y-95861375D01*
X107199621Y-95746379D01*
X107084625Y-95658139D01*
X107084624Y-95658138D01*
X107084622Y-95658137D01*
X106950709Y-95602670D01*
X106807000Y-95583749D01*
X106663290Y-95602670D01*
X106529377Y-95658137D01*
X106414379Y-95746379D01*
X106326137Y-95861377D01*
X106270670Y-95995290D01*
X106251749Y-96138999D01*
X101367233Y-96138999D01*
X101362536Y-96127659D01*
X101358416Y-96122290D01*
X101266282Y-96002217D01*
X101140840Y-95905963D01*
X100994762Y-95845456D01*
X100838000Y-95824817D01*
X100681237Y-95845456D01*
X100535159Y-95905963D01*
X100409717Y-96002217D01*
X100313463Y-96127659D01*
X100252956Y-96273737D01*
X100232317Y-96430499D01*
X97557234Y-96430499D01*
X97613044Y-96295762D01*
X97633682Y-96139000D01*
X97613044Y-95982238D01*
X97571882Y-95882866D01*
X97563505Y-95819229D01*
X97588069Y-95759928D01*
X97638986Y-95720856D01*
X97743341Y-95677632D01*
X97868782Y-95581378D01*
X97965036Y-95455937D01*
X98025544Y-95309858D01*
X98033424Y-95250000D01*
X110823749Y-95250000D01*
X110842670Y-95393709D01*
X110898137Y-95527622D01*
X110898138Y-95527624D01*
X110898139Y-95527625D01*
X110986379Y-95642621D01*
X111101375Y-95730861D01*
X111235291Y-95786330D01*
X111379000Y-95805250D01*
X111522709Y-95786330D01*
X111656625Y-95730861D01*
X111771621Y-95642621D01*
X111859861Y-95527625D01*
X111915330Y-95393709D01*
X111934250Y-95250000D01*
X111915330Y-95106291D01*
X111859861Y-94972375D01*
X111771621Y-94857379D01*
X111656625Y-94769139D01*
X111656624Y-94769138D01*
X111656622Y-94769137D01*
X111522709Y-94713670D01*
X111379000Y-94694749D01*
X111235290Y-94713670D01*
X111101377Y-94769137D01*
X110986379Y-94857379D01*
X110898137Y-94972377D01*
X110842670Y-95106290D01*
X110823749Y-95250000D01*
X98033424Y-95250000D01*
X98046182Y-95153096D01*
X98025544Y-94996334D01*
X97965036Y-94850255D01*
X97902794Y-94769139D01*
X97868782Y-94724813D01*
X97743340Y-94628559D01*
X97597262Y-94568052D01*
X97440500Y-94547413D01*
X97283737Y-94568052D01*
X97137659Y-94628559D01*
X97012217Y-94724813D01*
X96915963Y-94850255D01*
X96855456Y-94996333D01*
X96834817Y-95153096D01*
X96855456Y-95309858D01*
X96896616Y-95409228D01*
X96904994Y-95472866D01*
X96880431Y-95532167D01*
X96829508Y-95571241D01*
X96725158Y-95614464D01*
X96599717Y-95710717D01*
X96503463Y-95836159D01*
X96442956Y-95982237D01*
X96422317Y-96139000D01*
X94107500Y-96139000D01*
X94107500Y-93472000D01*
X110823749Y-93472000D01*
X110842670Y-93615709D01*
X110898137Y-93749622D01*
X110898138Y-93749624D01*
X110898139Y-93749625D01*
X110986379Y-93864621D01*
X111101375Y-93952861D01*
X111235291Y-94008330D01*
X111379000Y-94027250D01*
X111522709Y-94008330D01*
X111656625Y-93952861D01*
X111771621Y-93864621D01*
X111859861Y-93749625D01*
X111915330Y-93615709D01*
X111917530Y-93598999D01*
X125809749Y-93598999D01*
X125828670Y-93742709D01*
X125884137Y-93876622D01*
X125884138Y-93876624D01*
X125884139Y-93876625D01*
X125972379Y-93991621D01*
X126087375Y-94079861D01*
X126221291Y-94135330D01*
X126365000Y-94154250D01*
X126508709Y-94135330D01*
X126642625Y-94079861D01*
X126757621Y-93991621D01*
X126845861Y-93876625D01*
X126901330Y-93742709D01*
X126920250Y-93599000D01*
X126901330Y-93455291D01*
X126845861Y-93321375D01*
X126757621Y-93206379D01*
X126642625Y-93118139D01*
X126642624Y-93118138D01*
X126642622Y-93118137D01*
X126508709Y-93062670D01*
X126365000Y-93043749D01*
X126221290Y-93062670D01*
X126087377Y-93118137D01*
X125972379Y-93206379D01*
X125884137Y-93321377D01*
X125828670Y-93455290D01*
X125809749Y-93598999D01*
X111917530Y-93598999D01*
X111934250Y-93472000D01*
X111915330Y-93328291D01*
X111859861Y-93194375D01*
X111771621Y-93079379D01*
X111656625Y-92991139D01*
X111656624Y-92991138D01*
X111656622Y-92991137D01*
X111522709Y-92935670D01*
X111379000Y-92916749D01*
X111235290Y-92935670D01*
X111101377Y-92991137D01*
X110986379Y-93079379D01*
X110898137Y-93194377D01*
X110842670Y-93328290D01*
X110823749Y-93472000D01*
X94107500Y-93472000D01*
X94107500Y-91820999D01*
X125739249Y-91820999D01*
X125758170Y-91964709D01*
X125813637Y-92098622D01*
X125813638Y-92098624D01*
X125813639Y-92098625D01*
X125901879Y-92213621D01*
X126016875Y-92301861D01*
X126150791Y-92357330D01*
X126294500Y-92376250D01*
X126438209Y-92357330D01*
X126572125Y-92301861D01*
X126687121Y-92213621D01*
X126775361Y-92098625D01*
X126830830Y-91964709D01*
X126849750Y-91821000D01*
X126830830Y-91677291D01*
X126775361Y-91543375D01*
X126687121Y-91428379D01*
X126572125Y-91340139D01*
X126572124Y-91340138D01*
X126572122Y-91340137D01*
X126438209Y-91284670D01*
X126294500Y-91265749D01*
X126150790Y-91284670D01*
X126016877Y-91340137D01*
X125901879Y-91428379D01*
X125813637Y-91543377D01*
X125758170Y-91677290D01*
X125739249Y-91820999D01*
X94107500Y-91820999D01*
X94107500Y-91059000D01*
X133302749Y-91059000D01*
X133321670Y-91202709D01*
X133377137Y-91336622D01*
X133377138Y-91336624D01*
X133377139Y-91336625D01*
X133465379Y-91451621D01*
X133580375Y-91539861D01*
X133580376Y-91539861D01*
X133580377Y-91539862D01*
X133610715Y-91552428D01*
X133714291Y-91595330D01*
X133858000Y-91614250D01*
X134001709Y-91595330D01*
X134135625Y-91539861D01*
X134250621Y-91451621D01*
X134338861Y-91336625D01*
X134394330Y-91202709D01*
X134413250Y-91059000D01*
X134394330Y-90915291D01*
X134338861Y-90781375D01*
X134250621Y-90666379D01*
X134135625Y-90578139D01*
X134135624Y-90578138D01*
X134135622Y-90578137D01*
X134070103Y-90550999D01*
X135969749Y-90550999D01*
X135988670Y-90694709D01*
X136044137Y-90828622D01*
X136044138Y-90828624D01*
X136044139Y-90828625D01*
X136132379Y-90943621D01*
X136247375Y-91031861D01*
X136381291Y-91087330D01*
X136525000Y-91106250D01*
X136668709Y-91087330D01*
X136802625Y-91031861D01*
X136917621Y-90943621D01*
X137005861Y-90828625D01*
X137061330Y-90694709D01*
X137080250Y-90551000D01*
X137061330Y-90407291D01*
X137005861Y-90273375D01*
X136917621Y-90158379D01*
X136802625Y-90070139D01*
X136802624Y-90070138D01*
X136802622Y-90070137D01*
X136668709Y-90014670D01*
X136525000Y-89995749D01*
X136381290Y-90014670D01*
X136247377Y-90070137D01*
X136132379Y-90158379D01*
X136044137Y-90273377D01*
X135988670Y-90407290D01*
X135969749Y-90550999D01*
X134070103Y-90550999D01*
X134001709Y-90522670D01*
X133858000Y-90503749D01*
X133714290Y-90522670D01*
X133580377Y-90578137D01*
X133465379Y-90666379D01*
X133377137Y-90781377D01*
X133321670Y-90915290D01*
X133302749Y-91059000D01*
X94107500Y-91059000D01*
X94107500Y-90424000D01*
X96980749Y-90424000D01*
X96999670Y-90567709D01*
X97055137Y-90701622D01*
X97055138Y-90701624D01*
X97055139Y-90701625D01*
X97143379Y-90816621D01*
X97258375Y-90904861D01*
X97392291Y-90960330D01*
X97536000Y-90979250D01*
X97679709Y-90960330D01*
X97813625Y-90904861D01*
X97928621Y-90816621D01*
X98016861Y-90701625D01*
X98072330Y-90567709D01*
X98091250Y-90424000D01*
X98072330Y-90280291D01*
X98026647Y-90170000D01*
X99978317Y-90170000D01*
X99998956Y-90326762D01*
X100059463Y-90472840D01*
X100155717Y-90598282D01*
X100244464Y-90666379D01*
X100281159Y-90694536D01*
X100427238Y-90755044D01*
X100584000Y-90775682D01*
X100740762Y-90755044D01*
X100886841Y-90694536D01*
X101012282Y-90598282D01*
X101108536Y-90472841D01*
X101128767Y-90424000D01*
X103280317Y-90424000D01*
X103300956Y-90580762D01*
X103361463Y-90726840D01*
X103457717Y-90852282D01*
X103539832Y-90915290D01*
X103583159Y-90948536D01*
X103729238Y-91009044D01*
X103886000Y-91029682D01*
X104042762Y-91009044D01*
X104188841Y-90948536D01*
X104314282Y-90852282D01*
X104410536Y-90726841D01*
X104471044Y-90580762D01*
X104491682Y-90424000D01*
X104474962Y-90297000D01*
X128730749Y-90297000D01*
X128749670Y-90440709D01*
X128805137Y-90574622D01*
X128805138Y-90574624D01*
X128805139Y-90574625D01*
X128893379Y-90689621D01*
X129008375Y-90777861D01*
X129008376Y-90777861D01*
X129008377Y-90777862D01*
X129038715Y-90790428D01*
X129142291Y-90833330D01*
X129286000Y-90852250D01*
X129429709Y-90833330D01*
X129563625Y-90777861D01*
X129678621Y-90689621D01*
X129766861Y-90574625D01*
X129822330Y-90440709D01*
X129841250Y-90297000D01*
X129822330Y-90153291D01*
X129766861Y-90019375D01*
X129678621Y-89904379D01*
X129563625Y-89816139D01*
X129563624Y-89816138D01*
X129563622Y-89816137D01*
X129429709Y-89760670D01*
X129286000Y-89741749D01*
X129142290Y-89760670D01*
X129008377Y-89816137D01*
X128893379Y-89904379D01*
X128805137Y-90019377D01*
X128749670Y-90153290D01*
X128730749Y-90297000D01*
X104474962Y-90297000D01*
X104471044Y-90267238D01*
X104410536Y-90121159D01*
X104341646Y-90031379D01*
X104314282Y-89995717D01*
X104188840Y-89899463D01*
X104042762Y-89838956D01*
X103886000Y-89818317D01*
X103729237Y-89838956D01*
X103583159Y-89899463D01*
X103457717Y-89995717D01*
X103361463Y-90121159D01*
X103300956Y-90267237D01*
X103280317Y-90424000D01*
X101128767Y-90424000D01*
X101169044Y-90326762D01*
X101189682Y-90170000D01*
X101169044Y-90013238D01*
X101108536Y-89867159D01*
X101071059Y-89818318D01*
X101012282Y-89741717D01*
X100886840Y-89645463D01*
X100740762Y-89584956D01*
X100584000Y-89564317D01*
X100427237Y-89584956D01*
X100281159Y-89645463D01*
X100155717Y-89741717D01*
X100059463Y-89867159D01*
X99998956Y-90013237D01*
X99978317Y-90170000D01*
X98026647Y-90170000D01*
X98016861Y-90146375D01*
X97928621Y-90031379D01*
X97813625Y-89943139D01*
X97813624Y-89943138D01*
X97813622Y-89943137D01*
X97679709Y-89887670D01*
X97536000Y-89868749D01*
X97392290Y-89887670D01*
X97258377Y-89943137D01*
X97143379Y-90031379D01*
X97055137Y-90146377D01*
X96999670Y-90280290D01*
X96980749Y-90424000D01*
X94107500Y-90424000D01*
X94107500Y-88138000D01*
X102978817Y-88138000D01*
X102999456Y-88294762D01*
X103059963Y-88440840D01*
X103156217Y-88566282D01*
X103281659Y-88662536D01*
X103427738Y-88723044D01*
X103584500Y-88743682D01*
X103741262Y-88723044D01*
X103887341Y-88662536D01*
X104012782Y-88566282D01*
X104109036Y-88440841D01*
X104169544Y-88294762D01*
X104190182Y-88138000D01*
X104173462Y-88011000D01*
X110696749Y-88011000D01*
X110715670Y-88154709D01*
X110771137Y-88288622D01*
X110771138Y-88288624D01*
X110771139Y-88288625D01*
X110859379Y-88403621D01*
X110974375Y-88491861D01*
X111108291Y-88547330D01*
X111252000Y-88566250D01*
X111395709Y-88547330D01*
X111529625Y-88491861D01*
X111644621Y-88403621D01*
X111732861Y-88288625D01*
X111788330Y-88154709D01*
X111807250Y-88011000D01*
X111788330Y-87867291D01*
X111732861Y-87733375D01*
X111644621Y-87618379D01*
X111529625Y-87530139D01*
X111529624Y-87530138D01*
X111529622Y-87530137D01*
X111395709Y-87474670D01*
X111252000Y-87455749D01*
X111108290Y-87474670D01*
X110974377Y-87530137D01*
X110859379Y-87618379D01*
X110771137Y-87733377D01*
X110715670Y-87867290D01*
X110696749Y-88011000D01*
X104173462Y-88011000D01*
X104169544Y-87981238D01*
X104109036Y-87835159D01*
X104109035Y-87835158D01*
X104012782Y-87709717D01*
X103887340Y-87613463D01*
X103741262Y-87552956D01*
X103584500Y-87532317D01*
X103427737Y-87552956D01*
X103281659Y-87613463D01*
X103156217Y-87709717D01*
X103059963Y-87835159D01*
X102999456Y-87981237D01*
X102978817Y-88138000D01*
X94107500Y-88138000D01*
X94107500Y-86401766D01*
X112262515Y-86401766D01*
X112281436Y-86545475D01*
X112336903Y-86679388D01*
X112336904Y-86679390D01*
X112336905Y-86679391D01*
X112425145Y-86794387D01*
X112540141Y-86882627D01*
X112674057Y-86938096D01*
X112817766Y-86957016D01*
X112961475Y-86938096D01*
X113095391Y-86882627D01*
X113114453Y-86868000D01*
X120348749Y-86868000D01*
X120367670Y-87011709D01*
X120423137Y-87145622D01*
X120423138Y-87145624D01*
X120423139Y-87145625D01*
X120511379Y-87260621D01*
X120626375Y-87348861D01*
X120760291Y-87404330D01*
X120904000Y-87423250D01*
X121047709Y-87404330D01*
X121181625Y-87348861D01*
X121296621Y-87260621D01*
X121384861Y-87145625D01*
X121440330Y-87011709D01*
X121459250Y-86868000D01*
X121440330Y-86724291D01*
X121384861Y-86590375D01*
X121296621Y-86475379D01*
X121181625Y-86387139D01*
X121181624Y-86387138D01*
X121181622Y-86387137D01*
X121116103Y-86359999D01*
X129492749Y-86359999D01*
X129511670Y-86503709D01*
X129567137Y-86637622D01*
X129567138Y-86637624D01*
X129567139Y-86637625D01*
X129655379Y-86752621D01*
X129770375Y-86840861D01*
X129904291Y-86896330D01*
X130048000Y-86915250D01*
X130191709Y-86896330D01*
X130325625Y-86840861D01*
X130440621Y-86752621D01*
X130528861Y-86637625D01*
X130584330Y-86503709D01*
X130603250Y-86360000D01*
X130584330Y-86216291D01*
X130528861Y-86082375D01*
X130440621Y-85967379D01*
X130325625Y-85879139D01*
X130325624Y-85879138D01*
X130325622Y-85879137D01*
X130191709Y-85823670D01*
X130048000Y-85804749D01*
X129904290Y-85823670D01*
X129770377Y-85879137D01*
X129655379Y-85967379D01*
X129567137Y-86082377D01*
X129511670Y-86216290D01*
X129492749Y-86359999D01*
X121116103Y-86359999D01*
X121047709Y-86331670D01*
X120904000Y-86312749D01*
X120760290Y-86331670D01*
X120626377Y-86387137D01*
X120511379Y-86475379D01*
X120423137Y-86590377D01*
X120367670Y-86724290D01*
X120348749Y-86868000D01*
X113114453Y-86868000D01*
X113210387Y-86794387D01*
X113298627Y-86679391D01*
X113354096Y-86545475D01*
X113373016Y-86401766D01*
X113354096Y-86258057D01*
X113298627Y-86124141D01*
X113210387Y-86009145D01*
X113095391Y-85920905D01*
X113095390Y-85920904D01*
X113095388Y-85920903D01*
X112961475Y-85865436D01*
X112817766Y-85846515D01*
X112674056Y-85865436D01*
X112540143Y-85920903D01*
X112425145Y-86009145D01*
X112336903Y-86124143D01*
X112281436Y-86258056D01*
X112262515Y-86401766D01*
X94107500Y-86401766D01*
X94107500Y-85598000D01*
X134064749Y-85598000D01*
X134083670Y-85741709D01*
X134139137Y-85875622D01*
X134139138Y-85875624D01*
X134139139Y-85875625D01*
X134227379Y-85990621D01*
X134342375Y-86078861D01*
X134342376Y-86078861D01*
X134342377Y-86078862D01*
X134372715Y-86091428D01*
X134476291Y-86134330D01*
X134620000Y-86153250D01*
X134763709Y-86134330D01*
X134897625Y-86078861D01*
X135012621Y-85990621D01*
X135100861Y-85875625D01*
X135156330Y-85741709D01*
X135175250Y-85598000D01*
X135156330Y-85454291D01*
X135100861Y-85320375D01*
X135012621Y-85205379D01*
X134897625Y-85117139D01*
X134897624Y-85117138D01*
X134897622Y-85117137D01*
X134763709Y-85061670D01*
X134620000Y-85042749D01*
X134476290Y-85061670D01*
X134342377Y-85117137D01*
X134227379Y-85205379D01*
X134139137Y-85320377D01*
X134083670Y-85454290D01*
X134064749Y-85598000D01*
X94107500Y-85598000D01*
X94107500Y-84709000D01*
X121364749Y-84709000D01*
X121383670Y-84852709D01*
X121439137Y-84986622D01*
X121439138Y-84986624D01*
X121439139Y-84986625D01*
X121527379Y-85101621D01*
X121642375Y-85189861D01*
X121776291Y-85245330D01*
X121920000Y-85264250D01*
X122063709Y-85245330D01*
X122197625Y-85189861D01*
X122312621Y-85101621D01*
X122400861Y-84986625D01*
X122456330Y-84852709D01*
X122475250Y-84709000D01*
X122456330Y-84565291D01*
X122400861Y-84431375D01*
X122312621Y-84316379D01*
X122197625Y-84228139D01*
X122197624Y-84228138D01*
X122197622Y-84228137D01*
X122063709Y-84172670D01*
X121920000Y-84153749D01*
X121776290Y-84172670D01*
X121642377Y-84228137D01*
X121527379Y-84316379D01*
X121439137Y-84431377D01*
X121383670Y-84565290D01*
X121364749Y-84709000D01*
X94107500Y-84709000D01*
X94107500Y-84074000D01*
X128222749Y-84074000D01*
X128241670Y-84217709D01*
X128297137Y-84351622D01*
X128297138Y-84351624D01*
X128297139Y-84351625D01*
X128385379Y-84466621D01*
X128500375Y-84554861D01*
X128634291Y-84610330D01*
X128778000Y-84629250D01*
X128921709Y-84610330D01*
X129055625Y-84554861D01*
X129170621Y-84466621D01*
X129258861Y-84351625D01*
X129298438Y-84256074D01*
X129332468Y-84209236D01*
X129384053Y-84182952D01*
X129441947Y-84182952D01*
X129493532Y-84209236D01*
X129527561Y-84256074D01*
X129567137Y-84351622D01*
X129567138Y-84351624D01*
X129567139Y-84351625D01*
X129655379Y-84466621D01*
X129770375Y-84554861D01*
X129904291Y-84610330D01*
X130048000Y-84629250D01*
X130191709Y-84610330D01*
X130325625Y-84554861D01*
X130440621Y-84466621D01*
X130528861Y-84351625D01*
X130584330Y-84217709D01*
X130603250Y-84074000D01*
X130584330Y-83930291D01*
X130528861Y-83796375D01*
X130440621Y-83681379D01*
X130325625Y-83593139D01*
X130325624Y-83593138D01*
X130325622Y-83593137D01*
X130191709Y-83537670D01*
X130048000Y-83518749D01*
X129904290Y-83537670D01*
X129770377Y-83593137D01*
X129655379Y-83681379D01*
X129567137Y-83796377D01*
X129527561Y-83891925D01*
X129493532Y-83938763D01*
X129441947Y-83965047D01*
X129384053Y-83965047D01*
X129332468Y-83938763D01*
X129298439Y-83891925D01*
X129258862Y-83796377D01*
X129258861Y-83796376D01*
X129258861Y-83796375D01*
X129170621Y-83681379D01*
X129055625Y-83593139D01*
X129055624Y-83593138D01*
X129055622Y-83593137D01*
X128921709Y-83537670D01*
X128778000Y-83518749D01*
X128634290Y-83537670D01*
X128500377Y-83593137D01*
X128385379Y-83681379D01*
X128297137Y-83796377D01*
X128241670Y-83930290D01*
X128222749Y-84074000D01*
X94107500Y-84074000D01*
X94107500Y-82169000D01*
X104727749Y-82169000D01*
X104746670Y-82312709D01*
X104802137Y-82446622D01*
X104802138Y-82446624D01*
X104802139Y-82446625D01*
X104890379Y-82561621D01*
X105005375Y-82649861D01*
X105139291Y-82705330D01*
X105283000Y-82724250D01*
X105426709Y-82705330D01*
X105495107Y-82676999D01*
X110696749Y-82676999D01*
X110715670Y-82820709D01*
X110771137Y-82954622D01*
X110771138Y-82954624D01*
X110771139Y-82954625D01*
X110859379Y-83069621D01*
X110974375Y-83157861D01*
X111108291Y-83213330D01*
X111252000Y-83232250D01*
X111395709Y-83213330D01*
X111529625Y-83157861D01*
X111644621Y-83069621D01*
X111732861Y-82954625D01*
X111785310Y-82827999D01*
X126317749Y-82827999D01*
X126336670Y-82971709D01*
X126392137Y-83105622D01*
X126392138Y-83105624D01*
X126392139Y-83105625D01*
X126480379Y-83220621D01*
X126595375Y-83308861D01*
X126729291Y-83364330D01*
X126873000Y-83383250D01*
X127016709Y-83364330D01*
X127150625Y-83308861D01*
X127265621Y-83220621D01*
X127353861Y-83105625D01*
X127409330Y-82971709D01*
X127428250Y-82828000D01*
X127409330Y-82684291D01*
X127353861Y-82550375D01*
X127265621Y-82435379D01*
X127150625Y-82347139D01*
X127150624Y-82347138D01*
X127150622Y-82347137D01*
X127016709Y-82291670D01*
X126873000Y-82272749D01*
X126729290Y-82291670D01*
X126595377Y-82347137D01*
X126480379Y-82435379D01*
X126392137Y-82550377D01*
X126336670Y-82684290D01*
X126317749Y-82827999D01*
X111785310Y-82827999D01*
X111788330Y-82820709D01*
X111807250Y-82677000D01*
X111788330Y-82533291D01*
X111732861Y-82399375D01*
X111644621Y-82284379D01*
X111529625Y-82196139D01*
X111529624Y-82196138D01*
X111529622Y-82196137D01*
X111395709Y-82140670D01*
X111252000Y-82121749D01*
X111108290Y-82140670D01*
X110974377Y-82196137D01*
X110859379Y-82284379D01*
X110771137Y-82399377D01*
X110715670Y-82533290D01*
X110696749Y-82676999D01*
X105495107Y-82676999D01*
X105560625Y-82649861D01*
X105675621Y-82561621D01*
X105763861Y-82446625D01*
X105819330Y-82312709D01*
X105838250Y-82169000D01*
X105819330Y-82025291D01*
X105763861Y-81891375D01*
X105675621Y-81776379D01*
X105560625Y-81688139D01*
X105560624Y-81688138D01*
X105560622Y-81688137D01*
X105426709Y-81632670D01*
X105283000Y-81613749D01*
X105139290Y-81632670D01*
X105005377Y-81688137D01*
X104890379Y-81776379D01*
X104802137Y-81891377D01*
X104746670Y-82025290D01*
X104727749Y-82169000D01*
X94107500Y-82169000D01*
X94107500Y-80010000D01*
X134064749Y-80010000D01*
X134083670Y-80153709D01*
X134139137Y-80287622D01*
X134139138Y-80287624D01*
X134139139Y-80287625D01*
X134227379Y-80402621D01*
X134342375Y-80490861D01*
X134476291Y-80546330D01*
X134620000Y-80565250D01*
X134763709Y-80546330D01*
X134897625Y-80490861D01*
X135012621Y-80402621D01*
X135100861Y-80287625D01*
X135156330Y-80153709D01*
X135175250Y-80010000D01*
X135156330Y-79866291D01*
X135100861Y-79732375D01*
X135012621Y-79617379D01*
X134897625Y-79529139D01*
X134897624Y-79529138D01*
X134897622Y-79529137D01*
X134763709Y-79473670D01*
X134620000Y-79454749D01*
X134476290Y-79473670D01*
X134342377Y-79529137D01*
X134227379Y-79617379D01*
X134139137Y-79732377D01*
X134083670Y-79866290D01*
X134064749Y-80010000D01*
X94107500Y-80010000D01*
X94107500Y-79121000D01*
X107706249Y-79121000D01*
X107725170Y-79264709D01*
X107780637Y-79398622D01*
X107780638Y-79398624D01*
X107780639Y-79398625D01*
X107868879Y-79513621D01*
X107983875Y-79601861D01*
X108117791Y-79657330D01*
X108261500Y-79676250D01*
X108405209Y-79657330D01*
X108539125Y-79601861D01*
X108654121Y-79513621D01*
X108742361Y-79398625D01*
X108797830Y-79264709D01*
X108803782Y-79219499D01*
X124868249Y-79219499D01*
X124887170Y-79363209D01*
X124942637Y-79497122D01*
X124942638Y-79497124D01*
X124942639Y-79497125D01*
X125030879Y-79612121D01*
X125145875Y-79700361D01*
X125279791Y-79755830D01*
X125423500Y-79774750D01*
X125567209Y-79755830D01*
X125701125Y-79700361D01*
X125816121Y-79612121D01*
X125904361Y-79497125D01*
X125959830Y-79363209D01*
X125978750Y-79219500D01*
X125965782Y-79120999D01*
X126444749Y-79120999D01*
X126463670Y-79264709D01*
X126519137Y-79398622D01*
X126519138Y-79398624D01*
X126519139Y-79398625D01*
X126607379Y-79513621D01*
X126722375Y-79601861D01*
X126856291Y-79657330D01*
X127000000Y-79676250D01*
X127143709Y-79657330D01*
X127277625Y-79601861D01*
X127392621Y-79513621D01*
X127480861Y-79398625D01*
X127520438Y-79303074D01*
X127554468Y-79256236D01*
X127606053Y-79229952D01*
X127663947Y-79229952D01*
X127715532Y-79256236D01*
X127749561Y-79303074D01*
X127789137Y-79398622D01*
X127789138Y-79398624D01*
X127789139Y-79398625D01*
X127877379Y-79513621D01*
X127992375Y-79601861D01*
X128126291Y-79657330D01*
X128270000Y-79676250D01*
X128413709Y-79657330D01*
X128547625Y-79601861D01*
X128662621Y-79513621D01*
X128750861Y-79398625D01*
X128806330Y-79264709D01*
X128825250Y-79121000D01*
X128806330Y-78977291D01*
X128750861Y-78843375D01*
X128662621Y-78728379D01*
X128547625Y-78640139D01*
X128547624Y-78640138D01*
X128547622Y-78640137D01*
X128413709Y-78584670D01*
X128270000Y-78565749D01*
X128126290Y-78584670D01*
X127992377Y-78640137D01*
X127877379Y-78728379D01*
X127789137Y-78843377D01*
X127749561Y-78938925D01*
X127715532Y-78985763D01*
X127663947Y-79012047D01*
X127606053Y-79012047D01*
X127554468Y-78985763D01*
X127520439Y-78938925D01*
X127480862Y-78843377D01*
X127480861Y-78843376D01*
X127480861Y-78843375D01*
X127392621Y-78728379D01*
X127277625Y-78640139D01*
X127277624Y-78640138D01*
X127277622Y-78640137D01*
X127143709Y-78584670D01*
X127000000Y-78565749D01*
X126856290Y-78584670D01*
X126722377Y-78640137D01*
X126607379Y-78728379D01*
X126519137Y-78843377D01*
X126463670Y-78977290D01*
X126444749Y-79120999D01*
X125965782Y-79120999D01*
X125959830Y-79075791D01*
X125904361Y-78941875D01*
X125816121Y-78826879D01*
X125701125Y-78738639D01*
X125701124Y-78738638D01*
X125701122Y-78738637D01*
X125567209Y-78683170D01*
X125423500Y-78664249D01*
X125279790Y-78683170D01*
X125145877Y-78738637D01*
X125030879Y-78826879D01*
X124942637Y-78941877D01*
X124887170Y-79075790D01*
X124868249Y-79219499D01*
X108803782Y-79219499D01*
X108816750Y-79121000D01*
X108797830Y-78977291D01*
X108742361Y-78843375D01*
X108654121Y-78728379D01*
X108539125Y-78640139D01*
X108539124Y-78640138D01*
X108539122Y-78640137D01*
X108405209Y-78584670D01*
X108261500Y-78565749D01*
X108117790Y-78584670D01*
X107983877Y-78640137D01*
X107868879Y-78728379D01*
X107780637Y-78843377D01*
X107725170Y-78977290D01*
X107706249Y-79121000D01*
X94107500Y-79121000D01*
X94107500Y-76581000D01*
X122380749Y-76581000D01*
X122399670Y-76724709D01*
X122455137Y-76858622D01*
X122455138Y-76858624D01*
X122455139Y-76858625D01*
X122543379Y-76973621D01*
X122658375Y-77061861D01*
X122792291Y-77117330D01*
X122936000Y-77136250D01*
X123079709Y-77117330D01*
X123213625Y-77061861D01*
X123328621Y-76973621D01*
X123416861Y-76858625D01*
X123472330Y-76724709D01*
X123491250Y-76581000D01*
X123472330Y-76437291D01*
X123416861Y-76303375D01*
X123328621Y-76188379D01*
X123213625Y-76100139D01*
X123213624Y-76100138D01*
X123213622Y-76100137D01*
X123079709Y-76044670D01*
X122936000Y-76025749D01*
X122792290Y-76044670D01*
X122658377Y-76100137D01*
X122543379Y-76188379D01*
X122455137Y-76303377D01*
X122399670Y-76437290D01*
X122380749Y-76581000D01*
X94107500Y-76581000D01*
X94107500Y-75437999D01*
X113694317Y-75437999D01*
X113714956Y-75594762D01*
X113775463Y-75740840D01*
X113871717Y-75866282D01*
X113997158Y-75962535D01*
X113997159Y-75962536D01*
X114143238Y-76023044D01*
X114300000Y-76043682D01*
X114456762Y-76023044D01*
X114602841Y-75962536D01*
X114728282Y-75866282D01*
X114824536Y-75740841D01*
X114885044Y-75594762D01*
X114905682Y-75438000D01*
X114885044Y-75281238D01*
X114844767Y-75184000D01*
X124920749Y-75184000D01*
X124939670Y-75327709D01*
X124995137Y-75461622D01*
X124995138Y-75461624D01*
X124995139Y-75461625D01*
X125083379Y-75576621D01*
X125198375Y-75664861D01*
X125332291Y-75720330D01*
X125476000Y-75739250D01*
X125619709Y-75720330D01*
X125753625Y-75664861D01*
X125868621Y-75576621D01*
X125956861Y-75461625D01*
X126012330Y-75327709D01*
X126031250Y-75184000D01*
X126012330Y-75040291D01*
X125956861Y-74906375D01*
X125868621Y-74791379D01*
X125753625Y-74703139D01*
X125753624Y-74703138D01*
X125753622Y-74703137D01*
X125619709Y-74647670D01*
X125476000Y-74628749D01*
X125332290Y-74647670D01*
X125198377Y-74703137D01*
X125083379Y-74791379D01*
X124995137Y-74906377D01*
X124939670Y-75040290D01*
X124920749Y-75184000D01*
X114844767Y-75184000D01*
X114824536Y-75135159D01*
X114728282Y-75009717D01*
X114602840Y-74913463D01*
X114456762Y-74852956D01*
X114300000Y-74832317D01*
X114143237Y-74852956D01*
X113997159Y-74913463D01*
X113871717Y-75009717D01*
X113775463Y-75135159D01*
X113714956Y-75281237D01*
X113694317Y-75437999D01*
X94107500Y-75437999D01*
X94107500Y-74168000D01*
X110188749Y-74168000D01*
X110207670Y-74311709D01*
X110263137Y-74445622D01*
X110263138Y-74445624D01*
X110263139Y-74445625D01*
X110351379Y-74560621D01*
X110466375Y-74648861D01*
X110600291Y-74704330D01*
X110744000Y-74723250D01*
X110887709Y-74704330D01*
X111021625Y-74648861D01*
X111136621Y-74560621D01*
X111224861Y-74445625D01*
X111280330Y-74311709D01*
X111299250Y-74168000D01*
X111280330Y-74024291D01*
X111224861Y-73890375D01*
X111136621Y-73775379D01*
X111021625Y-73687139D01*
X111021624Y-73687138D01*
X111021622Y-73687137D01*
X110956106Y-73660000D01*
X113744749Y-73660000D01*
X113763670Y-73803709D01*
X113819137Y-73937622D01*
X113819138Y-73937624D01*
X113819139Y-73937625D01*
X113907379Y-74052621D01*
X114022375Y-74140861D01*
X114156291Y-74196330D01*
X114300000Y-74215250D01*
X114443709Y-74196330D01*
X114577625Y-74140861D01*
X114687095Y-74056861D01*
X116491441Y-74056861D01*
X116510362Y-74200571D01*
X116565829Y-74334484D01*
X116565830Y-74334486D01*
X116565831Y-74334487D01*
X116654071Y-74449483D01*
X116769067Y-74537723D01*
X116902983Y-74593192D01*
X117046692Y-74612112D01*
X117190401Y-74593192D01*
X117324317Y-74537723D01*
X117439313Y-74449483D01*
X117527553Y-74334487D01*
X117583022Y-74200571D01*
X117601942Y-74056862D01*
X117583022Y-73913153D01*
X117540120Y-73809577D01*
X117527554Y-73779239D01*
X117527553Y-73779238D01*
X117527553Y-73779237D01*
X117439313Y-73664241D01*
X117324317Y-73576001D01*
X117324316Y-73576000D01*
X117324314Y-73575999D01*
X117190401Y-73520532D01*
X117046692Y-73501611D01*
X116902982Y-73520532D01*
X116769069Y-73575999D01*
X116654071Y-73664241D01*
X116565829Y-73779239D01*
X116510362Y-73913152D01*
X116491441Y-74056861D01*
X114687095Y-74056861D01*
X114692621Y-74052621D01*
X114780861Y-73937625D01*
X114836330Y-73803709D01*
X114855250Y-73660000D01*
X114836330Y-73516291D01*
X114780861Y-73382375D01*
X114692621Y-73267379D01*
X114577625Y-73179139D01*
X114577624Y-73179138D01*
X114577622Y-73179137D01*
X114443709Y-73123670D01*
X114300000Y-73104749D01*
X114156290Y-73123670D01*
X114022377Y-73179137D01*
X113907379Y-73267379D01*
X113819137Y-73382377D01*
X113763670Y-73516290D01*
X113744749Y-73660000D01*
X110956106Y-73660000D01*
X110887709Y-73631670D01*
X110744000Y-73612749D01*
X110600290Y-73631670D01*
X110466377Y-73687137D01*
X110351379Y-73775379D01*
X110263137Y-73890377D01*
X110207670Y-74024290D01*
X110188749Y-74168000D01*
X94107500Y-74168000D01*
X94107500Y-70360823D01*
X95619500Y-70360823D01*
X95627233Y-70413903D01*
X95630191Y-70434204D01*
X95654686Y-70484309D01*
X95685525Y-70547392D01*
X95774608Y-70636475D01*
X95774609Y-70636475D01*
X95774610Y-70636476D01*
X95887796Y-70691809D01*
X95961173Y-70702500D01*
X97332826Y-70702499D01*
X97406204Y-70691809D01*
X97519390Y-70636476D01*
X97608476Y-70547390D01*
X97663809Y-70434204D01*
X97674500Y-70360827D01*
X97674499Y-69789174D01*
X97663809Y-69715796D01*
X97608476Y-69602610D01*
X97608474Y-69602608D01*
X97608474Y-69602607D01*
X97519391Y-69513524D01*
X97428314Y-69469000D01*
X97406204Y-69458191D01*
X97406202Y-69458190D01*
X97406201Y-69458190D01*
X97332830Y-69447500D01*
X95961176Y-69447500D01*
X95887796Y-69458191D01*
X95774607Y-69513525D01*
X95685524Y-69602608D01*
X95630190Y-69715798D01*
X95619500Y-69789169D01*
X95619500Y-70360823D01*
X94107500Y-70360823D01*
X94107500Y-67690999D01*
X99571249Y-67690999D01*
X99590170Y-67834709D01*
X99645637Y-67968622D01*
X99645638Y-67968624D01*
X99645639Y-67968625D01*
X99704138Y-68044862D01*
X99733880Y-68083622D01*
X99820195Y-68149854D01*
X99859270Y-68200777D01*
X99867648Y-68264414D01*
X99843086Y-68323715D01*
X99820807Y-68352750D01*
X99762416Y-68493719D01*
X99742499Y-68645000D01*
X99762416Y-68796280D01*
X99820807Y-68937249D01*
X99913695Y-69058304D01*
X99983181Y-69111622D01*
X100034750Y-69151192D01*
X100175720Y-69209584D01*
X100175723Y-69209584D01*
X100182004Y-69212186D01*
X100230141Y-69230930D01*
X100269019Y-69275377D01*
X100282930Y-69332767D01*
X100268719Y-69390083D01*
X100229610Y-69434327D01*
X100174472Y-69455465D01*
X100119710Y-69462383D01*
X99972296Y-69520747D01*
X99844033Y-69613936D01*
X99742974Y-69736096D01*
X99675469Y-69879551D01*
X99645760Y-70035288D01*
X99655715Y-70193513D01*
X99655716Y-70193516D01*
X99704709Y-70344300D01*
X99789660Y-70478162D01*
X99905233Y-70586693D01*
X99995788Y-70636476D01*
X100044168Y-70663073D01*
X100197726Y-70702500D01*
X100197728Y-70702500D01*
X101416476Y-70702500D01*
X101416478Y-70702500D01*
X101463602Y-70696546D01*
X101534293Y-70687616D01*
X101681703Y-70629253D01*
X101684602Y-70627147D01*
X116460396Y-70627147D01*
X116479317Y-70770856D01*
X116534784Y-70904769D01*
X116534785Y-70904771D01*
X116534786Y-70904772D01*
X116623026Y-71019768D01*
X116738022Y-71108008D01*
X116871938Y-71163477D01*
X117015647Y-71182397D01*
X117159356Y-71163477D01*
X117293272Y-71108008D01*
X117408268Y-71019768D01*
X117496508Y-70904772D01*
X117551977Y-70770856D01*
X117570897Y-70627147D01*
X117551977Y-70483438D01*
X117496508Y-70349522D01*
X117408268Y-70234526D01*
X117371982Y-70206683D01*
X120856749Y-70206683D01*
X120875670Y-70350393D01*
X120931137Y-70484306D01*
X120931138Y-70484308D01*
X120931139Y-70484309D01*
X121019379Y-70599305D01*
X121134375Y-70687545D01*
X121268291Y-70743014D01*
X121412000Y-70761934D01*
X121555709Y-70743014D01*
X121689625Y-70687545D01*
X121804621Y-70599305D01*
X121892331Y-70485000D01*
X126444749Y-70485000D01*
X126463670Y-70628709D01*
X126519137Y-70762622D01*
X126519138Y-70762624D01*
X126519139Y-70762625D01*
X126607379Y-70877621D01*
X126722375Y-70965861D01*
X126856291Y-71021330D01*
X127000000Y-71040250D01*
X127143709Y-71021330D01*
X127277625Y-70965861D01*
X127392621Y-70877621D01*
X127480861Y-70762625D01*
X127536330Y-70628709D01*
X127555250Y-70485000D01*
X127536330Y-70341291D01*
X127480861Y-70207375D01*
X127392621Y-70092379D01*
X127277625Y-70004139D01*
X127277624Y-70004138D01*
X127277622Y-70004137D01*
X127143709Y-69948670D01*
X127000000Y-69929749D01*
X126856290Y-69948670D01*
X126722377Y-70004137D01*
X126607379Y-70092379D01*
X126519137Y-70207377D01*
X126463670Y-70341290D01*
X126444749Y-70485000D01*
X121892331Y-70485000D01*
X121892861Y-70484309D01*
X121948330Y-70350393D01*
X121967250Y-70206684D01*
X121948330Y-70062975D01*
X121892861Y-69929059D01*
X121804621Y-69814063D01*
X121689625Y-69725823D01*
X121689624Y-69725822D01*
X121689622Y-69725821D01*
X121555709Y-69670354D01*
X121411999Y-69651433D01*
X121268290Y-69670354D01*
X121134377Y-69725821D01*
X121019379Y-69814063D01*
X120931137Y-69929061D01*
X120875670Y-70062974D01*
X120856749Y-70206683D01*
X117371982Y-70206683D01*
X117293272Y-70146286D01*
X117293271Y-70146285D01*
X117293269Y-70146284D01*
X117159356Y-70090817D01*
X117015646Y-70071896D01*
X116871937Y-70090817D01*
X116738024Y-70146284D01*
X116623026Y-70234526D01*
X116534784Y-70349524D01*
X116479317Y-70483437D01*
X116460396Y-70627147D01*
X101684602Y-70627147D01*
X101809967Y-70536063D01*
X101911026Y-70413903D01*
X101978531Y-70270449D01*
X102008239Y-70114714D01*
X102006605Y-70088750D01*
X101998284Y-69956486D01*
X101998284Y-69956484D01*
X101949291Y-69805700D01*
X101864340Y-69671838D01*
X101748767Y-69563307D01*
X101658212Y-69513524D01*
X101609831Y-69486926D01*
X101540013Y-69469000D01*
X108106317Y-69469000D01*
X108126956Y-69625762D01*
X108187463Y-69771840D01*
X108283717Y-69897282D01*
X108360874Y-69956486D01*
X108409159Y-69993536D01*
X108555238Y-70054044D01*
X108712000Y-70074682D01*
X108868762Y-70054044D01*
X109014841Y-69993536D01*
X109140282Y-69897282D01*
X109236536Y-69771841D01*
X109297044Y-69625762D01*
X109309190Y-69533500D01*
X117554749Y-69533500D01*
X117573670Y-69677209D01*
X117629137Y-69811122D01*
X117629138Y-69811124D01*
X117629139Y-69811125D01*
X117717379Y-69926121D01*
X117832375Y-70014361D01*
X117966291Y-70069830D01*
X118091078Y-70086258D01*
X118109999Y-70088750D01*
X118109999Y-70088749D01*
X118110000Y-70088750D01*
X118253709Y-70069830D01*
X118387625Y-70014361D01*
X118502621Y-69926121D01*
X118590861Y-69811125D01*
X118646330Y-69677209D01*
X118665250Y-69533500D01*
X118646330Y-69389791D01*
X118590861Y-69255875D01*
X118502621Y-69140879D01*
X118387625Y-69052639D01*
X118387624Y-69052638D01*
X118387622Y-69052637D01*
X118253709Y-68997170D01*
X118110000Y-68978249D01*
X117966290Y-68997170D01*
X117832377Y-69052637D01*
X117717379Y-69140879D01*
X117629137Y-69255877D01*
X117573670Y-69389790D01*
X117554749Y-69533500D01*
X109309190Y-69533500D01*
X109317682Y-69469000D01*
X109297044Y-69312238D01*
X109236536Y-69166159D01*
X109236535Y-69166158D01*
X109140282Y-69040717D01*
X109014840Y-68944463D01*
X108868762Y-68883956D01*
X108712000Y-68863317D01*
X108555237Y-68883956D01*
X108409159Y-68944463D01*
X108283717Y-69040717D01*
X108187463Y-69166159D01*
X108126956Y-69312237D01*
X108106317Y-69469000D01*
X101540013Y-69469000D01*
X101456274Y-69447500D01*
X101456272Y-69447500D01*
X100527289Y-69447500D01*
X100462499Y-69429227D01*
X100416804Y-69379795D01*
X100403671Y-69313771D01*
X100426971Y-69250614D01*
X100479834Y-69208940D01*
X100619250Y-69151192D01*
X100740304Y-69058304D01*
X100833192Y-68937250D01*
X100875960Y-68834000D01*
X120207249Y-68834000D01*
X120226170Y-68977709D01*
X120281637Y-69111622D01*
X120281638Y-69111624D01*
X120281639Y-69111625D01*
X120369879Y-69226621D01*
X120484875Y-69314861D01*
X120618791Y-69370330D01*
X120762500Y-69389250D01*
X120906209Y-69370330D01*
X121040125Y-69314861D01*
X121155121Y-69226621D01*
X121243361Y-69111625D01*
X121298830Y-68977709D01*
X121317750Y-68834000D01*
X121317750Y-68833999D01*
X126444749Y-68833999D01*
X126463670Y-68977709D01*
X126519137Y-69111622D01*
X126519138Y-69111624D01*
X126519139Y-69111625D01*
X126607379Y-69226621D01*
X126722375Y-69314861D01*
X126856291Y-69370330D01*
X127000000Y-69389250D01*
X127143709Y-69370330D01*
X127277625Y-69314861D01*
X127392621Y-69226621D01*
X127480861Y-69111625D01*
X127536330Y-68977709D01*
X127555250Y-68834000D01*
X127536330Y-68690291D01*
X127480861Y-68556375D01*
X127392621Y-68441379D01*
X127277625Y-68353139D01*
X127277624Y-68353138D01*
X127277622Y-68353137D01*
X127143709Y-68297670D01*
X127000000Y-68278749D01*
X126856290Y-68297670D01*
X126722377Y-68353137D01*
X126607379Y-68441379D01*
X126519137Y-68556377D01*
X126463670Y-68690290D01*
X126444749Y-68833999D01*
X121317750Y-68833999D01*
X121298830Y-68690291D01*
X121243361Y-68556375D01*
X121155121Y-68441379D01*
X121040125Y-68353139D01*
X121040124Y-68353138D01*
X121040122Y-68353137D01*
X120906209Y-68297670D01*
X120762500Y-68278749D01*
X120618790Y-68297670D01*
X120484877Y-68353137D01*
X120369879Y-68441379D01*
X120281637Y-68556377D01*
X120226170Y-68690290D01*
X120207249Y-68834000D01*
X100875960Y-68834000D01*
X100891584Y-68796280D01*
X100911500Y-68645000D01*
X100891584Y-68493720D01*
X100833192Y-68352750D01*
X100786673Y-68292125D01*
X100740304Y-68231695D01*
X100627951Y-68145484D01*
X100588876Y-68094560D01*
X100580498Y-68030921D01*
X100605062Y-67971620D01*
X100607361Y-67968625D01*
X100633508Y-67905499D01*
X102321249Y-67905499D01*
X102340170Y-68049209D01*
X102395637Y-68183122D01*
X102395638Y-68183124D01*
X102395639Y-68183125D01*
X102483879Y-68298121D01*
X102598875Y-68386361D01*
X102732791Y-68441830D01*
X102857578Y-68458258D01*
X102876499Y-68460750D01*
X102876499Y-68460749D01*
X102876500Y-68460750D01*
X103020209Y-68441830D01*
X103154125Y-68386361D01*
X103269121Y-68298121D01*
X103357361Y-68183125D01*
X103374616Y-68141466D01*
X103413689Y-68090544D01*
X103472991Y-68065980D01*
X103536629Y-68074358D01*
X103558993Y-68083621D01*
X103626575Y-68111614D01*
X103751362Y-68128042D01*
X103770283Y-68130534D01*
X103770283Y-68130533D01*
X103770284Y-68130534D01*
X103913993Y-68111614D01*
X104047909Y-68056145D01*
X104162905Y-67967905D01*
X104251145Y-67852909D01*
X104306614Y-67718993D01*
X104325534Y-67575284D01*
X104307328Y-67437000D01*
X106201317Y-67437000D01*
X106221956Y-67593762D01*
X106282463Y-67739840D01*
X106378717Y-67865282D01*
X106431131Y-67905500D01*
X106504159Y-67961536D01*
X106650238Y-68022044D01*
X106807000Y-68042682D01*
X106963762Y-68022044D01*
X107109841Y-67961536D01*
X107235282Y-67865282D01*
X107331536Y-67739841D01*
X107392044Y-67593762D01*
X107412682Y-67437000D01*
X107392044Y-67280238D01*
X107391105Y-67277971D01*
X109217288Y-67277971D01*
X109237927Y-67434733D01*
X109298434Y-67580811D01*
X109394688Y-67706253D01*
X109469107Y-67763356D01*
X109520130Y-67802507D01*
X109666209Y-67863015D01*
X109802332Y-67880935D01*
X109822970Y-67883653D01*
X109822970Y-67883652D01*
X109822971Y-67883653D01*
X109979733Y-67863015D01*
X110125812Y-67802507D01*
X110251253Y-67706253D01*
X110347507Y-67580812D01*
X110354471Y-67564000D01*
X111204749Y-67564000D01*
X111223670Y-67707709D01*
X111279137Y-67841622D01*
X111279138Y-67841624D01*
X111279139Y-67841625D01*
X111367379Y-67956621D01*
X111482375Y-68044861D01*
X111616291Y-68100330D01*
X111760000Y-68119250D01*
X111903709Y-68100330D01*
X112037625Y-68044861D01*
X112152621Y-67956621D01*
X112240861Y-67841625D01*
X112296330Y-67707709D01*
X112298530Y-67691000D01*
X116996317Y-67691000D01*
X117016956Y-67847762D01*
X117077463Y-67993840D01*
X117173717Y-68119282D01*
X117292301Y-68210274D01*
X117299159Y-68215536D01*
X117445238Y-68276044D01*
X117602000Y-68296682D01*
X117758762Y-68276044D01*
X117904841Y-68215536D01*
X118030282Y-68119282D01*
X118126536Y-67993841D01*
X118187044Y-67847762D01*
X118207682Y-67691000D01*
X118187044Y-67534238D01*
X118166953Y-67485734D01*
X121316015Y-67485734D01*
X121334936Y-67629443D01*
X121390403Y-67763356D01*
X121390404Y-67763358D01*
X121390405Y-67763359D01*
X121478645Y-67878355D01*
X121593641Y-67966595D01*
X121593642Y-67966595D01*
X121593643Y-67966596D01*
X121598542Y-67968625D01*
X121727557Y-68022064D01*
X121871266Y-68040984D01*
X122014975Y-68022064D01*
X122033236Y-68014500D01*
X124285749Y-68014500D01*
X124304670Y-68158209D01*
X124360137Y-68292122D01*
X124360138Y-68292124D01*
X124360139Y-68292125D01*
X124448379Y-68407121D01*
X124563375Y-68495361D01*
X124697291Y-68550830D01*
X124841000Y-68569750D01*
X124984709Y-68550830D01*
X125118625Y-68495361D01*
X125233621Y-68407121D01*
X125321861Y-68292125D01*
X125377330Y-68158209D01*
X125396250Y-68014500D01*
X125377330Y-67870791D01*
X125321861Y-67736875D01*
X125233621Y-67621879D01*
X125118625Y-67533639D01*
X125118624Y-67533638D01*
X125118622Y-67533637D01*
X124984709Y-67478170D01*
X124841000Y-67459249D01*
X124697290Y-67478170D01*
X124563377Y-67533637D01*
X124448379Y-67621879D01*
X124360137Y-67736877D01*
X124304670Y-67870790D01*
X124285749Y-68014500D01*
X122033236Y-68014500D01*
X122148891Y-67966595D01*
X122263887Y-67878355D01*
X122352127Y-67763359D01*
X122407596Y-67629443D01*
X122426516Y-67485734D01*
X122407596Y-67342025D01*
X122352127Y-67208109D01*
X122263887Y-67093113D01*
X122148891Y-67004873D01*
X122148890Y-67004872D01*
X122148888Y-67004871D01*
X122014975Y-66949404D01*
X121871266Y-66930483D01*
X121727556Y-66949404D01*
X121593643Y-67004871D01*
X121478645Y-67093113D01*
X121390403Y-67208111D01*
X121334936Y-67342024D01*
X121316015Y-67485734D01*
X118166953Y-67485734D01*
X118126536Y-67388159D01*
X118111965Y-67369170D01*
X118030282Y-67262717D01*
X117904840Y-67166463D01*
X117758762Y-67105956D01*
X117602000Y-67085317D01*
X117445237Y-67105956D01*
X117299159Y-67166463D01*
X117173717Y-67262717D01*
X117077463Y-67388159D01*
X117016956Y-67534237D01*
X116996317Y-67691000D01*
X112298530Y-67691000D01*
X112315250Y-67564000D01*
X112296330Y-67420291D01*
X112240861Y-67286375D01*
X112152621Y-67171379D01*
X112037625Y-67083139D01*
X112037624Y-67083138D01*
X112037622Y-67083137D01*
X111903709Y-67027670D01*
X111759999Y-67008749D01*
X111616290Y-67027670D01*
X111482377Y-67083137D01*
X111367379Y-67171379D01*
X111279137Y-67286377D01*
X111223670Y-67420290D01*
X111204749Y-67564000D01*
X110354471Y-67564000D01*
X110408015Y-67434733D01*
X110428653Y-67277971D01*
X110408015Y-67121209D01*
X110347507Y-66975130D01*
X110313249Y-66930484D01*
X110251253Y-66849688D01*
X110125811Y-66753434D01*
X109979733Y-66692927D01*
X109822970Y-66672288D01*
X109666208Y-66692927D01*
X109520130Y-66753434D01*
X109394688Y-66849688D01*
X109298434Y-66975130D01*
X109237927Y-67121208D01*
X109217288Y-67277971D01*
X107391105Y-67277971D01*
X107331536Y-67134159D01*
X107301044Y-67094421D01*
X107235282Y-67008717D01*
X107109840Y-66912463D01*
X106963762Y-66851956D01*
X106807000Y-66831317D01*
X106650237Y-66851956D01*
X106504159Y-66912463D01*
X106378717Y-67008717D01*
X106282463Y-67134159D01*
X106221956Y-67280237D01*
X106201317Y-67437000D01*
X104307328Y-67437000D01*
X104306614Y-67431575D01*
X104251145Y-67297659D01*
X104162905Y-67182663D01*
X104047909Y-67094423D01*
X104047908Y-67094422D01*
X104047906Y-67094421D01*
X103913993Y-67038954D01*
X103770284Y-67020033D01*
X103626574Y-67038954D01*
X103492661Y-67094421D01*
X103377663Y-67182663D01*
X103289422Y-67297659D01*
X103272167Y-67339318D01*
X103233092Y-67390240D01*
X103173792Y-67414803D01*
X103110155Y-67406426D01*
X103066053Y-67388159D01*
X103020209Y-67369170D01*
X103001287Y-67366678D01*
X102876499Y-67350249D01*
X102732790Y-67369170D01*
X102598877Y-67424637D01*
X102483879Y-67512879D01*
X102395637Y-67627877D01*
X102340170Y-67761790D01*
X102321249Y-67905499D01*
X100633508Y-67905499D01*
X100662830Y-67834709D01*
X100681750Y-67691000D01*
X100662830Y-67547291D01*
X100610225Y-67420290D01*
X100607362Y-67413377D01*
X100607361Y-67413376D01*
X100607361Y-67413375D01*
X100519121Y-67298379D01*
X100404125Y-67210139D01*
X100404124Y-67210138D01*
X100404122Y-67210137D01*
X100270209Y-67154670D01*
X100126500Y-67135749D01*
X99982790Y-67154670D01*
X99848877Y-67210137D01*
X99733879Y-67298379D01*
X99645637Y-67413377D01*
X99590170Y-67547290D01*
X99571249Y-67690999D01*
X94107500Y-67690999D01*
X94107500Y-64633768D01*
X99639803Y-64633768D01*
X99658724Y-64777478D01*
X99714191Y-64911391D01*
X99714192Y-64911393D01*
X99714193Y-64911394D01*
X99802433Y-65026390D01*
X99917429Y-65114630D01*
X100051345Y-65170099D01*
X100195054Y-65189019D01*
X100203705Y-65187880D01*
X103507249Y-65187880D01*
X103526170Y-65331590D01*
X103581637Y-65465503D01*
X103581638Y-65465505D01*
X103581639Y-65465506D01*
X103669879Y-65580502D01*
X103784875Y-65668742D01*
X103918791Y-65724211D01*
X104062500Y-65743131D01*
X104206209Y-65724211D01*
X104340125Y-65668742D01*
X104455121Y-65580502D01*
X104543361Y-65465506D01*
X104598830Y-65331590D01*
X104617750Y-65187881D01*
X104598830Y-65044172D01*
X104547655Y-64920622D01*
X104543362Y-64910258D01*
X104543361Y-64910257D01*
X104543361Y-64910256D01*
X104455121Y-64795260D01*
X104340125Y-64707020D01*
X104340124Y-64707019D01*
X104340122Y-64707018D01*
X104206209Y-64651551D01*
X104062500Y-64632630D01*
X103918790Y-64651551D01*
X103784877Y-64707018D01*
X103669879Y-64795260D01*
X103581637Y-64910258D01*
X103526170Y-65044171D01*
X103507249Y-65187880D01*
X100203705Y-65187880D01*
X100338763Y-65170099D01*
X100472679Y-65114630D01*
X100587675Y-65026390D01*
X100675915Y-64911394D01*
X100731384Y-64777478D01*
X100750304Y-64633769D01*
X100731384Y-64490060D01*
X100679061Y-64363739D01*
X100675916Y-64356146D01*
X100675915Y-64356145D01*
X100675915Y-64356144D01*
X100587675Y-64241148D01*
X100472679Y-64152908D01*
X100472678Y-64152907D01*
X100472676Y-64152906D01*
X100338763Y-64097439D01*
X100195054Y-64078518D01*
X100051344Y-64097439D01*
X99917431Y-64152906D01*
X99802433Y-64241148D01*
X99714191Y-64356146D01*
X99658724Y-64490059D01*
X99639803Y-64633768D01*
X94107500Y-64633768D01*
X94107500Y-63971119D01*
X102519249Y-63971119D01*
X102538170Y-64114828D01*
X102593637Y-64248741D01*
X102593638Y-64248743D01*
X102593639Y-64248744D01*
X102681879Y-64363740D01*
X102796875Y-64451980D01*
X102930791Y-64507449D01*
X103055579Y-64523877D01*
X103074499Y-64526369D01*
X103074499Y-64526368D01*
X103074500Y-64526369D01*
X103153259Y-64516000D01*
X107140749Y-64516000D01*
X107159670Y-64659709D01*
X107215137Y-64793622D01*
X107215138Y-64793624D01*
X107215139Y-64793625D01*
X107303379Y-64908621D01*
X107418375Y-64996861D01*
X107418376Y-64996861D01*
X107418377Y-64996862D01*
X107448715Y-65009428D01*
X107552291Y-65052330D01*
X107696000Y-65071250D01*
X107839709Y-65052330D01*
X107908107Y-65023999D01*
X112678317Y-65023999D01*
X112698956Y-65180762D01*
X112759463Y-65326840D01*
X112855717Y-65452282D01*
X112981158Y-65548535D01*
X112981159Y-65548536D01*
X113127238Y-65609044D01*
X113284000Y-65629682D01*
X113440762Y-65609044D01*
X113586841Y-65548536D01*
X113712282Y-65452282D01*
X113808536Y-65326841D01*
X113828767Y-65277999D01*
X118139317Y-65277999D01*
X118159956Y-65434762D01*
X118220463Y-65580840D01*
X118316717Y-65706282D01*
X118442159Y-65802536D01*
X118588238Y-65863044D01*
X118745000Y-65883682D01*
X118901762Y-65863044D01*
X119047841Y-65802536D01*
X119173282Y-65706282D01*
X119269536Y-65580841D01*
X119330044Y-65434762D01*
X119350682Y-65278000D01*
X119350682Y-65277999D01*
X128222749Y-65277999D01*
X128241670Y-65421709D01*
X128297137Y-65555622D01*
X128297138Y-65555624D01*
X128297139Y-65555625D01*
X128385379Y-65670621D01*
X128500375Y-65758861D01*
X128634291Y-65814330D01*
X128778000Y-65833250D01*
X128921709Y-65814330D01*
X129055625Y-65758861D01*
X129170621Y-65670621D01*
X129258861Y-65555625D01*
X129314330Y-65421709D01*
X129333250Y-65278000D01*
X129314330Y-65134291D01*
X129258861Y-65000375D01*
X129170621Y-64885379D01*
X129055625Y-64797139D01*
X129055624Y-64797138D01*
X129055622Y-64797137D01*
X128921709Y-64741670D01*
X128778000Y-64722749D01*
X128634290Y-64741670D01*
X128500377Y-64797137D01*
X128385379Y-64885379D01*
X128297137Y-65000377D01*
X128241670Y-65134290D01*
X128222749Y-65277999D01*
X119350682Y-65277999D01*
X119330044Y-65121238D01*
X119269536Y-64975159D01*
X119227691Y-64920625D01*
X119173282Y-64849717D01*
X119047840Y-64753463D01*
X118901762Y-64692956D01*
X118745000Y-64672317D01*
X118588237Y-64692956D01*
X118442159Y-64753463D01*
X118316717Y-64849717D01*
X118220463Y-64975159D01*
X118159956Y-65121237D01*
X118139317Y-65277999D01*
X113828767Y-65277999D01*
X113869044Y-65180762D01*
X113889682Y-65024000D01*
X113869044Y-64867238D01*
X113808536Y-64721159D01*
X113771059Y-64672318D01*
X113712282Y-64595717D01*
X113586840Y-64499463D01*
X113440762Y-64438956D01*
X113283999Y-64418317D01*
X113127237Y-64438956D01*
X112981159Y-64499463D01*
X112855717Y-64595717D01*
X112759463Y-64721159D01*
X112698956Y-64867237D01*
X112678317Y-65023999D01*
X107908107Y-65023999D01*
X107973625Y-64996861D01*
X108088621Y-64908621D01*
X108176861Y-64793625D01*
X108232330Y-64659709D01*
X108251250Y-64516000D01*
X108232330Y-64372291D01*
X108176861Y-64238375D01*
X108088621Y-64123379D01*
X107973625Y-64035139D01*
X107973624Y-64035138D01*
X107973622Y-64035137D01*
X107839709Y-63979670D01*
X107696000Y-63960749D01*
X107552290Y-63979670D01*
X107418377Y-64035137D01*
X107303379Y-64123379D01*
X107215137Y-64238377D01*
X107159670Y-64372290D01*
X107140749Y-64516000D01*
X103153259Y-64516000D01*
X103218209Y-64507449D01*
X103352125Y-64451980D01*
X103467121Y-64363740D01*
X103555361Y-64248744D01*
X103610830Y-64114828D01*
X103629750Y-63971119D01*
X103610830Y-63827410D01*
X103555361Y-63693494D01*
X103467121Y-63578498D01*
X103352125Y-63490258D01*
X103352124Y-63490257D01*
X103352122Y-63490256D01*
X103218209Y-63434789D01*
X103074500Y-63415868D01*
X102930790Y-63434789D01*
X102796877Y-63490256D01*
X102681879Y-63578498D01*
X102593637Y-63693496D01*
X102538170Y-63827409D01*
X102519249Y-63971119D01*
X94107500Y-63971119D01*
X94107500Y-61720823D01*
X95619500Y-61720823D01*
X95625833Y-61764290D01*
X95630191Y-61794204D01*
X95645136Y-61824774D01*
X95685525Y-61907392D01*
X95774608Y-61996475D01*
X95774609Y-61996475D01*
X95774610Y-61996476D01*
X95887796Y-62051809D01*
X95961173Y-62062500D01*
X97332826Y-62062499D01*
X97406204Y-62051809D01*
X97519390Y-61996476D01*
X97608476Y-61907390D01*
X97663809Y-61794204D01*
X97674500Y-61720827D01*
X97674499Y-61149174D01*
X97663809Y-61075796D01*
X97608476Y-60962610D01*
X97608474Y-60962608D01*
X97608474Y-60962607D01*
X97519391Y-60873524D01*
X97460266Y-60844620D01*
X97406204Y-60818191D01*
X97406202Y-60818190D01*
X97406201Y-60818190D01*
X97332830Y-60807500D01*
X95961176Y-60807500D01*
X95887796Y-60818191D01*
X95774607Y-60873525D01*
X95685524Y-60962608D01*
X95630190Y-61075798D01*
X95619500Y-61149169D01*
X95619500Y-61720823D01*
X94107500Y-61720823D01*
X94107500Y-60198000D01*
X99216317Y-60198000D01*
X99236956Y-60354762D01*
X99297463Y-60500840D01*
X99393717Y-60626282D01*
X99519159Y-60722536D01*
X99665238Y-60783044D01*
X99746638Y-60793760D01*
X99806836Y-60819019D01*
X99845863Y-60871353D01*
X99852900Y-60936257D01*
X99825996Y-60995739D01*
X99742975Y-61096094D01*
X99675469Y-61239551D01*
X99645760Y-61395288D01*
X99655715Y-61553513D01*
X99655716Y-61553516D01*
X99704709Y-61704300D01*
X99789660Y-61838162D01*
X99905233Y-61946693D01*
X99995788Y-61996476D01*
X100044168Y-62023073D01*
X100155700Y-62051709D01*
X100192420Y-62061137D01*
X100250810Y-62095133D01*
X100282708Y-62154696D01*
X100278644Y-62222139D01*
X100239824Y-62277440D01*
X100177775Y-62304179D01*
X100176767Y-62304311D01*
X100036768Y-62362301D01*
X99916549Y-62454549D01*
X99824301Y-62574768D01*
X99766312Y-62714764D01*
X99746533Y-62864999D01*
X99766312Y-63015235D01*
X99813855Y-63130013D01*
X99824302Y-63155233D01*
X99916549Y-63275451D01*
X100036767Y-63367698D01*
X100176763Y-63425686D01*
X100176764Y-63425687D01*
X100289279Y-63440500D01*
X100289280Y-63440500D01*
X100364720Y-63440500D01*
X100364721Y-63440500D01*
X100453180Y-63428854D01*
X100477236Y-63425687D01*
X100617233Y-63367698D01*
X100737451Y-63275451D01*
X100829698Y-63155233D01*
X100887687Y-63015236D01*
X100907466Y-62865000D01*
X100891233Y-62741702D01*
X114751384Y-62741702D01*
X114772023Y-62898464D01*
X114832530Y-63044542D01*
X114928784Y-63169984D01*
X114974089Y-63204747D01*
X115054226Y-63266238D01*
X115200305Y-63326746D01*
X115336428Y-63344666D01*
X115357066Y-63347384D01*
X115357066Y-63347383D01*
X115357067Y-63347384D01*
X115404546Y-63341133D01*
X115462122Y-63347184D01*
X115510677Y-63378716D01*
X115539625Y-63428854D01*
X115542655Y-63486669D01*
X115519107Y-63539558D01*
X115470138Y-63603375D01*
X115414670Y-63737290D01*
X115395749Y-63881000D01*
X115414670Y-64024709D01*
X115470137Y-64158622D01*
X115470138Y-64158624D01*
X115470139Y-64158625D01*
X115558379Y-64273621D01*
X115673375Y-64361861D01*
X115673376Y-64361861D01*
X115673377Y-64361862D01*
X115698553Y-64372290D01*
X115807291Y-64417330D01*
X115808371Y-64417472D01*
X115867672Y-64442035D01*
X115906747Y-64492958D01*
X115915125Y-64556596D01*
X115903749Y-64642999D01*
X115922670Y-64786709D01*
X115978137Y-64920622D01*
X115978138Y-64920624D01*
X115978139Y-64920625D01*
X116066379Y-65035621D01*
X116181375Y-65123861D01*
X116315291Y-65179330D01*
X116459000Y-65198250D01*
X116602709Y-65179330D01*
X116736625Y-65123861D01*
X116851621Y-65035621D01*
X116939861Y-64920625D01*
X116995330Y-64786709D01*
X117014250Y-64643000D01*
X116995330Y-64499291D01*
X116954393Y-64400460D01*
X116946016Y-64336824D01*
X116970580Y-64277523D01*
X117021503Y-64238449D01*
X117085139Y-64230071D01*
X117150765Y-64238711D01*
X117307527Y-64218073D01*
X117453606Y-64157565D01*
X117579047Y-64061311D01*
X117675301Y-63935870D01*
X117735809Y-63789791D01*
X117756447Y-63633029D01*
X117735809Y-63476267D01*
X117675301Y-63330188D01*
X117633300Y-63275451D01*
X117579047Y-63204746D01*
X117453605Y-63108492D01*
X117307527Y-63047985D01*
X117150765Y-63027346D01*
X116994002Y-63047985D01*
X116847924Y-63108492D01*
X116722482Y-63204746D01*
X116626229Y-63330187D01*
X116566792Y-63473682D01*
X116527718Y-63524604D01*
X116468417Y-63549168D01*
X116404779Y-63540791D01*
X116353856Y-63501717D01*
X116350722Y-63497633D01*
X116343621Y-63488379D01*
X116228625Y-63400139D01*
X116228624Y-63400138D01*
X116228622Y-63400137D01*
X116094709Y-63344670D01*
X115950999Y-63325749D01*
X115930581Y-63328438D01*
X115873004Y-63322387D01*
X115824450Y-63290855D01*
X115795502Y-63240717D01*
X115792472Y-63182902D01*
X115816020Y-63130013D01*
X115845056Y-63092172D01*
X115881603Y-63044543D01*
X115942111Y-62898464D01*
X115962749Y-62741702D01*
X115942111Y-62584940D01*
X115881603Y-62438861D01*
X115843237Y-62388861D01*
X115785349Y-62313419D01*
X115659907Y-62217165D01*
X115513829Y-62156658D01*
X115357066Y-62136019D01*
X115200304Y-62156658D01*
X115054226Y-62217165D01*
X114928784Y-62313419D01*
X114832530Y-62438861D01*
X114772023Y-62584939D01*
X114751384Y-62741702D01*
X100891233Y-62741702D01*
X100887687Y-62714764D01*
X100829698Y-62574767D01*
X100737451Y-62454549D01*
X100617233Y-62362302D01*
X100614338Y-62361103D01*
X100469385Y-62301061D01*
X100416520Y-62259385D01*
X100393220Y-62196229D01*
X100406353Y-62130205D01*
X100452048Y-62080773D01*
X100516838Y-62062500D01*
X101416478Y-62062500D01*
X101463602Y-62056546D01*
X101534293Y-62047616D01*
X101681703Y-61989253D01*
X101710292Y-61968482D01*
X103860766Y-61968482D01*
X103879687Y-62112192D01*
X103935154Y-62246105D01*
X103935155Y-62246107D01*
X103935156Y-62246108D01*
X104023396Y-62361104D01*
X104138392Y-62449344D01*
X104272308Y-62504813D01*
X104416017Y-62523733D01*
X104559726Y-62504813D01*
X104693642Y-62449344D01*
X104808638Y-62361104D01*
X104896878Y-62246108D01*
X104952347Y-62112192D01*
X104971267Y-61968483D01*
X104952347Y-61824774D01*
X104909777Y-61722000D01*
X118393317Y-61722000D01*
X118413956Y-61878762D01*
X118474463Y-62024840D01*
X118570717Y-62150282D01*
X118695597Y-62246105D01*
X118696159Y-62246536D01*
X118842238Y-62307044D01*
X118999000Y-62327682D01*
X119155762Y-62307044D01*
X119301841Y-62246536D01*
X119427282Y-62150282D01*
X119523536Y-62024841D01*
X119571933Y-61908000D01*
X122126749Y-61908000D01*
X122145670Y-62051709D01*
X122201137Y-62185622D01*
X122201138Y-62185624D01*
X122201139Y-62185625D01*
X122289379Y-62300621D01*
X122404375Y-62388861D01*
X122538291Y-62444330D01*
X122682000Y-62463250D01*
X122825709Y-62444330D01*
X122959625Y-62388861D01*
X123074621Y-62300621D01*
X123162861Y-62185625D01*
X123218330Y-62051709D01*
X123237250Y-61908000D01*
X123224277Y-61809465D01*
X126698726Y-61809465D01*
X126717647Y-61953175D01*
X126773114Y-62087088D01*
X126773115Y-62087090D01*
X126773116Y-62087091D01*
X126847532Y-62184071D01*
X126870217Y-62232720D01*
X126870217Y-62286397D01*
X126847532Y-62335043D01*
X126807313Y-62387458D01*
X126773637Y-62431345D01*
X126718170Y-62565258D01*
X126699249Y-62708967D01*
X126718170Y-62852677D01*
X126773638Y-62986592D01*
X126854652Y-63092172D01*
X126877337Y-63140819D01*
X126877337Y-63194496D01*
X126854652Y-63243144D01*
X126773138Y-63349375D01*
X126717670Y-63483290D01*
X126698749Y-63626999D01*
X126717670Y-63770709D01*
X126773137Y-63904622D01*
X126773138Y-63904624D01*
X126773139Y-63904625D01*
X126861379Y-64019621D01*
X126976375Y-64107861D01*
X127110291Y-64163330D01*
X127254000Y-64182250D01*
X127397709Y-64163330D01*
X127531625Y-64107861D01*
X127646621Y-64019621D01*
X127734861Y-63904625D01*
X127789190Y-63773458D01*
X127823218Y-63726625D01*
X127874803Y-63700341D01*
X127932697Y-63700341D01*
X127984282Y-63726625D01*
X128018309Y-63773458D01*
X128072639Y-63904625D01*
X128160879Y-64019621D01*
X128275875Y-64107861D01*
X128409791Y-64163330D01*
X128553500Y-64182250D01*
X128697209Y-64163330D01*
X128831125Y-64107861D01*
X128946121Y-64019621D01*
X129034361Y-63904625D01*
X129089830Y-63770709D01*
X129108750Y-63627000D01*
X129108750Y-63626999D01*
X129492749Y-63626999D01*
X129511670Y-63770709D01*
X129567137Y-63904622D01*
X129567138Y-63904624D01*
X129567139Y-63904625D01*
X129655379Y-64019621D01*
X129770375Y-64107861D01*
X129904291Y-64163330D01*
X130048000Y-64182250D01*
X130191709Y-64163330D01*
X130325625Y-64107861D01*
X130440621Y-64019621D01*
X130528861Y-63904625D01*
X130584330Y-63770709D01*
X130603250Y-63627000D01*
X130584330Y-63483291D01*
X130528861Y-63349375D01*
X130440621Y-63234379D01*
X130325625Y-63146139D01*
X130325624Y-63146138D01*
X130325622Y-63146137D01*
X130191709Y-63090670D01*
X130048000Y-63071749D01*
X129904290Y-63090670D01*
X129770377Y-63146137D01*
X129655379Y-63234379D01*
X129567137Y-63349377D01*
X129511670Y-63483290D01*
X129492749Y-63626999D01*
X129108750Y-63626999D01*
X129089830Y-63483291D01*
X129034361Y-63349375D01*
X128946121Y-63234379D01*
X128831125Y-63146139D01*
X128831124Y-63146138D01*
X128831122Y-63146137D01*
X128697209Y-63090670D01*
X128553500Y-63071749D01*
X128409790Y-63090670D01*
X128275877Y-63146137D01*
X128160879Y-63234379D01*
X128072637Y-63349377D01*
X128018311Y-63480536D01*
X127984282Y-63527374D01*
X127932697Y-63553658D01*
X127874803Y-63553658D01*
X127823218Y-63527374D01*
X127789189Y-63480536D01*
X127734861Y-63349374D01*
X127653847Y-63243796D01*
X127631161Y-63195147D01*
X127631161Y-63141470D01*
X127653843Y-63092827D01*
X127735361Y-62986593D01*
X127790830Y-62852677D01*
X127809750Y-62708968D01*
X127790830Y-62565259D01*
X127735361Y-62431343D01*
X127660944Y-62334362D01*
X127638260Y-62285714D01*
X127638260Y-62232037D01*
X127660944Y-62183390D01*
X127734838Y-62087091D01*
X127790307Y-61953175D01*
X127809227Y-61809466D01*
X127790307Y-61665757D01*
X127734838Y-61531841D01*
X127646598Y-61416845D01*
X127531602Y-61328605D01*
X127531601Y-61328604D01*
X127531599Y-61328603D01*
X127397686Y-61273136D01*
X127253977Y-61254215D01*
X127110267Y-61273136D01*
X126976354Y-61328603D01*
X126861356Y-61416845D01*
X126773114Y-61531843D01*
X126717647Y-61665756D01*
X126698726Y-61809465D01*
X123224277Y-61809465D01*
X123218330Y-61764291D01*
X123162861Y-61630375D01*
X123074621Y-61515379D01*
X122959625Y-61427139D01*
X122959624Y-61427138D01*
X122959622Y-61427137D01*
X122825709Y-61371670D01*
X122682000Y-61352749D01*
X122538290Y-61371670D01*
X122404377Y-61427137D01*
X122289379Y-61515379D01*
X122201137Y-61630377D01*
X122145670Y-61764290D01*
X122126749Y-61908000D01*
X119571933Y-61908000D01*
X119584044Y-61878762D01*
X119604682Y-61722000D01*
X119584044Y-61565238D01*
X119523536Y-61419159D01*
X119454052Y-61328605D01*
X119427282Y-61293717D01*
X119301840Y-61197463D01*
X119155762Y-61136956D01*
X118999000Y-61116317D01*
X118842237Y-61136956D01*
X118696159Y-61197463D01*
X118570717Y-61293717D01*
X118474463Y-61419159D01*
X118413956Y-61565237D01*
X118393317Y-61722000D01*
X104909777Y-61722000D01*
X104896878Y-61690858D01*
X104808638Y-61575862D01*
X104693642Y-61487622D01*
X104693641Y-61487621D01*
X104693639Y-61487620D01*
X104559726Y-61432153D01*
X104416017Y-61413232D01*
X104272307Y-61432153D01*
X104138394Y-61487620D01*
X104023396Y-61575862D01*
X103935154Y-61690860D01*
X103879687Y-61824773D01*
X103860766Y-61968482D01*
X101710292Y-61968482D01*
X101809967Y-61896063D01*
X101911026Y-61773903D01*
X101978531Y-61630449D01*
X102008239Y-61474714D01*
X101998284Y-61316484D01*
X101949291Y-61165700D01*
X101864340Y-61031838D01*
X101748767Y-60923307D01*
X101627473Y-60856625D01*
X101609831Y-60846926D01*
X101456274Y-60807500D01*
X101456272Y-60807500D01*
X100362676Y-60807500D01*
X100297196Y-60788801D01*
X100251464Y-60738344D01*
X100239273Y-60671346D01*
X100264300Y-60608014D01*
X100324895Y-60529044D01*
X100346536Y-60500841D01*
X100407044Y-60354762D01*
X100427682Y-60198000D01*
X100407044Y-60041238D01*
X100346536Y-59895159D01*
X100327754Y-59870682D01*
X100250282Y-59769717D01*
X100124840Y-59673463D01*
X99978762Y-59612956D01*
X99821999Y-59592317D01*
X99665237Y-59612956D01*
X99519159Y-59673463D01*
X99393717Y-59769717D01*
X99297463Y-59895159D01*
X99236956Y-60041237D01*
X99216317Y-60198000D01*
X94107500Y-60198000D01*
X94107500Y-59324337D01*
X100851979Y-59324337D01*
X100872618Y-59481100D01*
X100933125Y-59627178D01*
X101029379Y-59752620D01*
X101144067Y-59840622D01*
X101154821Y-59848874D01*
X101300900Y-59909382D01*
X101457662Y-59930020D01*
X101497544Y-59924769D01*
X101553584Y-59930288D01*
X101601407Y-59960026D01*
X101631146Y-60007849D01*
X101636666Y-60063893D01*
X101629056Y-60121691D01*
X101647977Y-60265402D01*
X101703444Y-60399315D01*
X101703445Y-60399317D01*
X101703446Y-60399318D01*
X101791686Y-60514314D01*
X101906682Y-60602554D01*
X102040598Y-60658023D01*
X102165385Y-60674451D01*
X102184306Y-60676943D01*
X102184306Y-60676942D01*
X102184307Y-60676943D01*
X102328016Y-60658023D01*
X102461932Y-60602554D01*
X102492628Y-60579000D01*
X121125249Y-60579000D01*
X121144170Y-60722709D01*
X121199637Y-60856622D01*
X121199638Y-60856624D01*
X121199639Y-60856625D01*
X121287879Y-60971621D01*
X121402875Y-61059861D01*
X121536791Y-61115330D01*
X121661579Y-61131758D01*
X121680499Y-61134250D01*
X121680499Y-61134249D01*
X121680500Y-61134250D01*
X121824209Y-61115330D01*
X121958125Y-61059861D01*
X122073121Y-60971621D01*
X122161361Y-60856625D01*
X122216830Y-60722709D01*
X122235750Y-60579000D01*
X122219030Y-60451999D01*
X125936749Y-60451999D01*
X125955670Y-60595709D01*
X126011137Y-60729622D01*
X126011138Y-60729624D01*
X126011139Y-60729625D01*
X126099379Y-60844621D01*
X126214375Y-60932861D01*
X126214376Y-60932861D01*
X126214377Y-60932862D01*
X126244715Y-60945428D01*
X126348291Y-60988330D01*
X126473079Y-61004758D01*
X126491999Y-61007250D01*
X126491999Y-61007249D01*
X126492000Y-61007250D01*
X126635709Y-60988330D01*
X126769625Y-60932861D01*
X126884621Y-60844621D01*
X126972861Y-60729625D01*
X127028330Y-60595709D01*
X127047250Y-60452000D01*
X127028330Y-60308291D01*
X126972861Y-60174375D01*
X126884621Y-60059379D01*
X126769625Y-59971139D01*
X126769624Y-59971138D01*
X126769622Y-59971137D01*
X126635709Y-59915670D01*
X126492000Y-59896749D01*
X126348290Y-59915670D01*
X126214377Y-59971137D01*
X126099379Y-60059379D01*
X126011137Y-60174377D01*
X125955670Y-60308290D01*
X125936749Y-60451999D01*
X122219030Y-60451999D01*
X122216830Y-60435291D01*
X122161361Y-60301375D01*
X122073121Y-60186379D01*
X121958125Y-60098139D01*
X121958124Y-60098138D01*
X121958122Y-60098137D01*
X121824209Y-60042670D01*
X121680500Y-60023749D01*
X121536790Y-60042670D01*
X121402877Y-60098137D01*
X121287879Y-60186379D01*
X121199637Y-60301377D01*
X121144170Y-60435290D01*
X121125249Y-60579000D01*
X102492628Y-60579000D01*
X102576928Y-60514314D01*
X102665168Y-60399318D01*
X102720637Y-60265402D01*
X102739557Y-60121693D01*
X102720637Y-59977984D01*
X102665168Y-59844068D01*
X102576928Y-59729072D01*
X102461932Y-59640832D01*
X102461931Y-59640831D01*
X102461929Y-59640830D01*
X102328016Y-59585363D01*
X102168121Y-59564312D01*
X102168191Y-59563777D01*
X102132946Y-59560306D01*
X102085124Y-59530567D01*
X102055386Y-59482745D01*
X102049867Y-59426704D01*
X102054723Y-59389820D01*
X103822737Y-59389820D01*
X103841658Y-59533529D01*
X103897125Y-59667442D01*
X103897126Y-59667444D01*
X103897127Y-59667445D01*
X103985367Y-59782441D01*
X104100363Y-59870681D01*
X104234279Y-59926150D01*
X104377988Y-59945070D01*
X104521697Y-59926150D01*
X104655613Y-59870681D01*
X104770609Y-59782441D01*
X104858849Y-59667445D01*
X104914318Y-59533529D01*
X104933238Y-59389820D01*
X104922598Y-59308999D01*
X112601749Y-59308999D01*
X112620670Y-59452709D01*
X112676137Y-59586622D01*
X112676138Y-59586624D01*
X112676139Y-59586625D01*
X112764379Y-59701621D01*
X112879375Y-59789861D01*
X113013291Y-59845330D01*
X113157000Y-59864250D01*
X113205410Y-59857876D01*
X113269045Y-59866253D01*
X113319969Y-59905328D01*
X113344533Y-59964629D01*
X113362456Y-60100762D01*
X113422963Y-60246840D01*
X113519217Y-60372282D01*
X113623109Y-60452000D01*
X113644659Y-60468536D01*
X113790738Y-60529044D01*
X113947500Y-60549682D01*
X114104262Y-60529044D01*
X114250341Y-60468536D01*
X114375782Y-60372282D01*
X114472036Y-60246841D01*
X114532544Y-60100762D01*
X114553182Y-59944000D01*
X114532544Y-59787238D01*
X114472036Y-59641159D01*
X114450395Y-59612956D01*
X114412062Y-59562999D01*
X116030749Y-59562999D01*
X116049670Y-59706709D01*
X116105137Y-59840622D01*
X116105138Y-59840624D01*
X116105139Y-59840625D01*
X116193379Y-59955621D01*
X116308375Y-60043861D01*
X116442291Y-60099330D01*
X116558413Y-60114618D01*
X116585999Y-60118250D01*
X116585999Y-60118249D01*
X116586000Y-60118250D01*
X116729709Y-60099330D01*
X116863625Y-60043861D01*
X116978621Y-59955621D01*
X117066861Y-59840625D01*
X117122330Y-59706709D01*
X117141250Y-59563000D01*
X117141250Y-59562999D01*
X119826249Y-59562999D01*
X119845170Y-59706709D01*
X119900637Y-59840622D01*
X119900638Y-59840624D01*
X119900639Y-59840625D01*
X119988879Y-59955621D01*
X120103875Y-60043861D01*
X120237791Y-60099330D01*
X120353913Y-60114618D01*
X120381499Y-60118250D01*
X120381499Y-60118249D01*
X120381500Y-60118250D01*
X120525209Y-60099330D01*
X120659125Y-60043861D01*
X120774121Y-59955621D01*
X120862361Y-59840625D01*
X120917830Y-59706709D01*
X120936750Y-59563000D01*
X120917830Y-59419291D01*
X120862361Y-59285375D01*
X120774121Y-59170379D01*
X120659125Y-59082139D01*
X120659124Y-59082138D01*
X120659122Y-59082137D01*
X120525209Y-59026670D01*
X120381500Y-59007749D01*
X120237790Y-59026670D01*
X120103877Y-59082137D01*
X119988879Y-59170379D01*
X119900637Y-59285377D01*
X119845170Y-59419290D01*
X119826249Y-59562999D01*
X117141250Y-59562999D01*
X117122330Y-59419291D01*
X117066861Y-59285375D01*
X116978621Y-59170379D01*
X116863625Y-59082139D01*
X116863624Y-59082138D01*
X116863622Y-59082137D01*
X116729709Y-59026670D01*
X116586000Y-59007749D01*
X116442290Y-59026670D01*
X116308377Y-59082137D01*
X116193379Y-59170379D01*
X116105137Y-59285377D01*
X116049670Y-59419290D01*
X116030749Y-59562999D01*
X114412062Y-59562999D01*
X114375782Y-59515717D01*
X114250340Y-59419463D01*
X114104262Y-59358956D01*
X113947498Y-59338317D01*
X113842989Y-59352076D01*
X113779352Y-59343698D01*
X113728429Y-59304623D01*
X113703866Y-59245322D01*
X113697315Y-59195562D01*
X113693330Y-59165291D01*
X113637861Y-59031375D01*
X113549621Y-58916379D01*
X113434625Y-58828139D01*
X113434624Y-58828138D01*
X113434622Y-58828137D01*
X113300709Y-58772670D01*
X113157000Y-58753749D01*
X113013290Y-58772670D01*
X112879377Y-58828137D01*
X112764379Y-58916379D01*
X112676137Y-59031377D01*
X112620670Y-59165290D01*
X112601749Y-59308999D01*
X104922598Y-59308999D01*
X104914318Y-59246111D01*
X104858849Y-59112195D01*
X104770609Y-58997199D01*
X104655613Y-58908959D01*
X104655612Y-58908958D01*
X104655610Y-58908957D01*
X104521697Y-58853490D01*
X104377988Y-58834569D01*
X104234278Y-58853490D01*
X104100365Y-58908957D01*
X103985367Y-58997199D01*
X103897125Y-59112197D01*
X103841658Y-59246110D01*
X103822737Y-59389820D01*
X102054723Y-59389820D01*
X102063344Y-59324338D01*
X102042706Y-59167576D01*
X101982198Y-59021497D01*
X101932193Y-58956329D01*
X101885944Y-58896055D01*
X101760502Y-58799801D01*
X101614424Y-58739294D01*
X101457662Y-58718655D01*
X101300899Y-58739294D01*
X101154821Y-58799801D01*
X101029379Y-58896055D01*
X100933125Y-59021497D01*
X100872618Y-59167575D01*
X100851979Y-59324337D01*
X94107500Y-59324337D01*
X94107500Y-58420000D01*
X106632749Y-58420000D01*
X106651670Y-58563709D01*
X106707137Y-58697622D01*
X106707138Y-58697624D01*
X106707139Y-58697625D01*
X106795379Y-58812621D01*
X106910375Y-58900861D01*
X106910376Y-58900861D01*
X106910377Y-58900862D01*
X106940715Y-58913428D01*
X107044291Y-58956330D01*
X107188000Y-58975250D01*
X107331709Y-58956330D01*
X107465625Y-58900861D01*
X107580621Y-58812621D01*
X107668861Y-58697625D01*
X107684763Y-58659233D01*
X118712516Y-58659233D01*
X118731437Y-58802942D01*
X118786904Y-58936855D01*
X118786905Y-58936857D01*
X118786906Y-58936858D01*
X118875146Y-59051854D01*
X118990142Y-59140094D01*
X119124058Y-59195563D01*
X119267767Y-59214483D01*
X119411476Y-59195563D01*
X119545392Y-59140094D01*
X119660388Y-59051854D01*
X119734708Y-58954999D01*
X134430357Y-58954999D01*
X134450885Y-59176537D01*
X134511769Y-59390526D01*
X134610941Y-59589688D01*
X134745019Y-59767237D01*
X134909437Y-59917124D01*
X135098595Y-60034245D01*
X135098597Y-60034245D01*
X135098599Y-60034247D01*
X135306060Y-60114618D01*
X135524757Y-60155500D01*
X135747241Y-60155500D01*
X135747243Y-60155500D01*
X135965940Y-60114618D01*
X136173401Y-60034247D01*
X136362562Y-59917124D01*
X136442698Y-59844070D01*
X136526980Y-59767237D01*
X136555801Y-59729072D01*
X136661058Y-59589689D01*
X136760229Y-59390528D01*
X136760431Y-59389820D01*
X136790147Y-59285377D01*
X136821115Y-59176536D01*
X136841643Y-58955000D01*
X136821115Y-58733464D01*
X136772816Y-58563709D01*
X136760230Y-58519473D01*
X136661058Y-58320311D01*
X136526980Y-58142762D01*
X136362562Y-57992875D01*
X136173404Y-57875754D01*
X136112174Y-57852033D01*
X135965940Y-57795382D01*
X135747243Y-57754500D01*
X135524757Y-57754500D01*
X135306060Y-57795381D01*
X135306060Y-57795382D01*
X135098595Y-57875754D01*
X134909437Y-57992875D01*
X134745019Y-58142762D01*
X134610941Y-58320311D01*
X134511769Y-58519473D01*
X134450885Y-58733462D01*
X134430357Y-58954999D01*
X119734708Y-58954999D01*
X119748628Y-58936858D01*
X119804097Y-58802942D01*
X119823017Y-58659233D01*
X119804097Y-58515524D01*
X119748628Y-58381608D01*
X119660388Y-58266612D01*
X119545392Y-58178372D01*
X119545391Y-58178371D01*
X119545389Y-58178370D01*
X119411476Y-58122903D01*
X119267767Y-58103982D01*
X119124057Y-58122903D01*
X118990144Y-58178370D01*
X118875146Y-58266612D01*
X118786904Y-58381610D01*
X118731437Y-58515523D01*
X118712516Y-58659233D01*
X107684763Y-58659233D01*
X107724330Y-58563709D01*
X107743250Y-58420000D01*
X107724330Y-58276291D01*
X107668861Y-58142375D01*
X107580621Y-58027379D01*
X107465625Y-57939139D01*
X107465624Y-57939138D01*
X107465622Y-57939137D01*
X107331709Y-57883670D01*
X107187999Y-57864749D01*
X107044290Y-57883670D01*
X106910377Y-57939137D01*
X106795379Y-58027379D01*
X106707137Y-58142377D01*
X106651670Y-58276290D01*
X106632749Y-58420000D01*
X94107500Y-58420000D01*
X94107500Y-56895999D01*
X114041749Y-56895999D01*
X114060670Y-57039709D01*
X114116137Y-57173622D01*
X114116138Y-57173624D01*
X114116139Y-57173625D01*
X114204379Y-57288621D01*
X114319375Y-57376861D01*
X114453291Y-57432330D01*
X114564221Y-57446934D01*
X114616925Y-57466770D01*
X114655421Y-57507872D01*
X114671769Y-57561761D01*
X114662597Y-57617323D01*
X114652670Y-57641289D01*
X114633749Y-57784999D01*
X114652670Y-57928709D01*
X114708137Y-58062622D01*
X114708138Y-58062624D01*
X114708139Y-58062625D01*
X114796379Y-58177621D01*
X114911375Y-58265861D01*
X115045291Y-58321330D01*
X115170079Y-58337758D01*
X115188999Y-58340250D01*
X115188999Y-58340249D01*
X115189000Y-58340250D01*
X115332709Y-58321330D01*
X115466625Y-58265861D01*
X115581621Y-58177621D01*
X115669861Y-58062625D01*
X115725330Y-57928709D01*
X115744250Y-57785000D01*
X115725330Y-57641291D01*
X115669861Y-57507375D01*
X115581621Y-57392379D01*
X115466625Y-57304139D01*
X115466624Y-57304138D01*
X115466622Y-57304137D01*
X115332709Y-57248670D01*
X115221778Y-57234065D01*
X115169073Y-57214228D01*
X115130576Y-57173125D01*
X115114229Y-57119235D01*
X115123402Y-57063676D01*
X115133330Y-57039709D01*
X115137474Y-57008234D01*
X117061515Y-57008234D01*
X117080436Y-57151943D01*
X117135903Y-57285856D01*
X117135904Y-57285858D01*
X117135905Y-57285859D01*
X117224145Y-57400855D01*
X117339141Y-57489095D01*
X117473057Y-57544564D01*
X117597845Y-57560992D01*
X117616765Y-57563484D01*
X117616765Y-57563483D01*
X117616766Y-57563484D01*
X117760475Y-57544564D01*
X117894391Y-57489095D01*
X118009387Y-57400855D01*
X118097627Y-57285859D01*
X118153096Y-57151943D01*
X118172016Y-57008234D01*
X118153096Y-56864525D01*
X118097627Y-56730609D01*
X118009387Y-56615613D01*
X117894391Y-56527373D01*
X117894390Y-56527372D01*
X117894388Y-56527371D01*
X117760475Y-56471904D01*
X117616765Y-56452983D01*
X117473056Y-56471904D01*
X117339143Y-56527371D01*
X117224145Y-56615613D01*
X117135903Y-56730611D01*
X117080436Y-56864524D01*
X117061515Y-57008234D01*
X115137474Y-57008234D01*
X115152250Y-56896000D01*
X115133330Y-56752291D01*
X115077861Y-56618375D01*
X114989621Y-56503379D01*
X114874625Y-56415139D01*
X114874624Y-56415138D01*
X114874622Y-56415137D01*
X114740709Y-56359670D01*
X114597000Y-56340749D01*
X114453290Y-56359670D01*
X114319377Y-56415137D01*
X114204379Y-56503379D01*
X114116137Y-56618377D01*
X114060670Y-56752290D01*
X114041749Y-56895999D01*
X94107500Y-56895999D01*
X94107500Y-55498999D01*
X125936749Y-55498999D01*
X125955670Y-55642709D01*
X126011137Y-55776622D01*
X126011138Y-55776624D01*
X126011139Y-55776625D01*
X126099379Y-55891621D01*
X126214375Y-55979861D01*
X126348291Y-56035330D01*
X126492000Y-56054250D01*
X126635709Y-56035330D01*
X126769625Y-55979861D01*
X126884621Y-55891621D01*
X126972861Y-55776625D01*
X127028330Y-55642709D01*
X127047250Y-55499000D01*
X127028330Y-55355291D01*
X126972861Y-55221375D01*
X126884621Y-55106379D01*
X126884619Y-55106377D01*
X126884618Y-55106376D01*
X126826030Y-55061419D01*
X126786955Y-55010495D01*
X126778578Y-54946857D01*
X126803143Y-54887555D01*
X126854064Y-54848483D01*
X126882125Y-54836861D01*
X126997121Y-54748621D01*
X127085361Y-54633625D01*
X127140830Y-54499709D01*
X127159750Y-54356000D01*
X127140830Y-54212291D01*
X127085361Y-54078375D01*
X126997121Y-53963379D01*
X126882125Y-53875139D01*
X126882124Y-53875138D01*
X126882122Y-53875137D01*
X126881789Y-53874999D01*
X134430357Y-53874999D01*
X134450885Y-54096537D01*
X134511769Y-54310526D01*
X134610941Y-54509688D01*
X134745019Y-54687237D01*
X134909437Y-54837124D01*
X135098595Y-54954245D01*
X135098597Y-54954245D01*
X135098599Y-54954247D01*
X135306060Y-55034618D01*
X135524757Y-55075500D01*
X135747241Y-55075500D01*
X135747243Y-55075500D01*
X135965940Y-55034618D01*
X136173401Y-54954247D01*
X136362562Y-54837124D01*
X136526981Y-54687236D01*
X136661058Y-54509689D01*
X136760229Y-54310528D01*
X136821115Y-54096536D01*
X136841643Y-53875000D01*
X136821115Y-53653464D01*
X136788682Y-53539473D01*
X136760230Y-53439473D01*
X136661058Y-53240311D01*
X136526980Y-53062762D01*
X136362562Y-52912875D01*
X136173404Y-52795754D01*
X136112174Y-52772033D01*
X135965940Y-52715382D01*
X135747243Y-52674500D01*
X135524757Y-52674500D01*
X135306060Y-52715381D01*
X135306060Y-52715382D01*
X135098595Y-52795754D01*
X134909437Y-52912875D01*
X134745019Y-53062762D01*
X134610941Y-53240311D01*
X134511769Y-53439473D01*
X134450885Y-53653462D01*
X134430357Y-53874999D01*
X126881789Y-53874999D01*
X126748209Y-53819670D01*
X126604500Y-53800749D01*
X126460790Y-53819670D01*
X126326877Y-53875137D01*
X126211879Y-53963379D01*
X126123637Y-54078377D01*
X126068170Y-54212290D01*
X126049249Y-54356000D01*
X126068170Y-54499709D01*
X126123637Y-54633622D01*
X126123638Y-54633624D01*
X126123639Y-54633625D01*
X126211878Y-54748620D01*
X126211881Y-54748623D01*
X126270469Y-54793580D01*
X126309543Y-54844503D01*
X126317921Y-54908141D01*
X126293358Y-54967442D01*
X126242435Y-55006516D01*
X126214376Y-55018138D01*
X126099379Y-55106379D01*
X126011137Y-55221377D01*
X125955670Y-55355290D01*
X125936749Y-55498999D01*
X94107500Y-55498999D01*
X94107500Y-53974999D01*
X97096357Y-53974999D01*
X97116885Y-54196537D01*
X97177769Y-54410526D01*
X97276941Y-54609688D01*
X97411019Y-54787237D01*
X97575437Y-54937124D01*
X97764595Y-55054245D01*
X97764597Y-55054245D01*
X97764599Y-55054247D01*
X97972060Y-55134618D01*
X98190757Y-55175500D01*
X98413241Y-55175500D01*
X98413243Y-55175500D01*
X98631940Y-55134618D01*
X98839401Y-55054247D01*
X99028562Y-54937124D01*
X99082937Y-54887555D01*
X99192980Y-54787237D01*
X99222140Y-54748623D01*
X99327058Y-54609689D01*
X99426229Y-54410528D01*
X99487115Y-54196536D01*
X99507643Y-53975000D01*
X99487115Y-53753464D01*
X99458662Y-53653462D01*
X99426230Y-53539473D01*
X99327058Y-53340311D01*
X99192980Y-53162762D01*
X99028562Y-53012875D01*
X98839404Y-52895754D01*
X98778174Y-52872033D01*
X98674836Y-52832000D01*
X108537749Y-52832000D01*
X108556670Y-52975709D01*
X108612137Y-53109622D01*
X108612138Y-53109624D01*
X108612139Y-53109625D01*
X108700379Y-53224621D01*
X108815375Y-53312861D01*
X108949291Y-53368330D01*
X109093000Y-53387250D01*
X109236709Y-53368330D01*
X109370625Y-53312861D01*
X109485621Y-53224621D01*
X109573861Y-53109625D01*
X109583647Y-53085999D01*
X128603749Y-53085999D01*
X128622670Y-53229709D01*
X128678137Y-53363622D01*
X128678138Y-53363624D01*
X128678139Y-53363625D01*
X128766379Y-53478621D01*
X128881375Y-53566861D01*
X129015291Y-53622330D01*
X129159000Y-53641250D01*
X129302709Y-53622330D01*
X129436625Y-53566861D01*
X129551621Y-53478621D01*
X129639861Y-53363625D01*
X129695330Y-53229709D01*
X129714250Y-53086000D01*
X129695330Y-52942291D01*
X129639861Y-52808375D01*
X129551621Y-52693379D01*
X129436625Y-52605139D01*
X129436624Y-52605138D01*
X129436622Y-52605137D01*
X129302709Y-52549670D01*
X129159000Y-52530749D01*
X129015290Y-52549670D01*
X128881377Y-52605137D01*
X128766379Y-52693379D01*
X128678137Y-52808377D01*
X128622670Y-52942290D01*
X128603749Y-53085999D01*
X109583647Y-53085999D01*
X109629330Y-52975709D01*
X109648250Y-52832000D01*
X109629330Y-52688291D01*
X109573861Y-52554375D01*
X109485621Y-52439379D01*
X109370625Y-52351139D01*
X109370624Y-52351138D01*
X109370622Y-52351137D01*
X109236709Y-52295670D01*
X109093000Y-52276749D01*
X108949290Y-52295670D01*
X108815377Y-52351137D01*
X108700379Y-52439379D01*
X108612137Y-52554377D01*
X108556670Y-52688290D01*
X108537749Y-52832000D01*
X98674836Y-52832000D01*
X98631940Y-52815382D01*
X98413243Y-52774500D01*
X98190757Y-52774500D01*
X98009544Y-52808375D01*
X97972060Y-52815382D01*
X97764595Y-52895754D01*
X97575437Y-53012875D01*
X97411019Y-53162762D01*
X97276941Y-53340311D01*
X97177769Y-53539473D01*
X97116885Y-53753462D01*
X97096357Y-53974999D01*
X94107500Y-53974999D01*
X94107500Y-52032500D01*
X110823749Y-52032500D01*
X110842670Y-52176209D01*
X110898137Y-52310122D01*
X110898138Y-52310124D01*
X110898139Y-52310125D01*
X110986379Y-52425121D01*
X111101375Y-52513361D01*
X111235291Y-52568830D01*
X111379000Y-52587750D01*
X111522709Y-52568830D01*
X111656625Y-52513361D01*
X111771621Y-52425121D01*
X111859861Y-52310125D01*
X111915330Y-52176209D01*
X111934250Y-52032500D01*
X111915330Y-51888791D01*
X111859861Y-51754875D01*
X111797982Y-51674233D01*
X112743516Y-51674233D01*
X112762437Y-51817942D01*
X112817904Y-51951855D01*
X112817905Y-51951857D01*
X112817906Y-51951858D01*
X112906146Y-52066854D01*
X113021142Y-52155094D01*
X113155058Y-52210563D01*
X113298767Y-52229483D01*
X113442476Y-52210563D01*
X113576392Y-52155094D01*
X113691388Y-52066854D01*
X113779628Y-51951858D01*
X113835097Y-51817942D01*
X113854017Y-51674233D01*
X113839241Y-51561999D01*
X122761749Y-51561999D01*
X122780670Y-51705709D01*
X122836137Y-51839622D01*
X122836138Y-51839624D01*
X122836139Y-51839625D01*
X122924379Y-51954621D01*
X123039375Y-52042861D01*
X123173291Y-52098330D01*
X123317000Y-52117250D01*
X123460709Y-52098330D01*
X123594625Y-52042861D01*
X123709621Y-51954621D01*
X123797861Y-51839625D01*
X123853330Y-51705709D01*
X123872250Y-51562000D01*
X123853330Y-51418291D01*
X123797861Y-51284375D01*
X123709621Y-51169379D01*
X123594625Y-51081139D01*
X123594624Y-51081138D01*
X123594622Y-51081137D01*
X123460709Y-51025670D01*
X123317000Y-51006749D01*
X123173290Y-51025670D01*
X123039377Y-51081137D01*
X122924379Y-51169379D01*
X122836137Y-51284377D01*
X122780670Y-51418290D01*
X122761749Y-51561999D01*
X113839241Y-51561999D01*
X113835097Y-51530524D01*
X113788609Y-51418290D01*
X113779629Y-51396610D01*
X113779628Y-51396609D01*
X113779628Y-51396608D01*
X113691388Y-51281612D01*
X113576392Y-51193372D01*
X113576391Y-51193371D01*
X113576389Y-51193370D01*
X113442476Y-51137903D01*
X113298767Y-51118982D01*
X113155057Y-51137903D01*
X113021144Y-51193370D01*
X112906146Y-51281612D01*
X112817904Y-51396610D01*
X112762437Y-51530523D01*
X112743516Y-51674233D01*
X111797982Y-51674233D01*
X111771621Y-51639879D01*
X111656625Y-51551639D01*
X111656624Y-51551638D01*
X111656622Y-51551637D01*
X111522709Y-51496170D01*
X111379000Y-51477249D01*
X111235290Y-51496170D01*
X111101377Y-51551637D01*
X110986379Y-51639879D01*
X110898137Y-51754877D01*
X110842670Y-51888790D01*
X110823749Y-52032500D01*
X94107500Y-52032500D01*
X94107500Y-50419000D01*
X108233317Y-50419000D01*
X108253956Y-50575762D01*
X108314463Y-50721840D01*
X108410717Y-50847282D01*
X108514609Y-50927000D01*
X108536159Y-50943536D01*
X108682238Y-51004044D01*
X108839000Y-51024682D01*
X108995762Y-51004044D01*
X109141841Y-50943536D01*
X109267282Y-50847282D01*
X109363536Y-50721841D01*
X109424044Y-50575762D01*
X109427962Y-50545999D01*
X111823749Y-50545999D01*
X111842670Y-50689709D01*
X111898137Y-50823622D01*
X111898138Y-50823624D01*
X111898139Y-50823625D01*
X111986379Y-50938621D01*
X112101375Y-51026861D01*
X112235291Y-51082330D01*
X112379000Y-51101250D01*
X112522709Y-51082330D01*
X112656625Y-51026861D01*
X112771621Y-50938621D01*
X112780538Y-50927000D01*
X117300749Y-50927000D01*
X117319670Y-51070709D01*
X117375137Y-51204622D01*
X117375138Y-51204624D01*
X117375139Y-51204625D01*
X117463379Y-51319621D01*
X117578375Y-51407861D01*
X117712291Y-51463330D01*
X117856000Y-51482250D01*
X117999709Y-51463330D01*
X118133625Y-51407861D01*
X118248621Y-51319621D01*
X118336861Y-51204625D01*
X118392330Y-51070709D01*
X118411250Y-50927000D01*
X118394530Y-50799999D01*
X120729749Y-50799999D01*
X120748670Y-50943709D01*
X120804137Y-51077622D01*
X120804138Y-51077624D01*
X120804139Y-51077625D01*
X120892379Y-51192621D01*
X121007375Y-51280861D01*
X121007376Y-51280861D01*
X121007377Y-51280862D01*
X121037715Y-51293428D01*
X121141291Y-51336330D01*
X121285000Y-51355250D01*
X121428709Y-51336330D01*
X121562625Y-51280861D01*
X121677621Y-51192621D01*
X121765861Y-51077625D01*
X121821330Y-50943709D01*
X121840250Y-50800000D01*
X121821330Y-50656291D01*
X121765861Y-50522375D01*
X121677621Y-50407379D01*
X121562625Y-50319139D01*
X121562624Y-50319138D01*
X121562622Y-50319137D01*
X121428709Y-50263670D01*
X121285000Y-50244749D01*
X121141290Y-50263670D01*
X121007377Y-50319137D01*
X120892379Y-50407379D01*
X120804137Y-50522377D01*
X120748670Y-50656290D01*
X120729749Y-50799999D01*
X118394530Y-50799999D01*
X118392330Y-50783291D01*
X118336861Y-50649375D01*
X118248621Y-50534379D01*
X118133625Y-50446139D01*
X118133624Y-50446138D01*
X118133622Y-50446137D01*
X117999709Y-50390670D01*
X117856000Y-50371749D01*
X117712290Y-50390670D01*
X117578377Y-50446137D01*
X117463379Y-50534379D01*
X117375137Y-50649377D01*
X117319670Y-50783290D01*
X117300749Y-50927000D01*
X112780538Y-50927000D01*
X112859861Y-50823625D01*
X112915330Y-50689709D01*
X112934250Y-50546000D01*
X112915330Y-50402291D01*
X112859861Y-50268375D01*
X112771621Y-50153379D01*
X112656625Y-50065139D01*
X112656624Y-50065138D01*
X112656622Y-50065137D01*
X112522709Y-50009670D01*
X112379000Y-49990749D01*
X112235290Y-50009670D01*
X112101377Y-50065137D01*
X111986379Y-50153379D01*
X111898137Y-50268377D01*
X111842670Y-50402290D01*
X111823749Y-50545999D01*
X109427962Y-50545999D01*
X109444682Y-50419000D01*
X109424044Y-50262238D01*
X109363536Y-50116159D01*
X109316314Y-50054618D01*
X109267282Y-49990717D01*
X109163390Y-49910999D01*
X123015749Y-49910999D01*
X123034670Y-50054709D01*
X123090137Y-50188622D01*
X123090138Y-50188624D01*
X123090139Y-50188625D01*
X123178379Y-50303621D01*
X123293375Y-50391861D01*
X123427291Y-50447330D01*
X123571000Y-50466250D01*
X123714709Y-50447330D01*
X123848625Y-50391861D01*
X123963621Y-50303621D01*
X124051861Y-50188625D01*
X124061647Y-50164999D01*
X130000749Y-50164999D01*
X130019670Y-50308709D01*
X130075137Y-50442622D01*
X130075138Y-50442624D01*
X130075139Y-50442625D01*
X130163379Y-50557621D01*
X130278375Y-50645861D01*
X130278376Y-50645861D01*
X130278377Y-50645862D01*
X130303553Y-50656290D01*
X130412291Y-50701330D01*
X130556000Y-50720250D01*
X130699709Y-50701330D01*
X130833625Y-50645861D01*
X130948621Y-50557621D01*
X131036861Y-50442625D01*
X131092330Y-50308709D01*
X131111250Y-50165000D01*
X131092330Y-50021291D01*
X131036861Y-49887375D01*
X130948621Y-49772379D01*
X130833625Y-49684139D01*
X130833624Y-49684138D01*
X130833622Y-49684137D01*
X130699709Y-49628670D01*
X130556000Y-49609749D01*
X130412290Y-49628670D01*
X130278377Y-49684137D01*
X130163379Y-49772379D01*
X130075137Y-49887377D01*
X130019670Y-50021290D01*
X130000749Y-50164999D01*
X124061647Y-50164999D01*
X124107330Y-50054709D01*
X124126250Y-49911000D01*
X124107330Y-49767291D01*
X124051861Y-49633375D01*
X123963621Y-49518379D01*
X123910112Y-49477320D01*
X123871039Y-49426397D01*
X123862661Y-49362759D01*
X123887225Y-49303457D01*
X123938146Y-49264384D01*
X123975625Y-49248861D01*
X124090621Y-49160621D01*
X124178861Y-49045625D01*
X124234330Y-48911709D01*
X124249695Y-48794999D01*
X134430357Y-48794999D01*
X134450885Y-49016537D01*
X134511769Y-49230526D01*
X134610941Y-49429688D01*
X134745019Y-49607237D01*
X134909437Y-49757124D01*
X135098595Y-49874245D01*
X135098597Y-49874245D01*
X135098599Y-49874247D01*
X135306060Y-49954618D01*
X135524757Y-49995500D01*
X135747241Y-49995500D01*
X135747243Y-49995500D01*
X135965940Y-49954618D01*
X136173401Y-49874247D01*
X136362562Y-49757124D01*
X136526981Y-49607236D01*
X136661058Y-49429689D01*
X136760229Y-49230528D01*
X136821115Y-49016536D01*
X136841643Y-48795000D01*
X136821115Y-48573464D01*
X136788682Y-48459473D01*
X136760230Y-48359473D01*
X136661058Y-48160311D01*
X136526980Y-47982762D01*
X136362562Y-47832875D01*
X136173404Y-47715754D01*
X136048115Y-47667217D01*
X135965940Y-47635382D01*
X135747243Y-47594500D01*
X135524757Y-47594500D01*
X135306060Y-47635381D01*
X135306060Y-47635382D01*
X135098595Y-47715754D01*
X134909437Y-47832875D01*
X134745019Y-47982762D01*
X134610941Y-48160311D01*
X134511769Y-48359473D01*
X134450885Y-48573462D01*
X134430357Y-48794999D01*
X124249695Y-48794999D01*
X124253250Y-48768000D01*
X124234330Y-48624291D01*
X124178861Y-48490375D01*
X124090621Y-48375379D01*
X123975625Y-48287139D01*
X123975624Y-48287138D01*
X123975622Y-48287137D01*
X123841709Y-48231670D01*
X123698000Y-48212749D01*
X123554290Y-48231670D01*
X123420377Y-48287137D01*
X123305379Y-48375379D01*
X123217137Y-48490377D01*
X123161670Y-48624290D01*
X123142749Y-48768000D01*
X123161670Y-48911709D01*
X123217137Y-49045622D01*
X123305380Y-49160622D01*
X123358885Y-49201678D01*
X123397960Y-49252601D01*
X123406338Y-49316239D01*
X123381775Y-49375540D01*
X123330852Y-49414615D01*
X123293377Y-49430137D01*
X123178379Y-49518379D01*
X123090137Y-49633377D01*
X123034670Y-49767290D01*
X123015749Y-49910999D01*
X109163390Y-49910999D01*
X109141840Y-49894463D01*
X108995762Y-49833956D01*
X108839000Y-49813317D01*
X108682237Y-49833956D01*
X108536159Y-49894463D01*
X108410717Y-49990717D01*
X108314463Y-50116159D01*
X108253956Y-50262237D01*
X108233317Y-50419000D01*
X94107500Y-50419000D01*
X94107500Y-48895000D01*
X97096357Y-48895000D01*
X97116885Y-49116537D01*
X97177769Y-49330526D01*
X97276941Y-49529688D01*
X97411019Y-49707237D01*
X97575437Y-49857124D01*
X97764595Y-49974245D01*
X97764597Y-49974245D01*
X97764599Y-49974247D01*
X97972060Y-50054618D01*
X98190757Y-50095500D01*
X98413241Y-50095500D01*
X98413243Y-50095500D01*
X98631940Y-50054618D01*
X98839401Y-49974247D01*
X99028562Y-49857124D01*
X99192981Y-49707236D01*
X99327058Y-49529689D01*
X99426229Y-49330528D01*
X99433932Y-49303457D01*
X99474571Y-49160622D01*
X99487115Y-49116536D01*
X99507643Y-48895000D01*
X99487115Y-48673464D01*
X99458662Y-48573462D01*
X99426230Y-48459473D01*
X99327058Y-48260311D01*
X99202599Y-48095500D01*
X103026317Y-48095500D01*
X103046956Y-48252262D01*
X103107463Y-48398340D01*
X103203717Y-48523782D01*
X103329158Y-48620035D01*
X103329159Y-48620036D01*
X103475238Y-48680544D01*
X103632000Y-48701182D01*
X103690225Y-48693516D01*
X103747797Y-48699567D01*
X103796352Y-48731098D01*
X103825300Y-48781236D01*
X103828331Y-48839051D01*
X103804784Y-48891940D01*
X103742463Y-48973159D01*
X103681956Y-49119237D01*
X103661317Y-49276000D01*
X103681956Y-49432762D01*
X103742463Y-49578840D01*
X103838717Y-49704282D01*
X103907583Y-49757124D01*
X103964159Y-49800536D01*
X104110238Y-49861044D01*
X104267000Y-49881682D01*
X104423762Y-49861044D01*
X104569841Y-49800536D01*
X104695282Y-49704282D01*
X104791536Y-49578841D01*
X104852044Y-49432762D01*
X104872682Y-49276000D01*
X104852044Y-49119238D01*
X104791536Y-48973159D01*
X104729215Y-48891940D01*
X104695282Y-48847717D01*
X104569840Y-48751463D01*
X104423762Y-48690956D01*
X104266999Y-48670317D01*
X104208777Y-48677983D01*
X104151200Y-48671932D01*
X104102645Y-48640400D01*
X104073698Y-48590262D01*
X104070668Y-48532447D01*
X104094214Y-48479559D01*
X104156536Y-48398341D01*
X104217044Y-48252262D01*
X104237682Y-48095500D01*
X104217044Y-47938738D01*
X104156536Y-47792659D01*
X104097525Y-47715754D01*
X104060282Y-47667217D01*
X103934840Y-47570963D01*
X103788762Y-47510456D01*
X103694146Y-47497999D01*
X118062749Y-47497999D01*
X118081670Y-47641709D01*
X118137137Y-47775622D01*
X118137138Y-47775624D01*
X118137139Y-47775625D01*
X118225379Y-47890621D01*
X118340375Y-47978861D01*
X118474291Y-48034330D01*
X118618000Y-48053250D01*
X118761709Y-48034330D01*
X118895625Y-47978861D01*
X119010621Y-47890621D01*
X119098861Y-47775625D01*
X119154330Y-47641709D01*
X119173250Y-47498000D01*
X119154330Y-47354291D01*
X119098861Y-47220375D01*
X119010621Y-47105379D01*
X118895625Y-47017139D01*
X118895624Y-47017138D01*
X118895622Y-47017137D01*
X118761709Y-46961670D01*
X118618000Y-46942749D01*
X118474290Y-46961670D01*
X118340377Y-47017137D01*
X118225379Y-47105379D01*
X118137137Y-47220377D01*
X118081670Y-47354290D01*
X118062749Y-47497999D01*
X103694146Y-47497999D01*
X103632000Y-47489817D01*
X103475237Y-47510456D01*
X103329159Y-47570963D01*
X103203717Y-47667217D01*
X103107463Y-47792659D01*
X103046956Y-47938737D01*
X103026317Y-48095500D01*
X99202599Y-48095500D01*
X99192980Y-48082762D01*
X99028562Y-47932875D01*
X98839404Y-47815754D01*
X98735811Y-47775622D01*
X98631940Y-47735382D01*
X98413243Y-47694500D01*
X98190757Y-47694500D01*
X97972059Y-47735382D01*
X97972060Y-47735382D01*
X97764595Y-47815754D01*
X97575437Y-47932875D01*
X97411019Y-48082762D01*
X97276941Y-48260311D01*
X97177769Y-48459473D01*
X97116885Y-48673462D01*
X97096357Y-48895000D01*
X94107500Y-48895000D01*
X94107500Y-46324903D01*
X102608000Y-46324903D01*
X102628639Y-46481666D01*
X102689146Y-46627744D01*
X102785400Y-46753186D01*
X102910841Y-46849439D01*
X102910842Y-46849440D01*
X103056921Y-46909948D01*
X103213683Y-46930586D01*
X103370445Y-46909948D01*
X103516524Y-46849440D01*
X103641965Y-46753186D01*
X103738219Y-46627745D01*
X103798727Y-46481666D01*
X103819365Y-46324904D01*
X103798727Y-46168142D01*
X103738219Y-46022063D01*
X103715879Y-45992948D01*
X103691316Y-45933646D01*
X103699694Y-45870008D01*
X103738768Y-45819086D01*
X103806282Y-45767282D01*
X103842563Y-45719999D01*
X112093749Y-45719999D01*
X112112670Y-45863709D01*
X112168137Y-45997622D01*
X112168138Y-45997624D01*
X112168139Y-45997625D01*
X112256379Y-46112621D01*
X112371375Y-46200861D01*
X112505291Y-46256330D01*
X112649000Y-46275250D01*
X112792709Y-46256330D01*
X112926625Y-46200861D01*
X113041621Y-46112621D01*
X113129861Y-45997625D01*
X113185330Y-45863709D01*
X113204250Y-45720000D01*
X113185330Y-45576291D01*
X113129861Y-45442375D01*
X113059734Y-45350984D01*
X113037050Y-45302337D01*
X113037050Y-45248660D01*
X113059733Y-45200016D01*
X113129861Y-45108625D01*
X113185330Y-44974709D01*
X113204250Y-44831000D01*
X113187530Y-44704000D01*
X119713749Y-44704000D01*
X119732670Y-44847709D01*
X119788137Y-44981622D01*
X119788138Y-44981624D01*
X119788139Y-44981625D01*
X119876379Y-45096621D01*
X119991375Y-45184861D01*
X120125291Y-45240330D01*
X120269000Y-45259250D01*
X120412709Y-45240330D01*
X120546625Y-45184861D01*
X120661621Y-45096621D01*
X120749861Y-44981625D01*
X120805330Y-44847709D01*
X120824250Y-44704000D01*
X120807530Y-44577000D01*
X121237749Y-44577000D01*
X121256670Y-44720709D01*
X121312137Y-44854622D01*
X121312138Y-44854624D01*
X121312139Y-44854625D01*
X121400379Y-44969621D01*
X121515375Y-45057861D01*
X121649291Y-45113330D01*
X121793000Y-45132250D01*
X121936709Y-45113330D01*
X122070625Y-45057861D01*
X122185621Y-44969621D01*
X122273861Y-44854625D01*
X122329330Y-44720709D01*
X122348250Y-44577000D01*
X122329330Y-44433291D01*
X122273861Y-44299375D01*
X122185621Y-44184379D01*
X122070625Y-44096139D01*
X122070624Y-44096138D01*
X122070622Y-44096137D01*
X121936709Y-44040670D01*
X121793000Y-44021749D01*
X121649290Y-44040670D01*
X121515377Y-44096137D01*
X121400379Y-44184379D01*
X121312137Y-44299377D01*
X121256670Y-44433290D01*
X121237749Y-44577000D01*
X120807530Y-44577000D01*
X120805330Y-44560291D01*
X120749861Y-44426375D01*
X120661621Y-44311379D01*
X120546625Y-44223139D01*
X120546624Y-44223138D01*
X120546622Y-44223137D01*
X120412709Y-44167670D01*
X120269000Y-44148749D01*
X120125290Y-44167670D01*
X119991377Y-44223137D01*
X119876379Y-44311379D01*
X119788137Y-44426377D01*
X119732670Y-44560290D01*
X119713749Y-44704000D01*
X113187530Y-44704000D01*
X113185330Y-44687291D01*
X113129861Y-44553375D01*
X113059734Y-44461984D01*
X113037050Y-44413337D01*
X113037050Y-44359660D01*
X113059735Y-44311014D01*
X113129861Y-44219625D01*
X113185330Y-44085709D01*
X113204250Y-43942000D01*
X113185330Y-43798291D01*
X113173771Y-43770385D01*
X134976238Y-43770385D01*
X134995159Y-43914094D01*
X135050626Y-44048007D01*
X135050627Y-44048009D01*
X135050628Y-44048010D01*
X135138868Y-44163006D01*
X135253864Y-44251246D01*
X135387780Y-44306715D01*
X135531489Y-44325635D01*
X135675198Y-44306715D01*
X135809114Y-44251246D01*
X135924110Y-44163006D01*
X136012350Y-44048010D01*
X136067819Y-43914094D01*
X136086739Y-43770385D01*
X136067819Y-43626676D01*
X136012350Y-43492760D01*
X135924110Y-43377764D01*
X135809114Y-43289524D01*
X135809113Y-43289523D01*
X135809111Y-43289522D01*
X135675198Y-43234055D01*
X135531489Y-43215134D01*
X135387779Y-43234055D01*
X135253866Y-43289522D01*
X135138868Y-43377764D01*
X135050626Y-43492762D01*
X134995159Y-43626675D01*
X134976238Y-43770385D01*
X113173771Y-43770385D01*
X113129861Y-43664375D01*
X113059734Y-43572984D01*
X113037050Y-43524337D01*
X113037050Y-43470660D01*
X113059733Y-43422016D01*
X113129861Y-43330625D01*
X113185330Y-43196709D01*
X113204250Y-43053000D01*
X113185330Y-42909291D01*
X113176718Y-42888499D01*
X121141089Y-42888499D01*
X121160010Y-43032209D01*
X121215477Y-43166122D01*
X121215478Y-43166124D01*
X121215479Y-43166125D01*
X121303719Y-43281121D01*
X121418715Y-43369361D01*
X121552631Y-43424830D01*
X121696340Y-43443750D01*
X121840049Y-43424830D01*
X121973965Y-43369361D01*
X122088961Y-43281121D01*
X122177201Y-43166125D01*
X122232670Y-43032209D01*
X122235455Y-43011050D01*
X122256202Y-42957003D01*
X122299226Y-42918264D01*
X122355148Y-42903280D01*
X122411777Y-42915316D01*
X122456768Y-42951749D01*
X122543379Y-43064621D01*
X122658375Y-43152861D01*
X122792291Y-43208330D01*
X122936000Y-43227250D01*
X123079709Y-43208330D01*
X123213625Y-43152861D01*
X123328621Y-43064621D01*
X123416861Y-42949625D01*
X123472330Y-42815709D01*
X123491250Y-42672000D01*
X123472330Y-42528291D01*
X123416861Y-42394375D01*
X123328621Y-42279379D01*
X123213625Y-42191139D01*
X123213624Y-42191138D01*
X123213622Y-42191137D01*
X123079709Y-42135670D01*
X122936000Y-42116749D01*
X122792290Y-42135670D01*
X122658377Y-42191137D01*
X122543379Y-42279379D01*
X122455137Y-42394377D01*
X122399670Y-42528290D01*
X122396884Y-42549450D01*
X122376135Y-42603498D01*
X122333111Y-42642236D01*
X122277190Y-42657220D01*
X122220561Y-42645182D01*
X122175569Y-42608748D01*
X122088962Y-42495880D01*
X122064437Y-42477061D01*
X121973965Y-42407639D01*
X121973964Y-42407638D01*
X121973962Y-42407637D01*
X121840049Y-42352170D01*
X121696340Y-42333249D01*
X121552630Y-42352170D01*
X121418717Y-42407637D01*
X121303719Y-42495879D01*
X121215477Y-42610877D01*
X121160010Y-42744790D01*
X121141089Y-42888499D01*
X113176718Y-42888499D01*
X113129861Y-42775375D01*
X113129861Y-42775374D01*
X113059736Y-42683987D01*
X113037050Y-42635339D01*
X113037050Y-42581661D01*
X113059736Y-42533013D01*
X113129861Y-42441625D01*
X113149432Y-42394375D01*
X113185330Y-42307709D01*
X113204250Y-42164000D01*
X113185330Y-42020291D01*
X113129861Y-41886375D01*
X113041621Y-41771379D01*
X112974011Y-41719500D01*
X119433249Y-41719500D01*
X119452170Y-41863209D01*
X119507637Y-41997122D01*
X119507638Y-41997124D01*
X119507639Y-41997125D01*
X119595879Y-42112121D01*
X119710875Y-42200361D01*
X119844791Y-42255830D01*
X119988500Y-42274750D01*
X120132209Y-42255830D01*
X120266125Y-42200361D01*
X120381121Y-42112121D01*
X120469361Y-41997125D01*
X120524830Y-41863209D01*
X120543750Y-41719500D01*
X120524830Y-41575791D01*
X120469361Y-41441875D01*
X120381121Y-41326879D01*
X120313511Y-41275000D01*
X131270749Y-41275000D01*
X131289670Y-41418709D01*
X131345137Y-41552622D01*
X131345138Y-41552624D01*
X131345139Y-41552625D01*
X131433379Y-41667621D01*
X131548375Y-41755861D01*
X131682291Y-41811330D01*
X131826000Y-41830250D01*
X131969709Y-41811330D01*
X132103625Y-41755861D01*
X132218621Y-41667621D01*
X132306861Y-41552625D01*
X132362330Y-41418709D01*
X132381250Y-41275000D01*
X132362330Y-41131291D01*
X132306861Y-40997375D01*
X132218621Y-40882379D01*
X132103625Y-40794139D01*
X132103624Y-40794138D01*
X132103622Y-40794137D01*
X131969709Y-40738670D01*
X131826000Y-40719749D01*
X131682290Y-40738670D01*
X131548377Y-40794137D01*
X131433379Y-40882379D01*
X131345137Y-40997377D01*
X131289670Y-41131290D01*
X131270749Y-41275000D01*
X120313511Y-41275000D01*
X120266125Y-41238639D01*
X120266124Y-41238638D01*
X120266122Y-41238637D01*
X120132209Y-41183170D01*
X119988500Y-41164249D01*
X119844790Y-41183170D01*
X119710877Y-41238637D01*
X119595879Y-41326879D01*
X119507637Y-41441877D01*
X119452170Y-41575790D01*
X119433249Y-41719500D01*
X112974011Y-41719500D01*
X112926625Y-41683139D01*
X112926624Y-41683138D01*
X112926622Y-41683137D01*
X112792709Y-41627670D01*
X112649000Y-41608749D01*
X112505290Y-41627670D01*
X112371377Y-41683137D01*
X112256379Y-41771379D01*
X112168137Y-41886377D01*
X112112670Y-42020290D01*
X112093749Y-42164000D01*
X112112670Y-42307709D01*
X112168138Y-42441624D01*
X112238264Y-42533014D01*
X112260949Y-42581661D01*
X112260949Y-42635339D01*
X112238264Y-42683986D01*
X112168138Y-42775375D01*
X112112670Y-42909290D01*
X112093749Y-43053000D01*
X112112670Y-43196709D01*
X112168138Y-43330625D01*
X112238263Y-43422012D01*
X112260949Y-43470660D01*
X112260949Y-43524337D01*
X112238264Y-43572985D01*
X112168138Y-43664375D01*
X112112670Y-43798290D01*
X112093749Y-43942000D01*
X112112670Y-44085709D01*
X112168138Y-44219624D01*
X112238264Y-44311014D01*
X112260949Y-44359661D01*
X112260949Y-44413339D01*
X112238264Y-44461986D01*
X112168138Y-44553375D01*
X112112670Y-44687290D01*
X112093749Y-44831000D01*
X112112670Y-44974709D01*
X112168138Y-45108625D01*
X112238263Y-45200012D01*
X112260949Y-45248660D01*
X112260949Y-45302337D01*
X112238264Y-45350985D01*
X112168138Y-45442375D01*
X112112670Y-45576290D01*
X112093749Y-45719999D01*
X103842563Y-45719999D01*
X103902536Y-45641841D01*
X103963044Y-45495762D01*
X103983682Y-45339000D01*
X103963044Y-45182238D01*
X103902536Y-45036159D01*
X103860691Y-44981625D01*
X103855557Y-44974934D01*
X103832316Y-44923639D01*
X103834158Y-44867354D01*
X103860705Y-44817688D01*
X103906481Y-44784887D01*
X103915757Y-44781044D01*
X103915762Y-44781044D01*
X104061841Y-44720536D01*
X104187282Y-44624282D01*
X104283536Y-44498841D01*
X104344044Y-44352762D01*
X104364682Y-44196000D01*
X104344044Y-44039238D01*
X104283536Y-43893159D01*
X104232829Y-43827077D01*
X104208268Y-43767778D01*
X104216646Y-43704140D01*
X104255721Y-43653217D01*
X104261355Y-43648894D01*
X104314282Y-43608282D01*
X104410536Y-43482841D01*
X104471044Y-43336762D01*
X104491682Y-43180000D01*
X104471044Y-43023238D01*
X104433191Y-42931854D01*
X104424019Y-42876293D01*
X104440366Y-42822403D01*
X104478862Y-42781301D01*
X104531567Y-42761464D01*
X104548280Y-42759264D01*
X104694359Y-42698756D01*
X104819800Y-42602502D01*
X104916054Y-42477061D01*
X104976562Y-42330982D01*
X104997200Y-42174220D01*
X104976562Y-42017458D01*
X104947782Y-41947977D01*
X104910665Y-41858367D01*
X104901344Y-41805506D01*
X104915237Y-41753658D01*
X104949738Y-41712540D01*
X105055697Y-41631236D01*
X105151951Y-41505795D01*
X105212459Y-41359716D01*
X105233097Y-41202954D01*
X105212459Y-41046192D01*
X105151951Y-40900113D01*
X105070635Y-40794139D01*
X105055697Y-40774671D01*
X104930255Y-40678417D01*
X104784177Y-40617910D01*
X104627415Y-40597271D01*
X104470652Y-40617910D01*
X104324574Y-40678417D01*
X104199132Y-40774671D01*
X104102878Y-40900113D01*
X104042371Y-41046191D01*
X104021732Y-41202954D01*
X104031218Y-41275000D01*
X104042371Y-41359716D01*
X104102879Y-41505794D01*
X104108268Y-41518805D01*
X104117589Y-41571667D01*
X104103696Y-41623515D01*
X104069193Y-41664634D01*
X103963235Y-41745937D01*
X103866981Y-41871379D01*
X103806474Y-42017457D01*
X103785835Y-42174219D01*
X103806474Y-42330982D01*
X103844325Y-42422364D01*
X103853499Y-42477926D01*
X103837152Y-42531814D01*
X103798657Y-42572917D01*
X103745954Y-42592755D01*
X103729237Y-42594956D01*
X103583159Y-42655463D01*
X103457717Y-42751717D01*
X103361463Y-42877159D01*
X103300956Y-43023237D01*
X103280317Y-43179999D01*
X103300956Y-43336762D01*
X103361462Y-43482838D01*
X103361463Y-43482840D01*
X103361464Y-43482841D01*
X103412168Y-43548921D01*
X103436731Y-43608220D01*
X103428353Y-43671858D01*
X103389279Y-43722781D01*
X103330718Y-43767716D01*
X103234463Y-43893159D01*
X103173956Y-44039237D01*
X103153317Y-44195999D01*
X103173956Y-44352762D01*
X103234463Y-44498840D01*
X103281442Y-44560065D01*
X103304683Y-44611360D01*
X103302841Y-44667645D01*
X103276294Y-44717310D01*
X103230519Y-44750112D01*
X103221238Y-44753955D01*
X103221238Y-44753956D01*
X103162540Y-44778269D01*
X103075158Y-44814464D01*
X102949717Y-44910717D01*
X102853463Y-45036159D01*
X102792956Y-45182237D01*
X102772317Y-45338999D01*
X102792956Y-45495762D01*
X102853463Y-45641840D01*
X102875803Y-45670954D01*
X102900367Y-45730255D01*
X102891989Y-45793894D01*
X102852914Y-45844817D01*
X102785400Y-45896621D01*
X102689146Y-46022063D01*
X102628639Y-46168141D01*
X102608000Y-46324903D01*
X94107500Y-46324903D01*
X94107500Y-39753871D01*
X94107566Y-39751000D01*
X96692551Y-39751000D01*
X96712317Y-40002149D01*
X96771126Y-40247110D01*
X96819330Y-40363485D01*
X96867534Y-40479859D01*
X96999164Y-40694659D01*
X97162776Y-40886224D01*
X97354341Y-41049836D01*
X97569141Y-41181466D01*
X97801889Y-41277873D01*
X98046852Y-41336683D01*
X98235118Y-41351500D01*
X98360879Y-41351500D01*
X98360882Y-41351500D01*
X98549148Y-41336683D01*
X98794111Y-41277873D01*
X99026859Y-41181466D01*
X99241659Y-41049836D01*
X99433224Y-40886224D01*
X99596836Y-40694659D01*
X99708157Y-40513000D01*
X122507749Y-40513000D01*
X122526670Y-40656709D01*
X122582137Y-40790622D01*
X122582138Y-40790624D01*
X122582139Y-40790625D01*
X122670379Y-40905621D01*
X122785375Y-40993861D01*
X122785376Y-40993861D01*
X122785377Y-40993862D01*
X122815715Y-41006428D01*
X122919291Y-41049330D01*
X123063000Y-41068250D01*
X123206709Y-41049330D01*
X123340625Y-40993861D01*
X123455621Y-40905621D01*
X123543861Y-40790625D01*
X123599330Y-40656709D01*
X123618250Y-40513000D01*
X123599330Y-40369291D01*
X123543861Y-40235375D01*
X123455621Y-40120379D01*
X123340625Y-40032139D01*
X123340624Y-40032138D01*
X123340622Y-40032137D01*
X123206709Y-39976670D01*
X123063000Y-39957749D01*
X122919290Y-39976670D01*
X122785377Y-40032137D01*
X122670379Y-40120379D01*
X122582137Y-40235377D01*
X122526670Y-40369290D01*
X122507749Y-40513000D01*
X99708157Y-40513000D01*
X99728466Y-40479859D01*
X99824873Y-40247111D01*
X99883683Y-40002148D01*
X99903449Y-39751000D01*
X99883683Y-39499852D01*
X99852508Y-39369999D01*
X110823749Y-39369999D01*
X110842670Y-39513709D01*
X110898137Y-39647622D01*
X110898138Y-39647624D01*
X110898139Y-39647625D01*
X110986379Y-39762621D01*
X111101375Y-39850861D01*
X111235291Y-39906330D01*
X111379000Y-39925250D01*
X111522709Y-39906330D01*
X111656625Y-39850861D01*
X111771621Y-39762621D01*
X111780538Y-39751000D01*
X134030551Y-39751000D01*
X134050317Y-40002149D01*
X134109126Y-40247110D01*
X134157330Y-40363485D01*
X134205534Y-40479859D01*
X134337164Y-40694659D01*
X134500776Y-40886224D01*
X134692341Y-41049836D01*
X134907141Y-41181466D01*
X135139889Y-41277873D01*
X135384852Y-41336683D01*
X135573118Y-41351500D01*
X135698879Y-41351500D01*
X135698882Y-41351500D01*
X135887148Y-41336683D01*
X136132111Y-41277873D01*
X136364859Y-41181466D01*
X136579659Y-41049836D01*
X136771224Y-40886224D01*
X136934836Y-40694659D01*
X137066466Y-40479859D01*
X137162873Y-40247111D01*
X137221683Y-40002148D01*
X137241449Y-39751000D01*
X137221683Y-39499852D01*
X137162873Y-39254889D01*
X137066466Y-39022141D01*
X136934836Y-38807341D01*
X136771224Y-38615776D01*
X136579659Y-38452164D01*
X136364859Y-38320534D01*
X136248484Y-38272330D01*
X136132110Y-38224126D01*
X135887149Y-38165317D01*
X135840081Y-38161612D01*
X135698882Y-38150500D01*
X135573118Y-38150500D01*
X135460158Y-38159390D01*
X135384850Y-38165317D01*
X135139889Y-38224126D01*
X134907139Y-38320535D01*
X134692342Y-38452163D01*
X134500776Y-38615776D01*
X134337163Y-38807342D01*
X134205535Y-39022139D01*
X134109126Y-39254889D01*
X134050317Y-39499850D01*
X134030551Y-39751000D01*
X111780538Y-39751000D01*
X111859861Y-39647625D01*
X111915330Y-39513709D01*
X111934250Y-39370000D01*
X111915330Y-39226291D01*
X111859861Y-39092375D01*
X111830544Y-39054168D01*
X123331581Y-39054168D01*
X123350502Y-39197877D01*
X123405969Y-39331790D01*
X123405970Y-39331792D01*
X123405971Y-39331793D01*
X123494211Y-39446789D01*
X123609207Y-39535029D01*
X123743123Y-39590498D01*
X123886832Y-39609418D01*
X124030541Y-39590498D01*
X124164457Y-39535029D01*
X124279453Y-39446789D01*
X124367693Y-39331793D01*
X124423162Y-39197877D01*
X124442082Y-39054168D01*
X124423162Y-38910459D01*
X124367693Y-38776543D01*
X124279453Y-38661547D01*
X124164457Y-38573307D01*
X124164456Y-38573306D01*
X124164454Y-38573305D01*
X124030541Y-38517838D01*
X123886832Y-38498917D01*
X123743122Y-38517838D01*
X123609209Y-38573305D01*
X123494211Y-38661547D01*
X123405969Y-38776545D01*
X123350502Y-38910458D01*
X123331581Y-39054168D01*
X111830544Y-39054168D01*
X111771621Y-38977379D01*
X111656625Y-38889139D01*
X111656624Y-38889138D01*
X111656622Y-38889137D01*
X111522709Y-38833670D01*
X111379000Y-38814749D01*
X111235290Y-38833670D01*
X111101377Y-38889137D01*
X110986379Y-38977379D01*
X110898137Y-39092377D01*
X110842670Y-39226290D01*
X110823749Y-39369999D01*
X99852508Y-39369999D01*
X99824873Y-39254889D01*
X99728466Y-39022141D01*
X99596836Y-38807341D01*
X99433224Y-38615776D01*
X99241659Y-38452164D01*
X99026859Y-38320534D01*
X98910484Y-38272330D01*
X98794110Y-38224126D01*
X98549149Y-38165317D01*
X98502081Y-38161612D01*
X98360882Y-38150500D01*
X98235118Y-38150500D01*
X98122158Y-38159390D01*
X98046850Y-38165317D01*
X97801889Y-38224126D01*
X97569139Y-38320535D01*
X97354342Y-38452163D01*
X97162776Y-38615776D01*
X96999163Y-38807342D01*
X96867535Y-39022139D01*
X96771126Y-39254889D01*
X96712317Y-39499850D01*
X96692551Y-39751000D01*
X94107566Y-39751000D01*
X94107632Y-39748145D01*
X94112279Y-39647622D01*
X94115489Y-39578198D01*
X94126060Y-39363012D01*
X94127094Y-39352025D01*
X94153329Y-39163959D01*
X94153468Y-39162995D01*
X94174362Y-39022139D01*
X94182462Y-38967531D01*
X94184406Y-38957377D01*
X94228688Y-38769103D01*
X94229039Y-38767658D01*
X94276236Y-38579234D01*
X94278925Y-38570037D01*
X94340841Y-38385303D01*
X94341597Y-38383120D01*
X94406535Y-38201631D01*
X94409817Y-38193410D01*
X94488796Y-38014540D01*
X94490049Y-38011796D01*
X94572148Y-37838213D01*
X94575886Y-37830944D01*
X94671235Y-37659760D01*
X94673133Y-37656476D01*
X94711778Y-37592000D01*
X102314749Y-37592000D01*
X102333670Y-37735709D01*
X102389137Y-37869622D01*
X102389138Y-37869624D01*
X102389139Y-37869625D01*
X102477379Y-37984621D01*
X102592375Y-38072861D01*
X102726291Y-38128330D01*
X102870000Y-38147250D01*
X103013709Y-38128330D01*
X103147625Y-38072861D01*
X103262621Y-37984621D01*
X103350861Y-37869625D01*
X103406330Y-37735709D01*
X103408530Y-37718999D01*
X108791749Y-37718999D01*
X108810670Y-37862709D01*
X108866137Y-37996622D01*
X108866138Y-37996624D01*
X108866139Y-37996625D01*
X108954379Y-38111621D01*
X109069375Y-38199861D01*
X109203291Y-38255330D01*
X109347000Y-38274250D01*
X109490709Y-38255330D01*
X109624625Y-38199861D01*
X109638129Y-38189499D01*
X118824749Y-38189499D01*
X118843670Y-38333209D01*
X118899137Y-38467122D01*
X118899138Y-38467124D01*
X118899139Y-38467125D01*
X118987379Y-38582121D01*
X119102375Y-38670361D01*
X119236291Y-38725830D01*
X119380000Y-38744750D01*
X119523709Y-38725830D01*
X119657625Y-38670361D01*
X119772621Y-38582121D01*
X119860861Y-38467125D01*
X119916330Y-38333209D01*
X119935250Y-38189500D01*
X119916330Y-38045791D01*
X119860861Y-37911875D01*
X119772621Y-37796879D01*
X119657625Y-37708639D01*
X119657624Y-37708638D01*
X119657622Y-37708637D01*
X119523709Y-37653170D01*
X119380000Y-37634249D01*
X119236290Y-37653170D01*
X119102377Y-37708637D01*
X118987379Y-37796879D01*
X118899137Y-37911877D01*
X118843670Y-38045790D01*
X118824749Y-38189499D01*
X109638129Y-38189499D01*
X109739621Y-38111621D01*
X109827861Y-37996625D01*
X109883330Y-37862709D01*
X109902250Y-37719000D01*
X109883330Y-37575291D01*
X109827861Y-37441375D01*
X109786137Y-37386999D01*
X127714749Y-37386999D01*
X127733670Y-37530709D01*
X127789137Y-37664622D01*
X127789138Y-37664624D01*
X127789139Y-37664625D01*
X127877379Y-37779621D01*
X127992375Y-37867861D01*
X127992376Y-37867861D01*
X127992377Y-37867862D01*
X128022715Y-37880428D01*
X128126291Y-37923330D01*
X128270000Y-37942250D01*
X128413709Y-37923330D01*
X128547625Y-37867861D01*
X128662621Y-37779621D01*
X128750861Y-37664625D01*
X128806330Y-37530709D01*
X128825250Y-37387000D01*
X128806330Y-37243291D01*
X128750861Y-37109375D01*
X128662621Y-36994379D01*
X128547625Y-36906139D01*
X128547624Y-36906138D01*
X128547622Y-36906137D01*
X128413709Y-36850670D01*
X128270000Y-36831749D01*
X128126290Y-36850670D01*
X127992377Y-36906137D01*
X127877379Y-36994379D01*
X127789137Y-37109377D01*
X127733670Y-37243290D01*
X127714749Y-37386999D01*
X109786137Y-37386999D01*
X109739621Y-37326379D01*
X109624625Y-37238139D01*
X109624624Y-37238138D01*
X109624622Y-37238137D01*
X109490709Y-37182670D01*
X109347000Y-37163749D01*
X109203290Y-37182670D01*
X109069377Y-37238137D01*
X108954379Y-37326379D01*
X108866137Y-37441377D01*
X108810670Y-37575290D01*
X108791749Y-37718999D01*
X103408530Y-37718999D01*
X103425250Y-37592000D01*
X103406330Y-37448291D01*
X103350861Y-37314375D01*
X103262621Y-37199379D01*
X103147625Y-37111139D01*
X103147624Y-37111138D01*
X103147622Y-37111137D01*
X103013709Y-37055670D01*
X102870000Y-37036749D01*
X102726290Y-37055670D01*
X102592377Y-37111137D01*
X102477379Y-37199379D01*
X102389137Y-37314377D01*
X102333670Y-37448290D01*
X102314749Y-37592000D01*
X94711778Y-37592000D01*
X94771613Y-37492172D01*
X94775602Y-37485955D01*
X94886498Y-37324067D01*
X94889122Y-37320384D01*
X95003059Y-37166758D01*
X95007224Y-37161454D01*
X95132660Y-37010396D01*
X95136093Y-37006440D01*
X95264469Y-36864798D01*
X95268588Y-36860472D01*
X95407472Y-36721588D01*
X95411798Y-36717469D01*
X95553440Y-36589093D01*
X95557396Y-36585660D01*
X95569029Y-36576000D01*
X100740317Y-36576000D01*
X100760956Y-36732762D01*
X100821463Y-36878840D01*
X100917717Y-37004282D01*
X100960031Y-37036750D01*
X101043159Y-37100536D01*
X101189238Y-37161044D01*
X101346000Y-37181682D01*
X101502762Y-37161044D01*
X101648841Y-37100536D01*
X101774282Y-37004282D01*
X101870536Y-36878841D01*
X101931044Y-36732762D01*
X101951682Y-36576000D01*
X101931044Y-36419238D01*
X101870536Y-36273159D01*
X101836372Y-36228635D01*
X101774282Y-36147717D01*
X101648840Y-36051463D01*
X101502762Y-35990956D01*
X101346000Y-35970317D01*
X101189237Y-35990956D01*
X101043159Y-36051463D01*
X100917717Y-36147717D01*
X100821463Y-36273159D01*
X100760956Y-36419237D01*
X100740317Y-36576000D01*
X95569029Y-36576000D01*
X95708454Y-36460224D01*
X95713758Y-36456059D01*
X95867384Y-36342122D01*
X95871067Y-36339498D01*
X96032955Y-36228602D01*
X96039172Y-36224613D01*
X96203476Y-36126133D01*
X96206760Y-36124235D01*
X96377944Y-36028886D01*
X96385213Y-36025148D01*
X96558796Y-35943049D01*
X96561540Y-35941796D01*
X96740410Y-35862817D01*
X96748631Y-35859535D01*
X96930120Y-35794597D01*
X96932303Y-35793841D01*
X97117037Y-35731925D01*
X97126234Y-35729236D01*
X97314658Y-35682039D01*
X97316103Y-35681688D01*
X97504377Y-35637406D01*
X97514531Y-35635462D01*
X97710067Y-35606457D01*
X97710943Y-35606331D01*
X97899025Y-35580094D01*
X97910012Y-35579060D01*
X98124976Y-35568499D01*
X98295144Y-35560632D01*
X98300871Y-35560500D01*
X135633129Y-35560500D01*
X135638855Y-35560632D01*
G37*
%TD.AperFunction*%
%TD*%
M02*
