%TF.GenerationSoftware,KiCad,Pcbnew,7.0.1*%
%TF.CreationDate,2024-01-06T20:51:44-05:00*%
%TF.ProjectId,Io-v2-Board,496f2d76-322d-4426-9f61-72642e6b6963,rev?*%
%TF.SameCoordinates,Original*%
%TF.FileFunction,Legend,Bot*%
%TF.FilePolarity,Positive*%
%FSLAX46Y46*%
G04 Gerber Fmt 4.6, Leading zero omitted, Abs format (unit mm)*
G04 Created by KiCad (PCBNEW 7.0.1) date 2024-01-06 20:51:44*
%MOMM*%
%LPD*%
G01*
G04 APERTURE LIST*
%ADD10C,0.150000*%
%ADD11C,0.120000*%
%ADD12C,0.127000*%
%ADD13C,0.200000*%
G04 APERTURE END LIST*
D10*
%TO.C,C1*%
X128309666Y-62343380D02*
X128357285Y-62391000D01*
X128357285Y-62391000D02*
X128500142Y-62438619D01*
X128500142Y-62438619D02*
X128595380Y-62438619D01*
X128595380Y-62438619D02*
X128738237Y-62391000D01*
X128738237Y-62391000D02*
X128833475Y-62295761D01*
X128833475Y-62295761D02*
X128881094Y-62200523D01*
X128881094Y-62200523D02*
X128928713Y-62010047D01*
X128928713Y-62010047D02*
X128928713Y-61867190D01*
X128928713Y-61867190D02*
X128881094Y-61676714D01*
X128881094Y-61676714D02*
X128833475Y-61581476D01*
X128833475Y-61581476D02*
X128738237Y-61486238D01*
X128738237Y-61486238D02*
X128595380Y-61438619D01*
X128595380Y-61438619D02*
X128500142Y-61438619D01*
X128500142Y-61438619D02*
X128357285Y-61486238D01*
X128357285Y-61486238D02*
X128309666Y-61533857D01*
X127357285Y-62438619D02*
X127928713Y-62438619D01*
X127642999Y-62438619D02*
X127642999Y-61438619D01*
X127642999Y-61438619D02*
X127738237Y-61581476D01*
X127738237Y-61581476D02*
X127833475Y-61676714D01*
X127833475Y-61676714D02*
X127928713Y-61724333D01*
%TO.C,U3*%
X104844904Y-40737618D02*
X104844904Y-41547141D01*
X104844904Y-41547141D02*
X104797285Y-41642379D01*
X104797285Y-41642379D02*
X104749666Y-41689999D01*
X104749666Y-41689999D02*
X104654428Y-41737618D01*
X104654428Y-41737618D02*
X104463952Y-41737618D01*
X104463952Y-41737618D02*
X104368714Y-41689999D01*
X104368714Y-41689999D02*
X104321095Y-41642379D01*
X104321095Y-41642379D02*
X104273476Y-41547141D01*
X104273476Y-41547141D02*
X104273476Y-40737618D01*
X103892523Y-40737618D02*
X103273476Y-40737618D01*
X103273476Y-40737618D02*
X103606809Y-41118570D01*
X103606809Y-41118570D02*
X103463952Y-41118570D01*
X103463952Y-41118570D02*
X103368714Y-41166189D01*
X103368714Y-41166189D02*
X103321095Y-41213808D01*
X103321095Y-41213808D02*
X103273476Y-41309046D01*
X103273476Y-41309046D02*
X103273476Y-41547141D01*
X103273476Y-41547141D02*
X103321095Y-41642379D01*
X103321095Y-41642379D02*
X103368714Y-41689999D01*
X103368714Y-41689999D02*
X103463952Y-41737618D01*
X103463952Y-41737618D02*
X103749666Y-41737618D01*
X103749666Y-41737618D02*
X103844904Y-41689999D01*
X103844904Y-41689999D02*
X103892523Y-41642379D01*
%TO.C,R25*%
X124467857Y-37519619D02*
X124801190Y-37043428D01*
X125039285Y-37519619D02*
X125039285Y-36519619D01*
X125039285Y-36519619D02*
X124658333Y-36519619D01*
X124658333Y-36519619D02*
X124563095Y-36567238D01*
X124563095Y-36567238D02*
X124515476Y-36614857D01*
X124515476Y-36614857D02*
X124467857Y-36710095D01*
X124467857Y-36710095D02*
X124467857Y-36852952D01*
X124467857Y-36852952D02*
X124515476Y-36948190D01*
X124515476Y-36948190D02*
X124563095Y-36995809D01*
X124563095Y-36995809D02*
X124658333Y-37043428D01*
X124658333Y-37043428D02*
X125039285Y-37043428D01*
X124086904Y-36614857D02*
X124039285Y-36567238D01*
X124039285Y-36567238D02*
X123944047Y-36519619D01*
X123944047Y-36519619D02*
X123705952Y-36519619D01*
X123705952Y-36519619D02*
X123610714Y-36567238D01*
X123610714Y-36567238D02*
X123563095Y-36614857D01*
X123563095Y-36614857D02*
X123515476Y-36710095D01*
X123515476Y-36710095D02*
X123515476Y-36805333D01*
X123515476Y-36805333D02*
X123563095Y-36948190D01*
X123563095Y-36948190D02*
X124134523Y-37519619D01*
X124134523Y-37519619D02*
X123515476Y-37519619D01*
X122610714Y-36519619D02*
X123086904Y-36519619D01*
X123086904Y-36519619D02*
X123134523Y-36995809D01*
X123134523Y-36995809D02*
X123086904Y-36948190D01*
X123086904Y-36948190D02*
X122991666Y-36900571D01*
X122991666Y-36900571D02*
X122753571Y-36900571D01*
X122753571Y-36900571D02*
X122658333Y-36948190D01*
X122658333Y-36948190D02*
X122610714Y-36995809D01*
X122610714Y-36995809D02*
X122563095Y-37091047D01*
X122563095Y-37091047D02*
X122563095Y-37329142D01*
X122563095Y-37329142D02*
X122610714Y-37424380D01*
X122610714Y-37424380D02*
X122658333Y-37472000D01*
X122658333Y-37472000D02*
X122753571Y-37519619D01*
X122753571Y-37519619D02*
X122991666Y-37519619D01*
X122991666Y-37519619D02*
X123086904Y-37472000D01*
X123086904Y-37472000D02*
X123134523Y-37424380D01*
%TO.C,R24*%
X127896857Y-38281619D02*
X128230190Y-37805428D01*
X128468285Y-38281619D02*
X128468285Y-37281619D01*
X128468285Y-37281619D02*
X128087333Y-37281619D01*
X128087333Y-37281619D02*
X127992095Y-37329238D01*
X127992095Y-37329238D02*
X127944476Y-37376857D01*
X127944476Y-37376857D02*
X127896857Y-37472095D01*
X127896857Y-37472095D02*
X127896857Y-37614952D01*
X127896857Y-37614952D02*
X127944476Y-37710190D01*
X127944476Y-37710190D02*
X127992095Y-37757809D01*
X127992095Y-37757809D02*
X128087333Y-37805428D01*
X128087333Y-37805428D02*
X128468285Y-37805428D01*
X127515904Y-37376857D02*
X127468285Y-37329238D01*
X127468285Y-37329238D02*
X127373047Y-37281619D01*
X127373047Y-37281619D02*
X127134952Y-37281619D01*
X127134952Y-37281619D02*
X127039714Y-37329238D01*
X127039714Y-37329238D02*
X126992095Y-37376857D01*
X126992095Y-37376857D02*
X126944476Y-37472095D01*
X126944476Y-37472095D02*
X126944476Y-37567333D01*
X126944476Y-37567333D02*
X126992095Y-37710190D01*
X126992095Y-37710190D02*
X127563523Y-38281619D01*
X127563523Y-38281619D02*
X126944476Y-38281619D01*
X126087333Y-37614952D02*
X126087333Y-38281619D01*
X126325428Y-37234000D02*
X126563523Y-37948285D01*
X126563523Y-37948285D02*
X125944476Y-37948285D01*
%TO.C,R21*%
X118244857Y-37927619D02*
X118578190Y-37451428D01*
X118816285Y-37927619D02*
X118816285Y-36927619D01*
X118816285Y-36927619D02*
X118435333Y-36927619D01*
X118435333Y-36927619D02*
X118340095Y-36975238D01*
X118340095Y-36975238D02*
X118292476Y-37022857D01*
X118292476Y-37022857D02*
X118244857Y-37118095D01*
X118244857Y-37118095D02*
X118244857Y-37260952D01*
X118244857Y-37260952D02*
X118292476Y-37356190D01*
X118292476Y-37356190D02*
X118340095Y-37403809D01*
X118340095Y-37403809D02*
X118435333Y-37451428D01*
X118435333Y-37451428D02*
X118816285Y-37451428D01*
X117863904Y-37022857D02*
X117816285Y-36975238D01*
X117816285Y-36975238D02*
X117721047Y-36927619D01*
X117721047Y-36927619D02*
X117482952Y-36927619D01*
X117482952Y-36927619D02*
X117387714Y-36975238D01*
X117387714Y-36975238D02*
X117340095Y-37022857D01*
X117340095Y-37022857D02*
X117292476Y-37118095D01*
X117292476Y-37118095D02*
X117292476Y-37213333D01*
X117292476Y-37213333D02*
X117340095Y-37356190D01*
X117340095Y-37356190D02*
X117911523Y-37927619D01*
X117911523Y-37927619D02*
X117292476Y-37927619D01*
X116340095Y-37927619D02*
X116911523Y-37927619D01*
X116625809Y-37927619D02*
X116625809Y-36927619D01*
X116625809Y-36927619D02*
X116721047Y-37070476D01*
X116721047Y-37070476D02*
X116816285Y-37165714D01*
X116816285Y-37165714D02*
X116911523Y-37213333D01*
%TO.C,D1*%
X127865094Y-50579619D02*
X127865094Y-49579619D01*
X127865094Y-49579619D02*
X127626999Y-49579619D01*
X127626999Y-49579619D02*
X127484142Y-49627238D01*
X127484142Y-49627238D02*
X127388904Y-49722476D01*
X127388904Y-49722476D02*
X127341285Y-49817714D01*
X127341285Y-49817714D02*
X127293666Y-50008190D01*
X127293666Y-50008190D02*
X127293666Y-50151047D01*
X127293666Y-50151047D02*
X127341285Y-50341523D01*
X127341285Y-50341523D02*
X127388904Y-50436761D01*
X127388904Y-50436761D02*
X127484142Y-50532000D01*
X127484142Y-50532000D02*
X127626999Y-50579619D01*
X127626999Y-50579619D02*
X127865094Y-50579619D01*
X126341285Y-50579619D02*
X126912713Y-50579619D01*
X126626999Y-50579619D02*
X126626999Y-49579619D01*
X126626999Y-49579619D02*
X126722237Y-49722476D01*
X126722237Y-49722476D02*
X126817475Y-49817714D01*
X126817475Y-49817714D02*
X126912713Y-49865333D01*
%TO.C,D4*%
X133199094Y-42372619D02*
X133199094Y-41372619D01*
X133199094Y-41372619D02*
X132960999Y-41372619D01*
X132960999Y-41372619D02*
X132818142Y-41420238D01*
X132818142Y-41420238D02*
X132722904Y-41515476D01*
X132722904Y-41515476D02*
X132675285Y-41610714D01*
X132675285Y-41610714D02*
X132627666Y-41801190D01*
X132627666Y-41801190D02*
X132627666Y-41944047D01*
X132627666Y-41944047D02*
X132675285Y-42134523D01*
X132675285Y-42134523D02*
X132722904Y-42229761D01*
X132722904Y-42229761D02*
X132818142Y-42325000D01*
X132818142Y-42325000D02*
X132960999Y-42372619D01*
X132960999Y-42372619D02*
X133199094Y-42372619D01*
X131770523Y-41705952D02*
X131770523Y-42372619D01*
X132008618Y-41325000D02*
X132246713Y-42039285D01*
X132246713Y-42039285D02*
X131627666Y-42039285D01*
%TO.C,Q6*%
X113379238Y-123366857D02*
X113474476Y-123319238D01*
X113474476Y-123319238D02*
X113569714Y-123224000D01*
X113569714Y-123224000D02*
X113712571Y-123081142D01*
X113712571Y-123081142D02*
X113807809Y-123033523D01*
X113807809Y-123033523D02*
X113903047Y-123033523D01*
X113855428Y-123271619D02*
X113950666Y-123224000D01*
X113950666Y-123224000D02*
X114045904Y-123128761D01*
X114045904Y-123128761D02*
X114093523Y-122938285D01*
X114093523Y-122938285D02*
X114093523Y-122604952D01*
X114093523Y-122604952D02*
X114045904Y-122414476D01*
X114045904Y-122414476D02*
X113950666Y-122319238D01*
X113950666Y-122319238D02*
X113855428Y-122271619D01*
X113855428Y-122271619D02*
X113664952Y-122271619D01*
X113664952Y-122271619D02*
X113569714Y-122319238D01*
X113569714Y-122319238D02*
X113474476Y-122414476D01*
X113474476Y-122414476D02*
X113426857Y-122604952D01*
X113426857Y-122604952D02*
X113426857Y-122938285D01*
X113426857Y-122938285D02*
X113474476Y-123128761D01*
X113474476Y-123128761D02*
X113569714Y-123224000D01*
X113569714Y-123224000D02*
X113664952Y-123271619D01*
X113664952Y-123271619D02*
X113855428Y-123271619D01*
X112569714Y-122271619D02*
X112760190Y-122271619D01*
X112760190Y-122271619D02*
X112855428Y-122319238D01*
X112855428Y-122319238D02*
X112903047Y-122366857D01*
X112903047Y-122366857D02*
X112998285Y-122509714D01*
X112998285Y-122509714D02*
X113045904Y-122700190D01*
X113045904Y-122700190D02*
X113045904Y-123081142D01*
X113045904Y-123081142D02*
X112998285Y-123176380D01*
X112998285Y-123176380D02*
X112950666Y-123224000D01*
X112950666Y-123224000D02*
X112855428Y-123271619D01*
X112855428Y-123271619D02*
X112664952Y-123271619D01*
X112664952Y-123271619D02*
X112569714Y-123224000D01*
X112569714Y-123224000D02*
X112522095Y-123176380D01*
X112522095Y-123176380D02*
X112474476Y-123081142D01*
X112474476Y-123081142D02*
X112474476Y-122843047D01*
X112474476Y-122843047D02*
X112522095Y-122747809D01*
X112522095Y-122747809D02*
X112569714Y-122700190D01*
X112569714Y-122700190D02*
X112664952Y-122652571D01*
X112664952Y-122652571D02*
X112855428Y-122652571D01*
X112855428Y-122652571D02*
X112950666Y-122700190D01*
X112950666Y-122700190D02*
X112998285Y-122747809D01*
X112998285Y-122747809D02*
X113045904Y-122843047D01*
%TO.C,R13*%
X104909857Y-113746619D02*
X105243190Y-113270428D01*
X105481285Y-113746619D02*
X105481285Y-112746619D01*
X105481285Y-112746619D02*
X105100333Y-112746619D01*
X105100333Y-112746619D02*
X105005095Y-112794238D01*
X105005095Y-112794238D02*
X104957476Y-112841857D01*
X104957476Y-112841857D02*
X104909857Y-112937095D01*
X104909857Y-112937095D02*
X104909857Y-113079952D01*
X104909857Y-113079952D02*
X104957476Y-113175190D01*
X104957476Y-113175190D02*
X105005095Y-113222809D01*
X105005095Y-113222809D02*
X105100333Y-113270428D01*
X105100333Y-113270428D02*
X105481285Y-113270428D01*
X103957476Y-113746619D02*
X104528904Y-113746619D01*
X104243190Y-113746619D02*
X104243190Y-112746619D01*
X104243190Y-112746619D02*
X104338428Y-112889476D01*
X104338428Y-112889476D02*
X104433666Y-112984714D01*
X104433666Y-112984714D02*
X104528904Y-113032333D01*
X103624142Y-112746619D02*
X103005095Y-112746619D01*
X103005095Y-112746619D02*
X103338428Y-113127571D01*
X103338428Y-113127571D02*
X103195571Y-113127571D01*
X103195571Y-113127571D02*
X103100333Y-113175190D01*
X103100333Y-113175190D02*
X103052714Y-113222809D01*
X103052714Y-113222809D02*
X103005095Y-113318047D01*
X103005095Y-113318047D02*
X103005095Y-113556142D01*
X103005095Y-113556142D02*
X103052714Y-113651380D01*
X103052714Y-113651380D02*
X103100333Y-113699000D01*
X103100333Y-113699000D02*
X103195571Y-113746619D01*
X103195571Y-113746619D02*
X103481285Y-113746619D01*
X103481285Y-113746619D02*
X103576523Y-113699000D01*
X103576523Y-113699000D02*
X103624142Y-113651380D01*
%TO.C,C3*%
X113524380Y-72030333D02*
X113572000Y-71982714D01*
X113572000Y-71982714D02*
X113619619Y-71839857D01*
X113619619Y-71839857D02*
X113619619Y-71744619D01*
X113619619Y-71744619D02*
X113572000Y-71601762D01*
X113572000Y-71601762D02*
X113476761Y-71506524D01*
X113476761Y-71506524D02*
X113381523Y-71458905D01*
X113381523Y-71458905D02*
X113191047Y-71411286D01*
X113191047Y-71411286D02*
X113048190Y-71411286D01*
X113048190Y-71411286D02*
X112857714Y-71458905D01*
X112857714Y-71458905D02*
X112762476Y-71506524D01*
X112762476Y-71506524D02*
X112667238Y-71601762D01*
X112667238Y-71601762D02*
X112619619Y-71744619D01*
X112619619Y-71744619D02*
X112619619Y-71839857D01*
X112619619Y-71839857D02*
X112667238Y-71982714D01*
X112667238Y-71982714D02*
X112714857Y-72030333D01*
X112619619Y-72363667D02*
X112619619Y-72982714D01*
X112619619Y-72982714D02*
X113000571Y-72649381D01*
X113000571Y-72649381D02*
X113000571Y-72792238D01*
X113000571Y-72792238D02*
X113048190Y-72887476D01*
X113048190Y-72887476D02*
X113095809Y-72935095D01*
X113095809Y-72935095D02*
X113191047Y-72982714D01*
X113191047Y-72982714D02*
X113429142Y-72982714D01*
X113429142Y-72982714D02*
X113524380Y-72935095D01*
X113524380Y-72935095D02*
X113572000Y-72887476D01*
X113572000Y-72887476D02*
X113619619Y-72792238D01*
X113619619Y-72792238D02*
X113619619Y-72506524D01*
X113619619Y-72506524D02*
X113572000Y-72411286D01*
X113572000Y-72411286D02*
X113524380Y-72363667D01*
%TO.C,C11*%
X128912857Y-88124380D02*
X128960476Y-88172000D01*
X128960476Y-88172000D02*
X129103333Y-88219619D01*
X129103333Y-88219619D02*
X129198571Y-88219619D01*
X129198571Y-88219619D02*
X129341428Y-88172000D01*
X129341428Y-88172000D02*
X129436666Y-88076761D01*
X129436666Y-88076761D02*
X129484285Y-87981523D01*
X129484285Y-87981523D02*
X129531904Y-87791047D01*
X129531904Y-87791047D02*
X129531904Y-87648190D01*
X129531904Y-87648190D02*
X129484285Y-87457714D01*
X129484285Y-87457714D02*
X129436666Y-87362476D01*
X129436666Y-87362476D02*
X129341428Y-87267238D01*
X129341428Y-87267238D02*
X129198571Y-87219619D01*
X129198571Y-87219619D02*
X129103333Y-87219619D01*
X129103333Y-87219619D02*
X128960476Y-87267238D01*
X128960476Y-87267238D02*
X128912857Y-87314857D01*
X127960476Y-88219619D02*
X128531904Y-88219619D01*
X128246190Y-88219619D02*
X128246190Y-87219619D01*
X128246190Y-87219619D02*
X128341428Y-87362476D01*
X128341428Y-87362476D02*
X128436666Y-87457714D01*
X128436666Y-87457714D02*
X128531904Y-87505333D01*
X127008095Y-88219619D02*
X127579523Y-88219619D01*
X127293809Y-88219619D02*
X127293809Y-87219619D01*
X127293809Y-87219619D02*
X127389047Y-87362476D01*
X127389047Y-87362476D02*
X127484285Y-87457714D01*
X127484285Y-87457714D02*
X127579523Y-87505333D01*
%TO.C,C21*%
X108973857Y-66308380D02*
X109021476Y-66356000D01*
X109021476Y-66356000D02*
X109164333Y-66403619D01*
X109164333Y-66403619D02*
X109259571Y-66403619D01*
X109259571Y-66403619D02*
X109402428Y-66356000D01*
X109402428Y-66356000D02*
X109497666Y-66260761D01*
X109497666Y-66260761D02*
X109545285Y-66165523D01*
X109545285Y-66165523D02*
X109592904Y-65975047D01*
X109592904Y-65975047D02*
X109592904Y-65832190D01*
X109592904Y-65832190D02*
X109545285Y-65641714D01*
X109545285Y-65641714D02*
X109497666Y-65546476D01*
X109497666Y-65546476D02*
X109402428Y-65451238D01*
X109402428Y-65451238D02*
X109259571Y-65403619D01*
X109259571Y-65403619D02*
X109164333Y-65403619D01*
X109164333Y-65403619D02*
X109021476Y-65451238D01*
X109021476Y-65451238D02*
X108973857Y-65498857D01*
X108592904Y-65498857D02*
X108545285Y-65451238D01*
X108545285Y-65451238D02*
X108450047Y-65403619D01*
X108450047Y-65403619D02*
X108211952Y-65403619D01*
X108211952Y-65403619D02*
X108116714Y-65451238D01*
X108116714Y-65451238D02*
X108069095Y-65498857D01*
X108069095Y-65498857D02*
X108021476Y-65594095D01*
X108021476Y-65594095D02*
X108021476Y-65689333D01*
X108021476Y-65689333D02*
X108069095Y-65832190D01*
X108069095Y-65832190D02*
X108640523Y-66403619D01*
X108640523Y-66403619D02*
X108021476Y-66403619D01*
X107069095Y-66403619D02*
X107640523Y-66403619D01*
X107354809Y-66403619D02*
X107354809Y-65403619D01*
X107354809Y-65403619D02*
X107450047Y-65546476D01*
X107450047Y-65546476D02*
X107545285Y-65641714D01*
X107545285Y-65641714D02*
X107640523Y-65689333D01*
%TO.C,R16*%
X129674857Y-97871619D02*
X130008190Y-97395428D01*
X130246285Y-97871619D02*
X130246285Y-96871619D01*
X130246285Y-96871619D02*
X129865333Y-96871619D01*
X129865333Y-96871619D02*
X129770095Y-96919238D01*
X129770095Y-96919238D02*
X129722476Y-96966857D01*
X129722476Y-96966857D02*
X129674857Y-97062095D01*
X129674857Y-97062095D02*
X129674857Y-97204952D01*
X129674857Y-97204952D02*
X129722476Y-97300190D01*
X129722476Y-97300190D02*
X129770095Y-97347809D01*
X129770095Y-97347809D02*
X129865333Y-97395428D01*
X129865333Y-97395428D02*
X130246285Y-97395428D01*
X128722476Y-97871619D02*
X129293904Y-97871619D01*
X129008190Y-97871619D02*
X129008190Y-96871619D01*
X129008190Y-96871619D02*
X129103428Y-97014476D01*
X129103428Y-97014476D02*
X129198666Y-97109714D01*
X129198666Y-97109714D02*
X129293904Y-97157333D01*
X127865333Y-96871619D02*
X128055809Y-96871619D01*
X128055809Y-96871619D02*
X128151047Y-96919238D01*
X128151047Y-96919238D02*
X128198666Y-96966857D01*
X128198666Y-96966857D02*
X128293904Y-97109714D01*
X128293904Y-97109714D02*
X128341523Y-97300190D01*
X128341523Y-97300190D02*
X128341523Y-97681142D01*
X128341523Y-97681142D02*
X128293904Y-97776380D01*
X128293904Y-97776380D02*
X128246285Y-97824000D01*
X128246285Y-97824000D02*
X128151047Y-97871619D01*
X128151047Y-97871619D02*
X127960571Y-97871619D01*
X127960571Y-97871619D02*
X127865333Y-97824000D01*
X127865333Y-97824000D02*
X127817714Y-97776380D01*
X127817714Y-97776380D02*
X127770095Y-97681142D01*
X127770095Y-97681142D02*
X127770095Y-97443047D01*
X127770095Y-97443047D02*
X127817714Y-97347809D01*
X127817714Y-97347809D02*
X127865333Y-97300190D01*
X127865333Y-97300190D02*
X127960571Y-97252571D01*
X127960571Y-97252571D02*
X128151047Y-97252571D01*
X128151047Y-97252571D02*
X128246285Y-97300190D01*
X128246285Y-97300190D02*
X128293904Y-97347809D01*
X128293904Y-97347809D02*
X128341523Y-97443047D01*
%TO.C,C7*%
X119673666Y-49262380D02*
X119721285Y-49310000D01*
X119721285Y-49310000D02*
X119864142Y-49357619D01*
X119864142Y-49357619D02*
X119959380Y-49357619D01*
X119959380Y-49357619D02*
X120102237Y-49310000D01*
X120102237Y-49310000D02*
X120197475Y-49214761D01*
X120197475Y-49214761D02*
X120245094Y-49119523D01*
X120245094Y-49119523D02*
X120292713Y-48929047D01*
X120292713Y-48929047D02*
X120292713Y-48786190D01*
X120292713Y-48786190D02*
X120245094Y-48595714D01*
X120245094Y-48595714D02*
X120197475Y-48500476D01*
X120197475Y-48500476D02*
X120102237Y-48405238D01*
X120102237Y-48405238D02*
X119959380Y-48357619D01*
X119959380Y-48357619D02*
X119864142Y-48357619D01*
X119864142Y-48357619D02*
X119721285Y-48405238D01*
X119721285Y-48405238D02*
X119673666Y-48452857D01*
X119340332Y-48357619D02*
X118673666Y-48357619D01*
X118673666Y-48357619D02*
X119102237Y-49357619D01*
%TO.C,R1*%
X104941666Y-96728619D02*
X105274999Y-96252428D01*
X105513094Y-96728619D02*
X105513094Y-95728619D01*
X105513094Y-95728619D02*
X105132142Y-95728619D01*
X105132142Y-95728619D02*
X105036904Y-95776238D01*
X105036904Y-95776238D02*
X104989285Y-95823857D01*
X104989285Y-95823857D02*
X104941666Y-95919095D01*
X104941666Y-95919095D02*
X104941666Y-96061952D01*
X104941666Y-96061952D02*
X104989285Y-96157190D01*
X104989285Y-96157190D02*
X105036904Y-96204809D01*
X105036904Y-96204809D02*
X105132142Y-96252428D01*
X105132142Y-96252428D02*
X105513094Y-96252428D01*
X103989285Y-96728619D02*
X104560713Y-96728619D01*
X104274999Y-96728619D02*
X104274999Y-95728619D01*
X104274999Y-95728619D02*
X104370237Y-95871476D01*
X104370237Y-95871476D02*
X104465475Y-95966714D01*
X104465475Y-95966714D02*
X104560713Y-96014333D01*
%TO.C,R9*%
X130087666Y-114508619D02*
X130420999Y-114032428D01*
X130659094Y-114508619D02*
X130659094Y-113508619D01*
X130659094Y-113508619D02*
X130278142Y-113508619D01*
X130278142Y-113508619D02*
X130182904Y-113556238D01*
X130182904Y-113556238D02*
X130135285Y-113603857D01*
X130135285Y-113603857D02*
X130087666Y-113699095D01*
X130087666Y-113699095D02*
X130087666Y-113841952D01*
X130087666Y-113841952D02*
X130135285Y-113937190D01*
X130135285Y-113937190D02*
X130182904Y-113984809D01*
X130182904Y-113984809D02*
X130278142Y-114032428D01*
X130278142Y-114032428D02*
X130659094Y-114032428D01*
X129611475Y-114508619D02*
X129420999Y-114508619D01*
X129420999Y-114508619D02*
X129325761Y-114461000D01*
X129325761Y-114461000D02*
X129278142Y-114413380D01*
X129278142Y-114413380D02*
X129182904Y-114270523D01*
X129182904Y-114270523D02*
X129135285Y-114080047D01*
X129135285Y-114080047D02*
X129135285Y-113699095D01*
X129135285Y-113699095D02*
X129182904Y-113603857D01*
X129182904Y-113603857D02*
X129230523Y-113556238D01*
X129230523Y-113556238D02*
X129325761Y-113508619D01*
X129325761Y-113508619D02*
X129516237Y-113508619D01*
X129516237Y-113508619D02*
X129611475Y-113556238D01*
X129611475Y-113556238D02*
X129659094Y-113603857D01*
X129659094Y-113603857D02*
X129706713Y-113699095D01*
X129706713Y-113699095D02*
X129706713Y-113937190D01*
X129706713Y-113937190D02*
X129659094Y-114032428D01*
X129659094Y-114032428D02*
X129611475Y-114080047D01*
X129611475Y-114080047D02*
X129516237Y-114127666D01*
X129516237Y-114127666D02*
X129325761Y-114127666D01*
X129325761Y-114127666D02*
X129230523Y-114080047D01*
X129230523Y-114080047D02*
X129182904Y-114032428D01*
X129182904Y-114032428D02*
X129135285Y-113937190D01*
%TO.C,R8*%
X104052666Y-103332619D02*
X104385999Y-102856428D01*
X104624094Y-103332619D02*
X104624094Y-102332619D01*
X104624094Y-102332619D02*
X104243142Y-102332619D01*
X104243142Y-102332619D02*
X104147904Y-102380238D01*
X104147904Y-102380238D02*
X104100285Y-102427857D01*
X104100285Y-102427857D02*
X104052666Y-102523095D01*
X104052666Y-102523095D02*
X104052666Y-102665952D01*
X104052666Y-102665952D02*
X104100285Y-102761190D01*
X104100285Y-102761190D02*
X104147904Y-102808809D01*
X104147904Y-102808809D02*
X104243142Y-102856428D01*
X104243142Y-102856428D02*
X104624094Y-102856428D01*
X103481237Y-102761190D02*
X103576475Y-102713571D01*
X103576475Y-102713571D02*
X103624094Y-102665952D01*
X103624094Y-102665952D02*
X103671713Y-102570714D01*
X103671713Y-102570714D02*
X103671713Y-102523095D01*
X103671713Y-102523095D02*
X103624094Y-102427857D01*
X103624094Y-102427857D02*
X103576475Y-102380238D01*
X103576475Y-102380238D02*
X103481237Y-102332619D01*
X103481237Y-102332619D02*
X103290761Y-102332619D01*
X103290761Y-102332619D02*
X103195523Y-102380238D01*
X103195523Y-102380238D02*
X103147904Y-102427857D01*
X103147904Y-102427857D02*
X103100285Y-102523095D01*
X103100285Y-102523095D02*
X103100285Y-102570714D01*
X103100285Y-102570714D02*
X103147904Y-102665952D01*
X103147904Y-102665952D02*
X103195523Y-102713571D01*
X103195523Y-102713571D02*
X103290761Y-102761190D01*
X103290761Y-102761190D02*
X103481237Y-102761190D01*
X103481237Y-102761190D02*
X103576475Y-102808809D01*
X103576475Y-102808809D02*
X103624094Y-102856428D01*
X103624094Y-102856428D02*
X103671713Y-102951666D01*
X103671713Y-102951666D02*
X103671713Y-103142142D01*
X103671713Y-103142142D02*
X103624094Y-103237380D01*
X103624094Y-103237380D02*
X103576475Y-103285000D01*
X103576475Y-103285000D02*
X103481237Y-103332619D01*
X103481237Y-103332619D02*
X103290761Y-103332619D01*
X103290761Y-103332619D02*
X103195523Y-103285000D01*
X103195523Y-103285000D02*
X103147904Y-103237380D01*
X103147904Y-103237380D02*
X103100285Y-103142142D01*
X103100285Y-103142142D02*
X103100285Y-102951666D01*
X103100285Y-102951666D02*
X103147904Y-102856428D01*
X103147904Y-102856428D02*
X103195523Y-102808809D01*
X103195523Y-102808809D02*
X103290761Y-102761190D01*
%TO.C,R11*%
X99368619Y-65651142D02*
X98892428Y-65317809D01*
X99368619Y-65079714D02*
X98368619Y-65079714D01*
X98368619Y-65079714D02*
X98368619Y-65460666D01*
X98368619Y-65460666D02*
X98416238Y-65555904D01*
X98416238Y-65555904D02*
X98463857Y-65603523D01*
X98463857Y-65603523D02*
X98559095Y-65651142D01*
X98559095Y-65651142D02*
X98701952Y-65651142D01*
X98701952Y-65651142D02*
X98797190Y-65603523D01*
X98797190Y-65603523D02*
X98844809Y-65555904D01*
X98844809Y-65555904D02*
X98892428Y-65460666D01*
X98892428Y-65460666D02*
X98892428Y-65079714D01*
X99368619Y-66603523D02*
X99368619Y-66032095D01*
X99368619Y-66317809D02*
X98368619Y-66317809D01*
X98368619Y-66317809D02*
X98511476Y-66222571D01*
X98511476Y-66222571D02*
X98606714Y-66127333D01*
X98606714Y-66127333D02*
X98654333Y-66032095D01*
X99368619Y-67555904D02*
X99368619Y-66984476D01*
X99368619Y-67270190D02*
X98368619Y-67270190D01*
X98368619Y-67270190D02*
X98511476Y-67174952D01*
X98511476Y-67174952D02*
X98606714Y-67079714D01*
X98606714Y-67079714D02*
X98654333Y-66984476D01*
%TO.C,C10*%
X114053857Y-50659380D02*
X114101476Y-50707000D01*
X114101476Y-50707000D02*
X114244333Y-50754619D01*
X114244333Y-50754619D02*
X114339571Y-50754619D01*
X114339571Y-50754619D02*
X114482428Y-50707000D01*
X114482428Y-50707000D02*
X114577666Y-50611761D01*
X114577666Y-50611761D02*
X114625285Y-50516523D01*
X114625285Y-50516523D02*
X114672904Y-50326047D01*
X114672904Y-50326047D02*
X114672904Y-50183190D01*
X114672904Y-50183190D02*
X114625285Y-49992714D01*
X114625285Y-49992714D02*
X114577666Y-49897476D01*
X114577666Y-49897476D02*
X114482428Y-49802238D01*
X114482428Y-49802238D02*
X114339571Y-49754619D01*
X114339571Y-49754619D02*
X114244333Y-49754619D01*
X114244333Y-49754619D02*
X114101476Y-49802238D01*
X114101476Y-49802238D02*
X114053857Y-49849857D01*
X113101476Y-50754619D02*
X113672904Y-50754619D01*
X113387190Y-50754619D02*
X113387190Y-49754619D01*
X113387190Y-49754619D02*
X113482428Y-49897476D01*
X113482428Y-49897476D02*
X113577666Y-49992714D01*
X113577666Y-49992714D02*
X113672904Y-50040333D01*
X112482428Y-49754619D02*
X112387190Y-49754619D01*
X112387190Y-49754619D02*
X112291952Y-49802238D01*
X112291952Y-49802238D02*
X112244333Y-49849857D01*
X112244333Y-49849857D02*
X112196714Y-49945095D01*
X112196714Y-49945095D02*
X112149095Y-50135571D01*
X112149095Y-50135571D02*
X112149095Y-50373666D01*
X112149095Y-50373666D02*
X112196714Y-50564142D01*
X112196714Y-50564142D02*
X112244333Y-50659380D01*
X112244333Y-50659380D02*
X112291952Y-50707000D01*
X112291952Y-50707000D02*
X112387190Y-50754619D01*
X112387190Y-50754619D02*
X112482428Y-50754619D01*
X112482428Y-50754619D02*
X112577666Y-50707000D01*
X112577666Y-50707000D02*
X112625285Y-50659380D01*
X112625285Y-50659380D02*
X112672904Y-50564142D01*
X112672904Y-50564142D02*
X112720523Y-50373666D01*
X112720523Y-50373666D02*
X112720523Y-50135571D01*
X112720523Y-50135571D02*
X112672904Y-49945095D01*
X112672904Y-49945095D02*
X112625285Y-49849857D01*
X112625285Y-49849857D02*
X112577666Y-49802238D01*
X112577666Y-49802238D02*
X112482428Y-49754619D01*
%TO.C,C26*%
X129026857Y-67357380D02*
X129074476Y-67405000D01*
X129074476Y-67405000D02*
X129217333Y-67452619D01*
X129217333Y-67452619D02*
X129312571Y-67452619D01*
X129312571Y-67452619D02*
X129455428Y-67405000D01*
X129455428Y-67405000D02*
X129550666Y-67309761D01*
X129550666Y-67309761D02*
X129598285Y-67214523D01*
X129598285Y-67214523D02*
X129645904Y-67024047D01*
X129645904Y-67024047D02*
X129645904Y-66881190D01*
X129645904Y-66881190D02*
X129598285Y-66690714D01*
X129598285Y-66690714D02*
X129550666Y-66595476D01*
X129550666Y-66595476D02*
X129455428Y-66500238D01*
X129455428Y-66500238D02*
X129312571Y-66452619D01*
X129312571Y-66452619D02*
X129217333Y-66452619D01*
X129217333Y-66452619D02*
X129074476Y-66500238D01*
X129074476Y-66500238D02*
X129026857Y-66547857D01*
X128645904Y-66547857D02*
X128598285Y-66500238D01*
X128598285Y-66500238D02*
X128503047Y-66452619D01*
X128503047Y-66452619D02*
X128264952Y-66452619D01*
X128264952Y-66452619D02*
X128169714Y-66500238D01*
X128169714Y-66500238D02*
X128122095Y-66547857D01*
X128122095Y-66547857D02*
X128074476Y-66643095D01*
X128074476Y-66643095D02*
X128074476Y-66738333D01*
X128074476Y-66738333D02*
X128122095Y-66881190D01*
X128122095Y-66881190D02*
X128693523Y-67452619D01*
X128693523Y-67452619D02*
X128074476Y-67452619D01*
X127217333Y-66452619D02*
X127407809Y-66452619D01*
X127407809Y-66452619D02*
X127503047Y-66500238D01*
X127503047Y-66500238D02*
X127550666Y-66547857D01*
X127550666Y-66547857D02*
X127645904Y-66690714D01*
X127645904Y-66690714D02*
X127693523Y-66881190D01*
X127693523Y-66881190D02*
X127693523Y-67262142D01*
X127693523Y-67262142D02*
X127645904Y-67357380D01*
X127645904Y-67357380D02*
X127598285Y-67405000D01*
X127598285Y-67405000D02*
X127503047Y-67452619D01*
X127503047Y-67452619D02*
X127312571Y-67452619D01*
X127312571Y-67452619D02*
X127217333Y-67405000D01*
X127217333Y-67405000D02*
X127169714Y-67357380D01*
X127169714Y-67357380D02*
X127122095Y-67262142D01*
X127122095Y-67262142D02*
X127122095Y-67024047D01*
X127122095Y-67024047D02*
X127169714Y-66928809D01*
X127169714Y-66928809D02*
X127217333Y-66881190D01*
X127217333Y-66881190D02*
X127312571Y-66833571D01*
X127312571Y-66833571D02*
X127503047Y-66833571D01*
X127503047Y-66833571D02*
X127598285Y-66881190D01*
X127598285Y-66881190D02*
X127645904Y-66928809D01*
X127645904Y-66928809D02*
X127693523Y-67024047D01*
%TO.C,R23*%
X129801857Y-51797619D02*
X130135190Y-51321428D01*
X130373285Y-51797619D02*
X130373285Y-50797619D01*
X130373285Y-50797619D02*
X129992333Y-50797619D01*
X129992333Y-50797619D02*
X129897095Y-50845238D01*
X129897095Y-50845238D02*
X129849476Y-50892857D01*
X129849476Y-50892857D02*
X129801857Y-50988095D01*
X129801857Y-50988095D02*
X129801857Y-51130952D01*
X129801857Y-51130952D02*
X129849476Y-51226190D01*
X129849476Y-51226190D02*
X129897095Y-51273809D01*
X129897095Y-51273809D02*
X129992333Y-51321428D01*
X129992333Y-51321428D02*
X130373285Y-51321428D01*
X129420904Y-50892857D02*
X129373285Y-50845238D01*
X129373285Y-50845238D02*
X129278047Y-50797619D01*
X129278047Y-50797619D02*
X129039952Y-50797619D01*
X129039952Y-50797619D02*
X128944714Y-50845238D01*
X128944714Y-50845238D02*
X128897095Y-50892857D01*
X128897095Y-50892857D02*
X128849476Y-50988095D01*
X128849476Y-50988095D02*
X128849476Y-51083333D01*
X128849476Y-51083333D02*
X128897095Y-51226190D01*
X128897095Y-51226190D02*
X129468523Y-51797619D01*
X129468523Y-51797619D02*
X128849476Y-51797619D01*
X128516142Y-50797619D02*
X127897095Y-50797619D01*
X127897095Y-50797619D02*
X128230428Y-51178571D01*
X128230428Y-51178571D02*
X128087571Y-51178571D01*
X128087571Y-51178571D02*
X127992333Y-51226190D01*
X127992333Y-51226190D02*
X127944714Y-51273809D01*
X127944714Y-51273809D02*
X127897095Y-51369047D01*
X127897095Y-51369047D02*
X127897095Y-51607142D01*
X127897095Y-51607142D02*
X127944714Y-51702380D01*
X127944714Y-51702380D02*
X127992333Y-51750000D01*
X127992333Y-51750000D02*
X128087571Y-51797619D01*
X128087571Y-51797619D02*
X128373285Y-51797619D01*
X128373285Y-51797619D02*
X128468523Y-51750000D01*
X128468523Y-51750000D02*
X128516142Y-51702380D01*
%TO.C,Q3*%
X117951238Y-45388857D02*
X118046476Y-45341238D01*
X118046476Y-45341238D02*
X118141714Y-45246000D01*
X118141714Y-45246000D02*
X118284571Y-45103142D01*
X118284571Y-45103142D02*
X118379809Y-45055523D01*
X118379809Y-45055523D02*
X118475047Y-45055523D01*
X118427428Y-45293619D02*
X118522666Y-45246000D01*
X118522666Y-45246000D02*
X118617904Y-45150761D01*
X118617904Y-45150761D02*
X118665523Y-44960285D01*
X118665523Y-44960285D02*
X118665523Y-44626952D01*
X118665523Y-44626952D02*
X118617904Y-44436476D01*
X118617904Y-44436476D02*
X118522666Y-44341238D01*
X118522666Y-44341238D02*
X118427428Y-44293619D01*
X118427428Y-44293619D02*
X118236952Y-44293619D01*
X118236952Y-44293619D02*
X118141714Y-44341238D01*
X118141714Y-44341238D02*
X118046476Y-44436476D01*
X118046476Y-44436476D02*
X117998857Y-44626952D01*
X117998857Y-44626952D02*
X117998857Y-44960285D01*
X117998857Y-44960285D02*
X118046476Y-45150761D01*
X118046476Y-45150761D02*
X118141714Y-45246000D01*
X118141714Y-45246000D02*
X118236952Y-45293619D01*
X118236952Y-45293619D02*
X118427428Y-45293619D01*
X117665523Y-44293619D02*
X117046476Y-44293619D01*
X117046476Y-44293619D02*
X117379809Y-44674571D01*
X117379809Y-44674571D02*
X117236952Y-44674571D01*
X117236952Y-44674571D02*
X117141714Y-44722190D01*
X117141714Y-44722190D02*
X117094095Y-44769809D01*
X117094095Y-44769809D02*
X117046476Y-44865047D01*
X117046476Y-44865047D02*
X117046476Y-45103142D01*
X117046476Y-45103142D02*
X117094095Y-45198380D01*
X117094095Y-45198380D02*
X117141714Y-45246000D01*
X117141714Y-45246000D02*
X117236952Y-45293619D01*
X117236952Y-45293619D02*
X117522666Y-45293619D01*
X117522666Y-45293619D02*
X117617904Y-45246000D01*
X117617904Y-45246000D02*
X117665523Y-45198380D01*
%TO.C,C22*%
X117080380Y-70538142D02*
X117128000Y-70490523D01*
X117128000Y-70490523D02*
X117175619Y-70347666D01*
X117175619Y-70347666D02*
X117175619Y-70252428D01*
X117175619Y-70252428D02*
X117128000Y-70109571D01*
X117128000Y-70109571D02*
X117032761Y-70014333D01*
X117032761Y-70014333D02*
X116937523Y-69966714D01*
X116937523Y-69966714D02*
X116747047Y-69919095D01*
X116747047Y-69919095D02*
X116604190Y-69919095D01*
X116604190Y-69919095D02*
X116413714Y-69966714D01*
X116413714Y-69966714D02*
X116318476Y-70014333D01*
X116318476Y-70014333D02*
X116223238Y-70109571D01*
X116223238Y-70109571D02*
X116175619Y-70252428D01*
X116175619Y-70252428D02*
X116175619Y-70347666D01*
X116175619Y-70347666D02*
X116223238Y-70490523D01*
X116223238Y-70490523D02*
X116270857Y-70538142D01*
X116270857Y-70919095D02*
X116223238Y-70966714D01*
X116223238Y-70966714D02*
X116175619Y-71061952D01*
X116175619Y-71061952D02*
X116175619Y-71300047D01*
X116175619Y-71300047D02*
X116223238Y-71395285D01*
X116223238Y-71395285D02*
X116270857Y-71442904D01*
X116270857Y-71442904D02*
X116366095Y-71490523D01*
X116366095Y-71490523D02*
X116461333Y-71490523D01*
X116461333Y-71490523D02*
X116604190Y-71442904D01*
X116604190Y-71442904D02*
X117175619Y-70871476D01*
X117175619Y-70871476D02*
X117175619Y-71490523D01*
X116270857Y-71871476D02*
X116223238Y-71919095D01*
X116223238Y-71919095D02*
X116175619Y-72014333D01*
X116175619Y-72014333D02*
X116175619Y-72252428D01*
X116175619Y-72252428D02*
X116223238Y-72347666D01*
X116223238Y-72347666D02*
X116270857Y-72395285D01*
X116270857Y-72395285D02*
X116366095Y-72442904D01*
X116366095Y-72442904D02*
X116461333Y-72442904D01*
X116461333Y-72442904D02*
X116604190Y-72395285D01*
X116604190Y-72395285D02*
X117175619Y-71823857D01*
X117175619Y-71823857D02*
X117175619Y-72442904D01*
%TO.C,C12*%
X105417857Y-88472380D02*
X105465476Y-88520000D01*
X105465476Y-88520000D02*
X105608333Y-88567619D01*
X105608333Y-88567619D02*
X105703571Y-88567619D01*
X105703571Y-88567619D02*
X105846428Y-88520000D01*
X105846428Y-88520000D02*
X105941666Y-88424761D01*
X105941666Y-88424761D02*
X105989285Y-88329523D01*
X105989285Y-88329523D02*
X106036904Y-88139047D01*
X106036904Y-88139047D02*
X106036904Y-87996190D01*
X106036904Y-87996190D02*
X105989285Y-87805714D01*
X105989285Y-87805714D02*
X105941666Y-87710476D01*
X105941666Y-87710476D02*
X105846428Y-87615238D01*
X105846428Y-87615238D02*
X105703571Y-87567619D01*
X105703571Y-87567619D02*
X105608333Y-87567619D01*
X105608333Y-87567619D02*
X105465476Y-87615238D01*
X105465476Y-87615238D02*
X105417857Y-87662857D01*
X104465476Y-88567619D02*
X105036904Y-88567619D01*
X104751190Y-88567619D02*
X104751190Y-87567619D01*
X104751190Y-87567619D02*
X104846428Y-87710476D01*
X104846428Y-87710476D02*
X104941666Y-87805714D01*
X104941666Y-87805714D02*
X105036904Y-87853333D01*
X104084523Y-87662857D02*
X104036904Y-87615238D01*
X104036904Y-87615238D02*
X103941666Y-87567619D01*
X103941666Y-87567619D02*
X103703571Y-87567619D01*
X103703571Y-87567619D02*
X103608333Y-87615238D01*
X103608333Y-87615238D02*
X103560714Y-87662857D01*
X103560714Y-87662857D02*
X103513095Y-87758095D01*
X103513095Y-87758095D02*
X103513095Y-87853333D01*
X103513095Y-87853333D02*
X103560714Y-87996190D01*
X103560714Y-87996190D02*
X104132142Y-88567619D01*
X104132142Y-88567619D02*
X103513095Y-88567619D01*
%TO.C,U10*%
X122777094Y-57628619D02*
X122777094Y-58438142D01*
X122777094Y-58438142D02*
X122729475Y-58533380D01*
X122729475Y-58533380D02*
X122681856Y-58581000D01*
X122681856Y-58581000D02*
X122586618Y-58628619D01*
X122586618Y-58628619D02*
X122396142Y-58628619D01*
X122396142Y-58628619D02*
X122300904Y-58581000D01*
X122300904Y-58581000D02*
X122253285Y-58533380D01*
X122253285Y-58533380D02*
X122205666Y-58438142D01*
X122205666Y-58438142D02*
X122205666Y-57628619D01*
X121205666Y-58628619D02*
X121777094Y-58628619D01*
X121491380Y-58628619D02*
X121491380Y-57628619D01*
X121491380Y-57628619D02*
X121586618Y-57771476D01*
X121586618Y-57771476D02*
X121681856Y-57866714D01*
X121681856Y-57866714D02*
X121777094Y-57914333D01*
X120586618Y-57628619D02*
X120491380Y-57628619D01*
X120491380Y-57628619D02*
X120396142Y-57676238D01*
X120396142Y-57676238D02*
X120348523Y-57723857D01*
X120348523Y-57723857D02*
X120300904Y-57819095D01*
X120300904Y-57819095D02*
X120253285Y-58009571D01*
X120253285Y-58009571D02*
X120253285Y-58247666D01*
X120253285Y-58247666D02*
X120300904Y-58438142D01*
X120300904Y-58438142D02*
X120348523Y-58533380D01*
X120348523Y-58533380D02*
X120396142Y-58581000D01*
X120396142Y-58581000D02*
X120491380Y-58628619D01*
X120491380Y-58628619D02*
X120586618Y-58628619D01*
X120586618Y-58628619D02*
X120681856Y-58581000D01*
X120681856Y-58581000D02*
X120729475Y-58533380D01*
X120729475Y-58533380D02*
X120777094Y-58438142D01*
X120777094Y-58438142D02*
X120824713Y-58247666D01*
X120824713Y-58247666D02*
X120824713Y-58009571D01*
X120824713Y-58009571D02*
X120777094Y-57819095D01*
X120777094Y-57819095D02*
X120729475Y-57723857D01*
X120729475Y-57723857D02*
X120681856Y-57676238D01*
X120681856Y-57676238D02*
X120586618Y-57628619D01*
%TO.C,C17*%
X121673857Y-60499380D02*
X121721476Y-60547000D01*
X121721476Y-60547000D02*
X121864333Y-60594619D01*
X121864333Y-60594619D02*
X121959571Y-60594619D01*
X121959571Y-60594619D02*
X122102428Y-60547000D01*
X122102428Y-60547000D02*
X122197666Y-60451761D01*
X122197666Y-60451761D02*
X122245285Y-60356523D01*
X122245285Y-60356523D02*
X122292904Y-60166047D01*
X122292904Y-60166047D02*
X122292904Y-60023190D01*
X122292904Y-60023190D02*
X122245285Y-59832714D01*
X122245285Y-59832714D02*
X122197666Y-59737476D01*
X122197666Y-59737476D02*
X122102428Y-59642238D01*
X122102428Y-59642238D02*
X121959571Y-59594619D01*
X121959571Y-59594619D02*
X121864333Y-59594619D01*
X121864333Y-59594619D02*
X121721476Y-59642238D01*
X121721476Y-59642238D02*
X121673857Y-59689857D01*
X120721476Y-60594619D02*
X121292904Y-60594619D01*
X121007190Y-60594619D02*
X121007190Y-59594619D01*
X121007190Y-59594619D02*
X121102428Y-59737476D01*
X121102428Y-59737476D02*
X121197666Y-59832714D01*
X121197666Y-59832714D02*
X121292904Y-59880333D01*
X120388142Y-59594619D02*
X119721476Y-59594619D01*
X119721476Y-59594619D02*
X120150047Y-60594619D01*
%TO.C,R18*%
X125864857Y-62880619D02*
X126198190Y-62404428D01*
X126436285Y-62880619D02*
X126436285Y-61880619D01*
X126436285Y-61880619D02*
X126055333Y-61880619D01*
X126055333Y-61880619D02*
X125960095Y-61928238D01*
X125960095Y-61928238D02*
X125912476Y-61975857D01*
X125912476Y-61975857D02*
X125864857Y-62071095D01*
X125864857Y-62071095D02*
X125864857Y-62213952D01*
X125864857Y-62213952D02*
X125912476Y-62309190D01*
X125912476Y-62309190D02*
X125960095Y-62356809D01*
X125960095Y-62356809D02*
X126055333Y-62404428D01*
X126055333Y-62404428D02*
X126436285Y-62404428D01*
X124912476Y-62880619D02*
X125483904Y-62880619D01*
X125198190Y-62880619D02*
X125198190Y-61880619D01*
X125198190Y-61880619D02*
X125293428Y-62023476D01*
X125293428Y-62023476D02*
X125388666Y-62118714D01*
X125388666Y-62118714D02*
X125483904Y-62166333D01*
X124341047Y-62309190D02*
X124436285Y-62261571D01*
X124436285Y-62261571D02*
X124483904Y-62213952D01*
X124483904Y-62213952D02*
X124531523Y-62118714D01*
X124531523Y-62118714D02*
X124531523Y-62071095D01*
X124531523Y-62071095D02*
X124483904Y-61975857D01*
X124483904Y-61975857D02*
X124436285Y-61928238D01*
X124436285Y-61928238D02*
X124341047Y-61880619D01*
X124341047Y-61880619D02*
X124150571Y-61880619D01*
X124150571Y-61880619D02*
X124055333Y-61928238D01*
X124055333Y-61928238D02*
X124007714Y-61975857D01*
X124007714Y-61975857D02*
X123960095Y-62071095D01*
X123960095Y-62071095D02*
X123960095Y-62118714D01*
X123960095Y-62118714D02*
X124007714Y-62213952D01*
X124007714Y-62213952D02*
X124055333Y-62261571D01*
X124055333Y-62261571D02*
X124150571Y-62309190D01*
X124150571Y-62309190D02*
X124341047Y-62309190D01*
X124341047Y-62309190D02*
X124436285Y-62356809D01*
X124436285Y-62356809D02*
X124483904Y-62404428D01*
X124483904Y-62404428D02*
X124531523Y-62499666D01*
X124531523Y-62499666D02*
X124531523Y-62690142D01*
X124531523Y-62690142D02*
X124483904Y-62785380D01*
X124483904Y-62785380D02*
X124436285Y-62833000D01*
X124436285Y-62833000D02*
X124341047Y-62880619D01*
X124341047Y-62880619D02*
X124150571Y-62880619D01*
X124150571Y-62880619D02*
X124055333Y-62833000D01*
X124055333Y-62833000D02*
X124007714Y-62785380D01*
X124007714Y-62785380D02*
X123960095Y-62690142D01*
X123960095Y-62690142D02*
X123960095Y-62499666D01*
X123960095Y-62499666D02*
X124007714Y-62404428D01*
X124007714Y-62404428D02*
X124055333Y-62356809D01*
X124055333Y-62356809D02*
X124150571Y-62309190D01*
%TO.C,R12*%
X129801857Y-108412619D02*
X130135190Y-107936428D01*
X130373285Y-108412619D02*
X130373285Y-107412619D01*
X130373285Y-107412619D02*
X129992333Y-107412619D01*
X129992333Y-107412619D02*
X129897095Y-107460238D01*
X129897095Y-107460238D02*
X129849476Y-107507857D01*
X129849476Y-107507857D02*
X129801857Y-107603095D01*
X129801857Y-107603095D02*
X129801857Y-107745952D01*
X129801857Y-107745952D02*
X129849476Y-107841190D01*
X129849476Y-107841190D02*
X129897095Y-107888809D01*
X129897095Y-107888809D02*
X129992333Y-107936428D01*
X129992333Y-107936428D02*
X130373285Y-107936428D01*
X128849476Y-108412619D02*
X129420904Y-108412619D01*
X129135190Y-108412619D02*
X129135190Y-107412619D01*
X129135190Y-107412619D02*
X129230428Y-107555476D01*
X129230428Y-107555476D02*
X129325666Y-107650714D01*
X129325666Y-107650714D02*
X129420904Y-107698333D01*
X128468523Y-107507857D02*
X128420904Y-107460238D01*
X128420904Y-107460238D02*
X128325666Y-107412619D01*
X128325666Y-107412619D02*
X128087571Y-107412619D01*
X128087571Y-107412619D02*
X127992333Y-107460238D01*
X127992333Y-107460238D02*
X127944714Y-107507857D01*
X127944714Y-107507857D02*
X127897095Y-107603095D01*
X127897095Y-107603095D02*
X127897095Y-107698333D01*
X127897095Y-107698333D02*
X127944714Y-107841190D01*
X127944714Y-107841190D02*
X128516142Y-108412619D01*
X128516142Y-108412619D02*
X127897095Y-108412619D01*
%TO.C,C23*%
X115810380Y-55618142D02*
X115858000Y-55570523D01*
X115858000Y-55570523D02*
X115905619Y-55427666D01*
X115905619Y-55427666D02*
X115905619Y-55332428D01*
X115905619Y-55332428D02*
X115858000Y-55189571D01*
X115858000Y-55189571D02*
X115762761Y-55094333D01*
X115762761Y-55094333D02*
X115667523Y-55046714D01*
X115667523Y-55046714D02*
X115477047Y-54999095D01*
X115477047Y-54999095D02*
X115334190Y-54999095D01*
X115334190Y-54999095D02*
X115143714Y-55046714D01*
X115143714Y-55046714D02*
X115048476Y-55094333D01*
X115048476Y-55094333D02*
X114953238Y-55189571D01*
X114953238Y-55189571D02*
X114905619Y-55332428D01*
X114905619Y-55332428D02*
X114905619Y-55427666D01*
X114905619Y-55427666D02*
X114953238Y-55570523D01*
X114953238Y-55570523D02*
X115000857Y-55618142D01*
X115000857Y-55999095D02*
X114953238Y-56046714D01*
X114953238Y-56046714D02*
X114905619Y-56141952D01*
X114905619Y-56141952D02*
X114905619Y-56380047D01*
X114905619Y-56380047D02*
X114953238Y-56475285D01*
X114953238Y-56475285D02*
X115000857Y-56522904D01*
X115000857Y-56522904D02*
X115096095Y-56570523D01*
X115096095Y-56570523D02*
X115191333Y-56570523D01*
X115191333Y-56570523D02*
X115334190Y-56522904D01*
X115334190Y-56522904D02*
X115905619Y-55951476D01*
X115905619Y-55951476D02*
X115905619Y-56570523D01*
X114905619Y-56903857D02*
X114905619Y-57522904D01*
X114905619Y-57522904D02*
X115286571Y-57189571D01*
X115286571Y-57189571D02*
X115286571Y-57332428D01*
X115286571Y-57332428D02*
X115334190Y-57427666D01*
X115334190Y-57427666D02*
X115381809Y-57475285D01*
X115381809Y-57475285D02*
X115477047Y-57522904D01*
X115477047Y-57522904D02*
X115715142Y-57522904D01*
X115715142Y-57522904D02*
X115810380Y-57475285D01*
X115810380Y-57475285D02*
X115858000Y-57427666D01*
X115858000Y-57427666D02*
X115905619Y-57332428D01*
X115905619Y-57332428D02*
X115905619Y-57046714D01*
X115905619Y-57046714D02*
X115858000Y-56951476D01*
X115858000Y-56951476D02*
X115810380Y-56903857D01*
%TO.C,C18*%
X121673857Y-65231380D02*
X121721476Y-65279000D01*
X121721476Y-65279000D02*
X121864333Y-65326619D01*
X121864333Y-65326619D02*
X121959571Y-65326619D01*
X121959571Y-65326619D02*
X122102428Y-65279000D01*
X122102428Y-65279000D02*
X122197666Y-65183761D01*
X122197666Y-65183761D02*
X122245285Y-65088523D01*
X122245285Y-65088523D02*
X122292904Y-64898047D01*
X122292904Y-64898047D02*
X122292904Y-64755190D01*
X122292904Y-64755190D02*
X122245285Y-64564714D01*
X122245285Y-64564714D02*
X122197666Y-64469476D01*
X122197666Y-64469476D02*
X122102428Y-64374238D01*
X122102428Y-64374238D02*
X121959571Y-64326619D01*
X121959571Y-64326619D02*
X121864333Y-64326619D01*
X121864333Y-64326619D02*
X121721476Y-64374238D01*
X121721476Y-64374238D02*
X121673857Y-64421857D01*
X120721476Y-65326619D02*
X121292904Y-65326619D01*
X121007190Y-65326619D02*
X121007190Y-64326619D01*
X121007190Y-64326619D02*
X121102428Y-64469476D01*
X121102428Y-64469476D02*
X121197666Y-64564714D01*
X121197666Y-64564714D02*
X121292904Y-64612333D01*
X120150047Y-64755190D02*
X120245285Y-64707571D01*
X120245285Y-64707571D02*
X120292904Y-64659952D01*
X120292904Y-64659952D02*
X120340523Y-64564714D01*
X120340523Y-64564714D02*
X120340523Y-64517095D01*
X120340523Y-64517095D02*
X120292904Y-64421857D01*
X120292904Y-64421857D02*
X120245285Y-64374238D01*
X120245285Y-64374238D02*
X120150047Y-64326619D01*
X120150047Y-64326619D02*
X119959571Y-64326619D01*
X119959571Y-64326619D02*
X119864333Y-64374238D01*
X119864333Y-64374238D02*
X119816714Y-64421857D01*
X119816714Y-64421857D02*
X119769095Y-64517095D01*
X119769095Y-64517095D02*
X119769095Y-64564714D01*
X119769095Y-64564714D02*
X119816714Y-64659952D01*
X119816714Y-64659952D02*
X119864333Y-64707571D01*
X119864333Y-64707571D02*
X119959571Y-64755190D01*
X119959571Y-64755190D02*
X120150047Y-64755190D01*
X120150047Y-64755190D02*
X120245285Y-64802809D01*
X120245285Y-64802809D02*
X120292904Y-64850428D01*
X120292904Y-64850428D02*
X120340523Y-64945666D01*
X120340523Y-64945666D02*
X120340523Y-65136142D01*
X120340523Y-65136142D02*
X120292904Y-65231380D01*
X120292904Y-65231380D02*
X120245285Y-65279000D01*
X120245285Y-65279000D02*
X120150047Y-65326619D01*
X120150047Y-65326619D02*
X119959571Y-65326619D01*
X119959571Y-65326619D02*
X119864333Y-65279000D01*
X119864333Y-65279000D02*
X119816714Y-65231380D01*
X119816714Y-65231380D02*
X119769095Y-65136142D01*
X119769095Y-65136142D02*
X119769095Y-64945666D01*
X119769095Y-64945666D02*
X119816714Y-64850428D01*
X119816714Y-64850428D02*
X119864333Y-64802809D01*
X119864333Y-64802809D02*
X119959571Y-64755190D01*
%TO.C,R7*%
X103925666Y-112222619D02*
X104258999Y-111746428D01*
X104497094Y-112222619D02*
X104497094Y-111222619D01*
X104497094Y-111222619D02*
X104116142Y-111222619D01*
X104116142Y-111222619D02*
X104020904Y-111270238D01*
X104020904Y-111270238D02*
X103973285Y-111317857D01*
X103973285Y-111317857D02*
X103925666Y-111413095D01*
X103925666Y-111413095D02*
X103925666Y-111555952D01*
X103925666Y-111555952D02*
X103973285Y-111651190D01*
X103973285Y-111651190D02*
X104020904Y-111698809D01*
X104020904Y-111698809D02*
X104116142Y-111746428D01*
X104116142Y-111746428D02*
X104497094Y-111746428D01*
X103592332Y-111222619D02*
X102925666Y-111222619D01*
X102925666Y-111222619D02*
X103354237Y-112222619D01*
%TO.C,R10*%
X135008857Y-89589619D02*
X135342190Y-89113428D01*
X135580285Y-89589619D02*
X135580285Y-88589619D01*
X135580285Y-88589619D02*
X135199333Y-88589619D01*
X135199333Y-88589619D02*
X135104095Y-88637238D01*
X135104095Y-88637238D02*
X135056476Y-88684857D01*
X135056476Y-88684857D02*
X135008857Y-88780095D01*
X135008857Y-88780095D02*
X135008857Y-88922952D01*
X135008857Y-88922952D02*
X135056476Y-89018190D01*
X135056476Y-89018190D02*
X135104095Y-89065809D01*
X135104095Y-89065809D02*
X135199333Y-89113428D01*
X135199333Y-89113428D02*
X135580285Y-89113428D01*
X134056476Y-89589619D02*
X134627904Y-89589619D01*
X134342190Y-89589619D02*
X134342190Y-88589619D01*
X134342190Y-88589619D02*
X134437428Y-88732476D01*
X134437428Y-88732476D02*
X134532666Y-88827714D01*
X134532666Y-88827714D02*
X134627904Y-88875333D01*
X133437428Y-88589619D02*
X133342190Y-88589619D01*
X133342190Y-88589619D02*
X133246952Y-88637238D01*
X133246952Y-88637238D02*
X133199333Y-88684857D01*
X133199333Y-88684857D02*
X133151714Y-88780095D01*
X133151714Y-88780095D02*
X133104095Y-88970571D01*
X133104095Y-88970571D02*
X133104095Y-89208666D01*
X133104095Y-89208666D02*
X133151714Y-89399142D01*
X133151714Y-89399142D02*
X133199333Y-89494380D01*
X133199333Y-89494380D02*
X133246952Y-89542000D01*
X133246952Y-89542000D02*
X133342190Y-89589619D01*
X133342190Y-89589619D02*
X133437428Y-89589619D01*
X133437428Y-89589619D02*
X133532666Y-89542000D01*
X133532666Y-89542000D02*
X133580285Y-89494380D01*
X133580285Y-89494380D02*
X133627904Y-89399142D01*
X133627904Y-89399142D02*
X133675523Y-89208666D01*
X133675523Y-89208666D02*
X133675523Y-88970571D01*
X133675523Y-88970571D02*
X133627904Y-88780095D01*
X133627904Y-88780095D02*
X133580285Y-88684857D01*
X133580285Y-88684857D02*
X133532666Y-88637238D01*
X133532666Y-88637238D02*
X133437428Y-88589619D01*
%TO.C,R17*%
X121546857Y-38021619D02*
X121880190Y-37545428D01*
X122118285Y-38021619D02*
X122118285Y-37021619D01*
X122118285Y-37021619D02*
X121737333Y-37021619D01*
X121737333Y-37021619D02*
X121642095Y-37069238D01*
X121642095Y-37069238D02*
X121594476Y-37116857D01*
X121594476Y-37116857D02*
X121546857Y-37212095D01*
X121546857Y-37212095D02*
X121546857Y-37354952D01*
X121546857Y-37354952D02*
X121594476Y-37450190D01*
X121594476Y-37450190D02*
X121642095Y-37497809D01*
X121642095Y-37497809D02*
X121737333Y-37545428D01*
X121737333Y-37545428D02*
X122118285Y-37545428D01*
X120594476Y-38021619D02*
X121165904Y-38021619D01*
X120880190Y-38021619D02*
X120880190Y-37021619D01*
X120880190Y-37021619D02*
X120975428Y-37164476D01*
X120975428Y-37164476D02*
X121070666Y-37259714D01*
X121070666Y-37259714D02*
X121165904Y-37307333D01*
X120261142Y-37021619D02*
X119594476Y-37021619D01*
X119594476Y-37021619D02*
X120023047Y-38021619D01*
%TO.C,R6*%
X104609166Y-106761619D02*
X104942499Y-106285428D01*
X105180594Y-106761619D02*
X105180594Y-105761619D01*
X105180594Y-105761619D02*
X104799642Y-105761619D01*
X104799642Y-105761619D02*
X104704404Y-105809238D01*
X104704404Y-105809238D02*
X104656785Y-105856857D01*
X104656785Y-105856857D02*
X104609166Y-105952095D01*
X104609166Y-105952095D02*
X104609166Y-106094952D01*
X104609166Y-106094952D02*
X104656785Y-106190190D01*
X104656785Y-106190190D02*
X104704404Y-106237809D01*
X104704404Y-106237809D02*
X104799642Y-106285428D01*
X104799642Y-106285428D02*
X105180594Y-106285428D01*
X103752023Y-105761619D02*
X103942499Y-105761619D01*
X103942499Y-105761619D02*
X104037737Y-105809238D01*
X104037737Y-105809238D02*
X104085356Y-105856857D01*
X104085356Y-105856857D02*
X104180594Y-105999714D01*
X104180594Y-105999714D02*
X104228213Y-106190190D01*
X104228213Y-106190190D02*
X104228213Y-106571142D01*
X104228213Y-106571142D02*
X104180594Y-106666380D01*
X104180594Y-106666380D02*
X104132975Y-106714000D01*
X104132975Y-106714000D02*
X104037737Y-106761619D01*
X104037737Y-106761619D02*
X103847261Y-106761619D01*
X103847261Y-106761619D02*
X103752023Y-106714000D01*
X103752023Y-106714000D02*
X103704404Y-106666380D01*
X103704404Y-106666380D02*
X103656785Y-106571142D01*
X103656785Y-106571142D02*
X103656785Y-106333047D01*
X103656785Y-106333047D02*
X103704404Y-106237809D01*
X103704404Y-106237809D02*
X103752023Y-106190190D01*
X103752023Y-106190190D02*
X103847261Y-106142571D01*
X103847261Y-106142571D02*
X104037737Y-106142571D01*
X104037737Y-106142571D02*
X104132975Y-106190190D01*
X104132975Y-106190190D02*
X104180594Y-106237809D01*
X104180594Y-106237809D02*
X104228213Y-106333047D01*
%TO.C,C5*%
X121832666Y-49643379D02*
X121880285Y-49690999D01*
X121880285Y-49690999D02*
X122023142Y-49738618D01*
X122023142Y-49738618D02*
X122118380Y-49738618D01*
X122118380Y-49738618D02*
X122261237Y-49690999D01*
X122261237Y-49690999D02*
X122356475Y-49595760D01*
X122356475Y-49595760D02*
X122404094Y-49500522D01*
X122404094Y-49500522D02*
X122451713Y-49310046D01*
X122451713Y-49310046D02*
X122451713Y-49167189D01*
X122451713Y-49167189D02*
X122404094Y-48976713D01*
X122404094Y-48976713D02*
X122356475Y-48881475D01*
X122356475Y-48881475D02*
X122261237Y-48786237D01*
X122261237Y-48786237D02*
X122118380Y-48738618D01*
X122118380Y-48738618D02*
X122023142Y-48738618D01*
X122023142Y-48738618D02*
X121880285Y-48786237D01*
X121880285Y-48786237D02*
X121832666Y-48833856D01*
X120927904Y-48738618D02*
X121404094Y-48738618D01*
X121404094Y-48738618D02*
X121451713Y-49214808D01*
X121451713Y-49214808D02*
X121404094Y-49167189D01*
X121404094Y-49167189D02*
X121308856Y-49119570D01*
X121308856Y-49119570D02*
X121070761Y-49119570D01*
X121070761Y-49119570D02*
X120975523Y-49167189D01*
X120975523Y-49167189D02*
X120927904Y-49214808D01*
X120927904Y-49214808D02*
X120880285Y-49310046D01*
X120880285Y-49310046D02*
X120880285Y-49548141D01*
X120880285Y-49548141D02*
X120927904Y-49643379D01*
X120927904Y-49643379D02*
X120975523Y-49690999D01*
X120975523Y-49690999D02*
X121070761Y-49738618D01*
X121070761Y-49738618D02*
X121308856Y-49738618D01*
X121308856Y-49738618D02*
X121404094Y-49690999D01*
X121404094Y-49690999D02*
X121451713Y-49643379D01*
%TO.C,Q7*%
X110996238Y-38911857D02*
X111091476Y-38864238D01*
X111091476Y-38864238D02*
X111186714Y-38769000D01*
X111186714Y-38769000D02*
X111329571Y-38626142D01*
X111329571Y-38626142D02*
X111424809Y-38578523D01*
X111424809Y-38578523D02*
X111520047Y-38578523D01*
X111472428Y-38816619D02*
X111567666Y-38769000D01*
X111567666Y-38769000D02*
X111662904Y-38673761D01*
X111662904Y-38673761D02*
X111710523Y-38483285D01*
X111710523Y-38483285D02*
X111710523Y-38149952D01*
X111710523Y-38149952D02*
X111662904Y-37959476D01*
X111662904Y-37959476D02*
X111567666Y-37864238D01*
X111567666Y-37864238D02*
X111472428Y-37816619D01*
X111472428Y-37816619D02*
X111281952Y-37816619D01*
X111281952Y-37816619D02*
X111186714Y-37864238D01*
X111186714Y-37864238D02*
X111091476Y-37959476D01*
X111091476Y-37959476D02*
X111043857Y-38149952D01*
X111043857Y-38149952D02*
X111043857Y-38483285D01*
X111043857Y-38483285D02*
X111091476Y-38673761D01*
X111091476Y-38673761D02*
X111186714Y-38769000D01*
X111186714Y-38769000D02*
X111281952Y-38816619D01*
X111281952Y-38816619D02*
X111472428Y-38816619D01*
X110710523Y-37816619D02*
X110043857Y-37816619D01*
X110043857Y-37816619D02*
X110472428Y-38816619D01*
%TO.C,C24*%
X117715381Y-56060142D02*
X117763001Y-56012523D01*
X117763001Y-56012523D02*
X117810620Y-55869666D01*
X117810620Y-55869666D02*
X117810620Y-55774428D01*
X117810620Y-55774428D02*
X117763001Y-55631571D01*
X117763001Y-55631571D02*
X117667762Y-55536333D01*
X117667762Y-55536333D02*
X117572524Y-55488714D01*
X117572524Y-55488714D02*
X117382048Y-55441095D01*
X117382048Y-55441095D02*
X117239191Y-55441095D01*
X117239191Y-55441095D02*
X117048715Y-55488714D01*
X117048715Y-55488714D02*
X116953477Y-55536333D01*
X116953477Y-55536333D02*
X116858239Y-55631571D01*
X116858239Y-55631571D02*
X116810620Y-55774428D01*
X116810620Y-55774428D02*
X116810620Y-55869666D01*
X116810620Y-55869666D02*
X116858239Y-56012523D01*
X116858239Y-56012523D02*
X116905858Y-56060142D01*
X116905858Y-56441095D02*
X116858239Y-56488714D01*
X116858239Y-56488714D02*
X116810620Y-56583952D01*
X116810620Y-56583952D02*
X116810620Y-56822047D01*
X116810620Y-56822047D02*
X116858239Y-56917285D01*
X116858239Y-56917285D02*
X116905858Y-56964904D01*
X116905858Y-56964904D02*
X117001096Y-57012523D01*
X117001096Y-57012523D02*
X117096334Y-57012523D01*
X117096334Y-57012523D02*
X117239191Y-56964904D01*
X117239191Y-56964904D02*
X117810620Y-56393476D01*
X117810620Y-56393476D02*
X117810620Y-57012523D01*
X117143953Y-57869666D02*
X117810620Y-57869666D01*
X116763001Y-57631571D02*
X117477286Y-57393476D01*
X117477286Y-57393476D02*
X117477286Y-58012523D01*
%TO.C,C2*%
X107100666Y-122033380D02*
X107148285Y-122081000D01*
X107148285Y-122081000D02*
X107291142Y-122128619D01*
X107291142Y-122128619D02*
X107386380Y-122128619D01*
X107386380Y-122128619D02*
X107529237Y-122081000D01*
X107529237Y-122081000D02*
X107624475Y-121985761D01*
X107624475Y-121985761D02*
X107672094Y-121890523D01*
X107672094Y-121890523D02*
X107719713Y-121700047D01*
X107719713Y-121700047D02*
X107719713Y-121557190D01*
X107719713Y-121557190D02*
X107672094Y-121366714D01*
X107672094Y-121366714D02*
X107624475Y-121271476D01*
X107624475Y-121271476D02*
X107529237Y-121176238D01*
X107529237Y-121176238D02*
X107386380Y-121128619D01*
X107386380Y-121128619D02*
X107291142Y-121128619D01*
X107291142Y-121128619D02*
X107148285Y-121176238D01*
X107148285Y-121176238D02*
X107100666Y-121223857D01*
X106719713Y-121223857D02*
X106672094Y-121176238D01*
X106672094Y-121176238D02*
X106576856Y-121128619D01*
X106576856Y-121128619D02*
X106338761Y-121128619D01*
X106338761Y-121128619D02*
X106243523Y-121176238D01*
X106243523Y-121176238D02*
X106195904Y-121223857D01*
X106195904Y-121223857D02*
X106148285Y-121319095D01*
X106148285Y-121319095D02*
X106148285Y-121414333D01*
X106148285Y-121414333D02*
X106195904Y-121557190D01*
X106195904Y-121557190D02*
X106767332Y-122128619D01*
X106767332Y-122128619D02*
X106148285Y-122128619D01*
%TO.C,R15*%
X129674857Y-99141619D02*
X130008190Y-98665428D01*
X130246285Y-99141619D02*
X130246285Y-98141619D01*
X130246285Y-98141619D02*
X129865333Y-98141619D01*
X129865333Y-98141619D02*
X129770095Y-98189238D01*
X129770095Y-98189238D02*
X129722476Y-98236857D01*
X129722476Y-98236857D02*
X129674857Y-98332095D01*
X129674857Y-98332095D02*
X129674857Y-98474952D01*
X129674857Y-98474952D02*
X129722476Y-98570190D01*
X129722476Y-98570190D02*
X129770095Y-98617809D01*
X129770095Y-98617809D02*
X129865333Y-98665428D01*
X129865333Y-98665428D02*
X130246285Y-98665428D01*
X128722476Y-99141619D02*
X129293904Y-99141619D01*
X129008190Y-99141619D02*
X129008190Y-98141619D01*
X129008190Y-98141619D02*
X129103428Y-98284476D01*
X129103428Y-98284476D02*
X129198666Y-98379714D01*
X129198666Y-98379714D02*
X129293904Y-98427333D01*
X127817714Y-98141619D02*
X128293904Y-98141619D01*
X128293904Y-98141619D02*
X128341523Y-98617809D01*
X128341523Y-98617809D02*
X128293904Y-98570190D01*
X128293904Y-98570190D02*
X128198666Y-98522571D01*
X128198666Y-98522571D02*
X127960571Y-98522571D01*
X127960571Y-98522571D02*
X127865333Y-98570190D01*
X127865333Y-98570190D02*
X127817714Y-98617809D01*
X127817714Y-98617809D02*
X127770095Y-98713047D01*
X127770095Y-98713047D02*
X127770095Y-98951142D01*
X127770095Y-98951142D02*
X127817714Y-99046380D01*
X127817714Y-99046380D02*
X127865333Y-99094000D01*
X127865333Y-99094000D02*
X127960571Y-99141619D01*
X127960571Y-99141619D02*
X128198666Y-99141619D01*
X128198666Y-99141619D02*
X128293904Y-99094000D01*
X128293904Y-99094000D02*
X128341523Y-99046380D01*
%TO.C,C16*%
X105290857Y-93585380D02*
X105338476Y-93633000D01*
X105338476Y-93633000D02*
X105481333Y-93680619D01*
X105481333Y-93680619D02*
X105576571Y-93680619D01*
X105576571Y-93680619D02*
X105719428Y-93633000D01*
X105719428Y-93633000D02*
X105814666Y-93537761D01*
X105814666Y-93537761D02*
X105862285Y-93442523D01*
X105862285Y-93442523D02*
X105909904Y-93252047D01*
X105909904Y-93252047D02*
X105909904Y-93109190D01*
X105909904Y-93109190D02*
X105862285Y-92918714D01*
X105862285Y-92918714D02*
X105814666Y-92823476D01*
X105814666Y-92823476D02*
X105719428Y-92728238D01*
X105719428Y-92728238D02*
X105576571Y-92680619D01*
X105576571Y-92680619D02*
X105481333Y-92680619D01*
X105481333Y-92680619D02*
X105338476Y-92728238D01*
X105338476Y-92728238D02*
X105290857Y-92775857D01*
X104338476Y-93680619D02*
X104909904Y-93680619D01*
X104624190Y-93680619D02*
X104624190Y-92680619D01*
X104624190Y-92680619D02*
X104719428Y-92823476D01*
X104719428Y-92823476D02*
X104814666Y-92918714D01*
X104814666Y-92918714D02*
X104909904Y-92966333D01*
X103481333Y-92680619D02*
X103671809Y-92680619D01*
X103671809Y-92680619D02*
X103767047Y-92728238D01*
X103767047Y-92728238D02*
X103814666Y-92775857D01*
X103814666Y-92775857D02*
X103909904Y-92918714D01*
X103909904Y-92918714D02*
X103957523Y-93109190D01*
X103957523Y-93109190D02*
X103957523Y-93490142D01*
X103957523Y-93490142D02*
X103909904Y-93585380D01*
X103909904Y-93585380D02*
X103862285Y-93633000D01*
X103862285Y-93633000D02*
X103767047Y-93680619D01*
X103767047Y-93680619D02*
X103576571Y-93680619D01*
X103576571Y-93680619D02*
X103481333Y-93633000D01*
X103481333Y-93633000D02*
X103433714Y-93585380D01*
X103433714Y-93585380D02*
X103386095Y-93490142D01*
X103386095Y-93490142D02*
X103386095Y-93252047D01*
X103386095Y-93252047D02*
X103433714Y-93156809D01*
X103433714Y-93156809D02*
X103481333Y-93109190D01*
X103481333Y-93109190D02*
X103576571Y-93061571D01*
X103576571Y-93061571D02*
X103767047Y-93061571D01*
X103767047Y-93061571D02*
X103862285Y-93109190D01*
X103862285Y-93109190D02*
X103909904Y-93156809D01*
X103909904Y-93156809D02*
X103957523Y-93252047D01*
%TO.C,C9*%
X117006666Y-50151380D02*
X117054285Y-50199000D01*
X117054285Y-50199000D02*
X117197142Y-50246619D01*
X117197142Y-50246619D02*
X117292380Y-50246619D01*
X117292380Y-50246619D02*
X117435237Y-50199000D01*
X117435237Y-50199000D02*
X117530475Y-50103761D01*
X117530475Y-50103761D02*
X117578094Y-50008523D01*
X117578094Y-50008523D02*
X117625713Y-49818047D01*
X117625713Y-49818047D02*
X117625713Y-49675190D01*
X117625713Y-49675190D02*
X117578094Y-49484714D01*
X117578094Y-49484714D02*
X117530475Y-49389476D01*
X117530475Y-49389476D02*
X117435237Y-49294238D01*
X117435237Y-49294238D02*
X117292380Y-49246619D01*
X117292380Y-49246619D02*
X117197142Y-49246619D01*
X117197142Y-49246619D02*
X117054285Y-49294238D01*
X117054285Y-49294238D02*
X117006666Y-49341857D01*
X116530475Y-50246619D02*
X116339999Y-50246619D01*
X116339999Y-50246619D02*
X116244761Y-50199000D01*
X116244761Y-50199000D02*
X116197142Y-50151380D01*
X116197142Y-50151380D02*
X116101904Y-50008523D01*
X116101904Y-50008523D02*
X116054285Y-49818047D01*
X116054285Y-49818047D02*
X116054285Y-49437095D01*
X116054285Y-49437095D02*
X116101904Y-49341857D01*
X116101904Y-49341857D02*
X116149523Y-49294238D01*
X116149523Y-49294238D02*
X116244761Y-49246619D01*
X116244761Y-49246619D02*
X116435237Y-49246619D01*
X116435237Y-49246619D02*
X116530475Y-49294238D01*
X116530475Y-49294238D02*
X116578094Y-49341857D01*
X116578094Y-49341857D02*
X116625713Y-49437095D01*
X116625713Y-49437095D02*
X116625713Y-49675190D01*
X116625713Y-49675190D02*
X116578094Y-49770428D01*
X116578094Y-49770428D02*
X116530475Y-49818047D01*
X116530475Y-49818047D02*
X116435237Y-49865666D01*
X116435237Y-49865666D02*
X116244761Y-49865666D01*
X116244761Y-49865666D02*
X116149523Y-49818047D01*
X116149523Y-49818047D02*
X116101904Y-49770428D01*
X116101904Y-49770428D02*
X116054285Y-49675190D01*
%TO.C,R4*%
X105772619Y-66254333D02*
X105296428Y-65921000D01*
X105772619Y-65682905D02*
X104772619Y-65682905D01*
X104772619Y-65682905D02*
X104772619Y-66063857D01*
X104772619Y-66063857D02*
X104820238Y-66159095D01*
X104820238Y-66159095D02*
X104867857Y-66206714D01*
X104867857Y-66206714D02*
X104963095Y-66254333D01*
X104963095Y-66254333D02*
X105105952Y-66254333D01*
X105105952Y-66254333D02*
X105201190Y-66206714D01*
X105201190Y-66206714D02*
X105248809Y-66159095D01*
X105248809Y-66159095D02*
X105296428Y-66063857D01*
X105296428Y-66063857D02*
X105296428Y-65682905D01*
X105105952Y-67111476D02*
X105772619Y-67111476D01*
X104725000Y-66873381D02*
X105439285Y-66635286D01*
X105439285Y-66635286D02*
X105439285Y-67254333D01*
%TO.C,C6*%
X108288382Y-72157333D02*
X108336002Y-72109714D01*
X108336002Y-72109714D02*
X108383621Y-71966857D01*
X108383621Y-71966857D02*
X108383621Y-71871619D01*
X108383621Y-71871619D02*
X108336002Y-71728762D01*
X108336002Y-71728762D02*
X108240763Y-71633524D01*
X108240763Y-71633524D02*
X108145525Y-71585905D01*
X108145525Y-71585905D02*
X107955049Y-71538286D01*
X107955049Y-71538286D02*
X107812192Y-71538286D01*
X107812192Y-71538286D02*
X107621716Y-71585905D01*
X107621716Y-71585905D02*
X107526478Y-71633524D01*
X107526478Y-71633524D02*
X107431240Y-71728762D01*
X107431240Y-71728762D02*
X107383621Y-71871619D01*
X107383621Y-71871619D02*
X107383621Y-71966857D01*
X107383621Y-71966857D02*
X107431240Y-72109714D01*
X107431240Y-72109714D02*
X107478859Y-72157333D01*
X107383621Y-73014476D02*
X107383621Y-72824000D01*
X107383621Y-72824000D02*
X107431240Y-72728762D01*
X107431240Y-72728762D02*
X107478859Y-72681143D01*
X107478859Y-72681143D02*
X107621716Y-72585905D01*
X107621716Y-72585905D02*
X107812192Y-72538286D01*
X107812192Y-72538286D02*
X108193144Y-72538286D01*
X108193144Y-72538286D02*
X108288382Y-72585905D01*
X108288382Y-72585905D02*
X108336002Y-72633524D01*
X108336002Y-72633524D02*
X108383621Y-72728762D01*
X108383621Y-72728762D02*
X108383621Y-72919238D01*
X108383621Y-72919238D02*
X108336002Y-73014476D01*
X108336002Y-73014476D02*
X108288382Y-73062095D01*
X108288382Y-73062095D02*
X108193144Y-73109714D01*
X108193144Y-73109714D02*
X107955049Y-73109714D01*
X107955049Y-73109714D02*
X107859811Y-73062095D01*
X107859811Y-73062095D02*
X107812192Y-73014476D01*
X107812192Y-73014476D02*
X107764573Y-72919238D01*
X107764573Y-72919238D02*
X107764573Y-72728762D01*
X107764573Y-72728762D02*
X107812192Y-72633524D01*
X107812192Y-72633524D02*
X107859811Y-72585905D01*
X107859811Y-72585905D02*
X107955049Y-72538286D01*
%TO.C,R5*%
X104052666Y-101935619D02*
X104385999Y-101459428D01*
X104624094Y-101935619D02*
X104624094Y-100935619D01*
X104624094Y-100935619D02*
X104243142Y-100935619D01*
X104243142Y-100935619D02*
X104147904Y-100983238D01*
X104147904Y-100983238D02*
X104100285Y-101030857D01*
X104100285Y-101030857D02*
X104052666Y-101126095D01*
X104052666Y-101126095D02*
X104052666Y-101268952D01*
X104052666Y-101268952D02*
X104100285Y-101364190D01*
X104100285Y-101364190D02*
X104147904Y-101411809D01*
X104147904Y-101411809D02*
X104243142Y-101459428D01*
X104243142Y-101459428D02*
X104624094Y-101459428D01*
X103147904Y-100935619D02*
X103624094Y-100935619D01*
X103624094Y-100935619D02*
X103671713Y-101411809D01*
X103671713Y-101411809D02*
X103624094Y-101364190D01*
X103624094Y-101364190D02*
X103528856Y-101316571D01*
X103528856Y-101316571D02*
X103290761Y-101316571D01*
X103290761Y-101316571D02*
X103195523Y-101364190D01*
X103195523Y-101364190D02*
X103147904Y-101411809D01*
X103147904Y-101411809D02*
X103100285Y-101507047D01*
X103100285Y-101507047D02*
X103100285Y-101745142D01*
X103100285Y-101745142D02*
X103147904Y-101840380D01*
X103147904Y-101840380D02*
X103195523Y-101888000D01*
X103195523Y-101888000D02*
X103290761Y-101935619D01*
X103290761Y-101935619D02*
X103528856Y-101935619D01*
X103528856Y-101935619D02*
X103624094Y-101888000D01*
X103624094Y-101888000D02*
X103671713Y-101840380D01*
%TO.C,R19*%
X123070857Y-99014619D02*
X123404190Y-98538428D01*
X123642285Y-99014619D02*
X123642285Y-98014619D01*
X123642285Y-98014619D02*
X123261333Y-98014619D01*
X123261333Y-98014619D02*
X123166095Y-98062238D01*
X123166095Y-98062238D02*
X123118476Y-98109857D01*
X123118476Y-98109857D02*
X123070857Y-98205095D01*
X123070857Y-98205095D02*
X123070857Y-98347952D01*
X123070857Y-98347952D02*
X123118476Y-98443190D01*
X123118476Y-98443190D02*
X123166095Y-98490809D01*
X123166095Y-98490809D02*
X123261333Y-98538428D01*
X123261333Y-98538428D02*
X123642285Y-98538428D01*
X122118476Y-99014619D02*
X122689904Y-99014619D01*
X122404190Y-99014619D02*
X122404190Y-98014619D01*
X122404190Y-98014619D02*
X122499428Y-98157476D01*
X122499428Y-98157476D02*
X122594666Y-98252714D01*
X122594666Y-98252714D02*
X122689904Y-98300333D01*
X121642285Y-99014619D02*
X121451809Y-99014619D01*
X121451809Y-99014619D02*
X121356571Y-98967000D01*
X121356571Y-98967000D02*
X121308952Y-98919380D01*
X121308952Y-98919380D02*
X121213714Y-98776523D01*
X121213714Y-98776523D02*
X121166095Y-98586047D01*
X121166095Y-98586047D02*
X121166095Y-98205095D01*
X121166095Y-98205095D02*
X121213714Y-98109857D01*
X121213714Y-98109857D02*
X121261333Y-98062238D01*
X121261333Y-98062238D02*
X121356571Y-98014619D01*
X121356571Y-98014619D02*
X121547047Y-98014619D01*
X121547047Y-98014619D02*
X121642285Y-98062238D01*
X121642285Y-98062238D02*
X121689904Y-98109857D01*
X121689904Y-98109857D02*
X121737523Y-98205095D01*
X121737523Y-98205095D02*
X121737523Y-98443190D01*
X121737523Y-98443190D02*
X121689904Y-98538428D01*
X121689904Y-98538428D02*
X121642285Y-98586047D01*
X121642285Y-98586047D02*
X121547047Y-98633666D01*
X121547047Y-98633666D02*
X121356571Y-98633666D01*
X121356571Y-98633666D02*
X121261333Y-98586047D01*
X121261333Y-98586047D02*
X121213714Y-98538428D01*
X121213714Y-98538428D02*
X121166095Y-98443190D01*
%TO.C,C8*%
X134961666Y-94249380D02*
X135009285Y-94297000D01*
X135009285Y-94297000D02*
X135152142Y-94344619D01*
X135152142Y-94344619D02*
X135247380Y-94344619D01*
X135247380Y-94344619D02*
X135390237Y-94297000D01*
X135390237Y-94297000D02*
X135485475Y-94201761D01*
X135485475Y-94201761D02*
X135533094Y-94106523D01*
X135533094Y-94106523D02*
X135580713Y-93916047D01*
X135580713Y-93916047D02*
X135580713Y-93773190D01*
X135580713Y-93773190D02*
X135533094Y-93582714D01*
X135533094Y-93582714D02*
X135485475Y-93487476D01*
X135485475Y-93487476D02*
X135390237Y-93392238D01*
X135390237Y-93392238D02*
X135247380Y-93344619D01*
X135247380Y-93344619D02*
X135152142Y-93344619D01*
X135152142Y-93344619D02*
X135009285Y-93392238D01*
X135009285Y-93392238D02*
X134961666Y-93439857D01*
X134390237Y-93773190D02*
X134485475Y-93725571D01*
X134485475Y-93725571D02*
X134533094Y-93677952D01*
X134533094Y-93677952D02*
X134580713Y-93582714D01*
X134580713Y-93582714D02*
X134580713Y-93535095D01*
X134580713Y-93535095D02*
X134533094Y-93439857D01*
X134533094Y-93439857D02*
X134485475Y-93392238D01*
X134485475Y-93392238D02*
X134390237Y-93344619D01*
X134390237Y-93344619D02*
X134199761Y-93344619D01*
X134199761Y-93344619D02*
X134104523Y-93392238D01*
X134104523Y-93392238D02*
X134056904Y-93439857D01*
X134056904Y-93439857D02*
X134009285Y-93535095D01*
X134009285Y-93535095D02*
X134009285Y-93582714D01*
X134009285Y-93582714D02*
X134056904Y-93677952D01*
X134056904Y-93677952D02*
X134104523Y-93725571D01*
X134104523Y-93725571D02*
X134199761Y-93773190D01*
X134199761Y-93773190D02*
X134390237Y-93773190D01*
X134390237Y-93773190D02*
X134485475Y-93820809D01*
X134485475Y-93820809D02*
X134533094Y-93868428D01*
X134533094Y-93868428D02*
X134580713Y-93963666D01*
X134580713Y-93963666D02*
X134580713Y-94154142D01*
X134580713Y-94154142D02*
X134533094Y-94249380D01*
X134533094Y-94249380D02*
X134485475Y-94297000D01*
X134485475Y-94297000D02*
X134390237Y-94344619D01*
X134390237Y-94344619D02*
X134199761Y-94344619D01*
X134199761Y-94344619D02*
X134104523Y-94297000D01*
X134104523Y-94297000D02*
X134056904Y-94249380D01*
X134056904Y-94249380D02*
X134009285Y-94154142D01*
X134009285Y-94154142D02*
X134009285Y-93963666D01*
X134009285Y-93963666D02*
X134056904Y-93868428D01*
X134056904Y-93868428D02*
X134104523Y-93820809D01*
X134104523Y-93820809D02*
X134199761Y-93773190D01*
%TO.C,C27*%
X122062380Y-70548191D02*
X122110000Y-70500572D01*
X122110000Y-70500572D02*
X122157619Y-70357715D01*
X122157619Y-70357715D02*
X122157619Y-70262477D01*
X122157619Y-70262477D02*
X122110000Y-70119620D01*
X122110000Y-70119620D02*
X122014761Y-70024382D01*
X122014761Y-70024382D02*
X121919523Y-69976763D01*
X121919523Y-69976763D02*
X121729047Y-69929144D01*
X121729047Y-69929144D02*
X121586190Y-69929144D01*
X121586190Y-69929144D02*
X121395714Y-69976763D01*
X121395714Y-69976763D02*
X121300476Y-70024382D01*
X121300476Y-70024382D02*
X121205238Y-70119620D01*
X121205238Y-70119620D02*
X121157619Y-70262477D01*
X121157619Y-70262477D02*
X121157619Y-70357715D01*
X121157619Y-70357715D02*
X121205238Y-70500572D01*
X121205238Y-70500572D02*
X121252857Y-70548191D01*
X121252857Y-70929144D02*
X121205238Y-70976763D01*
X121205238Y-70976763D02*
X121157619Y-71072001D01*
X121157619Y-71072001D02*
X121157619Y-71310096D01*
X121157619Y-71310096D02*
X121205238Y-71405334D01*
X121205238Y-71405334D02*
X121252857Y-71452953D01*
X121252857Y-71452953D02*
X121348095Y-71500572D01*
X121348095Y-71500572D02*
X121443333Y-71500572D01*
X121443333Y-71500572D02*
X121586190Y-71452953D01*
X121586190Y-71452953D02*
X122157619Y-70881525D01*
X122157619Y-70881525D02*
X122157619Y-71500572D01*
X121157619Y-71833906D02*
X121157619Y-72500572D01*
X121157619Y-72500572D02*
X122157619Y-72072001D01*
%TO.C,R3*%
X136606619Y-43648333D02*
X136130428Y-43315000D01*
X136606619Y-43076905D02*
X135606619Y-43076905D01*
X135606619Y-43076905D02*
X135606619Y-43457857D01*
X135606619Y-43457857D02*
X135654238Y-43553095D01*
X135654238Y-43553095D02*
X135701857Y-43600714D01*
X135701857Y-43600714D02*
X135797095Y-43648333D01*
X135797095Y-43648333D02*
X135939952Y-43648333D01*
X135939952Y-43648333D02*
X136035190Y-43600714D01*
X136035190Y-43600714D02*
X136082809Y-43553095D01*
X136082809Y-43553095D02*
X136130428Y-43457857D01*
X136130428Y-43457857D02*
X136130428Y-43076905D01*
X135606619Y-43981667D02*
X135606619Y-44600714D01*
X135606619Y-44600714D02*
X135987571Y-44267381D01*
X135987571Y-44267381D02*
X135987571Y-44410238D01*
X135987571Y-44410238D02*
X136035190Y-44505476D01*
X136035190Y-44505476D02*
X136082809Y-44553095D01*
X136082809Y-44553095D02*
X136178047Y-44600714D01*
X136178047Y-44600714D02*
X136416142Y-44600714D01*
X136416142Y-44600714D02*
X136511380Y-44553095D01*
X136511380Y-44553095D02*
X136559000Y-44505476D01*
X136559000Y-44505476D02*
X136606619Y-44410238D01*
X136606619Y-44410238D02*
X136606619Y-44124524D01*
X136606619Y-44124524D02*
X136559000Y-44029286D01*
X136559000Y-44029286D02*
X136511380Y-43981667D01*
%TO.C,R20*%
X128277857Y-95204619D02*
X128611190Y-94728428D01*
X128849285Y-95204619D02*
X128849285Y-94204619D01*
X128849285Y-94204619D02*
X128468333Y-94204619D01*
X128468333Y-94204619D02*
X128373095Y-94252238D01*
X128373095Y-94252238D02*
X128325476Y-94299857D01*
X128325476Y-94299857D02*
X128277857Y-94395095D01*
X128277857Y-94395095D02*
X128277857Y-94537952D01*
X128277857Y-94537952D02*
X128325476Y-94633190D01*
X128325476Y-94633190D02*
X128373095Y-94680809D01*
X128373095Y-94680809D02*
X128468333Y-94728428D01*
X128468333Y-94728428D02*
X128849285Y-94728428D01*
X127896904Y-94299857D02*
X127849285Y-94252238D01*
X127849285Y-94252238D02*
X127754047Y-94204619D01*
X127754047Y-94204619D02*
X127515952Y-94204619D01*
X127515952Y-94204619D02*
X127420714Y-94252238D01*
X127420714Y-94252238D02*
X127373095Y-94299857D01*
X127373095Y-94299857D02*
X127325476Y-94395095D01*
X127325476Y-94395095D02*
X127325476Y-94490333D01*
X127325476Y-94490333D02*
X127373095Y-94633190D01*
X127373095Y-94633190D02*
X127944523Y-95204619D01*
X127944523Y-95204619D02*
X127325476Y-95204619D01*
X126706428Y-94204619D02*
X126611190Y-94204619D01*
X126611190Y-94204619D02*
X126515952Y-94252238D01*
X126515952Y-94252238D02*
X126468333Y-94299857D01*
X126468333Y-94299857D02*
X126420714Y-94395095D01*
X126420714Y-94395095D02*
X126373095Y-94585571D01*
X126373095Y-94585571D02*
X126373095Y-94823666D01*
X126373095Y-94823666D02*
X126420714Y-95014142D01*
X126420714Y-95014142D02*
X126468333Y-95109380D01*
X126468333Y-95109380D02*
X126515952Y-95157000D01*
X126515952Y-95157000D02*
X126611190Y-95204619D01*
X126611190Y-95204619D02*
X126706428Y-95204619D01*
X126706428Y-95204619D02*
X126801666Y-95157000D01*
X126801666Y-95157000D02*
X126849285Y-95109380D01*
X126849285Y-95109380D02*
X126896904Y-95014142D01*
X126896904Y-95014142D02*
X126944523Y-94823666D01*
X126944523Y-94823666D02*
X126944523Y-94585571D01*
X126944523Y-94585571D02*
X126896904Y-94395095D01*
X126896904Y-94395095D02*
X126849285Y-94299857D01*
X126849285Y-94299857D02*
X126801666Y-94252238D01*
X126801666Y-94252238D02*
X126706428Y-94204619D01*
%TO.C,C20*%
X132087857Y-91807380D02*
X132135476Y-91855000D01*
X132135476Y-91855000D02*
X132278333Y-91902619D01*
X132278333Y-91902619D02*
X132373571Y-91902619D01*
X132373571Y-91902619D02*
X132516428Y-91855000D01*
X132516428Y-91855000D02*
X132611666Y-91759761D01*
X132611666Y-91759761D02*
X132659285Y-91664523D01*
X132659285Y-91664523D02*
X132706904Y-91474047D01*
X132706904Y-91474047D02*
X132706904Y-91331190D01*
X132706904Y-91331190D02*
X132659285Y-91140714D01*
X132659285Y-91140714D02*
X132611666Y-91045476D01*
X132611666Y-91045476D02*
X132516428Y-90950238D01*
X132516428Y-90950238D02*
X132373571Y-90902619D01*
X132373571Y-90902619D02*
X132278333Y-90902619D01*
X132278333Y-90902619D02*
X132135476Y-90950238D01*
X132135476Y-90950238D02*
X132087857Y-90997857D01*
X131706904Y-90997857D02*
X131659285Y-90950238D01*
X131659285Y-90950238D02*
X131564047Y-90902619D01*
X131564047Y-90902619D02*
X131325952Y-90902619D01*
X131325952Y-90902619D02*
X131230714Y-90950238D01*
X131230714Y-90950238D02*
X131183095Y-90997857D01*
X131183095Y-90997857D02*
X131135476Y-91093095D01*
X131135476Y-91093095D02*
X131135476Y-91188333D01*
X131135476Y-91188333D02*
X131183095Y-91331190D01*
X131183095Y-91331190D02*
X131754523Y-91902619D01*
X131754523Y-91902619D02*
X131135476Y-91902619D01*
X130516428Y-90902619D02*
X130421190Y-90902619D01*
X130421190Y-90902619D02*
X130325952Y-90950238D01*
X130325952Y-90950238D02*
X130278333Y-90997857D01*
X130278333Y-90997857D02*
X130230714Y-91093095D01*
X130230714Y-91093095D02*
X130183095Y-91283571D01*
X130183095Y-91283571D02*
X130183095Y-91521666D01*
X130183095Y-91521666D02*
X130230714Y-91712142D01*
X130230714Y-91712142D02*
X130278333Y-91807380D01*
X130278333Y-91807380D02*
X130325952Y-91855000D01*
X130325952Y-91855000D02*
X130421190Y-91902619D01*
X130421190Y-91902619D02*
X130516428Y-91902619D01*
X130516428Y-91902619D02*
X130611666Y-91855000D01*
X130611666Y-91855000D02*
X130659285Y-91807380D01*
X130659285Y-91807380D02*
X130706904Y-91712142D01*
X130706904Y-91712142D02*
X130754523Y-91521666D01*
X130754523Y-91521666D02*
X130754523Y-91283571D01*
X130754523Y-91283571D02*
X130706904Y-91093095D01*
X130706904Y-91093095D02*
X130659285Y-90997857D01*
X130659285Y-90997857D02*
X130611666Y-90950238D01*
X130611666Y-90950238D02*
X130516428Y-90902619D01*
%TO.C,Q1*%
X105505238Y-98728857D02*
X105600476Y-98681238D01*
X105600476Y-98681238D02*
X105695714Y-98586000D01*
X105695714Y-98586000D02*
X105838571Y-98443142D01*
X105838571Y-98443142D02*
X105933809Y-98395523D01*
X105933809Y-98395523D02*
X106029047Y-98395523D01*
X105981428Y-98633619D02*
X106076666Y-98586000D01*
X106076666Y-98586000D02*
X106171904Y-98490761D01*
X106171904Y-98490761D02*
X106219523Y-98300285D01*
X106219523Y-98300285D02*
X106219523Y-97966952D01*
X106219523Y-97966952D02*
X106171904Y-97776476D01*
X106171904Y-97776476D02*
X106076666Y-97681238D01*
X106076666Y-97681238D02*
X105981428Y-97633619D01*
X105981428Y-97633619D02*
X105790952Y-97633619D01*
X105790952Y-97633619D02*
X105695714Y-97681238D01*
X105695714Y-97681238D02*
X105600476Y-97776476D01*
X105600476Y-97776476D02*
X105552857Y-97966952D01*
X105552857Y-97966952D02*
X105552857Y-98300285D01*
X105552857Y-98300285D02*
X105600476Y-98490761D01*
X105600476Y-98490761D02*
X105695714Y-98586000D01*
X105695714Y-98586000D02*
X105790952Y-98633619D01*
X105790952Y-98633619D02*
X105981428Y-98633619D01*
X104600476Y-98633619D02*
X105171904Y-98633619D01*
X104886190Y-98633619D02*
X104886190Y-97633619D01*
X104886190Y-97633619D02*
X104981428Y-97776476D01*
X104981428Y-97776476D02*
X105076666Y-97871714D01*
X105076666Y-97871714D02*
X105171904Y-97919333D01*
%TO.C,Q2*%
X104870238Y-108380857D02*
X104965476Y-108333238D01*
X104965476Y-108333238D02*
X105060714Y-108238000D01*
X105060714Y-108238000D02*
X105203571Y-108095142D01*
X105203571Y-108095142D02*
X105298809Y-108047523D01*
X105298809Y-108047523D02*
X105394047Y-108047523D01*
X105346428Y-108285619D02*
X105441666Y-108238000D01*
X105441666Y-108238000D02*
X105536904Y-108142761D01*
X105536904Y-108142761D02*
X105584523Y-107952285D01*
X105584523Y-107952285D02*
X105584523Y-107618952D01*
X105584523Y-107618952D02*
X105536904Y-107428476D01*
X105536904Y-107428476D02*
X105441666Y-107333238D01*
X105441666Y-107333238D02*
X105346428Y-107285619D01*
X105346428Y-107285619D02*
X105155952Y-107285619D01*
X105155952Y-107285619D02*
X105060714Y-107333238D01*
X105060714Y-107333238D02*
X104965476Y-107428476D01*
X104965476Y-107428476D02*
X104917857Y-107618952D01*
X104917857Y-107618952D02*
X104917857Y-107952285D01*
X104917857Y-107952285D02*
X104965476Y-108142761D01*
X104965476Y-108142761D02*
X105060714Y-108238000D01*
X105060714Y-108238000D02*
X105155952Y-108285619D01*
X105155952Y-108285619D02*
X105346428Y-108285619D01*
X104536904Y-107380857D02*
X104489285Y-107333238D01*
X104489285Y-107333238D02*
X104394047Y-107285619D01*
X104394047Y-107285619D02*
X104155952Y-107285619D01*
X104155952Y-107285619D02*
X104060714Y-107333238D01*
X104060714Y-107333238D02*
X104013095Y-107380857D01*
X104013095Y-107380857D02*
X103965476Y-107476095D01*
X103965476Y-107476095D02*
X103965476Y-107571333D01*
X103965476Y-107571333D02*
X104013095Y-107714190D01*
X104013095Y-107714190D02*
X104584523Y-108285619D01*
X104584523Y-108285619D02*
X103965476Y-108285619D01*
%TO.C,R14*%
X130055857Y-104094619D02*
X130389190Y-103618428D01*
X130627285Y-104094619D02*
X130627285Y-103094619D01*
X130627285Y-103094619D02*
X130246333Y-103094619D01*
X130246333Y-103094619D02*
X130151095Y-103142238D01*
X130151095Y-103142238D02*
X130103476Y-103189857D01*
X130103476Y-103189857D02*
X130055857Y-103285095D01*
X130055857Y-103285095D02*
X130055857Y-103427952D01*
X130055857Y-103427952D02*
X130103476Y-103523190D01*
X130103476Y-103523190D02*
X130151095Y-103570809D01*
X130151095Y-103570809D02*
X130246333Y-103618428D01*
X130246333Y-103618428D02*
X130627285Y-103618428D01*
X129103476Y-104094619D02*
X129674904Y-104094619D01*
X129389190Y-104094619D02*
X129389190Y-103094619D01*
X129389190Y-103094619D02*
X129484428Y-103237476D01*
X129484428Y-103237476D02*
X129579666Y-103332714D01*
X129579666Y-103332714D02*
X129674904Y-103380333D01*
X128246333Y-103427952D02*
X128246333Y-104094619D01*
X128484428Y-103047000D02*
X128722523Y-103761285D01*
X128722523Y-103761285D02*
X128103476Y-103761285D01*
%TO.C,R2*%
X129706666Y-109682619D02*
X130039999Y-109206428D01*
X130278094Y-109682619D02*
X130278094Y-108682619D01*
X130278094Y-108682619D02*
X129897142Y-108682619D01*
X129897142Y-108682619D02*
X129801904Y-108730238D01*
X129801904Y-108730238D02*
X129754285Y-108777857D01*
X129754285Y-108777857D02*
X129706666Y-108873095D01*
X129706666Y-108873095D02*
X129706666Y-109015952D01*
X129706666Y-109015952D02*
X129754285Y-109111190D01*
X129754285Y-109111190D02*
X129801904Y-109158809D01*
X129801904Y-109158809D02*
X129897142Y-109206428D01*
X129897142Y-109206428D02*
X130278094Y-109206428D01*
X129325713Y-108777857D02*
X129278094Y-108730238D01*
X129278094Y-108730238D02*
X129182856Y-108682619D01*
X129182856Y-108682619D02*
X128944761Y-108682619D01*
X128944761Y-108682619D02*
X128849523Y-108730238D01*
X128849523Y-108730238D02*
X128801904Y-108777857D01*
X128801904Y-108777857D02*
X128754285Y-108873095D01*
X128754285Y-108873095D02*
X128754285Y-108968333D01*
X128754285Y-108968333D02*
X128801904Y-109111190D01*
X128801904Y-109111190D02*
X129373332Y-109682619D01*
X129373332Y-109682619D02*
X128754285Y-109682619D01*
%TO.C,C4*%
X123963666Y-59735380D02*
X124011285Y-59783000D01*
X124011285Y-59783000D02*
X124154142Y-59830619D01*
X124154142Y-59830619D02*
X124249380Y-59830619D01*
X124249380Y-59830619D02*
X124392237Y-59783000D01*
X124392237Y-59783000D02*
X124487475Y-59687761D01*
X124487475Y-59687761D02*
X124535094Y-59592523D01*
X124535094Y-59592523D02*
X124582713Y-59402047D01*
X124582713Y-59402047D02*
X124582713Y-59259190D01*
X124582713Y-59259190D02*
X124535094Y-59068714D01*
X124535094Y-59068714D02*
X124487475Y-58973476D01*
X124487475Y-58973476D02*
X124392237Y-58878238D01*
X124392237Y-58878238D02*
X124249380Y-58830619D01*
X124249380Y-58830619D02*
X124154142Y-58830619D01*
X124154142Y-58830619D02*
X124011285Y-58878238D01*
X124011285Y-58878238D02*
X123963666Y-58925857D01*
X123106523Y-59163952D02*
X123106523Y-59830619D01*
X123344618Y-58783000D02*
X123582713Y-59497285D01*
X123582713Y-59497285D02*
X122963666Y-59497285D01*
%TO.C,Q4*%
X133953238Y-112317857D02*
X134048476Y-112270238D01*
X134048476Y-112270238D02*
X134143714Y-112175000D01*
X134143714Y-112175000D02*
X134286571Y-112032142D01*
X134286571Y-112032142D02*
X134381809Y-111984523D01*
X134381809Y-111984523D02*
X134477047Y-111984523D01*
X134429428Y-112222619D02*
X134524666Y-112175000D01*
X134524666Y-112175000D02*
X134619904Y-112079761D01*
X134619904Y-112079761D02*
X134667523Y-111889285D01*
X134667523Y-111889285D02*
X134667523Y-111555952D01*
X134667523Y-111555952D02*
X134619904Y-111365476D01*
X134619904Y-111365476D02*
X134524666Y-111270238D01*
X134524666Y-111270238D02*
X134429428Y-111222619D01*
X134429428Y-111222619D02*
X134238952Y-111222619D01*
X134238952Y-111222619D02*
X134143714Y-111270238D01*
X134143714Y-111270238D02*
X134048476Y-111365476D01*
X134048476Y-111365476D02*
X134000857Y-111555952D01*
X134000857Y-111555952D02*
X134000857Y-111889285D01*
X134000857Y-111889285D02*
X134048476Y-112079761D01*
X134048476Y-112079761D02*
X134143714Y-112175000D01*
X134143714Y-112175000D02*
X134238952Y-112222619D01*
X134238952Y-112222619D02*
X134429428Y-112222619D01*
X133143714Y-111555952D02*
X133143714Y-112222619D01*
X133381809Y-111175000D02*
X133619904Y-111889285D01*
X133619904Y-111889285D02*
X133000857Y-111889285D01*
%TO.C,Q5*%
X134207238Y-101903857D02*
X134302476Y-101856238D01*
X134302476Y-101856238D02*
X134397714Y-101761000D01*
X134397714Y-101761000D02*
X134540571Y-101618142D01*
X134540571Y-101618142D02*
X134635809Y-101570523D01*
X134635809Y-101570523D02*
X134731047Y-101570523D01*
X134683428Y-101808619D02*
X134778666Y-101761000D01*
X134778666Y-101761000D02*
X134873904Y-101665761D01*
X134873904Y-101665761D02*
X134921523Y-101475285D01*
X134921523Y-101475285D02*
X134921523Y-101141952D01*
X134921523Y-101141952D02*
X134873904Y-100951476D01*
X134873904Y-100951476D02*
X134778666Y-100856238D01*
X134778666Y-100856238D02*
X134683428Y-100808619D01*
X134683428Y-100808619D02*
X134492952Y-100808619D01*
X134492952Y-100808619D02*
X134397714Y-100856238D01*
X134397714Y-100856238D02*
X134302476Y-100951476D01*
X134302476Y-100951476D02*
X134254857Y-101141952D01*
X134254857Y-101141952D02*
X134254857Y-101475285D01*
X134254857Y-101475285D02*
X134302476Y-101665761D01*
X134302476Y-101665761D02*
X134397714Y-101761000D01*
X134397714Y-101761000D02*
X134492952Y-101808619D01*
X134492952Y-101808619D02*
X134683428Y-101808619D01*
X133350095Y-100808619D02*
X133826285Y-100808619D01*
X133826285Y-100808619D02*
X133873904Y-101284809D01*
X133873904Y-101284809D02*
X133826285Y-101237190D01*
X133826285Y-101237190D02*
X133731047Y-101189571D01*
X133731047Y-101189571D02*
X133492952Y-101189571D01*
X133492952Y-101189571D02*
X133397714Y-101237190D01*
X133397714Y-101237190D02*
X133350095Y-101284809D01*
X133350095Y-101284809D02*
X133302476Y-101380047D01*
X133302476Y-101380047D02*
X133302476Y-101618142D01*
X133302476Y-101618142D02*
X133350095Y-101713380D01*
X133350095Y-101713380D02*
X133397714Y-101761000D01*
X133397714Y-101761000D02*
X133492952Y-101808619D01*
X133492952Y-101808619D02*
X133731047Y-101808619D01*
X133731047Y-101808619D02*
X133826285Y-101761000D01*
X133826285Y-101761000D02*
X133873904Y-101713380D01*
%TO.C,U11*%
X106394094Y-83028619D02*
X106394094Y-83838142D01*
X106394094Y-83838142D02*
X106346475Y-83933380D01*
X106346475Y-83933380D02*
X106298856Y-83981000D01*
X106298856Y-83981000D02*
X106203618Y-84028619D01*
X106203618Y-84028619D02*
X106013142Y-84028619D01*
X106013142Y-84028619D02*
X105917904Y-83981000D01*
X105917904Y-83981000D02*
X105870285Y-83933380D01*
X105870285Y-83933380D02*
X105822666Y-83838142D01*
X105822666Y-83838142D02*
X105822666Y-83028619D01*
X104822666Y-84028619D02*
X105394094Y-84028619D01*
X105108380Y-84028619D02*
X105108380Y-83028619D01*
X105108380Y-83028619D02*
X105203618Y-83171476D01*
X105203618Y-83171476D02*
X105298856Y-83266714D01*
X105298856Y-83266714D02*
X105394094Y-83314333D01*
X103870285Y-84028619D02*
X104441713Y-84028619D01*
X104155999Y-84028619D02*
X104155999Y-83028619D01*
X104155999Y-83028619D02*
X104251237Y-83171476D01*
X104251237Y-83171476D02*
X104346475Y-83266714D01*
X104346475Y-83266714D02*
X104441713Y-83314333D01*
D11*
%TO.C,C1*%
X128878000Y-59174748D02*
X128878000Y-59697252D01*
X127408000Y-59174748D02*
X127408000Y-59697252D01*
%TO.C,U3*%
X113468000Y-47265000D02*
X113468000Y-46995000D01*
X113468000Y-46995000D02*
X114568000Y-46995000D01*
X113468000Y-40635000D02*
X116298000Y-40635000D01*
X113468000Y-40365000D02*
X113468000Y-40635000D01*
X107048000Y-47265000D02*
X113468000Y-47265000D01*
X107048000Y-40365000D02*
X113468000Y-40365000D01*
%TO.C,R25*%
X123978641Y-38607000D02*
X123671359Y-38607000D01*
X123978641Y-37847000D02*
X123671359Y-37847000D01*
%TO.C,R24*%
X127407641Y-38609000D02*
X127100359Y-38609000D01*
X127407641Y-39369000D02*
X127100359Y-39369000D01*
%TO.C,R21*%
X117364742Y-38466500D02*
X117839258Y-38466500D01*
X117364742Y-39511500D02*
X117839258Y-39511500D01*
%TO.C,D1*%
X124102000Y-44967000D02*
X129912000Y-44967000D01*
X124102000Y-49267000D02*
X124102000Y-44967000D01*
X124102000Y-49267000D02*
X129912000Y-49267000D01*
%TO.C,D4*%
X124102000Y-39760000D02*
X129912000Y-39760000D01*
X124102000Y-44060000D02*
X124102000Y-39760000D01*
X124102000Y-44060000D02*
X129912000Y-44060000D01*
%TO.C,Q6*%
X116283500Y-121249000D02*
X115633500Y-121249000D01*
X116283500Y-121249000D02*
X116933500Y-121249000D01*
X116283500Y-124369000D02*
X114608500Y-124369000D01*
X116283500Y-124369000D02*
X116933500Y-124369000D01*
%TO.C,R13*%
X101880641Y-113537000D02*
X101573359Y-113537000D01*
X101880641Y-112777000D02*
X101573359Y-112777000D01*
%TO.C,C3*%
X112016000Y-72056420D02*
X112016000Y-72337580D01*
X110996000Y-72056420D02*
X110996000Y-72337580D01*
%TO.C,C11*%
X128129420Y-88898000D02*
X128410580Y-88898000D01*
X128129420Y-89918000D02*
X128410580Y-89918000D01*
%TO.C,C21*%
X108471580Y-67881000D02*
X108190420Y-67881000D01*
X108471580Y-66861000D02*
X108190420Y-66861000D01*
%TO.C,R16*%
X131291359Y-97029000D02*
X131598641Y-97029000D01*
X131291359Y-97789000D02*
X131598641Y-97789000D01*
%TO.C,C7*%
X120144001Y-46468421D02*
X120144001Y-46749581D01*
X119124001Y-46468421D02*
X119124001Y-46749581D01*
%TO.C,R1*%
X103023641Y-96687000D02*
X102716359Y-96687000D01*
X103023641Y-95927000D02*
X102716359Y-95927000D01*
%TO.C,R9*%
X131672359Y-113666000D02*
X131979641Y-113666000D01*
X131672359Y-114426000D02*
X131979641Y-114426000D01*
%TO.C,R8*%
X102007641Y-103250000D02*
X101700359Y-103250000D01*
X102007641Y-102490000D02*
X101700359Y-102490000D01*
%TO.C,R11*%
X100456000Y-66140359D02*
X100456000Y-66447641D01*
X99696000Y-66140359D02*
X99696000Y-66447641D01*
%TO.C,C10*%
X113611252Y-49248999D02*
X113088748Y-49248999D01*
X113611252Y-47778999D02*
X113088748Y-47778999D01*
%TO.C,C26*%
X125322420Y-66480000D02*
X125603580Y-66480000D01*
X125322420Y-67500000D02*
X125603580Y-67500000D01*
%TO.C,R23*%
X129005359Y-49785000D02*
X129312641Y-49785000D01*
X129005359Y-50545000D02*
X129312641Y-50545000D01*
%TO.C,Q3*%
X121448000Y-42164000D02*
X121448000Y-41514000D01*
X121448000Y-42164000D02*
X121448000Y-42814000D01*
X118328000Y-42164000D02*
X118328000Y-40489000D01*
X118328000Y-42164000D02*
X118328000Y-42814000D01*
%TO.C,C22*%
X117600000Y-71448580D02*
X117600000Y-71167420D01*
X118620000Y-71448580D02*
X118620000Y-71167420D01*
%TO.C,C12*%
X104915580Y-90045000D02*
X104634420Y-90045000D01*
X104915580Y-89025000D02*
X104634420Y-89025000D01*
%TO.C,U10*%
X124245000Y-51178000D02*
X120245000Y-51178000D01*
X128245000Y-57398000D02*
X120245000Y-57398000D01*
%TO.C,C17*%
X120890420Y-61273000D02*
X121171580Y-61273000D01*
X120890420Y-62293000D02*
X121171580Y-62293000D01*
%TO.C,R18*%
X123570000Y-62264359D02*
X123570000Y-62571641D01*
X122810000Y-62264359D02*
X122810000Y-62571641D01*
%TO.C,R12*%
X131852641Y-109600000D02*
X131545359Y-109600000D01*
X131852641Y-108840000D02*
X131545359Y-108840000D01*
%TO.C,C23*%
X114835000Y-59824252D02*
X114835000Y-59301748D01*
X116305000Y-59824252D02*
X116305000Y-59301748D01*
%TO.C,C18*%
X120890420Y-62924000D02*
X121171580Y-62924000D01*
X120890420Y-63944000D02*
X121171580Y-63944000D01*
%TO.C,R7*%
X101573359Y-111380000D02*
X101880641Y-111380000D01*
X101573359Y-112140000D02*
X101880641Y-112140000D01*
%TO.C,R10*%
X134519641Y-90677000D02*
X134212359Y-90677000D01*
X134519641Y-89917000D02*
X134212359Y-89917000D01*
%TO.C,R17*%
X121395258Y-39511500D02*
X120920742Y-39511500D01*
X121395258Y-38466500D02*
X120920742Y-38466500D01*
%TO.C,R6*%
X102642641Y-106679000D02*
X102335359Y-106679000D01*
X102642641Y-105919000D02*
X102335359Y-105919000D01*
%TO.C,C5*%
X122274000Y-46601747D02*
X122274000Y-47124251D01*
X120804000Y-46601747D02*
X120804000Y-47124251D01*
%TO.C,Q7*%
X113870500Y-36855000D02*
X113220500Y-36855000D01*
X113870500Y-36855000D02*
X115545500Y-36855000D01*
X113870500Y-39975000D02*
X113220500Y-39975000D01*
X113870500Y-39975000D02*
X114520500Y-39975000D01*
%TO.C,C24*%
X116838000Y-59764580D02*
X116838000Y-59483420D01*
X117858000Y-59764580D02*
X117858000Y-59483420D01*
%TO.C,C2*%
X127671000Y-99232000D02*
X105871000Y-99232000D01*
X105871000Y-99232000D02*
X105871000Y-120732000D01*
X127671000Y-120732000D02*
X127671000Y-99232000D01*
X127671000Y-120732000D02*
X105871000Y-120732000D01*
%TO.C,R15*%
X131598641Y-99059000D02*
X131291359Y-99059000D01*
X131598641Y-98299000D02*
X131291359Y-98299000D01*
%TO.C,C16*%
X104896252Y-92174999D02*
X104373748Y-92174999D01*
X104896252Y-90704999D02*
X104373748Y-90704999D01*
%TO.C,C9*%
X116638420Y-47750000D02*
X116919580Y-47750000D01*
X116638420Y-48770000D02*
X116919580Y-48770000D01*
%TO.C,R4*%
X103760000Y-66574641D02*
X103760000Y-66267359D01*
X104520000Y-66574641D02*
X104520000Y-66267359D01*
%TO.C,C6*%
X110336001Y-72062748D02*
X110336001Y-72585252D01*
X108866001Y-72062748D02*
X108866001Y-72585252D01*
%TO.C,R5*%
X101700359Y-101093000D02*
X102007641Y-101093000D01*
X101700359Y-101853000D02*
X102007641Y-101853000D01*
%TO.C,R19*%
X120168641Y-98932000D02*
X119861359Y-98932000D01*
X120168641Y-98172000D02*
X119861359Y-98172000D01*
%TO.C,C8*%
X134533748Y-91467000D02*
X135056252Y-91467000D01*
X134533748Y-92937000D02*
X135056252Y-92937000D01*
%TO.C,C27*%
X119280000Y-71452301D02*
X119280000Y-70929797D01*
X120750000Y-71452301D02*
X120750000Y-70929797D01*
%TO.C,R3*%
X135127000Y-43661359D02*
X135127000Y-43968641D01*
X134367000Y-43661359D02*
X134367000Y-43968641D01*
%TO.C,R20*%
X127788641Y-93852000D02*
X127481359Y-93852000D01*
X127788641Y-93092000D02*
X127481359Y-93092000D01*
%TO.C,C20*%
X128032748Y-90704999D02*
X128555252Y-90704999D01*
X128032748Y-92174999D02*
X128555252Y-92174999D01*
%TO.C,Q1*%
X102440500Y-100427000D02*
X103090500Y-100427000D01*
X102440500Y-100427000D02*
X101790500Y-100427000D01*
X102440500Y-97307000D02*
X104115500Y-97307000D01*
X102440500Y-97307000D02*
X101790500Y-97307000D01*
%TO.C,Q2*%
X101981000Y-110526000D02*
X102631000Y-110526000D01*
X101981000Y-110526000D02*
X101331000Y-110526000D01*
X101981000Y-107406000D02*
X103656000Y-107406000D01*
X101981000Y-107406000D02*
X101331000Y-107406000D01*
%TO.C,R14*%
X131672359Y-103379000D02*
X131979641Y-103379000D01*
X131672359Y-104139000D02*
X131979641Y-104139000D01*
%TO.C,R2*%
X131545359Y-107697000D02*
X131852641Y-107697000D01*
X131545359Y-108457000D02*
X131852641Y-108457000D01*
%TO.C,C4*%
X126085000Y-59110968D02*
X126085000Y-59392128D01*
X125065000Y-59110968D02*
X125065000Y-59392128D01*
%TO.C,Q4*%
X130888500Y-110073000D02*
X130238500Y-110073000D01*
X130888500Y-110073000D02*
X131538500Y-110073000D01*
X130888500Y-113193000D02*
X129213500Y-113193000D01*
X130888500Y-113193000D02*
X131538500Y-113193000D01*
%TO.C,Q5*%
X130888500Y-99786000D02*
X130238500Y-99786000D01*
X130888500Y-99786000D02*
X131538500Y-99786000D01*
X130888500Y-102906000D02*
X129213500Y-102906000D01*
X130888500Y-102906000D02*
X131538500Y-102906000D01*
D12*
%TO.C,U11*%
X108539000Y-81662000D02*
X124539000Y-81662000D01*
X108539000Y-97662000D02*
X124539000Y-97662000D01*
D13*
X106489000Y-96712000D02*
G75*
G03*
X106489000Y-96712000I-100000J0D01*
G01*
%TD*%
M02*
