%TF.GenerationSoftware,KiCad,Pcbnew,7.0.1*%
%TF.CreationDate,2024-01-06T20:51:44-05:00*%
%TF.ProjectId,Io-v2-Board,496f2d76-322d-4426-9f61-72642e6b6963,rev?*%
%TF.SameCoordinates,Original*%
%TF.FileFunction,Copper,L4,Bot*%
%TF.FilePolarity,Positive*%
%FSLAX46Y46*%
G04 Gerber Fmt 4.6, Leading zero omitted, Abs format (unit mm)*
G04 Created by KiCad (PCBNEW 7.0.1) date 2024-01-06 20:51:44*
%MOMM*%
%LPD*%
G01*
G04 APERTURE LIST*
G04 Aperture macros list*
%AMRoundRect*
0 Rectangle with rounded corners*
0 $1 Rounding radius*
0 $2 $3 $4 $5 $6 $7 $8 $9 X,Y pos of 4 corners*
0 Add a 4 corners polygon primitive as box body*
4,1,4,$2,$3,$4,$5,$6,$7,$8,$9,$2,$3,0*
0 Add four circle primitives for the rounded corners*
1,1,$1+$1,$2,$3*
1,1,$1+$1,$4,$5*
1,1,$1+$1,$6,$7*
1,1,$1+$1,$8,$9*
0 Add four rect primitives between the rounded corners*
20,1,$1+$1,$2,$3,$4,$5,0*
20,1,$1+$1,$4,$5,$6,$7,0*
20,1,$1+$1,$6,$7,$8,$9,0*
20,1,$1+$1,$8,$9,$2,$3,0*%
G04 Aperture macros list end*
%TA.AperFunction,SMDPad,CuDef*%
%ADD10RoundRect,0.250000X-0.475000X0.250000X-0.475000X-0.250000X0.475000X-0.250000X0.475000X0.250000X0*%
%TD*%
%TA.AperFunction,SMDPad,CuDef*%
%ADD11RoundRect,0.250000X0.850000X0.350000X-0.850000X0.350000X-0.850000X-0.350000X0.850000X-0.350000X0*%
%TD*%
%TA.AperFunction,SMDPad,CuDef*%
%ADD12RoundRect,0.250000X1.275000X1.125000X-1.275000X1.125000X-1.275000X-1.125000X1.275000X-1.125000X0*%
%TD*%
%TA.AperFunction,SMDPad,CuDef*%
%ADD13RoundRect,0.249997X2.950003X2.650003X-2.950003X2.650003X-2.950003X-2.650003X2.950003X-2.650003X0*%
%TD*%
%TA.AperFunction,SMDPad,CuDef*%
%ADD14RoundRect,0.135000X0.135000X0.185000X-0.135000X0.185000X-0.135000X-0.185000X0.135000X-0.185000X0*%
%TD*%
%TA.AperFunction,SMDPad,CuDef*%
%ADD15RoundRect,0.200000X-0.200000X-0.275000X0.200000X-0.275000X0.200000X0.275000X-0.200000X0.275000X0*%
%TD*%
%TA.AperFunction,SMDPad,CuDef*%
%ADD16RoundRect,0.250000X-1.000000X-0.900000X1.000000X-0.900000X1.000000X0.900000X-1.000000X0.900000X0*%
%TD*%
%TA.AperFunction,ComponentPad*%
%ADD17RoundRect,0.250000X-0.650000X0.250000X-0.650000X-0.250000X0.650000X-0.250000X0.650000X0.250000X0*%
%TD*%
%TA.AperFunction,ComponentPad*%
%ADD18O,2.100000X1.000000*%
%TD*%
%TA.AperFunction,ComponentPad*%
%ADD19C,2.000000*%
%TD*%
%TA.AperFunction,SMDPad,CuDef*%
%ADD20RoundRect,0.150000X-0.587500X-0.150000X0.587500X-0.150000X0.587500X0.150000X-0.587500X0.150000X0*%
%TD*%
%TA.AperFunction,SMDPad,CuDef*%
%ADD21RoundRect,0.225000X-0.250000X0.225000X-0.250000X-0.225000X0.250000X-0.225000X0.250000X0.225000X0*%
%TD*%
%TA.AperFunction,SMDPad,CuDef*%
%ADD22RoundRect,0.225000X-0.225000X-0.250000X0.225000X-0.250000X0.225000X0.250000X-0.225000X0.250000X0*%
%TD*%
%TA.AperFunction,SMDPad,CuDef*%
%ADD23RoundRect,0.225000X0.225000X0.250000X-0.225000X0.250000X-0.225000X-0.250000X0.225000X-0.250000X0*%
%TD*%
%TA.AperFunction,SMDPad,CuDef*%
%ADD24RoundRect,0.135000X-0.135000X-0.185000X0.135000X-0.185000X0.135000X0.185000X-0.135000X0.185000X0*%
%TD*%
%TA.AperFunction,SMDPad,CuDef*%
%ADD25RoundRect,0.135000X-0.185000X0.135000X-0.185000X-0.135000X0.185000X-0.135000X0.185000X0.135000X0*%
%TD*%
%TA.AperFunction,SMDPad,CuDef*%
%ADD26RoundRect,0.250000X0.250000X0.475000X-0.250000X0.475000X-0.250000X-0.475000X0.250000X-0.475000X0*%
%TD*%
%TA.AperFunction,SMDPad,CuDef*%
%ADD27RoundRect,0.150000X-0.150000X0.587500X-0.150000X-0.587500X0.150000X-0.587500X0.150000X0.587500X0*%
%TD*%
%TA.AperFunction,SMDPad,CuDef*%
%ADD28RoundRect,0.225000X0.250000X-0.225000X0.250000X0.225000X-0.250000X0.225000X-0.250000X-0.225000X0*%
%TD*%
%TA.AperFunction,SMDPad,CuDef*%
%ADD29R,3.400000X4.300000*%
%TD*%
%TA.AperFunction,SMDPad,CuDef*%
%ADD30RoundRect,0.125000X0.200000X0.125000X-0.200000X0.125000X-0.200000X-0.125000X0.200000X-0.125000X0*%
%TD*%
%TA.AperFunction,SMDPad,CuDef*%
%ADD31RoundRect,0.250000X0.475000X-0.250000X0.475000X0.250000X-0.475000X0.250000X-0.475000X-0.250000X0*%
%TD*%
%TA.AperFunction,SMDPad,CuDef*%
%ADD32RoundRect,0.200000X0.200000X0.275000X-0.200000X0.275000X-0.200000X-0.275000X0.200000X-0.275000X0*%
%TD*%
%TA.AperFunction,SMDPad,CuDef*%
%ADD33RoundRect,0.150000X0.587500X0.150000X-0.587500X0.150000X-0.587500X-0.150000X0.587500X-0.150000X0*%
%TD*%
%TA.AperFunction,ComponentPad*%
%ADD34C,1.524000*%
%TD*%
%TA.AperFunction,SMDPad,CuDef*%
%ADD35RoundRect,0.135000X0.185000X-0.135000X0.185000X0.135000X-0.185000X0.135000X-0.185000X-0.135000X0*%
%TD*%
%TA.AperFunction,SMDPad,CuDef*%
%ADD36R,4.560000X1.000000*%
%TD*%
%TA.AperFunction,SMDPad,CuDef*%
%ADD37RoundRect,0.250000X-0.250000X-0.475000X0.250000X-0.475000X0.250000X0.475000X-0.250000X0.475000X0*%
%TD*%
%TA.AperFunction,SMDPad,CuDef*%
%ADD38R,3.000000X1.400000*%
%TD*%
%TA.AperFunction,ViaPad*%
%ADD39C,0.700000*%
%TD*%
%TA.AperFunction,ViaPad*%
%ADD40C,0.800000*%
%TD*%
%TA.AperFunction,Conductor*%
%ADD41C,0.200000*%
%TD*%
%TA.AperFunction,Conductor*%
%ADD42C,0.250000*%
%TD*%
%TA.AperFunction,Conductor*%
%ADD43C,1.000000*%
%TD*%
%TA.AperFunction,Conductor*%
%ADD44C,0.500000*%
%TD*%
%TA.AperFunction,Conductor*%
%ADD45C,0.700000*%
%TD*%
G04 APERTURE END LIST*
D10*
%TO.P,C1,1*%
%TO.N,+3.3V*%
X128143000Y-58486000D03*
%TO.P,C1,2*%
%TO.N,GND*%
X128143000Y-60386000D03*
%TD*%
D11*
%TO.P,U3,1,VI*%
%TO.N,/VIN*%
X115198000Y-41535000D03*
%TO.P,U3,2,GND*%
%TO.N,GND*%
X115198000Y-43815000D03*
D12*
X110573000Y-45340000D03*
X110573000Y-42290000D03*
D13*
X108898000Y-43815000D03*
D12*
X107223000Y-45340000D03*
X107223000Y-42290000D03*
D11*
%TO.P,U3,3,VO*%
%TO.N,+3.3V*%
X115198000Y-46095000D03*
%TD*%
D14*
%TO.P,R25,2*%
%TO.N,GND*%
X123315000Y-38227000D03*
%TO.P,R25,1*%
%TO.N,/VSW_DET*%
X124335000Y-38227000D03*
%TD*%
%TO.P,R24,1*%
%TO.N,/VSW*%
X127764000Y-38989000D03*
%TO.P,R24,2*%
%TO.N,/VSW_DET*%
X126744000Y-38989000D03*
%TD*%
D15*
%TO.P,R21,1*%
%TO.N,Net-(Q7-D)*%
X116777000Y-38989000D03*
%TO.P,R21,2*%
%TO.N,/VPYRO*%
X118427000Y-38989000D03*
%TD*%
D16*
%TO.P,D1,1,K*%
%TO.N,/VIN*%
X125612000Y-47117000D03*
%TO.P,D1,2,A*%
%TO.N,/VBUS*%
X129912000Y-47117000D03*
%TD*%
D17*
%TO.P,J2,SH4,SHELL_GND__3*%
%TO.N,GND*%
X96647000Y-70075000D03*
%TO.P,J2,SH3,SHELL_GND__2*%
X96647000Y-61435000D03*
D18*
%TO.P,J2,SH2,SHELL_GND__1*%
X100827000Y-70075000D03*
%TO.P,J2,SH1,SHELL_GND*%
X100827000Y-61435000D03*
%TD*%
D19*
%TO.P,J1,1,Pin_1*%
%TO.N,/VBAT*%
X135636000Y-58955000D03*
%TO.P,J1,2,Pin_2*%
%TO.N,GND*%
X135636000Y-53875000D03*
%TO.P,J1,3,Pin_3*%
%TO.N,/VSW*%
X135636000Y-48795000D03*
%TD*%
%TO.P,J4,1,Pin_1*%
%TO.N,/PYRO1_SW*%
X98683000Y-98933000D03*
%TO.P,J4,2,Pin_2*%
%TO.N,/VPYRO*%
X98683000Y-104013000D03*
%TO.P,J4,3,Pin_3*%
%TO.N,/PYRO2_SW*%
X98683000Y-109093000D03*
%TO.P,J4,4,Pin_4*%
%TO.N,/VPYRO*%
X98683000Y-114173000D03*
%TD*%
%TO.P,J3,1,Pin_1*%
%TO.N,/VBAT*%
X98302000Y-48895000D03*
%TO.P,J3,2,Pin_2*%
%TO.N,GND*%
X98302000Y-53975000D03*
%TD*%
%TO.P,J5,1,Pin_1*%
%TO.N,/PYRO3_SW*%
X135001000Y-114073000D03*
%TO.P,J5,2,Pin_2*%
%TO.N,/VPYRO*%
X135001000Y-108993000D03*
%TO.P,J5,3,Pin_3*%
%TO.N,/PYRO4_SW*%
X135001000Y-103913000D03*
%TO.P,J5,4,Pin_4*%
%TO.N,/VPYRO*%
X135001000Y-98833000D03*
%TD*%
D16*
%TO.P,D4,1,K*%
%TO.N,/VSW_D*%
X125612000Y-41910000D03*
%TO.P,D4,2,A*%
%TO.N,/VSW*%
X129912000Y-41910000D03*
%TD*%
D20*
%TO.P,Q6,1,G*%
%TO.N,/BUZZ_OUT*%
X115346000Y-123759000D03*
%TO.P,Q6,2,S*%
%TO.N,Net-(Q6-S)*%
X115346000Y-121859000D03*
%TO.P,Q6,3,D*%
%TO.N,+3.3V*%
X117221000Y-122809000D03*
%TD*%
D14*
%TO.P,R13,1*%
%TO.N,/PYRO2_DET*%
X102237000Y-113157000D03*
%TO.P,R13,2*%
%TO.N,GND*%
X101217000Y-113157000D03*
%TD*%
D21*
%TO.P,C3,1*%
%TO.N,+3.3V*%
X111506000Y-71422000D03*
%TO.P,C3,2*%
%TO.N,GND*%
X111506000Y-72972000D03*
%TD*%
D22*
%TO.P,C11,1*%
%TO.N,+3.3V*%
X127495000Y-89408000D03*
%TO.P,C11,2*%
%TO.N,GND*%
X129045000Y-89408000D03*
%TD*%
D23*
%TO.P,C21,1*%
%TO.N,/MAG_C*%
X109106000Y-67371000D03*
%TO.P,C21,2*%
%TO.N,GND*%
X107556000Y-67371000D03*
%TD*%
D24*
%TO.P,R16,1*%
%TO.N,/PYRO4_DET*%
X130935000Y-97409000D03*
%TO.P,R16,2*%
%TO.N,GND*%
X131955000Y-97409000D03*
%TD*%
D21*
%TO.P,C7,1*%
%TO.N,/VIN*%
X119634001Y-45834001D03*
%TO.P,C7,2*%
%TO.N,GND*%
X119634001Y-47384001D03*
%TD*%
D14*
%TO.P,R1,1*%
%TO.N,/PYRO1*%
X103380000Y-96307000D03*
%TO.P,R1,2*%
%TO.N,GND*%
X102360000Y-96307000D03*
%TD*%
D24*
%TO.P,R9,1*%
%TO.N,/PYRO3*%
X131316000Y-114046000D03*
%TO.P,R9,2*%
%TO.N,GND*%
X132336000Y-114046000D03*
%TD*%
D14*
%TO.P,R8,1*%
%TO.N,/PYRO1_DET*%
X102364000Y-102870000D03*
%TO.P,R8,2*%
%TO.N,GND*%
X101344000Y-102870000D03*
%TD*%
D25*
%TO.P,R11,1*%
%TO.N,Net-(J2-CC1)*%
X100076000Y-65784000D03*
%TO.P,R11,2*%
%TO.N,GND*%
X100076000Y-66804000D03*
%TD*%
D26*
%TO.P,C10,1*%
%TO.N,+3.3V*%
X114300000Y-48513999D03*
%TO.P,C10,2*%
%TO.N,GND*%
X112400000Y-48513999D03*
%TD*%
D22*
%TO.P,C26,1*%
%TO.N,+3.3V*%
X124688000Y-66990000D03*
%TO.P,C26,2*%
%TO.N,GND*%
X126238000Y-66990000D03*
%TD*%
D24*
%TO.P,R23,1*%
%TO.N,/VIN*%
X128649000Y-50165000D03*
%TO.P,R23,2*%
%TO.N,GND*%
X129669000Y-50165000D03*
%TD*%
D27*
%TO.P,Q3,1,G*%
%TO.N,/VBUS*%
X118938000Y-41226500D03*
%TO.P,Q3,2,S*%
%TO.N,/VIN*%
X120838000Y-41226500D03*
%TO.P,Q3,3,D*%
%TO.N,/VSW_D*%
X119888000Y-43101500D03*
%TD*%
D28*
%TO.P,C22,1*%
%TO.N,+3.3V*%
X118110000Y-72083000D03*
%TO.P,C22,2*%
%TO.N,GND*%
X118110000Y-70533000D03*
%TD*%
D23*
%TO.P,C12,1*%
%TO.N,+3.3V*%
X105550000Y-89535000D03*
%TO.P,C12,2*%
%TO.N,GND*%
X104000000Y-89535000D03*
%TD*%
D29*
%TO.P,U10,9,EXP*%
%TO.N,GND*%
X124245000Y-54288000D03*
D30*
%TO.P,U10,8,VCC*%
%TO.N,+3.3V*%
X120495000Y-52383000D03*
%TO.P,U10,7,~{HOLD}/~{RESET}(IO3)*%
X120495000Y-53653000D03*
%TO.P,U10,6,CLK*%
%TO.N,/SPI3_SCL*%
X120495000Y-54923000D03*
%TO.P,U10,5,DI(IO0)*%
%TO.N,/SPI3_MOSI*%
X120495000Y-56193000D03*
%TO.P,U10,4,GND*%
%TO.N,GND*%
X127995000Y-56193000D03*
%TO.P,U10,3,~{WP}(IO2)*%
%TO.N,+3.3V*%
X127995000Y-54923000D03*
%TO.P,U10,2,DO(IO1)*%
%TO.N,/SPI3_MISO*%
X127995000Y-53653000D03*
%TO.P,U10,1,~{CS}*%
%TO.N,/FLASH_CS*%
X127995000Y-52383000D03*
%TD*%
D22*
%TO.P,C17,1*%
%TO.N,/GYRO_PLLFILT*%
X120256000Y-61783000D03*
%TO.P,C17,2*%
%TO.N,GND*%
X121806000Y-61783000D03*
%TD*%
D25*
%TO.P,R18,1*%
%TO.N,GND*%
X123190000Y-61908000D03*
%TO.P,R18,2*%
%TO.N,/GYRO_CR*%
X123190000Y-62928000D03*
%TD*%
D14*
%TO.P,R12,1*%
%TO.N,/PYRO3_SW*%
X132209000Y-109220000D03*
%TO.P,R12,2*%
%TO.N,/PYRO3_DET*%
X131189000Y-109220000D03*
%TD*%
D31*
%TO.P,C23,1*%
%TO.N,+3.3V*%
X115570000Y-60513000D03*
%TO.P,C23,2*%
%TO.N,GND*%
X115570000Y-58613000D03*
%TD*%
D22*
%TO.P,C18,1*%
%TO.N,/GYRO_PLLFILT*%
X120256000Y-63434000D03*
%TO.P,C18,2*%
%TO.N,/GYRO_CR*%
X121806000Y-63434000D03*
%TD*%
D24*
%TO.P,R7,1*%
%TO.N,/PYRO2_SW*%
X101217000Y-111760000D03*
%TO.P,R7,2*%
%TO.N,/PYRO2_DET*%
X102237000Y-111760000D03*
%TD*%
D14*
%TO.P,R10,1*%
%TO.N,+3.3V*%
X134876000Y-90297000D03*
%TO.P,R10,2*%
%TO.N,/RST*%
X133856000Y-90297000D03*
%TD*%
D32*
%TO.P,R17,1*%
%TO.N,/VSW_D*%
X121983000Y-38989000D03*
%TO.P,R17,2*%
%TO.N,/VPYRO*%
X120333000Y-38989000D03*
%TD*%
D14*
%TO.P,R6,1*%
%TO.N,/PYRO2*%
X102999000Y-106299000D03*
%TO.P,R6,2*%
%TO.N,GND*%
X101979000Y-106299000D03*
%TD*%
D10*
%TO.P,C5,1*%
%TO.N,/VIN*%
X121539000Y-45912999D03*
%TO.P,C5,2*%
%TO.N,GND*%
X121539000Y-47812999D03*
%TD*%
D33*
%TO.P,Q7,3,D*%
%TO.N,Net-(Q7-D)*%
X112933000Y-38415000D03*
%TO.P,Q7,2,S*%
%TO.N,GND*%
X114808000Y-39365000D03*
%TO.P,Q7,1,G*%
%TO.N,/VSW*%
X114808000Y-37465000D03*
%TD*%
D28*
%TO.P,C24,1*%
%TO.N,+3.3V*%
X117348000Y-60399000D03*
%TO.P,C24,2*%
%TO.N,GND*%
X117348000Y-58849000D03*
%TD*%
D34*
%TO.P,C2,1*%
%TO.N,/VPYRO*%
X110871000Y-101732000D03*
%TO.P,C2,2*%
%TO.N,GND*%
X122671000Y-101732000D03*
%TD*%
D14*
%TO.P,R15,1*%
%TO.N,/PYRO4_SW*%
X131955000Y-98679000D03*
%TO.P,R15,2*%
%TO.N,/PYRO4_DET*%
X130935000Y-98679000D03*
%TD*%
D26*
%TO.P,C16,1*%
%TO.N,+3.3V*%
X105585000Y-91439999D03*
%TO.P,C16,2*%
%TO.N,GND*%
X103685000Y-91439999D03*
%TD*%
D22*
%TO.P,C9,1*%
%TO.N,+3.3V*%
X116004000Y-48260000D03*
%TO.P,C9,2*%
%TO.N,GND*%
X117554000Y-48260000D03*
%TD*%
D35*
%TO.P,R4,1*%
%TO.N,Net-(J2-CC2)*%
X104140000Y-66931000D03*
%TO.P,R4,2*%
%TO.N,GND*%
X104140000Y-65911000D03*
%TD*%
D10*
%TO.P,C6,1*%
%TO.N,+3.3V*%
X109601001Y-71374000D03*
%TO.P,C6,2*%
%TO.N,GND*%
X109601001Y-73274000D03*
%TD*%
D36*
%TO.P,J7,SH4*%
%TO.N,GND*%
X137527500Y-80058000D03*
%TO.P,J7,SH3*%
X137527500Y-85598000D03*
%TD*%
D24*
%TO.P,R5,1*%
%TO.N,/PYRO1_SW*%
X101344000Y-101473000D03*
%TO.P,R5,2*%
%TO.N,/PYRO1_DET*%
X102364000Y-101473000D03*
%TD*%
D14*
%TO.P,R19,1*%
%TO.N,+3.3V*%
X120525000Y-98552000D03*
%TO.P,R19,2*%
%TO.N,/I2C_SDA*%
X119505000Y-98552000D03*
%TD*%
D37*
%TO.P,C8,1*%
%TO.N,/RST*%
X133845000Y-92202000D03*
%TO.P,C8,2*%
%TO.N,GND*%
X135745000Y-92202000D03*
%TD*%
D31*
%TO.P,C27,1*%
%TO.N,+3.3V*%
X120015000Y-72141049D03*
%TO.P,C27,2*%
%TO.N,GND*%
X120015000Y-70241049D03*
%TD*%
D25*
%TO.P,R3,1*%
%TO.N,/PLED_R*%
X134747000Y-43305000D03*
%TO.P,R3,2*%
%TO.N,GND*%
X134747000Y-44325000D03*
%TD*%
D14*
%TO.P,R20,1*%
%TO.N,+3.3V*%
X128145000Y-93472000D03*
%TO.P,R20,2*%
%TO.N,/I2C_SCL*%
X127125000Y-93472000D03*
%TD*%
D37*
%TO.P,C20,1*%
%TO.N,+3.3V*%
X127344000Y-91439999D03*
%TO.P,C20,2*%
%TO.N,GND*%
X129244000Y-91439999D03*
%TD*%
D33*
%TO.P,Q1,1,G*%
%TO.N,/PYRO1*%
X103378000Y-97917000D03*
%TO.P,Q1,2,S*%
%TO.N,GND*%
X103378000Y-99817000D03*
%TO.P,Q1,3,D*%
%TO.N,/PYRO1_SW*%
X101503000Y-98867000D03*
%TD*%
%TO.P,Q2,1,G*%
%TO.N,/PYRO2*%
X102918500Y-108016000D03*
%TO.P,Q2,2,S*%
%TO.N,GND*%
X102918500Y-109916000D03*
%TO.P,Q2,3,D*%
%TO.N,/PYRO2_SW*%
X101043500Y-108966000D03*
%TD*%
D24*
%TO.P,R14,1*%
%TO.N,/PYRO4*%
X131316000Y-103759000D03*
%TO.P,R14,2*%
%TO.N,GND*%
X132336000Y-103759000D03*
%TD*%
%TO.P,R2,1*%
%TO.N,/PYRO3_DET*%
X131189000Y-108077000D03*
%TO.P,R2,2*%
%TO.N,GND*%
X132209000Y-108077000D03*
%TD*%
D21*
%TO.P,C4,1*%
%TO.N,+3.3V*%
X125575000Y-58476548D03*
%TO.P,C4,2*%
%TO.N,GND*%
X125575000Y-60026548D03*
%TD*%
D20*
%TO.P,Q4,1,G*%
%TO.N,/PYRO3*%
X129951000Y-112583000D03*
%TO.P,Q4,2,S*%
%TO.N,GND*%
X129951000Y-110683000D03*
%TO.P,Q4,3,D*%
%TO.N,/PYRO3_SW*%
X131826000Y-111633000D03*
%TD*%
%TO.P,Q5,1,G*%
%TO.N,/PYRO4*%
X129951000Y-102296000D03*
%TO.P,Q5,2,S*%
%TO.N,GND*%
X129951000Y-100396000D03*
%TO.P,Q5,3,D*%
%TO.N,/PYRO4_SW*%
X131826000Y-101346000D03*
%TD*%
D38*
%TO.P,U11,1,GND*%
%TO.N,GND*%
X108839000Y-96662000D03*
%TO.P,U11,2,MISO*%
%TO.N,/SPI3_MISO*%
X108839000Y-94662000D03*
%TO.P,U11,3,MOSI*%
%TO.N,/SPI3_MOSI*%
X108839000Y-92662000D03*
%TO.P,U11,4,SCK*%
%TO.N,/SPI3_SCL*%
X108839000Y-90662000D03*
%TO.P,U11,5,NSS*%
%TO.N,/RF_CS*%
X108839000Y-88662000D03*
%TO.P,U11,6,RESET*%
%TO.N,/RF_RST*%
X108839000Y-86662000D03*
%TO.P,U11,7,DIO5*%
%TO.N,unconnected-(U11-DIO5-Pad7)*%
X108839000Y-84662000D03*
%TO.P,U11,8,GND*%
%TO.N,GND*%
X108839000Y-82662000D03*
%TO.P,U11,9,ANT*%
%TO.N,Net-(U11-ANT)*%
X124239000Y-82662000D03*
%TO.P,U11,10,GND*%
%TO.N,GND*%
X124239000Y-84662000D03*
%TO.P,U11,11,DIO3*%
%TO.N,unconnected-(U11-DIO3-Pad11)*%
X124239000Y-86662000D03*
%TO.P,U11,12,DIO4*%
%TO.N,unconnected-(U11-DIO4-Pad12)*%
X124239000Y-88662000D03*
%TO.P,U11,13,3.3V*%
%TO.N,+3.3V*%
X124239000Y-90662000D03*
%TO.P,U11,14,DIO0*%
%TO.N,/RF_DIO0*%
X124239000Y-92662000D03*
%TO.P,U11,15,DIO1*%
%TO.N,unconnected-(U11-DIO1-Pad15)*%
X124239000Y-94662000D03*
%TO.P,U11,16,DIO2*%
%TO.N,unconnected-(U11-DIO2-Pad16)*%
X124239000Y-96662000D03*
%TD*%
D39*
%TO.N,GND*%
X102870000Y-37592000D03*
%TO.N,/BOOT*%
X127000000Y-79121000D03*
X125423500Y-79219500D03*
%TO.N,Net-(U11-ANT)*%
X126873000Y-82828000D03*
%TO.N,GND*%
X112649000Y-45720000D03*
X112649000Y-42164000D03*
X119380000Y-38189500D03*
%TO.N,/VSW_DET*%
X123886832Y-39054168D03*
%TO.N,/VIN*%
X121696340Y-42888500D03*
X121793000Y-44577000D03*
%TO.N,GND*%
X111379000Y-39370000D03*
X116586000Y-59563000D03*
X131191000Y-115189000D03*
X112649000Y-43942000D03*
X109347000Y-37719000D03*
X129540000Y-101346000D03*
X104062500Y-65187881D03*
D40*
X100965000Y-106299000D03*
D39*
X136525000Y-90551000D03*
X110744000Y-74168000D03*
X120396000Y-96520000D03*
D40*
X103759000Y-109982000D03*
D39*
X112649000Y-96520000D03*
D40*
X106807000Y-67437000D03*
D39*
X114300000Y-73660000D03*
X129286000Y-90297000D03*
X104377988Y-59389820D03*
X124841000Y-68014500D03*
X112649000Y-44831000D03*
X128270000Y-37387000D03*
X126492000Y-55499000D03*
D40*
X100330000Y-113157000D03*
D39*
X120762500Y-68834000D03*
D40*
X101346000Y-104013000D03*
D39*
X131445000Y-107061000D03*
X134620000Y-80010000D03*
X111379000Y-95250000D03*
X111252000Y-82677000D03*
X112817766Y-86401766D03*
X117046692Y-74056862D03*
X120904000Y-86868000D03*
X117015647Y-70627147D03*
X129283477Y-111738092D03*
X97536000Y-90424000D03*
X122682000Y-61908000D03*
X122666459Y-97906693D03*
D40*
X104394000Y-99822000D03*
D39*
X106807000Y-96139000D03*
X112649000Y-43053000D03*
X132715000Y-97028000D03*
X130556000Y-50165000D03*
X132294500Y-104902000D03*
X115189000Y-57785000D03*
X111252000Y-88011000D03*
X118618000Y-47498000D03*
X116459000Y-64643000D03*
X135531489Y-43770385D03*
D40*
X103886000Y-90424000D03*
D39*
X112903000Y-116713000D03*
X121920000Y-84709000D03*
X100126500Y-67691000D03*
X102184307Y-60121693D03*
X111379000Y-93472000D03*
X134620000Y-85598000D03*
D40*
X108712000Y-69469000D03*
D39*
X126492000Y-60452000D03*
X102421516Y-97095484D03*
D40*
%TO.N,+3.3V*%
X127381000Y-90297000D03*
X105550000Y-90424000D03*
D39*
X136017000Y-89789000D03*
X123839767Y-66816767D03*
X116967000Y-46563002D03*
X106233000Y-37719000D03*
X110109000Y-70485000D03*
D40*
X121285000Y-90678000D03*
D39*
X120269000Y-100330000D03*
X118745000Y-122809000D03*
X128778000Y-55499000D03*
X119634000Y-52451000D03*
D40*
X118364000Y-85979000D03*
D39*
X126604500Y-58547000D03*
D40*
X111125000Y-90551000D03*
D39*
X118364000Y-72771000D03*
X116459000Y-61595000D03*
X127889000Y-92583000D03*
X130302000Y-38227000D03*
%TO.N,/VBUS*%
X103074500Y-63971119D03*
X104416017Y-61968483D03*
X102876500Y-67905500D03*
X120269000Y-44704000D03*
X109093000Y-52832000D03*
X107188000Y-58420000D03*
%TO.N,/VSW_D*%
X119988500Y-41719500D03*
X123063000Y-40513000D03*
D40*
%TO.N,/PYRO1*%
X103378000Y-45339000D03*
D39*
%TO.N,/PYRO1_SW*%
X99333500Y-100711000D03*
D40*
%TO.N,/PYRO2*%
X101457662Y-59324338D03*
X99822000Y-60198000D03*
X103213683Y-46324904D03*
X97440500Y-95153096D03*
X100330000Y-103124000D03*
D39*
%TO.N,/PYRO3*%
X126873000Y-113157000D03*
X128563500Y-113538000D03*
D40*
X103632000Y-48095500D03*
D39*
%TO.N,/PYRO3_SW*%
X131953000Y-112776000D03*
D40*
%TO.N,/PYRO4*%
X100838000Y-96430500D03*
X100584000Y-90170000D03*
X118410766Y-114718500D03*
X116586000Y-115824000D03*
X102363273Y-104929559D03*
X104267000Y-49276000D03*
X103584500Y-88138000D03*
D39*
%TO.N,/PYRO4_SW*%
X134239000Y-100965000D03*
%TO.N,/BOOT*%
X105283000Y-82169000D03*
X108261500Y-79121000D03*
X128778000Y-65278000D03*
X127253977Y-61809466D03*
%TO.N,/BUZZ_OUT*%
X130048000Y-86360000D03*
X123317000Y-109855000D03*
X130048000Y-63627000D03*
X122047000Y-123190000D03*
X128553500Y-63627000D03*
X127254000Y-63627000D03*
X130048000Y-84074000D03*
%TO.N,Net-(Q6-S)*%
X121031000Y-119888000D03*
%TO.N,/RST*%
X121680500Y-60579000D03*
X120381500Y-59563000D03*
X128778000Y-84074000D03*
X125476000Y-75184000D03*
X113298767Y-51674233D03*
X133858000Y-91059000D03*
X118110000Y-69533500D03*
%TO.N,/RF_DIO0*%
X126294500Y-91821000D03*
D40*
%TO.N,/SPI2_SCL*%
X113947500Y-59944000D03*
X108839000Y-50419000D03*
X118745000Y-65278000D03*
X117150765Y-63633029D03*
%TO.N,/SPI2_MOSI*%
X113284000Y-65024000D03*
X115357067Y-62741702D03*
X114300000Y-75438000D03*
X117602000Y-67691000D03*
D39*
%TO.N,/SPI2_MISO*%
X121871266Y-67485734D03*
X121412000Y-70206684D03*
%TO.N,/ACC_CS*%
X127000000Y-70485000D03*
X122936000Y-76581000D03*
%TO.N,/GYRO_CS*%
X119267767Y-58659233D03*
X115951000Y-63881000D03*
D40*
%TO.N,/GYRO_PLLFILT*%
X118999000Y-61722000D03*
D39*
%TO.N,/MAG_CS*%
X117616766Y-57008234D03*
X113157000Y-59309000D03*
X114597000Y-56896000D03*
X111760000Y-67564000D03*
D40*
%TO.N,/MAG_C*%
X109822971Y-67277971D03*
D39*
%TO.N,/RF_RST*%
X127254500Y-62708968D03*
%TO.N,/SPI3_MISO*%
X126604500Y-54356000D03*
%TO.N,/SPI3_MOSI*%
X123317000Y-51562000D03*
%TO.N,/SPI3_SCL*%
X121285000Y-50800000D03*
X129159000Y-53086000D03*
X128270000Y-79121000D03*
X123571000Y-49911000D03*
%TO.N,/I2C_SDA*%
X117221000Y-96266000D03*
X117095736Y-100223877D03*
X119380000Y-96520000D03*
%TO.N,/I2C_SCL*%
X126365000Y-93599000D03*
%TO.N,/FLASH_CS*%
X123698000Y-48768000D03*
D40*
%TO.N,/PYRO1_DET*%
X104627415Y-41202954D03*
%TO.N,/PYRO2_DET*%
X98552000Y-101346000D03*
X104391518Y-42174220D03*
X97028000Y-103251000D03*
%TO.N,/PYRO3_DET*%
X103886000Y-43180000D03*
%TO.N,/PYRO4_DET*%
X103759000Y-44196000D03*
X96012000Y-101727000D03*
D39*
X132925168Y-99778168D03*
D40*
X97028000Y-96139000D03*
D39*
X131064000Y-99695000D03*
%TO.N,/RF_CS*%
X127000000Y-68834000D03*
D40*
%TO.N,/VBAT*%
X101346000Y-36576000D03*
D39*
%TO.N,/VPYRO*%
X107696000Y-64516000D03*
X112379000Y-50546000D03*
X111379000Y-52032500D03*
X122936000Y-42672000D03*
X117856000Y-50927000D03*
%TO.N,/PLED_R*%
X131826000Y-41275000D03*
%TO.N,Net-(J2-CC1)*%
X100195054Y-64633769D03*
%TO.N,Net-(J2-CC2)*%
X103770284Y-67575284D03*
%TD*%
D41*
%TO.N,/PYRO4*%
X103584500Y-87709500D02*
X103584500Y-88138000D01*
X103378000Y-87503000D02*
X103584500Y-87709500D01*
X103378000Y-69977000D02*
X103378000Y-87503000D01*
X104394000Y-68961000D02*
X103378000Y-69977000D01*
X105029000Y-68961000D02*
X104394000Y-68961000D01*
X105410000Y-68580000D02*
X105029000Y-68961000D01*
X105410000Y-63881000D02*
X105410000Y-68580000D01*
X103759000Y-62230000D02*
X105410000Y-63881000D01*
X103759000Y-59817000D02*
X103759000Y-62230000D01*
X100952000Y-51376540D02*
X100952000Y-57137000D01*
X103378000Y-59563000D02*
X103505000Y-59563000D01*
X103052540Y-49276000D02*
X100952000Y-51376540D01*
X100952000Y-57137000D02*
X103378000Y-59563000D01*
X104267000Y-49276000D02*
X103052540Y-49276000D01*
X103505000Y-59563000D02*
X103759000Y-59817000D01*
D42*
%TO.N,/PYRO3*%
X126299000Y-112583000D02*
X126873000Y-113157000D01*
X123383000Y-112583000D02*
X126299000Y-112583000D01*
X120523000Y-115443000D02*
X123383000Y-112583000D01*
X117940934Y-115443000D02*
X120523000Y-115443000D01*
X105156000Y-101981000D02*
X104817467Y-102319533D01*
X105156000Y-97112462D02*
X105156000Y-101981000D01*
X103293538Y-95250000D02*
X105156000Y-97112462D01*
X103251000Y-95250000D02*
X103293538Y-95250000D01*
X102860000Y-94859000D02*
X103251000Y-95250000D01*
X102860000Y-68590000D02*
X102860000Y-94859000D01*
X102870000Y-68580000D02*
X102860000Y-68590000D01*
X104985000Y-67691538D02*
X104096538Y-68580000D01*
X104096538Y-68580000D02*
X102870000Y-68580000D01*
X104985000Y-64648350D02*
X104985000Y-67691538D01*
X104817467Y-102319533D02*
X117940934Y-115443000D01*
X103124500Y-62865000D02*
X103201650Y-62865000D01*
X103124500Y-59965871D02*
X103124500Y-62865000D01*
X100873629Y-57715000D02*
X103124500Y-59965871D01*
X100527000Y-51200500D02*
X100527000Y-57715000D01*
X103632000Y-48095500D02*
X100527000Y-51200500D01*
X100527000Y-57715000D02*
X100873629Y-57715000D01*
X103201650Y-62865000D02*
X104985000Y-64648350D01*
D41*
%TO.N,/SPI3_SCL*%
X127522000Y-79869000D02*
X128270000Y-79121000D01*
X124474000Y-79869000D02*
X127522000Y-79869000D01*
X122681000Y-81662000D02*
X124474000Y-79869000D01*
X122439000Y-81662000D02*
X122681000Y-81662000D01*
X120636239Y-83464761D02*
X122439000Y-81662000D01*
X118104362Y-100873877D02*
X118633000Y-100345239D01*
X118633000Y-86699950D02*
X120636239Y-84696711D01*
X116826497Y-100873877D02*
X118104362Y-100873877D01*
X116445736Y-100493116D02*
X116826497Y-100873877D01*
X116445736Y-97468736D02*
X116445736Y-100493116D01*
X109639000Y-90662000D02*
X116445736Y-97468736D01*
X120636239Y-84696711D02*
X120636239Y-83464761D01*
X108839000Y-90662000D02*
X109639000Y-90662000D01*
X118633000Y-100345239D02*
X118633000Y-86699950D01*
D42*
%TO.N,/BOOT*%
X125423500Y-79219500D02*
X126901500Y-79219500D01*
X126901500Y-79219500D02*
X127000000Y-79121000D01*
D43*
%TO.N,Net-(U11-ANT)*%
X124405000Y-82828000D02*
X124239000Y-82662000D01*
X126873000Y-82828000D02*
X124405000Y-82828000D01*
D41*
%TO.N,/RST*%
X128920000Y-78628000D02*
X125476000Y-75184000D01*
X128920000Y-83932000D02*
X128920000Y-78628000D01*
X128778000Y-84074000D02*
X128920000Y-83932000D01*
%TO.N,/BUZZ_OUT*%
X130048000Y-73025000D02*
X130048000Y-63627000D01*
X130044000Y-84070000D02*
X130044000Y-73029000D01*
X130044000Y-73029000D02*
X130048000Y-73025000D01*
X130048000Y-84074000D02*
X130044000Y-84070000D01*
D44*
%TO.N,/VSW_D*%
X122691000Y-38989000D02*
X125612000Y-41910000D01*
X121983000Y-38989000D02*
X122691000Y-38989000D01*
D41*
%TO.N,GND*%
X119404500Y-38214000D02*
X119380000Y-38189500D01*
X123302000Y-38214000D02*
X119404500Y-38214000D01*
X123315000Y-38227000D02*
X123302000Y-38214000D01*
D44*
%TO.N,/VSW*%
X129912000Y-41009685D02*
X129912000Y-41910000D01*
X114897000Y-37376000D02*
X126278315Y-37376000D01*
X114808000Y-37465000D02*
X114897000Y-37376000D01*
X126278315Y-37376000D02*
X129912000Y-41009685D01*
D41*
%TO.N,/VSW_DET*%
X126744000Y-38989000D02*
X123952000Y-38989000D01*
X123952000Y-38989000D02*
X123886832Y-39054168D01*
X124335000Y-38606000D02*
X123886832Y-39054168D01*
X124335000Y-38227000D02*
X124335000Y-38606000D01*
D44*
%TO.N,/VIN*%
X121696340Y-42888500D02*
X121696340Y-42084840D01*
X121539000Y-44831000D02*
X121793000Y-44577000D01*
X121696340Y-42084840D02*
X120838000Y-41226500D01*
X121539000Y-45912999D02*
X121539000Y-44831000D01*
%TO.N,/VBUS*%
X126483000Y-43688000D02*
X129912000Y-47117000D01*
X120269000Y-44704000D02*
X121285000Y-43688000D01*
X121285000Y-43688000D02*
X126483000Y-43688000D01*
X118938000Y-43737528D02*
X118938000Y-41226500D01*
X120269000Y-44704000D02*
X119904472Y-44704000D01*
X119904472Y-44704000D02*
X118938000Y-43737528D01*
%TO.N,/VSW_D*%
X119988500Y-43001000D02*
X119888000Y-43101500D01*
X119988500Y-41719500D02*
X119988500Y-43001000D01*
%TO.N,/VIN*%
X119650500Y-40039000D02*
X116694000Y-40039000D01*
X116694000Y-40039000D02*
X115198000Y-41535000D01*
X120838000Y-41226500D02*
X119650500Y-40039000D01*
%TO.N,/VPYRO*%
X118427000Y-38989000D02*
X120333000Y-38989000D01*
%TO.N,GND*%
X111384000Y-39365000D02*
X111379000Y-39370000D01*
X114808000Y-39365000D02*
X111384000Y-39365000D01*
D45*
%TO.N,/VBAT*%
X137668000Y-37592000D02*
X137668000Y-56923000D01*
X136563500Y-36487500D02*
X137668000Y-37592000D01*
X137668000Y-56923000D02*
X135636000Y-58955000D01*
X125059130Y-36487500D02*
X136563500Y-36487500D01*
X124970630Y-36576000D02*
X125059130Y-36487500D01*
X101346000Y-36576000D02*
X124970630Y-36576000D01*
D44*
%TO.N,Net-(Q7-D)*%
X116203000Y-38415000D02*
X116777000Y-38989000D01*
X112933000Y-38415000D02*
X116203000Y-38415000D01*
D42*
%TO.N,/BOOT*%
X129228500Y-63347405D02*
X129228500Y-64827500D01*
X127253977Y-61809466D02*
X127690561Y-61809466D01*
X127690561Y-61809466D02*
X129228500Y-63347405D01*
X129228500Y-64827500D02*
X128778000Y-65278000D01*
%TO.N,/GYRO_CR*%
X122684000Y-63434000D02*
X123190000Y-62928000D01*
X121806000Y-63434000D02*
X122684000Y-63434000D01*
D41*
%TO.N,GND*%
X117109794Y-70533000D02*
X117015647Y-70627147D01*
D42*
X126066548Y-60026548D02*
X126492000Y-60452000D01*
X103685000Y-90625000D02*
X103886000Y-90424000D01*
X126499000Y-60445000D02*
X126492000Y-60452000D01*
D41*
X100076000Y-67640500D02*
X100126500Y-67691000D01*
X118110000Y-47625000D02*
X117554000Y-48181000D01*
X120762500Y-68834000D02*
X120762500Y-69493549D01*
X129951000Y-110683000D02*
X129951000Y-111070569D01*
X132336000Y-103759000D02*
X132336000Y-104860500D01*
X135745000Y-92202000D02*
X135745000Y-91331000D01*
X120762500Y-69493549D02*
X120015000Y-70241049D01*
D42*
X111237000Y-82662000D02*
X111252000Y-82677000D01*
D41*
X118110000Y-47625000D02*
X118491000Y-47625000D01*
X129244000Y-90339000D02*
X129286000Y-90297000D01*
X116586000Y-59563000D02*
X116634000Y-59563000D01*
X132336000Y-104860500D02*
X132294500Y-104902000D01*
X116634000Y-59563000D02*
X117348000Y-58849000D01*
X118110000Y-70533000D02*
X117109794Y-70533000D01*
X129951000Y-100396000D02*
X129951000Y-100935000D01*
X132334000Y-97409000D02*
X132715000Y-97028000D01*
X118491000Y-47625000D02*
X118618000Y-47498000D01*
D42*
X134747000Y-44325000D02*
X134976874Y-44325000D01*
X101217000Y-113157000D02*
X100330000Y-113157000D01*
D41*
X132336000Y-114046000D02*
X132334000Y-114046000D01*
D42*
X103685000Y-91439999D02*
X103685000Y-90625000D01*
D44*
X112400000Y-46668001D02*
X112400000Y-48513999D01*
D42*
X123190000Y-61908000D02*
X122682000Y-61908000D01*
D41*
X111506000Y-72972000D02*
X111506000Y-73406000D01*
X117554000Y-48181000D02*
X117554000Y-48260000D01*
X131955000Y-97409000D02*
X132334000Y-97409000D01*
X120062999Y-47812999D02*
X119634001Y-47384001D01*
X132334000Y-114046000D02*
X131191000Y-115189000D01*
D42*
X125456000Y-55499000D02*
X126492000Y-55499000D01*
D41*
X109850000Y-73274000D02*
X110744000Y-74168000D01*
X129951000Y-100935000D02*
X129540000Y-101346000D01*
X129045000Y-89408000D02*
X129045000Y-90056000D01*
D42*
X127734000Y-60445000D02*
X126499000Y-60445000D01*
D41*
X121967000Y-84662000D02*
X121920000Y-84709000D01*
D42*
X121806000Y-61783000D02*
X121931000Y-61908000D01*
D41*
X111506000Y-73406000D02*
X110744000Y-74168000D01*
X118731999Y-47384001D02*
X118618000Y-47498000D01*
D42*
X103886000Y-90424000D02*
X103886000Y-89649000D01*
D41*
X134668000Y-80058000D02*
X134620000Y-80010000D01*
D42*
X124245000Y-54288000D02*
X125456000Y-55499000D01*
X121931000Y-61908000D02*
X122682000Y-61908000D01*
X108839000Y-96662000D02*
X107330000Y-96662000D01*
X102360000Y-96307000D02*
X102360000Y-97033968D01*
D41*
X124239000Y-84662000D02*
X121967000Y-84662000D01*
D42*
X102918500Y-109916000D02*
X103693000Y-109916000D01*
X134976874Y-44325000D02*
X135531489Y-43770385D01*
D41*
X125213500Y-68014500D02*
X124841000Y-68014500D01*
X137527500Y-80058000D02*
X134668000Y-80058000D01*
X119634001Y-47384001D02*
X118731999Y-47384001D01*
X126238000Y-66990000D02*
X125213500Y-68014500D01*
X107556000Y-67371000D02*
X106873000Y-67371000D01*
X129669000Y-50165000D02*
X130556000Y-50165000D01*
X121539000Y-47812999D02*
X120062999Y-47812999D01*
X115189000Y-57785000D02*
X115189000Y-58232000D01*
D42*
X104389000Y-99817000D02*
X104394000Y-99822000D01*
D41*
X129244000Y-91439999D02*
X129244000Y-90339000D01*
X104062500Y-65187881D02*
X104062500Y-65833500D01*
D42*
X125575000Y-60026548D02*
X126066548Y-60026548D01*
X102360000Y-97033968D02*
X102421516Y-97095484D01*
D41*
X100076000Y-66804000D02*
X100076000Y-67640500D01*
X129951000Y-111070569D02*
X129283477Y-111738092D01*
X115189000Y-58232000D02*
X115570000Y-58613000D01*
D42*
X101344000Y-104011000D02*
X101346000Y-104013000D01*
D41*
X104062500Y-65833500D02*
X104140000Y-65911000D01*
D42*
X107330000Y-96662000D02*
X106807000Y-96139000D01*
X101344000Y-102870000D02*
X101344000Y-104011000D01*
D41*
X135745000Y-91331000D02*
X136525000Y-90551000D01*
X132209000Y-107825000D02*
X131445000Y-107061000D01*
X137527500Y-85598000D02*
X134620000Y-85598000D01*
X132209000Y-108077000D02*
X132209000Y-107825000D01*
D44*
X112400000Y-46668001D02*
X110437000Y-44705001D01*
D41*
X106873000Y-67371000D02*
X106807000Y-67437000D01*
X109601001Y-73274000D02*
X109850000Y-73274000D01*
D42*
X127995000Y-56193000D02*
X126150000Y-56193000D01*
X103693000Y-109916000D02*
X103759000Y-109982000D01*
X126150000Y-56193000D02*
X124245000Y-54288000D01*
X103378000Y-99817000D02*
X104389000Y-99817000D01*
X108839000Y-82662000D02*
X111237000Y-82662000D01*
X103886000Y-89649000D02*
X104000000Y-89535000D01*
D41*
X134618000Y-44196000D02*
X134747000Y-44325000D01*
X129045000Y-90056000D02*
X129286000Y-90297000D01*
D42*
X101979000Y-106299000D02*
X100965000Y-106299000D01*
D41*
%TO.N,+3.3V*%
X124013000Y-66990000D02*
X124688000Y-66990000D01*
D42*
X105550000Y-91404999D02*
X105550000Y-90424000D01*
X105550000Y-89535000D02*
X105550000Y-90424000D01*
D41*
X120525000Y-98552000D02*
X120525000Y-100074000D01*
X114300000Y-48513999D02*
X115569999Y-47244000D01*
X135509000Y-90297000D02*
X136017000Y-89789000D01*
X120525000Y-100074000D02*
X120269000Y-100330000D01*
X110109000Y-70485000D02*
X110109000Y-70866001D01*
D42*
X126534048Y-58476548D02*
X126604500Y-58547000D01*
X127344000Y-91439999D02*
X127344000Y-90334000D01*
X121301000Y-90662000D02*
X121285000Y-90678000D01*
D41*
X115569999Y-46466999D02*
X115198000Y-46095000D01*
D42*
X120495000Y-53653000D02*
X120495000Y-52383000D01*
X127344000Y-91439999D02*
X127344000Y-92038000D01*
D44*
X116967000Y-46563002D02*
X115666002Y-46563002D01*
D42*
X119702000Y-52383000D02*
X119634000Y-52451000D01*
D41*
X115569999Y-47244000D02*
X116004000Y-47678001D01*
D42*
X128202000Y-54923000D02*
X128778000Y-55499000D01*
D41*
X134876000Y-90297000D02*
X135509000Y-90297000D01*
D42*
X125575000Y-58476548D02*
X126534048Y-58476548D01*
X120495000Y-52383000D02*
X119702000Y-52383000D01*
D44*
X115666002Y-46563002D02*
X115198000Y-46095000D01*
D42*
X127344000Y-90334000D02*
X127381000Y-90297000D01*
X105585000Y-91439999D02*
X105550000Y-91404999D01*
D41*
X115570000Y-60513000D02*
X116459000Y-60513000D01*
D42*
X127734000Y-58545000D02*
X126606500Y-58545000D01*
D41*
X128145000Y-92839000D02*
X127889000Y-92583000D01*
X110109000Y-70866001D02*
X109601001Y-71374000D01*
X120015000Y-72141049D02*
X118993951Y-72141049D01*
X118364000Y-72337000D02*
X118110000Y-72083000D01*
D42*
X127495000Y-90183000D02*
X127381000Y-90297000D01*
D41*
X114300000Y-47878999D02*
X114607001Y-47878999D01*
X116459000Y-60513000D02*
X117234000Y-60513000D01*
D42*
X127495000Y-89408000D02*
X127495000Y-90183000D01*
D41*
X109601001Y-71374000D02*
X111458000Y-71374000D01*
D42*
X127995000Y-54923000D02*
X128202000Y-54923000D01*
D41*
X117234000Y-60513000D02*
X117348000Y-60399000D01*
D42*
X124239000Y-90662000D02*
X121301000Y-90662000D01*
D41*
X117221000Y-122809000D02*
X118745000Y-122809000D01*
X111458000Y-71374000D02*
X111506000Y-71422000D01*
X115569999Y-47244000D02*
X115569999Y-46466999D01*
X116459000Y-61595000D02*
X116459000Y-60513000D01*
D42*
X126606500Y-58545000D02*
X126604500Y-58547000D01*
D41*
X116004000Y-47678001D02*
X116004000Y-48260000D01*
X128145000Y-93472000D02*
X128145000Y-92839000D01*
D42*
X127344000Y-92038000D02*
X127889000Y-92583000D01*
D41*
X123839767Y-66816767D02*
X124013000Y-66990000D01*
X118993951Y-72141049D02*
X118364000Y-72771000D01*
X118364000Y-72771000D02*
X118364000Y-72337000D01*
D44*
%TO.N,/VBUS*%
X107188000Y-54737000D02*
X107188000Y-58420000D01*
X102876500Y-66830500D02*
X102876500Y-67905500D01*
X109093000Y-52832000D02*
X107188000Y-54737000D01*
X103074500Y-66632500D02*
X103074500Y-63971119D01*
X107188000Y-58420000D02*
X107188000Y-59196500D01*
X107188000Y-59196500D02*
X104416017Y-61968483D01*
X102876500Y-66830500D02*
X103074500Y-66632500D01*
%TO.N,/VSW_D*%
X123063000Y-40513000D02*
X123575500Y-40000500D01*
%TO.N,/VSW*%
X129912000Y-41910000D02*
X129912000Y-43071000D01*
X129912000Y-43071000D02*
X135636000Y-48795000D01*
X129912000Y-41910000D02*
X130171001Y-41910000D01*
D42*
%TO.N,/PYRO1*%
X102202000Y-70416726D02*
X102410000Y-70624726D01*
X99627000Y-47987067D02*
X99627000Y-58518274D01*
X101009000Y-90770305D02*
X101009000Y-93936000D01*
X101309000Y-90470305D02*
X101009000Y-90770305D01*
X101009000Y-93936000D02*
X103380000Y-96307000D01*
X103380000Y-96307000D02*
X103380000Y-97915000D01*
X103380000Y-97915000D02*
X103378000Y-97917000D01*
X102202000Y-61093274D02*
X102202000Y-70416726D01*
X103378000Y-45339000D02*
X102275067Y-45339000D01*
X101309000Y-89869695D02*
X101309000Y-90470305D01*
X102410000Y-88768695D02*
X101309000Y-89869695D01*
X99627000Y-58518274D02*
X102202000Y-61093274D01*
X102410000Y-70624726D02*
X102410000Y-88768695D01*
X102275067Y-45339000D02*
X99627000Y-47987067D01*
%TO.N,/PYRO1_SW*%
X101503000Y-101314000D02*
X101344000Y-101473000D01*
X101503000Y-98867000D02*
X101503000Y-101314000D01*
D41*
X99333500Y-100711000D02*
X99659000Y-100711000D01*
X99659000Y-100711000D02*
X101503000Y-98867000D01*
D42*
%TO.N,/PYRO2*%
X99222000Y-60798000D02*
X99222000Y-71282396D01*
X101960000Y-86395405D02*
X98211000Y-90144405D01*
X100330000Y-104638695D02*
X101345305Y-105654000D01*
X102918500Y-108016000D02*
X102918500Y-106379500D01*
X101219000Y-47371000D02*
X100879463Y-47371000D01*
X97440500Y-91474095D02*
X97440500Y-95153096D01*
X101219000Y-47371000D02*
X101092000Y-47371000D01*
X100879463Y-47371000D02*
X100077000Y-48173463D01*
X100077000Y-50292000D02*
X100077000Y-57943676D01*
X98211000Y-90703595D02*
X97440500Y-91474095D01*
X99822000Y-60198000D02*
X99222000Y-60798000D01*
X102918500Y-106379500D02*
X102999000Y-106299000D01*
X102354000Y-105654000D02*
X102999000Y-106299000D01*
X99222000Y-71282396D02*
X101960000Y-74020396D01*
X101960000Y-74020396D02*
X101960000Y-86395405D01*
X100330000Y-103124000D02*
X100330000Y-104638695D01*
X100077000Y-57943676D02*
X101457662Y-59324338D01*
X102265096Y-46324904D02*
X101219000Y-47371000D01*
X98211000Y-90144405D02*
X98211000Y-90703595D01*
X103213683Y-46324904D02*
X102265096Y-46324904D01*
X101345305Y-105654000D02*
X102354000Y-105654000D01*
X100077000Y-48173463D02*
X100077000Y-50292000D01*
%TO.N,/PYRO2_SW*%
X98810000Y-108966000D02*
X98683000Y-109093000D01*
X101217000Y-109139500D02*
X101043500Y-108966000D01*
X101217000Y-111760000D02*
X101217000Y-109139500D01*
X101043500Y-108966000D02*
X98810000Y-108966000D01*
%TO.N,/PYRO3*%
X131316000Y-113948000D02*
X129951000Y-112583000D01*
X129951000Y-112583000D02*
X129518500Y-112583000D01*
X129518500Y-112583000D02*
X128563500Y-113538000D01*
X131316000Y-114046000D02*
X131316000Y-113948000D01*
%TO.N,/PYRO3_SW*%
X131826000Y-111633000D02*
X131826000Y-109603000D01*
X131826000Y-112649000D02*
X131953000Y-112776000D01*
X131826000Y-109603000D02*
X132209000Y-109220000D01*
X131826000Y-111633000D02*
X131826000Y-112649000D01*
D41*
%TO.N,/PYRO4*%
X116586000Y-115824000D02*
X116586000Y-115325502D01*
X131189000Y-103886000D02*
X131316000Y-103759000D01*
X116586000Y-115325502D02*
X106190057Y-104929559D01*
X118410766Y-114718500D02*
X119850500Y-114718500D01*
X106190057Y-104929559D02*
X102363273Y-104929559D01*
X119850500Y-114718500D02*
X130683000Y-103886000D01*
D42*
X129951000Y-102394000D02*
X131316000Y-103759000D01*
X129951000Y-102296000D02*
X129951000Y-102394000D01*
D41*
X100584000Y-90170000D02*
X100584000Y-96176500D01*
X130683000Y-103886000D02*
X131189000Y-103886000D01*
X100584000Y-96176500D02*
X100838000Y-96430500D01*
%TO.N,/PYRO4_SW*%
X132265832Y-99128168D02*
X131826000Y-99568000D01*
X134239000Y-100965000D02*
X134239000Y-100172761D01*
D42*
X131826000Y-98808000D02*
X131955000Y-98679000D01*
D41*
X134239000Y-100172761D02*
X133194407Y-99128168D01*
X133194407Y-99128168D02*
X132265832Y-99128168D01*
D42*
X131826000Y-99568000D02*
X131826000Y-98808000D01*
X131826000Y-101346000D02*
X131826000Y-99568000D01*
%TO.N,/BOOT*%
X108261500Y-79121000D02*
X108261500Y-79190500D01*
X108261500Y-79190500D02*
X105283000Y-82169000D01*
D41*
%TO.N,/BUZZ_OUT*%
X130048000Y-98925104D02*
X123317000Y-105656104D01*
X121478000Y-123759000D02*
X115346000Y-123759000D01*
X122047000Y-123190000D02*
X121478000Y-123759000D01*
X127254000Y-63627000D02*
X128553500Y-63627000D01*
X130048000Y-86360000D02*
X130048000Y-98925104D01*
X123317000Y-105656104D02*
X123317000Y-109855000D01*
%TO.N,Net-(Q6-S)*%
X121031000Y-119888000D02*
X119060000Y-121859000D01*
X119060000Y-121859000D02*
X115346000Y-121859000D01*
%TO.N,/RST*%
X113298767Y-51674233D02*
X113298767Y-52027081D01*
X133858000Y-91059000D02*
X133858000Y-90299000D01*
X122796183Y-60579000D02*
X123810000Y-61592817D01*
X123810000Y-61592817D02*
X123810000Y-63833500D01*
X133858000Y-90299000D02*
X133856000Y-90297000D01*
X120538000Y-58912761D02*
X120538000Y-59406500D01*
X113652320Y-52027081D02*
X120538000Y-58912761D01*
X133845000Y-91072000D02*
X133858000Y-91059000D01*
X120538000Y-59406500D02*
X120381500Y-59563000D01*
X121680500Y-60579000D02*
X122796183Y-60579000D01*
X133845000Y-92202000D02*
X133845000Y-91072000D01*
X113298767Y-52027081D02*
X113652320Y-52027081D01*
X123810000Y-63833500D02*
X118110000Y-69533500D01*
%TO.N,/RF_DIO0*%
X125080000Y-91821000D02*
X124239000Y-92662000D01*
X126294500Y-91821000D02*
X125080000Y-91821000D01*
%TO.N,/SPI2_SCL*%
X111125000Y-50419000D02*
X113947500Y-53241500D01*
X108839000Y-50419000D02*
X111125000Y-50419000D01*
X118745000Y-65278000D02*
X117150765Y-63683765D01*
X113947500Y-53241500D02*
X113947500Y-59944000D01*
X117150765Y-63683765D02*
X117150765Y-63633029D01*
%TO.N,/SPI2_MOSI*%
X115951000Y-67691000D02*
X113284000Y-65024000D01*
X117602000Y-67691000D02*
X115951000Y-67691000D01*
X115951000Y-73787000D02*
X115951000Y-67691000D01*
X115357067Y-62741702D02*
X115357067Y-62950933D01*
X115357067Y-62950933D02*
X113284000Y-65024000D01*
X114300000Y-75438000D02*
X115951000Y-73787000D01*
%TO.N,/SPI2_MISO*%
X121412000Y-67945000D02*
X121871266Y-67485734D01*
X121412000Y-70206684D02*
X121412000Y-67945000D01*
%TO.N,/ACC_CS*%
X123063000Y-76454000D02*
X122936000Y-76581000D01*
X123190000Y-76454000D02*
X123063000Y-76454000D01*
X127000000Y-72644000D02*
X123190000Y-76454000D01*
X127000000Y-70485000D02*
X127000000Y-72644000D01*
%TO.N,/GYRO_CS*%
X119267767Y-58659233D02*
X119267767Y-60030183D01*
X119267767Y-60030183D02*
X115951000Y-63346950D01*
X115951000Y-63346950D02*
X115951000Y-63881000D01*
%TO.N,/GYRO_PLLFILT*%
X120195000Y-61722000D02*
X120256000Y-61783000D01*
X118999000Y-61722000D02*
X120195000Y-61722000D01*
X118999000Y-62177000D02*
X118999000Y-61722000D01*
X120256000Y-63434000D02*
X118999000Y-62177000D01*
%TO.N,/MAG_CS*%
X114934293Y-56896000D02*
X114597000Y-56896000D01*
X111760000Y-65558050D02*
X111760000Y-67564000D01*
X113157000Y-64161050D02*
X111760000Y-65558050D01*
X115046527Y-57008234D02*
X114934293Y-56896000D01*
X117616766Y-57008234D02*
X115046527Y-57008234D01*
X113157000Y-59309000D02*
X113157000Y-64161050D01*
%TO.N,/MAG_C*%
X109822971Y-67277971D02*
X109199029Y-67277971D01*
X109199029Y-67277971D02*
X109106000Y-67371000D01*
%TO.N,/RF_RST*%
X127254500Y-62708968D02*
X127029032Y-62708968D01*
X122902266Y-73398734D02*
X109639000Y-86662000D01*
X122902266Y-66835734D02*
X122902266Y-73398734D01*
X109639000Y-86662000D02*
X108839000Y-86662000D01*
X127029032Y-62708968D02*
X122902266Y-66835734D01*
%TO.N,/SPI3_MISO*%
X126604500Y-54356000D02*
X128554239Y-54356000D01*
X128076006Y-57120233D02*
X122046528Y-57120233D01*
X108039000Y-94662000D02*
X108839000Y-94662000D01*
X127292000Y-54356000D02*
X127995000Y-53653000D01*
X107039000Y-83662000D02*
X107039000Y-93662000D01*
X111225314Y-83662000D02*
X107039000Y-83662000D01*
X116351000Y-70373261D02*
X116351000Y-78536314D01*
X122046528Y-57120233D02*
X121031000Y-58135761D01*
X121031000Y-58135761D02*
X121031000Y-65693261D01*
X126604500Y-54356000D02*
X127292000Y-54356000D01*
X116351000Y-78536314D02*
X111225314Y-83662000D01*
X107039000Y-93662000D02*
X108039000Y-94662000D01*
X128554239Y-54356000D02*
X129428000Y-55229761D01*
X129428000Y-55768239D02*
X128076006Y-57120233D01*
X129428000Y-55229761D02*
X129428000Y-55768239D01*
X121031000Y-65693261D02*
X116351000Y-70373261D01*
D42*
%TO.N,/SPI3_MOSI*%
X107021000Y-64857000D02*
X107021000Y-60176672D01*
X111085000Y-53690305D02*
X108114000Y-50719305D01*
X112488000Y-76163000D02*
X112488000Y-69246595D01*
X112488000Y-69246595D02*
X111085000Y-67843595D01*
X108114000Y-50118695D02*
X108538695Y-49694000D01*
X107014000Y-97687000D02*
X104760000Y-95433000D01*
X121449000Y-49694000D02*
X123317000Y-51562000D01*
X111085000Y-67843595D02*
X111085000Y-67514695D01*
X108114000Y-50719305D02*
X108114000Y-50118695D01*
X104775000Y-83876000D02*
X112488000Y-76163000D01*
D41*
X122245000Y-54443000D02*
X122245000Y-51999000D01*
D42*
X110664000Y-97687000D02*
X107014000Y-97687000D01*
D41*
X122682000Y-51562000D02*
X123317000Y-51562000D01*
D42*
X107355000Y-65191000D02*
X107021000Y-64857000D01*
X104775000Y-90012817D02*
X104775000Y-83876000D01*
X108538695Y-49694000D02*
X121449000Y-49694000D01*
D41*
X120495000Y-56193000D02*
X122245000Y-54443000D01*
D42*
X111085000Y-56112672D02*
X111085000Y-53690305D01*
X108839000Y-92662000D02*
X110589000Y-92662000D01*
X107021000Y-60176672D02*
X111085000Y-56112672D01*
X110589000Y-92662000D02*
X110664000Y-92737000D01*
X111085000Y-67514695D02*
X108761305Y-65191000D01*
D41*
X122245000Y-51999000D02*
X122682000Y-51562000D01*
D42*
X110664000Y-92737000D02*
X110664000Y-97687000D01*
X104760000Y-90027817D02*
X104775000Y-90012817D01*
X104760000Y-95433000D02*
X104760000Y-90027817D01*
X108761305Y-65191000D02*
X107355000Y-65191000D01*
D41*
%TO.N,/SPI3_SCL*%
X129159000Y-53086000D02*
X129159000Y-52620959D01*
X126449041Y-49911000D02*
X123571000Y-49911000D01*
X129159000Y-52620959D02*
X126449041Y-49911000D01*
X120495000Y-54923000D02*
X121285000Y-54133000D01*
X121285000Y-54133000D02*
X121285000Y-50800000D01*
%TO.N,/I2C_SDA*%
X117221000Y-96520000D02*
X117221000Y-96266000D01*
X119380000Y-98427000D02*
X119505000Y-98552000D01*
X117221000Y-100098613D02*
X117221000Y-96520000D01*
X117095736Y-100223877D02*
X117221000Y-100098613D01*
X119380000Y-96520000D02*
X119380000Y-98427000D01*
%TO.N,/I2C_SCL*%
X127125000Y-93472000D02*
X126492000Y-93472000D01*
X126492000Y-93472000D02*
X126365000Y-93599000D01*
%TO.N,/FLASH_CS*%
X123698000Y-48768000D02*
X122921000Y-49545000D01*
X123698000Y-48768000D02*
X123698000Y-48895000D01*
X122921000Y-50180239D02*
X124578761Y-51838000D01*
X124578761Y-51838000D02*
X127450000Y-51838000D01*
X122921000Y-49545000D02*
X122921000Y-50180239D01*
X127450000Y-51838000D02*
X127995000Y-52383000D01*
D42*
%TO.N,/PYRO1_DET*%
X95250000Y-42926000D02*
X95250000Y-99695000D01*
X102391000Y-42926000D02*
X95250000Y-42926000D01*
X104114046Y-41202954D02*
X102391000Y-42926000D01*
X97780000Y-102225000D02*
X101612000Y-102225000D01*
X102364000Y-101473000D02*
X102364000Y-102870000D01*
X104627415Y-41202954D02*
X104114046Y-41202954D01*
X101612000Y-102225000D02*
X102364000Y-101473000D01*
X95250000Y-99695000D02*
X97780000Y-102225000D01*
%TO.N,/PYRO2_DET*%
X104391518Y-42174220D02*
X103779176Y-42174220D01*
X97028000Y-103251000D02*
X97028000Y-109311833D01*
X97872000Y-70657000D02*
X96139000Y-72390000D01*
X102577396Y-43376000D02*
X95827000Y-43376000D01*
X95827000Y-43376000D02*
X95827000Y-58901827D01*
X98425000Y-101346000D02*
X98552000Y-101346000D01*
X96139000Y-72390000D02*
X95758000Y-72390000D01*
X101592000Y-112405000D02*
X102237000Y-111760000D01*
X95758000Y-98679000D02*
X98425000Y-101346000D01*
X95827000Y-58901827D02*
X97872000Y-60946827D01*
X103779176Y-42174220D02*
X102577396Y-43376000D01*
X97872000Y-60946827D02*
X97872000Y-70657000D01*
X95758000Y-72390000D02*
X95758000Y-98679000D01*
X102237000Y-111760000D02*
X102237000Y-113157000D01*
X97028000Y-109311833D02*
X100121167Y-112405000D01*
X100121167Y-112405000D02*
X101592000Y-112405000D01*
%TO.N,/PYRO3_DET*%
X102287251Y-100425713D02*
X102287251Y-99492000D01*
X102565500Y-98520249D02*
X101200251Y-97155000D01*
X96277000Y-43942000D02*
X102987695Y-43942000D01*
X98322000Y-70843396D02*
X98322000Y-60760431D01*
X98322000Y-60760431D02*
X96277000Y-58715431D01*
X120352538Y-118491000D02*
X102287251Y-100425713D01*
X103749695Y-43180000D02*
X103886000Y-43180000D01*
X101200251Y-97155000D02*
X96266000Y-97155000D01*
X102987695Y-43942000D02*
X103749695Y-43180000D01*
X96277000Y-58715431D02*
X96277000Y-43942000D01*
X131189000Y-108077000D02*
X131147749Y-108077000D01*
X96266000Y-97155000D02*
X96266000Y-72899396D01*
X96266000Y-72899396D02*
X98322000Y-70843396D01*
X131189000Y-109220000D02*
X131189000Y-108077000D01*
X127889000Y-111335749D02*
X127889000Y-118491000D01*
X102565500Y-99213751D02*
X102565500Y-98520249D01*
X102287251Y-99492000D02*
X102565500Y-99213751D01*
X127889000Y-118491000D02*
X120352538Y-118491000D01*
X131147749Y-108077000D02*
X127889000Y-111335749D01*
%TO.N,/PYRO4_DET*%
X132925168Y-99778168D02*
X132969500Y-99822500D01*
X96727000Y-58529035D02*
X96727000Y-44450000D01*
X131064000Y-98808000D02*
X130935000Y-98679000D01*
X103505000Y-44450000D02*
X103759000Y-44196000D01*
X132969500Y-114383038D02*
X128353538Y-118999000D01*
X96716000Y-73152000D02*
X98772000Y-71096000D01*
X131064000Y-99695000D02*
X131064000Y-98808000D01*
X98772000Y-60574035D02*
X96727000Y-58529035D01*
X101635167Y-118999000D02*
X96012000Y-113375833D01*
X96012000Y-113375833D02*
X96012000Y-101727000D01*
X96716000Y-95827000D02*
X96716000Y-73152000D01*
X128353538Y-118999000D02*
X101635167Y-118999000D01*
X96727000Y-44450000D02*
X103505000Y-44450000D01*
X98772000Y-71096000D02*
X98772000Y-60574035D01*
X97028000Y-96139000D02*
X96716000Y-95827000D01*
X130935000Y-97409000D02*
X130935000Y-98679000D01*
X132969500Y-99822500D02*
X132969500Y-114383038D01*
D41*
%TO.N,/RF_CS*%
X125222000Y-73079000D02*
X125222000Y-70104000D01*
X108839000Y-88662000D02*
X109639000Y-88662000D01*
X109639000Y-88662000D02*
X125222000Y-73079000D01*
X127000000Y-68834000D02*
X125730000Y-70104000D01*
X125730000Y-70104000D02*
X125222000Y-70104000D01*
D44*
%TO.N,/VPYRO*%
X111887000Y-61595000D02*
X111887000Y-52540500D01*
X108966000Y-64516000D02*
X111887000Y-61595000D01*
X107696000Y-64516000D02*
X108966000Y-64516000D01*
X122936000Y-41592000D02*
X122936000Y-42672000D01*
X117856000Y-50927000D02*
X117475000Y-50546000D01*
X117475000Y-50546000D02*
X112379000Y-50546000D01*
X120333000Y-38989000D02*
X122936000Y-41592000D01*
X111887000Y-52540500D02*
X111379000Y-52032500D01*
D41*
%TO.N,/PLED_R*%
X131826000Y-41275000D02*
X133856000Y-43305000D01*
X133856000Y-43305000D02*
X134747000Y-43305000D01*
%TO.N,Net-(J2-CC1)*%
X100195054Y-65664946D02*
X100076000Y-65784000D01*
X100195054Y-64633769D02*
X100195054Y-65664946D01*
%TO.N,Net-(J2-CC2)*%
X104140000Y-67205568D02*
X103770284Y-67575284D01*
X104140000Y-66931000D02*
X104140000Y-67205568D01*
D44*
%TO.N,/VIN*%
X119634001Y-45834001D02*
X121274951Y-45834001D01*
X121539000Y-45912999D02*
X119712999Y-45912999D01*
X128649000Y-50165000D02*
X128649000Y-50154000D01*
X125612000Y-47117000D02*
X122743001Y-47117000D01*
X119712999Y-45912999D02*
X119634001Y-45834001D01*
X128649000Y-50154000D02*
X125612000Y-47117000D01*
X122743001Y-47117000D02*
X121539000Y-45912999D01*
%TD*%
%TA.AperFunction,Conductor*%
%TO.N,GND*%
G36*
X113349000Y-41799613D02*
G01*
X113394387Y-41845000D01*
X113411000Y-41907000D01*
X113411000Y-43053000D01*
X116335000Y-43053000D01*
X116397000Y-43069613D01*
X116442387Y-43115000D01*
X116459000Y-43177000D01*
X116459000Y-44580000D01*
X116442387Y-44642000D01*
X116397000Y-44687387D01*
X116335000Y-44704000D01*
X113411000Y-44704000D01*
X113411000Y-46104000D01*
X113394387Y-46166000D01*
X113349000Y-46211387D01*
X113287000Y-46228000D01*
X111884000Y-46228000D01*
X111822000Y-46211387D01*
X111776613Y-46166000D01*
X111760000Y-46104000D01*
X111760000Y-41907000D01*
X111776613Y-41845000D01*
X111822000Y-41799613D01*
X111884000Y-41783000D01*
X113287000Y-41783000D01*
X113349000Y-41799613D01*
G37*
%TD.AperFunction*%
%TD*%
M02*
