M48
; DRILL file {KiCad 7.0.1} date Sat Jan  6 20:51:46 2024
; FORMAT={-:-/ absolute / inch / decimal}
; #@! TF.CreationDate,2024-01-06T20:51:46-05:00
; #@! TF.GenerationSoftware,Kicad,Pcbnew,7.0.1
; #@! TF.FileFunction,Plated,1,4,PTH
FMAT,2
INCH
; #@! TA.AperFunction,Plated,PTH,ViaDrill
T1C0.0118
; #@! TA.AperFunction,Plated,PTH,ViaDrill
T2C0.0157
; #@! TA.AperFunction,Plated,PTH,ComponentDrill
T3C0.0236
; #@! TA.AperFunction,Plated,PTH,ComponentDrill
T4C0.0256
; #@! TA.AperFunction,Plated,PTH,ComponentDrill
T5C0.0354
%
G90
G05
T1
X3.84Y-3.56
X3.9108Y-3.965
X3.942Y-2.665
X3.9447Y-2.5446
X4.023Y-2.367
X4.0323Y-3.8227
X4.05Y-1.48
X4.0503Y-2.6734
X4.0581Y-2.5185
X4.0854Y-2.6604
X4.0969Y-2.5665
X4.1094Y-2.3382
X4.1109Y-2.4397
X4.145Y-3.235
X4.1824Y-1.485
X4.205Y-3.785
X4.22Y-2.3
X4.24Y-2.54
X4.2623Y-3.115
X4.295Y-2.08
X4.305Y-1.485
X4.335Y-2.775
X4.36Y-2.92
X4.38Y-3.255
X4.38Y-3.465
X4.385Y-1.55
X4.385Y-2.0485
X4.385Y-3.68
X4.385Y-3.75
X4.4Y-2.66
X4.4244Y-1.99
X4.435Y-1.66
X4.435Y-1.695
X4.435Y-1.73
X4.435Y-1.765
X4.435Y-1.8
X4.435Y-3.8
X4.4416Y-3.4016
X4.445Y-4.595
X4.455Y-2.335
X4.4606Y-2.0344
X4.5Y-2.9
X4.5117Y-2.24
X4.535Y-2.275
X4.565Y-2.515
X4.585Y-2.425
X4.585Y-2.545
X4.59Y-2.345
X4.605Y-1.8332
X4.6069Y-2.7806
X4.6081Y-2.9156
X4.6101Y-3.9458
X4.615Y-3.79
X4.6306Y-2.2444
X4.64Y-2.005
X4.65Y-2.7375
X4.66Y-2.865
X4.67Y-1.87
X4.675Y-4.835
X4.6956Y-2.3094
X4.7Y-1.5035
X4.7Y-3.8
X4.71Y-2.065
X4.724Y-1.6425
X4.735Y-1.76
X4.735Y-3.95
X4.7394Y-2.345
X4.74Y-3.8
X4.7544Y-2.71
X4.76Y-3.42
X4.765Y-4.72
X4.775Y-2.0
X4.78Y-2.764
X4.7906Y-2.385
X4.7912Y-1.6885
X4.795Y-1.755
X4.7981Y-2.6569
X4.8Y-3.335
X4.805Y-4.85
X4.8294Y-3.8546
X4.83Y-2.4373
X4.84Y-1.68
X4.84Y-3.015
X4.845Y-1.595
X4.855Y-2.03
X4.855Y-4.325
X4.865Y-1.965
X4.87Y-1.92
X4.8756Y-2.6306
X4.8774Y-1.5376
X4.915Y-2.6777
X4.9379Y-3.1189
X4.94Y-2.96
X4.9722Y-3.615
X4.975Y-3.685
X4.98Y-2.185
X4.98Y-2.38
X4.9844Y-2.14
X4.9844Y-2.305
X4.995Y-3.2609
X4.995Y-4.455
X5.0Y-2.71
X5.0Y-2.775
X5.0Y-3.115
X5.01Y-2.4334
X5.01Y-2.505
X5.01Y-2.4689
X5.035Y-3.645
X5.05Y-1.4719
X5.05Y-3.115
X5.0612Y-2.505
X5.0616Y-4.47
X5.07Y-2.185
X5.07Y-2.57
X5.07Y-3.31
X5.085Y-2.09
X5.0899Y-4.3991
X5.09Y-3.555
X5.1Y-3.99
X5.12Y-2.505
X5.12Y-3.31
X5.12Y-3.4
X5.13Y-1.505
X5.14Y-1.975
X5.16Y-3.925
X5.165Y-4.535
X5.175Y-4.215
X5.19Y-1.625
X5.195Y-4.44
X5.2084Y-4.13
X5.225Y-3.82
X5.2333Y-3.9283
X5.27Y-3.585
X5.285Y-3.975
X5.3Y-3.15
X5.3Y-3.37
X5.3359Y-1.7232
X5.355Y-3.535
X5.375Y-3.565
T2
X3.78Y-4.005
X3.82Y-3.785
X3.82Y-4.065
X3.8362Y-3.7462
X3.88Y-3.99
X3.93Y-2.37
X3.95Y-4.06
X3.95Y-4.455
X3.96Y-3.55
X3.97Y-3.7965
X3.975Y-4.185
X3.99Y-1.44
X3.99Y-4.095
X3.9944Y-2.3356
X4.0301Y-4.1311
X4.0635Y-1.8238
X4.07Y-1.785
X4.0781Y-3.47
X4.08Y-1.8935
X4.085Y-1.74
X4.085Y-4.33
X4.09Y-1.7
X4.09Y-3.56
X4.105Y-1.94
X4.1099Y-1.6604
X4.11Y-3.93
X4.1192Y-1.6222
X4.1555Y-3.56
X4.205Y-2.655
X4.28Y-2.735
X4.285Y-1.985
X4.3237Y-2.6487
X4.375Y-3.565
X4.46Y-2.56
X4.4861Y-2.36
X4.5Y-2.97
X4.5416Y-2.4701
X4.59Y-4.56
X4.6122Y-2.5052
X4.63Y-2.665
X4.66Y-3.385
X4.6618Y-4.5165
X4.675Y-2.57
X4.685Y-2.43
X4.775Y-3.57
X5.015Y-3.555
T4
X4.365Y-4.0052
X4.8296Y-4.0052
T5
X3.8702Y-1.925
X3.8702Y-2.125
X3.8852Y-3.895
X3.8852Y-4.095
X3.8852Y-4.295
X3.8852Y-4.495
X5.315Y-3.8911
X5.315Y-4.0911
X5.315Y-4.2911
X5.315Y-4.4911
X5.34Y-1.9211
X5.34Y-2.1211
X5.34Y-2.3211
T3
G00X3.8207Y-2.4187
M15
G01X3.7893Y-2.4187
M16
G05
G00X3.8207Y-2.7589
M15
G01X3.7893Y-2.7589
M16
G05
G00X3.9912Y-2.4187
M15
G01X3.9479Y-2.4187
M16
G05
G00X3.9912Y-2.7589
M15
G01X3.9479Y-2.7589
M16
G05
T0
M30
